<svg id="Layer_1" data-name="Layer 1" xmlns="http://www.w3.org/2000/svg" xmlns:xlink="http://www.w3.org/1999/xlink" viewBox="0 0 180 252"><defs><style>.cls-1{fill:#ffb000;}.cls-2{fill:#425ce6;}.cls-3,.cls-4{fill:none;stroke:#ccc;stroke-miterlimit:10;}.cls-3{stroke-width:0.5px;}.cls-4{stroke-width:0.45px;}.cls-5{fill:#fff4d7;}</style><symbol id="Card_layout_7" data-name="Card layout 7" viewBox="0 0 180 252"><rect class="cls-3" x="7.5" y="7.5" width="165" height="237"/><rect class="cls-3" x="7.5" y="7.5" width="38.34" height="237"/><rect class="cls-3" x="7.5" y="42.44" width="38.34" height="6.9"/><rect class="cls-3" x="31.06" y="237.6" width="141.44" height="6.9"/><rect class="cls-3" x="45.84" y="35.54" width="120.77" height="202.06"/><rect class="cls-4" x="70.49" y="53.83" width="71.47" height="154.94"/><line class="cls-4" x1="70.49" y1="105.48" x2="141.96" y2="105.48"/><line class="cls-4" x1="70.49" y1="157.12" x2="141.96" y2="157.12"/><line class="cls-4" x1="70.49" y1="131.3" x2="141.96" y2="131.3"/><line class="cls-4" x1="106.22" y1="208.77" x2="106.22" y2="53.83"/><polygon class="cls-4" points="141.96 131.3 106.22 53.83 70.49 131.3 106.22 208.77 141.96 131.3"/><line class="cls-4" x1="70.49" y1="53.83" x2="141.96" y2="105.48"/><line class="cls-4" x1="70.49" y1="105.48" x2="141.96" y2="53.83"/><line class="cls-4" x1="70.49" y1="105.48" x2="141.96" y2="157.12"/><line class="cls-4" x1="70.49" y1="157.12" x2="141.96" y2="105.48"/><line class="cls-4" x1="70.49" y1="157.12" x2="141.96" y2="208.77"/><line class="cls-4" x1="70.49" y1="208.77" x2="141.96" y2="157.12"/><rect class="cls-5" width="180" height="252" rx="12"/></symbol><symbol id="Clubs" data-name="Clubs" viewBox="0 0 28.29 27.45"><path class="cls-2" d="M27.8,14.54,24.31,9.8A1.82,1.82,0,0,0,22,9.65l-6.18,4a.22.22,0,0,1-.35-.18V12.26a1.34,1.34,0,0,1,.45-1l4.39-3.45a1.11,1.11,0,0,0,0-1.64l-5-5.71A1.72,1.72,0,0,0,13,.46l-5,5.71A1.09,1.09,0,0,0,8,7.81l4.38,3.45a1.34,1.34,0,0,1,.45,1v1.26a.22.22,0,0,1-.35.18l-6.17-4A1.82,1.82,0,0,0,4,9.8L.49,14.54a1.51,1.51,0,0,0-.17,2L4,21.32a1.51,1.51,0,0,0,1.88.43l5.58-3a.62.62,0,0,1,.86.76L9.63,26a1.12,1.12,0,0,0,1.06,1.5h6.92A1.12,1.12,0,0,0,18.66,26L16,19.55a.62.62,0,0,1,.87-.76l5.8,3a1.52,1.52,0,0,0,1.88-.43L28,16.58A1.49,1.49,0,0,0,27.8,14.54Z"/></symbol><symbol id="Black_2" data-name="Black 2" viewBox="0 0 117.34 116.74"><path class="cls-1" d="M47.4,80.86a117,117,0,0,1-13.91,8.86,35.75,35.75,0,0,1-7,2.85C24.4,93.16,22,93.38,20,92,12,86.34,5.05,79.78.46,71a3.24,3.24,0,0,1,.06-3.42A56.89,56.89,0,0,1,17.05,48.94c3.82-2.72,8.71-2.57,12.84,0,5.42,3.33,11.17,6.1,16.32,9.86a10.45,10.45,0,0,1,3,2.86c-.33-5.31.35-9.94-4.39-13.28A24.41,24.41,0,0,1,36.38,37.9a10.19,10.19,0,0,1,.33-9.24C40.43,21.59,46,16.27,52.45,11.85a7,7,0,0,1,7.88.21,47.21,47.21,0,0,1,15.14,16c2.24,4,1.87,7.85-.24,11.67a29.11,29.11,0,0,1-8.13,9.11c-1.61,1.22-2.82,2.46-3,4.57s-1.33,3.76-1.28,5.8c0,.49-.22,1.12.3,1.43s.94-.21,1.35-.52c5.76-4.41,12.17-7.8,18.47-11.3,4.52-2.51,9.65-2.57,13.87,1a64.68,64.68,0,0,1,15,17.31,3.9,3.9,0,0,1,.17,4.13c-3.34,6.59-8.5,11.6-13.84,16.48-1.15,1.06-2.4,2-3.63,3-3.44,2.66-7.15,2.84-11,1.09a70.7,70.7,0,0,1-16.72-10.1c-.58-.49-1.31-1.33-2-.85s-.8,9.5.15,11.57c4.23,5.95,13.7,9.87,13.7,21.85-.07,2-.29,2.76-2.69,2.09a39,39,0,0,0-9.27-1.29c-4-.13-6.78,0-8.9-3.14-1-1.53-1.65-2-2.79-.08-3.25,5.55-9,3.3-14.3,3.84a14.35,14.35,0,0,0-4.35.71c-1.85.78-2.66.18-2.81-1.92-.27-3.9,1.25-7.32,2.76-10.67,1.75-3.87,6.85-7.61,9.56-11S47.32,85.53,47.4,80.86Zm15-55.5a2.26,2.26,0,0,0,2.45-2.57c-.1-1.68-1.21-2.44-2.84-2.37a2.27,2.27,0,0,0-2.42,2.49C59.56,24.67,60.58,25.38,62.38,25.36ZM47.54,23.69c0,.91,1,1.78,2.42,1.77A2.13,2.13,0,0,0,52.31,23a2.42,2.42,0,0,0-2.75-2.48C48,20.57,47.52,21.59,47.54,23.69Z"/><path class="cls-1" d="M62.38,25.36c-1.8,0-2.82-.69-2.81-2.45A2.27,2.27,0,0,1,62,20.42c1.63-.07,2.74.69,2.84,2.37A2.26,2.26,0,0,1,62.38,25.36Z"/><path class="cls-1" d="M47.54,23.69c0-2.1.46-3.12,2-3.21A2.42,2.42,0,0,1,52.31,23,2.13,2.13,0,0,1,50,25.46C48.49,25.47,47.54,24.6,47.54,23.69Z"/><path class="cls-2" d="M52.29,70.13A114.84,114.84,0,0,1,38.38,79a35.18,35.18,0,0,1-7,2.86c-2.13.59-4.52.8-6.53-.61-8-5.63-14.95-12.19-19.54-21a3.22,3.22,0,0,1,.07-3.41A56.56,56.56,0,0,1,22,38.21c3.82-2.72,8.71-2.57,12.84,0C40.2,41.5,46,44.27,51.1,48a10.55,10.55,0,0,1,3,2.85c-.34-5.31.35-9.93-4.39-13.28a24.22,24.22,0,0,1-8.47-10.45,10.19,10.19,0,0,1,.32-9.24c3.72-7.07,9.3-12.39,15.74-16.81a7,7,0,0,1,7.88.22,47.18,47.18,0,0,1,15.14,16c2.25,4,1.88,7.85-.24,11.68A29.2,29.2,0,0,1,72,38.1c-1.61,1.21-2.82,2.45-3,4.56s-1.33,3.76-1.28,5.8c0,.49-.21,1.12.31,1.43s.94-.2,1.34-.51C75.1,45,81.52,41.57,87.82,38.07c4.52-2.51,9.64-2.56,13.87,1,5.86,5,11.14,10.54,15,17.32a3.86,3.86,0,0,1,.17,4.12c-3.34,6.6-8.5,11.6-13.83,16.49-1.16,1-2.4,2-3.64,3-3.43,2.67-7.15,2.84-11,1.1A71.28,71.28,0,0,1,71.62,71c-.58-.48-1.31-1.33-2-.85s-.81,9.51.14,11.57c4.23,6,13.7,9.88,13.7,21.85-.07,2-.28,2.76-2.69,2.09a39.55,39.55,0,0,0-9.27-1.29c-4-.12-6.78,0-8.9-3.13-1-1.53-1.65-2-2.78-.09-3.25,5.55-9,3.3-14.3,3.84a14.68,14.68,0,0,0-4.36.71c-1.85.78-2.66.19-2.8-1.91-.28-3.9,1.25-7.33,2.75-10.67,1.75-3.88,6.85-7.62,9.57-11S52.21,74.79,52.29,70.13Z"/></symbol></defs><title>Classic</title><use width="180" height="252" xlink:href="#Card_layout_7"/><use width="28.29" height="27.45" transform="translate(13.49 45.44)" xlink:href="#Clubs"/><path class="cls-2" d="M16.84,38.43l4.85-6.86a27.67,27.67,0,0,0,3.71,3.84,3.76,3.76,0,0,0,2.23.8,2.49,2.49,0,0,0,2-.85,3.31,3.31,0,0,0,.75-2.26,6,6,0,0,0-1.57-4.22,5.09,5.09,0,0,0-3.89-1.68,4.41,4.41,0,0,0-1.6.31,7.45,7.45,0,0,0-1.69.95l-3.8-1.26c.3-.85.56-1.72.79-2.61s.44-1.86.63-2.88l2.17-11.28h9L30.61,9h3.08L32,17.55H23.25l-.84,3.87a9.57,9.57,0,0,1,2.13-.89,7.82,7.82,0,0,1,2.16-.29A6.47,6.47,0,0,1,32.12,23a12,12,0,0,1,2.1,7.35,14.88,14.88,0,0,1-2.74,9.13,8.21,8.21,0,0,1-6.81,3.68A7.86,7.86,0,0,1,20.47,42,12.4,12.4,0,0,1,16.84,38.43Z"/><use width="117.34" height="116.74" transform="translate(117.89 32.91) scale(0.41)" xlink:href="#Black_2"/><use width="117.34" height="116.74" transform="translate(48.2 32.91) scale(0.41)" xlink:href="#Black_2"/><use width="117.34" height="116.74" transform="translate(117.89 184.77) scale(0.41)" xlink:href="#Black_2"/><use width="117.34" height="116.74" transform="translate(82.1 105.3) scale(0.41)" xlink:href="#Black_2"/><use width="117.34" height="116.74" transform="translate(48.2 184.77) scale(0.41)" xlink:href="#Black_2"/></svg>