<svg id="Layer_1" data-name="Layer 1" xmlns="http://www.w3.org/2000/svg" xmlns:xlink="http://www.w3.org/1999/xlink" viewBox="0 0 180 252"><defs><style>.cls-1{fill:#ffb000;}.cls-2{fill:#425ce6;}.cls-3,.cls-4{fill:none;stroke:#ccc;stroke-miterlimit:10;}.cls-3{stroke-width:0.5px;}.cls-4{stroke-width:0.45px;}.cls-5{fill:#fff4d7;}</style><symbol id="Card_layout_7" data-name="Card layout 7" viewBox="0 0 180 252"><rect class="cls-3" x="7.5" y="7.5" width="165" height="237"/><rect class="cls-3" x="7.5" y="7.5" width="38.34" height="237"/><rect class="cls-3" x="7.5" y="42.44" width="38.34" height="6.9"/><rect class="cls-3" x="31.06" y="237.6" width="141.44" height="6.9"/><rect class="cls-3" x="45.84" y="35.54" width="120.77" height="202.06"/><rect class="cls-4" x="70.49" y="53.83" width="71.47" height="154.94"/><line class="cls-4" x1="70.49" y1="105.48" x2="141.96" y2="105.48"/><line class="cls-4" x1="70.49" y1="157.12" x2="141.96" y2="157.12"/><line class="cls-4" x1="70.49" y1="131.3" x2="141.96" y2="131.3"/><line class="cls-4" x1="106.22" y1="208.77" x2="106.22" y2="53.83"/><polygon class="cls-4" points="141.96 131.3 106.22 53.83 70.49 131.3 106.22 208.77 141.96 131.3"/><line class="cls-4" x1="70.49" y1="53.83" x2="141.96" y2="105.48"/><line class="cls-4" x1="70.49" y1="105.48" x2="141.96" y2="53.83"/><line class="cls-4" x1="70.49" y1="105.48" x2="141.96" y2="157.12"/><line class="cls-4" x1="70.49" y1="157.12" x2="141.96" y2="105.48"/><line class="cls-4" x1="70.49" y1="157.12" x2="141.96" y2="208.77"/><line class="cls-4" x1="70.49" y1="208.77" x2="141.96" y2="157.12"/><rect class="cls-5" width="180" height="252" rx="12"/></symbol><symbol id="Spades" data-name="Spades" viewBox="0 0 27.89 26"><path class="cls-2" d="M14,26h3.41a1.11,1.11,0,0,0,1-1.48l-2.27-6.31a.61.61,0,0,1,.85-.75l4.44,2.26a1.5,1.5,0,0,0,1.86-.42l4.3-5.52a1.51,1.51,0,0,0-.17-2L15.1.45a1.71,1.71,0,0,0-2.31,0L.48,11.76a1.5,1.5,0,0,0-.16,2l4.3,5.52a1.48,1.48,0,0,0,1.85.42l4.44-2.26a.61.61,0,0,1,.85.75L9.49,24.52a1.11,1.11,0,0,0,1,1.48Z"/></symbol><symbol id="Black_1" data-name="Black 1" viewBox="0 0 123.63 120.97"><path class="cls-1" d="M87.21,88.45c-6.38.3-12-2.26-17.69-4.63-.8-.33-1.69-1.25-2.45-.54s-.27,1.65-.06,2.55a22.55,22.55,0,0,0,4.83,9.79,37.86,37.86,0,0,1,5.66,9.73c2,4.43,3,8.18,2.88,13,0,1.7-1.5,3.54-3,2a4.14,4.14,0,0,0-3.23-1.07c-14.28,0-14-4-17.1-4-3.27,0-4.34,3.4-16,3.4a13,13,0,0,0-3.29,1.11c-2.14,1.15-3.54.4-3.47-2.07.24-7.61,2.28-14.68,7-20.76a88.66,88.66,0,0,0,5-8,7.55,7.55,0,0,0,1-3.37c.28-3.25.16-3.32-2.89-2.21L33.53,87.41c-5.6,2-11,.5-16.27-1.21-8.88-2.9-14.8-9-17-18.13a12.88,12.88,0,0,1,2.35-10.4C10.11,47,19.37,38,29.5,29.92c6.35-5.08,12.77-10.06,19.57-14.52,7.89-5.17,8-5.29,15.24-.33A297.18,297.18,0,0,1,96.48,40.3a94,94,0,0,1,15.86,18.81c2,3.08,2,6.79,1.29,10.34-1.33,6.26-4.52,11.14-10.37,14.25C98.19,86.39,93.13,88.78,87.21,88.45Z"/><path class="cls-2" d="M96.76,77c-6.38.29-12-2.27-17.69-4.64-.8-.33-1.68-1.24-2.45-.54s-.26,1.65-.06,2.55a22.77,22.77,0,0,0,4.83,9.79,37.9,37.9,0,0,1,5.67,9.73c2,4.44,3,8.18,2.88,13,0,1.7-1.51,3.54-3,2a4.12,4.12,0,0,0-3.23-1.07c-14.28,0-14-4-17.1-4-3.27,0-4.34,3.41-16,3.41a12.43,12.43,0,0,0-3.28,1.1c-2.15,1.15-3.55.4-3.47-2.07.23-7.61,2.27-14.68,7-20.76a89.4,89.4,0,0,0,5-8,7.56,7.56,0,0,0,1-3.36c.27-3.25.16-3.33-2.89-2.22-3.6,1.31-7.21,2.59-10.82,3.89-5.6,2-11,.5-16.28-1.21-8.88-2.9-14.8-9-16.95-18.13a12.87,12.87,0,0,1,2.34-10.4c7.46-10.71,16.72-19.64,26.86-27.75C45.41,13.4,51.83,8.42,58.63,4c7.88-5.16,8-5.28,15.23-.32A296.94,296.94,0,0,1,106,28.86,94.32,94.32,0,0,1,121.9,47.67c2,3.08,2,6.79,1.29,10.34-1.33,6.26-4.53,11.14-10.38,14.25C107.75,75,102.68,77.34,96.76,77Z"/></symbol></defs><title>Classic</title><use width="180" height="252" xlink:href="#Card_layout_7"/><use width="27.89" height="26" transform="translate(13.69 46.17)" xlink:href="#Spades"/><path class="cls-2" d="M16.84,38.43l4.85-6.86a27.08,27.08,0,0,0,3.71,3.84,3.76,3.76,0,0,0,2.23.8,2.49,2.49,0,0,0,2-.85,3.3,3.3,0,0,0,.75-2.26,6,6,0,0,0-1.57-4.22,5.09,5.09,0,0,0-3.89-1.68,4.41,4.41,0,0,0-1.6.31,7.45,7.45,0,0,0-1.69.95l-3.8-1.26c.3-.85.56-1.72.79-2.61s.44-1.86.63-2.88l2.17-11.28h9L30.61,9h3.08L32,17.55H23.25l-.84,3.87a9.57,9.57,0,0,1,2.13-.89,7.82,7.82,0,0,1,2.16-.29A6.47,6.47,0,0,1,32.12,23a12,12,0,0,1,2.1,7.35,14.88,14.88,0,0,1-2.74,9.13,8.21,8.21,0,0,1-6.81,3.68A8,8,0,0,1,20.47,42,12.4,12.4,0,0,1,16.84,38.43Z"/><use width="123.63" height="120.97" transform="translate(47.83 35.04) scale(0.37)" xlink:href="#Black_1"/><use width="123.63" height="120.97" transform="translate(119.3 35.04) scale(0.37)" xlink:href="#Black_1"/><use width="123.63" height="120.97" transform="translate(47.83 186.6) scale(0.37)" xlink:href="#Black_1"/><use width="123.63" height="120.97" transform="translate(119.3 186.6) scale(0.37)" xlink:href="#Black_1"/><use width="123.63" height="120.97" transform="translate(83.57 109.13) scale(0.37)" xlink:href="#Black_1"/></svg>