<svg id="Layer_1" data-name="Layer 1" xmlns="http://www.w3.org/2000/svg" xmlns:xlink="http://www.w3.org/1999/xlink" viewBox="0 0 180 252"><defs><style>.cls-1,.cls-2{fill:none;stroke:#ccc;stroke-miterlimit:10;}.cls-1{stroke-width:0.5px;}.cls-2{stroke-width:0.45px;}.cls-3{fill:#fff4d7;}.cls-4{fill:#ea8f00;}.cls-5{fill:#425ce6;}.cls-6{fill:#ffb000;}</style><symbol id="Card_layout_7" data-name="Card layout 7" viewBox="0 0 180 252"><rect class="cls-1" x="7.5" y="7.5" width="165" height="237"/><rect class="cls-1" x="7.5" y="7.5" width="38.34" height="237"/><rect class="cls-1" x="7.5" y="42.44" width="38.34" height="6.9"/><rect class="cls-1" x="31.06" y="237.6" width="141.44" height="6.9"/><rect class="cls-1" x="45.84" y="35.54" width="120.77" height="202.06"/><rect class="cls-2" x="70.49" y="53.83" width="71.47" height="154.94"/><line class="cls-2" x1="70.49" y1="105.48" x2="141.96" y2="105.48"/><line class="cls-2" x1="70.49" y1="157.12" x2="141.96" y2="157.12"/><line class="cls-2" x1="70.49" y1="131.3" x2="141.96" y2="131.3"/><line class="cls-2" x1="106.22" y1="208.77" x2="106.22" y2="53.83"/><polygon class="cls-2" points="141.96 131.3 106.22 53.83 70.49 131.3 106.22 208.77 141.96 131.3"/><line class="cls-2" x1="70.49" y1="53.83" x2="141.96" y2="105.48"/><line class="cls-2" x1="70.49" y1="105.48" x2="141.96" y2="53.83"/><line class="cls-2" x1="70.49" y1="105.48" x2="141.96" y2="157.12"/><line class="cls-2" x1="70.49" y1="157.12" x2="141.96" y2="105.48"/><line class="cls-2" x1="70.49" y1="157.12" x2="141.96" y2="208.77"/><line class="cls-2" x1="70.49" y1="208.77" x2="141.96" y2="157.12"/><rect class="cls-3" width="180" height="252" rx="12"/></symbol><symbol id="Heart" data-name="Heart" viewBox="0 0 27.07 25"><path class="cls-4" d="M26.82,9.6l-6.3-9A1.38,1.38,0,0,0,18.6.25L14.78,2.89a2.2,2.2,0,0,1-2.5,0L8.47.25A1.39,1.39,0,0,0,6.54.59L.25,9.6a1.39,1.39,0,0,0,.12,1.73L12.51,24.55a1.38,1.38,0,0,0,2,0L26.7,11.33A1.39,1.39,0,0,0,26.82,9.6Z"/><path class="cls-4" d="M13.85,21.57a5.13,5.13,0,0,1-1-.58L4,12.11a1.81,1.81,0,0,1-.12-2.66C5,7.92,6.15,6.35,7.3,4.83A2.28,2.28,0,0,1,11.13,5,10.9,10.9,0,0,0,13.2,6.83c.21.15.82,0,1.08-.22A26.88,26.88,0,0,0,17.14,4c.9-1,1.66-.67,2.29.13,1.41,1.78,2.74,3.6,4.05,5.45a1.36,1.36,0,0,1,.14,1.18A28.51,28.51,0,0,1,21.19,14c-.88,1-1.88,1.91-2.83,2.85s-2.18,2.12-3.24,3.2C14.68,20.54,14.3,21.05,13.85,21.57Z"/></symbol></defs><title>Classic</title><use width="180" height="252" xlink:href="#Card_layout_7"/><use width="27.07" height="25" transform="translate(14.1 46.67)" xlink:href="#Heart"/><path class="cls-5" d="M39.07,135c-.12-1.46.77-3.58,1.59-5.6C45,118.83,51.28,110.26,59.75,104c2.51-1.85,5.44-2.29,8.35-2.84,4.56-.87,8.65.61,12.89,2.21,2.69,1,5.39,1.73,7.72,3.71,1.27,1.07,2.57.9,4,.27,5.26-2.25,10-6,15.42-7.73,4.41-1.37,8.44-1.51,12.75,1.44,9.24,6.33,15.52,12.84,20.85,23.59,3,5.11.19,13.13-1.92,16.92-5.56,10-37.45,34.1-40.24,36.68-1.75,1.61-6.79,20.59-7.35,23.06-.26,1.17-1,2.26-1.92,2.34-1.29.11-1-1.48-1.19-2.38C87.1,190,82.21,180,80,177.83c-4.86-4.92-36-28.75-38.2-33.44C40.57,141.74,39.14,139.17,39.07,135Zm65.6-18.77c0-1.8-.74-2.92-2.47-3.15a3.17,3.17,0,0,0-3.46,2.68,2.52,2.52,0,0,0,2.54,2.7A2.82,2.82,0,0,0,104.67,116.26Zm-20.89.66c-.08-1.63-.83-2.82-2.62-2.82A2.69,2.69,0,0,0,78.28,117c0,1.36.77,2.95,2.37,2.78C82.09,119.64,84.06,119.33,83.78,116.92Z"/><path class="cls-5" d="M104.67,116.26a2.82,2.82,0,0,1-3.39,2.23,2.52,2.52,0,0,1-2.54-2.7,3.17,3.17,0,0,1,3.46-2.68C103.93,113.34,104.68,114.46,104.67,116.26Z"/><path class="cls-5" d="M83.78,116.92c.28,2.41-1.69,2.72-3.13,2.87-1.6.17-2.35-1.42-2.37-2.78a2.69,2.69,0,0,1,2.88-2.91C83,114.1,83.7,115.29,83.78,116.92Z"/><path class="cls-6" d="M50.4,109.17c1.44-6.23,14.51-21.15,20.28-25,4.54-3,10.61-3.2,15.87-1.57A113.65,113.65,0,0,1,99.69,87.5a4.34,4.34,0,0,0,4,.28,151.82,151.82,0,0,1,15.42-5.73c4.41-1.38,8.44-1.52,12.75,1.44,9.24,6.32,15.52,12.84,20.85,23.59,3,5.11.19,13.13-1.92,16.92-5.56,10-37.45,34.09-40.24,36.67-1.75,1.62-6.79,20.6-7.35,23.07-.26,1.16-.54,2.26-1.51,2.34-1.29.11-1.43-1.48-1.6-2.39-2-11.25-4.91-20.68-7.4-23.63S58.44,133.6,53.49,124.51C50,118.51,49.18,114.46,50.4,109.17ZM115.65,98.7c0-1.81-.74-2.93-2.47-3.16a3.18,3.18,0,0,0-3.46,2.69,2.52,2.52,0,0,0,2.54,2.7A2.83,2.83,0,0,0,115.65,98.7Zm-20.89.66c-.08-1.64-.83-2.82-2.62-2.82a2.69,2.69,0,0,0-2.88,2.91c0,1.36.77,2.94,2.37,2.78C93.07,102.08,95,101.77,94.76,99.36Z"/><path class="cls-5" d="M115.65,98.7a2.83,2.83,0,0,1-3.39,2.23,2.52,2.52,0,0,1-2.54-2.7,3.18,3.18,0,0,1,3.46-2.69C114.91,95.77,115.66,96.89,115.65,98.7Z"/><path class="cls-5" d="M94.76,99.36c.28,2.41-1.69,2.72-3.13,2.87-1.6.16-2.35-1.42-2.37-2.78a2.69,2.69,0,0,1,2.88-2.91C93.93,96.54,94.68,97.72,94.76,99.36Z"/><path class="cls-4" d="M15,42.44V38.93h1.62L23.78,11.1h6.53l7.17,27.83H39.1v3.51H28.52V38.93h1.57L29,34.67H21l-1.15,4.26h1.62v3.51ZM22,30.8h6.09l-3-12.37Z"/></svg>