<svg id="Layer_1" data-name="Layer 1" xmlns="http://www.w3.org/2000/svg" xmlns:xlink="http://www.w3.org/1999/xlink" viewBox="0 0 180 252"><defs><style>.cls-1,.cls-2{fill:none;stroke:#ccc;stroke-miterlimit:10;}.cls-1{stroke-width:0.5px;}.cls-2{stroke-width:0.45px;}.cls-3{fill:#fff4d7;}.cls-4{fill:#e1306c;}.cls-5{fill:#ffb000;}.cls-6{fill:#fff;}</style><symbol id="Card_layout_7" data-name="Card layout 7" viewBox="0 0 180 252"><rect class="cls-1" x="7.5" y="7.5" width="165" height="237"/><rect class="cls-1" x="7.5" y="7.5" width="38.34" height="237"/><rect class="cls-1" x="7.5" y="42.44" width="38.34" height="6.9"/><rect class="cls-1" x="31.06" y="237.6" width="141.44" height="6.9"/><rect class="cls-1" x="45.84" y="35.54" width="120.77" height="202.06"/><rect class="cls-2" x="70.49" y="53.83" width="71.47" height="154.94"/><line class="cls-2" x1="70.49" y1="105.48" x2="141.96" y2="105.48"/><line class="cls-2" x1="70.49" y1="157.12" x2="141.96" y2="157.12"/><line class="cls-2" x1="70.49" y1="131.3" x2="141.96" y2="131.3"/><line class="cls-2" x1="106.22" y1="208.77" x2="106.22" y2="53.83"/><polygon class="cls-2" points="141.96 131.3 106.22 53.83 70.49 131.3 106.22 208.77 141.96 131.3"/><line class="cls-2" x1="70.49" y1="53.83" x2="141.96" y2="105.48"/><line class="cls-2" x1="70.49" y1="105.48" x2="141.96" y2="53.83"/><line class="cls-2" x1="70.49" y1="105.48" x2="141.96" y2="157.12"/><line class="cls-2" x1="70.49" y1="157.12" x2="141.96" y2="105.48"/><line class="cls-2" x1="70.49" y1="157.12" x2="141.96" y2="208.77"/><line class="cls-2" x1="70.49" y1="208.77" x2="141.96" y2="157.12"/><rect class="cls-3" width="180" height="252" rx="12"/></symbol><symbol id="Heart_red" data-name="Heart red" viewBox="0 0 27.07 25"><path class="cls-4" d="M26.82,9.6l-6.3-9A1.38,1.38,0,0,0,18.6.25L14.78,2.89a2.2,2.2,0,0,1-2.5,0L8.47.25A1.39,1.39,0,0,0,6.54.59L.25,9.6a1.39,1.39,0,0,0,.12,1.73L12.51,24.55a1.38,1.38,0,0,0,2,0L26.7,11.33A1.39,1.39,0,0,0,26.82,9.6Z"/><path class="cls-4" d="M13.85,21.57a5.13,5.13,0,0,1-1-.58L4,12.11a1.81,1.81,0,0,1-.12-2.66C5,7.92,6.15,6.35,7.3,4.83A2.28,2.28,0,0,1,11.13,5,10.9,10.9,0,0,0,13.2,6.83c.21.15.82,0,1.08-.22A26.88,26.88,0,0,0,17.14,4c.9-1,1.66-.67,2.29.13,1.41,1.78,2.74,3.6,4.05,5.45a1.36,1.36,0,0,1,.14,1.18A28.51,28.51,0,0,1,21.19,14c-.88,1-1.88,1.91-2.83,2.85s-2.18,2.12-3.24,3.2C14.68,20.54,14.3,21.05,13.85,21.57Z"/></symbol><symbol id="Royal_red_2" data-name="Royal red 2" viewBox="0 0 115 122.54"><path class="cls-5" d="M0,53.92c-.11-1.46.78-3.58,1.59-5.6,4.3-10.6,10.62-19.17,19.09-25.44C23.2,21,26.13,20.59,29,20c4.56-.86,8.65.61,12.89,2.21,2.69,1,5.39,1.74,7.73,3.71,1.26,1.07,2.56.9,4,.27,5.26-2.25,10-6,15.42-7.72,4.41-1.38,8.44-1.52,12.75,1.43,9.24,6.33,15.52,12.84,20.86,23.59,3,5.11.19,13.14-1.92,16.92-5.56,10-37.46,34.1-40.25,36.68-1.75,1.61-6.79,20.59-7.34,23.06-.27,1.17-1,2.26-1.93,2.34-1.28.11-1-1.48-1.18-2.38C48,108.9,43.15,98.93,41,96.72,36.11,91.8,5,68,2.77,63.28,1.51,60.63.08,58.06,0,53.92ZM65.62,35.15c0-1.8-.75-2.92-2.47-3.15a3.17,3.17,0,0,0-3.46,2.69,2.51,2.51,0,0,0,2.54,2.69A2.82,2.82,0,0,0,65.62,35.15Zm-20.89.67C44.64,34.18,43.9,33,42.11,33a2.7,2.7,0,0,0-2.88,2.91c0,1.36.77,3,2.36,2.78S45,38.23,44.73,35.82Z"/><path class="cls-5" d="M65.62,35.15a2.82,2.82,0,0,1-3.39,2.23,2.51,2.51,0,0,1-2.54-2.69A3.17,3.17,0,0,1,63.15,32C64.87,32.23,65.62,33.35,65.62,35.15Z"/><path class="cls-5" d="M44.73,35.82c.28,2.41-1.69,2.71-3.14,2.86s-2.34-1.42-2.36-2.78A2.7,2.7,0,0,1,42.11,33C43.9,33,44.64,34.18,44.73,35.82Z"/><path class="cls-4" d="M11.34,28.07c1.44-6.24,14.52-21.16,20.28-25,4.55-3,10.61-3.2,15.87-1.57A114.08,114.08,0,0,1,60.64,6.4a4.35,4.35,0,0,0,4,.27A157.7,157.7,0,0,1,80.09.94C84.5-.43,88.53-.57,92.85,2.38,102.08,8.71,108.36,15.22,113.7,26c3,5.11.19,13.13-1.92,16.92-5.56,10-37.45,34.1-40.25,36.68-1.75,1.61-6.79,20.59-7.34,23.06-.27,1.17-.54,2.26-1.52,2.34-1.29.11-1.43-1.48-1.59-2.38C59,91.33,56.17,81.9,53.68,79S19.38,52.49,14.44,43.4C10.91,37.41,10.12,33.35,11.34,28.07ZM76.6,17.59c0-1.8-.75-2.92-2.47-3.15a3.16,3.16,0,0,0-3.46,2.68,2.52,2.52,0,0,0,2.54,2.7A2.83,2.83,0,0,0,76.6,17.59Zm-20.89.66c-.08-1.63-.83-2.82-2.62-2.82a2.69,2.69,0,0,0-2.88,2.91c0,1.36.77,2.95,2.37,2.78C54,21,56,20.66,55.71,18.25Z"/><path class="cls-6" d="M76.6,17.59a2.83,2.83,0,0,1-3.39,2.23,2.52,2.52,0,0,1-2.54-2.7,3.16,3.16,0,0,1,3.46-2.68C75.85,14.67,76.6,15.79,76.6,17.59Z"/><path class="cls-6" d="M55.71,18.25C56,20.66,54,21,52.58,21.12c-1.6.17-2.35-1.42-2.37-2.78a2.69,2.69,0,0,1,2.88-2.91C54.88,15.43,55.63,16.62,55.71,18.25Z"/></symbol></defs><title>Classic</title><use width="180" height="252" xlink:href="#Card_layout_7"/><use width="27.07" height="25" transform="translate(14.1 46.67)" xlink:href="#Heart_red"/><path class="cls-4" d="M20.83,38.3l.3,0,.35,0a3,3,0,0,0,2.4-.8c.45-.53.68-1.74.68-3.63V14.65H22.8V11.1H33.52v3.55H31.9V34.53a9.21,9.21,0,0,1-2,6.32,7.14,7.14,0,0,1-5.66,2.24,8.38,8.38,0,0,1-3.16-.61Z"/><use width="115" height="122.54" transform="translate(34.93 81.11)" xlink:href="#Royal_red_2"/></svg>