<svg id="Layer_1" data-name="Layer 1" xmlns="http://www.w3.org/2000/svg" xmlns:xlink="http://www.w3.org/1999/xlink" viewBox="0 0 180 252"><defs><style>.cls-1,.cls-2{fill:none;stroke:#ccc;stroke-miterlimit:10;}.cls-1{stroke-width:0.5px;}.cls-2{stroke-width:0.45px;}.cls-3{fill:#fff4d7;}.cls-4{fill:#e1306c;}.cls-5{fill:#ffb000;}.cls-6{fill:#fff;}</style><symbol id="Card_layout_7" data-name="Card layout 7" viewBox="0 0 180 252"><rect class="cls-1" x="7.5" y="7.5" width="165" height="237"/><rect class="cls-1" x="7.5" y="7.5" width="38.34" height="237"/><rect class="cls-1" x="7.5" y="42.44" width="38.34" height="6.9"/><rect class="cls-1" x="31.06" y="237.6" width="141.44" height="6.9"/><rect class="cls-1" x="45.84" y="35.54" width="120.77" height="202.06"/><rect class="cls-2" x="70.49" y="53.83" width="71.47" height="154.94"/><line class="cls-2" x1="70.49" y1="105.48" x2="141.96" y2="105.48"/><line class="cls-2" x1="70.49" y1="157.12" x2="141.96" y2="157.12"/><line class="cls-2" x1="70.49" y1="131.3" x2="141.96" y2="131.3"/><line class="cls-2" x1="106.22" y1="208.77" x2="106.22" y2="53.83"/><polygon class="cls-2" points="141.96 131.3 106.22 53.83 70.49 131.3 106.22 208.77 141.96 131.3"/><line class="cls-2" x1="70.49" y1="53.83" x2="141.96" y2="105.48"/><line class="cls-2" x1="70.49" y1="105.48" x2="141.96" y2="53.83"/><line class="cls-2" x1="70.49" y1="105.48" x2="141.96" y2="157.12"/><line class="cls-2" x1="70.49" y1="157.12" x2="141.96" y2="105.48"/><line class="cls-2" x1="70.49" y1="157.12" x2="141.96" y2="208.77"/><line class="cls-2" x1="70.49" y1="208.77" x2="141.96" y2="157.12"/><rect class="cls-3" width="180" height="252" rx="12"/></symbol><symbol id="Diamond_red" data-name="Diamond red" viewBox="0 0 25.28 26"><path class="cls-4" d="M13.39,25.71,24,15.85a3.84,3.84,0,0,0,0-5.64L13.39.3a1.09,1.09,0,0,0-1.5,0L1.23,10.21a3.85,3.85,0,0,0,0,5.64l10.66,9.86A1.11,1.11,0,0,0,13.39,25.71Z"/><path class="cls-4" d="M12.83,22.79c-2.23-2.39-4.37-4.69-6.52-7-.44-.47-.9-.92-1.36-1.36a2.9,2.9,0,0,1,.14-3.85C7.32,8.29,9.57,6,11.8,3.67a1,1,0,0,1,1.7,0c2.31,2.6,4.65,5.19,6.91,7.83,1,1.15.66,2.17-.48,3.38-2,2.12-3.87,4.35-5.81,6.53C13.75,21.85,13.35,22.25,12.83,22.79Z"/></symbol><symbol id="Royal_red_3" data-name="Royal red 3" viewBox="0 0 123.89 130"><path class="cls-5" d="M59.48,130c-2.61.28-3.93-1.65-5.43-3.45-6.46-7.76-10.21-17.1-15-25.8a10.72,10.72,0,0,0-6.83-5.49C23.33,92.64,15,88.47,6.06,86.12A10.35,10.35,0,0,1,2.17,84,5.16,5.16,0,0,1,.48,77.6C1.84,74.14,4.32,71.53,6.94,69A82.34,82.34,0,0,1,31.53,53.22c3.87-1.67,5.8-4.17,7-8.1C41.29,36.16,45.27,27.74,52,21,56.83,16.09,62.2,16.1,67,21c6.72,6.79,10.68,15.21,13.45,24.17,1.17,3.79,3,6.28,6.78,8,10.45,4.62,20.19,10.45,27.88,19.16,6.22,7,5.11,11.76-3.82,14.33C102.69,89.1,94.64,93.15,86,95.52a9.46,9.46,0,0,0-5.88,5c-4.89,8.77-8.69,18.18-15.15,26.05C62.86,129.11,61.91,129.94,59.48,130Zm-5-96.25c-.31-1-.67-2.07-2-2.14s-2.35.39-2.41,2c-.06,1.31.29,2.45,1.78,2.59S54,35.1,54.48,33.72Zm11.77,2c1.48,0,2.15-.76,2.15-2.24s-.64-2.2-1.94-2.13a2.37,2.37,0,0,0-2.3,2.34A1.84,1.84,0,0,0,66.25,35.7Z"/><path class="cls-5" d="M54.48,33.72c-.48,1.38-1.07,2.56-2.66,2.4S50,34.84,50,33.53c.06-1.56,1.08-2,2.41-2S54.17,32.71,54.48,33.72Z"/><path class="cls-5" d="M66.25,35.7a1.84,1.84,0,0,1-2.09-2,2.37,2.37,0,0,1,2.3-2.34c1.3-.07,1.94.79,1.94,2.13S67.73,35.69,66.25,35.7Z"/><path class="cls-4" d="M64.3,112.66c-2.61.28-3.93-1.65-5.44-3.46-6.46-7.75-10.21-17.09-15-25.8A10.76,10.76,0,0,0,37,77.92c-8.88-2.59-17.19-6.76-26.15-9.12A10.36,10.36,0,0,1,7,66.72,5.16,5.16,0,0,1,5.3,60.28c1.35-3.46,3.84-6.06,6.45-8.56A82.34,82.34,0,0,1,36.34,35.91c3.88-1.68,5.81-4.18,7-8.1,2.75-9,6.73-17.38,13.46-24.16,4.84-4.87,10.2-4.87,15,0,6.71,6.78,10.67,15.2,13.44,24.17,1.18,3.79,3,6.28,6.78,7.95C102.53,40.43,112.27,46.26,120,55c6.22,7,5.1,11.77-3.83,14.34-8.63,2.49-16.68,6.54-25.34,8.91a9.4,9.4,0,0,0-5.88,5C80,92,76.23,101.37,69.77,109.25,67.67,111.8,66.73,112.63,64.3,112.66Zm-5-96.25c-.31-1-.67-2.07-2-2.14s-2.34.39-2.41,1.94c-.05,1.32.29,2.45,1.79,2.6S58.81,17.78,59.29,16.41Zm11.78,2c1.47,0,2.14-.75,2.15-2.23S72.58,14,71.28,14A2.37,2.37,0,0,0,69,16.36,1.83,1.83,0,0,0,71.07,18.38Z"/><path class="cls-6" d="M59.29,16.41c-.48,1.37-1.07,2.55-2.65,2.4s-1.84-1.28-1.79-2.6c.07-1.55,1.08-2,2.41-1.94S59,15.4,59.29,16.41Z"/><path class="cls-6" d="M71.06,18.38a1.83,1.83,0,0,1-2.08-2A2.37,2.37,0,0,1,71.28,14c1.3-.06,1.94.79,1.94,2.14S72.54,18.37,71.06,18.38Z"/></symbol></defs><title>Classic</title><use width="180" height="252" xlink:href="#Card_layout_7"/><use width="25.28" height="26" transform="translate(14.99 46.17)" xlink:href="#Diamond_red"/><path class="cls-4" d="M17.44,42.44V38.93H19V14.65h-1.6V11.1H27.78v3.55h-1.6v9.48l7-9.48H31.42V11.1h7.81v3.55H37.48l-4.92,6.4,6.92,17.88h1.59v3.51h-8L27.6,27.63l-1.42,2v9.32h1.6v3.51Z"/><use width="123.89" height="130" transform="translate(34.77 79.79)" xlink:href="#Royal_red_3"/><path class="cls-5" d="M77.88,67.64c0,4.52,9,8.19,20.12,8.19s20.12-3.67,20.12-8.19V51.32l-10.06,7.32L98,45.83,87.94,58.64,77.88,51.32Z"/></svg>