<svg id="Layer_1" data-name="Layer 1" xmlns="http://www.w3.org/2000/svg" xmlns:xlink="http://www.w3.org/1999/xlink" viewBox="0 0 180 252"><defs><style>.cls-1,.cls-2{fill:none;stroke:#ccc;stroke-miterlimit:10;}.cls-1{stroke-width:0.5px;}.cls-2{stroke-width:0.45px;}.cls-3{fill:#fff4d7;}.cls-4{fill:#ea8f00;}.cls-5{fill:#425ce6;}.cls-6{fill:#ffb000;}</style><symbol id="Card_layout_7" data-name="Card layout 7" viewBox="0 0 180 252"><rect class="cls-1" x="7.5" y="7.5" width="165" height="237"/><rect class="cls-1" x="7.5" y="7.5" width="38.34" height="237"/><rect class="cls-1" x="7.5" y="42.44" width="38.34" height="6.9"/><rect class="cls-1" x="31.06" y="237.6" width="141.44" height="6.9"/><rect class="cls-1" x="45.84" y="35.54" width="120.77" height="202.06"/><rect class="cls-2" x="70.49" y="53.83" width="71.47" height="154.94"/><line class="cls-2" x1="70.49" y1="105.48" x2="141.96" y2="105.48"/><line class="cls-2" x1="70.49" y1="157.12" x2="141.96" y2="157.12"/><line class="cls-2" x1="70.49" y1="131.3" x2="141.96" y2="131.3"/><line class="cls-2" x1="106.22" y1="208.77" x2="106.22" y2="53.83"/><polygon class="cls-2" points="141.96 131.3 106.22 53.83 70.49 131.3 106.22 208.77 141.96 131.3"/><line class="cls-2" x1="70.49" y1="53.83" x2="141.96" y2="105.48"/><line class="cls-2" x1="70.49" y1="105.48" x2="141.96" y2="53.83"/><line class="cls-2" x1="70.49" y1="105.48" x2="141.96" y2="157.12"/><line class="cls-2" x1="70.49" y1="157.12" x2="141.96" y2="105.48"/><line class="cls-2" x1="70.49" y1="157.12" x2="141.96" y2="208.77"/><line class="cls-2" x1="70.49" y1="208.77" x2="141.96" y2="157.12"/><rect class="cls-3" width="180" height="252" rx="12"/></symbol><symbol id="Heart" data-name="Heart" viewBox="0 0 27.07 25"><path class="cls-4" d="M26.82,9.6l-6.3-9A1.38,1.38,0,0,0,18.6.25L14.78,2.89a2.2,2.2,0,0,1-2.5,0L8.47.25A1.39,1.39,0,0,0,6.54.59L.25,9.6a1.39,1.39,0,0,0,.12,1.73L12.51,24.55a1.38,1.38,0,0,0,2,0L26.7,11.33A1.39,1.39,0,0,0,26.82,9.6Z"/><path class="cls-4" d="M13.85,21.57a5.13,5.13,0,0,1-1-.58L4,12.11a1.81,1.81,0,0,1-.12-2.66C5,7.92,6.15,6.35,7.3,4.83A2.28,2.28,0,0,1,11.13,5,10.9,10.9,0,0,0,13.2,6.83c.21.15.82,0,1.08-.22A26.88,26.88,0,0,0,17.14,4c.9-1,1.66-.67,2.29.13,1.41,1.78,2.74,3.6,4.05,5.45a1.36,1.36,0,0,1,.14,1.18A28.51,28.51,0,0,1,21.19,14c-.88,1-1.88,1.91-2.83,2.85s-2.18,2.12-3.24,3.2C14.68,20.54,14.3,21.05,13.85,21.57Z"/></symbol><symbol id="Red_3" data-name="Red 3" viewBox="0 0 118.51 126.79"><path class="cls-5" d="M.54,49.88c1.44-6.24,14.51-21.15,20.28-25,4.54-3,10.61-3.2,15.87-1.57a112.73,112.73,0,0,1,13.14,4.86,4.34,4.34,0,0,0,4,.27,154.18,154.18,0,0,1,15.42-5.72c4.41-1.38,8.44-1.52,12.75,1.43C91.28,30.52,97.56,37,102.89,47.78c3,5.11.19,13.14-1.92,16.93-5.56,10-37.45,34.09-40.24,36.67C59,103,53.94,122,53.38,124.44c-.26,1.17-.54,2.27-1.51,2.35-1.29.1-1.43-1.49-1.6-2.39-2.05-11.25-4.91-20.69-7.4-23.63S8.58,74.3,3.63,65.21C.11,59.22-.69,55.17.54,49.88Z"/><path class="cls-6" d="M14.85,28.07c1.45-6.24,14.52-21.16,20.29-25C39.68.11,45.74-.09,51,1.54A113.54,113.54,0,0,1,64.15,6.4a4.37,4.37,0,0,0,4,.27A157.53,157.53,0,0,1,83.6.94C88-.43,92.05-.57,96.36,2.38,105.6,8.71,111.88,15.22,117.21,26c3,5.11.19,13.13-1.92,16.92C109.73,52.86,77.84,77,75,79.57c-1.75,1.61-6.78,20.59-7.34,23.06-.26,1.17-.54,2.26-1.52,2.34-1.28.11-1.42-1.48-1.59-2.38C62.53,91.33,59.68,81.9,57.19,79S22.9,52.49,18,43.4C14.43,37.41,13.63,33.35,14.85,28.07Z"/></symbol></defs><title>Classic</title><use width="180" height="252" xlink:href="#Card_layout_7"/><use width="27.07" height="25" transform="translate(14.1 46.67)" xlink:href="#Heart"/><path class="cls-4" d="M16.84,38.43l4.85-6.86a27.08,27.08,0,0,0,3.71,3.84,3.76,3.76,0,0,0,2.23.8,2.49,2.49,0,0,0,2-.85,3.31,3.31,0,0,0,.75-2.26,6,6,0,0,0-1.57-4.22,5.09,5.09,0,0,0-3.89-1.68,4.41,4.41,0,0,0-1.6.31,7.45,7.45,0,0,0-1.69.95l-3.8-1.26c.3-.85.56-1.72.79-2.61s.44-1.86.63-2.88l2.17-11.28h9L30.61,9h3.08L32,17.55H23.25l-.84,3.87a9.57,9.57,0,0,1,2.13-.89,7.82,7.82,0,0,1,2.16-.29A6.47,6.47,0,0,1,32.12,23a12,12,0,0,1,2.1,7.35,14.88,14.88,0,0,1-2.74,9.13,8.21,8.21,0,0,1-6.81,3.68A8,8,0,0,1,20.47,42,12.4,12.4,0,0,1,16.84,38.43Z"/><use width="118.51" height="126.79" transform="translate(47.03 31.74) scale(0.4)" xlink:href="#Red_3"/><use width="118.51" height="126.79" transform="translate(118.5 31.74) scale(0.4)" xlink:href="#Red_3"/><use width="118.51" height="126.79" transform="translate(82.76 109.15) scale(0.4)" xlink:href="#Red_3"/><use width="118.51" height="126.79" transform="translate(47.03 183.44) scale(0.4)" xlink:href="#Red_3"/><use width="118.51" height="126.79" transform="translate(118.5 183.44) scale(0.4)" xlink:href="#Red_3"/></svg>