<svg id="Layer_1" data-name="Layer 1" xmlns="http://www.w3.org/2000/svg" xmlns:xlink="http://www.w3.org/1999/xlink" viewBox="0 0 180 252"><defs><style>.cls-1,.cls-2{fill:none;stroke:#ccc;stroke-miterlimit:10;}.cls-1{stroke-width:0.5px;}.cls-2{stroke-width:0.45px;}.cls-3{fill:#fff4d7;}.cls-4{fill:#ea8f00;}.cls-5{fill:#425ce6;}.cls-6{fill:#ffb000;}</style><symbol id="Card_layout_7" data-name="Card layout 7" viewBox="0 0 180 252"><rect class="cls-1" x="7.5" y="7.5" width="165" height="237"/><rect class="cls-1" x="7.5" y="7.5" width="38.34" height="237"/><rect class="cls-1" x="7.5" y="42.44" width="38.34" height="6.9"/><rect class="cls-1" x="31.06" y="237.6" width="141.44" height="6.9"/><rect class="cls-1" x="45.84" y="35.54" width="120.77" height="202.06"/><rect class="cls-2" x="70.49" y="53.83" width="71.47" height="154.94"/><line class="cls-2" x1="70.49" y1="105.48" x2="141.96" y2="105.48"/><line class="cls-2" x1="70.49" y1="157.12" x2="141.96" y2="157.12"/><line class="cls-2" x1="70.49" y1="131.3" x2="141.96" y2="131.3"/><line class="cls-2" x1="106.22" y1="208.77" x2="106.22" y2="53.83"/><polygon class="cls-2" points="141.96 131.3 106.22 53.83 70.49 131.3 106.22 208.77 141.96 131.3"/><line class="cls-2" x1="70.49" y1="53.83" x2="141.96" y2="105.48"/><line class="cls-2" x1="70.49" y1="105.48" x2="141.96" y2="53.83"/><line class="cls-2" x1="70.49" y1="105.48" x2="141.96" y2="157.12"/><line class="cls-2" x1="70.49" y1="157.12" x2="141.96" y2="105.48"/><line class="cls-2" x1="70.49" y1="157.12" x2="141.96" y2="208.77"/><line class="cls-2" x1="70.49" y1="208.77" x2="141.96" y2="157.12"/><rect class="cls-3" width="180" height="252" rx="12"/></symbol><symbol id="Diamond" data-name="Diamond" viewBox="0 0 25.28 26"><path class="cls-4" d="M13.39,25.71,24,15.85a3.84,3.84,0,0,0,0-5.64L13.39.3a1.09,1.09,0,0,0-1.5,0L1.23,10.21a3.85,3.85,0,0,0,0,5.64l10.66,9.86A1.11,1.11,0,0,0,13.39,25.71Z"/><path class="cls-4" d="M12.83,22.79c-2.23-2.39-4.37-4.69-6.52-7-.44-.47-.9-.92-1.36-1.36a2.9,2.9,0,0,1,.14-3.85C7.32,8.29,9.57,6,11.8,3.67a1,1,0,0,1,1.7,0c2.31,2.6,4.65,5.19,6.91,7.83,1,1.15.66,2.17-.48,3.38-2,2.12-3.87,4.35-5.81,6.53C13.75,21.85,13.35,22.25,12.83,22.79Z"/></symbol></defs><title>Classic</title><use width="180" height="252" xlink:href="#Card_layout_7"/><use width="25.28" height="26" transform="translate(14.99 46.17)" xlink:href="#Diamond"/><path class="cls-4" d="M15,42.44V38.93h1.62L23.78,11.1h6.53l7.17,27.83H39.1v3.51H28.52V38.93h1.57L29,34.67H21l-1.15,4.26h1.62v3.51ZM22,30.8h6.09l-3-12.37Z"/><path class="cls-5" d="M93.52,200.17c-2.61.28-3.94-1.65-5.44-3.46-6.46-7.75-10.21-17.09-15-25.8a10.74,10.74,0,0,0-6.82-5.48c-8.88-2.59-17.19-6.77-26.15-9.12a10.48,10.48,0,0,1-3.89-2.08,5.19,5.19,0,0,1-1.69-6.44c1.36-3.46,3.85-6.07,6.46-8.56a82.34,82.34,0,0,1,24.59-15.81c3.88-1.68,5.81-4.18,7-8.1,2.75-9,6.73-17.38,13.46-24.16,4.84-4.88,10.2-4.87,15,0,6.71,6.78,10.67,15.2,13.44,24.17,1.17,3.79,3,6.28,6.78,8,10.45,4.63,20.19,10.46,27.89,19.16,6.22,7,5.1,11.76-3.83,14.34-8.63,2.48-16.68,6.54-25.34,8.91a9.42,9.42,0,0,0-5.89,5c-4.89,8.76-8.68,18.17-15.14,26C96.89,199.31,96,200.14,93.52,200.17Zm-5-96.25c-.31-1-.67-2.07-2-2.14s-2.34.39-2.41,1.94c-.06,1.31.29,2.45,1.79,2.6S88,105.29,88.51,103.92Zm11.77,2c1.48,0,2.15-.75,2.15-2.23s-.63-2.2-1.93-2.14a2.37,2.37,0,0,0-2.3,2.35A1.83,1.83,0,0,0,100.28,105.89Z"/><path class="cls-5" d="M88.51,103.92c-.48,1.37-1.07,2.55-2.65,2.4S84,105,84.07,103.72c.07-1.55,1.08-2,2.41-1.94S88.2,102.91,88.51,103.92Z"/><path class="cls-5" d="M100.28,105.89a1.83,1.83,0,0,1-2.08-2,2.37,2.37,0,0,1,2.3-2.35c1.3-.06,1.94.79,1.93,2.14S101.76,105.88,100.28,105.89Z"/><path class="cls-6" d="M98.33,182.85c-2.61.28-3.93-1.64-5.43-3.45-6.46-7.76-10.21-17.1-15-25.8a10.71,10.71,0,0,0-6.83-5.48c-8.87-2.59-17.19-6.77-26.15-9.12A10.25,10.25,0,0,1,41,136.91a5.16,5.16,0,0,1-1.69-6.43c1.36-3.46,3.84-6.07,6.45-8.56a82.35,82.35,0,0,1,24.6-15.82c3.87-1.67,5.8-4.17,7-8.09,2.75-9,6.72-17.39,13.45-24.16,4.84-4.88,10.21-4.87,15,0,6.72,6.79,10.68,15.21,13.45,24.17,1.17,3.79,3,6.28,6.77,8,10.46,4.62,20.19,10.46,27.89,19.16,6.22,7,5.11,11.76-3.82,14.33-8.64,2.49-16.69,6.55-25.35,8.92a9.41,9.41,0,0,0-5.88,5c-4.89,8.77-8.69,18.18-15.15,26.05C101.71,182,100.76,182.82,98.33,182.85Zm-5-96.25c-.31-1-.66-2.07-2-2.14s-2.35.39-2.42,2c0,1.31.3,2.45,1.79,2.59S92.85,88,93.32,86.6Zm11.78,2c1.48,0,2.15-.76,2.15-2.24s-.64-2.2-1.94-2.13a2.36,2.36,0,0,0-2.3,2.35A1.84,1.84,0,0,0,105.1,88.58Z"/><path class="cls-5" d="M93.32,86.6c-.47,1.38-1.06,2.56-2.65,2.4s-1.84-1.28-1.79-2.59c.07-1.56,1.09-2,2.42-2S93,85.59,93.32,86.6Z"/><path class="cls-5" d="M105.1,88.58a1.84,1.84,0,0,1-2.09-2,2.36,2.36,0,0,1,2.3-2.35c1.3-.07,1.94.79,1.94,2.13S106.58,88.57,105.1,88.58Z"/></svg>