<svg width="125" height="89" viewBox="0 0 125 89" fill="none" xmlns="http://www.w3.org/2000/svg">
<g clip-path="url(#clip0_3_4286)" filter="url(#filter0_d_3_4286)">
<g clip-path="url(#clip1_3_4286)">
<path d="M60.7618 5.38086H8.38086V80.6189H60.7618V5.38086Z" stroke="#CCCCCC" stroke-width="0.1875" stroke-miterlimit="10"/>
<path d="M20.5523 5.38086H8.38086V80.6189H20.5523V5.38086Z" stroke="#CCCCCC" stroke-width="0.1875" stroke-miterlimit="10"/>
<path d="M20.5523 16.4729H8.38086V18.6634H20.5523V16.4729Z" stroke="#CCCCCC" stroke-width="0.1875" stroke-miterlimit="10"/>
<path d="M60.7619 78.4285H15.8604V80.6189H60.7619V78.4285Z" stroke="#CCCCCC" stroke-width="0.1875" stroke-miterlimit="10"/>
<path d="M58.8919 14.2825H20.5522V78.4285H58.8919V14.2825Z" stroke="#CCCCCC" stroke-width="0.1875" stroke-miterlimit="10"/>
<path d="M51.0668 20.0889H28.3779V69.2762H51.0668V20.0889Z" stroke="#CCCCCC" stroke-width="0.16875" stroke-miterlimit="10"/>
<path d="M28.3779 36.4856H51.0668" stroke="#CCCCCC" stroke-width="0.16875" stroke-miterlimit="10"/>
<path d="M28.3779 52.8794H51.0668" stroke="#CCCCCC" stroke-width="0.16875" stroke-miterlimit="10"/>
<path d="M28.3779 44.6826H51.0668" stroke="#CCCCCC" stroke-width="0.16875" stroke-miterlimit="10"/>
<path d="M39.7207 69.2762V20.0889" stroke="#CCCCCC" stroke-width="0.16875" stroke-miterlimit="10"/>
<path d="M51.0668 44.6825L39.7208 20.0889L28.3779 44.6825L39.7208 69.2762L51.0668 44.6825Z" stroke="#CCCCCC" stroke-width="0.16875" stroke-miterlimit="10"/>
<path d="M28.3779 20.0889L51.0668 36.4857" stroke="#CCCCCC" stroke-width="0.16875" stroke-miterlimit="10"/>
<path d="M28.3779 36.4857L51.0668 20.0889" stroke="#CCCCCC" stroke-width="0.16875" stroke-miterlimit="10"/>
<path d="M28.3779 36.4856L51.0668 52.8792" stroke="#CCCCCC" stroke-width="0.16875" stroke-miterlimit="10"/>
<path d="M28.3779 52.8792L51.0668 36.4856" stroke="#CCCCCC" stroke-width="0.16875" stroke-miterlimit="10"/>
<path d="M28.3779 52.8794L51.0668 69.2762" stroke="#CCCCCC" stroke-width="0.16875" stroke-miterlimit="10"/>
<path d="M28.3779 69.2762L51.0668 52.8794" stroke="#CCCCCC" stroke-width="0.16875" stroke-miterlimit="10"/>
<path d="M59.3333 3H9.80952C7.70558 3 6 4.70558 6 6.80952V79.1905C6 81.2944 7.70558 83 9.80952 83H59.3333C61.4373 83 63.1429 81.2944 63.1429 79.1905V6.80952C63.1429 4.70558 61.4373 3 59.3333 3Z" fill="#FFF4D7"/>
</g>
<g clip-path="url(#clip2_3_4286)">
<path d="M19.1084 22.0412L18.0004 20.5364C17.9027 20.4446 17.7761 20.3897 17.6423 20.381C17.5085 20.3723 17.3759 20.4104 17.2671 20.4888L15.3052 21.7587C15.2947 21.7663 15.2823 21.7709 15.2694 21.7719C15.2565 21.773 15.2435 21.7704 15.232 21.7644C15.2204 21.7585 15.2108 21.7495 15.2041 21.7384C15.1974 21.7272 15.1939 21.7145 15.1941 21.7015V21.3174C15.1942 21.2574 15.2069 21.1981 15.2316 21.1434C15.2562 21.0887 15.2921 21.0398 15.3369 20.9999L16.7306 19.9047C16.7668 19.8717 16.7957 19.8315 16.8155 19.7866C16.8353 19.7418 16.8455 19.6934 16.8455 19.6444C16.8455 19.5954 16.8353 19.5469 16.8155 19.5021C16.7957 19.4573 16.7668 19.4171 16.7306 19.3841L15.1433 17.5714C15.0429 17.4803 14.9122 17.4299 14.7766 17.4299C14.6411 17.4299 14.5104 17.4803 14.41 17.5714L12.8227 19.3841C12.7856 19.4165 12.7559 19.4566 12.7355 19.5015C12.7151 19.5463 12.7046 19.5951 12.7046 19.6444C12.7046 19.6937 12.7151 19.7424 12.7355 19.7873C12.7559 19.8322 12.7856 19.8722 12.8227 19.9047L14.2131 20.9999C14.258 21.0398 14.2939 21.0887 14.3185 21.1434C14.3431 21.1981 14.3559 21.2574 14.356 21.3174V21.7174C14.3561 21.7304 14.3527 21.7431 14.346 21.7542C14.3393 21.7653 14.3296 21.7744 14.3181 21.7803C14.3066 21.7862 14.2936 21.7888 14.2807 21.7878C14.2677 21.7868 14.2553 21.7822 14.2449 21.7745L12.2862 20.5047C12.1792 20.4242 12.0476 20.3834 11.9138 20.3891C11.78 20.3949 11.6524 20.447 11.5528 20.5364L10.4385 22.0412C10.3533 22.122 10.3007 22.2314 10.2908 22.3484C10.2808 22.4654 10.3142 22.5821 10.3846 22.6761L11.5528 24.1936C11.6208 24.2824 11.7176 24.3446 11.8266 24.3695C11.9356 24.3945 12.0499 24.3805 12.1496 24.3301L13.9211 23.3777C13.9561 23.3604 13.9955 23.3539 14.0342 23.3591C14.073 23.3642 14.1093 23.3808 14.1386 23.4067C14.1679 23.4326 14.1888 23.4666 14.1987 23.5044C14.2085 23.5422 14.207 23.5821 14.1941 23.619L13.3401 25.6793C13.3207 25.7331 13.3146 25.7909 13.3222 25.8476C13.3299 25.9043 13.3512 25.9584 13.3842 26.0051C13.4173 26.0519 13.4611 26.09 13.512 26.1161C13.5629 26.1423 13.6194 26.1558 13.6766 26.1555H15.8735C15.9304 26.1553 15.9865 26.1414 16.037 26.115C16.0875 26.0886 16.1309 26.0505 16.1636 26.0038C16.1963 25.9572 16.2173 25.9033 16.2248 25.8468C16.2323 25.7903 16.2261 25.7329 16.2068 25.6793L15.3623 23.6317C15.3489 23.5944 15.347 23.5539 15.357 23.5156C15.3669 23.4772 15.3882 23.4427 15.418 23.4167C15.4479 23.3906 15.4849 23.3742 15.5242 23.3695C15.5636 23.3648 15.6034 23.3721 15.6385 23.3904L17.4798 24.3428C17.5797 24.3926 17.6938 24.4062 17.8026 24.3813C17.9115 24.3564 18.0083 24.2946 18.0766 24.2063L19.1719 22.6888C19.2462 22.5932 19.281 22.4728 19.2692 22.3524C19.2574 22.2319 19.1998 22.1205 19.1084 22.0412Z" fill="#425CE6"/>
</g>
<path d="M10.7617 16.4731V15.3588H11.276L13.549 6.52393H15.622L17.8982 15.3588H18.4125V16.4731H15.0538V15.3588H15.5522L15.2062 14.0033H12.6665L12.3014 15.3588H12.8157V16.4731H10.7617ZM12.9839 12.7779H14.9173L13.9649 8.85091L12.9839 12.7779Z" fill="#425CE6"/>
<path d="M32.4097 51.5047C30.9677 52.5752 29.4505 53.5407 27.87 54.3936C27.1486 54.7842 26.3877 55.0971 25.6002 55.327C24.905 55.5174 24.1208 55.5905 23.4669 55.127C20.8637 53.292 18.5875 51.1524 17.0923 48.2793C16.9913 48.1103 16.9397 47.9164 16.943 47.7195C16.9464 47.5226 17.0047 47.3306 17.1113 47.1651C18.4391 44.7674 20.2823 42.6943 22.5081 41.0952C23.7558 40.2063 25.3653 40.2571 26.6986 41.0952C28.4637 42.1809 30.3431 43.0825 32.0224 44.3111C32.409 44.547 32.7455 44.8566 33.0129 45.2222C32.9018 43.4889 33.1272 41.9809 31.5812 40.8889C30.3568 40.0341 29.3984 38.8512 28.8161 37.4762C28.5946 37.0013 28.4887 36.4809 28.5069 35.9572C28.5251 35.4336 28.6669 34.9218 28.9208 34.4635C30.1272 32.1619 31.9558 30.4254 34.0573 28.9809C34.4439 28.734 34.8958 28.609 35.3543 28.622C35.8128 28.635 36.2568 28.7855 36.6288 29.0539C38.6599 30.3792 40.3483 32.1666 41.5558 34.2698C42.2891 35.5873 42.1685 36.8317 41.4796 38.0793C40.8147 39.247 39.9102 40.2607 38.8256 41.0539C38.2986 41.4508 37.905 41.8539 37.8415 42.5428C37.778 43.2317 37.4065 43.7714 37.4224 44.4476C37.4224 44.6095 37.3526 44.8127 37.5208 44.9143C37.6891 45.0159 37.8383 44.8476 37.9621 44.746C39.8415 43.3079 41.9335 42.2063 43.9938 41.0571C45.47 40.2381 47.1399 40.219 48.5208 41.3746C50.4256 42.9968 52.1558 44.8127 53.4034 47.0254C53.5382 47.2218 53.6151 47.4522 53.6252 47.6902C53.6353 47.9282 53.5782 48.1643 53.4605 48.3714C52.3685 50.5238 50.6859 52.1555 48.9431 53.7492C48.5685 54.0952 48.1621 54.4095 47.7558 54.7206C46.6383 55.5905 45.4256 55.6476 44.1653 55.0793C42.2029 54.2366 40.3665 53.1266 38.7081 51.7809C38.5208 51.6222 38.2796 51.346 38.0446 51.5047C37.8097 51.6635 37.7811 54.6063 38.0923 55.2793C39.4732 57.2222 42.5621 58.5016 42.5621 62.4095C42.5399 63.073 42.47 63.3111 41.6859 63.092C40.6978 62.8319 39.6821 62.6912 38.6605 62.673C37.3558 62.6285 36.4383 62.6539 35.7558 61.6476C35.4129 61.1492 35.2192 60.9841 34.8446 61.619C33.7875 63.4317 31.9177 62.6984 30.178 62.873C29.696 62.8787 29.2177 62.9568 28.7589 63.1047C28.1558 63.3587 27.8923 63.1651 27.8415 62.4698C27.7526 61.2 28.251 60.0793 28.7431 58.9778C29.3145 57.7079 30.9653 56.4952 31.8637 55.4032C32.7621 54.3111 32.3843 53.0285 32.4097 51.5047ZM37.2986 33.3905C37.4097 33.4012 37.5218 33.3866 37.6263 33.3477C37.7309 33.3088 37.8253 33.2466 37.9024 33.1659C37.9794 33.0852 38.0371 32.988 38.0711 32.8817C38.1051 32.7754 38.1145 32.6628 38.0986 32.5524C38.0637 32.0063 37.7018 31.7587 37.1716 31.7809C37.0641 31.7734 36.9562 31.7895 36.8556 31.8281C36.7549 31.8667 36.6639 31.9267 36.5889 32.0042C36.5139 32.0816 36.4568 32.1744 36.4214 32.2763C36.3861 32.3781 36.3734 32.4864 36.3843 32.5936C36.378 33.1587 36.7113 33.4 37.2986 33.3905ZM32.4573 32.8412C32.4573 33.1365 32.7748 33.419 33.2478 33.4158C33.3557 33.4279 33.4649 33.4146 33.5668 33.377C33.6687 33.3395 33.7604 33.2787 33.8346 33.1995C33.9089 33.1203 33.9637 33.0249 33.9946 32.9208C34.0256 32.8167 34.0318 32.7069 34.0129 32.6C34.0168 32.4848 33.9954 32.3703 33.9503 32.2642C33.9053 32.1582 33.8376 32.0633 33.752 31.9862C33.6664 31.9091 33.565 31.8516 33.4549 31.8178C33.3448 31.784 33.2286 31.7747 33.1145 31.7905C32.6065 31.8285 32.451 32.1619 32.4573 32.8412Z" fill="#FFB000"/>
<path d="M37.2984 33.3904C36.7111 33.3904 36.3778 33.1681 36.3842 32.5935C36.3733 32.4863 36.3859 32.378 36.4213 32.2762C36.4566 32.1743 36.5138 32.0815 36.5888 32.0041C36.6638 31.9267 36.7548 31.8666 36.8554 31.828C36.9561 31.7894 37.0639 31.7734 37.1715 31.7808C37.7016 31.7586 38.0635 32.0062 38.0985 32.5523C38.1144 32.6627 38.105 32.7753 38.071 32.8816C38.037 32.9879 37.9793 33.0851 37.9022 33.1658C37.8252 33.2466 37.7308 33.3087 37.6262 33.3476C37.5216 33.3865 37.4095 33.4011 37.2984 33.3904Z" fill="#FFB000"/>
<path d="M32.4571 32.8412C32.4571 32.1523 32.6063 31.819 33.1142 31.7904C33.2283 31.7746 33.3445 31.784 33.4546 31.8178C33.5647 31.8516 33.6661 31.9091 33.7517 31.9862C33.8373 32.0633 33.905 32.1582 33.9501 32.2642C33.9951 32.3702 34.0165 32.4848 34.0126 32.5999C34.0315 32.7069 34.0253 32.8167 33.9943 32.9208C33.9634 33.0248 33.9086 33.1202 33.8343 33.1994C33.7601 33.2786 33.6684 33.3394 33.5665 33.377C33.4647 33.4146 33.3554 33.4278 33.2475 33.4158C32.765 33.4285 32.4539 33.1587 32.4571 32.8412Z" fill="#FFB000"/>
<path d="M34.0064 48.0031C32.5636 49.0724 31.0465 50.0378 29.4667 50.8919C28.7452 51.2815 27.9843 51.5933 27.1969 51.8221C26.5016 52.0158 25.7175 52.0856 25.0635 51.6221C22.4604 49.7904 20.1874 47.6475 18.6889 44.7745C18.588 44.6054 18.5363 44.4115 18.5397 44.2146C18.5431 44.0177 18.6014 43.8257 18.708 43.6602C20.0342 41.2679 21.8741 39.1993 24.0953 37.6031C25.3429 36.7142 26.9524 36.7618 28.2858 37.6031C30.054 38.6888 31.9302 39.5935 33.6096 40.8221C33.9996 41.0557 34.3395 41.3643 34.6096 41.73C34.4985 39.9967 34.7239 38.4888 33.1778 37.3967C31.953 36.5411 30.9945 35.357 30.4128 33.9808C30.1913 33.5055 30.0853 32.9845 30.1035 32.4603C30.1217 31.9362 30.2636 31.4238 30.5175 30.965C31.7334 28.657 33.5524 26.9205 35.654 25.4792C36.0409 25.232 36.4931 25.1066 36.952 25.119C37.411 25.1315 37.8557 25.2813 38.2286 25.5491C40.2613 26.8755 41.9525 28.6625 43.1651 30.765C43.8985 32.0824 43.7778 33.3269 43.0889 34.5745C42.4228 35.7404 41.5185 36.7528 40.435 37.5459C39.9112 37.9427 39.5143 38.3459 39.4508 39.0348C39.3874 39.7237 39.0159 40.2634 39.0318 40.9396C39.0318 41.1015 38.962 41.3046 39.1334 41.4062C39.3048 41.5078 39.4508 41.3396 39.5715 41.2411C41.4508 39.7999 43.5461 38.7015 45.6032 37.5491C47.0794 36.73 48.7493 36.7142 50.1302 37.8665C52.035 39.4888 53.7651 41.3078 55.0127 43.5173C55.1476 43.7137 55.2244 43.9441 55.2345 44.1822C55.2446 44.4202 55.1876 44.6562 55.0699 44.8634C53.981 47.0157 52.2953 48.6507 50.5556 50.2602C50.1778 50.6031 49.7715 50.9173 49.3683 51.2316C48.2477 52.0983 47.035 52.1586 45.7747 51.5872C43.8123 50.7444 41.9759 49.6344 40.3175 48.2888C40.1302 48.1332 39.8889 47.857 39.654 48.0126C39.4191 48.1681 39.3905 51.1142 39.7016 51.7904C41.0826 53.73 44.1715 55.0126 44.1715 58.9173C44.1493 59.5808 44.0794 59.8189 43.2953 59.5999C42.3072 59.3397 41.2915 59.1991 40.2699 59.1808C38.9651 59.1396 38.0477 59.165 37.3651 58.1586C37.0223 57.657 36.8286 57.4951 36.4572 58.13C35.3969 59.9396 33.527 59.2062 31.7905 59.384C31.3075 59.3868 30.8279 59.4639 30.3683 59.6126C29.7651 59.8697 29.5016 59.6729 29.454 58.9777C29.362 57.7078 29.8604 56.584 30.3524 55.4856C30.9239 54.2158 32.5747 52.9999 33.4731 51.9078C34.3715 50.8158 33.981 49.5237 34.0064 48.0031ZM38.8953 29.8888C39.0065 29.899 39.1186 29.8839 39.2232 29.8446C39.3278 29.8053 39.4221 29.7429 39.4991 29.6619C39.576 29.581 39.6337 29.4836 39.6677 29.3772C39.7017 29.2708 39.7111 29.1581 39.6953 29.0475C39.6635 28.5015 39.2985 28.2538 38.7683 28.2792C38.6609 28.2713 38.5531 28.2869 38.4525 28.3251C38.3518 28.3633 38.2607 28.4231 38.1857 28.5002C38.1106 28.5774 38.0534 28.6701 38.018 28.7718C37.9827 28.8735 37.97 28.9817 37.981 29.0888C37.9747 29.6665 38.308 29.8951 38.8953 29.8888ZM34.054 29.3491C34.054 29.6443 34.3715 29.9269 34.8445 29.9269C34.9527 29.939 35.0623 29.9257 35.1644 29.888C35.2666 29.8502 35.3585 29.7891 35.4328 29.7096C35.5072 29.63 35.5619 29.5341 35.5925 29.4296C35.6232 29.3252 35.6291 29.215 35.6096 29.1078C35.6129 28.9928 35.5912 28.8785 35.5459 28.7728C35.5007 28.667 35.433 28.5723 35.3475 28.4953C35.2621 28.4184 35.1609 28.3608 35.051 28.3268C34.9411 28.2928 34.8252 28.2831 34.7112 28.2983C34.2064 28.3269 34.0477 28.6602 34.054 29.3491Z" fill="#425CE6"/>
<path d="M38.8952 29.8889C38.3079 29.8889 37.9745 29.6667 37.9809 29.0889C37.9699 28.9818 37.9826 28.8736 38.0179 28.7719C38.0533 28.6702 38.1105 28.5775 38.1856 28.5004C38.2606 28.4232 38.3517 28.3634 38.4524 28.3252C38.553 28.287 38.6608 28.2714 38.7682 28.2794C39.2983 28.254 39.6634 28.5016 39.6952 29.0476C39.711 29.1582 39.7015 29.2709 39.6676 29.3774C39.6336 29.4838 39.5759 29.5811 39.499 29.662C39.422 29.743 39.3277 29.8055 39.2231 29.8447C39.1185 29.884 39.0064 29.8991 38.8952 29.8889Z" fill="#F8F9FD"/>
<path d="M34.0537 29.3493C34.0537 28.6636 34.2061 28.3302 34.7109 28.2985C34.8249 28.2833 34.9409 28.293 35.0507 28.327C35.1606 28.361 35.2618 28.4186 35.3472 28.4955C35.4327 28.5725 35.5004 28.6672 35.5456 28.773C35.5909 28.8787 35.6126 28.993 35.6093 29.108C35.6288 29.2152 35.6229 29.3254 35.5923 29.4298C35.5616 29.5343 35.5069 29.6302 35.4325 29.7098C35.3582 29.7893 35.2663 29.8504 35.1641 29.8882C35.062 29.9259 34.9524 29.9392 34.8442 29.9271C34.3648 29.9239 34.0506 29.6414 34.0537 29.3493Z" fill="#F8F9FD"/>
</g>
<g clip-path="url(#clip3_3_4286)" filter="url(#filter1_d_3_4286)">
<g clip-path="url(#clip4_3_4286)">
<path d="M80.4049 5.38086H28.0239V80.6189H80.4049V5.38086Z" stroke="#CCCCCC" stroke-width="0.1875" stroke-miterlimit="10"/>
<path d="M40.1954 5.38086H28.0239V80.6189H40.1954V5.38086Z" stroke="#CCCCCC" stroke-width="0.1875" stroke-miterlimit="10"/>
<path d="M40.1954 16.4729H28.0239V18.6634H40.1954V16.4729Z" stroke="#CCCCCC" stroke-width="0.1875" stroke-miterlimit="10"/>
<path d="M80.405 78.4285H35.5034V80.6189H80.405V78.4285Z" stroke="#CCCCCC" stroke-width="0.1875" stroke-miterlimit="10"/>
<path d="M78.535 14.2825H40.1953V78.4285H78.535V14.2825Z" stroke="#CCCCCC" stroke-width="0.1875" stroke-miterlimit="10"/>
<path d="M70.7099 20.0889H48.021V69.2762H70.7099V20.0889Z" stroke="#CCCCCC" stroke-width="0.16875" stroke-miterlimit="10"/>
<path d="M48.021 36.4856H70.7099" stroke="#CCCCCC" stroke-width="0.16875" stroke-miterlimit="10"/>
<path d="M48.021 52.8794H70.7099" stroke="#CCCCCC" stroke-width="0.16875" stroke-miterlimit="10"/>
<path d="M48.021 44.6826H70.7099" stroke="#CCCCCC" stroke-width="0.16875" stroke-miterlimit="10"/>
<path d="M59.3638 69.2762V20.0889" stroke="#CCCCCC" stroke-width="0.16875" stroke-miterlimit="10"/>
<path d="M70.7099 44.6825L59.3639 20.0889L48.021 44.6825L59.3639 69.2762L70.7099 44.6825Z" stroke="#CCCCCC" stroke-width="0.16875" stroke-miterlimit="10"/>
<path d="M48.021 20.0889L70.7099 36.4857" stroke="#CCCCCC" stroke-width="0.16875" stroke-miterlimit="10"/>
<path d="M48.021 36.4857L70.7099 20.0889" stroke="#CCCCCC" stroke-width="0.16875" stroke-miterlimit="10"/>
<path d="M48.021 36.4856L70.7099 52.8792" stroke="#CCCCCC" stroke-width="0.16875" stroke-miterlimit="10"/>
<path d="M48.021 52.8792L70.7099 36.4856" stroke="#CCCCCC" stroke-width="0.16875" stroke-miterlimit="10"/>
<path d="M48.021 52.8794L70.7099 69.2762" stroke="#CCCCCC" stroke-width="0.16875" stroke-miterlimit="10"/>
<path d="M48.021 69.2762L70.7099 52.8794" stroke="#CCCCCC" stroke-width="0.16875" stroke-miterlimit="10"/>
<path d="M78.9764 3H29.4526C27.3486 3 25.6431 4.70558 25.6431 6.80952V79.1905C25.6431 81.2944 27.3486 83 29.4526 83H78.9764C81.0803 83 82.7859 81.2944 82.7859 79.1905V6.80952C82.7859 4.70558 81.0803 3 78.9764 3Z" fill="#FFF4D7"/>
</g>
<g clip-path="url(#clip5_3_4286)">
<path d="M34.6528 25.8193L38.021 22.6892C38.1445 22.575 38.2431 22.4366 38.3105 22.2825C38.3779 22.1284 38.4127 21.9621 38.4127 21.7939C38.4127 21.6258 38.3779 21.4594 38.3105 21.3053C38.2431 21.1513 38.1445 21.0128 38.021 20.8987L34.6528 17.7527C34.5885 17.6917 34.5033 17.6577 34.4147 17.6577C34.3261 17.6577 34.2409 17.6917 34.1766 17.7527L30.7925 20.8987C30.6694 21.0131 30.5712 21.1516 30.5041 21.3056C30.437 21.4597 30.4023 21.6259 30.4023 21.7939C30.4023 21.9619 30.437 22.1282 30.5041 22.2822C30.5712 22.4362 30.6694 22.5748 30.7925 22.6892L34.1766 25.8193C34.2416 25.8789 34.3265 25.9119 34.4147 25.9119C34.5029 25.9119 34.5878 25.8789 34.6528 25.8193Z" fill="#EA8F00"/>
<path d="M34.475 24.8922C33.767 24.1335 33.0876 23.4033 32.4051 22.67C32.2654 22.5208 32.1194 22.3779 31.9734 22.2382C31.8299 22.0644 31.7551 21.8439 31.7633 21.6187C31.7715 21.3934 31.8621 21.179 32.0178 21.016C32.7257 20.289 33.44 19.562 34.148 18.8223C34.1764 18.7764 34.2162 18.7385 34.2634 18.7122C34.3106 18.6859 34.3638 18.6721 34.4178 18.6721C34.4719 18.6721 34.525 18.6859 34.5722 18.7122C34.6195 18.7385 34.6592 18.7764 34.6876 18.8223C35.421 19.6477 36.1638 20.47 36.8813 21.3081C37.1988 21.6731 37.0908 21.997 36.7289 22.3811C36.094 23.0541 35.5003 23.762 34.8845 24.4541C34.767 24.5938 34.64 24.7208 34.475 24.8922Z" fill="#EA8F00"/>
</g>
<path d="M30.4048 16.4731V15.3588H30.9191L33.1921 6.52393H35.2651L37.5413 15.3588H38.0556V16.4731H34.6968V15.3588H35.1953L34.8492 14.0065H32.3095L31.9445 15.3588H32.4588V16.4731H30.4048ZM32.627 12.7779H34.5603L33.608 8.85091L32.627 12.7779Z" fill="#EA8F00"/>
<path d="M55.332 66.5461C54.5034 66.635 54.0812 66.0223 53.605 65.4477C51.5542 62.9874 50.3637 60.0223 48.8431 57.2572C48.6245 56.8316 48.3187 56.4567 47.9457 56.1569C47.5727 55.8572 47.1408 55.6393 46.678 55.5175C43.859 54.6953 41.2209 53.3683 38.3764 52.6223C37.9226 52.4923 37.5016 52.2672 37.1415 51.962C36.8266 51.7382 36.6003 51.4108 36.5022 51.0371C36.4041 50.6634 36.4405 50.2671 36.605 49.9175C37.0367 48.8191 37.8272 47.9906 38.6558 47.2001C40.9377 45.0748 43.5815 43.375 46.4621 42.181C47.6939 41.6477 48.3066 40.8541 48.6844 39.6096C49.5574 36.7525 50.8209 34.0921 52.9574 31.9398C54.4939 30.3906 56.1955 30.3937 57.7193 31.9398C59.8494 34.0921 61.1066 36.7652 61.9859 39.6128C62.3574 40.816 62.9383 41.6064 64.1383 42.1525C67.4558 43.6223 70.5478 45.4731 72.9923 48.235C74.9669 50.4572 74.6113 51.9683 71.7764 52.7874C69.0367 53.5747 66.4812 54.8636 63.732 55.616C63.3258 55.7333 62.9491 55.9355 62.6268 56.2091C62.3045 56.4827 62.0439 56.8215 61.8621 57.2033C60.3097 59.9842 59.1066 62.9715 57.0558 65.4572C56.4018 66.2731 56.1193 66.5366 55.332 66.5461ZM53.7447 35.9906C53.6463 35.6731 53.532 35.3334 53.1097 35.3112C52.6875 35.289 52.3669 35.435 52.3447 35.9271C52.3256 36.3429 52.4367 36.7048 52.9129 36.7525C53.3891 36.8001 53.5796 36.4255 53.7415 35.9906H53.7447ZM57.4812 36.6255C57.951 36.6255 58.1637 36.3874 58.1637 35.9175C58.1637 35.4477 57.9637 35.2191 57.551 35.2382C57.3564 35.2439 57.1717 35.3249 57.0355 35.464C56.8994 35.6031 56.8224 35.7896 56.8209 35.9842C56.8124 36.0715 56.8238 36.1596 56.8542 36.2418C56.8846 36.3241 56.9332 36.3984 56.9965 36.4592C57.0597 36.52 57.1359 36.5657 57.2193 36.5928C57.3026 36.62 57.3911 36.6279 57.478 36.616L57.4812 36.6255Z" fill="#425CE6"/>
<path d="M53.7417 35.9906C53.5893 36.4255 53.402 36.8001 52.9004 36.7525C52.3988 36.7049 52.31 36.3334 52.3322 35.9271C52.3544 35.435 52.675 35.2922 53.0973 35.3112C53.5195 35.3303 53.6433 35.6699 53.7417 35.9906Z" fill="#425CE6"/>
<path d="M57.4779 36.6158C57.3904 36.6283 57.3013 36.6208 57.2172 36.5937C57.1332 36.5666 57.0564 36.5207 56.9927 36.4595C56.9291 36.3983 56.8802 36.3233 56.8499 36.2404C56.8195 36.1575 56.8084 36.0687 56.8175 35.9809C56.8191 35.7862 56.896 35.5997 57.0322 35.4606C57.1684 35.3215 57.3531 35.2406 57.5477 35.2348C57.9604 35.2158 58.1636 35.4856 58.1604 35.9142C58.1572 36.3428 57.9477 36.6126 57.4779 36.6158Z" fill="#425CE6"/>
<path d="M56.859 61.0476C56.0304 61.1365 55.6114 60.5269 55.1352 59.9523C53.0844 57.4888 51.8939 54.5238 50.3733 51.7619C50.1548 51.3355 49.8487 50.9601 49.4751 50.6603C49.1014 50.3605 48.6686 50.143 48.205 50.0222C45.3891 49.2 42.7479 47.873 39.9034 47.1269C39.4451 46.9994 39.0203 46.7729 38.659 46.4635C38.3433 46.241 38.1163 45.9142 38.0182 45.5407C37.92 45.1672 37.9569 44.7711 38.1225 44.4222C38.5542 43.3238 39.3415 42.4952 40.1701 41.7047C42.4527 39.5781 45.0976 37.8772 47.9796 36.6825C49.2082 36.1523 49.8209 35.3587 50.2018 34.1142C51.0749 31.2571 52.3352 28.5936 54.4717 26.4444C56.0082 24.8952 57.7129 24.8984 59.2336 26.4444C61.3669 28.6 62.6241 31.273 63.5034 34.1174C63.8749 35.3206 64.4558 36.1111 65.6526 36.6571C68.9733 38.1238 72.0622 39.9777 74.5066 42.7396C76.4812 44.9619 76.1288 46.473 73.2939 47.2888C70.551 48.0793 67.9955 49.3682 65.2463 50.1206C64.8406 50.2382 64.4645 50.4404 64.1427 50.7141C63.821 50.9877 63.5609 51.3264 63.3796 51.7079C61.8272 54.492 60.6209 57.4793 58.5701 59.9777C57.932 60.7777 57.6304 61.0381 56.859 61.0476ZM55.2717 30.492C55.1733 30.1746 55.0622 29.8349 54.6368 29.8127C54.2114 29.7904 53.8907 29.9365 53.8685 30.4476C53.8685 30.8635 53.9637 31.2254 54.4368 31.2698C54.9098 31.3142 55.1193 30.9365 55.2685 30.492H55.2717ZM59.0114 31.1269C59.4812 31.1269 59.6939 30.8857 59.6939 30.4158C59.6939 29.946 59.4907 29.7174 59.078 29.7396C58.8832 29.7446 58.698 29.8253 58.5616 29.9646C58.4253 30.1039 58.3486 30.2908 58.3479 30.4857C58.3394 30.5734 58.3509 30.6619 58.3815 30.7445C58.412 30.8272 58.4609 30.9018 58.5244 30.9629C58.5879 31.024 58.6645 31.0699 58.7482 31.0972C58.832 31.1245 58.9209 31.1325 59.0082 31.1206L59.0114 31.1269Z" fill="#FFB000"/>
<path d="M55.2683 30.4921C55.1191 30.9302 54.9318 31.3048 54.427 31.254C53.9223 31.2032 53.8429 30.8477 53.8588 30.4318C53.881 29.9366 54.2048 29.7969 54.627 29.7969C55.0492 29.7969 55.1667 30.1715 55.2683 30.4921Z" fill="#425CE6"/>
<path d="M59.008 31.1207C58.9205 31.1332 58.8313 31.1256 58.7471 31.0985C58.6629 31.0714 58.586 31.0256 58.5221 30.9644C58.4582 30.9033 58.409 30.8285 58.3783 30.7455C58.3475 30.6626 58.336 30.5738 58.3445 30.4858C58.3453 30.2909 58.422 30.104 58.5583 29.9647C58.6946 29.8254 58.8799 29.7447 59.0747 29.7398C59.4874 29.7176 59.6906 29.9906 59.6906 30.416C59.6906 30.8414 59.4779 31.1176 59.008 31.1207Z" fill="#425CE6"/>
</g>
<g clip-path="url(#clip6_3_4286)" filter="url(#filter2_d_3_4286)">
<g clip-path="url(#clip7_3_4286)">
<path d="M100.047 5.38086H47.6665V80.6189H100.047V5.38086Z" stroke="#CCCCCC" stroke-width="0.1875" stroke-miterlimit="10"/>
<path d="M59.8379 5.38086H47.6665V80.6189H59.8379V5.38086Z" stroke="#CCCCCC" stroke-width="0.1875" stroke-miterlimit="10"/>
<path d="M59.8379 16.4729H47.6665V18.6634H59.8379V16.4729Z" stroke="#CCCCCC" stroke-width="0.1875" stroke-miterlimit="10"/>
<path d="M100.048 78.4285H55.146V80.6189H100.048V78.4285Z" stroke="#CCCCCC" stroke-width="0.1875" stroke-miterlimit="10"/>
<path d="M98.1776 14.2825H59.8379V78.4285H98.1776V14.2825Z" stroke="#CCCCCC" stroke-width="0.1875" stroke-miterlimit="10"/>
<path d="M90.3525 20.0889H67.6636V69.2762H90.3525V20.0889Z" stroke="#CCCCCC" stroke-width="0.16875" stroke-miterlimit="10"/>
<path d="M67.6636 36.4856H90.3525" stroke="#CCCCCC" stroke-width="0.16875" stroke-miterlimit="10"/>
<path d="M67.6636 52.8794H90.3525" stroke="#CCCCCC" stroke-width="0.16875" stroke-miterlimit="10"/>
<path d="M67.6636 44.6826H90.3525" stroke="#CCCCCC" stroke-width="0.16875" stroke-miterlimit="10"/>
<path d="M79.0063 69.2762V20.0889" stroke="#CCCCCC" stroke-width="0.16875" stroke-miterlimit="10"/>
<path d="M90.3525 44.6825L79.0064 20.0889L67.6636 44.6825L79.0064 69.2762L90.3525 44.6825Z" stroke="#CCCCCC" stroke-width="0.16875" stroke-miterlimit="10"/>
<path d="M67.6636 20.0889L90.3525 36.4857" stroke="#CCCCCC" stroke-width="0.16875" stroke-miterlimit="10"/>
<path d="M67.6636 36.4857L90.3525 20.0889" stroke="#CCCCCC" stroke-width="0.16875" stroke-miterlimit="10"/>
<path d="M67.6636 36.4856L90.3525 52.8792" stroke="#CCCCCC" stroke-width="0.16875" stroke-miterlimit="10"/>
<path d="M67.6636 52.8792L90.3525 36.4856" stroke="#CCCCCC" stroke-width="0.16875" stroke-miterlimit="10"/>
<path d="M67.6636 52.8794L90.3525 69.2762" stroke="#CCCCCC" stroke-width="0.16875" stroke-miterlimit="10"/>
<path d="M67.6636 69.2762L90.3525 52.8794" stroke="#CCCCCC" stroke-width="0.16875" stroke-miterlimit="10"/>
<path d="M98.619 3H49.0952C46.9912 3 45.2856 4.70558 45.2856 6.80952V79.1905C45.2856 81.2944 46.9912 83 49.0952 83H98.619C100.723 83 102.429 81.2944 102.429 79.1905V6.80952C102.429 4.70558 100.723 3 98.619 3Z" fill="#FFF4D7"/>
</g>
<g clip-path="url(#clip8_3_4286)">
<path d="M58.2763 20.8635L56.2763 18.0063C56.2435 17.959 56.2018 17.9186 56.1535 17.8874C56.1051 17.8562 56.0511 17.8349 55.9945 17.8245C55.9379 17.8142 55.8798 17.8152 55.8236 17.8273C55.7674 17.8394 55.7141 17.8625 55.6667 17.8952L54.454 18.7333C54.3374 18.8139 54.199 18.857 54.0572 18.857C53.9155 18.857 53.777 18.8139 53.6604 18.7333L52.4509 17.8952C52.3552 17.8287 52.2371 17.8026 52.1223 17.8229C52.0075 17.8431 51.9053 17.9079 51.8382 18.0032L49.8413 20.8635C49.7845 20.9458 49.7573 21.045 49.7642 21.1448C49.7712 21.2445 49.8118 21.339 49.8794 21.4127L53.7334 25.6095C53.7743 25.6525 53.8236 25.6868 53.8781 25.7102C53.9327 25.7336 53.9915 25.7457 54.0509 25.7457C54.1102 25.7457 54.169 25.7336 54.2236 25.7102C54.2782 25.6868 54.3274 25.6525 54.3683 25.6095L58.2382 21.4127C58.3058 21.339 58.3464 21.2445 58.3534 21.1448C58.3603 21.045 58.3331 20.9458 58.2763 20.8635Z" fill="#EA8F00"/>
<path d="M54.1584 24.6635C54.046 24.6143 53.9395 24.5525 53.841 24.4794L51.0314 21.6604C50.9706 21.6092 50.9211 21.5461 50.886 21.4748C50.8508 21.4036 50.8308 21.3258 50.8272 21.2465C50.8237 21.1671 50.8366 21.0879 50.8652 21.0138C50.8938 20.9397 50.9374 20.8723 50.9933 20.8159C51.3489 20.3302 51.714 19.8318 52.0791 19.3492C52.1491 19.2504 52.2428 19.1708 52.3515 19.1176C52.4603 19.0643 52.5807 19.0393 52.7017 19.0446C52.8227 19.05 52.9404 19.0857 53.044 19.1483C53.1477 19.2109 53.2339 19.2986 53.2949 19.4032C53.4884 19.624 53.7093 19.8192 53.9521 19.9842C54.0187 20.0318 54.2124 19.9842 54.2949 19.9143C54.6171 19.6603 54.9205 19.3834 55.2029 19.0858C55.4886 18.7683 55.7298 18.8731 55.9298 19.127C56.3775 19.6921 56.7997 20.2699 57.2156 20.8572C57.2508 20.9122 57.2732 20.9745 57.2809 21.0394C57.2886 21.1043 57.2814 21.1701 57.26 21.2318C57.0276 21.5925 56.7698 21.9362 56.4886 22.2604C56.2092 22.5778 55.8917 22.8667 55.5902 23.1651C55.2886 23.4635 54.8981 23.8381 54.5616 24.181C54.4219 24.3365 54.3013 24.4985 54.1584 24.6635Z" fill="#EA8F00"/>
</g>
<path d="M57.689 45.8572C57.6509 45.3938 57.9335 44.7207 58.1938 44.0795C59.5716 40.7239 61.5652 38.0033 64.2541 36.016C65.0509 35.4287 65.9811 35.289 66.9049 35.1144C68.3525 34.8382 69.6509 35.308 70.997 35.816C71.8509 36.1334 72.7081 36.3652 73.4477 36.9938C73.8509 37.3334 74.2636 37.2795 74.7176 37.0795C76.3874 36.3652 77.8922 35.1747 79.6128 34.6255C81.0128 34.1906 82.2922 34.1461 83.6604 35.0826C86.5938 37.0922 88.5874 39.1588 90.2795 42.5715C91.2319 44.1938 90.3398 46.7398 89.67 47.943C87.9049 51.1176 77.7811 58.7684 76.8954 59.5874C76.3398 60.0985 74.7398 66.1239 74.562 66.908C74.4795 67.2795 74.2446 67.6255 73.9525 67.6509C73.543 67.6858 73.635 67.1811 73.5747 66.8953C72.9366 63.3176 71.3843 60.143 70.6827 59.4541C69.1398 57.8922 59.2541 50.3271 58.5557 48.8382C58.1652 47.9969 57.7112 47.1811 57.689 45.8572ZM78.5144 39.8985C78.5144 39.3271 78.2795 38.9715 77.7303 38.8985C77.4729 38.872 77.2152 38.9455 77.0107 39.1039C76.8062 39.2624 76.6705 39.4935 76.6319 39.7493C76.624 39.8596 76.639 39.9704 76.6761 40.0745C76.7131 40.1787 76.7714 40.2741 76.8471 40.3547C76.9229 40.4352 77.0146 40.4992 77.1163 40.5425C77.218 40.5858 77.3276 40.6076 77.4382 40.6065C77.5548 40.6329 77.6756 40.6358 77.7933 40.6148C77.9111 40.5938 78.0234 40.5495 78.1237 40.4844C78.224 40.4193 78.3103 40.3347 78.3774 40.2358C78.4445 40.1368 78.4911 40.0253 78.5144 39.908V39.8985ZM71.8827 40.108C71.8573 39.5906 71.6192 39.2128 71.0509 39.2128C70.9271 39.2035 70.8028 39.2213 70.6865 39.265C70.5703 39.3087 70.465 39.3772 70.378 39.4657C70.2909 39.5543 70.2242 39.6608 70.1826 39.7777C70.1409 39.8947 70.1252 40.0193 70.1366 40.143C70.1366 40.5747 70.3811 41.0795 70.889 41.0255C71.3462 40.9811 71.9716 40.8826 71.8827 40.1176V40.108Z" fill="#425CE6"/>
<path d="M78.5145 39.9079C78.4922 40.0261 78.4465 40.1385 78.3798 40.2386C78.3132 40.3386 78.2271 40.4243 78.1267 40.4903C78.0262 40.5564 77.9135 40.6016 77.7952 40.6231C77.677 40.6447 77.5556 40.6422 77.4383 40.6158C77.3277 40.617 77.2181 40.5952 77.1163 40.5519C77.0146 40.5086 76.923 40.4446 76.8472 40.364C76.7714 40.2835 76.7132 40.1881 76.6761 40.0839C76.6391 39.9797 76.624 39.869 76.6319 39.7587C76.6706 39.5029 76.8062 39.2718 77.0108 39.1133C77.2153 38.9549 77.473 38.8813 77.7303 38.9079C78.2795 38.9809 78.5176 39.3365 78.5145 39.9079Z" fill="#425CE6"/>
<path d="M71.8824 40.1176C71.9713 40.8826 71.3459 40.9811 70.8887 41.0287C70.3808 41.0826 70.1427 40.5779 70.1364 40.1461C70.1259 40.023 70.1423 39.8991 70.1844 39.7829C70.2265 39.6667 70.2934 39.5611 70.3803 39.4732C70.4672 39.3854 70.5722 39.3175 70.6879 39.2742C70.8037 39.2308 70.9274 39.2132 71.0506 39.2223C71.6348 39.2223 71.857 39.6001 71.8824 40.1176Z" fill="#425CE6"/>
<path d="M61.2859 37.657C61.743 35.6792 65.8922 30.9427 67.724 29.7205C69.1653 28.7681 71.0922 28.7046 72.7621 29.2221C74.1833 29.6543 75.5764 30.1738 76.9335 30.7777C77.1224 30.8935 77.3365 30.9621 77.5576 30.9775C77.7786 30.993 78.0001 30.9549 78.2034 30.8666C79.801 30.1722 81.4352 29.5649 83.0986 29.0475C84.4986 28.6094 85.778 28.565 87.1462 29.5046C90.0795 31.511 92.0732 33.5808 93.7653 36.9935C94.7176 38.6158 93.8256 41.1618 93.1557 42.365C91.3907 45.5396 81.2668 53.1872 80.3811 54.0062C79.8256 54.5205 78.2256 60.5459 78.0478 61.33C77.9653 61.6983 77.8764 62.0475 77.5684 62.0729C77.1589 62.1078 77.1145 61.6031 77.0605 61.3142C76.4256 57.7427 75.5018 54.7491 74.7113 53.8126C73.9208 52.8761 63.8383 45.4126 62.2668 42.5269C61.1589 40.6221 60.8986 39.3364 61.2859 37.657ZM82.0002 34.3332C82.0002 33.7586 81.7653 33.4031 81.2161 33.33C80.9584 33.3043 80.7007 33.3786 80.4962 33.5376C80.2918 33.6965 80.1563 33.928 80.1176 34.184C80.1097 34.2943 80.1248 34.4051 80.1618 34.5092C80.1989 34.6134 80.2571 34.7088 80.3329 34.7894C80.4087 34.8699 80.5003 34.9339 80.6021 34.9772C80.7038 35.0205 80.8134 35.0423 80.924 35.0412C81.0413 35.0671 81.1625 35.0692 81.2806 35.0475C81.3987 35.0257 81.5113 34.9805 81.6116 34.9145C81.7119 34.8485 81.798 34.763 81.8648 34.6632C81.9315 34.5634 81.9775 34.4512 82.0002 34.3332ZM75.3684 34.5427C75.343 34.0221 75.1049 33.6475 74.5367 33.6475C74.4135 33.6383 74.2897 33.656 74.174 33.6993C74.0582 33.7427 73.9533 33.8106 73.8663 33.8984C73.7794 33.9862 73.7126 34.0919 73.6705 34.2081C73.6284 34.3242 73.612 34.4482 73.6224 34.5713C73.6224 35.0031 73.8668 35.5046 74.3748 35.4539C74.8319 35.4062 75.4446 35.3078 75.3684 34.5427Z" fill="#FFB000"/>
<path d="M81.9998 34.3334C81.9772 34.4513 81.9311 34.5635 81.8644 34.6633C81.7977 34.7632 81.7116 34.8486 81.6112 34.9146C81.5109 34.9806 81.3984 35.0258 81.2803 35.0476C81.1622 35.0694 81.0409 35.0672 80.9236 35.0413C80.8131 35.0425 80.7034 35.0207 80.6017 34.9773C80.5 34.934 80.4083 34.87 80.3325 34.7895C80.2568 34.7089 80.1985 34.6136 80.1615 34.5094C80.1244 34.4052 80.1094 34.2944 80.1173 34.1841C80.1559 33.9281 80.2914 33.6967 80.4959 33.5377C80.7003 33.3788 80.958 33.3045 81.2157 33.3302C81.7649 33.4032 82.003 33.7588 81.9998 34.3334Z" fill="#425CE6"/>
<path d="M75.3682 34.5429C75.4571 35.3079 74.8317 35.4064 74.3746 35.454C73.8666 35.5048 73.6285 35.0032 73.6222 34.5714C73.6118 34.4483 73.6282 34.3244 73.6703 34.2082C73.7124 34.092 73.7792 33.9864 73.8661 33.8985C73.9531 33.8107 74.058 33.7428 74.1738 33.6995C74.2895 33.6561 74.4132 33.6384 74.5365 33.6476C75.1047 33.6476 75.3428 34.0222 75.3682 34.5429Z" fill="#425CE6"/>
<path d="M50.0474 16.4731V15.3588H50.5616L52.8347 6.52393H54.9077L57.1839 15.3588H57.6982V16.4731H54.3394V15.3588H54.8378L54.4918 14.0065H51.9521L51.587 15.3588H52.1013V16.4731H50.0474ZM52.2696 12.7779H54.2029L53.2505 8.85091L52.2696 12.7779Z" fill="#EA8F00"/>
</g>
<g clip-path="url(#clip9_3_4286)" filter="url(#filter3_d_3_4286)">
<g clip-path="url(#clip10_3_4286)">
<path d="M119.691 5.38086H67.3096V80.6189H119.691V5.38086Z" stroke="#CCCCCC" stroke-width="0.1875" stroke-miterlimit="10"/>
<path d="M79.481 5.38086H67.3096V80.6189H79.481V5.38086Z" stroke="#CCCCCC" stroke-width="0.1875" stroke-miterlimit="10"/>
<path d="M79.481 16.4729H67.3096V18.6634H79.481V16.4729Z" stroke="#CCCCCC" stroke-width="0.1875" stroke-miterlimit="10"/>
<path d="M119.691 78.4285H74.7891V80.6189H119.691V78.4285Z" stroke="#CCCCCC" stroke-width="0.1875" stroke-miterlimit="10"/>
<path d="M117.821 14.2825H79.481V78.4285H117.821V14.2825Z" stroke="#CCCCCC" stroke-width="0.1875" stroke-miterlimit="10"/>
<path d="M109.996 20.0889H87.3066V69.2762H109.996V20.0889Z" stroke="#CCCCCC" stroke-width="0.16875" stroke-miterlimit="10"/>
<path d="M87.3066 36.4856H109.996" stroke="#CCCCCC" stroke-width="0.16875" stroke-miterlimit="10"/>
<path d="M87.3066 52.8794H109.996" stroke="#CCCCCC" stroke-width="0.16875" stroke-miterlimit="10"/>
<path d="M87.3066 44.6826H109.996" stroke="#CCCCCC" stroke-width="0.16875" stroke-miterlimit="10"/>
<path d="M98.6494 69.2762V20.0889" stroke="#CCCCCC" stroke-width="0.16875" stroke-miterlimit="10"/>
<path d="M109.996 44.6825L98.6495 20.0889L87.3066 44.6825L98.6495 69.2762L109.996 44.6825Z" stroke="#CCCCCC" stroke-width="0.16875" stroke-miterlimit="10"/>
<path d="M87.3066 20.0889L109.996 36.4857" stroke="#CCCCCC" stroke-width="0.16875" stroke-miterlimit="10"/>
<path d="M87.3066 36.4857L109.996 20.0889" stroke="#CCCCCC" stroke-width="0.16875" stroke-miterlimit="10"/>
<path d="M87.3066 36.4856L109.996 52.8792" stroke="#CCCCCC" stroke-width="0.16875" stroke-miterlimit="10"/>
<path d="M87.3066 52.8792L109.996 36.4856" stroke="#CCCCCC" stroke-width="0.16875" stroke-miterlimit="10"/>
<path d="M87.3066 52.8794L109.996 69.2762" stroke="#CCCCCC" stroke-width="0.16875" stroke-miterlimit="10"/>
<path d="M87.3066 69.2762L109.996 52.8794" stroke="#CCCCCC" stroke-width="0.16875" stroke-miterlimit="10"/>
<path d="M118.262 3H68.7382C66.6343 3 64.9287 4.70558 64.9287 6.80952V79.1905C64.9287 81.2944 66.6343 83 68.7382 83H118.262C120.366 83 122.072 81.2944 122.072 79.1905V6.80952C122.072 4.70558 120.366 3 118.262 3Z" fill="#FFF4D7"/>
</g>
<g clip-path="url(#clip11_3_4286)">
<path d="M73.7196 25.9111H74.8021C74.8572 25.9088 74.911 25.8936 74.9592 25.8667C75.0074 25.8399 75.0485 25.802 75.0794 25.7563C75.1103 25.7106 75.13 25.6583 75.137 25.6036C75.144 25.5489 75.138 25.4933 75.1196 25.4413L74.3989 23.4381C74.3858 23.4016 74.384 23.362 74.3937 23.3245C74.4033 23.287 74.424 23.2532 74.4531 23.2275C74.4822 23.2019 74.5183 23.1856 74.5567 23.1806C74.5952 23.1757 74.6342 23.1825 74.6688 23.2L76.0783 23.9175C76.1769 23.9672 76.2897 23.981 76.3974 23.9567C76.5052 23.9324 76.6011 23.8714 76.6688 23.7841L78.0339 22.0318C78.1042 21.9377 78.1376 21.8211 78.1276 21.704C78.1177 21.587 78.0651 21.4777 77.9799 21.3968L74.0688 17.8C73.9687 17.7083 73.8379 17.6575 73.7021 17.6575C73.5664 17.6575 73.4355 17.7083 73.3354 17.8L69.4275 21.3905C69.3421 21.4714 69.2897 21.581 69.2803 21.6982C69.2709 21.8154 69.3053 21.932 69.3767 22.0254L70.7418 23.7778C70.8086 23.8653 70.9039 23.9266 71.0113 23.9509C71.1186 23.9753 71.2311 23.9612 71.3291 23.9111L72.7386 23.1937C72.7732 23.1761 72.8122 23.1694 72.8507 23.1743C72.8891 23.1792 72.9252 23.1955 72.9543 23.2212C72.9834 23.2468 73.0041 23.2806 73.0137 23.3182C73.0234 23.3557 73.0215 23.3953 73.0085 23.4318L72.2878 25.4413C72.2694 25.4933 72.2634 25.5489 72.2704 25.6036C72.2774 25.6583 72.2971 25.7106 72.328 25.7563C72.3588 25.802 72.4 25.8399 72.4482 25.8667C72.4964 25.8936 72.5502 25.9088 72.6053 25.9111H73.7196Z" fill="#425CE6"/>
</g>
<path d="M103.297 54.1333C101.392 54.2222 99.6873 53.454 97.9825 52.7429C97.7413 52.6413 97.4746 52.3683 97.246 52.5778C97.0175 52.7873 97.1667 53.0762 97.227 53.346C97.4645 54.4299 97.9637 55.4391 98.6809 56.2857C99.3894 57.1704 99.9618 58.1558 100.379 59.2095C100.979 60.4243 101.277 61.7661 101.246 63.1206C101.23 63.6317 100.792 64.1841 100.341 63.7365C100.211 63.6173 100.057 63.5273 99.8899 63.4726C99.7224 63.4178 99.545 63.3996 99.3698 63.419C95.0778 63.419 95.1508 62.2286 94.2333 62.2286C93.2492 62.2286 92.9286 63.2508 89.4175 63.2508C89.0758 63.3167 88.7447 63.4288 88.4333 63.5841C87.7984 63.9302 87.3667 63.7048 87.3889 62.9492C87.4619 60.6635 88.0746 58.5365 89.4936 56.7111C90.0375 55.9406 90.5398 55.1415 90.9984 54.3175C91.1671 54.01 91.2627 53.6678 91.2778 53.3175C91.3603 52.3397 91.3254 52.3175 90.4079 52.6508C89.3254 53.0444 88.2429 53.4286 87.1571 53.819C85.4746 54.4254 83.846 53.9714 82.2682 53.454C79.6016 52.5841 77.8238 50.7524 77.1889 48.0095C77.0762 47.4689 77.0805 46.9105 77.2015 46.3717C77.3225 45.8329 77.5574 45.3262 77.8905 44.8857C80.1349 41.6667 82.9159 38.9841 85.9603 36.5492C87.8651 35.0222 89.7952 33.5238 91.8397 32.1873C94.2079 30.6349 94.246 30.6 96.4175 32.0889C99.809 34.3896 103.038 36.9216 106.081 39.6667C107.907 41.335 109.508 43.2347 110.843 45.3175C111.437 46.2444 111.456 47.3587 111.23 48.4254C110.83 50.3048 109.868 51.7714 108.113 52.7048C106.595 53.5143 105.075 54.2317 103.297 54.1333Z" fill="#FFB000"/>
<path d="M106.167 50.6985C104.262 50.7842 102.557 50.016 100.852 49.3049C100.611 49.2065 100.345 48.9303 100.116 49.143C99.8874 49.3557 100.037 49.6382 100.116 49.908C100.35 50.9933 100.849 52.0041 101.567 52.8509C102.276 53.7357 102.849 54.7211 103.268 55.7747C103.866 56.99 104.163 58.3316 104.132 59.6858C104.132 60.1938 103.678 60.7461 103.227 60.2985C103.097 60.1797 102.943 60.0899 102.776 60.0352C102.608 59.9804 102.431 59.962 102.256 59.9811C97.9667 59.9811 98.0366 58.7874 97.1191 58.7874C96.1382 58.7874 95.8144 59.8128 92.3064 59.8128C91.9644 59.8731 91.6322 59.9799 91.3191 60.1303C90.6842 60.4763 90.2525 60.2509 90.2779 59.4953C90.3477 57.2096 90.9604 55.0858 92.3794 53.2604C92.9233 52.4888 93.4256 51.6887 93.8842 50.8636C94.0592 50.5546 94.1592 50.2088 94.1763 49.8541C94.2588 48.8795 94.2239 48.8572 93.3096 49.1874C92.2271 49.5811 91.1414 49.9684 90.0588 50.3588C88.3731 50.9652 86.7445 50.508 85.1667 49.9938C82.5001 49.1239 80.7223 47.289 80.0874 44.5493C79.9744 44.008 79.9789 43.4488 80.1005 42.9093C80.2221 42.3699 80.4579 41.8628 80.7921 41.4223C83.0048 38.2382 85.7858 35.5461 88.8302 33.1112C90.735 31.5874 92.6652 30.089 94.7096 28.7493C97.0779 27.1969 97.1191 27.162 99.2874 28.6509C102.679 30.9534 105.908 33.4853 108.954 36.2287C110.78 37.8977 112.381 39.7973 113.716 41.8795C114.31 42.8065 114.329 43.9207 114.103 44.9874C113.703 46.8668 112.745 48.3366 110.986 49.2699C109.468 50.0795 107.945 50.7938 106.167 50.6985ZM100.513 32.8128C100.567 32.2572 100.424 31.8065 99.7382 31.7779C99.0525 31.7493 98.8747 32.1874 98.8588 32.7652C98.8588 33.2636 98.9604 33.7461 99.5445 33.7176C100.037 33.7144 100.576 33.5525 100.513 32.8128ZM94.9763 32.7239C94.9518 32.5333 94.864 32.3565 94.727 32.2218C94.59 32.087 94.4117 32.0023 94.2207 31.9811C93.7223 31.9176 93.5255 32.2763 93.4906 32.7398C93.4556 33.2033 93.7064 33.6572 94.1445 33.6922C94.5223 33.7398 95.008 33.5525 94.9763 32.7239Z" fill="#425CE6"/>
<path d="M100.513 32.8126C100.577 33.5523 100.037 33.7142 99.5606 33.7269C98.9765 33.7459 98.8622 33.2634 98.8749 32.7745C98.8908 32.1967 99.0749 31.7586 99.7543 31.7872C100.434 31.8158 100.567 32.2571 100.513 32.8126Z" fill="#FAFAFE"/>
<path d="M94.9762 32.7238C95.008 33.5524 94.5223 33.7397 94.1445 33.7016C93.7064 33.6571 93.4556 33.2413 93.4905 32.7492C93.5254 32.2571 93.7223 31.927 94.2207 31.9905C94.4103 32.0112 94.5875 32.0946 94.7243 32.2275C94.8612 32.3603 94.9498 32.5349 94.9762 32.7238Z" fill="#F9FAFD"/>
<path d="M69.6904 16.4731V15.3588H70.2047L72.4777 6.52393H74.5507L76.8269 15.3588H77.3412V16.4731H73.9825V15.3588H74.4809L74.1349 14.0065H71.5952L71.2301 15.3588H71.7444V16.4731H69.6904ZM71.9127 12.7779H73.846L72.8936 8.85091L71.9127 12.7779Z" fill="#425CE6"/>
</g>
<defs>
<filter id="filter0_d_3_4286" x="0.75" y="0.75" width="64.6431" height="87.5" filterUnits="userSpaceOnUse" color-interpolation-filters="sRGB">
<feFlood flood-opacity="0" result="BackgroundImageFix"/>
<feColorMatrix in="SourceAlpha" type="matrix" values="0 0 0 0 0 0 0 0 0 0 0 0 0 0 0 0 0 0 127 0" result="hardAlpha"/>
<feOffset dx="-1.5" dy="1.5"/>
<feGaussianBlur stdDeviation="1.875"/>
<feComposite in2="hardAlpha" operator="out"/>
<feColorMatrix type="matrix" values="0 0 0 0 0 0 0 0 0 0 0 0 0 0 0 0 0 0 0.25 0"/>
<feBlend mode="normal" in2="BackgroundImageFix" result="effect1_dropShadow_3_4286"/>
<feBlend mode="normal" in="SourceGraphic" in2="effect1_dropShadow_3_4286" result="shape"/>
</filter>
<filter id="filter1_d_3_4286" x="20.3931" y="0.75" width="64.6431" height="87.5" filterUnits="userSpaceOnUse" color-interpolation-filters="sRGB">
<feFlood flood-opacity="0" result="BackgroundImageFix"/>
<feColorMatrix in="SourceAlpha" type="matrix" values="0 0 0 0 0 0 0 0 0 0 0 0 0 0 0 0 0 0 127 0" result="hardAlpha"/>
<feOffset dx="-1.5" dy="1.5"/>
<feGaussianBlur stdDeviation="1.875"/>
<feComposite in2="hardAlpha" operator="out"/>
<feColorMatrix type="matrix" values="0 0 0 0 0 0 0 0 0 0 0 0 0 0 0 0 0 0 0.25 0"/>
<feBlend mode="normal" in2="BackgroundImageFix" result="effect1_dropShadow_3_4286"/>
<feBlend mode="normal" in="SourceGraphic" in2="effect1_dropShadow_3_4286" result="shape"/>
</filter>
<filter id="filter2_d_3_4286" x="40.0356" y="0.75" width="64.6431" height="87.5" filterUnits="userSpaceOnUse" color-interpolation-filters="sRGB">
<feFlood flood-opacity="0" result="BackgroundImageFix"/>
<feColorMatrix in="SourceAlpha" type="matrix" values="0 0 0 0 0 0 0 0 0 0 0 0 0 0 0 0 0 0 127 0" result="hardAlpha"/>
<feOffset dx="-1.5" dy="1.5"/>
<feGaussianBlur stdDeviation="1.875"/>
<feComposite in2="hardAlpha" operator="out"/>
<feColorMatrix type="matrix" values="0 0 0 0 0 0 0 0 0 0 0 0 0 0 0 0 0 0 0.25 0"/>
<feBlend mode="normal" in2="BackgroundImageFix" result="effect1_dropShadow_3_4286"/>
<feBlend mode="normal" in="SourceGraphic" in2="effect1_dropShadow_3_4286" result="shape"/>
</filter>
<filter id="filter3_d_3_4286" x="59.6787" y="0.75" width="64.6431" height="87.5" filterUnits="userSpaceOnUse" color-interpolation-filters="sRGB">
<feFlood flood-opacity="0" result="BackgroundImageFix"/>
<feColorMatrix in="SourceAlpha" type="matrix" values="0 0 0 0 0 0 0 0 0 0 0 0 0 0 0 0 0 0 127 0" result="hardAlpha"/>
<feOffset dx="-1.5" dy="1.5"/>
<feGaussianBlur stdDeviation="1.875"/>
<feComposite in2="hardAlpha" operator="out"/>
<feColorMatrix type="matrix" values="0 0 0 0 0 0 0 0 0 0 0 0 0 0 0 0 0 0 0.25 0"/>
<feBlend mode="normal" in2="BackgroundImageFix" result="effect1_dropShadow_3_4286"/>
<feBlend mode="normal" in="SourceGraphic" in2="effect1_dropShadow_3_4286" result="shape"/>
</filter>
<clipPath id="clip0_3_4286">
<rect width="57.1429" height="80" fill="white" transform="translate(6 3)"/>
</clipPath>
<clipPath id="clip1_3_4286">
<rect width="57.1429" height="80" fill="white" transform="translate(6 3)"/>
</clipPath>
<clipPath id="clip2_3_4286">
<rect width="8.98095" height="8.71428" fill="white" transform="translate(10.2827 17.4253)"/>
</clipPath>
<clipPath id="clip3_3_4286">
<rect width="57.1429" height="80" fill="white" transform="translate(25.6431 3)"/>
</clipPath>
<clipPath id="clip4_3_4286">
<rect width="57.1429" height="80" fill="white" transform="translate(25.6431 3)"/>
</clipPath>
<clipPath id="clip5_3_4286">
<rect width="8.0254" height="8.25397" fill="white" transform="translate(30.4019 17.6572)"/>
</clipPath>
<clipPath id="clip6_3_4286">
<rect width="57.1429" height="80" fill="white" transform="translate(45.2856 3)"/>
</clipPath>
<clipPath id="clip7_3_4286">
<rect width="57.1429" height="80" fill="white" transform="translate(45.2856 3)"/>
</clipPath>
<clipPath id="clip8_3_4286">
<rect width="8.59365" height="7.93651" fill="white" transform="translate(49.7617 17.8159)"/>
</clipPath>
<clipPath id="clip9_3_4286">
<rect width="57.1429" height="80" fill="white" transform="translate(64.9287 3)"/>
</clipPath>
<clipPath id="clip10_3_4286">
<rect width="57.1429" height="80" fill="white" transform="translate(64.9287 3)"/>
</clipPath>
<clipPath id="clip11_3_4286">
<rect width="8.85397" height="8.25397" fill="white" transform="translate(69.2749 17.6572)"/>
</clipPath>
</defs>
</svg>
