<svg width="125" height="89" viewBox="0 0 125 89" fill="none" xmlns="http://www.w3.org/2000/svg">
<g clip-path="url(#clip0_1_3408)" filter="url(#filter0_d_1_3408)">
<g clip-path="url(#clip1_1_3408)">
<path d="M60.7619 5.38092H8.38098V80.619H60.7619V5.38092Z" stroke="#CCCCCC" stroke-width="0.1875" stroke-miterlimit="10"/>
<path d="M20.5524 5.38092H8.38098V80.619H20.5524V5.38092Z" stroke="#CCCCCC" stroke-width="0.1875" stroke-miterlimit="10"/>
<path d="M20.5524 16.473H8.38098V18.6635H20.5524V16.473Z" stroke="#CCCCCC" stroke-width="0.1875" stroke-miterlimit="10"/>
<path d="M60.7619 78.4286H15.8604V80.6191H60.7619V78.4286Z" stroke="#CCCCCC" stroke-width="0.1875" stroke-miterlimit="10"/>
<path d="M58.8921 14.2825H20.5524V78.4286H58.8921V14.2825Z" stroke="#CCCCCC" stroke-width="0.1875" stroke-miterlimit="10"/>
<path d="M51.0667 20.0889H28.3778V69.2762H51.0667V20.0889Z" stroke="#CCCCCC" stroke-width="0.16875" stroke-miterlimit="10"/>
<path d="M28.3778 36.4857H51.0667" stroke="#CCCCCC" stroke-width="0.16875" stroke-miterlimit="10"/>
<path d="M28.3778 52.8794H51.0667" stroke="#CCCCCC" stroke-width="0.16875" stroke-miterlimit="10"/>
<path d="M28.3778 44.6826H51.0667" stroke="#CCCCCC" stroke-width="0.16875" stroke-miterlimit="10"/>
<path d="M39.7206 69.2762V20.0889" stroke="#CCCCCC" stroke-width="0.16875" stroke-miterlimit="10"/>
<path d="M51.0667 44.6825L39.7207 20.0889L28.3778 44.6825L39.7207 69.2762L51.0667 44.6825Z" stroke="#CCCCCC" stroke-width="0.16875" stroke-miterlimit="10"/>
<path d="M28.3778 20.0889L51.0667 36.4857" stroke="#CCCCCC" stroke-width="0.16875" stroke-miterlimit="10"/>
<path d="M28.3778 36.4857L51.0667 20.0889" stroke="#CCCCCC" stroke-width="0.16875" stroke-miterlimit="10"/>
<path d="M28.3778 36.4857L51.0667 52.8794" stroke="#CCCCCC" stroke-width="0.16875" stroke-miterlimit="10"/>
<path d="M28.3778 52.8794L51.0667 36.4857" stroke="#CCCCCC" stroke-width="0.16875" stroke-miterlimit="10"/>
<path d="M28.3778 52.8794L51.0667 69.2762" stroke="#CCCCCC" stroke-width="0.16875" stroke-miterlimit="10"/>
<path d="M28.3778 69.2762L51.0667 52.8794" stroke="#CCCCCC" stroke-width="0.16875" stroke-miterlimit="10"/>
<path d="M59.3333 3H9.80952C7.70558 3 6 4.70558 6 6.80952V79.1905C6 81.2944 7.70558 83 9.80952 83H59.3333C61.4373 83 63.1429 81.2944 63.1429 79.1905V6.80952C63.1429 4.70558 61.4373 3 59.3333 3Z" fill="#FFF4D7"/>
</g>
<path d="M11.1206 15.1841L12.6444 13.2508C12.8314 13.7412 13.0986 14.1971 13.4349 14.6C13.5404 14.7258 13.6713 14.8279 13.819 14.8996C13.9667 14.9712 14.1279 15.0109 14.292 15.0159C14.4306 15.0241 14.5692 14.9997 14.6965 14.9446C14.8239 14.8894 14.9366 14.8051 15.0254 14.6984C15.2153 14.428 15.3082 14.1013 15.2889 13.7714C15.3024 13.2394 15.105 12.7236 14.7397 12.3365C14.565 12.1475 14.3521 11.9979 14.115 11.8977C13.878 11.7976 13.6223 11.7491 13.3651 11.7556C13.2793 11.7556 13.1841 11.7556 13.0762 11.7714C12.9682 11.7873 12.8254 11.8064 12.6539 11.8381L12.2825 11.1873L14.5714 8.29524H13.8508C13.4349 8.26209 13.0173 8.33187 12.6349 8.49842C12.375 8.67885 12.1722 8.93005 12.0508 9.22223L11.3619 9.0127L12.3936 5.72382L13.1968 5.94921L13.1301 6.31112H16.2444L16.6031 7.49207L14.946 9.68255C15.5338 9.86012 16.0448 10.2302 16.3968 10.7333C16.7598 11.2586 16.9466 11.8856 16.9301 12.5238C16.9371 13.5861 16.5696 14.6168 15.892 15.4349C15.2 16.2942 14.4106 16.7238 13.5238 16.7238C13.0581 16.724 12.6024 16.5883 12.2127 16.3333C11.77 16.0336 11.3974 15.6415 11.1206 15.1841Z" fill="#425CE6"/>
<g clip-path="url(#clip2_1_3408)">
<path d="M19.1491 22.0413L18.0412 20.5365C17.9435 20.4447 17.8169 20.3898 17.6831 20.3811C17.5493 20.3724 17.4167 20.4105 17.3079 20.4889L15.346 21.7587C15.3355 21.7664 15.3231 21.771 15.3102 21.772C15.2973 21.773 15.2843 21.7704 15.2728 21.7645C15.2612 21.7586 15.2516 21.7495 15.2449 21.7384C15.2382 21.7273 15.2347 21.7145 15.2349 21.7016V21.3174C15.2349 21.2575 15.2477 21.1981 15.2723 21.1434C15.297 21.0887 15.3329 21.0398 15.3777 21L16.7714 19.9048C16.8076 19.8717 16.8365 19.8315 16.8563 19.7867C16.876 19.7419 16.8862 19.6934 16.8862 19.6444C16.8862 19.5954 16.876 19.547 16.8563 19.5022C16.8365 19.4573 16.8076 19.4171 16.7714 19.3841L15.1841 17.5714C15.0836 17.4804 14.9529 17.43 14.8174 17.43C14.6819 17.43 14.5512 17.4804 14.4507 17.5714L12.8634 19.3841C12.8263 19.4166 12.7966 19.4566 12.7763 19.5015C12.7559 19.5464 12.7454 19.5951 12.7454 19.6444C12.7454 19.6937 12.7559 19.7425 12.7763 19.7874C12.7966 19.8322 12.8263 19.8723 12.8634 19.9048L14.2539 21C14.2988 21.0398 14.3347 21.0887 14.3593 21.1434C14.3839 21.1981 14.3967 21.2575 14.3968 21.3174V21.7174C14.3969 21.7304 14.3934 21.7432 14.3868 21.7543C14.3801 21.7654 14.3704 21.7744 14.3589 21.7804C14.3473 21.7863 14.3344 21.7889 14.3214 21.7879C14.3085 21.7869 14.2961 21.7823 14.2857 21.7746L12.3269 20.5048C12.2199 20.4243 12.0883 20.3834 11.9546 20.3892C11.8208 20.395 11.6932 20.4471 11.5936 20.5365L10.4793 22.0413C10.3941 22.1221 10.3415 22.2314 10.3316 22.3485C10.3216 22.4655 10.355 22.5821 10.4253 22.6762L11.5936 24.1936C11.6615 24.2824 11.7584 24.3447 11.8674 24.3696C11.9764 24.3945 12.0906 24.3806 12.1904 24.3301L13.9618 23.3778C13.9969 23.3605 14.0363 23.354 14.075 23.3591C14.1137 23.3643 14.1501 23.3809 14.1793 23.4068C14.2086 23.4326 14.2295 23.4666 14.2394 23.5044C14.2493 23.5422 14.2477 23.5821 14.2349 23.619L13.3809 25.6794C13.3615 25.7332 13.3553 25.7909 13.363 25.8477C13.3707 25.9044 13.392 25.9584 13.425 26.0052C13.458 26.0519 13.5019 26.09 13.5528 26.1162C13.6037 26.1424 13.6602 26.1559 13.7174 26.1555H15.9142C15.9712 26.1554 16.0273 26.1415 16.0778 26.1151C16.1283 26.0887 16.1717 26.0506 16.2044 26.0039C16.2371 25.9572 16.258 25.9034 16.2655 25.8469C16.2731 25.7904 16.2669 25.733 16.2476 25.6794L15.4031 23.6317C15.3897 23.5945 15.3878 23.554 15.3977 23.5156C15.4077 23.4773 15.4289 23.4428 15.4588 23.4167C15.4886 23.3907 15.5256 23.3742 15.565 23.3695C15.6043 23.3648 15.6442 23.3721 15.6793 23.3905L17.5206 24.3428C17.6205 24.3926 17.7346 24.4063 17.8434 24.3814C17.9522 24.3565 18.0491 24.2946 18.1174 24.2063L19.2126 22.6889C19.2869 22.5933 19.3218 22.4729 19.3099 22.3524C19.2981 22.2319 19.2406 22.1206 19.1491 22.0413Z" fill="#425CE6"/>
</g>
<g clip-path="url(#clip3_1_3408)">
<path d="M35.052 23.7183C34.4764 24.1448 33.8714 24.5302 33.2415 24.8715C32.9518 25.027 32.6464 25.1514 32.3304 25.2425C32.0584 25.3193 31.746 25.3479 31.4857 25.1683C30.4444 24.4316 29.5398 23.5777 28.9424 22.435C28.902 22.3674 28.8814 22.2899 28.8828 22.2113C28.8841 22.1326 28.9075 22.0559 28.9502 21.9898C29.4793 21.0321 30.2141 20.2035 31.1017 19.5636C31.5989 19.2096 32.2354 19.2291 32.773 19.5636C33.4784 19.9971 34.2268 20.3576 34.8971 20.847C35.0508 20.9438 35.1836 21.0704 35.2876 21.2193C35.2447 20.5281 35.3332 19.9255 34.7162 19.4908C34.2295 19.148 33.8488 18.6753 33.6177 18.1267C33.5295 17.937 33.4874 17.7292 33.4949 17.5202C33.5024 17.3112 33.5592 17.1069 33.6606 16.924C34.1448 16.0038 34.8698 15.3114 35.7093 14.7361C35.8633 14.6371 36.0434 14.5868 36.2264 14.5916C36.4093 14.5965 36.5865 14.6564 36.735 14.7634C37.5469 15.2925 38.2221 16.0061 38.7056 16.8459C38.9971 17.3666 38.949 17.8677 38.6743 18.3649C38.4094 18.8305 38.0487 19.2346 37.6162 19.5506C37.4066 19.7094 37.2491 19.8708 37.2257 20.1455C37.2023 20.4201 37.0526 20.6349 37.0591 20.9004C37.0591 20.9642 37.0304 21.0462 37.0981 21.0865C37.1658 21.1269 37.2205 21.0592 37.2738 21.0188C38.0236 20.4448 38.8579 20.0036 39.6779 19.548C40.2662 19.2213 40.9339 19.2135 41.4832 19.6782C42.2628 20.3071 42.924 21.0701 43.4356 21.9312C43.4892 22.0098 43.5198 22.1018 43.5237 22.1968C43.5276 22.2919 43.5047 22.3861 43.4577 22.4688C43.023 23.3265 42.3513 23.9786 41.6563 24.6138C41.5066 24.7518 41.3439 24.8741 41.1838 25.0043C40.7361 25.3505 40.2532 25.3739 39.7521 25.1462C38.9693 24.8108 38.2369 24.3683 37.5758 23.8316C37.5003 23.7678 37.4053 23.6584 37.3155 23.7209C37.2257 23.7834 37.2114 24.9574 37.335 25.2269C37.8856 26.0013 39.1182 26.5115 39.1182 28.0708C39.1091 28.3311 39.0804 28.4301 38.7681 28.3429C38.3741 28.2387 37.969 28.1823 37.5615 28.1749C37.0409 28.158 36.679 28.175 36.4031 27.7663C36.2729 27.5671 36.1883 27.5059 36.0399 27.7558C35.6169 28.4782 34.8685 28.1854 34.1787 28.2556C33.9863 28.2571 33.7953 28.2883 33.6125 28.3481C33.3717 28.4496 33.2663 28.3715 33.2467 28.0982C33.2116 27.5905 33.4094 27.1454 33.606 26.7094C33.8337 26.2056 34.4976 25.7189 34.8503 25.2776C35.203 24.8364 35.0416 24.3262 35.052 23.7183ZM37.0044 16.4945C37.0487 16.4987 37.0934 16.4928 37.135 16.4772C37.1767 16.4616 37.2143 16.4368 37.245 16.4046C37.2757 16.3724 37.2987 16.3337 37.3123 16.2913C37.3258 16.2489 37.3296 16.204 37.3233 16.16C37.3103 15.9413 37.1658 15.8424 36.9536 15.8515C36.9107 15.8485 36.8676 15.8548 36.8274 15.8702C36.7872 15.8855 36.7508 15.9094 36.7208 15.9403C36.6908 15.9712 36.6679 16.0082 36.6537 16.0489C36.6395 16.0895 36.6344 16.1328 36.6387 16.1756C36.6348 16.4047 36.7675 16.4971 37.0018 16.4945H37.0044ZM35.0703 16.2771C35.0703 16.3956 35.2004 16.5088 35.3852 16.5075C35.4279 16.5125 35.4711 16.5075 35.5115 16.493C35.5519 16.4784 35.5883 16.4547 35.618 16.4237C35.6476 16.3926 35.6697 16.3551 35.6824 16.3141C35.6951 16.2731 35.6981 16.2297 35.6911 16.1873C35.6927 16.1414 35.6842 16.0958 35.6663 16.0535C35.6483 16.0112 35.6214 15.9734 35.5873 15.9426C35.5532 15.9119 35.5127 15.889 35.4689 15.8755C35.425 15.862 35.3787 15.8582 35.3332 15.8645C35.1301 15.871 35.0677 16.0038 35.0703 16.2771Z" fill="#FFB000"/>
<path d="M37.0019 16.4945C36.7676 16.4945 36.6348 16.4047 36.6361 16.1756C36.6318 16.1326 36.637 16.0893 36.6512 16.0485C36.6655 16.0078 36.6885 15.9706 36.7186 15.9397C36.7488 15.9089 36.7854 15.8849 36.8257 15.8697C36.8661 15.8544 36.9094 15.8482 36.9524 15.8515C37.1646 15.8424 37.309 15.9413 37.3221 16.16C37.3284 16.2041 37.3246 16.2491 37.311 16.2916C37.2973 16.3341 37.2742 16.3729 37.2434 16.4052C37.2125 16.4374 37.1748 16.4622 37.1329 16.4776C37.0911 16.4931 37.0463 16.4989 37.0019 16.4945Z" fill="#FFB000"/>
<path d="M35.0703 16.2771C35.0703 16.0038 35.1302 15.871 35.3306 15.8593C35.3768 15.8525 35.4238 15.856 35.4684 15.8696C35.513 15.8832 35.5541 15.9066 35.5886 15.9379C35.6231 15.9693 35.6502 16.008 35.6679 16.0511C35.6857 16.0942 35.6936 16.1408 35.6912 16.1873C35.6979 16.2292 35.695 16.2721 35.6826 16.3127C35.6702 16.3533 35.6486 16.3904 35.6196 16.4214C35.5905 16.4523 35.5548 16.4762 35.5151 16.4911C35.4753 16.506 35.4327 16.5117 35.3905 16.5075C35.194 16.5088 35.0703 16.3956 35.0703 16.2771Z" fill="#FFB000"/>
<path d="M35.6886 22.3217C35.1136 22.7494 34.5085 23.1353 33.8781 23.4762C33.5887 23.6327 33.2832 23.7575 32.967 23.8484C32.6898 23.9252 32.3787 23.9526 32.1171 23.769C31.0758 23.0363 30.1712 22.1824 29.5738 21.0357C29.5336 20.9683 29.5131 20.891 29.5147 20.8125C29.5163 20.734 29.54 20.6576 29.5829 20.5919C30.1143 19.6325 30.8534 18.8041 31.7461 18.167C32.2433 17.813 32.8798 17.8325 33.4174 18.167C34.115 18.5952 34.8699 18.9558 35.5337 19.4413C35.6871 19.5379 35.8198 19.664 35.9242 19.8122C35.88 19.1211 35.9698 18.5197 35.3528 18.0837C34.8643 17.7435 34.4821 17.2719 34.2504 16.7236C34.162 16.534 34.1197 16.3262 34.127 16.1172C34.1342 15.9082 34.1908 15.7039 34.292 15.5209C34.7762 14.6007 35.5025 13.9082 36.3407 13.3329C36.4948 13.2341 36.675 13.184 36.858 13.1891C37.0409 13.1942 37.2181 13.2543 37.3664 13.3616C38.1784 13.8905 38.8536 14.6042 39.337 15.4441C39.6298 15.9647 39.5817 16.4658 39.3057 16.9644C39.0427 17.4301 38.6843 17.835 38.2541 18.1527C38.0445 18.3102 37.887 18.4716 37.8636 18.7462C37.8402 19.0209 37.6905 19.2356 37.697 19.5011C37.697 19.5649 37.6696 19.6469 37.7373 19.6873C37.805 19.7276 37.8597 19.6612 37.9117 19.6209C38.6576 19.0508 39.4932 18.6044 40.3132 18.1488C40.9015 17.8221 41.5679 17.8156 42.1185 18.279C42.8812 18.9297 43.5684 19.6508 44.0709 20.5333C44.1249 20.6115 44.1556 20.7033 44.1595 20.7982C44.1634 20.8931 44.1404 20.9872 44.093 21.0696C43.6582 21.9286 42.9866 22.5794 42.2929 23.2159C42.1419 23.346 41.9805 23.4762 41.8191 23.6064C41.3727 23.9539 40.8885 23.976 40.3874 23.7495C39.6028 23.4138 38.8683 22.9714 38.2046 22.4349C38.1291 22.3724 38.0341 22.2618 37.9443 22.3243C37.8545 22.3868 37.8389 23.5621 37.9625 23.8302C38.5131 24.6112 39.7457 25.1162 39.7457 26.6742C39.7366 26.9345 39.7092 27.0334 39.3956 26.9462C39.0014 26.8427 38.5964 26.7863 38.189 26.7783C37.6683 26.7627 37.3065 26.7783 37.0306 26.3709C36.9004 26.1718 36.8158 26.1106 36.6687 26.3592C36.2457 27.0816 35.4973 26.7887 34.8075 26.859C34.6147 26.861 34.4234 26.8922 34.24 26.9514C33.9992 27.053 33.8937 26.9762 33.8755 26.7028C33.8391 26.1952 34.0382 25.7488 34.2335 25.314C34.4612 24.809 35.125 24.3222 35.4791 23.8823C35.8331 23.4424 35.6782 22.9282 35.6886 22.3217Z" fill="#425CE6"/>
</g>
<g clip-path="url(#clip4_1_3408)">
<path d="M35.052 47.5881C34.4764 48.0146 33.8714 48.4 33.2415 48.7413C32.9518 48.8968 32.6464 49.0212 32.3304 49.1123C32.0584 49.1891 31.746 49.2177 31.4857 49.0381C30.4444 48.3014 29.5398 47.4476 28.9424 46.3048C28.902 46.2372 28.8814 46.1597 28.8828 46.0811C28.8841 46.0024 28.9075 45.9257 28.9502 45.8596C29.4793 44.9019 30.2141 44.0733 31.1017 43.4335C31.5989 43.0794 32.2354 43.099 32.773 43.4335C33.4784 43.8669 34.2268 44.2274 34.8971 44.7168C35.0508 44.8136 35.1836 44.9402 35.2876 45.0891C35.2447 44.3979 35.3332 43.7953 34.7162 43.3606C34.2295 43.0178 33.8488 42.5451 33.6177 41.9965C33.5295 41.8069 33.4874 41.599 33.4949 41.39C33.5024 41.181 33.5592 40.9767 33.6606 40.7938C34.1448 39.8736 34.8698 39.1812 35.7093 38.6059C35.8633 38.5069 36.0434 38.4566 36.2264 38.4614C36.4093 38.4663 36.5865 38.5262 36.735 38.6332C37.5469 39.1623 38.2221 39.8759 38.7056 40.7157C38.9971 41.2364 38.949 41.7375 38.6743 42.2347C38.4094 42.7003 38.0487 43.1044 37.6162 43.4204C37.4066 43.5792 37.2491 43.7406 37.2257 44.0153C37.2023 44.2899 37.0526 44.5047 37.0591 44.7702C37.0591 44.834 37.0304 44.916 37.0981 44.9563C37.1658 44.9967 37.2205 44.929 37.2738 44.8886C38.0236 44.3146 38.8579 43.8734 39.6779 43.4178C40.2662 43.0911 40.9339 43.0833 41.4832 43.548C42.2628 44.1769 42.924 44.9399 43.4356 45.801C43.4892 45.8796 43.5198 45.9716 43.5237 46.0667C43.5276 46.1617 43.5047 46.2559 43.4577 46.3386C43.023 47.1964 42.3513 47.8484 41.6563 48.4836C41.5066 48.6216 41.3439 48.7439 41.1838 48.8741C40.7361 49.2203 40.2532 49.2437 39.7521 49.016C38.9693 48.6806 38.2369 48.2382 37.5758 47.7014C37.5003 47.6376 37.4053 47.5283 37.3155 47.5907C37.2257 47.6532 37.2114 48.8272 37.335 49.0967C37.8856 49.8711 39.1182 50.3813 39.1182 51.9406C39.1091 52.201 39.0804 52.2999 38.7681 52.2127C38.3741 52.1085 37.969 52.0521 37.5615 52.0448C37.0409 52.0278 36.679 52.0448 36.4031 51.6361C36.2729 51.4369 36.1883 51.3757 36.0399 51.6257C35.6169 52.348 34.8685 52.0552 34.1787 52.1255C33.9863 52.1269 33.7953 52.1581 33.6125 52.2179C33.3717 52.3194 33.2663 52.2413 33.2467 51.968C33.2116 51.4604 33.4094 51.0152 33.606 50.5792C33.8337 50.0755 34.4976 49.5887 34.8503 49.1474C35.203 48.7062 35.0416 48.196 35.052 47.5881ZM37.0044 40.3643C37.0487 40.3685 37.0934 40.3626 37.135 40.347C37.1767 40.3315 37.2143 40.3066 37.245 40.2744C37.2757 40.2422 37.2987 40.2035 37.3123 40.1611C37.3258 40.1187 37.3296 40.0739 37.3233 40.0298C37.3103 39.8111 37.1658 39.7122 36.9536 39.7213C36.9107 39.7183 36.8676 39.7246 36.8274 39.74C36.7872 39.7553 36.7508 39.7793 36.7208 39.8101C36.6908 39.841 36.6679 39.8781 36.6537 39.9187C36.6395 39.9593 36.6344 40.0026 36.6387 40.0454C36.6348 40.2745 36.7675 40.3669 37.0018 40.3643H37.0044ZM35.0703 40.147C35.0703 40.2654 35.2004 40.3786 35.3852 40.3773C35.4279 40.3823 35.4711 40.3774 35.5115 40.3628C35.5519 40.3483 35.5883 40.3245 35.618 40.2935C35.6476 40.2624 35.6697 40.2249 35.6824 40.1839C35.6951 40.1429 35.6981 40.0995 35.6911 40.0571C35.6927 40.0113 35.6842 39.9656 35.6663 39.9233C35.6483 39.881 35.6214 39.8432 35.5873 39.8125C35.5532 39.7817 35.5127 39.7588 35.4689 39.7453C35.425 39.7318 35.3787 39.7281 35.3332 39.7344C35.1301 39.7409 35.0677 39.8736 35.0703 40.147Z" fill="#FFB000"/>
<path d="M37.0019 40.3643C36.7676 40.3643 36.6348 40.2745 36.6361 40.0454C36.6318 40.0025 36.637 39.9591 36.6512 39.9184C36.6655 39.8776 36.6885 39.8405 36.7186 39.8096C36.7488 39.7787 36.7854 39.7548 36.8257 39.7395C36.8661 39.7243 36.9094 39.7181 36.9524 39.7213C37.1646 39.7122 37.309 39.8111 37.3221 40.0298C37.3284 40.074 37.3246 40.119 37.311 40.1615C37.2973 40.2039 37.2742 40.2428 37.2434 40.275C37.2125 40.3072 37.1748 40.332 37.1329 40.3475C37.0911 40.363 37.0463 40.3687 37.0019 40.3643Z" fill="#FFB000"/>
<path d="M35.0703 40.147C35.0703 39.8736 35.1302 39.7409 35.3306 39.7291C35.3768 39.7223 35.4238 39.7259 35.4684 39.7395C35.513 39.753 35.5541 39.7764 35.5886 39.8078C35.6231 39.8391 35.6502 39.8778 35.6679 39.9209C35.6857 39.964 35.6936 40.0106 35.6912 40.0571C35.6979 40.099 35.695 40.1419 35.6826 40.1825C35.6702 40.2231 35.6486 40.2603 35.6196 40.2912C35.5905 40.3221 35.5548 40.346 35.5151 40.3609C35.4753 40.3758 35.4327 40.3815 35.3905 40.3773C35.194 40.3786 35.0703 40.2654 35.0703 40.147Z" fill="#FFB000"/>
<path d="M35.6886 46.1915C35.1136 46.6193 34.5085 47.0051 33.8781 47.346C33.5887 47.5025 33.2832 47.6273 32.967 47.7183C32.6898 47.7951 32.3787 47.8224 32.1171 47.6389C31.0758 46.9061 30.1712 46.0523 29.5738 44.9056C29.5336 44.8381 29.5131 44.7608 29.5147 44.6823C29.5163 44.6039 29.54 44.5274 29.5829 44.4617C30.1143 43.5024 30.8534 42.6739 31.7461 42.0369C32.2433 41.6828 32.8798 41.7024 33.4174 42.0369C34.115 42.4651 34.8699 42.8256 35.5337 43.3111C35.6871 43.4078 35.8198 43.5339 35.9242 43.6821C35.88 42.9909 35.9698 42.3896 35.3528 41.9536C34.8643 41.6134 34.4821 41.1418 34.2504 40.5934C34.162 40.4038 34.1197 40.1961 34.127 39.9871C34.1342 39.7781 34.1908 39.5737 34.292 39.3907C34.7762 38.4705 35.5025 37.7781 36.3407 37.2028C36.4948 37.104 36.675 37.0539 36.858 37.059C37.0409 37.0641 37.2181 37.1242 37.3664 37.2314C38.1784 37.7604 38.8536 38.474 39.337 39.3139C39.6298 39.8346 39.5817 40.3357 39.3057 40.8342C39.0427 41.2999 38.6843 41.7048 38.2541 42.0225C38.0445 42.18 37.887 42.3414 37.8636 42.6161C37.8402 42.8907 37.6905 43.1055 37.697 43.371C37.697 43.4348 37.6696 43.5168 37.7373 43.5571C37.805 43.5975 37.8597 43.5311 37.9117 43.4907C38.6576 42.9206 39.4932 42.4742 40.3132 42.0186C40.9015 41.6919 41.5679 41.6854 42.1185 42.1488C42.8812 42.7996 43.5684 43.5207 44.0709 44.4031C44.1249 44.4813 44.1556 44.5732 44.1595 44.6681C44.1634 44.763 44.1404 44.8571 44.093 44.9394C43.6582 45.7984 42.9866 46.4492 42.2929 47.0857C42.1419 47.2159 41.9805 47.346 41.8191 47.4762C41.3727 47.8237 40.8885 47.8458 40.3874 47.6194C39.6028 47.2836 38.8683 46.8413 38.2046 46.3048C38.1291 46.2423 38.0341 46.1317 37.9443 46.1941C37.8545 46.2566 37.8389 47.4319 37.9625 47.7001C38.5131 48.481 39.7457 48.986 39.7457 50.544C39.7366 50.8044 39.7092 50.9033 39.3956 50.8161C39.0014 50.7125 38.5964 50.6562 38.189 50.6482C37.6683 50.6325 37.3065 50.6482 37.0306 50.2408C36.9004 50.0416 36.8158 49.9804 36.6687 50.2291C36.2457 50.9514 35.4973 50.6586 34.8075 50.7289C34.6147 50.7309 34.4234 50.762 34.24 50.8213C33.9992 50.9228 33.8937 50.846 33.8755 50.5727C33.8391 50.065 34.0382 49.6186 34.2335 49.1839C34.4612 48.6789 35.125 48.1921 35.4791 47.7521C35.8331 47.3122 35.6782 46.7981 35.6886 46.1915Z" fill="#425CE6"/>
</g>
<g clip-path="url(#clip5_1_3408)">
<path d="M35.052 71.458C34.4764 71.8845 33.8714 72.2698 33.2415 72.6112C32.9518 72.7667 32.6464 72.891 32.3304 72.9821C32.0584 73.0589 31.746 73.0876 31.4857 72.9079C30.4444 72.1712 29.5398 71.3174 28.9424 70.1746C28.902 70.1071 28.8814 70.0296 28.8828 69.9509C28.8841 69.8723 28.9075 69.7955 28.9502 69.7295C29.4793 68.7717 30.2141 67.9431 31.1017 67.3033C31.5989 66.9493 32.2354 66.9688 32.773 67.3033C33.4784 67.7367 34.2268 68.0973 34.8971 68.5867C35.0508 68.6834 35.1836 68.81 35.2876 68.9589C35.2447 68.2678 35.3332 67.6651 34.7162 67.2304C34.2295 66.8876 33.8488 66.415 33.6177 65.8664C33.5295 65.6767 33.4874 65.4689 33.4949 65.2599C33.5024 65.0509 33.5592 64.8466 33.6606 64.6637C34.1448 63.7435 34.8698 63.051 35.7093 62.4757C35.8633 62.3767 36.0434 62.3264 36.2264 62.3313C36.4093 62.3362 36.5865 62.396 36.735 62.503C37.5469 63.0321 38.2221 63.7457 38.7056 64.5856C38.9971 65.1062 38.949 65.6073 38.6743 66.1045C38.4094 66.5702 38.0487 66.9743 37.6162 67.2903C37.4066 67.4491 37.2491 67.6105 37.2257 67.8851C37.2023 68.1597 37.0526 68.3745 37.0591 68.64C37.0591 68.7038 37.0304 68.7858 37.0981 68.8262C37.1658 68.8665 37.2205 68.7988 37.2738 68.7585C38.0236 68.1845 38.8579 67.7432 39.6779 67.2877C40.2662 66.961 40.9339 66.9532 41.4832 67.4178C42.2628 68.0467 42.924 68.8097 43.4356 69.6709C43.4892 69.7494 43.5198 69.8415 43.5237 69.9365C43.5276 70.0315 43.5047 70.1258 43.4577 70.2084C43.023 71.0662 42.3513 71.7183 41.6563 72.3535C41.5066 72.4914 41.3439 72.6138 41.1838 72.7439C40.7361 73.0902 40.2532 73.1136 39.7521 72.8858C38.9693 72.5504 38.2369 72.108 37.5758 71.5712C37.5003 71.5074 37.4053 71.3981 37.3155 71.4606C37.2257 71.523 37.2114 72.6971 37.335 72.9665C37.8856 73.741 39.1182 74.2512 39.1182 75.8105C39.1091 76.0708 39.0804 76.1697 38.7681 76.0825C38.3741 75.9783 37.969 75.9219 37.5615 75.9146C37.0409 75.8977 36.679 75.9146 36.4031 75.5059C36.2729 75.3068 36.1883 75.2456 36.0399 75.4955C35.6169 76.2179 34.8685 75.925 34.1787 75.9953C33.9863 75.9968 33.7953 76.0279 33.6125 76.0877C33.3717 76.1892 33.2663 76.1111 33.2467 75.8378C33.2116 75.3302 33.4094 74.885 33.606 74.449C33.8337 73.9453 34.4976 73.4585 34.8503 73.0173C35.203 72.576 35.0416 72.0658 35.052 71.458ZM37.0044 64.2342C37.0487 64.2383 37.0934 64.2324 37.135 64.2169C37.1767 64.2013 37.2143 64.1765 37.245 64.1443C37.2757 64.1121 37.2987 64.0733 37.3123 64.031C37.3258 63.9886 37.3296 63.9437 37.3233 63.8997C37.3103 63.681 37.1658 63.5821 36.9536 63.5912C36.9107 63.5881 36.8676 63.5945 36.8274 63.6098C36.7872 63.6252 36.7508 63.6491 36.7208 63.68C36.6908 63.7108 36.6679 63.7479 36.6537 63.7885C36.6395 63.8292 36.6344 63.8724 36.6387 63.9153C36.6348 64.1444 36.7675 64.2368 37.0018 64.2342H37.0044ZM35.0703 64.0168C35.0703 64.1352 35.2004 64.2485 35.3852 64.2472C35.4279 64.2522 35.4711 64.2472 35.5115 64.2327C35.5519 64.2181 35.5883 64.1944 35.618 64.1633C35.6476 64.1323 35.6697 64.0948 35.6824 64.0538C35.6951 64.0128 35.6981 63.9694 35.6911 63.927C35.6927 63.8811 35.6842 63.8354 35.6663 63.7931C35.6483 63.7509 35.6214 63.713 35.5873 63.6823C35.5532 63.6515 35.5127 63.6286 35.4689 63.6151C35.425 63.6016 35.3787 63.5979 35.3332 63.6042C35.1301 63.6107 35.0677 63.7435 35.0703 64.0168Z" fill="#FFB000"/>
<path d="M37.0019 64.2342C36.7676 64.2342 36.6348 64.1443 36.6361 63.9153C36.6318 63.8723 36.637 63.8289 36.6512 63.7882C36.6655 63.7475 36.6885 63.7103 36.7186 63.6794C36.7488 63.6485 36.7854 63.6246 36.8257 63.6094C36.8661 63.5941 36.9094 63.5879 36.9524 63.5912C37.1646 63.5821 37.309 63.681 37.3221 63.8997C37.3284 63.9438 37.3246 63.9888 37.311 64.0313C37.2973 64.0738 37.2742 64.1126 37.2434 64.1448C37.2125 64.1771 37.1748 64.2019 37.1329 64.2173C37.0911 64.2328 37.0463 64.2386 37.0019 64.2342Z" fill="#FFB000"/>
<path d="M35.0703 64.0168C35.0703 63.7435 35.1302 63.6107 35.3306 63.599C35.3768 63.5922 35.4238 63.5957 35.4684 63.6093C35.513 63.6229 35.5541 63.6462 35.5886 63.6776C35.6231 63.709 35.6502 63.7476 35.6679 63.7908C35.6857 63.8339 35.6936 63.8804 35.6912 63.927C35.6979 63.9689 35.695 64.0118 35.6826 64.0523C35.6702 64.0929 35.6486 64.1301 35.6196 64.161C35.5905 64.192 35.5548 64.2158 35.5151 64.2308C35.4753 64.2457 35.4327 64.2513 35.3905 64.2472C35.194 64.2485 35.0703 64.1352 35.0703 64.0168Z" fill="#FFB000"/>
<path d="M35.6886 70.0614C35.1136 70.4891 34.5085 70.8749 33.8781 71.2159C33.5887 71.3723 33.2832 71.4971 32.967 71.5881C32.6898 71.6649 32.3787 71.6923 32.1171 71.5087C31.0758 70.7759 30.1712 69.9221 29.5738 68.7754C29.5336 68.708 29.5131 68.6306 29.5147 68.5522C29.5163 68.4737 29.54 68.3973 29.5829 68.3316C30.1143 67.3722 30.8534 66.5438 31.7461 65.9067C32.2433 65.5527 32.8798 65.5722 33.4174 65.9067C34.115 66.3349 34.8699 66.6955 35.5337 67.181C35.6871 67.2776 35.8198 67.4037 35.9242 67.5519C35.88 66.8608 35.9698 66.2594 35.3528 65.8234C34.8643 65.4832 34.4821 65.0116 34.2504 64.4632C34.162 64.2737 34.1197 64.0659 34.127 63.8569C34.1342 63.6479 34.1908 63.4436 34.292 63.2606C34.7762 62.3404 35.5025 61.6479 36.3407 61.0726C36.4948 60.9738 36.675 60.9237 36.858 60.9288C37.0409 60.9339 37.2181 60.994 37.3664 61.1012C38.1784 61.6302 38.8536 62.3438 39.337 63.1838C39.6298 63.7044 39.5817 64.2055 39.3057 64.704C39.0427 65.1697 38.6843 65.5747 38.2541 65.8924C38.0445 66.0499 37.887 66.2113 37.8636 66.4859C37.8402 66.7605 37.6905 66.9753 37.697 67.2408C37.697 67.3046 37.6696 67.3866 37.7373 67.427C37.805 67.4673 37.8597 67.4009 37.9117 67.3606C38.6576 66.7905 39.4932 66.344 40.3132 65.8885C40.9015 65.5618 41.5679 65.5553 42.1185 66.0186C42.8812 66.6694 43.5684 67.3905 44.0709 68.273C44.1249 68.3511 44.1556 68.443 44.1595 68.5379C44.1634 68.6328 44.1404 68.7269 44.093 68.8092C43.6582 69.6683 42.9866 70.3191 42.2929 70.9556C42.1419 71.0857 41.9805 71.2159 41.8191 71.346C41.3727 71.6936 40.8885 71.7157 40.3874 71.4892C39.6028 71.1535 38.8683 70.7111 38.2046 70.1746C38.1291 70.1121 38.0341 70.0015 37.9443 70.064C37.8545 70.1264 37.8389 71.3018 37.9625 71.5699C38.5131 72.3509 39.7457 72.8559 39.7457 74.4139C39.7366 74.6742 39.7092 74.7731 39.3956 74.6859C39.0014 74.5824 38.5964 74.526 38.189 74.518C37.6683 74.5024 37.3065 74.518 37.0306 74.1106C36.9004 73.9115 36.8158 73.8503 36.6687 74.0989C36.2457 74.8213 35.4973 74.5284 34.8075 74.5987C34.6147 74.6007 34.4234 74.6319 34.24 74.6911C33.9992 74.7926 33.8937 74.7158 33.8755 74.4425C33.8391 73.9349 34.0382 73.4884 34.2335 73.0537C34.4612 72.5487 35.125 72.0619 35.4791 71.622C35.8331 71.182 35.6782 70.6679 35.6886 70.0614Z" fill="#425CE6"/>
</g>
</g>
<g clip-path="url(#clip6_1_3408)" filter="url(#filter1_d_1_3408)">
<g clip-path="url(#clip7_1_3408)">
<path d="M80.4048 5.38092H28.0238V80.619H80.4048V5.38092Z" stroke="#CCCCCC" stroke-width="0.1875" stroke-miterlimit="10"/>
<path d="M40.1952 5.38092H28.0238V80.619H40.1952V5.38092Z" stroke="#CCCCCC" stroke-width="0.1875" stroke-miterlimit="10"/>
<path d="M40.1952 16.473H28.0238V18.6635H40.1952V16.473Z" stroke="#CCCCCC" stroke-width="0.1875" stroke-miterlimit="10"/>
<path d="M80.4048 78.4286H35.5032V80.6191H80.4048V78.4286Z" stroke="#CCCCCC" stroke-width="0.1875" stroke-miterlimit="10"/>
<path d="M78.5349 14.2825H40.1952V78.4286H78.5349V14.2825Z" stroke="#CCCCCC" stroke-width="0.1875" stroke-miterlimit="10"/>
<path d="M70.7095 20.0889H48.0206V69.2762H70.7095V20.0889Z" stroke="#CCCCCC" stroke-width="0.16875" stroke-miterlimit="10"/>
<path d="M48.0206 36.4857H70.7095" stroke="#CCCCCC" stroke-width="0.16875" stroke-miterlimit="10"/>
<path d="M48.0206 52.8794H70.7095" stroke="#CCCCCC" stroke-width="0.16875" stroke-miterlimit="10"/>
<path d="M48.0206 44.6826H70.7095" stroke="#CCCCCC" stroke-width="0.16875" stroke-miterlimit="10"/>
<path d="M59.3634 69.2762V20.0889" stroke="#CCCCCC" stroke-width="0.16875" stroke-miterlimit="10"/>
<path d="M70.7095 44.6825L59.3635 20.0889L48.0206 44.6825L59.3635 69.2762L70.7095 44.6825Z" stroke="#CCCCCC" stroke-width="0.16875" stroke-miterlimit="10"/>
<path d="M48.0206 20.0889L70.7095 36.4857" stroke="#CCCCCC" stroke-width="0.16875" stroke-miterlimit="10"/>
<path d="M48.0206 36.4857L70.7095 20.0889" stroke="#CCCCCC" stroke-width="0.16875" stroke-miterlimit="10"/>
<path d="M48.0206 36.4857L70.7095 52.8794" stroke="#CCCCCC" stroke-width="0.16875" stroke-miterlimit="10"/>
<path d="M48.0206 52.8794L70.7095 36.4857" stroke="#CCCCCC" stroke-width="0.16875" stroke-miterlimit="10"/>
<path d="M48.0206 52.8794L70.7095 69.2762" stroke="#CCCCCC" stroke-width="0.16875" stroke-miterlimit="10"/>
<path d="M48.0206 69.2762L70.7095 52.8794" stroke="#CCCCCC" stroke-width="0.16875" stroke-miterlimit="10"/>
<path d="M78.9762 3H29.4523C27.3484 3 25.6428 4.70558 25.6428 6.80952V79.1905C25.6428 81.2944 27.3484 83 29.4523 83H78.9762C81.0801 83 82.7857 81.2944 82.7857 79.1905V6.80952C82.7857 4.70558 81.0801 3 78.9762 3Z" fill="#FFF4D7"/>
</g>
<g clip-path="url(#clip8_1_3408)">
<path d="M34.6524 25.8191L38.0207 22.6889C38.1442 22.5748 38.2427 22.4363 38.3101 22.2823C38.3775 22.1282 38.4123 21.9618 38.4123 21.7937C38.4123 21.6255 38.3775 21.4592 38.3101 21.3051C38.2427 21.151 38.1442 21.0126 38.0207 20.8984L34.6524 17.7524C34.5881 17.6914 34.5029 17.6575 34.4143 17.6575C34.3257 17.6575 34.2405 17.6914 34.1762 17.7524L30.7921 20.8984C30.669 21.0128 30.5709 21.1514 30.5037 21.3054C30.4366 21.4594 30.402 21.6257 30.402 21.7937C30.402 21.9617 30.4366 22.1279 30.5037 22.282C30.5709 22.436 30.669 22.5745 30.7921 22.6889L34.1762 25.8191C34.2412 25.8786 34.3262 25.9117 34.4143 25.9117C34.5025 25.9117 34.5874 25.8786 34.6524 25.8191Z" fill="#EA8F00"/>
<path d="M34.4746 24.8921C33.7666 24.1333 33.0873 23.4032 32.4047 22.6698C32.2651 22.5206 32.119 22.3778 31.973 22.2381C31.8295 22.0643 31.7547 21.8438 31.7629 21.6185C31.7711 21.3933 31.8617 21.1788 32.0174 21.0159C32.7254 20.2889 33.4397 19.5619 34.1476 18.8222C34.1761 18.7763 34.2158 18.7384 34.263 18.7121C34.3102 18.6858 34.3634 18.672 34.4174 18.672C34.4715 18.672 34.5246 18.6858 34.5719 18.7121C34.6191 18.7384 34.6588 18.7763 34.6873 18.8222C35.4206 19.6476 36.1635 20.4698 36.8809 21.3079C37.1984 21.673 37.0905 21.9968 36.7286 22.381C36.0936 23.054 35.5 23.7619 34.8841 24.454C34.7666 24.5937 34.6397 24.7206 34.4746 24.8921Z" fill="#EA8F00"/>
</g>
<path d="M30.7634 15.1841L32.2872 13.2508C32.4743 13.7412 32.7414 14.1971 33.0777 14.6C33.1832 14.7258 33.3141 14.8279 33.4618 14.8996C33.6096 14.9712 33.7707 15.0109 33.9349 15.0159C34.0734 15.0241 34.212 14.9997 34.3394 14.9446C34.4667 14.8894 34.5794 14.8051 34.6682 14.6984C34.8582 14.428 34.951 14.1013 34.9317 13.7714C34.9452 13.2394 34.7478 12.7236 34.3825 12.3365C34.2078 12.1475 33.9949 11.9979 33.7579 11.8977C33.5208 11.7976 33.2651 11.7491 33.0079 11.7556C32.9222 11.7556 32.8269 11.7556 32.719 11.7714C32.611 11.7873 32.4682 11.8064 32.2968 11.8381L31.9253 11.1873L34.2142 8.29524H33.4936C33.0778 8.26209 32.6602 8.33187 32.2777 8.49842C32.0178 8.67885 31.8151 8.93005 31.6936 9.22223L31.0047 9.0127L32.0364 5.72382L32.8396 5.94921L32.773 6.31112H35.8872L36.246 7.4889L34.5888 9.68255C35.1766 9.86012 35.6876 10.2302 36.0396 10.7333C36.4026 11.2586 36.5894 11.8856 36.573 12.5238C36.58 13.5861 36.2124 14.6168 35.5349 15.4349C34.8428 16.2942 34.0534 16.7238 33.1666 16.7238C32.7009 16.724 32.2452 16.5883 31.8555 16.3333C31.4128 16.0336 31.0403 15.6415 30.7634 15.1841Z" fill="#EA8F00"/>
<g clip-path="url(#clip9_1_3408)">
<path d="M56.4598 30.5467C56.1268 30.5822 55.9589 30.3365 55.7664 30.1058C54.9473 29.1161 54.4641 27.9216 53.8553 26.8146C53.7673 26.6426 53.6438 26.4912 53.4929 26.3705C53.3421 26.2498 53.1673 26.1624 52.9802 26.1143C51.8472 25.7839 50.7825 25.2515 49.644 24.9512C49.461 24.8973 49.2919 24.8041 49.1485 24.6782C49.0218 24.5889 48.9308 24.4578 48.8913 24.308C48.8519 24.1582 48.8666 23.9992 48.9328 23.8592C49.1062 23.4182 49.4229 23.0852 49.7518 22.7671C50.6698 21.9128 51.7331 21.2295 52.8915 20.7495C53.3857 20.5352 53.6314 20.2171 53.7856 19.7162C54.1365 18.5722 54.6429 17.4993 55.5015 16.6338C56.1186 16.0127 56.8038 16.0127 57.4222 16.6338C58.2781 17.4993 58.7873 18.5736 59.1368 19.7162C59.2869 20.2008 59.519 20.5188 60.0022 20.7318C61.3359 21.3215 62.5781 22.0655 63.5596 23.1766C64.3527 24.0735 64.2108 24.6782 63.0709 25.0045C61.9761 25.3321 60.9455 25.8495 59.8411 26.1511C59.6782 26.1983 59.5272 26.2794 59.3978 26.389C59.2684 26.4986 59.1636 26.6343 59.0903 26.7873C58.4665 27.9066 57.9819 29.1079 57.1574 30.1112C56.8912 30.4361 56.7697 30.5426 56.4598 30.5467ZM55.821 18.2678C55.7814 18.1381 55.7363 18.003 55.563 17.9948C55.3896 17.9866 55.2627 18.0439 55.2545 18.2419C55.2545 18.4098 55.2927 18.5545 55.4824 18.5736C55.6722 18.5927 55.7595 18.4425 55.821 18.2678ZM57.3226 18.519C57.5109 18.519 57.5956 18.4221 57.5956 18.2337C57.5956 18.0453 57.515 17.9525 57.3499 17.9607C57.2723 17.9635 57.1988 17.9964 57.145 18.0525C57.0913 18.1085 57.0614 18.1833 57.0618 18.261C57.0578 18.2962 57.0619 18.3319 57.0737 18.3653C57.0855 18.3987 57.1047 18.429 57.13 18.4539C57.1553 18.4787 57.1858 18.4975 57.2195 18.5088C57.2531 18.5201 57.2888 18.5236 57.3239 18.519H57.3226Z" fill="#425CE6"/>
<path d="M55.821 18.2678C55.7596 18.4426 55.6845 18.5927 55.4824 18.5736C55.2804 18.5545 55.2477 18.4098 55.2545 18.2419C55.2627 18.044 55.391 17.9853 55.563 17.9948C55.735 18.0044 55.7814 18.1381 55.821 18.2678Z" fill="#425CE6"/>
<path d="M57.3226 18.519C57.2876 18.5233 57.252 18.5197 57.2186 18.5083C57.1852 18.4969 57.1548 18.4781 57.1297 18.4532C57.1046 18.4284 57.0854 18.3982 57.0737 18.3649C57.062 18.3316 57.0579 18.296 57.0619 18.261C57.0619 18.1826 57.0927 18.1074 57.1475 18.0515C57.2024 17.9956 57.2771 17.9634 57.3554 17.962C57.5206 17.9525 57.6025 18.0617 57.6011 18.235C57.5998 18.4084 57.5124 18.5176 57.3226 18.519Z" fill="#425CE6"/>
<path d="M57.0741 28.338C56.741 28.3735 56.5731 28.1278 56.3806 27.8971C55.5616 26.9074 55.0783 25.7129 54.4695 24.6045C54.3814 24.4335 54.2583 24.2829 54.1083 24.1625C53.9583 24.0421 53.7846 23.9546 53.5986 23.9056C52.4615 23.5752 51.4008 23.0428 50.2583 22.7425C50.0758 22.6906 49.9068 22.5998 49.7627 22.4763C49.6361 22.3871 49.545 22.256 49.5056 22.1061C49.4661 21.9563 49.4808 21.7974 49.547 21.6573C49.7204 21.215 50.0371 20.8833 50.3661 20.5652C51.2856 19.7093 52.3514 19.0255 53.5126 18.5463C54.0068 18.332 54.2525 18.0139 54.4067 17.5129C54.7535 16.369 55.2599 15.2947 56.1185 14.4306C56.7356 13.8094 57.4208 13.8094 58.0392 14.4306C58.8951 15.296 59.4043 16.3703 59.7537 17.5129C59.9039 17.9975 60.136 18.3156 60.6192 18.5285C61.9529 19.1182 63.1951 19.8622 64.1766 20.9734C64.9697 21.8702 64.8277 22.475 63.6879 22.8012C62.5863 23.1193 61.5597 23.6367 60.4554 23.9383C60.2925 23.9855 60.1414 24.0666 60.012 24.1762C59.8827 24.2858 59.7779 24.4215 59.7046 24.5745C59.0808 25.6938 58.5962 26.8951 57.7716 27.8984C57.5055 28.2274 57.384 28.3339 57.0741 28.338Z" fill="#FFB000"/>
</g>
<g clip-path="url(#clip10_1_3408)">
<path d="M56.4598 53.3721C56.1268 53.4076 55.9589 53.1619 55.7664 52.9312C54.9473 51.9415 54.4641 50.7471 53.8553 49.64C53.7673 49.468 53.6438 49.3166 53.4929 49.1959C53.3421 49.0752 53.1673 48.9878 52.9802 48.9397C51.8472 48.6093 50.7825 48.077 49.644 47.7766C49.461 47.7227 49.2919 47.6295 49.1485 47.5036C49.0218 47.4143 48.9308 47.2832 48.8913 47.1334C48.8519 46.9836 48.8666 46.8246 48.9328 46.6846C49.1062 46.2437 49.4229 45.9106 49.7518 45.5925C50.6698 44.7382 51.7331 44.0549 52.8915 43.5749C53.3857 43.3606 53.6314 43.0425 53.7856 42.5416C54.1365 41.3976 54.6429 40.3247 55.5015 39.4592C56.1186 38.8381 56.8038 38.8381 57.4222 39.4592C58.2781 40.3247 58.7873 41.399 59.1368 42.5416C59.2869 43.0262 59.519 43.3442 60.0022 43.5572C61.3359 44.1469 62.5781 44.8909 63.5596 46.002C64.3527 46.8989 64.2108 47.5036 63.0709 47.8299C61.9761 48.1575 60.9455 48.6749 59.8411 48.9765C59.6782 49.0237 59.5272 49.1048 59.3978 49.2144C59.2684 49.324 59.1636 49.4597 59.0903 49.6127C58.4665 50.732 57.9819 51.9333 57.1574 52.9366C56.8912 53.2615 56.7697 53.368 56.4598 53.3721ZM55.821 41.0932C55.7814 40.9635 55.7363 40.8284 55.563 40.8202C55.3896 40.812 55.2627 40.8693 55.2545 41.0673C55.2545 41.2352 55.2927 41.3799 55.4824 41.399C55.6722 41.4181 55.7595 41.2679 55.821 41.0932ZM57.3226 41.3444C57.5109 41.3444 57.5956 41.2475 57.5956 41.0591C57.5956 40.8707 57.515 40.7779 57.3499 40.7861C57.2723 40.7889 57.1988 40.8218 57.145 40.8779C57.0913 40.9339 57.0614 41.0087 57.0618 41.0864C57.0578 41.1216 57.0619 41.1573 57.0737 41.1907C57.0855 41.2241 57.1047 41.2544 57.13 41.2793C57.1553 41.3041 57.1858 41.3229 57.2195 41.3342C57.2531 41.3455 57.2888 41.349 57.3239 41.3444H57.3226Z" fill="#425CE6"/>
<path d="M55.821 41.0932C55.7596 41.2679 55.6845 41.4181 55.4824 41.399C55.2804 41.3799 55.2477 41.2352 55.2545 41.0673C55.2627 40.8693 55.391 40.8106 55.563 40.8202C55.735 40.8297 55.7814 40.9635 55.821 41.0932Z" fill="#425CE6"/>
<path d="M57.3226 41.3444C57.2876 41.3487 57.252 41.3451 57.2186 41.3337C57.1852 41.3223 57.1548 41.3035 57.1297 41.2786C57.1046 41.2538 57.0854 41.2236 57.0737 41.1903C57.062 41.157 57.0579 41.1215 57.0619 41.0864C57.0619 41.008 57.0927 40.9328 57.1475 40.8769C57.2024 40.821 57.2771 40.7888 57.3554 40.7874C57.5206 40.7779 57.6025 40.8871 57.6011 41.0604C57.5998 41.2338 57.5124 41.343 57.3226 41.3444Z" fill="#425CE6"/>
<path d="M57.0741 51.1634C56.741 51.1989 56.5731 50.9532 56.3806 50.7225C55.5616 49.7328 55.0783 48.5383 54.4695 47.4299C54.3814 47.2589 54.2583 47.1083 54.1083 46.9879C53.9583 46.8675 53.7846 46.78 53.5986 46.731C52.4615 46.4006 51.4008 45.8683 50.2583 45.5679C50.0758 45.516 49.9068 45.4252 49.7627 45.3017C49.6361 45.2125 49.545 45.0814 49.5056 44.9315C49.4661 44.7817 49.4808 44.6228 49.547 44.4827C49.7204 44.0404 50.0371 43.7087 50.3661 43.3906C51.2856 42.5347 52.3514 41.8509 53.5126 41.3717C54.0068 41.1574 54.2525 40.8393 54.4067 40.3383C54.7535 39.1944 55.2599 38.1201 56.1185 37.256C56.7356 36.6349 57.4208 36.6349 58.0392 37.256C58.8951 38.1214 59.4043 39.1957 59.7537 40.3383C59.9039 40.8229 60.136 41.141 60.6192 41.3539C61.9529 41.9436 63.1951 42.6876 64.1766 43.7988C64.9697 44.6956 64.8277 45.3004 63.6879 45.6266C62.5863 45.9447 61.5597 46.4621 60.4554 46.7637C60.2925 46.8109 60.1414 46.892 60.012 47.0016C59.8827 47.1112 59.7779 47.2469 59.7046 47.3999C59.0808 48.5192 58.5962 49.7205 57.7716 50.7238C57.5055 51.0528 57.384 51.1593 57.0741 51.1634Z" fill="#FFB000"/>
</g>
<g clip-path="url(#clip11_1_3408)">
<path d="M56.4598 77.3308C56.1268 77.3663 55.9589 77.1206 55.7664 76.8899C54.9473 75.9002 54.4641 74.7058 53.8553 73.5987C53.7673 73.4267 53.6438 73.2753 53.4929 73.1546C53.3421 73.0339 53.1673 72.9466 52.9802 72.8984C51.8472 72.568 50.7825 72.0357 49.644 71.7353C49.461 71.6814 49.2919 71.5882 49.1485 71.4623C49.0218 71.3731 48.9308 71.242 48.8913 71.0921C48.8519 70.9423 48.8666 70.7834 48.9328 70.6433C49.1062 70.2024 49.4229 69.8693 49.7518 69.5512C50.6698 68.6969 51.7331 68.0137 52.8915 67.5336C53.3857 67.3193 53.6314 67.0013 53.7856 66.5003C54.1365 65.3563 54.6429 64.2834 55.5015 63.4179C56.1186 62.7968 56.8038 62.7968 57.4222 63.4179C58.2781 64.2834 58.7873 65.3577 59.1368 66.5003C59.2869 66.9849 59.519 67.3029 60.0022 67.5159C61.3359 68.1056 62.5781 68.8496 63.5596 69.9607C64.3527 70.8576 64.2108 71.4623 63.0709 71.7886C61.9761 72.1162 60.9455 72.6336 59.8411 72.9353C59.6782 72.9824 59.5272 73.0635 59.3978 73.1731C59.2684 73.2827 59.1636 73.4185 59.0903 73.5714C58.4665 74.6907 57.9819 75.892 57.1574 76.8953C56.8912 77.2202 56.7697 77.3267 56.4598 77.3308ZM55.821 65.0519C55.7814 64.9222 55.7363 64.7871 55.563 64.7789C55.3896 64.7707 55.2627 64.828 55.2545 65.026C55.2545 65.1939 55.2927 65.3386 55.4824 65.3577C55.6722 65.3768 55.7595 65.2267 55.821 65.0519ZM57.3226 65.3031C57.5109 65.3031 57.5956 65.2062 57.5956 65.0178C57.5956 64.8294 57.515 64.7366 57.3499 64.7448C57.2723 64.7476 57.1988 64.7805 57.145 64.8366C57.0913 64.8927 57.0614 64.9674 57.0618 65.0451C57.0578 65.0803 57.0619 65.116 57.0737 65.1494C57.0855 65.1828 57.1047 65.2131 57.13 65.238C57.1553 65.2628 57.1858 65.2816 57.2195 65.2929C57.2531 65.3042 57.2888 65.3077 57.3239 65.3031H57.3226Z" fill="#425CE6"/>
<path d="M55.821 65.0519C55.7596 65.2266 55.6845 65.3768 55.4824 65.3577C55.2804 65.3386 55.2477 65.1939 55.2545 65.026C55.2627 64.828 55.391 64.7693 55.563 64.7789C55.735 64.7885 55.7814 64.9222 55.821 65.0519Z" fill="#425CE6"/>
<path d="M57.3226 65.3031C57.2876 65.3075 57.252 65.3038 57.2186 65.2924C57.1852 65.281 57.1548 65.2622 57.1297 65.2374C57.1046 65.2125 57.0854 65.1823 57.0737 65.149C57.062 65.1157 57.0579 65.0802 57.0619 65.0451C57.0619 64.9668 57.0927 64.8915 57.1475 64.8356C57.2024 64.7797 57.2771 64.7476 57.3554 64.7462C57.5206 64.7366 57.6025 64.8458 57.6011 65.0192C57.5998 65.1925 57.5124 65.3017 57.3226 65.3031Z" fill="#425CE6"/>
<path d="M57.0741 75.1221C56.741 75.1576 56.5731 74.9119 56.3806 74.6812C55.5616 73.6915 55.0783 72.4971 54.4695 71.3886C54.3814 71.2176 54.2583 71.067 54.1083 70.9466C53.9583 70.8262 53.7846 70.7387 53.5986 70.6897C52.4615 70.3593 51.4008 69.827 50.2583 69.5266C50.0758 69.4747 49.9068 69.3839 49.7627 69.2605C49.6361 69.1712 49.545 69.0401 49.5056 68.8902C49.4661 68.7404 49.4808 68.5815 49.547 68.4414C49.7204 67.9991 50.0371 67.6674 50.3661 67.3493C51.2856 66.4934 52.3514 65.8096 53.5126 65.3304C54.0068 65.1161 54.2525 64.798 54.4067 64.297C54.7535 63.1531 55.2599 62.0788 56.1185 61.2147C56.7356 60.5936 57.4208 60.5936 58.0392 61.2147C58.8951 62.0801 59.4043 63.1545 59.7537 64.297C59.9039 64.7816 60.136 65.0997 60.6192 65.3126C61.9529 65.9024 63.1951 66.6463 64.1766 67.7575C64.9697 68.6544 64.8277 69.2591 63.6879 69.5853C62.5863 69.9034 61.5597 70.4208 60.4554 70.7225C60.2925 70.7696 60.1414 70.8507 60.012 70.9603C59.8827 71.0699 59.7779 71.2057 59.7046 71.3586C59.0808 72.4779 58.5962 73.6792 57.7716 74.6825C57.5055 75.0115 57.384 75.118 57.0741 75.1221Z" fill="#FFB000"/>
</g>
</g>
<g clip-path="url(#clip12_1_3408)" filter="url(#filter2_d_1_3408)">
<g clip-path="url(#clip13_1_3408)">
<path d="M100.048 5.38092H47.6667V80.619H100.048V5.38092Z" stroke="#CCCCCC" stroke-width="0.1875" stroke-miterlimit="10"/>
<path d="M59.8382 5.38092H47.6667V80.619H59.8382V5.38092Z" stroke="#CCCCCC" stroke-width="0.1875" stroke-miterlimit="10"/>
<path d="M59.8382 16.473H47.6667V18.6635H59.8382V16.473Z" stroke="#CCCCCC" stroke-width="0.1875" stroke-miterlimit="10"/>
<path d="M100.048 78.4286H55.1461V80.6191H100.048V78.4286Z" stroke="#CCCCCC" stroke-width="0.1875" stroke-miterlimit="10"/>
<path d="M98.1778 14.2825H59.8381V78.4286H98.1778V14.2825Z" stroke="#CCCCCC" stroke-width="0.1875" stroke-miterlimit="10"/>
<path d="M90.3525 20.0889H67.6636V69.2762H90.3525V20.0889Z" stroke="#CCCCCC" stroke-width="0.16875" stroke-miterlimit="10"/>
<path d="M67.6636 36.4857H90.3525" stroke="#CCCCCC" stroke-width="0.16875" stroke-miterlimit="10"/>
<path d="M67.6636 52.8794H90.3525" stroke="#CCCCCC" stroke-width="0.16875" stroke-miterlimit="10"/>
<path d="M67.6636 44.6826H90.3525" stroke="#CCCCCC" stroke-width="0.16875" stroke-miterlimit="10"/>
<path d="M79.0065 69.2762V20.0889" stroke="#CCCCCC" stroke-width="0.16875" stroke-miterlimit="10"/>
<path d="M90.3525 44.6825L79.0064 20.0889L67.6636 44.6825L79.0064 69.2762L90.3525 44.6825Z" stroke="#CCCCCC" stroke-width="0.16875" stroke-miterlimit="10"/>
<path d="M67.6636 20.0889L90.3525 36.4857" stroke="#CCCCCC" stroke-width="0.16875" stroke-miterlimit="10"/>
<path d="M67.6636 36.4857L90.3525 20.0889" stroke="#CCCCCC" stroke-width="0.16875" stroke-miterlimit="10"/>
<path d="M67.6636 36.4857L90.3525 52.8794" stroke="#CCCCCC" stroke-width="0.16875" stroke-miterlimit="10"/>
<path d="M67.6636 52.8794L90.3525 36.4857" stroke="#CCCCCC" stroke-width="0.16875" stroke-miterlimit="10"/>
<path d="M67.6636 52.8794L90.3525 69.2762" stroke="#CCCCCC" stroke-width="0.16875" stroke-miterlimit="10"/>
<path d="M67.6636 69.2762L90.3525 52.8794" stroke="#CCCCCC" stroke-width="0.16875" stroke-miterlimit="10"/>
<path d="M98.6191 3H49.0953C46.9913 3 45.2858 4.70558 45.2858 6.80952V79.1905C45.2858 81.2944 46.9913 83 49.0953 83H98.6191C100.723 83 102.429 81.2944 102.429 79.1905V6.80952C102.429 4.70558 100.723 3 98.6191 3Z" fill="#FFF4D7"/>
</g>
<g clip-path="url(#clip14_1_3408)">
<path d="M58.2763 20.8635L56.2763 18.0063C56.2435 17.959 56.2018 17.9186 56.1535 17.8874C56.1051 17.8562 56.0511 17.8349 55.9945 17.8245C55.9379 17.8142 55.8798 17.8152 55.8236 17.8273C55.7674 17.8394 55.7141 17.8625 55.6667 17.8952L54.454 18.7333C54.3374 18.8139 54.199 18.857 54.0572 18.857C53.9155 18.857 53.777 18.8139 53.6604 18.7333L52.4509 17.8952C52.3552 17.8287 52.2371 17.8026 52.1223 17.8229C52.0075 17.8431 51.9053 17.9079 51.8382 18.0032L49.8413 20.8635C49.7845 20.9458 49.7573 21.045 49.7642 21.1448C49.7712 21.2445 49.8118 21.339 49.8794 21.4127L53.7334 25.6095C53.7743 25.6525 53.8236 25.6868 53.8781 25.7102C53.9327 25.7336 53.9915 25.7457 54.0509 25.7457C54.1102 25.7457 54.169 25.7336 54.2236 25.7102C54.2782 25.6868 54.3274 25.6525 54.3683 25.6095L58.2382 21.4127C58.3058 21.339 58.3464 21.2445 58.3534 21.1448C58.3603 21.045 58.3331 20.9458 58.2763 20.8635Z" fill="#EA8F00"/>
<path d="M54.1588 24.6635C54.0464 24.6143 53.9399 24.5525 53.8413 24.4793L51.0318 21.6603C50.971 21.6092 50.9215 21.546 50.8863 21.4748C50.8512 21.4035 50.8312 21.3258 50.8276 21.2464C50.824 21.1671 50.8369 21.0878 50.8655 21.0137C50.8941 20.9396 50.9378 20.8722 50.9937 20.8159C51.3493 20.3301 51.7143 19.8317 52.0794 19.3492C52.1494 19.2504 52.2431 19.1707 52.3519 19.1175C52.4607 19.0643 52.5811 19.0392 52.7021 19.0446C52.8231 19.05 52.9408 19.0856 53.0444 19.1482C53.148 19.2109 53.2343 19.2985 53.2953 19.4032C53.4888 19.6239 53.7096 19.8191 53.9524 19.9841C54.0191 20.0317 54.2128 19.9841 54.2953 19.9143C54.6175 19.6603 54.9209 19.3833 55.2032 19.0857C55.4889 18.7682 55.7302 18.873 55.9302 19.127C56.3778 19.692 56.8001 20.2698 57.2159 20.8571C57.2512 20.9121 57.2735 20.9744 57.2812 21.0393C57.2889 21.1042 57.2818 21.17 57.2604 21.2317C57.0279 21.5924 56.7701 21.9362 56.4889 22.2603C56.2096 22.5778 55.8921 22.8666 55.5905 23.1651C55.2889 23.4635 54.8985 23.8381 54.562 24.1809C54.4223 24.3365 54.3016 24.4984 54.1588 24.6635Z" fill="#EA8F00"/>
</g>
<path d="M50.4064 15.1841L51.9302 13.2476C52.1165 13.7393 52.3837 14.1964 52.7207 14.6C52.8262 14.7258 52.9571 14.8279 53.1048 14.8996C53.2525 14.9712 53.4137 15.0109 53.5778 15.0159C53.7164 15.0241 53.8549 14.9997 53.9823 14.9446C54.1097 14.8894 54.2223 14.8051 54.3111 14.6984C54.5011 14.428 54.594 14.1013 54.5746 13.7714C54.5882 13.2394 54.3907 12.7236 54.0254 12.3365C53.8508 12.1475 53.6378 11.9979 53.4008 11.8977C53.1638 11.7976 52.9081 11.7491 52.6508 11.7556C52.5651 11.7556 52.4699 11.7556 52.3619 11.7714C52.254 11.7873 52.1111 11.8064 51.9397 11.8381L51.5683 11.1873L53.8572 8.29524H53.1365C52.7207 8.26209 52.3031 8.33187 51.9207 8.49842C51.6607 8.67885 51.458 8.93005 51.3365 9.22223L50.6476 9.01271L51.6794 5.72382L52.4826 5.94921L52.4159 6.31112H55.5302L55.8889 7.4889L54.2318 9.68255C54.8196 9.86012 55.3306 10.2302 55.6826 10.7333C56.0458 11.2585 56.2326 11.8855 56.2159 12.5238C56.2234 13.5871 55.8558 14.619 55.1778 15.4381C54.4857 16.2974 53.6963 16.727 52.8095 16.727C52.3435 16.7262 51.8878 16.5894 51.4984 16.3333C51.0558 16.0336 50.6832 15.6415 50.4064 15.1841Z" fill="#EA8F00"/>
<g clip-path="url(#clip15_1_3408)">
<path d="M68.4527 19.426C68.6356 18.6336 70.2953 16.7403 71.028 16.2514C71.6045 15.8705 72.3753 15.8451 73.0432 16.0521C73.6117 16.223 74.1689 16.4291 74.7118 16.6692C74.7875 16.7153 74.8731 16.7425 74.9616 16.7485C75.05 16.7545 75.1385 16.739 75.2197 16.7035C75.859 16.4267 76.5127 16.1842 77.1778 15.9771C77.7378 15.8019 78.2496 15.7841 78.7969 16.1587C79.9753 16.9676 80.7727 17.7905 81.4496 19.1594C81.8305 19.8082 81.4737 20.8279 81.2058 21.3092C80.4997 22.579 76.4502 25.6381 76.0959 25.9657C75.8762 26.1714 75.2337 28.5841 75.1626 28.894C75.1296 29.0425 75.094 29.1822 74.9708 29.1924C74.807 29.2051 74.7893 29.0032 74.7677 28.8889C74.5073 27.4603 74.1442 26.2616 73.828 25.8882C73.5118 25.5149 69.4737 22.527 68.8451 21.3727C68.3981 20.612 68.2966 20.0978 68.4527 19.426Z" fill="#425CE6"/>
<path d="M70.2699 16.6565C70.454 15.8642 72.1137 13.9696 72.8464 13.4819C73.4229 13.1061 74.1924 13.0807 74.8604 13.2876C75.4292 13.4588 75.9868 13.6649 76.5302 13.9048C76.606 13.9506 76.6917 13.9777 76.78 13.9836C76.8684 13.9896 76.9569 13.9743 77.0382 13.9391C77.679 13.6625 78.3338 13.4196 79.0001 13.2115C79.5588 13.0375 80.0731 13.0197 80.6204 13.3943C81.7937 14.1981 82.5912 15.0248 83.268 16.3937C83.6489 17.0426 83.2921 18.061 83.0242 18.5422C82.3182 19.8045 78.2686 22.8699 77.908 23.1962C77.6858 23.4007 77.047 25.8108 76.9759 26.1245C76.9429 26.273 76.9074 26.4115 76.7829 26.4216C76.6204 26.4356 76.6026 26.2337 76.581 26.1194C76.3245 24.6896 75.9626 23.4921 75.6464 23.1238C75.3302 22.7556 71.2921 19.7575 70.6699 18.6032C70.2166 17.8426 70.115 17.327 70.2699 16.6565Z" fill="#FFB000"/>
</g>
<g clip-path="url(#clip16_1_3408)">
<path d="M68.4527 42.9466C68.6356 42.1543 70.2953 40.2609 71.028 39.772C71.6045 39.3911 72.3753 39.3657 73.0432 39.5727C73.6117 39.7436 74.1689 39.9497 74.7118 40.1898C74.7875 40.236 74.8731 40.2632 74.9616 40.2691C75.05 40.2751 75.1385 40.2597 75.2197 40.2241C75.859 39.9473 76.5127 39.7049 77.1778 39.4978C77.7378 39.3225 78.2496 39.3047 78.7969 39.6793C79.9753 40.4882 80.7727 41.3111 81.4496 42.68C81.8305 43.3289 81.4737 44.3486 81.2058 44.8298C80.4997 46.0997 76.4502 49.1587 76.0959 49.4863C75.8762 49.692 75.2337 52.1047 75.1626 52.4146C75.1296 52.5632 75.094 52.7028 74.9708 52.713C74.807 52.7257 74.7893 52.5238 74.7677 52.4095C74.5073 50.9809 74.1442 49.7822 73.828 49.4089C73.5118 49.0355 69.4737 46.0476 68.8451 44.8933C68.3981 44.1327 68.2966 43.6184 68.4527 42.9466Z" fill="#425CE6"/>
<path d="M70.2699 40.1771C70.454 39.3848 72.1137 37.4902 72.8464 37.0025C73.4229 36.6267 74.1924 36.6013 74.8604 36.8082C75.4292 36.9794 75.9868 37.1855 76.5302 37.4254C76.606 37.4712 76.6917 37.4983 76.78 37.5042C76.8684 37.5102 76.9569 37.4949 77.0382 37.4597C77.679 37.1831 78.3338 36.9402 79.0001 36.7321C79.5588 36.5581 80.0731 36.5403 80.6204 36.9149C81.7937 37.7187 82.5912 38.5454 83.268 39.9143C83.6489 40.5632 83.2921 41.5816 83.0242 42.0628C82.3182 43.3251 78.2686 46.3905 77.908 46.7168C77.6858 46.9213 77.047 49.3314 76.9759 49.6451C76.9429 49.7936 76.9074 49.9321 76.7829 49.9422C76.6204 49.9562 76.6026 49.7543 76.581 49.64C76.3245 48.2102 75.9626 47.0127 75.6464 46.6444C75.3302 46.2762 71.2921 43.2781 70.6699 42.1238C70.2166 41.3632 70.115 40.8476 70.2699 40.1771Z" fill="#FFB000"/>
</g>
<g clip-path="url(#clip17_1_3408)">
<path d="M68.4527 66.4641C68.6356 65.6718 70.2953 63.7784 71.028 63.2895C71.6045 62.9086 72.3753 62.8832 73.0432 63.0902C73.6117 63.2611 74.1689 63.4672 74.7118 63.7073C74.7875 63.7534 74.8731 63.7806 74.9616 63.7866C75.05 63.7926 75.1385 63.7771 75.2197 63.7416C75.859 63.4648 76.5127 63.2224 77.1778 63.0152C77.7378 62.84 78.2496 62.8222 78.7969 63.1968C79.9753 64.0057 80.7727 64.8286 81.4496 66.1975C81.8305 66.8464 81.4737 67.866 81.2058 68.3473C80.4997 69.6171 76.4502 72.6762 76.0959 73.0038C75.8762 73.2095 75.2337 75.6222 75.1626 75.9321C75.1296 76.0806 75.094 76.2203 74.9708 76.2305C74.807 76.2432 74.7893 76.0413 74.7677 75.927C74.5073 74.4984 74.1442 73.2997 73.828 72.9264C73.5118 72.553 69.4737 69.5651 68.8451 68.4108C68.3981 67.6502 68.2966 67.1359 68.4527 66.4641Z" fill="#425CE6"/>
<path d="M70.2699 63.6946C70.454 62.9022 72.1137 61.0076 72.8464 60.52C73.4229 60.1441 74.1924 60.1187 74.8604 60.3257C75.4292 60.4968 75.9868 60.7029 76.5302 60.9428C76.606 60.9887 76.6917 61.0157 76.78 61.0217C76.8684 61.0276 76.9569 61.0124 77.0382 60.9771C77.679 60.7005 78.3338 60.4577 79.0001 60.2495C79.5588 60.0755 80.0731 60.0578 80.6204 60.4324C81.7937 61.2362 82.5912 62.0628 83.268 63.4317C83.6489 64.0806 83.2921 65.099 83.0242 65.5803C82.3182 66.8425 78.2686 69.9079 77.908 70.2343C77.6858 70.4387 77.047 72.8489 76.9759 73.1625C76.9429 73.3111 76.9074 73.4495 76.7829 73.4597C76.6204 73.4736 76.6026 73.2717 76.581 73.1574C76.3245 71.7276 75.9626 70.5301 75.6464 70.1619C75.3302 69.7936 71.2921 66.7955 70.6699 65.6413C70.2166 64.8806 70.115 64.3651 70.2699 63.6946Z" fill="#FFB000"/>
</g>
</g>
<g clip-path="url(#clip18_1_3408)" filter="url(#filter3_d_1_3408)">
<g clip-path="url(#clip19_1_3408)">
<path d="M119.691 5.38092H67.3096V80.619H119.691V5.38092Z" stroke="#CCCCCC" stroke-width="0.1875" stroke-miterlimit="10"/>
<path d="M79.481 5.38092H67.3096V80.619H79.481V5.38092Z" stroke="#CCCCCC" stroke-width="0.1875" stroke-miterlimit="10"/>
<path d="M79.481 16.473H67.3096V18.6635H79.481V16.473Z" stroke="#CCCCCC" stroke-width="0.1875" stroke-miterlimit="10"/>
<path d="M119.691 78.4286H74.7889V80.6191H119.691V78.4286Z" stroke="#CCCCCC" stroke-width="0.1875" stroke-miterlimit="10"/>
<path d="M117.821 14.2825H79.481V78.4286H117.821V14.2825Z" stroke="#CCCCCC" stroke-width="0.1875" stroke-miterlimit="10"/>
<path d="M109.995 20.0889H87.3064V69.2762H109.995V20.0889Z" stroke="#CCCCCC" stroke-width="0.16875" stroke-miterlimit="10"/>
<path d="M87.3064 36.4857H109.995" stroke="#CCCCCC" stroke-width="0.16875" stroke-miterlimit="10"/>
<path d="M87.3064 52.8794H109.995" stroke="#CCCCCC" stroke-width="0.16875" stroke-miterlimit="10"/>
<path d="M87.3064 44.6826H109.995" stroke="#CCCCCC" stroke-width="0.16875" stroke-miterlimit="10"/>
<path d="M98.6493 69.2762V20.0889" stroke="#CCCCCC" stroke-width="0.16875" stroke-miterlimit="10"/>
<path d="M109.995 44.6825L98.6493 20.0889L87.3064 44.6825L98.6493 69.2762L109.995 44.6825Z" stroke="#CCCCCC" stroke-width="0.16875" stroke-miterlimit="10"/>
<path d="M87.3064 20.0889L109.995 36.4857" stroke="#CCCCCC" stroke-width="0.16875" stroke-miterlimit="10"/>
<path d="M87.3064 36.4857L109.995 20.0889" stroke="#CCCCCC" stroke-width="0.16875" stroke-miterlimit="10"/>
<path d="M87.3064 36.4857L109.995 52.8794" stroke="#CCCCCC" stroke-width="0.16875" stroke-miterlimit="10"/>
<path d="M87.3064 52.8794L109.995 36.4857" stroke="#CCCCCC" stroke-width="0.16875" stroke-miterlimit="10"/>
<path d="M87.3064 52.8794L109.995 69.2762" stroke="#CCCCCC" stroke-width="0.16875" stroke-miterlimit="10"/>
<path d="M87.3064 69.2762L109.995 52.8794" stroke="#CCCCCC" stroke-width="0.16875" stroke-miterlimit="10"/>
<path d="M118.262 3H68.7381C66.6342 3 64.9286 4.70558 64.9286 6.80952V79.1905C64.9286 81.2944 66.6342 83 68.7381 83H118.262C120.366 83 122.071 81.2944 122.071 79.1905V6.80952C122.071 4.70558 120.366 3 118.262 3Z" fill="#FFF4D7"/>
</g>
<g clip-path="url(#clip20_1_3408)">
<path d="M73.7191 25.9111H74.8016C74.8567 25.9088 74.9105 25.8936 74.9587 25.8667C75.0069 25.8399 75.0481 25.802 75.0789 25.7563C75.1098 25.7106 75.1295 25.6583 75.1365 25.6036C75.1435 25.5489 75.1375 25.4933 75.1191 25.4413L74.3984 23.4381C74.3854 23.4016 74.3835 23.362 74.3932 23.3245C74.4028 23.287 74.4235 23.2532 74.4526 23.2275C74.4817 23.2019 74.5178 23.1856 74.5562 23.1806C74.5947 23.1757 74.6337 23.1825 74.6683 23.2L76.0778 23.9175C76.1764 23.9672 76.2892 23.981 76.397 23.9567C76.5047 23.9324 76.6006 23.8714 76.6683 23.7841L78.0334 22.0318C78.1037 21.9377 78.1371 21.8211 78.1271 21.704C78.1172 21.587 78.0646 21.4777 77.9794 21.3968L74.0683 17.8C73.9682 17.7083 73.8374 17.6575 73.7016 17.6575C73.5659 17.6575 73.4351 17.7083 73.335 17.8L69.427 21.3905C69.3416 21.4714 69.2892 21.581 69.2798 21.6982C69.2705 21.8154 69.3048 21.932 69.3762 22.0254L70.7413 23.7778C70.8081 23.8653 70.9034 23.9266 71.0108 23.9509C71.1181 23.9753 71.2306 23.9612 71.3286 23.9111L72.7381 23.1937C72.7727 23.1761 72.8117 23.1694 72.8502 23.1743C72.8886 23.1792 72.9247 23.1955 72.9538 23.2212C72.9829 23.2468 73.0036 23.2806 73.0132 23.3182C73.0229 23.3557 73.0211 23.3953 73.008 23.4318L72.2873 25.4413C72.2689 25.4933 72.2629 25.5489 72.2699 25.6036C72.2769 25.6583 72.2966 25.7106 72.3275 25.7563C72.3584 25.802 72.3995 25.8399 72.4477 25.8667C72.4959 25.8936 72.5497 25.9088 72.6048 25.9111H73.7191Z" fill="#425CE6"/>
</g>
<path d="M70.0492 15.1841L71.573 13.2508C71.76 13.7412 72.0272 14.1971 72.3635 14.6C72.469 14.7258 72.5999 14.8279 72.7476 14.8996C72.8953 14.9712 73.0565 15.0109 73.2206 15.0159C73.3592 15.0241 73.4977 14.9997 73.6251 14.9446C73.7525 14.8894 73.8651 14.8051 73.954 14.6984C74.1439 14.428 74.2368 14.1013 74.2174 13.7714C74.231 13.2394 74.0336 12.7236 73.6682 12.3365C73.4936 12.1475 73.2807 11.9979 73.0436 11.8977C72.8066 11.7976 72.5509 11.7491 72.2936 11.7556C72.2079 11.7556 72.1127 11.7556 72.0048 11.7714C71.8968 11.7873 71.754 11.8064 71.5825 11.8381L71.2111 11.1873L73.5 8.29524H72.7794C72.3635 8.26209 71.9459 8.33187 71.5635 8.49842C71.3035 8.67885 71.1008 8.93005 70.9794 9.22223L70.2905 9.0127L71.3222 5.72382L72.1254 5.94921L72.0587 6.31112H75.173L75.5317 7.49207L73.8746 9.68255C74.4624 9.86012 74.9734 10.2302 75.3254 10.7333C75.6884 11.2586 75.8752 11.8856 75.8587 12.5238C75.8657 13.5861 75.4982 14.6168 74.8206 15.4349C74.1286 16.2942 73.3391 16.7238 72.4524 16.7238C71.9867 16.724 71.531 16.5883 71.1413 16.3333C70.6986 16.0336 70.326 15.6415 70.0492 15.1841Z" fill="#425CE6"/>
<g clip-path="url(#clip21_1_3408)">
<path d="M98.2104 24.5132C97.461 24.5484 96.8009 24.2477 96.1325 23.9694C96.0386 23.9306 95.934 23.8225 95.8447 23.9059C95.7555 23.9893 95.813 24.0997 95.8377 24.2055C95.9298 24.6294 96.1246 25.0243 96.405 25.3554C96.6824 25.7011 96.9064 26.0863 97.0699 26.4983C97.3048 27.0186 97.4222 27.4591 97.4081 28.0253C97.4081 28.2249 97.232 28.4411 97.0558 28.2602C97.005 28.2136 96.945 28.1782 96.8796 28.1566C96.8142 28.1349 96.7449 28.1274 96.6764 28.1345C94.999 28.1345 95.0319 27.6647 94.6678 27.6647C94.2837 27.6647 94.158 28.064 92.7884 28.064C92.6544 28.09 92.5244 28.1339 92.402 28.1944C92.1506 28.3295 91.9862 28.2414 91.9944 27.9513C92.0226 27.0574 92.2622 26.2269 92.8166 25.5128C93.0289 25.2102 93.225 24.8965 93.4039 24.5731C93.4737 24.4522 93.5139 24.3166 93.5214 24.1773C93.5543 23.7955 93.5402 23.7873 93.1819 23.9177L91.9051 24.391C91.2474 24.626 90.6131 24.4498 89.9941 24.2489C88.951 23.9083 88.2556 23.1918 87.9972 22.1194C87.9534 21.9078 87.9553 21.6894 88.0029 21.4787C88.0505 21.2679 88.1427 21.0699 88.2733 20.8978C89.1542 19.6445 90.2419 18.5873 91.4318 17.6382C92.1776 17.0415 92.9317 16.4566 93.7305 15.9327C94.6572 15.3255 94.6701 15.3114 95.5206 15.894C96.8467 16.7939 98.1092 17.7841 99.2993 18.8575C100.014 19.5092 100.641 20.252 101.162 21.0669C101.397 21.4287 101.397 21.8645 101.314 22.2815C101.157 23.0168 100.783 23.59 100.096 23.9553C99.5001 24.2712 98.9058 24.552 98.2104 24.5132Z" fill="#FFB000"/>
<path d="M99.3321 23.1683C98.5827 23.2023 97.9226 22.9016 97.2542 22.6233C97.1603 22.5845 97.0569 22.4776 96.9664 22.5598C96.876 22.6421 96.9359 22.7536 96.9594 22.8594C97.0525 23.283 97.2472 23.6777 97.5267 24.0093C97.8044 24.355 98.0289 24.7402 98.1927 25.1522C98.4276 25.6737 98.5451 26.113 98.531 26.6792C98.531 26.8788 98.3536 27.095 98.1786 26.9141C98.128 26.8673 98.0679 26.8319 98.0025 26.8102C97.9371 26.7886 97.8678 26.7811 97.7992 26.7884C96.1219 26.7884 96.1548 26.3186 95.7907 26.3186C95.4066 26.3186 95.2809 26.7191 93.9113 26.7191C93.7775 26.744 93.6478 26.7875 93.526 26.8483C93.2735 26.9834 93.109 26.8953 93.1184 26.6052C93.1455 25.7113 93.3851 24.8808 93.9407 24.1667C94.1528 23.864 94.3489 23.5504 94.528 23.227C94.5975 23.1065 94.6377 22.9713 94.6454 22.8323C94.6771 22.4506 94.6642 22.4412 94.306 22.5716C93.8831 22.7255 93.4591 22.8758 93.035 23.0285C92.3773 23.2634 91.743 23.0872 91.1228 22.8864C90.0797 22.5457 89.3844 21.8292 89.1318 20.7568C89.0877 20.5454 89.0894 20.3269 89.1368 20.1162C89.1843 19.9055 89.2763 19.7074 89.4067 19.5352C90.283 18.2772 91.3706 17.2283 92.5617 16.2757C93.3005 15.6978 94.0546 15.1128 94.8533 14.5937C95.7789 13.9876 95.793 13.9735 96.6423 14.5561C97.967 15.4542 99.2284 16.4424 100.417 17.5137C101.134 18.1654 101.762 18.9082 102.285 19.7232C102.52 20.0849 102.52 20.5207 102.437 20.9377C102.28 21.673 101.904 22.2462 101.217 22.6115C100.623 22.9334 100.027 23.2082 99.3321 23.1683Z" fill="#425CE6"/>
</g>
<g clip-path="url(#clip22_1_3408)">
<path d="M98.2104 48.0338C97.461 48.0691 96.8009 47.7684 96.1325 47.49C96.0386 47.4512 95.934 47.3432 95.8447 47.4266C95.7555 47.51 95.813 47.6204 95.8377 47.7261C95.9298 48.1501 96.1246 48.545 96.405 48.876C96.6824 49.2217 96.9064 49.6069 97.0699 50.0189C97.3048 50.5393 97.4222 50.9797 97.4081 51.5459C97.4081 51.7456 97.232 51.9617 97.0558 51.7808C97.005 51.7342 96.945 51.6989 96.8796 51.6772C96.8142 51.6555 96.7449 51.648 96.6764 51.6551C94.999 51.6551 95.0319 51.1853 94.6678 51.1853C94.2837 51.1853 94.158 51.5847 92.7884 51.5847C92.6544 51.6106 92.5244 51.6545 92.402 51.715C92.1506 51.8501 91.9862 51.762 91.9944 51.4719C92.0226 50.578 92.2622 49.7476 92.8166 49.0334C93.0289 48.7308 93.225 48.4172 93.4039 48.0937C93.4737 47.9729 93.5139 47.8372 93.5214 47.6979C93.5543 47.3161 93.5402 47.3079 93.1819 47.4383L91.9051 47.9117C91.2474 48.1466 90.6131 47.9704 89.9941 47.7695C88.951 47.4289 88.2556 46.7124 87.9972 45.64C87.9534 45.4285 87.9553 45.21 88.0029 44.9993C88.0505 44.7886 88.1427 44.5905 88.2733 44.4184C89.1542 43.1651 90.2419 42.108 91.4318 41.1589C92.1776 40.5622 92.9317 39.9772 93.7305 39.4534C94.6572 38.8461 94.6701 38.832 95.5206 39.4146C96.8467 40.3145 98.1092 41.3047 99.2993 42.3781C100.014 43.0298 100.641 43.7726 101.162 44.5875C101.397 44.9493 101.397 45.3851 101.314 45.8021C101.157 46.5374 100.783 47.1106 100.096 47.4759C99.5001 47.7919 98.9058 48.0726 98.2104 48.0338Z" fill="#FFB000"/>
<path d="M99.3321 46.6889C98.5827 46.723 97.9226 46.4223 97.2542 46.1439C97.1603 46.1051 97.0569 45.9982 96.9664 46.0805C96.876 46.1627 96.9359 46.2743 96.9594 46.38C97.0525 46.8036 97.2472 47.1983 97.5267 47.5299C97.8044 47.8756 98.0289 48.2608 98.1927 48.6728C98.4276 49.1943 98.5451 49.6336 98.531 50.1998C98.531 50.3995 98.3536 50.6156 98.1786 50.4347C98.128 50.388 98.0679 50.3526 98.0025 50.3309C97.9371 50.3092 97.8678 50.3018 97.7992 50.309C96.1219 50.309 96.1548 49.8392 95.7907 49.8392C95.4066 49.8392 95.2809 50.2397 93.9113 50.2397C93.7775 50.2646 93.6478 50.3081 93.526 50.3689C93.2735 50.504 93.109 50.4159 93.1184 50.1258C93.1455 49.2319 93.3851 48.4015 93.9407 47.6873C94.1528 47.3846 94.3489 47.071 94.528 46.7476C94.5975 46.6271 94.6377 46.4919 94.6454 46.353C94.6771 45.9712 94.6642 45.9618 94.306 46.0922C93.8831 46.2461 93.4591 46.3964 93.035 46.5491C92.3773 46.784 91.743 46.6079 91.1228 46.407C90.0797 46.0664 89.3844 45.3499 89.1318 44.2774C89.0877 44.066 89.0894 43.8476 89.1368 43.6369C89.1843 43.4261 89.2763 43.228 89.4067 43.0559C90.283 41.7979 91.3706 40.7489 92.5617 39.7963C93.3005 39.2184 94.0546 38.6335 94.8533 38.1143C95.7789 37.5082 95.793 37.4941 96.6423 38.0767C97.967 38.9748 99.2284 39.963 100.417 41.0344C101.134 41.686 101.762 42.4289 102.285 43.2438C102.52 43.6056 102.52 44.0413 102.437 44.4583C102.28 45.1936 101.904 45.7668 101.217 46.1321C100.623 46.454 100.027 46.7288 99.3321 46.6889Z" fill="#425CE6"/>
</g>
<g clip-path="url(#clip23_1_3408)">
<path d="M98.2104 72.6275C97.461 72.6627 96.8009 72.362 96.1325 72.0836C96.0386 72.0449 95.934 71.9368 95.8447 72.0202C95.7555 72.1036 95.813 72.214 95.8377 72.3197C95.9298 72.7437 96.1246 73.1386 96.405 73.4696C96.6824 73.8154 96.9064 74.2006 97.0699 74.6125C97.3048 75.1329 97.4222 75.5734 97.4081 76.1395C97.4081 76.3392 97.232 76.5553 97.0558 76.3744C97.005 76.3278 96.945 76.2925 96.8796 76.2708C96.8142 76.2492 96.7449 76.2416 96.6764 76.2488C94.999 76.2488 95.0319 75.7789 94.6678 75.7789C94.2837 75.7789 94.158 76.1783 92.7884 76.1783C92.6544 76.2043 92.5244 76.2481 92.402 76.3087C92.1506 76.4437 91.9862 76.3556 91.9944 76.0655C92.0226 75.1716 92.2622 74.3412 92.8166 73.627C93.0289 73.3245 93.225 73.0108 93.4039 72.6874C93.4737 72.5665 93.5139 72.4309 93.5214 72.2915C93.5543 71.9098 93.5402 71.9016 93.1819 72.0319L91.9051 72.5053C91.2474 72.7402 90.6131 72.564 89.9941 72.3632C88.951 72.0225 88.2556 71.306 87.9972 70.2336C87.9534 70.0221 87.9553 69.8036 88.0029 69.5929C88.0505 69.3822 88.1427 69.1841 88.2733 69.012C89.1542 67.7587 90.2419 66.7016 91.4318 65.7525C92.1776 65.1558 92.9317 64.5709 93.7305 64.047C94.6572 63.4397 94.6701 63.4256 95.5206 64.0082C96.8467 64.9081 98.1092 65.8983 99.2993 66.9717C100.014 67.6234 100.641 68.3663 101.162 69.1812C101.397 69.5429 101.397 69.9787 101.314 70.3957C101.157 71.131 100.783 71.7042 100.096 72.0695C99.5001 72.3855 98.9058 72.6662 98.2104 72.6275Z" fill="#FFB000"/>
<path d="M99.3321 71.2825C98.5827 71.3166 97.9226 71.0159 97.2542 70.7375C97.1603 70.6988 97.0569 70.5919 96.9664 70.6741C96.876 70.7563 96.9359 70.8679 96.9594 70.9736C97.0525 71.3973 97.2472 71.7919 97.5267 72.1235C97.8044 72.4692 98.0289 72.8544 98.1927 73.2664C98.4276 73.788 98.5451 74.2273 98.531 74.7934C98.531 74.9931 98.3536 75.2092 98.1786 75.0283C98.128 74.9816 98.0679 74.9462 98.0025 74.9245C97.9371 74.9028 97.8678 74.8954 97.7992 74.9027C96.1219 74.9027 96.1548 74.4328 95.7907 74.4328C95.4066 74.4328 95.2809 74.8334 93.9113 74.8334C93.7775 74.8583 93.6478 74.9017 93.526 74.9626C93.2735 75.0976 93.109 75.0095 93.1184 74.7194C93.1455 73.8255 93.3851 72.9951 93.9407 72.2809C94.1528 71.9783 94.3489 71.6646 94.528 71.3413C94.5975 71.2207 94.6377 71.0855 94.6454 70.9466C94.6771 70.5649 94.6642 70.5555 94.306 70.6858C93.8831 70.8397 93.4591 70.9901 93.035 71.1428C92.3773 71.3777 91.743 71.2015 91.1228 71.0006C90.0797 70.66 89.3844 69.9435 89.1318 68.8711C89.0877 68.6596 89.0894 68.4412 89.1368 68.2305C89.1843 68.0198 89.2763 67.8217 89.4067 67.6495C90.283 66.3915 91.3706 65.3426 92.5617 64.39C93.3005 63.8121 94.0546 63.2271 94.8533 62.7079C95.7789 62.1018 95.793 62.0877 96.6423 62.6703C97.967 63.5684 99.2284 64.5567 100.417 65.628C101.134 66.2797 101.762 67.0225 102.285 67.8374C102.52 68.1992 102.52 68.635 102.437 69.052C102.28 69.7873 101.904 70.3605 101.217 70.7258C100.623 71.0476 100.027 71.3225 99.3321 71.2825Z" fill="#425CE6"/>
</g>
</g>
<defs>
<filter id="filter0_d_1_3408" x="0.75" y="0.75" width="64.6428" height="87.5" filterUnits="userSpaceOnUse" color-interpolation-filters="sRGB">
<feFlood flood-opacity="0" result="BackgroundImageFix"/>
<feColorMatrix in="SourceAlpha" type="matrix" values="0 0 0 0 0 0 0 0 0 0 0 0 0 0 0 0 0 0 127 0" result="hardAlpha"/>
<feOffset dx="-1.5" dy="1.5"/>
<feGaussianBlur stdDeviation="1.875"/>
<feComposite in2="hardAlpha" operator="out"/>
<feColorMatrix type="matrix" values="0 0 0 0 0 0 0 0 0 0 0 0 0 0 0 0 0 0 0.25 0"/>
<feBlend mode="normal" in2="BackgroundImageFix" result="effect1_dropShadow_1_3408"/>
<feBlend mode="normal" in="SourceGraphic" in2="effect1_dropShadow_1_3408" result="shape"/>
</filter>
<filter id="filter1_d_1_3408" x="20.3928" y="0.75" width="64.6428" height="87.5" filterUnits="userSpaceOnUse" color-interpolation-filters="sRGB">
<feFlood flood-opacity="0" result="BackgroundImageFix"/>
<feColorMatrix in="SourceAlpha" type="matrix" values="0 0 0 0 0 0 0 0 0 0 0 0 0 0 0 0 0 0 127 0" result="hardAlpha"/>
<feOffset dx="-1.5" dy="1.5"/>
<feGaussianBlur stdDeviation="1.875"/>
<feComposite in2="hardAlpha" operator="out"/>
<feColorMatrix type="matrix" values="0 0 0 0 0 0 0 0 0 0 0 0 0 0 0 0 0 0 0.25 0"/>
<feBlend mode="normal" in2="BackgroundImageFix" result="effect1_dropShadow_1_3408"/>
<feBlend mode="normal" in="SourceGraphic" in2="effect1_dropShadow_1_3408" result="shape"/>
</filter>
<filter id="filter2_d_1_3408" x="40.0358" y="0.75" width="64.6428" height="87.5" filterUnits="userSpaceOnUse" color-interpolation-filters="sRGB">
<feFlood flood-opacity="0" result="BackgroundImageFix"/>
<feColorMatrix in="SourceAlpha" type="matrix" values="0 0 0 0 0 0 0 0 0 0 0 0 0 0 0 0 0 0 127 0" result="hardAlpha"/>
<feOffset dx="-1.5" dy="1.5"/>
<feGaussianBlur stdDeviation="1.875"/>
<feComposite in2="hardAlpha" operator="out"/>
<feColorMatrix type="matrix" values="0 0 0 0 0 0 0 0 0 0 0 0 0 0 0 0 0 0 0.25 0"/>
<feBlend mode="normal" in2="BackgroundImageFix" result="effect1_dropShadow_1_3408"/>
<feBlend mode="normal" in="SourceGraphic" in2="effect1_dropShadow_1_3408" result="shape"/>
</filter>
<filter id="filter3_d_1_3408" x="59.6786" y="0.75" width="64.6428" height="87.5" filterUnits="userSpaceOnUse" color-interpolation-filters="sRGB">
<feFlood flood-opacity="0" result="BackgroundImageFix"/>
<feColorMatrix in="SourceAlpha" type="matrix" values="0 0 0 0 0 0 0 0 0 0 0 0 0 0 0 0 0 0 127 0" result="hardAlpha"/>
<feOffset dx="-1.5" dy="1.5"/>
<feGaussianBlur stdDeviation="1.875"/>
<feComposite in2="hardAlpha" operator="out"/>
<feColorMatrix type="matrix" values="0 0 0 0 0 0 0 0 0 0 0 0 0 0 0 0 0 0 0.25 0"/>
<feBlend mode="normal" in2="BackgroundImageFix" result="effect1_dropShadow_1_3408"/>
<feBlend mode="normal" in="SourceGraphic" in2="effect1_dropShadow_1_3408" result="shape"/>
</filter>
<clipPath id="clip0_1_3408">
<rect width="57.1429" height="80" fill="white" transform="translate(6 3)"/>
</clipPath>
<clipPath id="clip1_1_3408">
<rect width="57.1429" height="80" fill="white" transform="translate(6 3)"/>
</clipPath>
<clipPath id="clip2_1_3408">
<rect width="8.98095" height="8.71428" fill="white" transform="translate(10.3239 17.4254)"/>
</clipPath>
<clipPath id="clip3_1_3408">
<rect width="15.2728" height="15.1947" fill="white" transform="translate(28.8826 13.1937)"/>
</clipPath>
<clipPath id="clip4_1_3408">
<rect width="15.2728" height="15.1947" fill="white" transform="translate(28.8826 37.0635)"/>
</clipPath>
<clipPath id="clip5_1_3408">
<rect width="15.2728" height="15.1947" fill="white" transform="translate(28.8826 60.9333)"/>
</clipPath>
<clipPath id="clip6_1_3408">
<rect width="57.1429" height="80" fill="white" transform="translate(25.6428 3)"/>
</clipPath>
<clipPath id="clip7_1_3408">
<rect width="57.1429" height="80" fill="white" transform="translate(25.6428 3)"/>
</clipPath>
<clipPath id="clip8_1_3408">
<rect width="8.0254" height="8.25397" fill="white" transform="translate(30.4016 17.6572)"/>
</clipPath>
<clipPath id="clip9_1_3408">
<rect width="15.8049" height="16.5843" fill="white" transform="translate(48.8713 13.9651)"/>
</clipPath>
<clipPath id="clip10_1_3408">
<rect width="15.8049" height="16.5844" fill="white" transform="translate(48.8713 36.7905)"/>
</clipPath>
<clipPath id="clip11_1_3408">
<rect width="15.8049" height="16.5843" fill="white" transform="translate(48.8713 60.7492)"/>
</clipPath>
<clipPath id="clip12_1_3408">
<rect width="57.1429" height="80" fill="white" transform="translate(45.2858 3)"/>
</clipPath>
<clipPath id="clip13_1_3408">
<rect width="57.1429" height="80" fill="white" transform="translate(45.2858 3)"/>
</clipPath>
<clipPath id="clip14_1_3408">
<rect width="8.59365" height="7.93651" fill="white" transform="translate(49.762 17.8159)"/>
</clipPath>
<clipPath id="clip15_1_3408">
<rect width="15.0489" height="16.1003" fill="white" transform="translate(68.3842 13.092)"/>
</clipPath>
<clipPath id="clip16_1_3408">
<rect width="15.0489" height="16.1003" fill="white" transform="translate(68.3842 36.6127)"/>
</clipPath>
<clipPath id="clip17_1_3408">
<rect width="15.0489" height="16.1003" fill="white" transform="translate(68.3842 60.1302)"/>
</clipPath>
<clipPath id="clip18_1_3408">
<rect width="57.1429" height="80" fill="white" transform="translate(64.9286 3)"/>
</clipPath>
<clipPath id="clip19_1_3408">
<rect width="57.1429" height="80" fill="white" transform="translate(64.9286 3)"/>
</clipPath>
<clipPath id="clip20_1_3408">
<rect width="8.85397" height="8.25397" fill="white" transform="translate(69.2747 17.6572)"/>
</clipPath>
<clipPath id="clip21_1_3408">
<rect width="14.5216" height="14.2092" fill="white" transform="translate(87.9667 14.1238)"/>
</clipPath>
<clipPath id="clip22_1_3408">
<rect width="14.5216" height="14.2092" fill="white" transform="translate(87.9667 37.6444)"/>
</clipPath>
<clipPath id="clip23_1_3408">
<rect width="14.5216" height="14.2092" fill="white" transform="translate(87.9667 62.2381)"/>
</clipPath>
</defs>
</svg>
