<svg width="125" height="89" viewBox="0 0 125 89" fill="none" xmlns="http://www.w3.org/2000/svg">
<g clip-path="url(#clip0_18_6281)" filter="url(#filter0_d_18_6281)">
<g clip-path="url(#clip1_18_6281)">
<path d="M60.7618 5.38086H8.38086V80.6189H60.7618V5.38086Z" stroke="#CCCCCC" stroke-width="0.1875" stroke-miterlimit="10"/>
<path d="M20.5523 5.38086H8.38086V80.6189H20.5523V5.38086Z" stroke="#CCCCCC" stroke-width="0.1875" stroke-miterlimit="10"/>
<path d="M20.5523 16.4731H8.38086V18.6636H20.5523V16.4731Z" stroke="#CCCCCC" stroke-width="0.1875" stroke-miterlimit="10"/>
<path d="M60.7619 78.4287H15.8604V80.6192H60.7619V78.4287Z" stroke="#CCCCCC" stroke-width="0.1875" stroke-miterlimit="10"/>
<path d="M58.8919 14.2827H20.5522V78.4287H58.8919V14.2827Z" stroke="#CCCCCC" stroke-width="0.1875" stroke-miterlimit="10"/>
<path d="M51.0668 20.0889H28.3779V69.2762H51.0668V20.0889Z" stroke="#CCCCCC" stroke-width="0.16875" stroke-miterlimit="10"/>
<path d="M28.3779 36.4858H51.0668" stroke="#CCCCCC" stroke-width="0.16875" stroke-miterlimit="10"/>
<path d="M28.3779 52.8794H51.0668" stroke="#CCCCCC" stroke-width="0.16875" stroke-miterlimit="10"/>
<path d="M28.3779 44.6826H51.0668" stroke="#CCCCCC" stroke-width="0.16875" stroke-miterlimit="10"/>
<path d="M39.7207 69.2762V20.0889" stroke="#CCCCCC" stroke-width="0.16875" stroke-miterlimit="10"/>
<path d="M51.0668 44.6825L39.7208 20.0889L28.3779 44.6825L39.7208 69.2762L51.0668 44.6825Z" stroke="#CCCCCC" stroke-width="0.16875" stroke-miterlimit="10"/>
<path d="M28.3779 20.0889L51.0668 36.4857" stroke="#CCCCCC" stroke-width="0.16875" stroke-miterlimit="10"/>
<path d="M28.3779 36.4857L51.0668 20.0889" stroke="#CCCCCC" stroke-width="0.16875" stroke-miterlimit="10"/>
<path d="M28.3779 36.4858L51.0668 52.8795" stroke="#CCCCCC" stroke-width="0.16875" stroke-miterlimit="10"/>
<path d="M28.3779 52.8795L51.0668 36.4858" stroke="#CCCCCC" stroke-width="0.16875" stroke-miterlimit="10"/>
<path d="M28.3779 52.8794L51.0668 69.2762" stroke="#CCCCCC" stroke-width="0.16875" stroke-miterlimit="10"/>
<path d="M28.3779 69.2762L51.0668 52.8794" stroke="#CCCCCC" stroke-width="0.16875" stroke-miterlimit="10"/>
<path d="M59.3333 3H9.80952C7.70558 3 6 4.70558 6 6.80952V79.1905C6 81.2944 7.70558 83 9.80952 83H59.3333C61.4373 83 63.1429 81.2944 63.1429 79.1905V6.80952C63.1429 4.70558 61.4373 3 59.3333 3Z" fill="#FFF4D7"/>
</g>
<g clip-path="url(#clip2_18_6281)">
<path d="M19.1079 22.0414L18 20.5367C17.9022 20.4449 17.7756 20.3899 17.6418 20.3813C17.508 20.3726 17.3754 20.4107 17.2666 20.4891L15.3047 21.7589C15.2942 21.7666 15.2819 21.7712 15.2689 21.7722C15.256 21.7732 15.243 21.7706 15.2315 21.7647C15.22 21.7587 15.2103 21.7497 15.2036 21.7386C15.1969 21.7275 15.1935 21.7147 15.1936 21.7018V21.3176C15.1937 21.2576 15.2064 21.1983 15.2311 21.1436C15.2557 21.0889 15.2916 21.04 15.3365 21.0002L16.7301 19.9049C16.7663 19.8719 16.7952 19.8317 16.815 19.7869C16.8348 19.7421 16.845 19.6936 16.845 19.6446C16.845 19.5956 16.8348 19.5472 16.815 19.5023C16.7952 19.4575 16.7663 19.4173 16.7301 19.3843L15.1428 17.5716C15.0424 17.4806 14.9117 17.4302 14.7761 17.4302C14.6406 17.4302 14.5099 17.4806 14.4095 17.5716L12.8222 19.3843C12.7851 19.4168 12.7554 19.4568 12.735 19.5017C12.7147 19.5466 12.7041 19.5953 12.7041 19.6446C12.7041 19.6939 12.7147 19.7426 12.735 19.7875C12.7554 19.8324 12.7851 19.8725 12.8222 19.9049L14.2127 21.0002C14.2575 21.04 14.2934 21.0889 14.318 21.1436C14.3427 21.1983 14.3554 21.2576 14.3555 21.3176V21.7176C14.3557 21.7306 14.3522 21.7434 14.3455 21.7545C14.3388 21.7656 14.3291 21.7746 14.3176 21.7805C14.3061 21.7865 14.2931 21.7891 14.2802 21.7881C14.2673 21.787 14.2549 21.7824 14.2444 21.7748L12.2857 20.5049C12.1787 20.4244 12.0471 20.3836 11.9133 20.3894C11.7796 20.3952 11.652 20.4472 11.5523 20.5367L10.438 22.0414C10.3528 22.1223 10.3002 22.2316 10.2903 22.3486C10.2803 22.4657 10.3137 22.5823 10.3841 22.6764L11.5523 24.1938C11.6203 24.2826 11.7171 24.3448 11.8261 24.3698C11.9351 24.3947 12.0494 24.3807 12.1492 24.3303L13.9206 23.378C13.9556 23.3606 13.995 23.3542 14.0338 23.3593C14.0725 23.3645 14.1088 23.3811 14.1381 23.4069C14.1674 23.4328 14.1883 23.4668 14.1982 23.5046C14.2081 23.5424 14.2065 23.5823 14.1936 23.6192L13.3396 25.6795C13.3202 25.7334 13.3141 25.7911 13.3218 25.8479C13.3294 25.9046 13.3507 25.9586 13.3837 26.0054C13.4168 26.0521 13.4606 26.0902 13.5115 26.1164C13.5624 26.1426 13.6189 26.1561 13.6761 26.1557H15.873C15.9299 26.1555 15.986 26.1417 16.0365 26.1153C16.087 26.0889 16.1304 26.0507 16.1631 26.0041C16.1958 25.9574 16.2168 25.9035 16.2243 25.8471C16.2318 25.7906 16.2256 25.7331 16.2063 25.6795L15.3619 23.6319C15.3484 23.5946 15.3465 23.5542 15.3565 23.5158C15.3664 23.4775 15.3877 23.443 15.4175 23.4169C15.4474 23.3909 15.4844 23.3744 15.5237 23.3697C15.5631 23.365 15.6029 23.3723 15.638 23.3906L17.4793 24.343C17.5792 24.3928 17.6933 24.4064 17.8022 24.3815C17.911 24.3567 18.0078 24.2948 18.0761 24.2065L19.1714 22.6891C19.2457 22.5935 19.2805 22.4731 19.2687 22.3526C19.2569 22.2321 19.1993 22.1208 19.1079 22.0414Z" fill="#425CE6"/>
</g>
<path d="M16.0092 6.31104V12.9555H17.0378L16.7933 14.1777H16.0092V15.4094H16.6029V16.4729H13.4727V15.4094H14.0664V14.1777H11.2695V12.9079L14.7203 6.31104H16.0092ZM12.3013 12.9555H14.0664V9.30786L12.3013 12.9555Z" fill="#425CE6"/>
<g clip-path="url(#clip3_18_6281)">
<path d="M26.89 23.9722C26.3144 24.3987 25.7094 24.7841 25.0795 25.1254C24.7898 25.2809 24.4844 25.4053 24.1684 25.4964C23.8964 25.5732 23.584 25.6018 23.3237 25.4222C22.2824 24.6855 21.3778 23.8316 20.7804 22.6889C20.74 22.6213 20.7194 22.5438 20.7208 22.4652C20.7221 22.3865 20.7455 22.3098 20.7882 22.2437C21.3173 21.286 22.0521 20.4574 22.9397 19.8176C23.4369 19.4635 24.0734 19.483 24.611 19.8176C25.3164 20.251 26.0648 20.6115 26.7352 21.1009C26.8889 21.1977 27.0216 21.3243 27.1256 21.4732C27.0827 20.782 27.1712 20.1794 26.5542 19.7447C26.0675 19.4019 25.6868 18.9292 25.4557 18.3806C25.3675 18.1909 25.3255 17.9831 25.3329 17.7741C25.3404 17.5651 25.3972 17.3608 25.4986 17.1779C25.9828 16.2577 26.7078 15.5653 27.5473 14.99C27.7013 14.891 27.8814 14.8407 28.0644 14.8455C28.2473 14.8504 28.4246 14.9103 28.573 15.0173C29.3849 15.5464 30.0601 16.26 30.5436 17.0998C30.8352 17.6205 30.787 18.1216 30.5124 18.6188C30.2474 19.0844 29.8868 19.4885 29.4542 19.8045C29.2446 19.9633 29.0871 20.1247 29.0637 20.3994C29.0403 20.674 28.8906 20.8888 28.8971 21.1543C28.8971 21.2181 28.8685 21.3001 28.9361 21.3404C29.0038 21.3808 29.0585 21.3131 29.1119 21.2727C29.8616 20.6987 30.6959 20.2575 31.5159 19.8019C32.1042 19.4752 32.7719 19.4674 33.3212 19.9321C34.1008 20.561 34.762 21.324 35.2736 22.1851C35.3273 22.2637 35.3578 22.3557 35.3617 22.4507C35.3656 22.5458 35.3427 22.64 35.2957 22.7227C34.861 23.5804 34.1893 24.2325 33.4943 24.8677C33.3446 25.0057 33.1819 25.128 33.0218 25.2582C32.5741 25.6044 32.0912 25.6278 31.5901 25.4001C30.8073 25.0647 30.0749 24.6222 29.4138 24.0855C29.3383 24.0217 29.2433 23.9123 29.1535 23.9748C29.0637 24.0373 29.0494 25.2113 29.173 25.4808C29.7236 26.2552 30.9562 26.7654 30.9562 28.3247C30.9471 28.585 30.9185 28.684 30.6061 28.5968C30.2121 28.4926 29.807 28.4362 29.3995 28.4289C28.8789 28.4119 28.517 28.4289 28.2411 28.0202C28.1109 27.821 28.0263 27.7598 27.8779 28.0097C27.4549 28.7321 26.7065 28.4393 26.0167 28.5096C25.8243 28.511 25.6333 28.5422 25.4505 28.602C25.2097 28.7035 25.1043 28.6254 25.0847 28.3521C25.0496 27.8444 25.2474 27.3993 25.444 26.9633C25.6718 26.4596 26.3356 25.9728 26.6883 25.5315C27.041 25.0903 26.8796 24.5801 26.89 23.9722ZM28.8424 16.7484C28.8867 16.7526 28.9314 16.7467 28.9731 16.7311C29.0147 16.7156 29.0523 16.6907 29.083 16.6585C29.1137 16.6263 29.1367 16.5876 29.1503 16.5452C29.1638 16.5028 29.1676 16.4579 29.1613 16.4139C29.1483 16.1952 29.0038 16.0963 28.7917 16.1054C28.7487 16.1024 28.7056 16.1087 28.6654 16.1241C28.6252 16.1394 28.5888 16.1633 28.5588 16.1942C28.5288 16.2251 28.5059 16.2621 28.4917 16.3028C28.4775 16.3434 28.4724 16.3867 28.4767 16.4295C28.4728 16.6586 28.6055 16.751 28.8398 16.7484H28.8424ZM26.9083 16.531C26.9083 16.6495 27.0384 16.7627 27.2232 16.7614C27.2659 16.7664 27.3091 16.7615 27.3495 16.7469C27.3899 16.7324 27.4263 16.7086 27.456 16.6776C27.4857 16.6465 27.5077 16.609 27.5204 16.568C27.5331 16.527 27.5361 16.4836 27.5291 16.4412C27.5307 16.3953 27.5222 16.3497 27.5043 16.3074C27.4863 16.2651 27.4594 16.2273 27.4253 16.1965C27.3912 16.1658 27.3508 16.1429 27.3069 16.1294C27.263 16.1159 27.2167 16.1122 27.1712 16.1184C26.9681 16.125 26.9057 16.2577 26.9083 16.531Z" fill="#FFB000"/>
<path d="M28.8399 16.7483C28.6056 16.7483 28.4728 16.6585 28.4741 16.4294C28.4698 16.3865 28.475 16.3431 28.4892 16.3024C28.5035 16.2616 28.5265 16.2245 28.5567 16.1936C28.5868 16.1627 28.6234 16.1388 28.6638 16.1235C28.7041 16.1083 28.7474 16.1021 28.7904 16.1053C29.0026 16.0962 29.1471 16.1951 29.1601 16.4138C29.1664 16.458 29.1626 16.503 29.149 16.5455C29.1354 16.5879 29.1122 16.6268 29.0814 16.659C29.0505 16.6912 29.0128 16.716 28.9709 16.7315C28.9291 16.747 28.8843 16.7527 28.8399 16.7483Z" fill="#FFB000"/>
<path d="M26.9082 16.531C26.9082 16.2577 26.9681 16.125 27.1685 16.1132C27.2147 16.1064 27.2617 16.11 27.3063 16.1235C27.3509 16.1371 27.392 16.1605 27.4265 16.1919C27.461 16.2232 27.4881 16.2619 27.5058 16.305C27.5235 16.3481 27.5315 16.3947 27.5291 16.4412C27.5358 16.4831 27.5329 16.526 27.5205 16.5666C27.5081 16.6072 27.4865 16.6444 27.4575 16.6753C27.4284 16.7062 27.3927 16.7301 27.353 16.745C27.3132 16.7599 27.2706 16.7656 27.2284 16.7614C27.0319 16.7627 26.9082 16.6495 26.9082 16.531Z" fill="#FFB000"/>
<path d="M27.5265 22.5758C26.9515 23.0035 26.3464 23.3893 25.716 23.7303C25.4266 23.8867 25.1211 24.0115 24.8049 24.1025C24.5277 24.1793 24.2166 24.2067 23.955 24.0231C22.9137 23.2903 22.0091 22.4365 21.4117 21.2898C21.3715 21.2224 21.351 21.145 21.3526 21.0666C21.3542 20.9881 21.3779 20.9117 21.4208 20.846C21.9522 19.8866 22.6913 19.0582 23.584 18.4211C24.0812 18.0671 24.7177 18.0866 25.2553 18.4211C25.9529 18.8493 26.7078 19.2099 27.3716 19.6954C27.525 19.792 27.6577 19.9181 27.7621 20.0663C27.7179 19.3752 27.8077 18.7738 27.1907 18.3378C26.7022 17.9976 26.3199 17.526 26.0883 16.9776C25.9999 16.7881 25.9576 16.5803 25.9648 16.3713C25.9721 16.1623 26.0286 15.958 26.1299 15.775C26.6141 14.8548 27.3404 14.1623 28.1786 13.587C28.3327 13.4882 28.5129 13.4381 28.6959 13.4432C28.8788 13.4483 29.056 13.5084 29.2043 13.6156C30.0163 14.1446 30.6915 14.8582 31.1749 15.6982C31.4677 16.2188 31.4196 16.7199 31.1436 17.2184C30.8806 17.6841 30.5222 18.0891 30.0919 18.4068C29.8824 18.5643 29.7249 18.7257 29.7015 19.0003C29.678 19.2749 29.5284 19.4897 29.5349 19.7552C29.5349 19.819 29.5075 19.901 29.5752 19.9414C29.6429 19.9817 29.6976 19.9153 29.7496 19.875C30.4954 19.3049 31.3311 18.8584 32.1511 18.4029C32.7394 18.0762 33.4058 18.0697 33.9564 18.533C34.7191 19.1838 35.4063 19.9049 35.9087 20.7874C35.9628 20.8655 35.9935 20.9574 35.9974 21.0523C36.0013 21.1472 35.9783 21.2413 35.9309 21.3236C35.4961 22.1827 34.8245 22.8335 34.1308 23.47C33.9798 23.6001 33.8184 23.7303 33.657 23.8604C33.2106 24.208 32.7264 24.2301 32.2253 24.0036C31.4407 23.6679 30.7062 23.2255 30.0425 22.689C29.967 22.6265 29.872 22.5159 29.7822 22.5784C29.6924 22.6409 29.6767 23.8162 29.8004 24.0843C30.351 24.8653 31.5836 25.3703 31.5836 26.9283C31.5745 27.1886 31.5471 27.2875 31.2334 27.2003C30.8393 27.0968 30.4343 27.0404 30.0269 27.0324C29.5062 27.0168 29.1444 27.0324 28.8685 26.625C28.7383 26.4259 28.6537 26.3647 28.5066 26.6133C28.0836 27.3357 27.3352 27.0428 26.6453 27.1131C26.4526 27.1151 26.2613 27.1463 26.0779 27.2055C25.8371 27.307 25.7316 27.2302 25.7134 26.9569C25.677 26.4493 25.8761 26.0029 26.0713 25.5681C26.2991 25.0631 26.9629 24.5763 27.317 24.1364C27.671 23.6964 27.5161 23.1823 27.5265 22.5758Z" fill="#425CE6"/>
</g>
<g clip-path="url(#clip4_18_6281)">
<path d="M49.5761 23.9722C49.0005 24.3987 48.3954 24.7841 47.7656 25.1254C47.4758 25.2809 47.1704 25.4053 46.8545 25.4964C46.5824 25.5732 46.27 25.6018 46.0097 25.4222C44.9685 24.6855 44.0639 23.8316 43.4664 22.6889C43.4261 22.6213 43.4054 22.5438 43.4068 22.4652C43.4082 22.3865 43.4315 22.3098 43.4742 22.2437C44.0033 21.286 44.7381 20.4574 45.6258 19.8176C46.123 19.4635 46.7594 19.483 47.297 19.8176C48.0025 20.251 48.7509 20.6115 49.4212 21.1009C49.5749 21.1977 49.7077 21.3243 49.8117 21.4732C49.7687 20.782 49.8572 20.1794 49.2403 19.7447C48.7535 19.4019 48.3729 18.9292 48.1417 18.3806C48.0536 18.1909 48.0115 17.9831 48.019 17.7741C48.0264 17.5651 48.0832 17.3608 48.1847 17.1779C48.6689 16.2577 49.3939 15.5653 50.2334 14.99C50.3873 14.891 50.5675 14.8407 50.7504 14.8455C50.9334 14.8504 51.1106 14.9103 51.259 15.0173C52.0709 15.5464 52.7462 16.26 53.2296 17.0998C53.5212 17.6205 53.473 18.1216 53.1984 18.6188C52.9335 19.0844 52.5728 19.4885 52.1402 19.8045C51.9306 19.9633 51.7732 20.1247 51.7497 20.3994C51.7263 20.674 51.5766 20.8888 51.5831 21.1543C51.5831 21.2181 51.5545 21.3001 51.6222 21.3404C51.6899 21.3808 51.7445 21.3131 51.7979 21.2727C52.5476 20.6987 53.3819 20.2575 54.2019 19.8019C54.7902 19.4752 55.458 19.4674 56.0072 19.9321C56.7869 20.561 57.448 21.324 57.9596 22.1851C58.0133 22.2637 58.0438 22.3557 58.0477 22.4507C58.0517 22.5458 58.0288 22.64 57.9817 22.7227C57.547 23.5804 56.8754 24.2325 56.1803 24.8677C56.0306 25.0057 55.868 25.128 55.7079 25.2582C55.2601 25.6044 54.7772 25.6278 54.2761 25.4001C53.4934 25.0647 52.761 24.6222 52.0999 24.0855C52.0244 24.0217 51.9293 23.9123 51.8395 23.9748C51.7497 24.0373 51.7354 25.2113 51.8591 25.4808C52.4096 26.2552 53.6422 26.7654 53.6422 28.3247C53.6331 28.585 53.6045 28.684 53.2921 28.5968C52.8981 28.4926 52.493 28.4362 52.0855 28.4289C51.5649 28.4119 51.2031 28.4289 50.9271 28.0202C50.797 27.821 50.7124 27.7598 50.564 28.0097C50.141 28.7321 49.3926 28.4393 48.7027 28.5096C48.5103 28.511 48.3194 28.5422 48.1365 28.602C47.8957 28.7035 47.7903 28.6254 47.7708 28.3521C47.7356 27.8444 47.9335 27.3993 48.13 26.9633C48.3578 26.4596 49.0216 25.9728 49.3743 25.5315C49.7271 25.0903 49.5657 24.5801 49.5761 23.9722ZM51.5285 16.7484C51.5728 16.7526 51.6174 16.7467 51.6591 16.7311C51.7008 16.7156 51.7384 16.6907 51.7691 16.6585C51.7998 16.6263 51.8228 16.5876 51.8363 16.5452C51.8499 16.5028 51.8536 16.4579 51.8473 16.4139C51.8343 16.1952 51.6899 16.0963 51.4777 16.1054C51.4348 16.1024 51.3917 16.1087 51.3514 16.1241C51.3112 16.1394 51.2748 16.1633 51.2448 16.1942C51.2148 16.2251 51.1919 16.2621 51.1777 16.3028C51.1636 16.3434 51.1584 16.3867 51.1627 16.4295C51.1588 16.6586 51.2916 16.751 51.5259 16.7484H51.5285ZM49.5943 16.531C49.5943 16.6495 49.7245 16.7627 49.9093 16.7614C49.9519 16.7664 49.9951 16.7615 50.0355 16.7469C50.0759 16.7324 50.1124 16.7086 50.142 16.6776C50.1717 16.6465 50.1937 16.609 50.2064 16.568C50.2191 16.527 50.2221 16.4836 50.2152 16.4412C50.2167 16.3953 50.2082 16.3497 50.1903 16.3074C50.1724 16.2651 50.1454 16.2273 50.1113 16.1965C50.0772 16.1658 50.0368 16.1429 49.9929 16.1294C49.949 16.1159 49.9027 16.1122 49.8572 16.1184C49.6542 16.125 49.5917 16.2577 49.5943 16.531Z" fill="#FFB000"/>
<path d="M51.5259 16.7483C51.2916 16.7483 51.1589 16.6585 51.1602 16.4294C51.1559 16.3865 51.161 16.3431 51.1753 16.3024C51.1895 16.2616 51.2125 16.2245 51.2427 16.1936C51.2728 16.1627 51.3094 16.1388 51.3498 16.1235C51.3902 16.1083 51.4334 16.1021 51.4765 16.1053C51.6886 16.0962 51.8331 16.1951 51.8461 16.4138C51.8524 16.458 51.8486 16.503 51.835 16.5455C51.8214 16.5879 51.7983 16.6268 51.7674 16.659C51.7366 16.6912 51.6988 16.716 51.657 16.7315C51.6151 16.747 51.5703 16.7527 51.5259 16.7483Z" fill="#FFB000"/>
<path d="M49.5942 16.531C49.5942 16.2577 49.6541 16.125 49.8546 16.1132C49.9007 16.1064 49.9478 16.11 49.9924 16.1235C50.037 16.1371 50.078 16.1605 50.1125 16.1919C50.147 16.2232 50.1741 16.2619 50.1918 16.305C50.2096 16.3481 50.2175 16.3947 50.2151 16.4412C50.2219 16.4831 50.2189 16.526 50.2065 16.5666C50.1941 16.6072 50.1726 16.6444 50.1435 16.6753C50.1145 16.7062 50.0787 16.7301 50.039 16.745C49.9993 16.7599 49.9567 16.7656 49.9144 16.7614C49.7179 16.7627 49.5942 16.6495 49.5942 16.531Z" fill="#FFB000"/>
<path d="M50.2126 22.5758C49.6375 23.0035 49.0324 23.3893 48.402 23.7303C48.1126 23.8867 47.8071 24.0115 47.4909 24.1025C47.2137 24.1793 46.9026 24.2067 46.641 24.0231C45.5997 23.2903 44.6951 22.4365 44.0977 21.2898C44.0575 21.2224 44.0371 21.145 44.0387 21.0666C44.0403 20.9881 44.0639 20.9117 44.1068 20.846C44.6383 19.8866 45.3774 19.0582 46.27 18.4211C46.7673 18.0671 47.4037 18.0866 47.9413 18.4211C48.6389 18.8493 49.3939 19.2099 50.0577 19.6954C50.211 19.792 50.3437 19.9181 50.4481 20.0663C50.4039 19.3752 50.4937 18.7738 49.8767 18.3378C49.3882 17.9976 49.006 17.526 48.7743 16.9776C48.6859 16.7881 48.6436 16.5803 48.6509 16.3713C48.6581 16.1623 48.7147 15.958 48.816 15.775C49.3001 14.8548 50.0264 14.1623 50.8647 13.587C51.0187 13.4882 51.1989 13.4381 51.3819 13.4432C51.5648 13.4483 51.742 13.5084 51.8903 13.6156C52.7023 14.1446 53.3776 14.8582 53.8609 15.6982C54.1538 16.2188 54.1056 16.7199 53.8297 17.2184C53.5666 17.6841 53.2083 18.0891 52.778 18.4068C52.5684 18.5643 52.4109 18.7257 52.3875 19.0003C52.3641 19.2749 52.2144 19.4897 52.2209 19.7552C52.2209 19.819 52.1936 19.901 52.2613 19.9414C52.3289 19.9817 52.3836 19.9153 52.4357 19.875C53.1815 19.3049 54.0171 18.8584 54.8371 18.4029C55.4254 18.0762 56.0918 18.0697 56.6424 18.533C57.4051 19.1838 58.0924 19.9049 58.5948 20.7874C58.6488 20.8655 58.6795 20.9574 58.6834 21.0523C58.6874 21.1472 58.6643 21.2413 58.6169 21.3236C58.1822 22.1827 57.5106 22.8335 56.8168 23.47C56.6658 23.6001 56.5044 23.7303 56.343 23.8604C55.8966 24.208 55.4124 24.2301 54.9113 24.0036C54.1267 23.6679 53.3922 23.2255 52.7285 22.689C52.653 22.6265 52.558 22.5159 52.4682 22.5784C52.3784 22.6409 52.3628 23.8162 52.4864 24.0843C53.037 24.8653 54.2696 25.3703 54.2696 26.9283C54.2605 27.1886 54.2332 27.2875 53.9195 27.2003C53.5253 27.0968 53.1203 27.0404 52.7129 27.0324C52.1923 27.0168 51.8304 27.0324 51.5545 26.625C51.4243 26.4259 51.3397 26.3647 51.1927 26.6133C50.7696 27.3357 50.0212 27.0428 49.3314 27.1131C49.1386 27.1151 48.9473 27.1463 48.7639 27.2055C48.5231 27.307 48.4177 27.2302 48.3994 26.9569C48.363 26.4493 48.5621 26.0029 48.7574 25.5681C48.9852 25.0631 49.649 24.5763 50.003 24.1364C50.357 23.6964 50.2021 23.1823 50.2126 22.5758Z" fill="#425CE6"/>
</g>
<g clip-path="url(#clip5_18_6281)">
<path d="M26.89 72.1817C26.3144 72.6082 25.7094 72.9936 25.0795 73.3349C24.7898 73.4904 24.4844 73.6147 24.1684 73.7059C23.8964 73.7826 23.584 73.8113 23.3237 73.6317C22.2824 72.895 21.3778 72.0411 20.7804 70.8983C20.74 70.8308 20.7194 70.7533 20.7208 70.6746C20.7221 70.596 20.7455 70.5193 20.7882 70.4532C21.3173 69.4954 22.0521 68.6668 22.9397 68.027C23.4369 67.673 24.0734 67.6925 24.611 68.027C25.3164 68.4605 26.0648 68.821 26.7352 69.3104C26.8889 69.4072 27.0216 69.5337 27.1256 69.6826C27.0827 68.9915 27.1712 68.3889 26.5542 67.9541C26.0675 67.6114 25.6868 67.1387 25.4557 66.5901C25.3675 66.4004 25.3255 66.1926 25.3329 65.9836C25.3404 65.7746 25.3972 65.5703 25.4986 65.3874C25.9828 64.4672 26.7078 63.7747 27.5473 63.1994C27.7013 63.1005 27.8814 63.0501 28.0644 63.055C28.2473 63.0599 28.4246 63.1197 28.573 63.2268C29.3849 63.7559 30.0601 64.4695 30.5436 65.3093C30.8352 65.8299 30.787 66.3311 30.5124 66.8283C30.2474 67.2939 29.8868 67.698 29.4542 68.014C29.2446 68.1728 29.0871 68.3342 29.0637 68.6088C29.0403 68.8835 28.8906 69.0982 28.8971 69.3638C28.8971 69.4275 28.8685 69.5095 28.9361 69.5499C29.0038 69.5902 29.0585 69.5226 29.1119 69.4822C29.8616 68.9082 30.6959 68.467 31.5159 68.0114C32.1042 67.6847 32.7719 67.6769 33.3212 68.1416C34.1008 68.7705 34.762 69.5334 35.2736 70.3946C35.3273 70.4731 35.3578 70.5652 35.3617 70.6602C35.3656 70.7553 35.3427 70.8495 35.2957 70.9322C34.861 71.7899 34.1893 72.442 33.4943 73.0772C33.3446 73.2152 33.1819 73.3375 33.0218 73.4677C32.5741 73.8139 32.0912 73.8373 31.5901 73.6095C30.8073 73.2741 30.0749 72.8317 29.4138 72.2949C29.3383 72.2312 29.2433 72.1218 29.1535 72.1843C29.0637 72.2468 29.0494 73.4208 29.173 73.6902C29.7236 74.4647 30.9562 74.9749 30.9562 76.5342C30.9471 76.7945 30.9185 76.8934 30.6061 76.8062C30.2121 76.702 29.807 76.6457 29.3995 76.6383C28.8789 76.6214 28.517 76.6383 28.2411 76.2296C28.1109 76.0305 28.0263 75.9693 27.8779 76.2192C27.4549 76.9416 26.7065 76.6487 26.0167 76.719C25.8243 76.7205 25.6333 76.7517 25.4505 76.8114C25.2097 76.913 25.1043 76.8349 25.0847 76.5615C25.0496 76.0539 25.2474 75.6088 25.444 75.1727C25.6718 74.669 26.3356 74.1822 26.6883 73.741C27.041 73.2998 26.8796 72.7895 26.89 72.1817ZM28.8424 64.9579C28.8867 64.9621 28.9314 64.9562 28.9731 64.9406C29.0147 64.925 29.0523 64.9002 29.083 64.868C29.1137 64.8358 29.1367 64.7971 29.1503 64.7547C29.1638 64.7123 29.1676 64.6674 29.1613 64.6234C29.1483 64.4047 29.0038 64.3058 28.7917 64.3149C28.7487 64.3118 28.7056 64.3182 28.6654 64.3335C28.6252 64.3489 28.5888 64.3728 28.5588 64.4037C28.5288 64.4346 28.5059 64.4716 28.4917 64.5123C28.4775 64.5529 28.4724 64.5962 28.4767 64.639C28.4728 64.8681 28.6055 64.9605 28.8398 64.9579H28.8424ZM26.9083 64.7405C26.9083 64.859 27.0384 64.9722 27.2232 64.9709C27.2659 64.9759 27.3091 64.9709 27.3495 64.9564C27.3899 64.9418 27.4263 64.9181 27.456 64.8871C27.4857 64.856 27.5077 64.8185 27.5204 64.7775C27.5331 64.7365 27.5361 64.6931 27.5291 64.6507C27.5307 64.6048 27.5222 64.5591 27.5043 64.5169C27.4863 64.4746 27.4594 64.4368 27.4253 64.406C27.3912 64.3753 27.3508 64.3523 27.3069 64.3389C27.263 64.3254 27.2167 64.3216 27.1712 64.3279C26.9681 64.3344 26.9057 64.4672 26.9083 64.7405Z" fill="#FFB000"/>
<path d="M28.8399 64.9578C28.6056 64.9578 28.4728 64.868 28.4741 64.6389C28.4698 64.596 28.475 64.5526 28.4892 64.5118C28.5035 64.4711 28.5265 64.434 28.5567 64.4031C28.5868 64.3722 28.6234 64.3483 28.6638 64.333C28.7041 64.3178 28.7474 64.3115 28.7904 64.3148C29.0026 64.3057 29.1471 64.4046 29.1601 64.6233C29.1664 64.6674 29.1626 64.7125 29.149 64.7549C29.1354 64.7974 29.1122 64.8362 29.0814 64.8685C29.0505 64.9007 29.0128 64.9255 28.9709 64.941C28.9291 64.9564 28.8843 64.9622 28.8399 64.9578Z" fill="#FFB000"/>
<path d="M26.9082 64.7405C26.9082 64.4672 26.9681 64.3344 27.1685 64.3227C27.2147 64.3159 27.2617 64.3194 27.3063 64.333C27.3509 64.3466 27.392 64.3699 27.4265 64.4013C27.461 64.4327 27.4881 64.4714 27.5058 64.5145C27.5235 64.5576 27.5315 64.6041 27.5291 64.6507C27.5358 64.6926 27.5329 64.7355 27.5205 64.7761C27.5081 64.8166 27.4865 64.8538 27.4575 64.8848C27.4284 64.9157 27.3927 64.9395 27.353 64.9545C27.3132 64.9694 27.2706 64.975 27.2284 64.9709C27.0319 64.9722 26.9082 64.859 26.9082 64.7405Z" fill="#FFB000"/>
<path d="M27.5265 70.7852C26.9515 71.213 26.3464 71.5988 25.716 71.9398C25.4266 72.0962 25.1211 72.221 24.8049 72.312C24.5277 72.3888 24.2166 72.4161 23.955 72.2326C22.9137 71.4998 22.0091 70.646 21.4117 69.4993C21.3715 69.4319 21.351 69.3545 21.3526 69.2761C21.3542 69.1976 21.3779 69.1211 21.4208 69.0554C21.9522 68.0961 22.6913 67.2676 23.584 66.6306C24.0812 66.2765 24.7177 66.2961 25.2553 66.6306C25.9529 67.0588 26.7078 67.4193 27.3716 67.9048C27.525 68.0015 27.6577 68.1276 27.7621 68.2758C27.7179 67.5846 27.8077 66.9833 27.1907 66.5473C26.7022 66.2071 26.3199 65.7355 26.0883 65.1871C25.9999 64.9976 25.9576 64.7898 25.9648 64.5808C25.9721 64.3718 26.0286 64.1674 26.1299 63.9845C26.6141 63.0642 27.3404 62.3718 28.1786 61.7965C28.3327 61.6977 28.5129 61.6476 28.6959 61.6527C28.8788 61.6578 29.056 61.7179 29.2043 61.8251C30.0163 62.3541 30.6915 63.0677 31.1749 63.9077C31.4677 64.4283 31.4196 64.9294 31.1436 65.4279C30.8806 65.8936 30.5222 66.2986 30.0919 66.6163C29.8824 66.7738 29.7249 66.9352 29.7015 67.2098C29.678 67.4844 29.5284 67.6992 29.5349 67.9647C29.5349 68.0285 29.5075 68.1105 29.5752 68.1508C29.6429 68.1912 29.6976 68.1248 29.7496 68.0845C30.4954 67.5144 31.3311 67.0679 32.1511 66.6124C32.7394 66.2857 33.4058 66.2792 33.9564 66.7425C34.7191 67.3933 35.4063 68.1144 35.9087 68.9969C35.9628 69.075 35.9935 69.1669 35.9974 69.2618C36.0013 69.3567 35.9783 69.4508 35.9309 69.5331C35.4961 70.3922 34.8245 71.043 34.1308 71.6794C33.9798 71.8096 33.8184 71.9398 33.657 72.0699C33.2106 72.4174 32.7264 72.4396 32.2253 72.2131C31.4407 71.8774 30.7062 71.435 30.0425 70.8985C29.967 70.836 29.872 70.7254 29.7822 70.7878C29.6924 70.8503 29.6767 72.0257 29.8004 72.2938C30.351 73.0747 31.5836 73.5798 31.5836 75.1378C31.5745 75.3981 31.5471 75.497 31.2334 75.4098C30.8393 75.3063 30.4343 75.2499 30.0269 75.2419C29.5062 75.2263 29.1444 75.2419 28.8685 74.8345C28.7383 74.6353 28.6537 74.5742 28.5066 74.8228C28.0836 75.5451 27.3352 75.2523 26.6453 75.3226C26.4526 75.3246 26.2613 75.3557 26.0779 75.415C25.8371 75.5165 25.7316 75.4397 25.7134 75.1664C25.677 74.6588 25.8761 74.2123 26.0713 73.7776C26.2991 73.2726 26.9629 72.7858 27.317 72.3458C27.671 71.9059 27.5161 71.3918 27.5265 70.7852Z" fill="#425CE6"/>
</g>
<g clip-path="url(#clip6_18_6281)">
<path d="M49.5761 72.1817C49.0005 72.6082 48.3954 72.9936 47.7656 73.3349C47.4758 73.4904 47.1704 73.6147 46.8545 73.7059C46.5824 73.7826 46.27 73.8113 46.0097 73.6317C44.9685 72.895 44.0639 72.0411 43.4664 70.8983C43.4261 70.8308 43.4054 70.7533 43.4068 70.6746C43.4082 70.596 43.4315 70.5193 43.4742 70.4532C44.0033 69.4954 44.7381 68.6668 45.6258 68.027C46.123 67.673 46.7594 67.6925 47.297 68.027C48.0025 68.4605 48.7509 68.821 49.4212 69.3104C49.5749 69.4072 49.7077 69.5337 49.8117 69.6826C49.7687 68.9915 49.8572 68.3889 49.2403 67.9541C48.7535 67.6114 48.3729 67.1387 48.1417 66.5901C48.0536 66.4004 48.0115 66.1926 48.019 65.9836C48.0264 65.7746 48.0832 65.5703 48.1847 65.3874C48.6689 64.4672 49.3939 63.7747 50.2334 63.1994C50.3873 63.1005 50.5675 63.0501 50.7504 63.055C50.9334 63.0599 51.1106 63.1197 51.259 63.2268C52.0709 63.7559 52.7462 64.4695 53.2296 65.3093C53.5212 65.8299 53.473 66.3311 53.1984 66.8283C52.9335 67.2939 52.5728 67.698 52.1402 68.014C51.9306 68.1728 51.7732 68.3342 51.7497 68.6088C51.7263 68.8835 51.5766 69.0982 51.5831 69.3638C51.5831 69.4275 51.5545 69.5095 51.6222 69.5499C51.6899 69.5902 51.7445 69.5226 51.7979 69.4822C52.5476 68.9082 53.3819 68.467 54.2019 68.0114C54.7902 67.6847 55.458 67.6769 56.0072 68.1416C56.7869 68.7705 57.448 69.5334 57.9596 70.3946C58.0133 70.4731 58.0438 70.5652 58.0477 70.6602C58.0517 70.7553 58.0288 70.8495 57.9817 70.9322C57.547 71.7899 56.8754 72.442 56.1803 73.0772C56.0306 73.2152 55.868 73.3375 55.7079 73.4677C55.2601 73.8139 54.7772 73.8373 54.2761 73.6095C53.4934 73.2741 52.761 72.8317 52.0999 72.2949C52.0244 72.2312 51.9293 72.1218 51.8395 72.1843C51.7497 72.2468 51.7354 73.4208 51.8591 73.6902C52.4096 74.4647 53.6422 74.9749 53.6422 76.5342C53.6331 76.7945 53.6045 76.8934 53.2921 76.8062C52.8981 76.702 52.493 76.6457 52.0855 76.6383C51.5649 76.6214 51.2031 76.6383 50.9271 76.2296C50.797 76.0305 50.7124 75.9693 50.564 76.2192C50.141 76.9416 49.3926 76.6487 48.7027 76.719C48.5103 76.7205 48.3194 76.7517 48.1365 76.8114C47.8957 76.913 47.7903 76.8349 47.7708 76.5615C47.7356 76.0539 47.9335 75.6088 48.13 75.1727C48.3578 74.669 49.0216 74.1822 49.3743 73.741C49.7271 73.2998 49.5657 72.7895 49.5761 72.1817ZM51.5285 64.9579C51.5728 64.9621 51.6174 64.9562 51.6591 64.9406C51.7008 64.925 51.7384 64.9002 51.7691 64.868C51.7998 64.8358 51.8228 64.7971 51.8363 64.7547C51.8499 64.7123 51.8536 64.6674 51.8473 64.6234C51.8343 64.4047 51.6899 64.3058 51.4777 64.3149C51.4348 64.3118 51.3917 64.3182 51.3514 64.3335C51.3112 64.3489 51.2748 64.3728 51.2448 64.4037C51.2148 64.4346 51.1919 64.4716 51.1777 64.5123C51.1636 64.5529 51.1584 64.5962 51.1627 64.639C51.1588 64.8681 51.2916 64.9605 51.5259 64.9579H51.5285ZM49.5943 64.7405C49.5943 64.859 49.7245 64.9722 49.9093 64.9709C49.9519 64.9759 49.9951 64.9709 50.0355 64.9564C50.0759 64.9418 50.1124 64.9181 50.142 64.8871C50.1717 64.856 50.1937 64.8185 50.2064 64.7775C50.2191 64.7365 50.2221 64.6931 50.2152 64.6507C50.2167 64.6048 50.2082 64.5591 50.1903 64.5169C50.1724 64.4746 50.1454 64.4368 50.1113 64.406C50.0772 64.3753 50.0368 64.3523 49.9929 64.3389C49.949 64.3254 49.9027 64.3216 49.8572 64.3279C49.6542 64.3344 49.5917 64.4672 49.5943 64.7405Z" fill="#FFB000"/>
<path d="M51.5259 64.9578C51.2916 64.9578 51.1589 64.868 51.1602 64.6389C51.1559 64.596 51.161 64.5526 51.1753 64.5118C51.1895 64.4711 51.2125 64.434 51.2427 64.4031C51.2728 64.3722 51.3094 64.3483 51.3498 64.333C51.3902 64.3178 51.4334 64.3115 51.4765 64.3148C51.6886 64.3057 51.8331 64.4046 51.8461 64.6233C51.8524 64.6674 51.8486 64.7125 51.835 64.7549C51.8214 64.7974 51.7983 64.8362 51.7674 64.8685C51.7366 64.9007 51.6988 64.9255 51.657 64.941C51.6151 64.9564 51.5703 64.9622 51.5259 64.9578Z" fill="#FFB000"/>
<path d="M49.5942 64.7405C49.5942 64.4672 49.6541 64.3344 49.8546 64.3227C49.9007 64.3159 49.9478 64.3194 49.9924 64.333C50.037 64.3466 50.078 64.3699 50.1125 64.4013C50.147 64.4327 50.1741 64.4714 50.1918 64.5145C50.2096 64.5576 50.2175 64.6041 50.2151 64.6507C50.2219 64.6926 50.2189 64.7355 50.2065 64.7761C50.1941 64.8166 50.1726 64.8538 50.1435 64.8848C50.1145 64.9157 50.0787 64.9395 50.039 64.9545C49.9993 64.9694 49.9567 64.975 49.9144 64.9709C49.7179 64.9722 49.5942 64.859 49.5942 64.7405Z" fill="#FFB000"/>
<path d="M50.2126 70.7852C49.6375 71.213 49.0324 71.5988 48.402 71.9398C48.1126 72.0962 47.8071 72.221 47.4909 72.312C47.2137 72.3888 46.9026 72.4161 46.641 72.2326C45.5997 71.4998 44.6951 70.646 44.0977 69.4993C44.0575 69.4319 44.0371 69.3545 44.0387 69.2761C44.0403 69.1976 44.0639 69.1211 44.1068 69.0554C44.6383 68.0961 45.3774 67.2676 46.27 66.6306C46.7673 66.2765 47.4037 66.2961 47.9413 66.6306C48.6389 67.0588 49.3939 67.4193 50.0577 67.9048C50.211 68.0015 50.3437 68.1276 50.4481 68.2758C50.4039 67.5846 50.4937 66.9833 49.8767 66.5473C49.3882 66.2071 49.006 65.7355 48.7743 65.1871C48.6859 64.9976 48.6436 64.7898 48.6509 64.5808C48.6581 64.3718 48.7147 64.1674 48.816 63.9845C49.3001 63.0642 50.0264 62.3718 50.8647 61.7965C51.0187 61.6977 51.1989 61.6476 51.3819 61.6527C51.5648 61.6578 51.742 61.7179 51.8903 61.8251C52.7023 62.3541 53.3776 63.0677 53.8609 63.9077C54.1538 64.4283 54.1056 64.9294 53.8297 65.4279C53.5666 65.8936 53.2083 66.2986 52.778 66.6163C52.5684 66.7738 52.4109 66.9352 52.3875 67.2098C52.3641 67.4844 52.2144 67.6992 52.2209 67.9647C52.2209 68.0285 52.1936 68.1105 52.2613 68.1508C52.3289 68.1912 52.3836 68.1248 52.4357 68.0845C53.1815 67.5144 54.0171 67.0679 54.8371 66.6124C55.4254 66.2857 56.0918 66.2792 56.6424 66.7425C57.4051 67.3933 58.0924 68.1144 58.5948 68.9969C58.6488 69.075 58.6795 69.1669 58.6834 69.2618C58.6874 69.3567 58.6643 69.4508 58.6169 69.5331C58.1822 70.3922 57.5106 71.043 56.8168 71.6794C56.6658 71.8096 56.5044 71.9398 56.343 72.0699C55.8966 72.4174 55.4124 72.4396 54.9113 72.2131C54.1267 71.8774 53.3922 71.435 52.7285 70.8985C52.653 70.836 52.558 70.7254 52.4682 70.7878C52.3784 70.8503 52.3628 72.0257 52.4864 72.2938C53.037 73.0747 54.2696 73.5798 54.2696 75.1378C54.2605 75.3981 54.2332 75.497 53.9195 75.4098C53.5253 75.3063 53.1203 75.2499 52.7129 75.2419C52.1923 75.2263 51.8304 75.2419 51.5545 74.8345C51.4243 74.6353 51.3397 74.5742 51.1927 74.8228C50.7696 75.5451 50.0212 75.2523 49.3314 75.3226C49.1386 75.3246 48.9473 75.3557 48.7639 75.415C48.5231 75.5165 48.4177 75.4397 48.3994 75.1664C48.363 74.6588 48.5621 74.2123 48.7574 73.7776C48.9852 73.2726 49.649 72.7858 50.003 72.3458C50.357 71.9059 50.2021 71.3918 50.2126 70.7852Z" fill="#425CE6"/>
</g>
</g>
<g clip-path="url(#clip7_18_6281)" filter="url(#filter1_d_18_6281)">
<g clip-path="url(#clip8_18_6281)">
<path d="M80.4049 5.38086H28.0239V80.6189H80.4049V5.38086Z" stroke="#CCCCCC" stroke-width="0.1875" stroke-miterlimit="10"/>
<path d="M40.1954 5.38086H28.0239V80.6189H40.1954V5.38086Z" stroke="#CCCCCC" stroke-width="0.1875" stroke-miterlimit="10"/>
<path d="M40.1954 16.4731H28.0239V18.6636H40.1954V16.4731Z" stroke="#CCCCCC" stroke-width="0.1875" stroke-miterlimit="10"/>
<path d="M80.405 78.4287H35.5034V80.6192H80.405V78.4287Z" stroke="#CCCCCC" stroke-width="0.1875" stroke-miterlimit="10"/>
<path d="M78.535 14.2827H40.1953V78.4287H78.535V14.2827Z" stroke="#CCCCCC" stroke-width="0.1875" stroke-miterlimit="10"/>
<path d="M70.7099 20.0889H48.021V69.2762H70.7099V20.0889Z" stroke="#CCCCCC" stroke-width="0.16875" stroke-miterlimit="10"/>
<path d="M48.021 36.4858H70.7099" stroke="#CCCCCC" stroke-width="0.16875" stroke-miterlimit="10"/>
<path d="M48.021 52.8794H70.7099" stroke="#CCCCCC" stroke-width="0.16875" stroke-miterlimit="10"/>
<path d="M48.021 44.6826H70.7099" stroke="#CCCCCC" stroke-width="0.16875" stroke-miterlimit="10"/>
<path d="M59.3638 69.2762V20.0889" stroke="#CCCCCC" stroke-width="0.16875" stroke-miterlimit="10"/>
<path d="M70.7099 44.6825L59.3639 20.0889L48.021 44.6825L59.3639 69.2762L70.7099 44.6825Z" stroke="#CCCCCC" stroke-width="0.16875" stroke-miterlimit="10"/>
<path d="M48.021 20.0889L70.7099 36.4857" stroke="#CCCCCC" stroke-width="0.16875" stroke-miterlimit="10"/>
<path d="M48.021 36.4857L70.7099 20.0889" stroke="#CCCCCC" stroke-width="0.16875" stroke-miterlimit="10"/>
<path d="M48.021 36.4858L70.7099 52.8795" stroke="#CCCCCC" stroke-width="0.16875" stroke-miterlimit="10"/>
<path d="M48.021 52.8795L70.7099 36.4858" stroke="#CCCCCC" stroke-width="0.16875" stroke-miterlimit="10"/>
<path d="M48.021 52.8794L70.7099 69.2762" stroke="#CCCCCC" stroke-width="0.16875" stroke-miterlimit="10"/>
<path d="M48.021 69.2762L70.7099 52.8794" stroke="#CCCCCC" stroke-width="0.16875" stroke-miterlimit="10"/>
<path d="M78.9764 3H29.4526C27.3486 3 25.6431 4.70558 25.6431 6.80952V79.1905C25.6431 81.2944 27.3486 83 29.4526 83H78.9764C81.0803 83 82.7859 81.2944 82.7859 79.1905V6.80952C82.7859 4.70558 81.0803 3 78.9764 3Z" fill="#FFF4D7"/>
</g>
<g clip-path="url(#clip9_18_6281)">
<path d="M34.6528 25.8193L38.021 22.6892C38.1445 22.575 38.2431 22.4366 38.3105 22.2825C38.3779 22.1284 38.4127 21.9621 38.4127 21.7939C38.4127 21.6258 38.3779 21.4594 38.3105 21.3053C38.2431 21.1513 38.1445 21.0128 38.021 20.8987L34.6528 17.7527C34.5885 17.6917 34.5033 17.6577 34.4147 17.6577C34.3261 17.6577 34.2409 17.6917 34.1766 17.7527L30.7925 20.8987C30.6694 21.0131 30.5712 21.1516 30.5041 21.3056C30.437 21.4597 30.4023 21.6259 30.4023 21.7939C30.4023 21.9619 30.437 22.1282 30.5041 22.2822C30.5712 22.4362 30.6694 22.5748 30.7925 22.6892L34.1766 25.8193C34.2416 25.8789 34.3265 25.9119 34.4147 25.9119C34.5029 25.9119 34.5878 25.8789 34.6528 25.8193Z" fill="#EA8F00"/>
<path d="M34.475 24.8919C33.767 24.1332 33.0876 23.4031 32.4051 22.6697C32.2654 22.5205 32.1194 22.3777 31.9734 22.238C31.8299 22.0641 31.7551 21.8437 31.7633 21.6184C31.7715 21.3931 31.8621 21.1787 32.0178 21.0158C32.7257 20.2888 33.44 19.5618 34.148 18.8221C34.1764 18.7762 34.2162 18.7383 34.2634 18.712C34.3106 18.6857 34.3638 18.6719 34.4178 18.6719C34.4719 18.6719 34.525 18.6857 34.5722 18.712C34.6195 18.7383 34.6592 18.7762 34.6876 18.8221C35.421 19.6475 36.1638 20.4697 36.8813 21.3078C37.1988 21.6729 37.0908 21.9967 36.7289 22.3808C36.094 23.0538 35.5003 23.7618 34.8845 24.4538C34.767 24.5935 34.64 24.7205 34.475 24.8919Z" fill="#EA8F00"/>
</g>
<path d="M35.6528 6.31104V12.9555H36.6813L36.4369 14.1777H35.6528V15.4094H36.2464V16.4729H33.1163V15.4094H33.7099V14.1777H30.9131V12.9079L34.3639 6.31104H35.6528ZM31.9448 12.9555H33.7099V9.30786L31.9448 12.9555Z" fill="#EA8F00"/>
<g clip-path="url(#clip10_18_6281)">
<path d="M47.9711 30.5467C47.638 30.5822 47.4701 30.3365 47.2776 30.1058C46.4586 29.1161 45.9753 27.9216 45.3665 26.8146C45.2785 26.6426 45.155 26.4912 45.0042 26.3705C44.8533 26.2498 44.6786 26.1624 44.4915 26.1143C43.3585 25.7839 42.2937 25.2515 41.1552 24.9512C40.9722 24.8973 40.8031 24.8041 40.6597 24.6782C40.5331 24.5889 40.442 24.4578 40.4026 24.308C40.3631 24.1582 40.3778 23.9992 40.444 23.8592C40.6174 23.4182 40.9341 23.0852 41.2631 22.7671C42.181 21.9128 43.2443 21.2295 44.4027 20.7495C44.8969 20.5352 45.1426 20.2171 45.2969 19.7162C45.6477 18.5722 46.1541 17.4993 47.0128 16.6338C47.6298 16.0127 48.3151 16.0127 48.9334 16.6338C49.7894 17.4993 50.2985 18.5736 50.648 19.7162C50.7981 20.2008 51.0302 20.5188 51.5134 20.7318C52.8471 21.3215 54.0893 22.0655 55.0708 23.1766C55.864 24.0735 55.722 24.6782 54.5821 25.0045C53.4873 25.3321 52.4567 25.8495 51.3524 26.1511C51.1895 26.1983 51.0384 26.2794 50.909 26.389C50.7796 26.4986 50.6749 26.6343 50.6016 26.7873C49.9777 27.9066 49.4931 29.1079 48.6686 30.1112C48.4024 30.4361 48.2809 30.5426 47.9711 30.5467ZM47.3322 18.2678C47.2926 18.1381 47.2476 18.003 47.0742 17.9948C46.9008 17.9866 46.7739 18.0439 46.7657 18.2419C46.7657 18.4098 46.8039 18.5545 46.9937 18.5736C47.1834 18.5927 47.2708 18.4425 47.3322 18.2678ZM48.8338 18.519C49.0222 18.519 49.1068 18.4221 49.1068 18.2337C49.1068 18.0453 49.0263 17.9525 48.8611 17.9607C48.7835 17.9635 48.71 17.9964 48.6563 18.0525C48.6025 18.1085 48.5727 18.1833 48.5731 18.261C48.569 18.2962 48.5731 18.3319 48.5849 18.3653C48.5967 18.3987 48.616 18.429 48.6412 18.4539C48.6665 18.4787 48.6971 18.4975 48.7307 18.5088C48.7643 18.5201 48.8 18.5236 48.8352 18.519H48.8338Z" fill="#425CE6"/>
<path d="M47.3325 18.2676C47.271 18.4424 47.196 18.5925 46.9939 18.5734C46.7919 18.5543 46.7591 18.4096 46.766 18.2417C46.7741 18.0438 46.9025 17.9851 47.0745 17.9946C47.2465 18.0042 47.2929 18.138 47.3325 18.2676Z" fill="#425CE6"/>
<path d="M48.834 18.519C48.799 18.5233 48.7634 18.5197 48.73 18.5083C48.6965 18.4969 48.6661 18.4781 48.641 18.4532C48.6159 18.4284 48.5968 18.3982 48.585 18.3649C48.5733 18.3316 48.5693 18.296 48.5733 18.261C48.5733 18.1826 48.604 18.1074 48.6589 18.0515C48.7138 17.9956 48.7884 17.9634 48.8668 17.962C49.0319 17.9525 49.1138 18.0617 49.1125 18.235C49.1111 18.4084 49.0237 18.5176 48.834 18.519Z" fill="#425CE6"/>
<path d="M48.5853 28.3381C48.2522 28.3736 48.0843 28.1279 47.8919 27.8972C47.0728 26.9075 46.5896 25.7131 45.9808 24.6046C45.8926 24.4336 45.7696 24.283 45.6195 24.1626C45.4695 24.0422 45.2959 23.9547 45.1098 23.9057C43.9727 23.5753 42.9121 23.043 41.7695 22.7426C41.587 22.6907 41.418 22.5999 41.274 22.4765C41.1473 22.3872 41.0563 22.2561 41.0168 22.1062C40.9774 21.9564 40.992 21.7975 41.0583 21.6574C41.2316 21.2151 41.5483 20.8834 41.8773 20.5653C42.7968 19.7094 43.8626 19.0256 45.0238 18.5464C45.518 18.3321 45.7637 18.014 45.918 17.513C46.2647 16.3691 46.7711 15.2948 47.6298 14.4307C48.2468 13.8096 48.9321 13.8096 49.5504 14.4307C50.4063 15.2961 50.9155 16.3705 51.265 17.513C51.4151 17.9976 51.6472 18.3157 52.1304 18.5286C53.4641 19.1184 54.7063 19.8623 55.6878 20.9735C56.4809 21.8704 56.339 22.4751 55.1991 22.8013C54.0975 23.1194 53.071 23.6368 51.9666 23.9385C51.8037 23.9856 51.6527 24.0667 51.5233 24.1763C51.3939 24.2859 51.2891 24.4217 51.2158 24.5746C50.592 25.6939 50.1074 26.8952 49.2829 27.8986C49.0167 28.2275 48.8952 28.334 48.5853 28.3381Z" fill="#FFB000"/>
</g>
<g clip-path="url(#clip11_18_6281)">
<path d="M70.3934 30.5467C70.0603 30.5822 69.8924 30.3365 69.7 30.1058C68.8809 29.1161 68.3977 27.9216 67.7889 26.8146C67.7009 26.6426 67.5774 26.4912 67.4265 26.3705C67.2757 26.2498 67.1009 26.1624 66.9138 26.1143C65.7808 25.7839 64.7161 25.2515 63.5776 24.9512C63.3946 24.8973 63.2255 24.8041 63.0821 24.6782C62.9554 24.5889 62.8644 24.4578 62.8249 24.308C62.7855 24.1582 62.8001 23.9992 62.8664 23.8592C63.0397 23.4182 63.3564 23.0852 63.6854 22.7671C64.6034 21.9128 65.6667 21.2295 66.8251 20.7495C67.3193 20.5352 67.565 20.2171 67.7192 19.7162C68.0701 18.5722 68.5765 17.4993 69.4351 16.6338C70.0522 16.0127 70.7374 16.0127 71.3558 16.6338C72.2117 17.4993 72.7209 18.5736 73.0703 19.7162C73.2205 20.2008 73.4526 20.5188 73.9358 20.7318C75.2695 21.3215 76.5117 22.0655 77.4932 23.1766C78.2863 24.0735 78.1443 24.6782 77.0045 25.0045C75.9097 25.3321 74.8791 25.8495 73.7747 26.1511C73.6118 26.1983 73.4608 26.2794 73.3314 26.389C73.202 26.4986 73.0972 26.6343 73.0239 26.7873C72.4001 27.9066 71.9155 29.1079 71.091 30.1112C70.8248 30.4361 70.7033 30.5426 70.3934 30.5467ZM69.7546 18.2678C69.715 18.1381 69.6699 18.003 69.4966 17.9948C69.3232 17.9866 69.1963 18.0439 69.1881 18.2419C69.1881 18.4098 69.2263 18.5545 69.416 18.5736C69.6058 18.5927 69.6931 18.4425 69.7546 18.2678ZM71.2562 18.519C71.4445 18.519 71.5292 18.4221 71.5292 18.2337C71.5292 18.0453 71.4486 17.9525 71.2835 17.9607C71.2058 17.9635 71.1324 17.9964 71.0786 18.0525C71.0249 18.1085 70.995 18.1833 70.9954 18.261C70.9914 18.2962 70.9954 18.3319 71.0073 18.3653C71.0191 18.3987 71.0383 18.429 71.0636 18.4539C71.0889 18.4787 71.1194 18.4975 71.153 18.5088C71.1866 18.5201 71.2224 18.5236 71.2575 18.519H71.2562Z" fill="#425CE6"/>
<path d="M69.7548 18.2676C69.6934 18.4424 69.6183 18.5925 69.4163 18.5734C69.2143 18.5543 69.1815 18.4096 69.1883 18.2417C69.1965 18.0438 69.3248 17.9851 69.4968 17.9946C69.6688 18.0042 69.7152 18.138 69.7548 18.2676Z" fill="#425CE6"/>
<path d="M71.2564 18.519C71.2213 18.5233 71.1857 18.5197 71.1523 18.5083C71.1189 18.4969 71.0885 18.4781 71.0634 18.4532C71.0383 18.4284 71.0191 18.3982 71.0074 18.3649C70.9957 18.3316 70.9916 18.296 70.9956 18.261C70.9956 18.1826 71.0264 18.1074 71.0813 18.0515C71.1361 17.9956 71.2108 17.9634 71.2891 17.962C71.4543 17.9525 71.5362 18.0617 71.5348 18.235C71.5335 18.4084 71.4461 18.5176 71.2564 18.519Z" fill="#425CE6"/>
<path d="M71.0077 28.3381C70.6746 28.3736 70.5067 28.1279 70.3142 27.8972C69.4952 26.9075 69.0119 25.7131 68.4031 24.6046C68.315 24.4336 68.1919 24.283 68.0419 24.1626C67.8919 24.0422 67.7182 23.9547 67.5322 23.9057C66.3951 23.5753 65.3344 23.043 64.1918 22.7426C64.0094 22.6907 63.8404 22.5999 63.6963 22.4765C63.5697 22.3872 63.4786 22.2561 63.4392 22.1062C63.3997 21.9564 63.4144 21.7975 63.4806 21.6574C63.654 21.2151 63.9707 20.8834 64.2997 20.5653C65.2192 19.7094 66.2849 19.0256 67.4462 18.5464C67.9404 18.3321 68.1861 18.014 68.3403 17.513C68.6871 16.3691 69.1935 15.2948 70.0521 14.4307C70.6691 13.8096 71.3544 13.8096 71.9728 14.4307C72.8287 15.2961 73.3379 16.3705 73.6873 17.513C73.8375 17.9976 74.0696 18.3157 74.5528 18.5286C75.8865 19.1184 77.1287 19.8623 78.1102 20.9735C78.9033 21.8704 78.7613 22.4751 77.6215 22.8013C76.5199 23.1194 75.4933 23.6368 74.389 23.9385C74.2261 23.9856 74.075 24.0667 73.9456 24.1763C73.8162 24.2859 73.7115 24.4217 73.6382 24.5746C73.0144 25.6939 72.5297 26.8952 71.7052 27.8986C71.4391 28.2275 71.3176 28.334 71.0077 28.3381Z" fill="#FFB000"/>
</g>
<g clip-path="url(#clip12_18_6281)">
<path d="M47.9711 77.6483C47.638 77.6837 47.4701 77.438 47.2776 77.2073C46.4586 76.2176 45.9753 75.0232 45.3665 73.9161C45.2785 73.7441 45.155 73.5928 45.0042 73.472C44.8533 73.3513 44.6786 73.264 44.4915 73.2158C43.3585 72.8855 42.2937 72.3531 41.1552 72.0528C40.9722 71.9988 40.8031 71.9057 40.6597 71.7798C40.5331 71.6905 40.442 71.5594 40.4026 71.4096C40.3631 71.2597 40.3778 71.1008 40.444 70.9607C40.6174 70.5198 40.9341 70.1867 41.2631 69.8687C42.181 69.0144 43.2443 68.3311 44.4027 67.8511C44.8969 67.6368 45.1426 67.3187 45.2969 66.8177C45.6477 65.6738 46.1541 64.6008 47.0128 63.7354C47.6298 63.1143 48.3151 63.1143 48.9334 63.7354C49.7894 64.6008 50.2985 65.6751 50.648 66.8177C50.7981 67.3023 51.0302 67.6204 51.5134 67.8333C52.8471 68.423 54.0893 69.167 55.0708 70.2782C55.864 71.175 55.722 71.7798 54.5821 72.106C53.4873 72.4337 52.4567 72.951 51.3524 73.2527C51.1895 73.2999 51.0384 73.3809 50.909 73.4906C50.7796 73.6002 50.6749 73.7359 50.6016 73.8888C49.9777 75.0082 49.4931 76.2095 48.6686 77.2128C48.4024 77.5377 48.2809 77.6442 47.9711 77.6483ZM47.3322 65.3694C47.2926 65.2397 47.2476 65.1045 47.0742 65.0963C46.9008 65.0882 46.7739 65.1455 46.7657 65.3434C46.7657 65.5113 46.8039 65.656 46.9937 65.6751C47.1834 65.6943 47.2708 65.5441 47.3322 65.3694ZM48.8338 65.6205C49.0222 65.6205 49.1068 65.5236 49.1068 65.3352C49.1068 65.1469 49.0263 65.054 48.8611 65.0622C48.7835 65.0651 48.71 65.098 48.6563 65.154C48.6025 65.2101 48.5727 65.2849 48.5731 65.3625C48.569 65.3978 48.5731 65.4334 48.5849 65.4668C48.5967 65.5003 48.616 65.5306 48.6412 65.5554C48.6665 65.5803 48.6971 65.5991 48.7307 65.6104C48.7643 65.6216 48.8 65.6251 48.8352 65.6205H48.8338Z" fill="#425CE6"/>
<path d="M47.3325 65.3692C47.271 65.5439 47.196 65.6941 46.9939 65.675C46.7919 65.6559 46.7591 65.5112 46.766 65.3433C46.7741 65.1453 46.9025 65.0866 47.0745 65.0962C47.2465 65.1058 47.2929 65.2395 47.3325 65.3692Z" fill="#425CE6"/>
<path d="M48.834 65.6205C48.799 65.6249 48.7634 65.6212 48.73 65.6098C48.6965 65.5985 48.6661 65.5796 48.641 65.5548C48.6159 65.53 48.5968 65.4998 48.585 65.4664C48.5733 65.4331 48.5693 65.3976 48.5733 65.3625C48.5733 65.2842 48.604 65.2089 48.6589 65.153C48.7138 65.0971 48.7884 65.065 48.8668 65.0636C49.0319 65.054 49.1138 65.1632 49.1125 65.3366C49.1111 65.5099 49.0237 65.6192 48.834 65.6205Z" fill="#425CE6"/>
<path d="M48.5853 75.4397C48.2522 75.4752 48.0843 75.2294 47.8919 74.9987C47.0728 74.0091 46.5896 72.8146 45.9808 71.7062C45.8926 71.5352 45.7696 71.3846 45.6195 71.2642C45.4695 71.1438 45.2959 71.0563 45.1098 71.0073C43.9727 70.6769 42.9121 70.1445 41.7695 69.8442C41.587 69.7923 41.418 69.7015 41.274 69.578C41.1473 69.4887 41.0563 69.3576 41.0168 69.2078C40.9774 69.058 40.992 68.899 41.0583 68.759C41.2316 68.3167 41.5483 67.985 41.8773 67.6669C42.7968 66.811 43.8626 66.1271 45.0238 65.648C45.518 65.4336 45.7637 65.1156 45.918 64.6146C46.2647 63.4707 46.7711 62.3963 47.6298 61.5322C48.2468 60.9111 48.9321 60.9111 49.5504 61.5322C50.4063 62.3977 50.9155 63.472 51.265 64.6146C51.4151 65.0992 51.6472 65.4173 52.1304 65.6302C53.4641 66.2199 54.7063 66.9639 55.6878 68.0751C56.4809 68.9719 56.339 69.5767 55.1991 69.9029C54.0975 70.221 53.071 70.7383 51.9666 71.04C51.8037 71.0872 51.6527 71.1683 51.5233 71.2779C51.3939 71.3875 51.2891 71.5232 51.2158 71.6761C50.592 72.7955 50.1074 73.9968 49.2829 75.0001C49.0167 75.3291 48.8952 75.4356 48.5853 75.4397Z" fill="#FFB000"/>
</g>
<g clip-path="url(#clip13_18_6281)">
<path d="M70.3934 77.6483C70.0603 77.6837 69.8924 77.438 69.7 77.2073C68.8809 76.2176 68.3977 75.0232 67.7889 73.9161C67.7009 73.7441 67.5774 73.5928 67.4265 73.472C67.2757 73.3513 67.1009 73.264 66.9138 73.2158C65.7808 72.8855 64.7161 72.3531 63.5776 72.0528C63.3946 71.9988 63.2255 71.9057 63.0821 71.7798C62.9554 71.6905 62.8644 71.5594 62.8249 71.4096C62.7855 71.2597 62.8001 71.1008 62.8664 70.9607C63.0397 70.5198 63.3564 70.1867 63.6854 69.8687C64.6034 69.0144 65.6667 68.3311 66.8251 67.8511C67.3193 67.6368 67.565 67.3187 67.7192 66.8177C68.0701 65.6738 68.5765 64.6008 69.4351 63.7354C70.0522 63.1143 70.7374 63.1143 71.3558 63.7354C72.2117 64.6008 72.7209 65.6751 73.0703 66.8177C73.2205 67.3023 73.4526 67.6204 73.9358 67.8333C75.2695 68.423 76.5117 69.167 77.4932 70.2782C78.2863 71.175 78.1443 71.7798 77.0045 72.106C75.9097 72.4337 74.8791 72.951 73.7747 73.2527C73.6118 73.2999 73.4608 73.3809 73.3314 73.4906C73.202 73.6002 73.0972 73.7359 73.0239 73.8888C72.4001 75.0082 71.9155 76.2095 71.091 77.2128C70.8248 77.5377 70.7033 77.6442 70.3934 77.6483ZM69.7546 65.3694C69.715 65.2397 69.6699 65.1045 69.4966 65.0963C69.3232 65.0882 69.1963 65.1455 69.1881 65.3434C69.1881 65.5113 69.2263 65.656 69.416 65.6751C69.6058 65.6943 69.6931 65.5441 69.7546 65.3694ZM71.2562 65.6205C71.4445 65.6205 71.5292 65.5236 71.5292 65.3352C71.5292 65.1469 71.4486 65.054 71.2835 65.0622C71.2058 65.0651 71.1324 65.098 71.0786 65.154C71.0249 65.2101 70.995 65.2849 70.9954 65.3625C70.9914 65.3978 70.9954 65.4334 71.0073 65.4668C71.0191 65.5003 71.0383 65.5306 71.0636 65.5554C71.0889 65.5803 71.1194 65.5991 71.153 65.6104C71.1866 65.6216 71.2224 65.6251 71.2575 65.6205H71.2562Z" fill="#425CE6"/>
<path d="M69.7548 65.3692C69.6934 65.5439 69.6183 65.6941 69.4163 65.675C69.2143 65.6559 69.1815 65.5112 69.1883 65.3433C69.1965 65.1453 69.3248 65.0866 69.4968 65.0962C69.6688 65.1058 69.7152 65.2395 69.7548 65.3692Z" fill="#425CE6"/>
<path d="M71.2564 65.6205C71.2213 65.6249 71.1857 65.6212 71.1523 65.6098C71.1189 65.5985 71.0885 65.5796 71.0634 65.5548C71.0383 65.53 71.0191 65.4998 71.0074 65.4664C70.9957 65.4331 70.9916 65.3976 70.9956 65.3625C70.9956 65.2842 71.0264 65.2089 71.0813 65.153C71.1361 65.0971 71.2108 65.065 71.2891 65.0636C71.4543 65.054 71.5362 65.1632 71.5348 65.3366C71.5335 65.5099 71.4461 65.6192 71.2564 65.6205Z" fill="#425CE6"/>
<path d="M71.0077 75.4397C70.6746 75.4752 70.5067 75.2294 70.3142 74.9987C69.4952 74.0091 69.0119 72.8146 68.4031 71.7062C68.315 71.5352 68.1919 71.3846 68.0419 71.2642C67.8919 71.1438 67.7182 71.0563 67.5322 71.0073C66.3951 70.6769 65.3344 70.1445 64.1918 69.8442C64.0094 69.7923 63.8404 69.7015 63.6963 69.578C63.5697 69.4887 63.4786 69.3576 63.4392 69.2078C63.3997 69.058 63.4144 68.899 63.4806 68.759C63.654 68.3167 63.9707 67.985 64.2997 67.6669C65.2192 66.811 66.2849 66.1271 67.4462 65.648C67.9404 65.4336 68.1861 65.1156 68.3403 64.6146C68.6871 63.4707 69.1935 62.3963 70.0521 61.5322C70.6691 60.9111 71.3544 60.9111 71.9728 61.5322C72.8287 62.3977 73.3379 63.472 73.6873 64.6146C73.8375 65.0992 74.0696 65.4173 74.5528 65.6302C75.8865 66.2199 77.1287 66.9639 78.1102 68.0751C78.9033 68.9719 78.7613 69.5767 77.6215 69.9029C76.5199 70.221 75.4933 70.7383 74.389 71.04C74.2261 71.0872 74.075 71.1683 73.9456 71.2779C73.8162 71.3875 73.7115 71.5232 73.6382 71.6761C73.0144 72.7955 72.5297 73.9968 71.7052 75.0001C71.4391 75.3291 71.3176 75.4356 71.0077 75.4397Z" fill="#FFB000"/>
</g>
</g>
<g clip-path="url(#clip14_18_6281)" filter="url(#filter2_d_18_6281)">
<g clip-path="url(#clip15_18_6281)">
<path d="M100.047 5.38086H47.6665V80.6189H100.047V5.38086Z" stroke="#CCCCCC" stroke-width="0.1875" stroke-miterlimit="10"/>
<path d="M59.8379 5.38086H47.6665V80.6189H59.8379V5.38086Z" stroke="#CCCCCC" stroke-width="0.1875" stroke-miterlimit="10"/>
<path d="M59.8379 16.4731H47.6665V18.6636H59.8379V16.4731Z" stroke="#CCCCCC" stroke-width="0.1875" stroke-miterlimit="10"/>
<path d="M100.048 78.4287H55.146V80.6192H100.048V78.4287Z" stroke="#CCCCCC" stroke-width="0.1875" stroke-miterlimit="10"/>
<path d="M98.1776 14.2827H59.8379V78.4287H98.1776V14.2827Z" stroke="#CCCCCC" stroke-width="0.1875" stroke-miterlimit="10"/>
<path d="M90.3525 20.0889H67.6636V69.2762H90.3525V20.0889Z" stroke="#CCCCCC" stroke-width="0.16875" stroke-miterlimit="10"/>
<path d="M67.6636 36.4858H90.3525" stroke="#CCCCCC" stroke-width="0.16875" stroke-miterlimit="10"/>
<path d="M67.6636 52.8794H90.3525" stroke="#CCCCCC" stroke-width="0.16875" stroke-miterlimit="10"/>
<path d="M67.6636 44.6826H90.3525" stroke="#CCCCCC" stroke-width="0.16875" stroke-miterlimit="10"/>
<path d="M79.0063 69.2762V20.0889" stroke="#CCCCCC" stroke-width="0.16875" stroke-miterlimit="10"/>
<path d="M90.3525 44.6825L79.0064 20.0889L67.6636 44.6825L79.0064 69.2762L90.3525 44.6825Z" stroke="#CCCCCC" stroke-width="0.16875" stroke-miterlimit="10"/>
<path d="M67.6636 20.0889L90.3525 36.4857" stroke="#CCCCCC" stroke-width="0.16875" stroke-miterlimit="10"/>
<path d="M67.6636 36.4857L90.3525 20.0889" stroke="#CCCCCC" stroke-width="0.16875" stroke-miterlimit="10"/>
<path d="M67.6636 36.4858L90.3525 52.8795" stroke="#CCCCCC" stroke-width="0.16875" stroke-miterlimit="10"/>
<path d="M67.6636 52.8795L90.3525 36.4858" stroke="#CCCCCC" stroke-width="0.16875" stroke-miterlimit="10"/>
<path d="M67.6636 52.8794L90.3525 69.2762" stroke="#CCCCCC" stroke-width="0.16875" stroke-miterlimit="10"/>
<path d="M67.6636 69.2762L90.3525 52.8794" stroke="#CCCCCC" stroke-width="0.16875" stroke-miterlimit="10"/>
<path d="M98.619 3H49.0952C46.9912 3 45.2856 4.70558 45.2856 6.80952V79.1905C45.2856 81.2944 46.9912 83 49.0952 83H98.619C100.723 83 102.429 81.2944 102.429 79.1905V6.80952C102.429 4.70558 100.723 3 98.619 3Z" fill="#FFF4D7"/>
</g>
<g clip-path="url(#clip16_18_6281)">
<path d="M58.2763 20.8637L56.2763 18.0066C56.2435 17.9593 56.2018 17.9189 56.1535 17.8877C56.1051 17.8565 56.0511 17.8351 55.9945 17.8248C55.9379 17.8145 55.8798 17.8154 55.8236 17.8275C55.7674 17.8397 55.7141 17.8627 55.6667 17.8955L54.454 18.7336C54.3374 18.8141 54.199 18.8573 54.0572 18.8573C53.9155 18.8573 53.777 18.8141 53.6604 18.7336L52.4509 17.8955C52.3552 17.8289 52.2371 17.8029 52.1223 17.8231C52.0075 17.8433 51.9053 17.9081 51.8382 18.0034L49.8413 20.8637C49.7845 20.946 49.7573 21.0452 49.7642 21.145C49.7712 21.2448 49.8118 21.3393 49.8794 21.4129L53.7334 25.6098C53.7743 25.6528 53.8236 25.6871 53.8781 25.7105C53.9327 25.7339 53.9915 25.746 54.0509 25.746C54.1102 25.746 54.169 25.7339 54.2236 25.7105C54.2782 25.6871 54.3274 25.6528 54.3683 25.6098L58.2382 21.4129C58.3058 21.3393 58.3464 21.2448 58.3534 21.145C58.3603 21.0452 58.3331 20.946 58.2763 20.8637Z" fill="#EA8F00"/>
<path d="M54.1589 24.6635C54.0465 24.6143 53.94 24.5525 53.8414 24.4794L51.0319 21.6604C50.9711 21.6092 50.9216 21.5461 50.8865 21.4748C50.8513 21.4036 50.8313 21.3258 50.8277 21.2465C50.8242 21.1671 50.8371 21.0879 50.8657 21.0138C50.8942 20.9397 50.9379 20.8723 50.9938 20.8159C51.3494 20.3302 51.7145 19.8318 52.0795 19.3492C52.1496 19.2504 52.2433 19.1708 52.352 19.1176C52.4608 19.0643 52.5812 19.0393 52.7022 19.0446C52.8232 19.05 52.9409 19.0857 53.0445 19.1483C53.1482 19.2109 53.2344 19.2986 53.2954 19.4032C53.4889 19.624 53.7098 19.8192 53.9526 19.9842C54.0192 20.0318 54.2129 19.9842 54.2954 19.9143C54.6176 19.6603 54.921 19.3834 55.2033 19.0858C55.4891 18.7683 55.7303 18.8731 55.9303 19.127C56.378 19.6921 56.8002 20.2699 57.216 20.8572C57.2513 20.9122 57.2736 20.9745 57.2813 21.0394C57.289 21.1043 57.2819 21.1701 57.2605 21.2318C57.0281 21.5925 56.7703 21.9362 56.4891 22.2604C56.2097 22.5778 55.8922 22.8667 55.5907 23.1651C55.2891 23.4635 54.8986 23.8381 54.5621 24.181C54.4224 24.3365 54.3018 24.4985 54.1589 24.6635Z" fill="#EA8F00"/>
</g>
<path d="M55.2953 6.31104V12.9555H56.3239L56.0795 14.1777H55.2953V15.4094H55.889V16.4729H52.7588V15.4094H53.3525V14.1777H50.5557V12.9079L54.0065 6.31104H55.2953ZM51.5874 12.9555H53.3525V9.30786L51.5874 12.9555Z" fill="#EA8F00"/>
<g clip-path="url(#clip17_18_6281)">
<path d="M60.3353 19.4259C60.5182 18.6335 62.1779 16.7402 62.9106 16.2513C63.4871 15.8703 64.2579 15.8449 64.9258 16.0519C65.4942 16.2228 66.0515 16.429 66.5944 16.6691C66.67 16.7152 66.7557 16.7424 66.8441 16.7484C66.9326 16.7543 67.0211 16.7389 67.1023 16.7034C67.7416 16.4266 68.3952 16.1841 69.0604 15.977C69.6204 15.8018 70.1321 15.784 70.6794 16.1586C71.8579 16.9675 72.6553 17.7903 73.3321 19.1592C73.7131 19.8081 73.3563 20.8278 73.0883 21.3091C72.3823 22.5789 68.3328 25.638 67.9785 25.9656C67.7588 26.1713 67.1163 28.584 67.0452 28.8938C67.0121 29.0424 66.9766 29.1821 66.8534 29.1922C66.6896 29.2049 66.6718 29.003 66.6502 28.8888C66.3899 27.4602 66.0267 26.2615 65.7106 25.8881C65.3944 25.5148 61.3563 22.5268 60.7277 21.3726C60.2807 20.6119 60.1791 20.0976 60.3353 19.4259Z" fill="#425CE6"/>
<path d="M62.1522 16.6564C62.3364 15.864 63.996 13.9694 64.7287 13.4818C65.3052 13.1059 66.0748 13.0805 66.7427 13.2875C67.3115 13.4586 67.8692 13.6648 68.4125 13.9047C68.4883 13.9505 68.574 13.9775 68.6623 13.9835C68.7507 13.9895 68.8392 13.9742 68.9205 13.939C69.5613 13.6624 70.2162 13.4195 70.8824 13.2113C71.4411 13.0374 71.9554 13.0196 72.5027 13.3942C73.676 14.198 74.4735 15.0247 75.1503 16.3936C75.5313 17.0424 75.1744 18.0609 74.9065 18.5421C74.2005 19.8043 70.151 22.8697 69.7903 23.1961C69.5681 23.4005 68.9294 25.8107 68.8583 26.1243C68.8252 26.2729 68.7897 26.4113 68.6652 26.4215C68.5027 26.4355 68.4849 26.2336 68.4633 26.1193C68.2068 24.6894 67.8449 23.492 67.5287 23.1237C67.2125 22.7555 63.1744 19.7574 62.5522 18.6031C62.0989 17.8424 61.9973 17.3269 62.1522 16.6564Z" fill="#FFB000"/>
</g>
<g clip-path="url(#clip18_18_6281)">
<path d="M82.4178 19.4259C82.6007 18.6335 84.2604 16.7402 84.9931 16.2513C85.5696 15.8703 86.3404 15.8449 87.0083 16.0519C87.5768 16.2228 88.134 16.429 88.6769 16.6691C88.7526 16.7152 88.8382 16.7424 88.9267 16.7484C89.0151 16.7543 89.1036 16.7389 89.1848 16.7034C89.8241 16.4266 90.4778 16.1841 91.1429 15.977C91.7029 15.8018 92.2147 15.784 92.762 16.1586C93.9404 16.9675 94.7378 17.7903 95.4147 19.1592C95.7956 19.8081 95.4388 20.8278 95.1709 21.3091C94.4648 22.5789 90.4153 25.638 90.061 25.9656C89.8413 26.1713 89.1988 28.584 89.1277 28.8938C89.0947 29.0424 89.0591 29.1821 88.9359 29.1922C88.7721 29.2049 88.7543 29.003 88.7328 28.8888C88.4724 27.4602 88.1093 26.2615 87.7931 25.8881C87.4769 25.5148 83.4388 22.5268 82.8102 21.3726C82.3632 20.6119 82.2616 20.0976 82.4178 19.4259Z" fill="#425CE6"/>
<path d="M84.2347 16.6564C84.4189 15.864 86.0786 13.9694 86.8113 13.4818C87.3878 13.1059 88.1573 13.0805 88.8252 13.2875C89.394 13.4586 89.9517 13.6648 90.4951 13.9047C90.5708 13.9505 90.6565 13.9775 90.7449 13.9835C90.8332 13.9895 90.9217 13.9742 91.003 13.939C91.6438 13.6624 92.2987 13.4195 92.9649 13.2113C93.5236 13.0374 94.0379 13.0196 94.5852 13.3942C95.7586 14.198 96.556 15.0247 97.2328 16.3936C97.6138 17.0424 97.257 18.0609 96.989 18.5421C96.283 19.8043 92.2335 22.8697 91.8728 23.1961C91.6506 23.4005 91.0119 25.8107 90.9408 26.1243C90.9078 26.2729 90.8722 26.4113 90.7478 26.4215C90.5852 26.4355 90.5674 26.2336 90.5459 26.1193C90.2893 24.6894 89.9274 23.492 89.6113 23.1237C89.2951 22.7555 85.257 19.7574 84.6347 18.6031C84.1814 17.8424 84.0798 17.3269 84.2347 16.6564Z" fill="#FFB000"/>
</g>
<g clip-path="url(#clip19_18_6281)">
<path d="M60.3353 67.569C60.5182 66.7766 62.1779 64.8832 62.9106 64.3944C63.4871 64.0134 64.2579 63.988 64.9258 64.195C65.4942 64.3659 66.0515 64.572 66.5944 64.8121C66.67 64.8583 66.7557 64.8855 66.8441 64.8914C66.9326 64.8974 67.0211 64.882 67.1023 64.8464C67.7416 64.5696 68.3952 64.3272 69.0604 64.1201C69.6204 63.9448 70.1321 63.9271 70.6794 64.3017C71.8579 65.1106 72.6553 65.9334 73.3321 67.3023C73.7131 67.9512 73.3563 68.9709 73.0883 69.4521C72.3823 70.722 68.3328 73.781 67.9785 74.1086C67.7588 74.3144 67.1163 76.7271 67.0452 77.0369C67.0121 77.1855 66.9766 77.3252 66.8534 77.3353C66.6896 77.348 66.6718 77.1461 66.6502 77.0318C66.3899 75.6032 66.0267 74.4045 65.7106 74.0312C65.3944 73.6579 61.3563 70.6699 60.7277 69.5156C60.2807 68.755 60.1791 68.2407 60.3353 67.569Z" fill="#425CE6"/>
<path d="M62.1522 64.7995C62.3364 64.0071 63.996 62.1125 64.7287 61.6249C65.3052 61.249 66.0748 61.2236 66.7427 61.4306C67.3115 61.6017 67.8692 61.8078 68.4125 62.0477C68.4883 62.0936 68.574 62.1206 68.6623 62.1266C68.7507 62.1325 68.8392 62.1173 68.9205 62.082C69.5613 61.8054 70.2162 61.5625 70.8824 61.3544C71.4411 61.1804 71.9554 61.1627 72.5027 61.5373C73.676 62.3411 74.4735 63.1677 75.1503 64.5366C75.5313 65.1855 75.1744 66.2039 74.9065 66.6852C74.2005 67.9474 70.151 71.0128 69.7903 71.3392C69.5681 71.5436 68.9294 73.9538 68.8583 74.2674C68.8252 74.416 68.7897 74.5544 68.6652 74.5646C68.5027 74.5785 68.4849 74.3766 68.4633 74.2623C68.2068 72.8325 67.8449 71.635 67.5287 71.2668C67.2125 70.8985 63.1744 67.9004 62.5522 66.7461C62.0989 65.9855 61.9973 65.47 62.1522 64.7995Z" fill="#FFB000"/>
</g>
<g clip-path="url(#clip20_18_6281)">
<path d="M82.4178 67.569C82.6007 66.7766 84.2604 64.8832 84.9931 64.3944C85.5696 64.0134 86.3404 63.988 87.0083 64.195C87.5768 64.3659 88.134 64.572 88.6769 64.8121C88.7526 64.8583 88.8382 64.8855 88.9267 64.8914C89.0151 64.8974 89.1036 64.882 89.1848 64.8464C89.8241 64.5696 90.4778 64.3272 91.1429 64.1201C91.7029 63.9448 92.2147 63.9271 92.762 64.3017C93.9404 65.1106 94.7378 65.9334 95.4147 67.3023C95.7956 67.9512 95.4388 68.9709 95.1709 69.4521C94.4648 70.722 90.4153 73.781 90.061 74.1086C89.8413 74.3144 89.1988 76.7271 89.1277 77.0369C89.0947 77.1855 89.0591 77.3252 88.9359 77.3353C88.7721 77.348 88.7543 77.1461 88.7328 77.0318C88.4724 75.6032 88.1093 74.4045 87.7931 74.0312C87.4769 73.6579 83.4388 70.6699 82.8102 69.5156C82.3632 68.755 82.2616 68.2407 82.4178 67.569Z" fill="#425CE6"/>
<path d="M84.2347 64.7995C84.4189 64.0071 86.0786 62.1125 86.8113 61.6249C87.3878 61.249 88.1573 61.2236 88.8252 61.4306C89.394 61.6017 89.9517 61.8078 90.4951 62.0477C90.5708 62.0936 90.6565 62.1206 90.7449 62.1266C90.8332 62.1325 90.9217 62.1173 91.003 62.082C91.6438 61.8054 92.2987 61.5625 92.9649 61.3544C93.5236 61.1804 94.0379 61.1627 94.5852 61.5373C95.7586 62.3411 96.556 63.1677 97.2328 64.5366C97.6138 65.1855 97.257 66.2039 96.989 66.6852C96.283 67.9474 92.2335 71.0128 91.8728 71.3392C91.6506 71.5436 91.0119 73.9538 90.9408 74.2674C90.9078 74.416 90.8722 74.5544 90.7478 74.5646C90.5852 74.5785 90.5674 74.3766 90.5459 74.2623C90.2893 72.8325 89.9274 71.635 89.6113 71.2668C89.2951 70.8985 85.257 67.9004 84.6347 66.7461C84.1814 65.9855 84.0798 65.47 84.2347 64.7995Z" fill="#FFB000"/>
</g>
</g>
<g clip-path="url(#clip21_18_6281)" filter="url(#filter3_d_18_6281)">
<g clip-path="url(#clip22_18_6281)">
<path d="M119.691 5.38086H67.3096V80.6189H119.691V5.38086Z" stroke="#CCCCCC" stroke-width="0.1875" stroke-miterlimit="10"/>
<path d="M79.481 5.38086H67.3096V80.6189H79.481V5.38086Z" stroke="#CCCCCC" stroke-width="0.1875" stroke-miterlimit="10"/>
<path d="M79.481 16.4731H67.3096V18.6636H79.481V16.4731Z" stroke="#CCCCCC" stroke-width="0.1875" stroke-miterlimit="10"/>
<path d="M119.691 78.4287H74.7891V80.6192H119.691V78.4287Z" stroke="#CCCCCC" stroke-width="0.1875" stroke-miterlimit="10"/>
<path d="M117.821 14.2827H79.481V78.4287H117.821V14.2827Z" stroke="#CCCCCC" stroke-width="0.1875" stroke-miterlimit="10"/>
<path d="M109.996 20.0889H87.3066V69.2762H109.996V20.0889Z" stroke="#CCCCCC" stroke-width="0.16875" stroke-miterlimit="10"/>
<path d="M87.3066 36.4858H109.996" stroke="#CCCCCC" stroke-width="0.16875" stroke-miterlimit="10"/>
<path d="M87.3066 52.8794H109.996" stroke="#CCCCCC" stroke-width="0.16875" stroke-miterlimit="10"/>
<path d="M87.3066 44.6826H109.996" stroke="#CCCCCC" stroke-width="0.16875" stroke-miterlimit="10"/>
<path d="M98.6494 69.2762V20.0889" stroke="#CCCCCC" stroke-width="0.16875" stroke-miterlimit="10"/>
<path d="M109.996 44.6825L98.6495 20.0889L87.3066 44.6825L98.6495 69.2762L109.996 44.6825Z" stroke="#CCCCCC" stroke-width="0.16875" stroke-miterlimit="10"/>
<path d="M87.3066 20.0889L109.996 36.4857" stroke="#CCCCCC" stroke-width="0.16875" stroke-miterlimit="10"/>
<path d="M87.3066 36.4857L109.996 20.0889" stroke="#CCCCCC" stroke-width="0.16875" stroke-miterlimit="10"/>
<path d="M87.3066 36.4858L109.996 52.8795" stroke="#CCCCCC" stroke-width="0.16875" stroke-miterlimit="10"/>
<path d="M87.3066 52.8795L109.996 36.4858" stroke="#CCCCCC" stroke-width="0.16875" stroke-miterlimit="10"/>
<path d="M87.3066 52.8794L109.996 69.2762" stroke="#CCCCCC" stroke-width="0.16875" stroke-miterlimit="10"/>
<path d="M87.3066 69.2762L109.996 52.8794" stroke="#CCCCCC" stroke-width="0.16875" stroke-miterlimit="10"/>
<path d="M118.262 3H68.7382C66.6343 3 64.9287 4.70558 64.9287 6.80952V79.1905C64.9287 81.2944 66.6343 83 68.7382 83H118.262C120.366 83 122.072 81.2944 122.072 79.1905V6.80952C122.072 4.70558 120.366 3 118.262 3Z" fill="#FFF4D7"/>
</g>
<g clip-path="url(#clip23_18_6281)">
<path d="M73.7191 25.9114H74.8016C74.8567 25.9091 74.9105 25.8939 74.9587 25.867C75.0069 25.8401 75.0481 25.8023 75.0789 25.7566C75.1098 25.7109 75.1295 25.6586 75.1365 25.6038C75.1435 25.5491 75.1375 25.4935 75.1191 25.4415L74.3984 23.4384C74.3854 23.4019 74.3835 23.3623 74.3932 23.3247C74.4028 23.2872 74.4235 23.2534 74.4526 23.2278C74.4817 23.2021 74.5178 23.1858 74.5562 23.1809C74.5947 23.176 74.6337 23.1827 74.6683 23.2003L76.0778 23.9177C76.1764 23.9674 76.2892 23.9813 76.397 23.957C76.5047 23.9326 76.6006 23.8716 76.6683 23.7844L78.0334 22.032C78.1037 21.9379 78.1371 21.8213 78.1271 21.7043C78.1172 21.5872 78.0646 21.4779 77.9794 21.3971L74.0683 17.8003C73.9682 17.7086 73.8374 17.6577 73.7016 17.6577C73.5659 17.6577 73.4351 17.7086 73.335 17.8003L69.427 21.3907C69.3416 21.4716 69.2892 21.5812 69.2798 21.6985C69.2705 21.8157 69.3048 21.9322 69.3762 22.0257L70.7413 23.778C70.8081 23.8655 70.9034 23.9268 71.0108 23.9512C71.1181 23.9755 71.2306 23.9615 71.3286 23.9114L72.7381 23.1939C72.7727 23.1764 72.8117 23.1696 72.8502 23.1745C72.8886 23.1795 72.9247 23.1958 72.9538 23.2214C72.9829 23.2471 73.0036 23.2809 73.0132 23.3184C73.0229 23.3559 73.0211 23.3955 73.008 23.432L72.2873 25.4415C72.2689 25.4935 72.2629 25.5491 72.2699 25.6038C72.2769 25.6586 72.2966 25.7109 72.3275 25.7566C72.3584 25.8023 72.3995 25.8401 72.4477 25.867C72.4959 25.8939 72.5497 25.9091 72.6048 25.9114H73.7191Z" fill="#425CE6"/>
</g>
<path d="M74.9379 6.31104V12.9555H75.9665L75.7221 14.1777H74.9379V15.4094H75.5316V16.4729H72.4014V15.4094H72.9951V14.1777H70.1982V12.9079L73.649 6.31104H74.9379ZM71.23 12.9555H72.9951V9.30786L71.23 12.9555Z" fill="#425CE6"/>
<g clip-path="url(#clip24_18_6281)">
<path d="M90.3565 24.5131C89.6071 24.5483 88.947 24.2476 88.2786 23.9692C88.1847 23.9305 88.0801 23.8224 87.9909 23.9058C87.9016 23.9892 87.9592 24.0996 87.9838 24.2053C88.0759 24.6293 88.2707 25.0242 88.5512 25.3553C88.8285 25.701 89.0526 26.0862 89.216 26.4982C89.4509 27.0185 89.5684 27.459 89.5543 28.0251C89.5543 28.2248 89.3781 28.441 89.2019 28.2601C89.1512 28.2134 89.0911 28.1781 89.0257 28.1564C88.9603 28.1348 88.891 28.1273 88.8225 28.1344C87.1452 28.1344 87.178 27.6645 86.8139 27.6645C86.4298 27.6645 86.3041 28.0639 84.9346 28.0639C84.8005 28.0899 84.6705 28.1337 84.5481 28.1943C84.2967 28.3294 84.1323 28.2413 84.1405 27.9511C84.1687 27.0573 84.4083 26.2268 84.9627 25.5127C85.175 25.2101 85.3711 24.8964 85.55 24.573C85.6198 24.4521 85.66 24.3165 85.6675 24.1771C85.7004 23.7954 85.6863 23.7872 85.328 23.9176L84.0512 24.3909C83.3935 24.6258 82.7592 24.4496 82.1402 24.2488C81.0971 23.9082 80.4018 23.1916 80.1433 22.1192C80.0995 21.9077 80.1014 21.6892 80.149 21.4785C80.1966 21.2678 80.2888 21.0698 80.4194 20.8976C81.3003 19.6443 82.388 18.5872 83.5779 17.6381C84.3238 17.0414 85.0779 16.4565 85.8766 15.9326C86.8033 15.3253 86.8163 15.3112 87.6667 15.8938C88.9928 16.7938 90.2553 17.7839 91.4454 18.8574C92.1605 19.509 92.7868 20.2519 93.3083 21.0668C93.5432 21.4286 93.5432 21.8643 93.4598 22.2813C93.3036 23.0166 92.9289 23.5898 92.2418 23.9551C91.6462 24.2711 91.0519 24.5518 90.3565 24.5131Z" fill="#FFB000"/>
<path d="M91.4782 23.1683C90.7288 23.2023 90.0687 22.9016 89.4003 22.6233C89.3064 22.5845 89.203 22.4776 89.1126 22.5598C89.0221 22.6421 89.082 22.7536 89.1055 22.8594C89.1986 23.283 89.3933 23.6777 89.6728 24.0093C89.9505 24.355 90.175 24.7402 90.3388 25.1522C90.5738 25.6737 90.6912 26.113 90.6771 26.6792C90.6771 26.8788 90.4998 27.095 90.3248 26.9141C90.2741 26.8673 90.2141 26.8319 90.1486 26.8102C90.0832 26.7886 90.0139 26.7811 89.9454 26.7884C88.268 26.7884 88.3009 26.3186 87.9368 26.3186C87.5527 26.3186 87.427 26.7191 86.0574 26.7191C85.9236 26.744 85.7939 26.7875 85.6721 26.8483C85.4196 26.9834 85.2552 26.8953 85.2646 26.6052C85.2916 25.7113 85.5312 24.8808 86.0868 24.1667C86.299 23.864 86.495 23.5504 86.6741 23.227C86.7436 23.1065 86.7839 22.9713 86.7915 22.8323C86.8233 22.4506 86.8103 22.4412 86.4521 22.5716C86.0292 22.7255 85.6052 22.8758 85.1812 23.0285C84.5234 23.2634 83.8891 23.0872 83.2689 22.8864C82.2259 22.5457 81.5305 21.8292 81.278 20.7568C81.2338 20.5454 81.2356 20.3269 81.283 20.1162C81.3304 19.9055 81.4224 19.7074 81.5528 19.5352C82.4291 18.2772 83.5168 17.2283 84.7078 16.2757C85.4466 15.6978 86.2007 15.1128 86.9995 14.5937C87.925 13.9876 87.9391 13.9735 88.7884 14.5561C90.1131 15.4542 91.3745 16.4424 92.5635 17.5137C93.28 18.1654 93.9079 18.9082 94.4312 19.7232C94.6661 20.0849 94.6661 20.5207 94.5827 20.9377C94.4265 21.673 94.0506 22.2462 93.3634 22.6115C92.7691 22.9334 92.1736 23.2082 91.4782 23.1683Z" fill="#425CE6"/>
</g>
<g clip-path="url(#clip25_18_6281)">
<path d="M113.045 24.5131C112.296 24.5483 111.636 24.2476 110.968 23.9692C110.874 23.9305 110.769 23.8224 110.68 23.9058C110.591 23.9892 110.648 24.0996 110.673 24.2053C110.765 24.6293 110.96 25.0242 111.24 25.3553C111.517 25.701 111.742 26.0862 111.905 26.4982C112.14 27.0185 112.257 27.459 112.243 28.0251C112.243 28.2248 112.067 28.441 111.891 28.2601C111.84 28.2134 111.78 28.1781 111.715 28.1564C111.649 28.1348 111.58 28.1273 111.511 28.1344C109.834 28.1344 109.867 27.6645 109.503 27.6645C109.119 27.6645 108.993 28.0639 107.624 28.0639C107.489 28.0899 107.359 28.1337 107.237 28.1943C106.986 28.3294 106.821 28.2413 106.829 27.9511C106.858 27.0573 107.097 26.2268 107.652 25.5127C107.864 25.2101 108.06 24.8964 108.239 24.573C108.309 24.4521 108.349 24.3165 108.356 24.1771C108.389 23.7954 108.375 23.7872 108.017 23.9176L106.74 24.3909C106.082 24.6258 105.448 24.4496 104.829 24.2488C103.786 23.9082 103.091 23.1916 102.832 22.1192C102.788 21.9077 102.79 21.6892 102.838 21.4785C102.886 21.2678 102.978 21.0698 103.108 20.8976C103.989 19.6443 105.077 18.5872 106.267 17.6381C107.013 17.0414 107.767 16.4565 108.566 15.9326C109.492 15.3253 109.505 15.3112 110.356 15.8938C111.682 16.7938 112.944 17.7839 114.134 18.8574C114.849 19.509 115.476 20.2519 115.997 21.0668C116.232 21.4286 116.232 21.8643 116.149 22.2813C115.993 23.0166 115.618 23.5898 114.931 23.9551C114.335 24.2711 113.741 24.5518 113.045 24.5131Z" fill="#FFB000"/>
<path d="M114.167 23.1683C113.418 23.2023 112.758 22.9016 112.089 22.6233C111.995 22.5845 111.892 22.4776 111.802 22.5598C111.711 22.6421 111.771 22.7536 111.794 22.8594C111.888 23.283 112.082 23.6777 112.362 24.0093C112.639 24.355 112.864 24.7402 113.028 25.1522C113.263 25.6737 113.38 26.113 113.366 26.6792C113.366 26.8788 113.189 27.095 113.014 26.9141C112.963 26.8673 112.903 26.8319 112.838 26.8102C112.772 26.7886 112.703 26.7811 112.634 26.7884C110.957 26.7884 110.99 26.3186 110.626 26.3186C110.242 26.3186 110.116 26.7191 108.746 26.7191C108.613 26.744 108.483 26.7875 108.361 26.8483C108.109 26.9834 107.944 26.8953 107.954 26.6052C107.981 25.7113 108.22 24.8808 108.776 24.1667C108.988 23.864 109.184 23.5504 109.363 23.227C109.433 23.1065 109.473 22.9713 109.481 22.8323C109.512 22.4506 109.499 22.4412 109.141 22.5716C108.718 22.7255 108.294 22.8758 107.87 23.0285C107.212 23.2634 106.578 23.0872 105.958 22.8864C104.915 22.5457 104.219 21.8292 103.967 20.7568C103.923 20.5454 103.925 20.3269 103.972 20.1162C104.019 19.9055 104.111 19.7074 104.242 19.5352C105.118 18.2772 106.206 17.2283 107.397 16.2757C108.136 15.6978 108.89 15.1128 109.688 14.5937C110.614 13.9876 110.628 13.9735 111.477 14.5561C112.802 15.4542 114.063 16.4424 115.253 17.5137C115.969 18.1654 116.597 18.9082 117.12 19.7232C117.355 20.0849 117.355 20.5207 117.272 20.9377C117.115 21.673 116.74 22.2462 116.052 22.6115C115.458 22.9334 114.863 23.2082 114.167 23.1683Z" fill="#425CE6"/>
</g>
<g clip-path="url(#clip26_18_6281)">
<path d="M90.3565 72.6273C89.6071 72.6626 88.947 72.3619 88.2786 72.0835C88.1847 72.0447 88.0801 71.9367 87.9909 72.0201C87.9016 72.1035 87.9592 72.2139 87.9838 72.3196C88.0759 72.7436 88.2707 73.1385 88.5512 73.4695C88.8285 73.8152 89.0526 74.2005 89.216 74.6124C89.4509 75.1328 89.5684 75.5732 89.5543 76.1394C89.5543 76.3391 89.3781 76.5552 89.2019 76.3743C89.1512 76.3277 89.0911 76.2924 89.0257 76.2707C88.9603 76.249 88.891 76.2415 88.8225 76.2486C87.1452 76.2486 87.178 75.7788 86.8139 75.7788C86.4298 75.7788 86.3041 76.1782 84.9346 76.1782C84.8005 76.2041 84.6705 76.248 84.5481 76.3085C84.2967 76.4436 84.1323 76.3555 84.1405 76.0654C84.1687 75.1715 84.4083 74.3411 84.9627 73.6269C85.175 73.3243 85.3711 73.0107 85.55 72.6872C85.6198 72.5664 85.66 72.4307 85.6675 72.2914C85.7004 71.9097 85.6863 71.9014 85.328 72.0318L84.0512 72.5052C83.3935 72.7401 82.7592 72.5639 82.1402 72.363C81.0971 72.0224 80.4018 71.3059 80.1433 70.2335C80.0995 70.022 80.1014 69.8035 80.149 69.5928C80.1966 69.3821 80.2888 69.184 80.4194 69.0119C81.3003 67.7586 82.388 66.7015 83.5779 65.7524C84.3238 65.1557 85.0779 64.5707 85.8766 64.0469C86.8033 63.4396 86.8163 63.4255 87.6667 64.0081C88.9928 64.908 90.2553 65.8982 91.4454 66.9716C92.1605 67.6233 92.7868 68.3661 93.3083 69.181C93.5432 69.5428 93.5432 69.9786 93.4598 70.3956C93.3036 71.1309 92.9289 71.7041 92.2418 72.0694C91.6462 72.3854 91.0519 72.6661 90.3565 72.6273Z" fill="#FFB000"/>
<path d="M91.4782 71.2825C90.7288 71.3166 90.0687 71.0159 89.4003 70.7375C89.3064 70.6988 89.203 70.5919 89.1126 70.6741C89.0221 70.7563 89.082 70.8679 89.1055 70.9736C89.1986 71.3973 89.3933 71.7919 89.6728 72.1236C89.9505 72.4692 90.175 72.8544 90.3388 73.2664C90.5738 73.788 90.6912 74.2273 90.6771 74.7934C90.6771 74.9931 90.4998 75.2092 90.3248 75.0283C90.2741 74.9816 90.2141 74.9462 90.1486 74.9245C90.0832 74.9028 90.0139 74.8954 89.9454 74.9027C88.268 74.9027 88.3009 74.4328 87.9368 74.4328C87.5527 74.4328 87.427 74.8334 86.0574 74.8334C85.9236 74.8583 85.7939 74.9017 85.6721 74.9626C85.4196 75.0976 85.2552 75.0096 85.2646 74.7194C85.2916 73.8256 85.5312 72.9951 86.0868 72.2809C86.299 71.9783 86.495 71.6646 86.6741 71.3413C86.7436 71.2207 86.7839 71.0855 86.7915 70.9466C86.8233 70.5649 86.8103 70.5555 86.4521 70.6858C86.0292 70.8397 85.6052 70.9901 85.1812 71.1428C84.5234 71.3777 83.8891 71.2015 83.2689 71.0006C82.2259 70.66 81.5305 69.9435 81.278 68.8711C81.2338 68.6596 81.2356 68.4412 81.283 68.2305C81.3304 68.0198 81.4224 67.8217 81.5528 67.6495C82.4291 66.3915 83.5168 65.3426 84.7078 64.39C85.4466 63.8121 86.2007 63.2271 86.9995 62.7079C87.925 62.1018 87.9391 62.0877 88.7884 62.6703C90.1131 63.5684 91.3745 64.5567 92.5635 65.628C93.28 66.2797 93.9079 67.0225 94.4312 67.8374C94.6661 68.1992 94.6661 68.635 94.5827 69.052C94.4265 69.7873 94.0506 70.3605 93.3634 70.7258C92.7691 71.0476 92.1736 71.3225 91.4782 71.2825Z" fill="#425CE6"/>
</g>
<g clip-path="url(#clip27_18_6281)">
<path d="M113.045 72.6273C112.296 72.6626 111.636 72.3619 110.968 72.0835C110.874 72.0447 110.769 71.9367 110.68 72.0201C110.591 72.1035 110.648 72.2139 110.673 72.3196C110.765 72.7436 110.96 73.1385 111.24 73.4695C111.517 73.8152 111.742 74.2005 111.905 74.6124C112.14 75.1328 112.257 75.5732 112.243 76.1394C112.243 76.3391 112.067 76.5552 111.891 76.3743C111.84 76.3277 111.78 76.2924 111.715 76.2707C111.649 76.249 111.58 76.2415 111.511 76.2486C109.834 76.2486 109.867 75.7788 109.503 75.7788C109.119 75.7788 108.993 76.1782 107.624 76.1782C107.489 76.2041 107.359 76.248 107.237 76.3085C106.986 76.4436 106.821 76.3555 106.829 76.0654C106.858 75.1715 107.097 74.3411 107.652 73.6269C107.864 73.3243 108.06 73.0107 108.239 72.6872C108.309 72.5664 108.349 72.4307 108.356 72.2914C108.389 71.9097 108.375 71.9014 108.017 72.0318L106.74 72.5052C106.082 72.7401 105.448 72.5639 104.829 72.363C103.786 72.0224 103.091 71.3059 102.832 70.2335C102.788 70.022 102.79 69.8035 102.838 69.5928C102.886 69.3821 102.978 69.184 103.108 69.0119C103.989 67.7586 105.077 66.7015 106.267 65.7524C107.013 65.1557 107.767 64.5707 108.566 64.0469C109.492 63.4396 109.505 63.4255 110.356 64.0081C111.682 64.908 112.944 65.8982 114.134 66.9716C114.849 67.6233 115.476 68.3661 115.997 69.181C116.232 69.5428 116.232 69.9786 116.149 70.3956C115.993 71.1309 115.618 71.7041 114.931 72.0694C114.335 72.3854 113.741 72.6661 113.045 72.6273Z" fill="#FFB000"/>
<path d="M114.167 71.2825C113.418 71.3166 112.758 71.0159 112.089 70.7375C111.995 70.6988 111.892 70.5919 111.802 70.6741C111.711 70.7563 111.771 70.8679 111.794 70.9736C111.888 71.3973 112.082 71.7919 112.362 72.1236C112.639 72.4692 112.864 72.8544 113.028 73.2664C113.263 73.788 113.38 74.2273 113.366 74.7934C113.366 74.9931 113.189 75.2092 113.014 75.0283C112.963 74.9816 112.903 74.9462 112.838 74.9245C112.772 74.9028 112.703 74.8954 112.634 74.9027C110.957 74.9027 110.99 74.4328 110.626 74.4328C110.242 74.4328 110.116 74.8334 108.746 74.8334C108.613 74.8583 108.483 74.9017 108.361 74.9626C108.109 75.0976 107.944 75.0096 107.954 74.7194C107.981 73.8256 108.22 72.9951 108.776 72.2809C108.988 71.9783 109.184 71.6646 109.363 71.3413C109.433 71.2207 109.473 71.0855 109.481 70.9466C109.512 70.5649 109.499 70.5555 109.141 70.6858C108.718 70.8397 108.294 70.9901 107.87 71.1428C107.212 71.3777 106.578 71.2015 105.958 71.0006C104.915 70.66 104.219 69.9435 103.967 68.8711C103.923 68.6596 103.925 68.4412 103.972 68.2305C104.019 68.0198 104.111 67.8217 104.242 67.6495C105.118 66.3915 106.206 65.3426 107.397 64.39C108.136 63.8121 108.89 63.2271 109.688 62.7079C110.614 62.1018 110.628 62.0877 111.477 62.6703C112.802 63.5684 114.063 64.5567 115.253 65.628C115.969 66.2797 116.597 67.0225 117.12 67.8374C117.355 68.1992 117.355 68.635 117.272 69.052C117.115 69.7873 116.74 70.3605 116.052 70.7258C115.458 71.0476 114.863 71.3225 114.167 71.2825Z" fill="#425CE6"/>
</g>
</g>
<defs>
<filter id="filter0_d_18_6281" x="0.75" y="0.75" width="64.6431" height="87.5" filterUnits="userSpaceOnUse" color-interpolation-filters="sRGB">
<feFlood flood-opacity="0" result="BackgroundImageFix"/>
<feColorMatrix in="SourceAlpha" type="matrix" values="0 0 0 0 0 0 0 0 0 0 0 0 0 0 0 0 0 0 127 0" result="hardAlpha"/>
<feOffset dx="-1.5" dy="1.5"/>
<feGaussianBlur stdDeviation="1.875"/>
<feComposite in2="hardAlpha" operator="out"/>
<feColorMatrix type="matrix" values="0 0 0 0 0 0 0 0 0 0 0 0 0 0 0 0 0 0 0.25 0"/>
<feBlend mode="normal" in2="BackgroundImageFix" result="effect1_dropShadow_18_6281"/>
<feBlend mode="normal" in="SourceGraphic" in2="effect1_dropShadow_18_6281" result="shape"/>
</filter>
<filter id="filter1_d_18_6281" x="20.3931" y="0.75" width="64.6431" height="87.5" filterUnits="userSpaceOnUse" color-interpolation-filters="sRGB">
<feFlood flood-opacity="0" result="BackgroundImageFix"/>
<feColorMatrix in="SourceAlpha" type="matrix" values="0 0 0 0 0 0 0 0 0 0 0 0 0 0 0 0 0 0 127 0" result="hardAlpha"/>
<feOffset dx="-1.5" dy="1.5"/>
<feGaussianBlur stdDeviation="1.875"/>
<feComposite in2="hardAlpha" operator="out"/>
<feColorMatrix type="matrix" values="0 0 0 0 0 0 0 0 0 0 0 0 0 0 0 0 0 0 0.25 0"/>
<feBlend mode="normal" in2="BackgroundImageFix" result="effect1_dropShadow_18_6281"/>
<feBlend mode="normal" in="SourceGraphic" in2="effect1_dropShadow_18_6281" result="shape"/>
</filter>
<filter id="filter2_d_18_6281" x="40.0356" y="0.75" width="64.6431" height="87.5" filterUnits="userSpaceOnUse" color-interpolation-filters="sRGB">
<feFlood flood-opacity="0" result="BackgroundImageFix"/>
<feColorMatrix in="SourceAlpha" type="matrix" values="0 0 0 0 0 0 0 0 0 0 0 0 0 0 0 0 0 0 127 0" result="hardAlpha"/>
<feOffset dx="-1.5" dy="1.5"/>
<feGaussianBlur stdDeviation="1.875"/>
<feComposite in2="hardAlpha" operator="out"/>
<feColorMatrix type="matrix" values="0 0 0 0 0 0 0 0 0 0 0 0 0 0 0 0 0 0 0.25 0"/>
<feBlend mode="normal" in2="BackgroundImageFix" result="effect1_dropShadow_18_6281"/>
<feBlend mode="normal" in="SourceGraphic" in2="effect1_dropShadow_18_6281" result="shape"/>
</filter>
<filter id="filter3_d_18_6281" x="59.6787" y="0.75" width="64.6431" height="87.5" filterUnits="userSpaceOnUse" color-interpolation-filters="sRGB">
<feFlood flood-opacity="0" result="BackgroundImageFix"/>
<feColorMatrix in="SourceAlpha" type="matrix" values="0 0 0 0 0 0 0 0 0 0 0 0 0 0 0 0 0 0 127 0" result="hardAlpha"/>
<feOffset dx="-1.5" dy="1.5"/>
<feGaussianBlur stdDeviation="1.875"/>
<feComposite in2="hardAlpha" operator="out"/>
<feColorMatrix type="matrix" values="0 0 0 0 0 0 0 0 0 0 0 0 0 0 0 0 0 0 0.25 0"/>
<feBlend mode="normal" in2="BackgroundImageFix" result="effect1_dropShadow_18_6281"/>
<feBlend mode="normal" in="SourceGraphic" in2="effect1_dropShadow_18_6281" result="shape"/>
</filter>
<clipPath id="clip0_18_6281">
<rect width="57.1429" height="80" fill="white" transform="translate(6 3)"/>
</clipPath>
<clipPath id="clip1_18_6281">
<rect width="57.1429" height="80" fill="white" transform="translate(6 3)"/>
</clipPath>
<clipPath id="clip2_18_6281">
<rect width="8.98095" height="8.71428" fill="white" transform="translate(10.2822 17.4253)"/>
</clipPath>
<clipPath id="clip3_18_6281">
<rect width="15.2728" height="15.1947" fill="white" transform="translate(20.7207 13.4478)"/>
</clipPath>
<clipPath id="clip4_18_6281">
<rect width="15.2728" height="15.1947" fill="white" transform="translate(43.4062 13.4478)"/>
</clipPath>
<clipPath id="clip5_18_6281">
<rect width="15.2728" height="15.1947" fill="white" transform="translate(20.7207 61.6572)"/>
</clipPath>
<clipPath id="clip6_18_6281">
<rect width="15.2728" height="15.1947" fill="white" transform="translate(43.4062 61.6572)"/>
</clipPath>
<clipPath id="clip7_18_6281">
<rect width="57.1429" height="80" fill="white" transform="translate(25.6431 3)"/>
</clipPath>
<clipPath id="clip8_18_6281">
<rect width="57.1429" height="80" fill="white" transform="translate(25.6431 3)"/>
</clipPath>
<clipPath id="clip9_18_6281">
<rect width="8.0254" height="8.25397" fill="white" transform="translate(30.4019 17.6572)"/>
</clipPath>
<clipPath id="clip10_18_6281">
<rect width="15.8049" height="16.5843" fill="white" transform="translate(40.3828 13.9648)"/>
</clipPath>
<clipPath id="clip11_18_6281">
<rect width="15.8049" height="16.5843" fill="white" transform="translate(62.8052 13.9648)"/>
</clipPath>
<clipPath id="clip12_18_6281">
<rect width="15.8049" height="16.5843" fill="white" transform="translate(40.3828 61.0664)"/>
</clipPath>
<clipPath id="clip13_18_6281">
<rect width="15.8049" height="16.5843" fill="white" transform="translate(62.8052 61.0664)"/>
</clipPath>
<clipPath id="clip14_18_6281">
<rect width="57.1429" height="80" fill="white" transform="translate(45.2856 3)"/>
</clipPath>
<clipPath id="clip15_18_6281">
<rect width="57.1429" height="80" fill="white" transform="translate(45.2856 3)"/>
</clipPath>
<clipPath id="clip16_18_6281">
<rect width="8.59365" height="7.93651" fill="white" transform="translate(49.7617 17.8159)"/>
</clipPath>
<clipPath id="clip17_18_6281">
<rect width="15.0489" height="16.1003" fill="white" transform="translate(60.2666 13.0918)"/>
</clipPath>
<clipPath id="clip18_18_6281">
<rect width="15.0489" height="16.1003" fill="white" transform="translate(82.3491 13.0918)"/>
</clipPath>
<clipPath id="clip19_18_6281">
<rect width="15.0489" height="16.1003" fill="white" transform="translate(60.2666 61.2349)"/>
</clipPath>
<clipPath id="clip20_18_6281">
<rect width="15.0489" height="16.1003" fill="white" transform="translate(82.3491 61.2349)"/>
</clipPath>
<clipPath id="clip21_18_6281">
<rect width="57.1429" height="80" fill="white" transform="translate(64.9287 3)"/>
</clipPath>
<clipPath id="clip22_18_6281">
<rect width="57.1429" height="80" fill="white" transform="translate(64.9287 3)"/>
</clipPath>
<clipPath id="clip23_18_6281">
<rect width="8.85397" height="8.25397" fill="white" transform="translate(69.2749 17.6572)"/>
</clipPath>
<clipPath id="clip24_18_6281">
<rect width="14.5216" height="14.2092" fill="white" transform="translate(80.1128 14.124)"/>
</clipPath>
<clipPath id="clip25_18_6281">
<rect width="14.5216" height="14.2092" fill="white" transform="translate(102.802 14.124)"/>
</clipPath>
<clipPath id="clip26_18_6281">
<rect width="14.5216" height="14.2092" fill="white" transform="translate(80.1128 62.2383)"/>
</clipPath>
<clipPath id="clip27_18_6281">
<rect width="14.5216" height="14.2092" fill="white" transform="translate(102.802 62.2383)"/>
</clipPath>
</defs>
</svg>
