<svg width="125" height="89" viewBox="0 0 125 89" fill="none" xmlns="http://www.w3.org/2000/svg">
<g clip-path="url(#clip0_3_4296)" filter="url(#filter0_d_3_4296)">
<g clip-path="url(#clip1_3_4296)">
<path d="M60.7618 5.38086H8.38086V80.6189H60.7618V5.38086Z" stroke="#CCCCCC" stroke-width="0.1875" stroke-miterlimit="10"/>
<path d="M20.5523 5.38086H8.38086V80.6189H20.5523V5.38086Z" stroke="#CCCCCC" stroke-width="0.1875" stroke-miterlimit="10"/>
<path d="M20.5523 16.4729H8.38086V18.6634H20.5523V16.4729Z" stroke="#CCCCCC" stroke-width="0.1875" stroke-miterlimit="10"/>
<path d="M60.7619 78.4285H15.8604V80.6189H60.7619V78.4285Z" stroke="#CCCCCC" stroke-width="0.1875" stroke-miterlimit="10"/>
<path d="M58.8919 14.2825H20.5522V78.4285H58.8919V14.2825Z" stroke="#CCCCCC" stroke-width="0.1875" stroke-miterlimit="10"/>
<path d="M51.0668 20.0889H28.3779V69.2762H51.0668V20.0889Z" stroke="#CCCCCC" stroke-width="0.16875" stroke-miterlimit="10"/>
<path d="M28.3779 36.4856H51.0668" stroke="#CCCCCC" stroke-width="0.16875" stroke-miterlimit="10"/>
<path d="M28.3779 52.8794H51.0668" stroke="#CCCCCC" stroke-width="0.16875" stroke-miterlimit="10"/>
<path d="M28.3779 44.6826H51.0668" stroke="#CCCCCC" stroke-width="0.16875" stroke-miterlimit="10"/>
<path d="M39.7207 69.2762V20.0889" stroke="#CCCCCC" stroke-width="0.16875" stroke-miterlimit="10"/>
<path d="M51.0668 44.6825L39.7208 20.0889L28.3779 44.6825L39.7208 69.2762L51.0668 44.6825Z" stroke="#CCCCCC" stroke-width="0.16875" stroke-miterlimit="10"/>
<path d="M28.3779 20.0889L51.0668 36.4857" stroke="#CCCCCC" stroke-width="0.16875" stroke-miterlimit="10"/>
<path d="M28.3779 36.4857L51.0668 20.0889" stroke="#CCCCCC" stroke-width="0.16875" stroke-miterlimit="10"/>
<path d="M28.3779 36.4856L51.0668 52.8792" stroke="#CCCCCC" stroke-width="0.16875" stroke-miterlimit="10"/>
<path d="M28.3779 52.8792L51.0668 36.4856" stroke="#CCCCCC" stroke-width="0.16875" stroke-miterlimit="10"/>
<path d="M28.3779 52.8794L51.0668 69.2762" stroke="#CCCCCC" stroke-width="0.16875" stroke-miterlimit="10"/>
<path d="M28.3779 69.2762L51.0668 52.8794" stroke="#CCCCCC" stroke-width="0.16875" stroke-miterlimit="10"/>
<path d="M59.3333 3H9.80952C7.70558 3 6 4.70558 6 6.80952V79.1905C6 81.2944 7.70558 83 9.80952 83H59.3333C61.4373 83 63.1429 81.2944 63.1429 79.1905V6.80952C63.1429 4.70558 61.4373 3 59.3333 3Z" fill="#FFF4D7"/>
</g>
<g clip-path="url(#clip2_3_4296)">
<path d="M19.1084 22.0412L18.0004 20.5364C17.9027 20.4446 17.7761 20.3897 17.6423 20.381C17.5085 20.3723 17.3759 20.4104 17.2671 20.4888L15.3052 21.7587C15.2947 21.7663 15.2823 21.7709 15.2694 21.7719C15.2565 21.773 15.2435 21.7704 15.232 21.7644C15.2204 21.7585 15.2108 21.7495 15.2041 21.7384C15.1974 21.7272 15.1939 21.7145 15.1941 21.7015V21.3174C15.1942 21.2574 15.2069 21.1981 15.2316 21.1434C15.2562 21.0887 15.2921 21.0398 15.3369 20.9999L16.7306 19.9047C16.7668 19.8717 16.7957 19.8315 16.8155 19.7866C16.8353 19.7418 16.8455 19.6934 16.8455 19.6444C16.8455 19.5954 16.8353 19.5469 16.8155 19.5021C16.7957 19.4573 16.7668 19.4171 16.7306 19.3841L15.1433 17.5714C15.0429 17.4803 14.9122 17.4299 14.7766 17.4299C14.6411 17.4299 14.5104 17.4803 14.41 17.5714L12.8227 19.3841C12.7856 19.4165 12.7559 19.4566 12.7355 19.5015C12.7151 19.5463 12.7046 19.5951 12.7046 19.6444C12.7046 19.6937 12.7151 19.7424 12.7355 19.7873C12.7559 19.8322 12.7856 19.8722 12.8227 19.9047L14.2131 20.9999C14.258 21.0398 14.2939 21.0887 14.3185 21.1434C14.3431 21.1981 14.3559 21.2574 14.356 21.3174V21.7174C14.3561 21.7304 14.3527 21.7431 14.346 21.7542C14.3393 21.7653 14.3296 21.7744 14.3181 21.7803C14.3066 21.7862 14.2936 21.7888 14.2807 21.7878C14.2677 21.7868 14.2553 21.7822 14.2449 21.7745L12.2862 20.5047C12.1792 20.4242 12.0476 20.3834 11.9138 20.3891C11.78 20.3949 11.6524 20.447 11.5528 20.5364L10.4385 22.0412C10.3533 22.122 10.3007 22.2314 10.2908 22.3484C10.2808 22.4654 10.3142 22.5821 10.3846 22.6761L11.5528 24.1936C11.6208 24.2824 11.7176 24.3446 11.8266 24.3695C11.9356 24.3945 12.0499 24.3805 12.1496 24.3301L13.9211 23.3777C13.9561 23.3604 13.9955 23.3539 14.0342 23.3591C14.073 23.3642 14.1093 23.3808 14.1386 23.4067C14.1679 23.4326 14.1888 23.4666 14.1987 23.5044C14.2085 23.5422 14.207 23.5821 14.1941 23.619L13.3401 25.6793C13.3207 25.7331 13.3146 25.7909 13.3222 25.8476C13.3299 25.9043 13.3512 25.9584 13.3842 26.0051C13.4173 26.0519 13.4611 26.09 13.512 26.1161C13.5629 26.1423 13.6194 26.1558 13.6766 26.1555H15.8735C15.9304 26.1553 15.9865 26.1414 16.037 26.115C16.0875 26.0886 16.1309 26.0505 16.1636 26.0038C16.1963 25.9572 16.2173 25.9033 16.2248 25.8468C16.2323 25.7903 16.2261 25.7329 16.2068 25.6793L15.3623 23.6317C15.3489 23.5944 15.347 23.5539 15.357 23.5156C15.3669 23.4772 15.3882 23.4427 15.418 23.4167C15.4479 23.3906 15.4849 23.3742 15.5242 23.3695C15.5636 23.3648 15.6034 23.3721 15.6385 23.3904L17.4798 24.3428C17.5797 24.3926 17.6938 24.4062 17.8026 24.3813C17.9115 24.3564 18.0083 24.2946 18.0766 24.2063L19.1719 22.6888C19.2462 22.5932 19.281 22.4728 19.2692 22.3524C19.2574 22.2319 19.1998 22.1205 19.1084 22.0412Z" fill="#425CE6"/>
</g>
<path d="M11.8062 16.473L11.5649 14.9651C12.5356 14.2151 13.3636 13.2968 14.0094 12.254C14.5443 11.3956 14.8361 10.4081 14.8538 9.39683C14.8749 8.89902 14.7655 8.40435 14.5364 7.96191C14.4674 7.80496 14.3559 7.67038 14.2146 7.57335C14.0733 7.47632 13.9076 7.42068 13.7364 7.4127C13.635 7.40814 13.5338 7.42533 13.4396 7.46311C13.3455 7.50089 13.2604 7.55839 13.1903 7.63175C13.1177 7.71233 13.062 7.80669 13.0266 7.90921C12.9911 8.01174 12.9766 8.12034 12.984 8.22858C12.9677 8.59145 13.0488 8.95208 13.2189 9.27302C13.4284 9.58458 13.7135 9.83797 14.0475 10.0095L13.0348 12.1873C12.4967 12.0014 12.0238 11.6641 11.6729 11.2159C11.3674 10.7644 11.214 10.2272 11.2348 9.68254C11.2287 8.75027 11.581 7.85129 12.2189 7.17143C12.4882 6.83989 12.8265 6.571 13.2103 6.3835C13.5941 6.196 14.0141 6.09438 14.4411 6.08572C14.8073 6.06966 15.1727 6.13217 15.5128 6.26906C15.8528 6.40596 16.1596 6.61405 16.4126 6.87937C16.9226 7.45728 17.1879 8.21096 17.1522 8.98096C17.1306 9.78726 16.9045 10.5749 16.4951 11.2698C15.8595 12.3309 15.1078 13.318 14.2538 14.2127H15.0475C15.3635 14.2313 15.6779 14.1539 15.9491 13.9905C16.0527 13.9189 16.1383 13.8243 16.1995 13.7142C16.2606 13.6041 16.2955 13.4814 16.3014 13.3556H17.0538L16.8792 16.9556H15.9935L15.9586 16.4794L11.8062 16.473Z" fill="#425CE6"/>
<g clip-path="url(#clip3_3_4296)">
<path d="M35.0072 23.7183C34.4316 24.1448 33.8266 24.5302 33.1967 24.8715C32.907 25.027 32.6016 25.1514 32.2856 25.2425C32.0136 25.3193 31.7012 25.3479 31.4409 25.1683C30.3996 24.4316 29.495 23.5777 28.8976 22.4349C28.8572 22.3674 28.8366 22.2899 28.838 22.2113C28.8393 22.1326 28.8627 22.0559 28.9054 21.9898C29.4345 21.0321 30.1693 20.2035 31.0569 19.5636C31.5541 19.2096 32.1906 19.2291 32.7282 19.5636C33.4336 19.9971 34.182 20.3576 34.8523 20.847C35.006 20.9438 35.1388 21.0704 35.2428 21.2193C35.1999 20.5281 35.2884 19.9255 34.6714 19.4908C34.1847 19.148 33.804 18.6753 33.5729 18.1267C33.4847 17.937 33.4426 17.7292 33.4501 17.5202C33.4576 17.3112 33.5144 17.1069 33.6158 16.924C34.1 16.0038 34.825 15.3114 35.6645 14.7361C35.8185 14.6371 35.9986 14.5868 36.1816 14.5916C36.3645 14.5965 36.5417 14.6564 36.6902 14.7634C37.5021 15.2925 38.1773 16.0061 38.6608 16.8459C38.9523 17.3666 38.9042 17.8677 38.6295 18.3649C38.3646 18.8305 38.0039 19.2346 37.5714 19.5506C37.3618 19.7094 37.2043 19.8708 37.1809 20.1455C37.1575 20.4201 37.0078 20.6349 37.0143 20.9004C37.0143 20.9642 36.9856 21.0462 37.0533 21.0865C37.121 21.1269 37.1757 21.0592 37.229 21.0188C37.9788 20.4448 38.8131 20.0036 39.6331 19.548C40.2214 19.2213 40.8891 19.2135 41.4384 19.6782C42.218 20.3071 42.8792 21.0701 43.3908 21.9312C43.4444 22.0098 43.475 22.1018 43.4789 22.1968C43.4828 22.2919 43.4599 22.3861 43.4129 22.4688C42.9782 23.3265 42.3065 23.9786 41.6115 24.6138C41.4618 24.7518 41.2991 24.8741 41.139 25.0043C40.6913 25.3505 40.2084 25.3739 39.7073 25.1462C38.9245 24.8108 38.1921 24.3683 37.531 23.8316C37.4555 23.7678 37.3605 23.6584 37.2707 23.7209C37.1809 23.7834 37.1666 24.9574 37.2902 25.2269C37.8408 26.0013 39.0734 26.5115 39.0734 28.0708C39.0643 28.3311 39.0356 28.4301 38.7233 28.3429C38.3293 28.2387 37.9242 28.1823 37.5167 28.1749C36.9961 28.158 36.6342 28.1749 36.3583 27.7663C36.2281 27.5671 36.1435 27.5059 35.9951 27.7558C35.5721 28.4782 34.8237 28.1854 34.1339 28.2556C33.9415 28.2571 33.7505 28.2883 33.5677 28.3481C33.3269 28.4496 33.2215 28.3715 33.2019 28.0982C33.1668 27.5905 33.3646 27.1454 33.5612 26.7094C33.7889 26.2056 34.4528 25.7189 34.8055 25.2776C35.1582 24.8364 34.9968 24.3262 35.0072 23.7183ZM36.9596 16.4945C37.0039 16.4987 37.0486 16.4928 37.0902 16.4772C37.1319 16.4616 37.1695 16.4368 37.2002 16.4046C37.2309 16.3724 37.2539 16.3337 37.2675 16.2913C37.281 16.2489 37.2848 16.204 37.2785 16.16C37.2655 15.9413 37.121 15.8424 36.9088 15.8515C36.8659 15.8485 36.8228 15.8548 36.7826 15.8702C36.7424 15.8855 36.706 15.9094 36.676 15.9403C36.646 15.9712 36.6231 16.0082 36.6089 16.0489C36.5947 16.0895 36.5896 16.1328 36.5939 16.1756C36.59 16.4047 36.7227 16.4971 36.957 16.4945H36.9596ZM35.0255 16.2771C35.0255 16.3956 35.1556 16.5088 35.3404 16.5075C35.3831 16.5125 35.4263 16.5076 35.4667 16.493C35.5071 16.4784 35.5435 16.4547 35.5732 16.4237C35.6028 16.3926 35.6249 16.3551 35.6376 16.3141C35.6503 16.2731 35.6533 16.2297 35.6463 16.1873C35.6479 16.1414 35.6394 16.0958 35.6215 16.0535C35.6035 16.0112 35.5766 15.9734 35.5425 15.9426C35.5084 15.9119 35.4679 15.889 35.4241 15.8755C35.3802 15.862 35.3339 15.8582 35.2884 15.8645C35.0853 15.871 35.0228 16.0038 35.0255 16.2771Z" fill="#FFB000"/>
<path d="M36.9571 16.4944C36.7228 16.4944 36.59 16.4046 36.5913 16.1755C36.587 16.1326 36.5922 16.0892 36.6064 16.0485C36.6207 16.0077 36.6437 15.9706 36.6738 15.9397C36.704 15.9088 36.7406 15.8849 36.7809 15.8696C36.8213 15.8544 36.8646 15.8482 36.9076 15.8514C37.1198 15.8423 37.2642 15.9412 37.2773 16.1599C37.2836 16.2041 37.2798 16.2491 37.2662 16.2916C37.2525 16.334 37.2294 16.3729 37.1986 16.4051C37.1677 16.4373 37.13 16.4621 37.0881 16.4776C37.0463 16.4931 37.0015 16.4988 36.9571 16.4944Z" fill="#FFB000"/>
<path d="M35.0254 16.2771C35.0254 16.0038 35.0853 15.871 35.2857 15.8593C35.3318 15.8525 35.3789 15.856 35.4235 15.8696C35.4681 15.8832 35.5092 15.9066 35.5437 15.9379C35.5781 15.9693 35.6052 16.008 35.623 16.0511C35.6407 16.0942 35.6487 16.1408 35.6462 16.1873C35.653 16.2292 35.6501 16.2721 35.6377 16.3127C35.6253 16.3533 35.6037 16.3904 35.5747 16.4214C35.5456 16.4523 35.5099 16.4762 35.4701 16.4911C35.4304 16.506 35.3878 16.5117 35.3456 16.5075C35.149 16.5088 35.0254 16.3956 35.0254 16.2771Z" fill="#FFB000"/>
<path d="M35.6437 22.3216C35.0687 22.7494 34.4636 23.1352 33.8332 23.4761C33.5438 23.6326 33.2383 23.7574 32.9221 23.8484C32.6449 23.9252 32.3338 23.9525 32.0722 23.769C31.0309 23.0362 30.1263 22.1824 29.5289 21.0357C29.4887 20.9682 29.4682 20.8909 29.4698 20.8124C29.4714 20.734 29.495 20.6575 29.538 20.5918C30.0694 19.6325 30.8085 18.804 31.7012 18.167C32.1984 17.8129 32.8349 17.8324 33.3724 18.167C34.0701 18.5952 34.825 18.9557 35.4888 19.4412C35.6422 19.5379 35.7749 19.6639 35.8793 19.8122C35.835 19.121 35.9249 18.5197 35.3079 18.0837C34.8194 17.7435 34.4371 17.2719 34.2055 16.7235C34.1171 16.5339 34.0748 16.3262 34.082 16.1172C34.0893 15.9082 34.1458 15.7038 34.2471 15.5208C34.7313 14.6006 35.4576 13.9082 36.2958 13.3329C36.4499 13.2341 36.6301 13.184 36.813 13.1891C36.996 13.1942 37.1731 13.2543 37.3215 13.3615C38.1334 13.8905 38.8087 14.6041 39.2921 15.444C39.5849 15.9647 39.5368 16.4658 39.2608 16.9643C38.9978 17.43 38.6394 17.8349 38.2091 18.1526C37.9996 18.3101 37.8421 18.4715 37.8187 18.7462C37.7952 19.0208 37.6455 19.2356 37.6521 19.5011C37.6521 19.5649 37.6247 19.6469 37.6924 19.6872C37.7601 19.7276 37.8148 19.6612 37.8668 19.6208C38.6126 19.0507 39.4482 18.6043 40.2682 18.1487C40.8566 17.822 41.523 17.8155 42.0736 18.2789C42.8363 18.9297 43.5235 19.6508 44.0259 20.5332C44.0799 20.6114 44.1107 20.7033 44.1146 20.7982C44.1185 20.8931 44.0954 20.9872 44.0481 21.0695C43.6133 21.9285 42.9417 22.5793 42.248 23.2158C42.097 23.346 41.9356 23.4761 41.7742 23.6063C41.3277 23.9538 40.8435 23.9759 40.3424 23.7495C39.5579 23.4137 38.8233 22.9714 38.1597 22.4349C38.0842 22.3724 37.9892 22.2618 37.8994 22.3242C37.8096 22.3867 37.7939 23.562 37.9176 23.8302C38.4682 24.6111 39.7008 25.1161 39.7008 26.6741C39.6916 26.9344 39.6643 27.0334 39.3506 26.9462C38.9565 26.8426 38.5515 26.7863 38.1441 26.7783C37.6234 26.7626 37.2616 26.7783 36.9856 26.3709C36.8555 26.1717 36.7709 26.1105 36.6238 26.3591C36.2008 27.0815 35.4524 26.7887 34.7625 26.859C34.5698 26.861 34.3785 26.8921 34.195 26.9514C33.9542 27.0529 33.8488 26.9761 33.8306 26.7028C33.7942 26.1951 33.9933 25.7487 34.1885 25.314C34.4163 24.809 35.0801 24.3222 35.4342 23.8822C35.7882 23.4423 35.6333 22.9282 35.6437 22.3216Z" fill="#425CE6"/>
</g>
<g clip-path="url(#clip4_3_4296)">
<path d="M35.0072 71.8643C34.4316 72.2908 33.8266 72.6762 33.1967 73.0175C32.907 73.173 32.6016 73.2974 32.2856 73.3885C32.0136 73.4653 31.7012 73.4939 31.4409 73.3143C30.3996 72.5776 29.495 71.7237 28.8976 70.5809C28.8572 70.5134 28.8366 70.4359 28.838 70.3573C28.8393 70.2786 28.8627 70.2019 28.9054 70.1358C29.4345 69.1781 30.1693 68.3495 31.0569 67.7096C31.5541 67.3556 32.1906 67.3751 32.7282 67.7096C33.4336 68.1431 34.182 68.5036 34.8523 68.993C35.006 69.0898 35.1388 69.2164 35.2428 69.3653C35.1999 68.6741 35.2884 68.0715 34.6714 67.6368C34.1847 67.294 33.804 66.8213 33.5729 66.2727C33.4847 66.083 33.4426 65.8752 33.4501 65.6662C33.4576 65.4572 33.5144 65.2529 33.6158 65.07C34.1 64.1498 34.825 63.4574 35.6645 62.8821C35.8185 62.7831 35.9986 62.7328 36.1816 62.7376C36.3645 62.7425 36.5417 62.8024 36.6902 62.9094C37.5021 63.4385 38.1773 64.1521 38.6608 64.9919C38.9523 65.5126 38.9042 66.0137 38.6295 66.5109C38.3646 66.9765 38.0039 67.3806 37.5714 67.6966C37.3618 67.8554 37.2043 68.0168 37.1809 68.2915C37.1575 68.5661 37.0078 68.7809 37.0143 69.0464C37.0143 69.1102 36.9856 69.1922 37.0533 69.2325C37.121 69.2729 37.1757 69.2052 37.229 69.1648C37.9788 68.5908 38.8131 68.1496 39.6331 67.694C40.2214 67.3673 40.8891 67.3595 41.4384 67.8242C42.218 68.4531 42.8792 69.216 43.3908 70.0772C43.4444 70.1558 43.475 70.2478 43.4789 70.3428C43.4828 70.4379 43.4599 70.5321 43.4129 70.6148C42.9782 71.4725 42.3065 72.1246 41.6115 72.7598C41.4618 72.8978 41.2991 73.0201 41.139 73.1503C40.6913 73.4965 40.2084 73.5199 39.7073 73.2922C38.9245 72.9568 38.1921 72.5143 37.531 71.9776C37.4555 71.9138 37.3605 71.8044 37.2707 71.8669C37.1809 71.9294 37.1666 73.1034 37.2902 73.3729C37.8408 74.1473 39.0734 74.6575 39.0734 76.2168C39.0643 76.4771 39.0356 76.5761 38.7233 76.4889C38.3293 76.3847 37.9242 76.3283 37.5167 76.321C36.9961 76.304 36.6342 76.321 36.3583 75.9123C36.2281 75.7131 36.1435 75.6519 35.9951 75.9018C35.5721 76.6242 34.8237 76.3314 34.1339 76.4016C33.9415 76.4031 33.7505 76.4343 33.5677 76.4941C33.3269 76.5956 33.2215 76.5175 33.2019 76.2442C33.1668 75.7365 33.3646 75.2914 33.5612 74.8554C33.7889 74.3516 34.4528 73.8649 34.8055 73.4236C35.1582 72.9824 34.9968 72.4722 35.0072 71.8643ZM36.9596 64.6405C37.0039 64.6447 37.0486 64.6388 37.0902 64.6232C37.1319 64.6076 37.1695 64.5828 37.2002 64.5506C37.2309 64.5184 37.2539 64.4797 37.2675 64.4373C37.281 64.3949 37.2848 64.35 37.2785 64.306C37.2655 64.0873 37.121 63.9884 36.9088 63.9975C36.8659 63.9945 36.8228 64.0008 36.7826 64.0162C36.7424 64.0315 36.706 64.0554 36.676 64.0863C36.646 64.1172 36.6231 64.1542 36.6089 64.1949C36.5947 64.2355 36.5896 64.2788 36.5939 64.3216C36.59 64.5507 36.7227 64.6431 36.957 64.6405H36.9596ZM35.0255 64.4231C35.0255 64.5416 35.1556 64.6548 35.3404 64.6535C35.3831 64.6585 35.4263 64.6535 35.4667 64.639C35.5071 64.6244 35.5435 64.6007 35.5732 64.5697C35.6028 64.5386 35.6249 64.5011 35.6376 64.4601C35.6503 64.4191 35.6533 64.3757 35.6463 64.3333C35.6479 64.2874 35.6394 64.2418 35.6215 64.1995C35.6035 64.1572 35.5766 64.1194 35.5425 64.0886C35.5084 64.0579 35.4679 64.035 35.4241 64.0215C35.3802 64.008 35.3339 64.0042 35.2884 64.0105C35.0853 64.017 35.0228 64.1498 35.0255 64.4231Z" fill="#FFB000"/>
<path d="M36.9571 64.6404C36.7228 64.6404 36.59 64.5506 36.5913 64.3215C36.587 64.2786 36.5922 64.2352 36.6064 64.1944C36.6207 64.1537 36.6437 64.1166 36.6738 64.0857C36.704 64.0548 36.7406 64.0309 36.7809 64.0156C36.8213 64.0004 36.8646 63.9942 36.9076 63.9974C37.1198 63.9883 37.2642 64.0872 37.2773 64.3059C37.2836 64.3501 37.2798 64.3951 37.2662 64.4376C37.2525 64.48 37.2294 64.5189 37.1986 64.5511C37.1677 64.5833 37.13 64.6081 37.0881 64.6236C37.0463 64.6391 37.0015 64.6448 36.9571 64.6404Z" fill="#FFB000"/>
<path d="M35.0254 64.4231C35.0254 64.1498 35.0853 64.017 35.2857 64.0053C35.3318 63.9985 35.3789 64.002 35.4235 64.0156C35.4681 64.0292 35.5092 64.0526 35.5437 64.0839C35.5781 64.1153 35.6052 64.154 35.623 64.1971C35.6407 64.2402 35.6487 64.2868 35.6462 64.3333C35.653 64.3752 35.6501 64.4181 35.6377 64.4587C35.6253 64.4993 35.6037 64.5364 35.5747 64.5674C35.5456 64.5983 35.5099 64.6222 35.4701 64.6371C35.4304 64.652 35.3878 64.6576 35.3456 64.6535C35.149 64.6548 35.0254 64.5416 35.0254 64.4231Z" fill="#FFB000"/>
<path d="M35.6437 70.4676C35.0687 70.8954 34.4636 71.2812 33.8332 71.6221C33.5438 71.7786 33.2383 71.9034 32.9221 71.9944C32.6449 72.0712 32.3338 72.0985 32.0722 71.915C31.0309 71.1822 30.1263 70.3284 29.5289 69.1817C29.4887 69.1142 29.4682 69.0369 29.4698 68.9584C29.4714 68.88 29.495 68.8035 29.538 68.7378C30.0694 67.7785 30.8085 66.95 31.7012 66.313C32.1984 65.9589 32.8349 65.9784 33.3724 66.313C34.0701 66.7412 34.825 67.1017 35.4888 67.5872C35.6422 67.6839 35.7749 67.8099 35.8793 67.9582C35.835 67.267 35.9249 66.6657 35.3079 66.2297C34.8194 65.8895 34.4371 65.4179 34.2055 64.8695C34.1171 64.6799 34.0748 64.4722 34.082 64.2632C34.0893 64.0541 34.1458 63.8498 34.2471 63.6668C34.7313 62.7466 35.4576 62.0542 36.2958 61.4789C36.4499 61.3801 36.6301 61.33 36.813 61.3351C36.996 61.3402 37.1731 61.4003 37.3215 61.5075C38.1334 62.0365 38.8087 62.7501 39.2921 63.59C39.5849 64.1107 39.5368 64.6118 39.2608 65.1103C38.9978 65.576 38.6394 65.9809 38.2091 66.2986C37.9996 66.4561 37.8421 66.6175 37.8187 66.8922C37.7952 67.1668 37.6455 67.3816 37.6521 67.6471C37.6521 67.7109 37.6247 67.7929 37.6924 67.8332C37.7601 67.8736 37.8148 67.8072 37.8668 67.7668C38.6126 67.1967 39.4482 66.7503 40.2682 66.2947C40.8566 65.968 41.523 65.9615 42.0736 66.4249C42.8363 67.0757 43.5235 67.7968 44.0259 68.6792C44.0799 68.7574 44.1107 68.8492 44.1146 68.9442C44.1185 69.0391 44.0954 69.1332 44.0481 69.2155C43.6133 70.0745 42.9417 70.7253 42.248 71.3618C42.097 71.492 41.9356 71.6221 41.7742 71.7523C41.3277 72.0998 40.8435 72.1219 40.3424 71.8955C39.5579 71.5597 38.8233 71.1174 38.1597 70.5809C38.0842 70.5184 37.9892 70.4077 37.8994 70.4702C37.8096 70.5327 37.7939 71.708 37.9176 71.9762C38.4682 72.7571 39.7008 73.2621 39.7008 74.8201C39.6916 75.0804 39.6643 75.1794 39.3506 75.0922C38.9565 74.9886 38.5515 74.9323 38.1441 74.9243C37.6234 74.9086 37.2616 74.9243 36.9856 74.5169C36.8555 74.3177 36.7709 74.2565 36.6238 74.5051C36.2008 75.2275 35.4524 74.9347 34.7625 75.005C34.5698 75.007 34.3785 75.0381 34.195 75.0974C33.9542 75.1989 33.8488 75.1221 33.8306 74.8488C33.7942 74.3411 33.9933 73.8947 34.1885 73.46C34.4163 72.955 35.0801 72.4682 35.4342 72.0282C35.7882 71.5883 35.6333 71.0742 35.6437 70.4676Z" fill="#425CE6"/>
</g>
</g>
<g clip-path="url(#clip5_3_4296)" filter="url(#filter1_d_3_4296)">
<g clip-path="url(#clip6_3_4296)">
<path d="M80.4049 5.38086H28.0239V80.6189H80.4049V5.38086Z" stroke="#CCCCCC" stroke-width="0.1875" stroke-miterlimit="10"/>
<path d="M40.1954 5.38086H28.0239V80.6189H40.1954V5.38086Z" stroke="#CCCCCC" stroke-width="0.1875" stroke-miterlimit="10"/>
<path d="M40.1954 16.4729H28.0239V18.6634H40.1954V16.4729Z" stroke="#CCCCCC" stroke-width="0.1875" stroke-miterlimit="10"/>
<path d="M80.405 78.4285H35.5034V80.6189H80.405V78.4285Z" stroke="#CCCCCC" stroke-width="0.1875" stroke-miterlimit="10"/>
<path d="M78.535 14.2825H40.1953V78.4285H78.535V14.2825Z" stroke="#CCCCCC" stroke-width="0.1875" stroke-miterlimit="10"/>
<path d="M70.7099 20.0889H48.021V69.2762H70.7099V20.0889Z" stroke="#CCCCCC" stroke-width="0.16875" stroke-miterlimit="10"/>
<path d="M48.021 36.4856H70.7099" stroke="#CCCCCC" stroke-width="0.16875" stroke-miterlimit="10"/>
<path d="M48.021 52.8794H70.7099" stroke="#CCCCCC" stroke-width="0.16875" stroke-miterlimit="10"/>
<path d="M48.021 44.6826H70.7099" stroke="#CCCCCC" stroke-width="0.16875" stroke-miterlimit="10"/>
<path d="M59.3638 69.2762V20.0889" stroke="#CCCCCC" stroke-width="0.16875" stroke-miterlimit="10"/>
<path d="M70.7099 44.6825L59.3639 20.0889L48.021 44.6825L59.3639 69.2762L70.7099 44.6825Z" stroke="#CCCCCC" stroke-width="0.16875" stroke-miterlimit="10"/>
<path d="M48.021 20.0889L70.7099 36.4857" stroke="#CCCCCC" stroke-width="0.16875" stroke-miterlimit="10"/>
<path d="M48.021 36.4857L70.7099 20.0889" stroke="#CCCCCC" stroke-width="0.16875" stroke-miterlimit="10"/>
<path d="M48.021 36.4856L70.7099 52.8792" stroke="#CCCCCC" stroke-width="0.16875" stroke-miterlimit="10"/>
<path d="M48.021 52.8792L70.7099 36.4856" stroke="#CCCCCC" stroke-width="0.16875" stroke-miterlimit="10"/>
<path d="M48.021 52.8794L70.7099 69.2762" stroke="#CCCCCC" stroke-width="0.16875" stroke-miterlimit="10"/>
<path d="M48.021 69.2762L70.7099 52.8794" stroke="#CCCCCC" stroke-width="0.16875" stroke-miterlimit="10"/>
<path d="M78.9764 3H29.4526C27.3486 3 25.6431 4.70558 25.6431 6.80952V79.1905C25.6431 81.2944 27.3486 83 29.4526 83H78.9764C81.0803 83 82.7859 81.2944 82.7859 79.1905V6.80952C82.7859 4.70558 81.0803 3 78.9764 3Z" fill="#FFF4D7"/>
</g>
<g clip-path="url(#clip7_3_4296)">
<path d="M34.6528 25.8193L38.021 22.6892C38.1445 22.575 38.2431 22.4366 38.3105 22.2825C38.3779 22.1284 38.4127 21.9621 38.4127 21.7939C38.4127 21.6258 38.3779 21.4594 38.3105 21.3053C38.2431 21.1513 38.1445 21.0128 38.021 20.8987L34.6528 17.7527C34.5885 17.6917 34.5033 17.6577 34.4147 17.6577C34.3261 17.6577 34.2409 17.6917 34.1766 17.7527L30.7925 20.8987C30.6694 21.0131 30.5712 21.1516 30.5041 21.3056C30.437 21.4597 30.4023 21.6259 30.4023 21.7939C30.4023 21.9619 30.437 22.1282 30.5041 22.2822C30.5712 22.4362 30.6694 22.5748 30.7925 22.6892L34.1766 25.8193C34.2416 25.8789 34.3265 25.9119 34.4147 25.9119C34.5029 25.9119 34.5878 25.8789 34.6528 25.8193Z" fill="#EA8F00"/>
<path d="M34.475 24.8922C33.767 24.1335 33.0876 23.4033 32.4051 22.67C32.2654 22.5208 32.1194 22.3779 31.9734 22.2382C31.8299 22.0644 31.7551 21.8439 31.7633 21.6187C31.7715 21.3934 31.8621 21.179 32.0178 21.016C32.7257 20.289 33.44 19.562 34.148 18.8223C34.1764 18.7764 34.2162 18.7385 34.2634 18.7122C34.3106 18.6859 34.3638 18.6721 34.4178 18.6721C34.4719 18.6721 34.525 18.6859 34.5722 18.7122C34.6195 18.7385 34.6592 18.7764 34.6876 18.8223C35.421 19.6477 36.1638 20.47 36.8813 21.3081C37.1988 21.6731 37.0908 21.997 36.7289 22.3811C36.094 23.0541 35.5003 23.762 34.8845 24.4541C34.767 24.5938 34.64 24.7208 34.475 24.8922Z" fill="#EA8F00"/>
</g>
<path d="M31.4493 16.473L31.208 14.9651C32.1786 14.2151 33.0066 13.2968 33.6524 12.254C34.1873 11.3956 34.4792 10.4081 34.4969 9.39683C34.518 8.89902 34.4086 8.40435 34.1794 7.96191C34.1104 7.80496 33.999 7.67038 33.8577 7.57335C33.7163 7.47632 33.5507 7.42068 33.3794 7.4127C33.2781 7.40814 33.1769 7.42533 33.0827 7.46311C32.9885 7.50089 32.9035 7.55839 32.8334 7.63175C32.7608 7.71233 32.7051 7.80669 32.6696 7.90921C32.6342 8.01174 32.6197 8.12034 32.6271 8.22858C32.6107 8.59145 32.6918 8.95208 32.862 9.27302C33.0715 9.58458 33.3566 9.83797 33.6905 10.0095L32.6778 12.1873C32.1398 12.0014 31.6669 11.6641 31.3159 11.2159C31.0105 10.7644 30.857 10.2272 30.8778 9.68254C30.8711 8.75015 31.2235 7.85094 31.862 7.17143C32.1313 6.83989 32.4696 6.571 32.8533 6.3835C33.2371 6.196 33.6572 6.09438 34.0842 6.08572C34.4504 6.06966 34.8158 6.13217 35.1559 6.26906C35.4959 6.40596 35.8027 6.61405 36.0556 6.87937C36.5657 7.45728 36.831 8.21096 36.7953 8.98096C36.7736 9.78726 36.5475 10.5749 36.1382 11.2698C35.5026 12.3309 34.7509 13.318 33.8969 14.2127H34.6905C35.0068 14.233 35.3216 14.1554 35.5921 13.9905C35.6957 13.9189 35.7814 13.8243 35.8425 13.7142C35.9036 13.6041 35.9385 13.4814 35.9445 13.3556H36.6969L36.5223 16.9556H35.6366L35.6017 16.4794L31.4493 16.473Z" fill="#EA8F00"/>
<g clip-path="url(#clip8_3_4296)">
<path d="M56.0472 30.5467C55.7142 30.5822 55.5463 30.3365 55.3538 30.1058C54.5347 29.1161 54.0515 27.9216 53.4427 26.8146C53.3547 26.6426 53.2312 26.4912 53.0803 26.3705C52.9295 26.2498 52.7548 26.1624 52.5677 26.1143C51.4346 25.7839 50.3699 25.2515 49.2314 24.9512C49.0484 24.8973 48.8793 24.8041 48.7359 24.6782C48.6092 24.5889 48.5182 24.4578 48.4787 24.308C48.4393 24.1582 48.454 23.9992 48.5202 23.8592C48.6936 23.4182 49.0103 23.0852 49.3392 22.7671C50.2572 21.9128 51.3205 21.2295 52.4789 20.7495C52.9731 20.5352 53.2188 20.2171 53.373 19.7162C53.7239 18.5722 54.2303 17.4993 55.089 16.6338C55.706 16.0127 56.3912 16.0127 57.0096 16.6338C57.8655 17.4993 58.3747 18.5736 58.7242 19.7162C58.8743 20.2008 59.1064 20.5188 59.5896 20.7318C60.9233 21.3215 62.1655 22.0655 63.147 23.1766C63.9401 24.0735 63.7982 24.6782 62.6583 25.0045C61.5635 25.3321 60.5329 25.8495 59.4285 26.1511C59.2657 26.1983 59.1146 26.2794 58.9852 26.389C58.8558 26.4986 58.751 26.6343 58.6777 26.7873C58.0539 27.9066 57.5693 29.1079 56.7448 30.1112C56.4786 30.4361 56.3571 30.5426 56.0472 30.5467ZM55.4084 18.2678C55.3688 18.1381 55.3237 18.003 55.1504 17.9948C54.977 17.9866 54.8501 18.0439 54.8419 18.2419C54.8419 18.4098 54.8801 18.5545 55.0698 18.5736C55.2596 18.5927 55.347 18.4425 55.4084 18.2678ZM56.91 18.519C57.0983 18.519 57.183 18.4221 57.183 18.2337C57.183 18.0453 57.1024 17.9525 56.9373 17.9607C56.8597 17.9635 56.7862 17.9964 56.7324 18.0525C56.6787 18.1085 56.6488 18.1833 56.6492 18.261C56.6452 18.2962 56.6493 18.3319 56.6611 18.3653C56.6729 18.3987 56.6921 18.429 56.7174 18.4539C56.7427 18.4787 56.7733 18.4975 56.8069 18.5088C56.8405 18.5201 56.8762 18.5236 56.9113 18.519H56.91Z" fill="#425CE6"/>
<path d="M55.4086 18.2679C55.3472 18.4426 55.2721 18.5928 55.0701 18.5737C54.8681 18.5546 54.8353 18.4099 54.8421 18.242C54.8503 18.044 54.9786 17.9853 55.1506 17.9949C55.3226 18.0044 55.369 18.1382 55.4086 18.2679Z" fill="#425CE6"/>
<path d="M56.9102 18.519C56.8751 18.5233 56.8396 18.5197 56.8061 18.5083C56.7727 18.4969 56.7423 18.4781 56.7172 18.4532C56.6921 18.4284 56.673 18.3982 56.6612 18.3649C56.6495 18.3316 56.6455 18.296 56.6494 18.261C56.6494 18.1826 56.6802 18.1074 56.7351 18.0515C56.79 17.9956 56.8646 17.9634 56.9429 17.962C57.1081 17.9525 57.19 18.0617 57.1886 18.235C57.1873 18.4084 57.0999 18.5176 56.9102 18.519Z" fill="#425CE6"/>
<path d="M56.6615 28.3381C56.3284 28.3736 56.1605 28.1279 55.968 27.8972C55.149 26.9075 54.6657 25.7131 54.0569 24.6046C53.9688 24.4336 53.8457 24.283 53.6957 24.1626C53.5457 24.0422 53.372 23.9547 53.186 23.9057C52.0489 23.5753 50.9882 23.043 49.8457 22.7426C49.6632 22.6907 49.4942 22.5999 49.3501 22.4765C49.2235 22.3872 49.1324 22.2561 49.093 22.1062C49.0535 21.9564 49.0682 21.7975 49.1344 21.6574C49.3078 21.2151 49.6245 20.8834 49.9535 20.5653C50.873 19.7094 51.9388 19.0256 53.1 18.5464C53.5942 18.3321 53.8399 18.014 53.9941 17.513C54.3409 16.3691 54.8473 15.2948 55.7059 14.4307C56.323 13.8096 57.0082 13.8096 57.6266 14.4307C58.4825 15.2961 58.9917 16.3705 59.3411 17.513C59.4913 17.9976 59.7234 18.3157 60.2066 18.5286C61.5403 19.1184 62.7825 19.8623 63.764 20.9735C64.5571 21.8704 64.4151 22.4751 63.2753 22.8013C62.1737 23.1194 61.1471 23.6368 60.0428 23.9385C59.8799 23.9856 59.7288 24.0667 59.5994 24.1763C59.4701 24.2859 59.3653 24.4217 59.292 24.5746C58.6682 25.6939 58.1836 26.8952 57.3591 27.8986C57.0929 28.2275 56.9714 28.334 56.6615 28.3381Z" fill="#FFB000"/>
</g>
<g clip-path="url(#clip9_3_4296)">
<path d="M56.0472 77.3309C55.7142 77.3664 55.5463 77.1206 55.3538 76.8899C54.5347 75.9003 54.0515 74.7058 53.4427 73.5987C53.3547 73.4267 53.2312 73.2754 53.0803 73.1547C52.9295 73.0339 52.7548 72.9466 52.5677 72.8985C51.4346 72.5681 50.3699 72.0357 49.2314 71.7354C49.0484 71.6814 48.8793 71.5883 48.7359 71.4624C48.6092 71.3731 48.5182 71.242 48.4787 71.0922C48.4393 70.9424 48.454 70.7834 48.5202 70.6433C48.6936 70.2024 49.0103 69.8693 49.3392 69.5513C50.2572 68.697 51.3205 68.0137 52.4789 67.5337C52.9731 67.3194 53.2188 67.0013 53.373 66.5003C53.7239 65.3564 54.2303 64.2834 55.089 63.418C55.706 62.7969 56.3912 62.7969 57.0096 63.418C57.8655 64.2834 58.3747 65.3578 58.7242 66.5003C58.8743 66.9849 59.1064 67.303 59.5896 67.5159C60.9233 68.1057 62.1655 68.8496 63.147 69.9608C63.9401 70.8577 63.7982 71.4624 62.6583 71.7886C61.5635 72.1163 60.5329 72.6336 59.4285 72.9353C59.2657 72.9825 59.1146 73.0635 58.9852 73.1732C58.8558 73.2828 58.751 73.4185 58.6777 73.5714C58.0539 74.6908 57.5693 75.8921 56.7448 76.8954C56.4786 77.2203 56.3571 77.3268 56.0472 77.3309ZM55.4084 65.052C55.3688 64.9223 55.3237 64.7872 55.1504 64.779C54.977 64.7708 54.8501 64.8281 54.8419 65.026C54.8419 65.1939 54.8801 65.3386 55.0698 65.3578C55.2596 65.3769 55.347 65.2267 55.4084 65.052ZM56.91 65.3032C57.0983 65.3032 57.183 65.2062 57.183 65.0179C57.183 64.8295 57.1024 64.7366 56.9373 64.7448C56.8597 64.7477 56.7862 64.7806 56.7324 64.8367C56.6787 64.8927 56.6488 64.9675 56.6492 65.0452C56.6452 65.0804 56.6493 65.116 56.6611 65.1495C56.6729 65.1829 56.6921 65.2132 56.7174 65.238C56.7427 65.2629 56.7733 65.2817 56.8069 65.293C56.8405 65.3043 56.8762 65.3077 56.9113 65.3032H56.91Z" fill="#425CE6"/>
<path d="M55.4086 65.0521C55.3472 65.2268 55.2721 65.377 55.0701 65.3578C54.8681 65.3387 54.8353 65.194 54.8421 65.0261C54.8503 64.8282 54.9786 64.7695 55.1506 64.7791C55.3226 64.7886 55.369 64.9224 55.4086 65.0521Z" fill="#425CE6"/>
<path d="M56.9102 65.3031C56.8751 65.3075 56.8396 65.3038 56.8061 65.2925C56.7727 65.2811 56.7423 65.2623 56.7172 65.2374C56.6921 65.2126 56.673 65.1824 56.6612 65.1491C56.6495 65.1158 56.6455 65.0802 56.6494 65.0451C56.6494 64.9668 56.6802 64.8916 56.7351 64.8357C56.79 64.7797 56.8646 64.7476 56.9429 64.7462C57.1081 64.7366 57.19 64.8458 57.1886 65.0192C57.1873 65.1926 57.0999 65.3018 56.9102 65.3031Z" fill="#425CE6"/>
<path d="M56.6615 75.1223C56.3284 75.1578 56.1605 74.9121 55.968 74.6814C55.149 73.6917 54.6657 72.4972 54.0569 71.3888C53.9688 71.2178 53.8457 71.0672 53.6957 70.9468C53.5457 70.8264 53.372 70.7389 53.186 70.6899C52.0489 70.3595 50.9882 69.8271 49.8457 69.5268C49.6632 69.4749 49.4942 69.3841 49.3501 69.2606C49.2235 69.1714 49.1324 69.0403 49.093 68.8904C49.0535 68.7406 49.0682 68.5817 49.1344 68.4416C49.3078 67.9993 49.6245 67.6676 49.9535 67.3495C50.873 66.4936 51.9388 65.8098 53.1 65.3306C53.5942 65.1163 53.8399 64.7982 53.9941 64.2972C54.3409 63.1533 54.8473 62.079 55.7059 61.2149C56.323 60.5937 57.0082 60.5937 57.6266 61.2149C58.4825 62.0803 58.9917 63.1546 59.3411 64.2972C59.4913 64.7818 59.7234 65.0999 60.2066 65.3128C61.5403 65.9025 62.7825 66.6465 63.764 67.7577C64.5571 68.6545 64.4151 69.2593 63.2753 69.5855C62.1737 69.9036 61.1471 70.421 60.0428 70.7226C59.8799 70.7698 59.7288 70.8509 59.5994 70.9605C59.4701 71.0701 59.3653 71.2058 59.292 71.3588C58.6682 72.4781 58.1836 73.6794 57.3591 74.6827C57.0929 75.0117 56.9714 75.1182 56.6615 75.1223Z" fill="#FFB000"/>
</g>
</g>
<g clip-path="url(#clip10_3_4296)" filter="url(#filter2_d_3_4296)">
<g clip-path="url(#clip11_3_4296)">
<path d="M100.047 5.38086H47.6665V80.6189H100.047V5.38086Z" stroke="#CCCCCC" stroke-width="0.1875" stroke-miterlimit="10"/>
<path d="M59.8379 5.38086H47.6665V80.6189H59.8379V5.38086Z" stroke="#CCCCCC" stroke-width="0.1875" stroke-miterlimit="10"/>
<path d="M59.8379 16.4729H47.6665V18.6634H59.8379V16.4729Z" stroke="#CCCCCC" stroke-width="0.1875" stroke-miterlimit="10"/>
<path d="M100.048 78.4285H55.146V80.6189H100.048V78.4285Z" stroke="#CCCCCC" stroke-width="0.1875" stroke-miterlimit="10"/>
<path d="M98.1776 14.2825H59.8379V78.4285H98.1776V14.2825Z" stroke="#CCCCCC" stroke-width="0.1875" stroke-miterlimit="10"/>
<path d="M90.3525 20.0889H67.6636V69.2762H90.3525V20.0889Z" stroke="#CCCCCC" stroke-width="0.16875" stroke-miterlimit="10"/>
<path d="M67.6636 36.4856H90.3525" stroke="#CCCCCC" stroke-width="0.16875" stroke-miterlimit="10"/>
<path d="M67.6636 52.8794H90.3525" stroke="#CCCCCC" stroke-width="0.16875" stroke-miterlimit="10"/>
<path d="M67.6636 44.6826H90.3525" stroke="#CCCCCC" stroke-width="0.16875" stroke-miterlimit="10"/>
<path d="M79.0063 69.2762V20.0889" stroke="#CCCCCC" stroke-width="0.16875" stroke-miterlimit="10"/>
<path d="M90.3525 44.6825L79.0064 20.0889L67.6636 44.6825L79.0064 69.2762L90.3525 44.6825Z" stroke="#CCCCCC" stroke-width="0.16875" stroke-miterlimit="10"/>
<path d="M67.6636 20.0889L90.3525 36.4857" stroke="#CCCCCC" stroke-width="0.16875" stroke-miterlimit="10"/>
<path d="M67.6636 36.4857L90.3525 20.0889" stroke="#CCCCCC" stroke-width="0.16875" stroke-miterlimit="10"/>
<path d="M67.6636 36.4856L90.3525 52.8792" stroke="#CCCCCC" stroke-width="0.16875" stroke-miterlimit="10"/>
<path d="M67.6636 52.8792L90.3525 36.4856" stroke="#CCCCCC" stroke-width="0.16875" stroke-miterlimit="10"/>
<path d="M67.6636 52.8794L90.3525 69.2762" stroke="#CCCCCC" stroke-width="0.16875" stroke-miterlimit="10"/>
<path d="M67.6636 69.2762L90.3525 52.8794" stroke="#CCCCCC" stroke-width="0.16875" stroke-miterlimit="10"/>
<path d="M98.619 3H49.0952C46.9912 3 45.2856 4.70558 45.2856 6.80952V79.1905C45.2856 81.2944 46.9912 83 49.0952 83H98.619C100.723 83 102.429 81.2944 102.429 79.1905V6.80952C102.429 4.70558 100.723 3 98.619 3Z" fill="#FFF4D7"/>
</g>
<g clip-path="url(#clip12_3_4296)">
<path d="M58.2763 20.8635L56.2763 18.0063C56.2435 17.959 56.2018 17.9186 56.1535 17.8874C56.1051 17.8562 56.0511 17.8349 55.9945 17.8245C55.9379 17.8142 55.8798 17.8152 55.8236 17.8273C55.7674 17.8394 55.7141 17.8625 55.6667 17.8952L54.454 18.7333C54.3374 18.8139 54.199 18.857 54.0572 18.857C53.9155 18.857 53.777 18.8139 53.6604 18.7333L52.4509 17.8952C52.3552 17.8287 52.2371 17.8026 52.1223 17.8229C52.0075 17.8431 51.9053 17.9079 51.8382 18.0032L49.8413 20.8635C49.7845 20.9458 49.7573 21.045 49.7642 21.1448C49.7712 21.2445 49.8118 21.339 49.8794 21.4127L53.7334 25.6095C53.7743 25.6525 53.8236 25.6868 53.8781 25.7102C53.9327 25.7336 53.9915 25.7457 54.0509 25.7457C54.1102 25.7457 54.169 25.7336 54.2236 25.7102C54.2782 25.6868 54.3274 25.6525 54.3683 25.6095L58.2382 21.4127C58.3058 21.339 58.3464 21.2445 58.3534 21.1448C58.3603 21.045 58.3331 20.9458 58.2763 20.8635Z" fill="#EA8F00"/>
<path d="M54.1584 24.6635C54.046 24.6143 53.9395 24.5525 53.841 24.4794L51.0314 21.6604C50.9706 21.6092 50.9211 21.5461 50.886 21.4748C50.8508 21.4036 50.8308 21.3258 50.8272 21.2465C50.8237 21.1671 50.8366 21.0879 50.8652 21.0138C50.8938 20.9397 50.9374 20.8723 50.9933 20.8159C51.3489 20.3302 51.714 19.8318 52.0791 19.3492C52.1491 19.2504 52.2428 19.1708 52.3515 19.1176C52.4603 19.0643 52.5807 19.0393 52.7017 19.0446C52.8227 19.05 52.9404 19.0857 53.044 19.1483C53.1477 19.2109 53.2339 19.2986 53.2949 19.4032C53.4884 19.624 53.7093 19.8192 53.9521 19.9842C54.0187 20.0318 54.2124 19.9842 54.2949 19.9143C54.6171 19.6603 54.9205 19.3834 55.2029 19.0858C55.4886 18.7683 55.7298 18.8731 55.9298 19.127C56.3775 19.6921 56.7997 20.2699 57.2156 20.8572C57.2508 20.9122 57.2732 20.9745 57.2809 21.0394C57.2886 21.1043 57.2814 21.1701 57.26 21.2318C57.0276 21.5925 56.7698 21.9362 56.4886 22.2604C56.2092 22.5778 55.8917 22.8667 55.5902 23.1651C55.2886 23.4635 54.8981 23.8381 54.5616 24.181C54.4219 24.3365 54.3013 24.4985 54.1584 24.6635Z" fill="#EA8F00"/>
</g>
<path d="M51.0919 16.4731L50.8506 14.9651C51.8212 14.2152 52.6492 13.2969 53.295 12.254C53.8299 11.3956 54.1218 10.4081 54.1395 9.39689C54.1606 8.89909 54.0511 8.40441 53.822 7.96197C53.753 7.80502 53.6416 7.67044 53.5002 7.57341C53.3589 7.47638 53.1933 7.42074 53.022 7.41276C52.9206 7.4082 52.8195 7.42539 52.7253 7.46317C52.6311 7.50095 52.5461 7.55845 52.476 7.63181C52.4036 7.71191 52.348 7.80573 52.3126 7.90771C52.2771 8.00968 52.2625 8.11774 52.2696 8.22546C52.2526 8.58942 52.3337 8.95126 52.5046 9.27308C52.7141 9.58464 52.9991 9.83803 53.3331 10.0096L52.3204 12.1874C51.7824 12.0015 51.3095 11.6641 50.9585 11.2159C50.6531 10.7645 50.4996 10.2273 50.5204 9.68261C50.5136 8.75021 50.8661 7.851 51.5046 7.17149C51.7737 6.83953 52.1119 6.57016 52.4956 6.38211C52.8794 6.19407 53.2995 6.09187 53.7268 6.08261C54.0932 6.06715 54.4587 6.13026 54.7987 6.2677C55.1387 6.40513 55.4454 6.61371 55.6982 6.87943C56.2083 7.45734 56.4736 8.21102 56.4379 8.98102C56.4162 9.78732 56.1901 10.5749 55.7807 11.2699C55.1452 12.331 54.3934 13.318 53.5395 14.2128H54.3331C54.6492 14.2314 54.9635 14.1539 55.2347 13.9905C55.3383 13.9189 55.424 13.8244 55.4851 13.7143C55.5462 13.6041 55.5811 13.4814 55.5871 13.3556H56.3395L56.1649 16.9556H55.2792L55.2442 16.4794L51.0919 16.4731Z" fill="#EA8F00"/>
<g clip-path="url(#clip13_3_4296)">
<path d="M68.3968 21.2477C68.3816 21.0546 68.4997 20.7753 68.6076 20.5086C69.174 19.1118 70.0045 17.9778 71.127 17.1511C71.4572 16.9061 71.8445 16.8489 72.228 16.7702C72.8299 16.6559 73.3708 16.8502 73.9295 17.0623C74.2838 17.1956 74.6407 17.2908 74.9454 17.5511C75.1118 17.6921 75.2832 17.6692 75.4775 17.5867C76.1721 17.2896 76.7918 16.7918 77.5092 16.5708C78.0908 16.3892 78.6241 16.3702 79.193 16.76C80.4121 17.5956 81.24 18.4553 81.9448 19.8737C82.3384 20.548 81.9702 21.607 81.6908 22.1073C80.9683 23.4305 76.7562 26.614 76.388 26.9543C76.1568 27.1677 75.4914 29.6718 75.4178 30.0019C75.3835 30.1556 75.2908 30.3004 75.1638 30.3105C74.9949 30.3245 75.0292 30.115 75.0076 29.9956C74.7372 28.5111 74.0908 27.2019 73.8038 26.9048C73.1689 26.2546 69.0584 23.1105 68.7626 22.4908C68.5962 22.1365 68.4083 21.7988 68.3968 21.2477ZM77.0559 18.7753C77.0559 18.5378 76.9581 18.3943 76.7308 18.3588C76.5035 18.3232 76.2699 18.5175 76.2699 18.7143C76.2667 18.7601 76.2731 18.8061 76.2885 18.8493C76.304 18.8925 76.3282 18.932 76.3597 18.9654C76.3912 18.9988 76.4292 19.0253 76.4715 19.0433C76.5137 19.0613 76.5592 19.0703 76.6051 19.0699C76.6541 19.0812 76.7049 19.0825 76.7544 19.0737C76.8039 19.0649 76.8512 19.0461 76.8933 19.0186C76.9354 18.9911 76.9715 18.9554 76.9994 18.9135C77.0274 18.8717 77.0466 18.8247 77.0559 18.7753ZM74.2991 18.8629C74.2889 18.647 74.1899 18.4908 73.9537 18.4908C73.9026 18.4868 73.8513 18.4939 73.8033 18.5116C73.7552 18.5294 73.7116 18.5573 73.6754 18.5935C73.6392 18.6297 73.6113 18.6733 73.5935 18.7214C73.5758 18.7694 73.5687 18.8207 73.5727 18.8718C73.5727 19.0521 73.6743 19.2604 73.8851 19.2388C74.0756 19.2159 74.3359 19.1816 74.2991 18.8629Z" fill="#425CE6"/>
<path d="M77.0559 18.7753C77.0465 18.8243 77.0274 18.871 76.9997 18.9125C76.972 18.954 76.9363 18.9896 76.8946 19.017C76.8529 19.0445 76.8062 19.0633 76.7571 19.0724C76.708 19.0815 76.6576 19.0806 76.6089 19.0699C76.5627 19.0709 76.5168 19.0623 76.4741 19.0445C76.4314 19.0268 76.3929 19.0003 76.361 18.9669C76.3291 18.9334 76.3045 18.8937 76.2888 18.8502C76.2731 18.8067 76.2666 18.7605 76.2698 18.7144C76.2698 18.5175 76.5124 18.3334 76.727 18.3588C76.9416 18.3842 77.0571 18.5378 77.0559 18.7753Z" fill="#425CE6"/>
<path d="M74.2994 18.8629C74.3362 19.1817 74.0759 19.221 73.8867 19.2439C73.6759 19.2655 73.5769 19.0572 73.5743 18.8769C73.5703 18.8259 73.5774 18.7746 73.5951 18.7265C73.6129 18.6785 73.6408 18.6348 73.677 18.5986C73.7132 18.5624 73.7568 18.5345 73.8049 18.5168C73.8529 18.4991 73.9042 18.492 73.9553 18.496C74.1902 18.4909 74.2893 18.6471 74.2994 18.8629Z" fill="#425CE6"/>
<path d="M69.847 18.9353C69.8318 18.741 69.9499 18.4617 70.0578 18.1963C70.6242 16.8032 71.4585 15.6604 72.5772 14.8388C72.9074 14.5937 73.2947 14.5366 73.6794 14.4642C74.2801 14.3499 74.8223 14.5442 75.3797 14.755C75.734 14.8896 76.0908 14.9848 76.3956 15.2451C76.562 15.3861 76.7334 15.3632 76.9277 15.2807C77.6223 14.9836 78.2432 14.4858 78.9594 14.2648C79.5486 14.0794 80.0794 14.0604 80.6496 14.4502C81.8686 15.2858 82.6978 16.1455 83.4013 17.5639C83.795 18.2382 83.4267 19.2972 83.1474 19.7963C82.4147 21.1131 78.2051 24.2953 77.8369 24.6369C77.6058 24.8502 76.9404 27.3544 76.868 27.6845C76.8324 27.8382 76.741 27.9829 76.614 27.9931C76.4439 28.0071 76.4794 27.7975 76.4566 27.6782C76.1861 26.1937 75.5397 24.8845 75.2528 24.5874C74.6115 23.9372 70.5074 20.7931 70.2115 20.1734C70.0477 19.8204 69.8572 19.4813 69.847 18.9353Z" fill="#FFB000"/>
</g>
<g clip-path="url(#clip14_3_4296)">
<path d="M68.3968 68.3492C68.3816 68.1562 68.4997 67.8768 68.6076 67.6102C69.174 66.2133 70.0045 65.0794 71.127 64.2527C71.4572 64.0076 71.8445 63.9505 72.228 63.8718C72.8299 63.7575 73.3708 63.9518 73.9295 64.1638C74.2838 64.2972 74.6407 64.3924 74.9454 64.6527C75.1118 64.7937 75.2832 64.7708 75.4775 64.6883C76.1721 64.3911 76.7918 63.8933 77.5092 63.6724C78.0908 63.4908 78.6241 63.4718 79.193 63.8616C80.4121 64.6972 81.24 65.5568 81.9448 66.9752C82.3384 67.6495 81.9702 68.7086 81.6908 69.2089C80.9683 70.5321 76.7562 73.7156 76.388 74.0559C76.1568 74.2692 75.4914 76.7733 75.4178 77.1035C75.3835 77.2572 75.2908 77.4019 75.1638 77.4121C74.9949 77.426 75.0292 77.2165 75.0076 77.0972C74.7372 75.6127 74.0908 74.3035 73.8038 74.0064C73.1689 73.3562 69.0584 70.2121 68.7626 69.5924C68.5962 69.2381 68.4083 68.9003 68.3968 68.3492ZM77.0559 65.8768C77.0559 65.6394 76.9581 65.4959 76.7308 65.4603C76.5035 65.4248 76.2699 65.6191 76.2699 65.8159C76.2667 65.8617 76.2731 65.9076 76.2885 65.9508C76.304 65.994 76.3282 66.0336 76.3597 66.067C76.3912 66.1004 76.4292 66.1269 76.4715 66.1449C76.5137 66.1629 76.5592 66.1719 76.6051 66.1714C76.6541 66.1827 76.7049 66.184 76.7544 66.1752C76.8039 66.1664 76.8512 66.1477 76.8933 66.1202C76.9354 66.0927 76.9715 66.0569 76.9994 66.0151C77.0274 65.9733 77.0466 65.9263 77.0559 65.8768ZM74.2991 65.9645C74.2889 65.7486 74.1899 65.5924 73.9537 65.5924C73.9026 65.5884 73.8513 65.5955 73.8033 65.6132C73.7552 65.6309 73.7116 65.6589 73.6754 65.6951C73.6392 65.7313 73.6113 65.7749 73.5935 65.8229C73.5758 65.871 73.5687 65.9223 73.5727 65.9733C73.5727 66.1537 73.6743 66.3619 73.8851 66.3403C74.0756 66.3175 74.3359 66.2832 74.2991 65.9645Z" fill="#425CE6"/>
<path d="M77.0559 65.8769C77.0465 65.9259 77.0274 65.9725 76.9997 66.0141C76.972 66.0556 76.9363 66.0911 76.8946 66.1186C76.8529 66.1461 76.8062 66.1649 76.7571 66.174C76.708 66.1831 76.6576 66.1822 76.6089 66.1715C76.5627 66.1725 76.5168 66.1638 76.4741 66.1461C76.4314 66.1283 76.3929 66.1019 76.361 66.0684C76.3291 66.035 76.3045 65.9953 76.2888 65.9518C76.2731 65.9083 76.2666 65.862 76.2698 65.8159C76.2698 65.6191 76.5124 65.435 76.727 65.4604C76.9416 65.4858 77.0571 65.6394 77.0559 65.8769Z" fill="#425CE6"/>
<path d="M74.2994 65.9643C74.3362 66.283 74.0759 66.3224 73.8867 66.3452C73.6759 66.3668 73.5769 66.1586 73.5743 65.9782C73.5703 65.9272 73.5774 65.8759 73.5951 65.8278C73.6129 65.7798 73.6408 65.7362 73.677 65.7C73.7132 65.6638 73.7568 65.6358 73.8049 65.6181C73.8529 65.6004 73.9042 65.5933 73.9553 65.5973C74.1902 65.5922 74.2893 65.7484 74.2994 65.9643Z" fill="#425CE6"/>
<path d="M69.847 66.0369C69.8318 65.8426 69.9499 65.5632 70.0578 65.2978C70.6242 63.9048 71.4585 62.7619 72.5772 61.9404C72.9074 61.6953 73.2947 61.6381 73.6794 61.5658C74.2801 61.4515 74.8223 61.6458 75.3797 61.8566C75.734 61.9912 76.0908 62.0864 76.3956 62.3467C76.562 62.4877 76.7334 62.4648 76.9277 62.3823C77.6223 62.0851 78.2432 61.5873 78.9594 61.3664C79.5486 61.181 80.0794 61.1619 80.6496 61.5518C81.8686 62.3873 82.6978 63.247 83.4013 64.6654C83.795 65.3397 83.4267 66.3988 83.1474 66.8978C82.4147 68.2146 78.2051 71.3969 77.8369 71.7385C77.6058 71.9518 76.9404 74.4559 76.868 74.7861C76.8324 74.9397 76.741 75.0845 76.614 75.0946C76.4439 75.1086 76.4794 74.8991 76.4566 74.7797C76.1861 73.2953 75.5397 71.9861 75.2528 71.6889C74.6115 71.0388 70.5074 67.8946 70.2115 67.275C70.0477 66.9219 69.8572 66.5829 69.847 66.0369Z" fill="#FFB000"/>
</g>
</g>
<g clip-path="url(#clip15_3_4296)" filter="url(#filter3_d_3_4296)">
<g clip-path="url(#clip16_3_4296)">
<path d="M119.691 5.38086H67.3096V80.6189H119.691V5.38086Z" stroke="#CCCCCC" stroke-width="0.1875" stroke-miterlimit="10"/>
<path d="M79.481 5.38086H67.3096V80.6189H79.481V5.38086Z" stroke="#CCCCCC" stroke-width="0.1875" stroke-miterlimit="10"/>
<path d="M79.481 16.4729H67.3096V18.6634H79.481V16.4729Z" stroke="#CCCCCC" stroke-width="0.1875" stroke-miterlimit="10"/>
<path d="M119.691 78.4285H74.7891V80.6189H119.691V78.4285Z" stroke="#CCCCCC" stroke-width="0.1875" stroke-miterlimit="10"/>
<path d="M117.821 14.2825H79.481V78.4285H117.821V14.2825Z" stroke="#CCCCCC" stroke-width="0.1875" stroke-miterlimit="10"/>
<path d="M109.996 20.0889H87.3066V69.2762H109.996V20.0889Z" stroke="#CCCCCC" stroke-width="0.16875" stroke-miterlimit="10"/>
<path d="M87.3066 36.4856H109.996" stroke="#CCCCCC" stroke-width="0.16875" stroke-miterlimit="10"/>
<path d="M87.3066 52.8794H109.996" stroke="#CCCCCC" stroke-width="0.16875" stroke-miterlimit="10"/>
<path d="M87.3066 44.6826H109.996" stroke="#CCCCCC" stroke-width="0.16875" stroke-miterlimit="10"/>
<path d="M98.6494 69.2762V20.0889" stroke="#CCCCCC" stroke-width="0.16875" stroke-miterlimit="10"/>
<path d="M109.996 44.6825L98.6495 20.0889L87.3066 44.6825L98.6495 69.2762L109.996 44.6825Z" stroke="#CCCCCC" stroke-width="0.16875" stroke-miterlimit="10"/>
<path d="M87.3066 20.0889L109.996 36.4857" stroke="#CCCCCC" stroke-width="0.16875" stroke-miterlimit="10"/>
<path d="M87.3066 36.4857L109.996 20.0889" stroke="#CCCCCC" stroke-width="0.16875" stroke-miterlimit="10"/>
<path d="M87.3066 36.4856L109.996 52.8792" stroke="#CCCCCC" stroke-width="0.16875" stroke-miterlimit="10"/>
<path d="M87.3066 52.8792L109.996 36.4856" stroke="#CCCCCC" stroke-width="0.16875" stroke-miterlimit="10"/>
<path d="M87.3066 52.8794L109.996 69.2762" stroke="#CCCCCC" stroke-width="0.16875" stroke-miterlimit="10"/>
<path d="M87.3066 69.2762L109.996 52.8794" stroke="#CCCCCC" stroke-width="0.16875" stroke-miterlimit="10"/>
<path d="M118.262 3H68.7382C66.6343 3 64.9287 4.70558 64.9287 6.80952V79.1905C64.9287 81.2944 66.6343 83 68.7382 83H118.262C120.366 83 122.072 81.2944 122.072 79.1905V6.80952C122.072 4.70558 120.366 3 118.262 3Z" fill="#FFF4D7"/>
</g>
<g clip-path="url(#clip17_3_4296)">
<path d="M73.7196 25.9111H74.8021C74.8572 25.9088 74.911 25.8936 74.9592 25.8667C75.0074 25.8399 75.0485 25.802 75.0794 25.7563C75.1103 25.7106 75.13 25.6583 75.137 25.6036C75.144 25.5489 75.138 25.4933 75.1196 25.4413L74.3989 23.4381C74.3858 23.4016 74.384 23.362 74.3937 23.3245C74.4033 23.287 74.424 23.2532 74.4531 23.2275C74.4822 23.2019 74.5183 23.1856 74.5567 23.1806C74.5952 23.1757 74.6342 23.1825 74.6688 23.2L76.0783 23.9175C76.1769 23.9672 76.2897 23.981 76.3974 23.9567C76.5052 23.9324 76.6011 23.8714 76.6688 23.7841L78.0339 22.0318C78.1042 21.9377 78.1376 21.8211 78.1276 21.704C78.1177 21.587 78.0651 21.4777 77.9799 21.3968L74.0688 17.8C73.9687 17.7083 73.8379 17.6575 73.7021 17.6575C73.5664 17.6575 73.4355 17.7083 73.3354 17.8L69.4275 21.3905C69.3421 21.4714 69.2897 21.581 69.2803 21.6982C69.2709 21.8154 69.3053 21.932 69.3767 22.0254L70.7418 23.7778C70.8086 23.8653 70.9039 23.9266 71.0113 23.9509C71.1186 23.9753 71.2311 23.9612 71.3291 23.9111L72.7386 23.1937C72.7732 23.1761 72.8122 23.1694 72.8507 23.1743C72.8891 23.1792 72.9252 23.1955 72.9543 23.2212C72.9834 23.2468 73.0041 23.2806 73.0137 23.3182C73.0234 23.3557 73.0215 23.3953 73.0085 23.4318L72.2878 25.4413C72.2694 25.4933 72.2634 25.5489 72.2704 25.6036C72.2774 25.6583 72.2971 25.7106 72.328 25.7563C72.3588 25.802 72.4 25.8399 72.4482 25.8667C72.4964 25.8936 72.5502 25.9088 72.6053 25.9111H73.7196Z" fill="#425CE6"/>
</g>
<path d="M70.7349 16.473L70.4936 14.9651C71.4643 14.2151 72.2923 13.2968 72.9381 12.254C73.473 11.3956 73.7648 10.4081 73.7825 9.39683C73.8036 8.89902 73.6942 8.40435 73.4651 7.96191C73.3961 7.80496 73.2847 7.67038 73.1433 7.57335C73.002 7.47632 72.8363 7.42068 72.6651 7.4127C72.5637 7.40814 72.4625 7.42533 72.3683 7.46311C72.2742 7.50089 72.1892 7.55839 72.119 7.63175C72.0464 7.71233 71.9907 7.80669 71.9553 7.90921C71.9198 8.01174 71.9053 8.12034 71.9127 8.22858C71.8961 8.59148 71.9772 8.95219 72.1476 9.27302C72.3572 9.58458 72.6422 9.83797 72.9762 10.0095L71.9635 12.1873C71.4254 12.0014 70.9525 11.6641 70.6016 11.2159C70.2961 10.7644 70.1427 10.2272 70.1635 9.68254C70.1567 8.75015 70.5091 7.85094 71.1476 7.17143C71.4169 6.83989 71.7552 6.571 72.139 6.3835C72.5228 6.196 72.9428 6.09438 73.3698 6.08572C73.736 6.06966 74.1015 6.13217 74.4415 6.26906C74.7815 6.40596 75.0883 6.61405 75.3413 6.87937C75.8514 7.45728 76.1166 8.21096 76.081 8.98096C76.0593 9.78726 75.8332 10.5749 75.4238 11.2698C74.7882 12.3309 74.0365 13.318 73.1825 14.2127H73.9762C74.2923 14.2313 74.6066 14.1539 74.8778 13.9905C74.9814 13.9189 75.0671 13.8243 75.1282 13.7142C75.1893 13.6041 75.2242 13.4814 75.2302 13.3556H75.9825L75.8079 16.9556H74.9222L74.8873 16.4794L70.7349 16.473Z" fill="#425CE6"/>
<g clip-path="url(#clip18_3_4296)">
<path d="M98.8707 24.5131C98.1213 24.5483 97.4612 24.2476 96.7928 23.9692C96.6988 23.9305 96.5943 23.8224 96.505 23.9058C96.4158 23.9892 96.4733 24.0996 96.498 24.2053C96.5901 24.6293 96.7849 25.0242 97.0653 25.3553C97.3426 25.701 97.5667 26.0862 97.7301 26.4982C97.9651 27.0185 98.0825 27.459 98.0684 28.0251C98.0684 28.2248 97.8922 28.441 97.716 28.2601C97.6653 28.2134 97.6053 28.1781 97.5399 28.1564C97.4744 28.1348 97.4052 28.1273 97.3366 28.1344C95.6593 28.1344 95.6922 27.6645 95.3281 27.6645C94.944 27.6645 94.8183 28.0639 93.4487 28.0639C93.3146 28.0899 93.1847 28.1337 93.0623 28.1943C92.8109 28.3294 92.6465 28.2413 92.6547 27.9511C92.6829 27.0573 92.9225 26.2268 93.4769 25.5127C93.6892 25.2101 93.8853 24.8964 94.0642 24.573C94.134 24.4521 94.1742 24.3165 94.1817 24.1771C94.2146 23.7954 94.2005 23.7872 93.8422 23.9176L92.5654 24.3909C91.9076 24.6258 91.2733 24.4496 90.6543 24.2488C89.6113 23.9082 88.9159 23.1916 88.6575 22.1192C88.6136 21.9077 88.6156 21.6892 88.6632 21.4785C88.7108 21.2678 88.803 21.0698 88.9335 20.8976C89.8145 19.6443 90.9022 18.5872 92.092 17.6381C92.8379 17.0414 93.592 16.4565 94.3907 15.9326C95.3175 15.3253 95.3304 15.3112 96.1808 15.8938C97.5069 16.7938 98.7695 17.7839 99.9595 18.8574C100.675 19.509 101.301 20.2519 101.822 21.0668C102.057 21.4286 102.057 21.8643 101.974 22.2813C101.818 23.0166 101.443 23.5898 100.756 23.9551C100.16 24.2711 99.566 24.5518 98.8707 24.5131Z" fill="#FFB000"/>
<path d="M99.9924 23.1683C99.243 23.2023 98.5828 22.9016 97.9145 22.6233C97.8205 22.5845 97.7172 22.4776 97.6267 22.5598C97.5363 22.6421 97.5962 22.7536 97.6197 22.8594C97.7127 23.283 97.9074 23.6777 98.187 24.0093C98.4647 24.355 98.6892 24.7402 98.853 25.1522C99.0879 25.6737 99.2054 26.113 99.1913 26.6792C99.1913 26.8788 99.0139 27.095 98.8389 26.9141C98.7883 26.8673 98.7282 26.8319 98.6628 26.8102C98.5974 26.7886 98.5281 26.7811 98.4595 26.7884C96.7822 26.7884 96.8151 26.3186 96.4509 26.3186C96.0668 26.3186 95.9412 26.7191 94.5716 26.7191C94.4378 26.744 94.3081 26.7875 94.1863 26.8483C93.9338 26.9834 93.7693 26.8953 93.7787 26.6052C93.8057 25.7113 94.0454 24.8808 94.6009 24.1667C94.8131 23.864 95.0092 23.5504 95.1882 23.227C95.2578 23.1065 95.298 22.9713 95.3057 22.8323C95.3374 22.4506 95.3245 22.4412 94.9662 22.5716C94.5434 22.7255 94.1194 22.8758 93.6953 23.0285C93.0375 23.2634 92.4033 23.0872 91.7831 22.8864C90.74 22.5457 90.0447 21.8292 89.7921 20.7568C89.748 20.5454 89.7497 20.3269 89.7971 20.1162C89.8445 19.9055 89.9366 19.7074 90.067 19.5352C90.9432 18.2772 92.0309 17.2283 93.222 16.2757C93.9608 15.6978 94.7149 15.1128 95.5136 14.5937C96.4392 13.9876 96.4533 13.9735 97.3025 14.5561C98.6273 15.4542 99.8887 16.4424 101.078 17.5137C101.794 18.1654 102.422 18.9082 102.945 19.7232C103.18 20.0849 103.18 20.5207 103.097 20.9377C102.941 21.673 102.565 22.2462 101.878 22.6115C101.283 22.9334 100.688 23.2082 99.9924 23.1683Z" fill="#425CE6"/>
</g>
<g clip-path="url(#clip19_3_4296)">
<path d="M98.8707 71.1417C98.1213 71.177 97.4612 70.8763 96.7928 70.5979C96.6988 70.5591 96.5943 70.4511 96.505 70.5345C96.4158 70.6179 96.4733 70.7283 96.498 70.834C96.5901 71.258 96.7849 71.6529 97.0653 71.9839C97.3426 72.3296 97.5667 72.7149 97.7301 73.1268C97.9651 73.6472 98.0825 74.0876 98.0684 74.6538C98.0684 74.8535 97.8922 75.0696 97.716 74.8887C97.6653 74.8421 97.6053 74.8068 97.5399 74.7851C97.4744 74.7634 97.4052 74.7559 97.3366 74.763C95.6593 74.763 95.6922 74.2932 95.3281 74.2932C94.944 74.2932 94.8183 74.6926 93.4487 74.6926C93.3146 74.7185 93.1847 74.7624 93.0623 74.8229C92.8109 74.958 92.6465 74.8699 92.6547 74.5798C92.6829 73.6859 92.9225 72.8555 93.4769 72.1413C93.6892 71.8387 93.8853 71.5251 94.0642 71.2016C94.134 71.0808 94.1742 70.9452 94.1817 70.8058C94.2146 70.4241 94.2005 70.4158 93.8422 70.5462L92.5654 71.0196C91.9076 71.2545 91.2733 71.0783 90.6543 70.8775C89.6113 70.5368 88.9159 69.8203 88.6575 68.7479C88.6136 68.5364 88.6156 68.3179 88.6632 68.1072C88.7108 67.8965 88.803 67.6984 88.9335 67.5263C89.8145 66.273 90.9022 65.2159 92.092 64.2668C92.8379 63.6701 93.592 63.0851 94.3907 62.5613C95.3175 61.954 95.3304 61.9399 96.1808 62.5225C97.5069 63.4224 98.7695 64.4126 99.9595 65.486C100.675 66.1377 101.301 66.8805 101.822 67.6955C102.057 68.0572 102.057 68.493 101.974 68.91C101.818 69.6453 101.443 70.2185 100.756 70.5838C100.16 70.8998 99.566 71.1805 98.8707 71.1417Z" fill="#FFB000"/>
<path d="M99.9924 69.7969C99.243 69.831 98.5828 69.5303 97.9145 69.2519C97.8205 69.2132 97.7172 69.1063 97.6267 69.1885C97.5363 69.2707 97.5962 69.3823 97.6197 69.488C97.7127 69.9117 97.9074 70.3063 98.187 70.638C98.4647 70.9836 98.6892 71.3688 98.853 71.7808C99.0879 72.3024 99.2054 72.7417 99.1913 73.3078C99.1913 73.5075 99.0139 73.7236 98.8389 73.5427C98.7883 73.496 98.7282 73.4606 98.6628 73.4389C98.5974 73.4172 98.5281 73.4098 98.4595 73.4171C96.7822 73.4171 96.8151 72.9472 96.4509 72.9472C96.0668 72.9472 95.9412 73.3478 94.5716 73.3478C94.4378 73.3727 94.3081 73.4162 94.1863 73.477C93.9338 73.612 93.7693 73.524 93.7787 73.2338C93.8057 72.34 94.0454 71.5095 94.6009 70.7954C94.8131 70.4927 95.0092 70.179 95.1882 69.8557C95.2578 69.7351 95.298 69.5999 95.3057 69.461C95.3374 69.0793 95.3245 69.0699 94.9662 69.2002C94.5434 69.3541 94.1194 69.5045 93.6953 69.6572C93.0375 69.8921 92.4033 69.7159 91.7831 69.515C90.74 69.1744 90.0447 68.4579 89.7921 67.3855C89.748 67.174 89.7497 66.9556 89.7971 66.7449C89.8445 66.5342 89.9366 66.3361 90.067 66.1639C90.9432 64.9059 92.0309 63.857 93.222 62.9044C93.9608 62.3265 94.7149 61.7415 95.5136 61.2223C96.4392 60.6162 96.4533 60.6021 97.3025 61.1847C98.6273 62.0828 99.8887 63.0711 101.078 64.1424C101.794 64.7941 102.422 65.5369 102.945 66.3518C103.18 66.7136 103.18 67.1494 103.097 67.5664C102.941 68.3017 102.565 68.8749 101.878 69.2402C101.283 69.562 100.688 69.8369 99.9924 69.7969Z" fill="#425CE6"/>
</g>
</g>
<defs>
<filter id="filter0_d_3_4296" x="0.75" y="0.75" width="64.6431" height="87.5" filterUnits="userSpaceOnUse" color-interpolation-filters="sRGB">
<feFlood flood-opacity="0" result="BackgroundImageFix"/>
<feColorMatrix in="SourceAlpha" type="matrix" values="0 0 0 0 0 0 0 0 0 0 0 0 0 0 0 0 0 0 127 0" result="hardAlpha"/>
<feOffset dx="-1.5" dy="1.5"/>
<feGaussianBlur stdDeviation="1.875"/>
<feComposite in2="hardAlpha" operator="out"/>
<feColorMatrix type="matrix" values="0 0 0 0 0 0 0 0 0 0 0 0 0 0 0 0 0 0 0.25 0"/>
<feBlend mode="normal" in2="BackgroundImageFix" result="effect1_dropShadow_3_4296"/>
<feBlend mode="normal" in="SourceGraphic" in2="effect1_dropShadow_3_4296" result="shape"/>
</filter>
<filter id="filter1_d_3_4296" x="20.3931" y="0.75" width="64.6431" height="87.5" filterUnits="userSpaceOnUse" color-interpolation-filters="sRGB">
<feFlood flood-opacity="0" result="BackgroundImageFix"/>
<feColorMatrix in="SourceAlpha" type="matrix" values="0 0 0 0 0 0 0 0 0 0 0 0 0 0 0 0 0 0 127 0" result="hardAlpha"/>
<feOffset dx="-1.5" dy="1.5"/>
<feGaussianBlur stdDeviation="1.875"/>
<feComposite in2="hardAlpha" operator="out"/>
<feColorMatrix type="matrix" values="0 0 0 0 0 0 0 0 0 0 0 0 0 0 0 0 0 0 0.25 0"/>
<feBlend mode="normal" in2="BackgroundImageFix" result="effect1_dropShadow_3_4296"/>
<feBlend mode="normal" in="SourceGraphic" in2="effect1_dropShadow_3_4296" result="shape"/>
</filter>
<filter id="filter2_d_3_4296" x="40.0356" y="0.75" width="64.6431" height="87.5" filterUnits="userSpaceOnUse" color-interpolation-filters="sRGB">
<feFlood flood-opacity="0" result="BackgroundImageFix"/>
<feColorMatrix in="SourceAlpha" type="matrix" values="0 0 0 0 0 0 0 0 0 0 0 0 0 0 0 0 0 0 127 0" result="hardAlpha"/>
<feOffset dx="-1.5" dy="1.5"/>
<feGaussianBlur stdDeviation="1.875"/>
<feComposite in2="hardAlpha" operator="out"/>
<feColorMatrix type="matrix" values="0 0 0 0 0 0 0 0 0 0 0 0 0 0 0 0 0 0 0.25 0"/>
<feBlend mode="normal" in2="BackgroundImageFix" result="effect1_dropShadow_3_4296"/>
<feBlend mode="normal" in="SourceGraphic" in2="effect1_dropShadow_3_4296" result="shape"/>
</filter>
<filter id="filter3_d_3_4296" x="59.6787" y="0.75" width="64.6431" height="87.5" filterUnits="userSpaceOnUse" color-interpolation-filters="sRGB">
<feFlood flood-opacity="0" result="BackgroundImageFix"/>
<feColorMatrix in="SourceAlpha" type="matrix" values="0 0 0 0 0 0 0 0 0 0 0 0 0 0 0 0 0 0 127 0" result="hardAlpha"/>
<feOffset dx="-1.5" dy="1.5"/>
<feGaussianBlur stdDeviation="1.875"/>
<feComposite in2="hardAlpha" operator="out"/>
<feColorMatrix type="matrix" values="0 0 0 0 0 0 0 0 0 0 0 0 0 0 0 0 0 0 0.25 0"/>
<feBlend mode="normal" in2="BackgroundImageFix" result="effect1_dropShadow_3_4296"/>
<feBlend mode="normal" in="SourceGraphic" in2="effect1_dropShadow_3_4296" result="shape"/>
</filter>
<clipPath id="clip0_3_4296">
<rect width="57.1429" height="80" fill="white" transform="translate(6 3)"/>
</clipPath>
<clipPath id="clip1_3_4296">
<rect width="57.1429" height="80" fill="white" transform="translate(6 3)"/>
</clipPath>
<clipPath id="clip2_3_4296">
<rect width="8.98095" height="8.71428" fill="white" transform="translate(10.2827 17.4253)"/>
</clipPath>
<clipPath id="clip3_3_4296">
<rect width="15.2728" height="15.1947" fill="white" transform="translate(28.8379 13.1936)"/>
</clipPath>
<clipPath id="clip4_3_4296">
<rect width="15.2728" height="15.1947" fill="white" transform="translate(28.8379 61.3396)"/>
</clipPath>
<clipPath id="clip5_3_4296">
<rect width="57.1429" height="80" fill="white" transform="translate(25.6431 3)"/>
</clipPath>
<clipPath id="clip6_3_4296">
<rect width="57.1429" height="80" fill="white" transform="translate(25.6431 3)"/>
</clipPath>
<clipPath id="clip7_3_4296">
<rect width="8.0254" height="8.25397" fill="white" transform="translate(30.4019 17.6572)"/>
</clipPath>
<clipPath id="clip8_3_4296">
<rect width="15.8049" height="16.5843" fill="white" transform="translate(48.459 13.9651)"/>
</clipPath>
<clipPath id="clip9_3_4296">
<rect width="15.8049" height="16.5843" fill="white" transform="translate(48.459 60.7493)"/>
</clipPath>
<clipPath id="clip10_3_4296">
<rect width="57.1429" height="80" fill="white" transform="translate(45.2856 3)"/>
</clipPath>
<clipPath id="clip11_3_4296">
<rect width="57.1429" height="80" fill="white" transform="translate(45.2856 3)"/>
</clipPath>
<clipPath id="clip12_3_4296">
<rect width="8.59365" height="7.93651" fill="white" transform="translate(49.7617 17.8159)"/>
</clipPath>
<clipPath id="clip13_3_4296">
<rect width="15.1759" height="16.1714" fill="white" transform="translate(68.397 14.1365)"/>
</clipPath>
<clipPath id="clip14_3_4296">
<rect width="15.1759" height="16.1714" fill="white" transform="translate(68.397 61.238)"/>
</clipPath>
<clipPath id="clip15_3_4296">
<rect width="57.1429" height="80" fill="white" transform="translate(64.9287 3)"/>
</clipPath>
<clipPath id="clip16_3_4296">
<rect width="57.1429" height="80" fill="white" transform="translate(64.9287 3)"/>
</clipPath>
<clipPath id="clip17_3_4296">
<rect width="8.85397" height="8.25397" fill="white" transform="translate(69.2749 17.6572)"/>
</clipPath>
<clipPath id="clip18_3_4296">
<rect width="14.5216" height="14.2092" fill="white" transform="translate(88.627 14.1238)"/>
</clipPath>
<clipPath id="clip19_3_4296">
<rect width="14.5216" height="14.2092" fill="white" transform="translate(88.627 60.7524)"/>
</clipPath>
</defs>
</svg>
