<svg width="125" height="89" viewBox="0 0 125 89" fill="none" xmlns="http://www.w3.org/2000/svg">
<g clip-path="url(#clip0_3_4209)" filter="url(#filter0_d_3_4209)">
<g clip-path="url(#clip1_3_4209)">
<path d="M60.7618 5.38086H8.38086V80.6189H60.7618V5.38086Z" stroke="#CCCCCC" stroke-width="0.1875" stroke-miterlimit="10"/>
<path d="M20.5523 5.38086H8.38086V80.6189H20.5523V5.38086Z" stroke="#CCCCCC" stroke-width="0.1875" stroke-miterlimit="10"/>
<path d="M20.5523 16.4729H8.38086V18.6634H20.5523V16.4729Z" stroke="#CCCCCC" stroke-width="0.1875" stroke-miterlimit="10"/>
<path d="M60.7619 78.4285H15.8604V80.6189H60.7619V78.4285Z" stroke="#CCCCCC" stroke-width="0.1875" stroke-miterlimit="10"/>
<path d="M58.8919 14.2825H20.5522V78.4285H58.8919V14.2825Z" stroke="#CCCCCC" stroke-width="0.1875" stroke-miterlimit="10"/>
<path d="M51.0668 20.0889H28.3779V69.2762H51.0668V20.0889Z" stroke="#CCCCCC" stroke-width="0.16875" stroke-miterlimit="10"/>
<path d="M28.3779 36.4858H51.0668" stroke="#CCCCCC" stroke-width="0.16875" stroke-miterlimit="10"/>
<path d="M28.3779 52.8794H51.0668" stroke="#CCCCCC" stroke-width="0.16875" stroke-miterlimit="10"/>
<path d="M28.3779 44.6826H51.0668" stroke="#CCCCCC" stroke-width="0.16875" stroke-miterlimit="10"/>
<path d="M39.7207 69.2762V20.0889" stroke="#CCCCCC" stroke-width="0.16875" stroke-miterlimit="10"/>
<path d="M51.0668 44.6825L39.7208 20.0889L28.3779 44.6825L39.7208 69.2762L51.0668 44.6825Z" stroke="#CCCCCC" stroke-width="0.16875" stroke-miterlimit="10"/>
<path d="M28.3779 20.0889L51.0668 36.4857" stroke="#CCCCCC" stroke-width="0.16875" stroke-miterlimit="10"/>
<path d="M28.3779 36.4857L51.0668 20.0889" stroke="#CCCCCC" stroke-width="0.16875" stroke-miterlimit="10"/>
<path d="M28.3779 36.4858L51.0668 52.8795" stroke="#CCCCCC" stroke-width="0.16875" stroke-miterlimit="10"/>
<path d="M28.3779 52.8795L51.0668 36.4858" stroke="#CCCCCC" stroke-width="0.16875" stroke-miterlimit="10"/>
<path d="M28.3779 52.8794L51.0668 69.2762" stroke="#CCCCCC" stroke-width="0.16875" stroke-miterlimit="10"/>
<path d="M28.3779 69.2762L51.0668 52.8794" stroke="#CCCCCC" stroke-width="0.16875" stroke-miterlimit="10"/>
<path d="M59.3333 3H9.80952C7.70558 3 6 4.70558 6 6.80952V79.1905C6 81.2944 7.70558 83 9.80952 83H59.3333C61.4373 83 63.1429 81.2944 63.1429 79.1905V6.80952C63.1429 4.70558 61.4373 3 59.3333 3Z" fill="#FFF4D7"/>
</g>
<g clip-path="url(#clip2_3_4209)">
<path d="M19.0381 22.0382L17.9461 20.5588C17.8505 20.4701 17.7274 20.417 17.5974 20.4084C17.4673 20.3997 17.3382 20.436 17.2318 20.5112L15.3048 21.781C15.2939 21.7877 15.2814 21.7914 15.2686 21.7917C15.2558 21.7921 15.2431 21.789 15.2318 21.7829C15.2206 21.7768 15.2111 21.7678 15.2044 21.7569C15.1977 21.746 15.194 21.7335 15.1937 21.7207V21.327C15.1927 21.2669 15.205 21.2072 15.2297 21.1524C15.2544 21.0975 15.2909 21.0488 15.3365 21.0096L16.7048 19.9397C16.7413 19.9073 16.7706 19.8674 16.7906 19.8228C16.8107 19.7782 16.821 19.7299 16.821 19.681C16.821 19.6321 16.8107 19.5838 16.7906 19.5392C16.7706 19.4946 16.7413 19.4547 16.7048 19.4223L15.1397 17.6413C15.0396 17.5496 14.9088 17.4988 14.773 17.4988C14.6373 17.4988 14.5065 17.5496 14.4064 17.6413L12.8349 19.4223C12.7988 19.455 12.77 19.4949 12.7502 19.5395C12.7305 19.5841 12.7203 19.6323 12.7203 19.681C12.7203 19.7297 12.7305 19.778 12.7502 19.8225C12.77 19.8671 12.7988 19.907 12.8349 19.9397L14.2064 21.0159C14.251 21.0558 14.2865 21.1048 14.3106 21.1595C14.3347 21.2143 14.3468 21.2736 14.3461 21.3334V21.7239C14.3457 21.7367 14.342 21.7492 14.3353 21.7601C14.3286 21.771 14.3192 21.78 14.3079 21.7861C14.2966 21.7922 14.284 21.7952 14.2712 21.7949C14.2584 21.7946 14.2459 21.7909 14.2349 21.7842L12.308 20.5143C12.202 20.4394 12.0735 20.4032 11.944 20.4119C11.8145 20.4206 11.6919 20.4736 11.5969 20.562L10.508 22.0382C10.4221 22.1186 10.3691 22.228 10.3591 22.3453C10.3492 22.4625 10.383 22.5793 10.454 22.6731L11.5905 24.1651C11.6577 24.2521 11.753 24.313 11.8602 24.3373C11.9674 24.3617 12.0797 24.3479 12.1778 24.2985L13.9207 23.3747C13.9552 23.3571 13.9943 23.3504 14.0327 23.3553C14.0712 23.3602 14.1073 23.3765 14.1363 23.4022C14.1654 23.4278 14.1861 23.4616 14.1958 23.4991C14.2054 23.5367 14.2036 23.5763 14.1905 23.6128L13.3619 25.6001C13.3435 25.652 13.3375 25.7076 13.3445 25.7624C13.3515 25.8171 13.3712 25.8694 13.4021 25.9151C13.433 25.9608 13.4741 25.9986 13.5223 26.0255C13.5705 26.0524 13.6243 26.0676 13.6794 26.0699H15.8413C15.8964 26.0676 15.9502 26.0524 15.9984 26.0255C16.0466 25.9986 16.0877 25.9608 16.1186 25.9151C16.1495 25.8694 16.1692 25.8171 16.1762 25.7624C16.1832 25.7076 16.1772 25.652 16.1588 25.6001L15.327 23.6032C15.3139 23.5667 15.3121 23.5272 15.3217 23.4896C15.3314 23.4521 15.3521 23.4183 15.3812 23.3927C15.4102 23.367 15.4463 23.3507 15.4848 23.3458C15.5232 23.3409 15.5623 23.3476 15.5969 23.3651L17.4096 24.2889C17.5086 24.3468 17.6255 24.3662 17.7379 24.3434C17.8504 24.3205 17.9505 24.2571 18.0191 24.1651L19.0889 22.6858C19.1655 22.5921 19.2029 22.4724 19.1935 22.3518C19.184 22.2311 19.1284 22.1188 19.0381 22.0382Z" fill="#425CE6"/>
</g>
<path d="M12.6128 15.1588H12.708H12.8191C12.957 15.1746 13.0966 15.16 13.2282 15.1161C13.3598 15.0722 13.4802 15.0001 13.581 14.9049C13.7239 14.7366 13.7969 14.3525 13.7969 13.7525V7.65091H13.2382V6.52393H16.6414V7.65091H16.1271V13.962C16.1718 14.6864 15.9455 15.4016 15.4922 15.9684C15.2636 16.212 14.984 16.4021 14.6733 16.525C14.3627 16.6479 14.0287 16.7007 13.6953 16.6795C13.3516 16.6804 13.0109 16.6146 12.6922 16.4858L12.6128 15.1588Z" fill="#425CE6"/>
<g clip-path="url(#clip3_3_4209)">
<path d="M31.9362 54.6794C30.4953 55.7509 28.9792 56.7174 27.3997 57.5714C26.6762 57.9591 25.9144 58.2709 25.1267 58.5016C24.4314 58.6952 23.6505 58.7651 22.9933 58.3016C20.3902 56.4667 18.1171 54.3238 16.6187 51.4667C16.5176 51.2975 16.466 51.1034 16.4699 50.9063C16.4739 50.7093 16.5331 50.5173 16.6409 50.3524C17.9666 47.9516 19.8102 45.876 22.0378 44.2762C23.2854 43.3873 24.8949 43.4381 26.2282 44.2762C27.9933 45.3397 29.8695 46.2445 31.5489 47.473C31.939 47.7123 32.2761 48.0288 32.5394 48.4032C32.4282 46.6698 32.6536 45.1619 31.1076 44.0699C29.8855 43.2194 28.9274 42.0423 28.3425 40.673C28.1211 40.1976 28.0151 39.6766 28.0333 39.1525C28.0515 38.6284 28.1934 38.116 28.4473 37.6572C29.6632 35.3492 31.4822 33.6127 33.5838 32.1714C33.9685 31.9229 34.4189 31.7956 34.8767 31.8057C35.3345 31.8159 35.7788 31.9632 36.1521 32.2286C38.1886 33.5533 39.8834 35.3405 41.0981 37.4445C41.8282 38.7619 41.7076 40.0064 41.0187 41.254C40.3566 42.4207 39.4554 43.4344 38.3743 44.2286C37.8505 44.6254 37.4536 45.0286 37.3902 45.7175C37.3267 46.4064 36.9552 46.946 36.9743 47.6222C36.9743 47.7841 36.9013 47.9873 37.0727 48.0889C37.2441 48.1905 37.3902 48.0222 37.5108 47.9206C39.3902 46.4825 41.4854 45.381 43.5425 44.2318C45.0187 43.4127 46.6917 43.3937 48.0695 44.5492C49.9711 46.1714 51.7076 47.9746 52.9425 50.1968C53.0769 50.3935 53.1532 50.6241 53.1627 50.8621C53.1723 51.1001 53.1147 51.336 52.9965 51.5429C51.9076 53.6952 50.2219 55.327 48.4822 56.9206C48.1044 57.2667 47.6981 57.581 47.2949 57.8952C46.1743 58.7619 44.9616 58.8191 43.7013 58.2508C41.7393 57.41 39.9029 56.3022 38.2441 54.9587C38.0568 54.8 37.8187 54.5238 37.5806 54.6825C37.3425 54.8413 37.3171 57.7841 37.6283 58.4603C39.0092 60.4 42.0981 61.6794 42.0981 65.5873C42.0759 66.2508 42.006 66.4889 41.2219 66.2698C40.2339 66.0095 39.2181 65.8688 38.1965 65.8508C36.8917 65.8095 35.9743 65.8508 35.2917 64.8254C34.9489 64.327 34.7552 64.1619 34.3838 64.7968C33.3235 66.6095 31.4536 65.8762 29.7171 66.0667C29.2341 66.0722 28.7547 66.1503 28.2949 66.2984C27.6917 66.5524 27.4282 66.3587 27.3806 65.6635C27.2886 64.3937 27.787 63.2698 28.279 62.1714C28.8505 60.9016 30.5013 59.6857 31.3997 58.5937C32.2981 57.5016 31.9108 56.2032 31.9362 54.6794ZM36.8251 36.5841C36.9363 36.5944 37.0484 36.5793 37.153 36.54C37.2576 36.5007 37.3519 36.4382 37.4289 36.3573C37.5058 36.2763 37.5635 36.179 37.5975 36.0726C37.6314 35.9662 37.6409 35.8535 37.6251 35.7429C37.5933 35.1968 37.2282 34.9492 36.6981 34.9714C36.5906 34.9639 36.4827 34.98 36.3821 35.0186C36.2814 35.0572 36.1904 35.1173 36.1154 35.1947C36.0404 35.2721 35.9832 35.3649 35.9479 35.4668C35.9126 35.5686 35.8999 35.6769 35.9108 35.7841C35.9044 36.3429 36.2378 36.5746 36.8251 36.5683V36.5841ZM31.9838 36.0254C31.9838 36.3206 32.3013 36.6032 32.7743 36.6032C32.8825 36.6153 32.9921 36.602 33.0942 36.5643C33.1964 36.5266 33.2883 36.4655 33.3626 36.3859C33.4369 36.3063 33.4916 36.2105 33.5223 36.106C33.553 36.0015 33.5588 35.8913 33.5394 35.7841C33.5427 35.6692 33.521 35.5548 33.4757 35.4491C33.4305 35.3433 33.3628 35.2487 33.2773 35.1717C33.1919 35.0947 33.0907 35.0372 32.9808 35.0031C32.8709 34.9691 32.755 34.9594 32.6409 34.9746C32.1362 35.0032 31.9775 35.3365 31.9838 36.0254Z" fill="#FFB000"/>
<path d="M36.825 36.5681C36.2377 36.5681 35.9044 36.3427 35.9107 35.7681C35.9003 35.6611 35.9133 35.5531 35.9489 35.4517C35.9845 35.3503 36.0417 35.2578 36.1166 35.1808C36.1916 35.1037 36.2824 35.0439 36.3828 35.0055C36.4832 34.9672 36.5908 34.9511 36.698 34.9586C37.2282 34.9363 37.5932 35.184 37.625 35.73C37.6403 35.8403 37.6304 35.9527 37.5962 36.0587C37.562 36.1647 37.5043 36.2616 37.4273 36.3422C37.3504 36.4228 37.2563 36.4849 37.152 36.5241C37.0477 36.5632 36.9359 36.5782 36.825 36.5681Z" fill="#FFB000"/>
<path d="M31.9839 36.0253C31.9839 35.3364 32.1363 35.0031 32.641 34.9745C32.755 34.9593 32.871 34.969 32.9809 35.003C33.0908 35.0371 33.1919 35.0946 33.2774 35.1716C33.3628 35.2486 33.4305 35.3432 33.4758 35.449C33.521 35.5547 33.5428 35.6691 33.5394 35.784C33.5589 35.8912 33.5531 36.0014 33.5224 36.1059C33.4917 36.2104 33.437 36.3062 33.3627 36.3858C33.2884 36.4654 33.1964 36.5265 33.0943 36.5642C32.9921 36.6019 32.8826 36.6152 32.7744 36.6031C32.295 36.6031 31.9839 36.3205 31.9839 36.0253Z" fill="#FFB000"/>
<path d="M33.533 51.1777C32.092 52.2481 30.5759 53.2135 28.9965 54.0666C28.2742 54.4577 27.5122 54.7706 26.7235 54.9999C26.0283 55.1904 25.2473 55.2602 24.5902 54.7999C21.987 52.965 19.714 50.8316 18.2156 47.9491C18.1143 47.7806 18.0627 47.5869 18.0666 47.3903C18.0705 47.1938 18.1299 47.0023 18.2378 46.838C19.5636 44.4373 21.4071 42.3617 23.6346 40.7618C24.8822 39.8729 26.4917 39.9237 27.8251 40.7618C29.5933 41.8475 31.4695 42.7523 33.1489 43.9808C33.5383 44.2224 33.8751 44.5398 34.1394 44.9142C34.0282 43.1777 34.2536 41.6697 32.7076 40.5777C31.4837 39.7237 30.5253 38.542 29.9425 37.1681C29.7221 36.6925 29.6167 36.1716 29.6349 35.6477C29.6531 35.1238 29.7943 34.6115 30.0473 34.1523C31.26 31.8348 33.079 30.0951 35.1997 28.6539C35.5864 28.4074 36.0382 28.2826 36.4966 28.2956C36.955 28.3086 37.399 28.4588 37.7711 28.7269C39.8003 30.0534 41.4874 31.8406 42.6949 33.9427C43.4282 35.257 43.3044 36.5046 42.6156 37.7523C41.9503 38.9188 41.0458 39.9314 39.9616 40.7237C39.4378 41.1205 39.0441 41.5269 38.9775 42.2158C38.9108 42.9046 38.5457 43.4412 38.5616 44.1205C38.5616 44.2792 38.4886 44.4856 38.66 44.5872C38.8314 44.6888 38.9775 44.5205 39.0981 44.4189C40.9775 42.9777 43.0727 41.8792 45.1298 40.73C46.606 39.911 48.279 39.8919 49.6568 41.0475C51.5679 42.6697 53.2949 44.4824 54.5394 46.7046C54.6737 46.9014 54.75 47.1319 54.7595 47.3699C54.7691 47.6079 54.7115 47.8438 54.5933 48.0507C53.5044 50.2031 51.8187 51.838 50.079 53.4316C49.7013 53.7777 49.2949 54.0888 48.8917 54.4031C47.7711 55.2761 46.5584 55.3205 45.2981 54.7523C43.338 53.9104 41.502 52.805 39.8409 51.4666C39.6536 51.3078 39.4156 51.0316 39.1775 51.1872C38.9394 51.3427 38.9171 54.2888 39.2251 54.965C40.5965 56.8951 43.6949 58.1745 43.6949 62.0824C43.6727 62.7427 43.6029 62.984 42.8187 62.7618C41.8304 62.5028 40.8148 62.3621 39.7933 62.3427C38.4886 62.3015 37.5711 62.3269 36.8886 61.3205C36.5489 60.8189 36.3521 60.657 35.9806 61.2919C34.9203 63.1046 33.0536 62.3681 31.314 62.5618C30.8307 62.5641 30.3508 62.6423 29.8917 62.7935C29.2886 63.0475 29.0251 62.8539 28.9775 62.1586C28.8854 60.8888 29.3838 59.7681 29.8759 58.6665C30.4473 57.3967 32.0981 56.1808 32.9965 55.0888C33.8949 53.9967 33.5076 52.6983 33.533 51.1777ZM38.4219 33.0539C38.9171 33.0316 39.2568 32.7745 39.2219 32.2158C39.187 31.657 38.8282 31.4316 38.2949 31.4666C38.1877 31.4591 38.0801 31.4752 37.9797 31.5135C37.8793 31.5519 37.7885 31.6117 37.7136 31.6888C37.6386 31.7658 37.5814 31.8583 37.5458 31.9597C37.5102 32.0611 37.4972 32.1691 37.5076 32.2761C37.5013 32.8412 37.8346 33.0729 38.4219 33.0539ZM33.5806 32.5205C33.5806 32.8189 33.8981 33.0983 34.3711 33.0983C34.4793 33.1104 34.5889 33.0971 34.691 33.0594C34.7932 33.0217 34.8851 32.9606 34.9594 32.881C35.0338 32.8014 35.0885 32.7056 35.1192 32.6011C35.1498 32.4966 35.1557 32.3864 35.1362 32.2792C35.1409 32.1646 35.1204 32.0503 35.0763 31.9444C35.0322 31.8385 34.9655 31.7435 34.8808 31.6661C34.7961 31.5887 34.6955 31.5307 34.5861 31.4963C34.4767 31.4618 34.3611 31.4517 34.2473 31.4666C33.733 31.5015 33.5743 31.8348 33.5806 32.5205Z" fill="#425CE6"/>
<path d="M38.4218 33.0538C37.8345 33.0538 37.5012 32.8316 37.5075 32.2538C37.5005 32.1486 37.516 32.0431 37.5531 31.9444C37.5902 31.8457 37.648 31.756 37.7225 31.6815C37.7971 31.6069 37.8867 31.5492 37.9854 31.5121C38.0841 31.475 38.1896 31.4595 38.2948 31.4665C38.8281 31.4443 39.19 31.6887 39.2218 32.2379C39.2535 32.7871 38.917 33.0538 38.4218 33.0538Z" fill="#F8F9FD"/>
<path d="M33.5806 32.5204C33.5806 31.8347 33.7329 31.5014 34.2377 31.4728C34.3516 31.4565 34.4678 31.4653 34.5779 31.4988C34.688 31.5322 34.7895 31.5894 34.8752 31.6662C34.9608 31.7431 35.0286 31.8378 35.0737 31.9437C35.1187 32.0496 35.1401 32.1641 35.1361 32.2791C35.1556 32.3863 35.1498 32.4965 35.1191 32.601C35.0884 32.7055 35.0337 32.8013 34.9594 32.8809C34.885 32.9605 34.7931 33.0216 34.691 33.0593C34.5888 33.097 34.4793 33.1103 34.371 33.0982C33.8917 33.0982 33.5806 32.8188 33.5806 32.5204Z" fill="#F8F9FD"/>
</g>
</g>
<g clip-path="url(#clip4_3_4209)" filter="url(#filter1_d_3_4209)">
<g clip-path="url(#clip5_3_4209)">
<path d="M80.4049 5.38086H28.0239V80.6189H80.4049V5.38086Z" stroke="#CCCCCC" stroke-width="0.1875" stroke-miterlimit="10"/>
<path d="M40.1954 5.38086H28.0239V80.6189H40.1954V5.38086Z" stroke="#CCCCCC" stroke-width="0.1875" stroke-miterlimit="10"/>
<path d="M40.1954 16.4729H28.0239V18.6634H40.1954V16.4729Z" stroke="#CCCCCC" stroke-width="0.1875" stroke-miterlimit="10"/>
<path d="M80.405 78.4285H35.5034V80.6189H80.405V78.4285Z" stroke="#CCCCCC" stroke-width="0.1875" stroke-miterlimit="10"/>
<path d="M78.535 14.2825H40.1953V78.4285H78.535V14.2825Z" stroke="#CCCCCC" stroke-width="0.1875" stroke-miterlimit="10"/>
<path d="M70.7099 20.0889H48.021V69.2762H70.7099V20.0889Z" stroke="#CCCCCC" stroke-width="0.16875" stroke-miterlimit="10"/>
<path d="M48.021 36.4858H70.7099" stroke="#CCCCCC" stroke-width="0.16875" stroke-miterlimit="10"/>
<path d="M48.021 52.8794H70.7099" stroke="#CCCCCC" stroke-width="0.16875" stroke-miterlimit="10"/>
<path d="M48.021 44.6826H70.7099" stroke="#CCCCCC" stroke-width="0.16875" stroke-miterlimit="10"/>
<path d="M59.3638 69.2762V20.0889" stroke="#CCCCCC" stroke-width="0.16875" stroke-miterlimit="10"/>
<path d="M70.7099 44.6825L59.3639 20.0889L48.021 44.6825L59.3639 69.2762L70.7099 44.6825Z" stroke="#CCCCCC" stroke-width="0.16875" stroke-miterlimit="10"/>
<path d="M48.021 20.0889L70.7099 36.4857" stroke="#CCCCCC" stroke-width="0.16875" stroke-miterlimit="10"/>
<path d="M48.021 36.4857L70.7099 20.0889" stroke="#CCCCCC" stroke-width="0.16875" stroke-miterlimit="10"/>
<path d="M48.021 36.4858L70.7099 52.8795" stroke="#CCCCCC" stroke-width="0.16875" stroke-miterlimit="10"/>
<path d="M48.021 52.8795L70.7099 36.4858" stroke="#CCCCCC" stroke-width="0.16875" stroke-miterlimit="10"/>
<path d="M48.021 52.8794L70.7099 69.2762" stroke="#CCCCCC" stroke-width="0.16875" stroke-miterlimit="10"/>
<path d="M48.021 69.2762L70.7099 52.8794" stroke="#CCCCCC" stroke-width="0.16875" stroke-miterlimit="10"/>
<path d="M78.9764 3H29.4526C27.3486 3 25.6431 4.70558 25.6431 6.80952V79.1905C25.6431 81.2944 27.3486 83 29.4526 83H78.9764C81.0803 83 82.7859 81.2944 82.7859 79.1905V6.80952C82.7859 4.70558 81.0803 3 78.9764 3Z" fill="#FFF4D7"/>
</g>
<g clip-path="url(#clip6_3_4209)">
<path d="M34.6528 25.8193L38.021 22.6892C38.1445 22.575 38.2431 22.4366 38.3105 22.2825C38.3779 22.1284 38.4127 21.9621 38.4127 21.7939C38.4127 21.6258 38.3779 21.4594 38.3105 21.3053C38.2431 21.1513 38.1445 21.0128 38.021 20.8987L34.6528 17.7527C34.5885 17.6917 34.5033 17.6577 34.4147 17.6577C34.3261 17.6577 34.2409 17.6917 34.1766 17.7527L30.7925 20.8987C30.6694 21.0131 30.5712 21.1516 30.5041 21.3056C30.437 21.4597 30.4023 21.6259 30.4023 21.7939C30.4023 21.9619 30.437 22.1282 30.5041 22.2822C30.5712 22.4362 30.6694 22.5748 30.7925 22.6892L34.1766 25.8193C34.2416 25.8789 34.3265 25.9119 34.4147 25.9119C34.5029 25.9119 34.5878 25.8789 34.6528 25.8193Z" fill="#E1306C"/>
<path d="M34.475 24.8922C33.767 24.1335 33.0876 23.4033 32.4051 22.67C32.2654 22.5208 32.1194 22.3779 31.9734 22.2382C31.8299 22.0644 31.7551 21.8439 31.7633 21.6187C31.7715 21.3934 31.8621 21.179 32.0178 21.016C32.7257 20.289 33.44 19.562 34.148 18.8223C34.1764 18.7764 34.2162 18.7385 34.2634 18.7122C34.3106 18.6859 34.3638 18.6721 34.4178 18.6721C34.4719 18.6721 34.525 18.6859 34.5722 18.7122C34.6195 18.7385 34.6592 18.7764 34.6876 18.8223C35.421 19.6477 36.1638 20.47 36.8813 21.3081C37.1988 21.6731 37.0908 21.997 36.7289 22.3811C36.094 23.0541 35.5003 23.762 34.8845 24.4541C34.767 24.5938 34.64 24.7208 34.475 24.8922Z" fill="#E1306C"/>
</g>
<path d="M32.2559 15.1588H32.3511H32.4622C32.6 15.1746 32.7396 15.16 32.8712 15.1161C33.0028 15.0722 33.1233 15.0001 33.2241 14.9049C33.367 14.7366 33.44 14.3525 33.44 13.7525V7.65091H32.8813V6.52393H36.2844V7.65091H35.7701V13.962C35.8149 14.6864 35.5886 15.4016 35.1352 15.9684C34.9066 16.212 34.627 16.4021 34.3164 16.525C34.0058 16.6479 33.6718 16.7007 33.3384 16.6795C32.9946 16.6804 32.654 16.6146 32.3352 16.4858L32.2559 15.1588Z" fill="#E1306C"/>
<g clip-path="url(#clip7_3_4209)">
<path d="M55.1955 69.5999C54.3669 69.6888 53.9478 69.0761 53.4716 68.5047C51.4209 66.0412 50.2304 63.0761 48.7097 60.3142C48.4915 59.8873 48.1855 59.5114 47.8118 59.2111C47.4382 58.9107 47.0053 58.6927 46.5415 58.5713C43.7193 57.7396 41.0748 56.4158 38.2367 55.6697C37.7813 55.5372 37.36 55.3076 37.0018 54.9967C36.6884 54.7747 36.4629 54.4496 36.3648 54.0782C36.2668 53.7068 36.3023 53.3128 36.4653 52.965C36.897 51.8666 37.6843 51.038 38.5161 50.2348C40.7988 48.113 43.4425 46.4164 46.3224 45.2253C47.551 44.6951 48.1637 43.9015 48.5447 42.6539C49.4209 39.8094 50.6843 37.1364 52.8209 34.9967C54.3542 33.438 56.0589 33.4412 57.5828 34.9967C59.7161 37.1523 60.9732 39.8253 61.8526 42.6697C62.224 43.8729 62.805 44.6634 64.005 45.2094C67.3224 46.6761 70.4145 48.5269 72.8558 51.292C74.8304 53.5142 74.478 55.0253 71.6431 55.8412C68.9129 56.6158 66.3574 57.9015 63.6145 58.6539C63.2093 58.7724 62.8336 58.975 62.5119 59.2485C62.1903 59.522 61.9299 59.8602 61.7478 60.2412C60.1955 63.0253 58.9891 66.0126 56.9383 68.511C56.2685 69.3173 55.9669 69.5808 55.1955 69.5999ZM53.6082 39.0443C53.5097 38.7269 53.3955 38.3872 52.9732 38.365C52.551 38.3427 52.2272 38.4888 52.2082 38.9999C52.1891 39.4158 52.3002 39.7777 52.7732 39.8221C53.2462 39.8666 53.4558 39.4729 53.6082 39.0348V39.0443ZM57.3447 39.6793C57.8145 39.6793 58.0272 39.438 58.0272 38.9681C58.0272 38.4983 57.824 38.2697 57.4113 38.292C57.2173 38.2977 57.033 38.3782 56.8969 38.5166C56.7608 38.655 56.6835 38.8407 56.6812 39.0348C56.6736 39.1223 56.6859 39.2104 56.7171 39.2925C56.7483 39.3746 56.7976 39.4486 56.8614 39.509C56.9252 39.5694 57.0017 39.6147 57.0854 39.6414C57.1691 39.6681 57.2577 39.6756 57.3447 39.6634V39.6793Z" fill="#FFB000"/>
<path d="M53.6083 39.0348C53.4559 39.4729 53.2686 39.8475 52.7638 39.7967C52.2591 39.7459 52.186 39.3904 52.186 38.9745C52.2051 38.4793 52.5289 38.3396 52.9511 38.3396C53.3733 38.3396 53.5098 38.7142 53.6083 39.0348Z" fill="#FFB000"/>
<path d="M57.3445 39.6635C57.2569 39.6759 57.1677 39.6683 57.0835 39.6412C56.9993 39.6141 56.9224 39.5683 56.8585 39.5072C56.7946 39.446 56.7454 39.3712 56.7147 39.2883C56.6839 39.2054 56.6724 39.1166 56.681 39.0285C56.6833 38.8344 56.7606 38.6488 56.8967 38.5103C57.0328 38.3719 57.2171 38.2914 57.4111 38.2857C57.8238 38.2635 58.027 38.5365 58.027 38.9619C58.027 39.3873 57.8143 39.6603 57.3445 39.6635Z" fill="#FFB000"/>
<path d="M56.7255 64.0952C55.897 64.1841 55.4779 63.5714 54.9985 62.9968C52.9478 60.5365 51.7573 57.5714 50.2366 54.8063C50.0163 54.3795 49.7085 54.004 49.3333 53.7043C48.958 53.4045 48.5238 53.1872 48.0589 53.0666C45.2398 52.2444 42.6017 50.9206 39.7573 50.1714C39.3075 50.0408 38.8908 49.8157 38.5351 49.5111C38.2181 49.289 37.99 48.9618 37.8912 48.5876C37.7924 48.2134 37.8293 47.8163 37.9954 47.4666C38.4239 46.3682 39.2144 45.5428 40.043 44.7492C42.3249 42.6239 44.9687 40.9241 47.8493 39.7301C49.0811 39.1968 49.6938 38.4032 50.0716 37.1587C50.9446 34.3016 52.2081 31.6412 54.3446 29.4889C55.8811 27.9428 57.5827 27.9428 59.1065 29.4889C61.2366 31.6412 62.4938 34.3143 63.3731 37.1619C63.7477 38.3651 64.3255 39.1555 65.5255 39.6857C68.862 41.1651 71.9541 43.0159 74.4081 45.7905C76.3827 48.0127 76.0271 49.527 73.1922 50.3428C70.4525 51.1333 67.897 52.419 65.1477 53.1714C64.742 53.2888 64.3658 53.491 64.044 53.7646C63.7222 54.0383 63.4622 54.3771 63.2811 54.7587C61.7097 57.5365 60.5128 60.5111 58.462 63.0127C57.7954 63.8222 57.497 64.0857 56.7255 64.0952ZM55.1382 33.5397C55.0398 33.2222 54.9255 32.8825 54.5033 32.8603C54.0811 32.8381 53.7604 32.9841 53.7382 33.4762C53.7224 33.8952 53.8303 34.2539 54.3065 34.3016C54.7827 34.3492 54.9827 33.9746 55.1351 33.5397H55.1382ZM58.8779 34.1746C59.3446 34.1746 59.5573 33.9365 59.5604 33.4666C59.5636 32.9968 59.3541 32.7746 58.9414 32.7746C58.7474 32.782 58.5638 32.864 58.4289 33.0037C58.294 33.1433 58.2183 33.3296 58.2176 33.5238C58.2075 33.6118 58.2178 33.701 58.2475 33.7845C58.2772 33.868 58.3256 33.9435 58.3891 34.0054C58.4525 34.0673 58.5292 34.1139 58.6134 34.1415C58.6976 34.1692 58.787 34.1773 58.8747 34.1651L58.8779 34.1746Z" fill="#E1306C"/>
<path d="M55.1349 33.5397C54.9826 33.9746 54.7953 34.3492 54.2937 34.3016C53.7921 34.2539 53.7095 33.8952 53.7254 33.4762C53.7476 32.9841 54.0683 32.8412 54.4905 32.8603C54.9127 32.8793 55.0429 33.219 55.1349 33.5397Z" fill="white"/>
<path d="M58.8714 34.1649C58.784 34.1774 58.6949 34.1698 58.6108 34.1427C58.5267 34.1157 58.45 34.0698 58.3863 34.0086C58.3226 33.9473 58.2738 33.8724 58.2434 33.7895C58.2131 33.7066 58.202 33.6178 58.2111 33.5299C58.2102 33.3336 58.286 33.1448 58.4224 33.0036C58.5589 32.8624 58.745 32.7802 58.9413 32.7744C59.354 32.7553 59.5571 33.0252 59.5571 33.4537C59.5571 33.8823 59.3413 34.1617 58.8714 34.1649Z" fill="white"/>
</g>
</g>
<g clip-path="url(#clip8_3_4209)" filter="url(#filter2_d_3_4209)">
<g clip-path="url(#clip9_3_4209)">
<path d="M100.047 5.38086H47.6665V80.6189H100.047V5.38086Z" stroke="#CCCCCC" stroke-width="0.1875" stroke-miterlimit="10"/>
<path d="M59.8379 5.38086H47.6665V80.6189H59.8379V5.38086Z" stroke="#CCCCCC" stroke-width="0.1875" stroke-miterlimit="10"/>
<path d="M59.8379 16.4729H47.6665V18.6634H59.8379V16.4729Z" stroke="#CCCCCC" stroke-width="0.1875" stroke-miterlimit="10"/>
<path d="M100.048 78.4285H55.146V80.6189H100.048V78.4285Z" stroke="#CCCCCC" stroke-width="0.1875" stroke-miterlimit="10"/>
<path d="M98.1776 14.2825H59.8379V78.4285H98.1776V14.2825Z" stroke="#CCCCCC" stroke-width="0.1875" stroke-miterlimit="10"/>
<path d="M90.3525 20.0889H67.6636V69.2762H90.3525V20.0889Z" stroke="#CCCCCC" stroke-width="0.16875" stroke-miterlimit="10"/>
<path d="M67.6636 36.4858H90.3525" stroke="#CCCCCC" stroke-width="0.16875" stroke-miterlimit="10"/>
<path d="M67.6636 52.8794H90.3525" stroke="#CCCCCC" stroke-width="0.16875" stroke-miterlimit="10"/>
<path d="M67.6636 44.6826H90.3525" stroke="#CCCCCC" stroke-width="0.16875" stroke-miterlimit="10"/>
<path d="M79.0063 69.2762V20.0889" stroke="#CCCCCC" stroke-width="0.16875" stroke-miterlimit="10"/>
<path d="M90.3525 44.6825L79.0064 20.0889L67.6636 44.6825L79.0064 69.2762L90.3525 44.6825Z" stroke="#CCCCCC" stroke-width="0.16875" stroke-miterlimit="10"/>
<path d="M67.6636 20.0889L90.3525 36.4857" stroke="#CCCCCC" stroke-width="0.16875" stroke-miterlimit="10"/>
<path d="M67.6636 36.4857L90.3525 20.0889" stroke="#CCCCCC" stroke-width="0.16875" stroke-miterlimit="10"/>
<path d="M67.6636 36.4858L90.3525 52.8795" stroke="#CCCCCC" stroke-width="0.16875" stroke-miterlimit="10"/>
<path d="M67.6636 52.8795L90.3525 36.4858" stroke="#CCCCCC" stroke-width="0.16875" stroke-miterlimit="10"/>
<path d="M67.6636 52.8794L90.3525 69.2762" stroke="#CCCCCC" stroke-width="0.16875" stroke-miterlimit="10"/>
<path d="M67.6636 69.2762L90.3525 52.8794" stroke="#CCCCCC" stroke-width="0.16875" stroke-miterlimit="10"/>
<path d="M98.619 3H49.0952C46.9912 3 45.2856 4.70558 45.2856 6.80952V79.1905C45.2856 81.2944 46.9912 83 49.0952 83H98.619C100.723 83 102.429 81.2944 102.429 79.1905V6.80952C102.429 4.70558 100.723 3 98.619 3Z" fill="#FFF4D7"/>
</g>
<g clip-path="url(#clip10_3_4209)">
<path d="M58.2763 20.8635L56.2763 18.0063C56.2435 17.959 56.2018 17.9186 56.1535 17.8874C56.1051 17.8562 56.0511 17.8349 55.9945 17.8245C55.9379 17.8142 55.8798 17.8152 55.8236 17.8273C55.7674 17.8394 55.7141 17.8625 55.6667 17.8952L54.454 18.7333C54.3374 18.8139 54.199 18.857 54.0572 18.857C53.9155 18.857 53.777 18.8139 53.6604 18.7333L52.4509 17.8952C52.3552 17.8287 52.2371 17.8026 52.1223 17.8229C52.0075 17.8431 51.9053 17.9079 51.8382 18.0032L49.8413 20.8635C49.7845 20.9458 49.7573 21.045 49.7642 21.1448C49.7712 21.2445 49.8118 21.339 49.8794 21.4127L53.7334 25.6095C53.7743 25.6525 53.8236 25.6868 53.8781 25.7102C53.9327 25.7336 53.9915 25.7457 54.0509 25.7457C54.1102 25.7457 54.169 25.7336 54.2236 25.7102C54.2782 25.6868 54.3274 25.6525 54.3683 25.6095L58.2382 21.4127C58.3058 21.339 58.3464 21.2445 58.3534 21.1448C58.3603 21.045 58.3331 20.9458 58.2763 20.8635Z" fill="#E1306C"/>
<path d="M54.1584 24.6635C54.046 24.6143 53.9395 24.5525 53.841 24.4794L51.0314 21.6604C50.9706 21.6092 50.9211 21.5461 50.886 21.4748C50.8508 21.4036 50.8308 21.3258 50.8272 21.2465C50.8237 21.1671 50.8366 21.0879 50.8652 21.0138C50.8938 20.9397 50.9374 20.8723 50.9933 20.8159C51.3489 20.3302 51.714 19.8318 52.0791 19.3492C52.1491 19.2504 52.2428 19.1708 52.3515 19.1176C52.4603 19.0643 52.5807 19.0393 52.7017 19.0446C52.8227 19.05 52.9404 19.0857 53.044 19.1483C53.1477 19.2109 53.2339 19.2986 53.2949 19.4032C53.4884 19.624 53.7093 19.8192 53.9521 19.9842C54.0187 20.0318 54.2124 19.9842 54.2949 19.9143C54.6171 19.6603 54.9205 19.3834 55.2029 19.0858C55.4886 18.7683 55.7298 18.8731 55.9298 19.127C56.3775 19.6921 56.7997 20.2699 57.2156 20.8572C57.2508 20.9122 57.2732 20.9745 57.2809 21.0394C57.2886 21.1043 57.2814 21.1701 57.26 21.2318C57.0276 21.5925 56.7698 21.9362 56.4886 22.2604C56.2092 22.5778 55.8917 22.8667 55.5902 23.1651C55.2886 23.4635 54.8981 23.8381 54.5616 24.181C54.4219 24.3365 54.3013 24.4985 54.1584 24.6635Z" fill="#E1306C"/>
</g>
<path d="M51.8984 15.1588H51.9937H52.1048C52.2426 15.1746 52.3822 15.16 52.5138 15.1161C52.6454 15.0722 52.7659 15.0001 52.8667 14.9049C53.0095 14.7366 53.0826 14.3525 53.0826 13.7525V7.65091H52.5238V6.52393H55.927V7.65091H55.4127V13.962C55.4574 14.6864 55.2311 15.4016 54.7778 15.9684C54.5492 16.212 54.2696 16.4021 53.959 16.525C53.6483 16.6479 53.3144 16.7007 52.981 16.6795C52.6372 16.6804 52.2965 16.6146 51.9778 16.4858L51.8984 15.1588Z" fill="#E1306C"/>
<g clip-path="url(#clip11_3_4209)">
<path d="M56.3745 45.8667C56.3396 45.4032 56.6221 44.7301 56.8793 44.0889C58.2444 40.7238 60.2507 38.0032 62.9396 36.0127C63.7396 35.4159 64.6698 35.2857 65.5809 35.0984C67.0285 34.8254 68.3269 35.2921 69.6729 35.8C70.5269 36.1174 71.384 36.3524 72.1269 36.9778C72.5269 37.3174 72.9396 37.2635 73.3967 37.0635C75.0666 36.3492 76.5713 35.1587 78.292 34.6127C79.692 34.1746 80.9713 34.1301 82.3396 35.0667C85.2729 37.0762 87.2666 39.1428 88.9618 42.5555C89.9142 44.1778 89.0221 46.727 88.3523 47.927C86.5872 51.1016 76.4602 58.7524 75.5745 59.5714C75.019 60.0825 73.419 66.1079 73.2444 66.8921C73.1586 67.2635 72.9269 67.6095 72.6317 67.6349C72.2253 67.6698 72.3142 67.1651 72.2571 66.8794C71.6126 63.3206 70.0729 60.1555 69.3904 59.454C67.838 57.8921 57.9618 50.3365 57.2539 48.8381C56.8539 47.9968 56.3999 47.1809 56.3745 45.8667ZM77.2063 39.9079C77.2063 39.3365 76.9682 38.9809 76.4221 38.9079C76.1643 38.8814 75.9062 38.9554 75.7016 39.1145C75.497 39.2736 75.3616 39.5055 75.3237 39.7619C75.3158 39.872 75.3308 39.9826 75.3679 40.0867C75.405 40.1907 75.4633 40.2859 75.5391 40.3662C75.615 40.4465 75.7066 40.5101 75.8084 40.5531C75.9101 40.5961 76.0197 40.6175 76.1301 40.6159C76.2474 40.6422 76.3688 40.6447 76.487 40.6231C76.6053 40.6016 76.718 40.5564 76.8185 40.4904C76.9189 40.4243 77.005 40.3387 77.0716 40.2386C77.1383 40.1385 77.184 40.0261 77.2063 39.9079ZM70.5745 40.1206C70.5459 39.6 70.311 39.2254 69.7428 39.2254C69.6197 39.2168 69.4962 39.2348 69.3807 39.2783C69.2652 39.3218 69.1605 39.3898 69.0736 39.4775C68.9868 39.5652 68.92 39.6706 68.8777 39.7866C68.8354 39.9025 68.8186 40.0262 68.8285 40.1492C68.8285 40.5809 69.0729 41.1016 69.5777 41.0317C70.0825 40.9619 70.6602 40.8857 70.5745 40.1206Z" fill="#FFB000"/>
<path d="M77.2064 39.9079C77.1842 40.026 77.1384 40.1385 77.0717 40.2385C77.0051 40.3386 76.919 40.4242 76.8186 40.4903C76.7181 40.5564 76.6054 40.6015 76.4871 40.6231C76.3689 40.6446 76.2475 40.6422 76.1302 40.6158C76.0198 40.6174 75.9102 40.596 75.8085 40.5531C75.7067 40.5101 75.6151 40.4464 75.5392 40.3661C75.4634 40.2858 75.4051 40.1906 75.368 40.0866C75.331 39.9826 75.3159 39.872 75.3238 39.7618C75.3617 39.5054 75.4971 39.2735 75.7017 39.1145C75.9063 38.9554 76.1644 38.8814 76.4222 38.9079C76.9683 38.9809 77.2064 39.3364 77.2064 39.9079Z" fill="#FFB000"/>
<path d="M70.5747 40.1207C70.6636 40.8858 70.0382 40.981 69.5779 41.0286C69.1176 41.0763 68.835 40.5778 68.8287 40.1461C68.8193 40.0233 68.8364 39.9 68.8789 39.7845C68.9215 39.6689 68.9884 39.5639 69.0751 39.4765C69.1619 39.3892 69.2664 39.3215 69.3817 39.2782C69.4969 39.2349 69.6202 39.2169 69.743 39.2255C70.3112 39.2255 70.5461 39.6001 70.5747 40.1207Z" fill="#FFB000"/>
<path d="M59.9745 37.6603C60.4317 35.6794 64.584 30.9429 66.4126 29.7238C67.8571 28.7714 69.7809 28.7079 71.4507 29.2254C72.8728 29.6578 74.267 30.1773 75.6253 30.781C75.8146 30.896 76.0288 30.9639 76.2498 30.9788C76.4708 30.9937 76.6921 30.9553 76.8951 30.8667C78.4972 30.1753 80.1344 29.5681 81.7999 29.0476C83.1999 28.6127 84.4793 28.5683 85.8507 29.5048C88.7809 31.5143 90.7745 33.581 92.4697 37.0032C93.4221 38.6254 92.5301 41.1714 91.8602 42.3746C90.0951 45.5492 79.9713 53.2 79.0824 54.0191C78.5269 54.5302 76.9269 60.5556 76.7523 61.3397C76.6666 61.7111 76.5809 62.0571 76.2698 62.0825C75.8602 62.1175 75.8158 61.6127 75.765 61.327C75.1047 57.7429 74.2063 54.7492 73.4158 53.8286C72.6253 52.9079 62.5269 45.4127 60.9586 42.527C59.838 40.6254 59.5872 39.3365 59.9745 37.6603ZM80.692 34.3333C80.692 33.7619 80.4539 33.4064 79.9078 33.3333C79.6503 33.306 79.3922 33.3792 79.1875 33.5378C78.9828 33.6964 78.8473 33.928 78.8094 34.1841C78.8015 34.2944 78.8166 34.4052 78.8536 34.5094C78.8907 34.6136 78.9489 34.7089 79.0247 34.7895C79.1005 34.87 79.1921 34.934 79.2939 34.9773C79.3956 35.0207 79.5052 35.0424 79.6158 35.0413C79.733 35.0672 79.8543 35.0693 79.9724 35.0476C80.0905 35.0258 80.2031 34.9806 80.3034 34.9146C80.4037 34.8486 80.4898 34.7632 80.5566 34.6633C80.6233 34.5635 80.6693 34.4513 80.692 34.3333ZM74.0602 34.5429C74.0348 34.0254 73.7967 33.6476 73.2285 33.6476C73.1052 33.6385 72.9815 33.6561 72.8658 33.6995C72.75 33.7428 72.6451 33.8107 72.5581 33.8985C72.4712 33.9864 72.4044 34.092 72.3623 34.2082C72.3201 34.3244 72.3037 34.4483 72.3142 34.5714C72.3142 35.0032 72.5586 35.5079 73.0666 35.454C73.5174 35.4159 74.1523 35.3079 74.0602 34.5429Z" fill="#E1306C"/>
<path d="M80.6922 34.3333C80.6696 34.4512 80.6235 34.5634 80.5568 34.6632C80.49 34.7631 80.404 34.8485 80.3036 34.9145C80.2033 34.9805 80.0908 35.0257 79.9727 35.0475C79.8545 35.0693 79.7333 35.0671 79.616 35.0412C79.5054 35.0424 79.3958 35.0206 79.2941 34.9772C79.1923 34.9339 79.1007 34.8699 79.0249 34.7894C78.9492 34.7089 78.8909 34.6135 78.8539 34.5093C78.8168 34.4051 78.8018 34.2944 78.8097 34.1841C78.8475 33.9279 78.983 33.6963 79.1877 33.5377C79.3925 33.3792 79.6506 33.3059 79.9081 33.3333C80.4541 33.4063 80.6922 33.7618 80.6922 34.3333Z" fill="white"/>
<path d="M74.0601 34.5429C74.1522 35.3079 73.5173 35.4159 73.0665 35.454C72.5585 35.5079 72.3204 35.0032 72.3141 34.5714C72.3036 34.4483 72.32 34.3244 72.3622 34.2082C72.4043 34.092 72.4711 33.9864 72.558 33.8985C72.645 33.8107 72.7499 33.7428 72.8657 33.6995C72.9814 33.6561 73.1051 33.6384 73.2284 33.6476C73.7966 33.6476 74.0347 34.0254 74.0601 34.5429Z" fill="white"/>
</g>
</g>
<g clip-path="url(#clip12_3_4209)" filter="url(#filter3_d_3_4209)">
<g clip-path="url(#clip13_3_4209)">
<path d="M119.691 5.38086H67.3096V80.6189H119.691V5.38086Z" stroke="#CCCCCC" stroke-width="0.1875" stroke-miterlimit="10"/>
<path d="M79.481 5.38086H67.3096V80.6189H79.481V5.38086Z" stroke="#CCCCCC" stroke-width="0.1875" stroke-miterlimit="10"/>
<path d="M79.481 16.4729H67.3096V18.6634H79.481V16.4729Z" stroke="#CCCCCC" stroke-width="0.1875" stroke-miterlimit="10"/>
<path d="M119.691 78.4285H74.7891V80.6189H119.691V78.4285Z" stroke="#CCCCCC" stroke-width="0.1875" stroke-miterlimit="10"/>
<path d="M117.821 14.2825H79.481V78.4285H117.821V14.2825Z" stroke="#CCCCCC" stroke-width="0.1875" stroke-miterlimit="10"/>
<path d="M109.996 20.0889H87.3066V69.2762H109.996V20.0889Z" stroke="#CCCCCC" stroke-width="0.16875" stroke-miterlimit="10"/>
<path d="M87.3066 36.4858H109.996" stroke="#CCCCCC" stroke-width="0.16875" stroke-miterlimit="10"/>
<path d="M87.3066 52.8794H109.996" stroke="#CCCCCC" stroke-width="0.16875" stroke-miterlimit="10"/>
<path d="M87.3066 44.6826H109.996" stroke="#CCCCCC" stroke-width="0.16875" stroke-miterlimit="10"/>
<path d="M98.6494 69.2762V20.0889" stroke="#CCCCCC" stroke-width="0.16875" stroke-miterlimit="10"/>
<path d="M109.996 44.6825L98.6495 20.0889L87.3066 44.6825L98.6495 69.2762L109.996 44.6825Z" stroke="#CCCCCC" stroke-width="0.16875" stroke-miterlimit="10"/>
<path d="M87.3066 20.0889L109.996 36.4857" stroke="#CCCCCC" stroke-width="0.16875" stroke-miterlimit="10"/>
<path d="M87.3066 36.4857L109.996 20.0889" stroke="#CCCCCC" stroke-width="0.16875" stroke-miterlimit="10"/>
<path d="M87.3066 36.4858L109.996 52.8795" stroke="#CCCCCC" stroke-width="0.16875" stroke-miterlimit="10"/>
<path d="M87.3066 52.8795L109.996 36.4858" stroke="#CCCCCC" stroke-width="0.16875" stroke-miterlimit="10"/>
<path d="M87.3066 52.8794L109.996 69.2762" stroke="#CCCCCC" stroke-width="0.16875" stroke-miterlimit="10"/>
<path d="M87.3066 69.2762L109.996 52.8794" stroke="#CCCCCC" stroke-width="0.16875" stroke-miterlimit="10"/>
<path d="M118.262 3H68.7382C66.6343 3 64.9287 4.70558 64.9287 6.80952V79.1905C64.9287 81.2944 66.6343 83 68.7382 83H118.262C120.366 83 122.072 81.2944 122.072 79.1905V6.80952C122.072 4.70558 120.366 3 118.262 3Z" fill="#FFF4D7"/>
</g>
<g clip-path="url(#clip14_3_4209)">
<path d="M73.7196 25.9111H74.8021C74.8572 25.9088 74.911 25.8936 74.9592 25.8667C75.0074 25.8399 75.0485 25.802 75.0794 25.7563C75.1103 25.7106 75.13 25.6583 75.137 25.6036C75.144 25.5489 75.138 25.4933 75.1196 25.4413L74.3989 23.4381C74.3858 23.4016 74.384 23.362 74.3937 23.3245C74.4033 23.287 74.424 23.2532 74.4531 23.2275C74.4822 23.2019 74.5183 23.1856 74.5567 23.1806C74.5952 23.1757 74.6342 23.1825 74.6688 23.2L76.0783 23.9175C76.1769 23.9672 76.2897 23.981 76.3974 23.9567C76.5052 23.9324 76.6011 23.8714 76.6688 23.7841L78.0339 22.0318C78.1042 21.9377 78.1376 21.8211 78.1276 21.704C78.1177 21.587 78.0651 21.4777 77.9799 21.3968L74.0688 17.8C73.9687 17.7083 73.8379 17.6575 73.7021 17.6575C73.5664 17.6575 73.4355 17.7083 73.3354 17.8L69.4275 21.3905C69.3421 21.4714 69.2897 21.581 69.2803 21.6982C69.2709 21.8154 69.3053 21.932 69.3767 22.0254L70.7418 23.7778C70.8086 23.8653 70.9039 23.9266 71.0113 23.9509C71.1186 23.9753 71.2311 23.9612 71.3291 23.9111L72.7386 23.1937C72.7732 23.1761 72.8122 23.1694 72.8507 23.1743C72.8891 23.1792 72.9252 23.1955 72.9543 23.2212C72.9834 23.2468 73.0041 23.2806 73.0137 23.3182C73.0234 23.3557 73.0215 23.3953 73.0085 23.4318L72.2878 25.4413C72.2694 25.4933 72.2634 25.5489 72.2704 25.6036C72.2774 25.6583 72.2971 25.7106 72.328 25.7563C72.3588 25.802 72.4 25.8399 72.4482 25.8667C72.4964 25.8936 72.5502 25.9088 72.6053 25.9111H73.7196Z" fill="#425CE6"/>
</g>
<g clip-path="url(#clip15_3_4209)">
<path d="M103.675 54.9269C101.65 55.0222 99.8657 54.2095 98.0593 53.4571C97.8054 53.3523 97.5228 53.0603 97.2815 53.2857C97.0403 53.5111 97.1958 53.8095 97.2625 54.0952C97.5114 55.2411 98.0379 56.3084 98.7958 57.2031C99.5453 58.1375 100.151 59.1786 100.593 60.292C101.228 61.6984 101.545 62.8889 101.507 64.419C101.507 64.9587 101.031 65.5428 100.555 65.0539C100.417 64.9279 100.255 64.8324 100.078 64.7739C99.9016 64.7153 99.7144 64.695 99.5292 64.7142C94.9958 64.7142 95.0847 63.4444 94.1006 63.4444C93.0625 63.4444 92.7228 64.5238 89.0212 64.5238C88.6589 64.594 88.3076 64.7125 87.9768 64.8762C87.2974 65.2412 86.853 65.0031 86.8752 64.219C86.9514 61.8031 87.599 59.5587 89.0974 57.6285C89.6712 56.8107 90.2011 55.963 90.6847 55.0889C90.8732 54.7622 90.982 54.3956 91.0022 54.019C91.0911 52.9873 91.053 52.965 90.0847 53.3174L86.6339 54.5968C84.8562 55.2317 83.1419 54.7555 81.4689 54.2127C78.6498 53.292 76.7704 51.3555 76.072 48.4571C75.9535 47.8854 75.9587 47.295 76.0874 46.7255C76.2161 46.156 76.4652 45.6207 76.8181 45.1555C79.199 41.7682 82.1387 38.9111 85.3546 36.346C87.3704 34.7333 89.4085 33.1523 91.5673 31.7365C94.072 30.0952 94.1069 30.0571 96.4054 31.6317C99.9894 34.0639 103.402 36.7401 106.618 39.6412C108.551 41.4025 110.244 43.4102 111.653 45.6127C112.288 46.5904 112.288 47.7682 112.062 48.8952C111.64 50.8825 110.628 52.4317 108.77 53.419C107.161 54.273 105.555 55.0317 103.675 54.9269Z" fill="#FFB000"/>
<path d="M105.437 51.2921C103.411 51.3841 101.627 50.5714 99.821 49.819C99.567 49.7143 99.2877 49.4254 99.0432 49.6476C98.7988 49.8698 98.9607 50.1714 99.0242 50.4571C99.2757 51.6021 99.802 52.6688 100.558 53.5651C101.308 54.4993 101.915 55.5404 102.358 56.654C102.992 58.0635 103.31 59.2508 103.272 60.7809C103.272 61.3206 102.792 61.9048 102.319 61.4159C102.183 61.2895 102.02 61.1938 101.843 61.1352C101.667 61.0766 101.479 61.0565 101.294 61.0762C96.7607 61.0762 96.8496 59.8063 95.8655 59.8063C94.8274 59.8063 94.4877 60.8889 90.7861 60.8889C90.4244 60.9562 90.0739 61.0737 89.7448 61.2381C89.0623 61.6032 88.6178 61.3651 88.6432 60.5809C88.7163 58.1651 89.3639 55.9206 90.8655 53.9905C91.4389 53.1724 91.9687 52.3247 92.4528 51.4508C92.6407 51.125 92.7494 50.7596 92.7702 50.3841C92.8559 49.3524 92.821 49.327 91.8528 49.6794C90.7099 50.0952 89.5639 50.5016 88.4178 50.9143C86.6401 51.5492 84.9258 51.073 83.2496 50.5302C80.4305 49.6095 78.5512 47.673 77.8686 44.7746C77.7542 44.2123 77.7596 43.6322 77.8843 43.0721C78.009 42.512 78.2503 41.9844 78.5924 41.5238C80.9607 38.1238 83.9004 35.2889 87.1194 32.7143C89.1353 31.1016 91.1734 29.5206 93.3321 28.1175C95.8337 26.4794 95.8718 26.4413 98.167 28.0159C101.747 30.4432 105.157 33.114 108.37 36.0095C110.307 37.7708 112.004 39.7784 113.418 41.9809C114.053 42.9587 114.053 44.1365 113.827 45.2635C113.405 47.2508 112.389 48.8 110.532 49.7873C108.926 50.6571 107.316 51.4 105.437 51.2921ZM99.4623 32.3968C99.5194 31.8127 99.3671 31.3333 98.6464 31.3048C97.9258 31.2762 97.7321 31.7365 97.7163 32.3492C97.7163 32.873 97.8242 33.3841 98.4401 33.3651C98.9607 33.3492 99.529 33.1778 99.4623 32.3968ZM93.6115 32.3048C93.5853 32.1035 93.4927 31.9168 93.3484 31.7742C93.204 31.6316 93.0162 31.5412 92.8147 31.5175C92.2877 31.454 92.0782 31.8349 92.0432 32.3206C92.0083 32.8063 92.2686 33.2889 92.7353 33.3365C93.1321 33.3778 93.6464 33.1968 93.6115 32.3048Z" fill="#425CE6"/>
<path d="M99.4622 32.3968C99.5288 33.1778 98.9606 33.3492 98.4399 33.3651C97.8241 33.3841 97.7003 32.873 97.7161 32.3492C97.7161 31.7365 97.9257 31.273 98.6463 31.3048C99.3669 31.3365 99.5193 31.8127 99.4622 32.3968Z" fill="#FAFAFE"/>
<path d="M93.6114 32.3048C93.6464 33.181 93.1352 33.3778 92.7352 33.3365C92.2686 33.2889 92.0051 32.854 92.0432 32.3207C92.0813 31.7873 92.2876 31.454 92.8146 31.5175C93.0161 31.5412 93.204 31.6316 93.3483 31.7742C93.4927 31.9168 93.5853 32.1036 93.6114 32.3048Z" fill="#F9FAFD"/>
</g>
<path d="M71.5415 15.1588H71.6367H71.7479C71.8857 15.1746 72.0253 15.16 72.1569 15.1161C72.2885 15.0722 72.4089 15.0001 72.5098 14.9049C72.6526 14.7366 72.7256 14.3525 72.7256 13.7525V7.65091H72.1669V6.52393H75.5701V7.65091H75.0558V13.962C75.1005 14.6864 74.8742 15.4016 74.4209 15.9684C74.1923 16.212 73.9127 16.4021 73.602 16.525C73.2914 16.6479 72.9574 16.7007 72.624 16.6795C72.2803 16.6804 71.9396 16.6146 71.6209 16.4858L71.5415 15.1588Z" fill="#425CE6"/>
</g>
<defs>
<filter id="filter0_d_3_4209" x="0.75" y="0.75" width="64.6431" height="87.5" filterUnits="userSpaceOnUse" color-interpolation-filters="sRGB">
<feFlood flood-opacity="0" result="BackgroundImageFix"/>
<feColorMatrix in="SourceAlpha" type="matrix" values="0 0 0 0 0 0 0 0 0 0 0 0 0 0 0 0 0 0 127 0" result="hardAlpha"/>
<feOffset dx="-1.5" dy="1.5"/>
<feGaussianBlur stdDeviation="1.875"/>
<feComposite in2="hardAlpha" operator="out"/>
<feColorMatrix type="matrix" values="0 0 0 0 0 0 0 0 0 0 0 0 0 0 0 0 0 0 0.25 0"/>
<feBlend mode="normal" in2="BackgroundImageFix" result="effect1_dropShadow_3_4209"/>
<feBlend mode="normal" in="SourceGraphic" in2="effect1_dropShadow_3_4209" result="shape"/>
</filter>
<filter id="filter1_d_3_4209" x="20.3931" y="0.75" width="64.6431" height="87.5" filterUnits="userSpaceOnUse" color-interpolation-filters="sRGB">
<feFlood flood-opacity="0" result="BackgroundImageFix"/>
<feColorMatrix in="SourceAlpha" type="matrix" values="0 0 0 0 0 0 0 0 0 0 0 0 0 0 0 0 0 0 127 0" result="hardAlpha"/>
<feOffset dx="-1.5" dy="1.5"/>
<feGaussianBlur stdDeviation="1.875"/>
<feComposite in2="hardAlpha" operator="out"/>
<feColorMatrix type="matrix" values="0 0 0 0 0 0 0 0 0 0 0 0 0 0 0 0 0 0 0.25 0"/>
<feBlend mode="normal" in2="BackgroundImageFix" result="effect1_dropShadow_3_4209"/>
<feBlend mode="normal" in="SourceGraphic" in2="effect1_dropShadow_3_4209" result="shape"/>
</filter>
<filter id="filter2_d_3_4209" x="40.0356" y="0.75" width="64.6431" height="87.5" filterUnits="userSpaceOnUse" color-interpolation-filters="sRGB">
<feFlood flood-opacity="0" result="BackgroundImageFix"/>
<feColorMatrix in="SourceAlpha" type="matrix" values="0 0 0 0 0 0 0 0 0 0 0 0 0 0 0 0 0 0 127 0" result="hardAlpha"/>
<feOffset dx="-1.5" dy="1.5"/>
<feGaussianBlur stdDeviation="1.875"/>
<feComposite in2="hardAlpha" operator="out"/>
<feColorMatrix type="matrix" values="0 0 0 0 0 0 0 0 0 0 0 0 0 0 0 0 0 0 0.25 0"/>
<feBlend mode="normal" in2="BackgroundImageFix" result="effect1_dropShadow_3_4209"/>
<feBlend mode="normal" in="SourceGraphic" in2="effect1_dropShadow_3_4209" result="shape"/>
</filter>
<filter id="filter3_d_3_4209" x="59.6787" y="0.75" width="64.6431" height="87.5" filterUnits="userSpaceOnUse" color-interpolation-filters="sRGB">
<feFlood flood-opacity="0" result="BackgroundImageFix"/>
<feColorMatrix in="SourceAlpha" type="matrix" values="0 0 0 0 0 0 0 0 0 0 0 0 0 0 0 0 0 0 127 0" result="hardAlpha"/>
<feOffset dx="-1.5" dy="1.5"/>
<feGaussianBlur stdDeviation="1.875"/>
<feComposite in2="hardAlpha" operator="out"/>
<feColorMatrix type="matrix" values="0 0 0 0 0 0 0 0 0 0 0 0 0 0 0 0 0 0 0.25 0"/>
<feBlend mode="normal" in2="BackgroundImageFix" result="effect1_dropShadow_3_4209"/>
<feBlend mode="normal" in="SourceGraphic" in2="effect1_dropShadow_3_4209" result="shape"/>
</filter>
<clipPath id="clip0_3_4209">
<rect width="57.1429" height="80" fill="white" transform="translate(6 3)"/>
</clipPath>
<clipPath id="clip1_3_4209">
<rect width="57.1429" height="80" fill="white" transform="translate(6 3)"/>
</clipPath>
<clipPath id="clip2_3_4209">
<rect width="8.83492" height="8.57143" fill="white" transform="translate(10.3555 17.4985)"/>
</clipPath>
<clipPath id="clip3_3_4209">
<rect width="38.2921" height="38.0952" fill="white" transform="translate(16.4697 28.292)"/>
</clipPath>
<clipPath id="clip4_3_4209">
<rect width="57.1429" height="80" fill="white" transform="translate(25.6431 3)"/>
</clipPath>
<clipPath id="clip5_3_4209">
<rect width="57.1429" height="80" fill="white" transform="translate(25.6431 3)"/>
</clipPath>
<clipPath id="clip6_3_4209">
<rect width="8.0254" height="8.25397" fill="white" transform="translate(30.4019 17.6572)"/>
</clipPath>
<clipPath id="clip7_3_4209">
<rect width="39.3302" height="41.2698" fill="white" transform="translate(36.313 28.3301)"/>
</clipPath>
<clipPath id="clip8_3_4209">
<rect width="57.1429" height="80" fill="white" transform="translate(45.2856 3)"/>
</clipPath>
<clipPath id="clip9_3_4209">
<rect width="57.1429" height="80" fill="white" transform="translate(45.2856 3)"/>
</clipPath>
<clipPath id="clip10_3_4209">
<rect width="8.59365" height="7.93651" fill="white" transform="translate(49.7617 17.8159)"/>
</clipPath>
<clipPath id="clip11_3_4209">
<rect width="36.5079" height="38.9016" fill="white" transform="translate(56.3745 28.7493)"/>
</clipPath>
<clipPath id="clip12_3_4209">
<rect width="57.1429" height="80" fill="white" transform="translate(64.9287 3)"/>
</clipPath>
<clipPath id="clip13_3_4209">
<rect width="57.1429" height="80" fill="white" transform="translate(64.9287 3)"/>
</clipPath>
<clipPath id="clip14_3_4209">
<rect width="8.85397" height="8.25397" fill="white" transform="translate(69.2749 17.6572)"/>
</clipPath>
<clipPath id="clip15_3_4209">
<rect width="37.9778" height="38.4032" fill="white" transform="translate(75.9893 26.8477)"/>
</clipPath>
</defs>
</svg>
