<svg width="125" height="89" viewBox="0 0 125 89" fill="none" xmlns="http://www.w3.org/2000/svg">
<g clip-path="url(#clip0_3_4198)" filter="url(#filter0_d_3_4198)">
<g clip-path="url(#clip1_3_4198)">
<path d="M60.7618 5.38086H8.38086V80.6189H60.7618V5.38086Z" stroke="#CCCCCC" stroke-width="0.1875" stroke-miterlimit="10"/>
<path d="M20.5523 5.38086H8.38086V80.6189H20.5523V5.38086Z" stroke="#CCCCCC" stroke-width="0.1875" stroke-miterlimit="10"/>
<path d="M20.5523 16.4729H8.38086V18.6634H20.5523V16.4729Z" stroke="#CCCCCC" stroke-width="0.1875" stroke-miterlimit="10"/>
<path d="M60.7619 78.4285H15.8604V80.6189H60.7619V78.4285Z" stroke="#CCCCCC" stroke-width="0.1875" stroke-miterlimit="10"/>
<path d="M58.8919 14.2825H20.5522V78.4285H58.8919V14.2825Z" stroke="#CCCCCC" stroke-width="0.1875" stroke-miterlimit="10"/>
<path d="M51.0668 20.0889H28.3779V69.2762H51.0668V20.0889Z" stroke="#CCCCCC" stroke-width="0.16875" stroke-miterlimit="10"/>
<path d="M28.3779 36.4858H51.0668" stroke="#CCCCCC" stroke-width="0.16875" stroke-miterlimit="10"/>
<path d="M28.3779 52.8794H51.0668" stroke="#CCCCCC" stroke-width="0.16875" stroke-miterlimit="10"/>
<path d="M28.3779 44.6826H51.0668" stroke="#CCCCCC" stroke-width="0.16875" stroke-miterlimit="10"/>
<path d="M39.7207 69.2762V20.0889" stroke="#CCCCCC" stroke-width="0.16875" stroke-miterlimit="10"/>
<path d="M51.0668 44.6825L39.7208 20.0889L28.3779 44.6825L39.7208 69.2762L51.0668 44.6825Z" stroke="#CCCCCC" stroke-width="0.16875" stroke-miterlimit="10"/>
<path d="M28.3779 20.0889L51.0668 36.4857" stroke="#CCCCCC" stroke-width="0.16875" stroke-miterlimit="10"/>
<path d="M28.3779 36.4857L51.0668 20.0889" stroke="#CCCCCC" stroke-width="0.16875" stroke-miterlimit="10"/>
<path d="M28.3779 36.4858L51.0668 52.8795" stroke="#CCCCCC" stroke-width="0.16875" stroke-miterlimit="10"/>
<path d="M28.3779 52.8795L51.0668 36.4858" stroke="#CCCCCC" stroke-width="0.16875" stroke-miterlimit="10"/>
<path d="M28.3779 52.8794L51.0668 69.2762" stroke="#CCCCCC" stroke-width="0.16875" stroke-miterlimit="10"/>
<path d="M28.3779 69.2762L51.0668 52.8794" stroke="#CCCCCC" stroke-width="0.16875" stroke-miterlimit="10"/>
<path d="M59.3333 3H9.80952C7.70558 3 6 4.70558 6 6.80952V79.1905C6 81.2944 7.70558 83 9.80952 83H59.3333C61.4373 83 63.1429 81.2944 63.1429 79.1905V6.80952C63.1429 4.70558 61.4373 3 59.3333 3Z" fill="#FFF4D7"/>
</g>
<g clip-path="url(#clip2_3_4198)">
<path d="M19.0381 23.3079L17.9461 21.8286C17.8505 21.7399 17.7274 21.6868 17.5974 21.6781C17.4673 21.6695 17.3382 21.7058 17.2318 21.7809L15.3048 23.0508C15.2939 23.0575 15.2814 23.0612 15.2686 23.0615C15.2558 23.0618 15.2431 23.0588 15.2318 23.0527C15.2206 23.0466 15.2111 23.0376 15.2044 23.0267C15.1977 23.0158 15.194 23.0033 15.1937 22.9905V22.5968C15.1927 22.5367 15.205 22.477 15.2297 22.4221C15.2544 22.3673 15.2909 22.3185 15.3365 22.2794L16.7048 21.2095C16.7413 21.177 16.7706 21.1372 16.7906 21.0926C16.8107 21.048 16.821 20.9997 16.821 20.9508C16.821 20.9019 16.8107 20.8536 16.7906 20.809C16.7706 20.7644 16.7413 20.7245 16.7048 20.6921L15.1397 18.9111C15.0396 18.8194 14.9088 18.7686 14.773 18.7686C14.6373 18.7686 14.5065 18.8194 14.4064 18.9111L12.8349 20.6921C12.7988 20.7248 12.77 20.7647 12.7502 20.8093C12.7305 20.8538 12.7203 20.902 12.7203 20.9508C12.7203 20.9995 12.7305 21.0477 12.7502 21.0923C12.77 21.1368 12.7988 21.1768 12.8349 21.2095L14.2064 22.2857C14.251 22.3256 14.2865 22.3745 14.3106 22.4293C14.3347 22.4841 14.3468 22.5433 14.3461 22.6032V22.9936C14.3457 23.0064 14.342 23.0189 14.3353 23.0299C14.3286 23.0408 14.3192 23.0497 14.3079 23.0559C14.2966 23.062 14.284 23.065 14.2712 23.0647C14.2584 23.0643 14.2459 23.0606 14.2349 23.054L12.308 21.7841C12.202 21.7092 12.0735 21.673 11.944 21.6817C11.8145 21.6904 11.6919 21.7433 11.5969 21.8317L10.508 23.3079C10.4221 23.3884 10.3691 23.4978 10.3591 23.615C10.3492 23.7323 10.383 23.849 10.454 23.9428L11.5905 25.4349C11.6577 25.5219 11.753 25.5828 11.8602 25.6071C11.9674 25.6315 12.0797 25.6177 12.1778 25.5682L13.9207 24.6444C13.9552 24.6269 13.9943 24.6202 14.0327 24.6251C14.0712 24.63 14.1073 24.6463 14.1363 24.672C14.1654 24.6976 14.1861 24.7314 14.1958 24.7689C14.2054 24.8065 14.2036 24.846 14.1905 24.8825L13.3619 26.8698C13.3435 26.9218 13.3375 26.9774 13.3445 27.0321C13.3515 27.0869 13.3712 27.1392 13.4021 27.1849C13.433 27.2306 13.4741 27.2684 13.5223 27.2953C13.5705 27.3222 13.6243 27.3374 13.6794 27.3397H15.8413C15.8964 27.3374 15.9502 27.3222 15.9984 27.2953C16.0466 27.2684 16.0877 27.2306 16.1186 27.1849C16.1495 27.1392 16.1692 27.0869 16.1762 27.0321C16.1832 26.9774 16.1772 26.9218 16.1588 26.8698L15.327 24.873C15.3139 24.8365 15.3121 24.7969 15.3217 24.7594C15.3314 24.7219 15.3521 24.6881 15.3812 24.6624C15.4102 24.6368 15.4463 24.6204 15.4848 24.6155C15.5232 24.6106 15.5623 24.6174 15.5969 24.6349L17.4096 25.5587C17.5086 25.6166 17.6255 25.636 17.7379 25.6132C17.8504 25.5903 17.9505 25.5269 18.0191 25.4349L19.0889 23.9555C19.1655 23.8618 19.2029 23.7422 19.1935 23.6215C19.184 23.5009 19.1284 23.3886 19.0381 23.3079Z" fill="#425CE6"/>
</g>
<path d="M15.3842 16.6509C16.0165 16.798 16.6239 17.0365 17.1874 17.3588C17.7352 17.6867 18.3428 17.9026 18.9747 17.9937L17.47 19.3715C16.8535 19.1992 16.2654 18.9383 15.7239 18.5969C15.0668 18.2032 14.6096 18.0096 14.3525 18.0096C14.2022 18.0108 14.0527 18.0322 13.9081 18.0731C13.6718 18.1398 13.4396 18.2203 13.2128 18.3143L12.8065 17.3397C13.1049 17.2477 13.4001 17.1493 13.6858 17.0382C13.9761 16.9243 14.2601 16.795 14.5366 16.6509C14.0429 16.5761 13.5711 16.3956 13.1536 16.1216C12.7361 15.8477 12.3827 15.4867 12.1176 15.0636C11.4733 14.0414 11.1524 12.8487 11.1969 11.6413C11.1969 10.1006 11.561 8.83075 12.289 7.8318C12.5908 7.37163 13.0025 6.99394 13.487 6.73287C13.9714 6.4718 14.5133 6.3356 15.0636 6.33657C15.6068 6.32607 16.1446 6.44703 16.631 6.68913C17.1174 6.93123 17.5381 7.28731 17.8573 7.72704C18.5747 8.65403 18.9335 9.86355 18.9335 11.3556C18.9798 12.6541 18.6335 13.9364 17.9398 15.035C17.6698 15.4853 17.298 15.8661 16.8541 16.1467C16.4103 16.4274 15.9069 16.6 15.3842 16.6509ZM15.562 15.581C15.7276 15.5858 15.8907 15.5404 16.03 15.4509C16.1694 15.3614 16.2785 15.232 16.343 15.0794C16.5407 14.5748 16.6263 14.0332 16.5938 13.4921C16.5908 12.6541 16.5132 11.818 16.362 10.9937C16.2359 10.2277 16.0349 9.47599 15.762 8.74927C15.6367 8.38991 15.4486 8.05563 15.2065 7.76196C15.1302 7.66597 15.0338 7.58782 14.9241 7.53299C14.8145 7.47815 14.6941 7.44795 14.5715 7.4445C14.4079 7.43879 14.2461 7.48154 14.1066 7.56738C13.9671 7.65322 13.8561 7.77834 13.7874 7.92704C13.5901 8.40297 13.5032 8.91747 13.5335 9.4318C13.539 10.275 13.6165 11.1161 13.7652 11.9461C13.8958 12.7363 14.0977 13.513 14.3684 14.2667C14.4888 14.6311 14.6738 14.9709 14.9144 15.2699C14.9934 15.3655 15.0922 15.4429 15.204 15.4966C15.3159 15.5503 15.438 15.5791 15.562 15.581Z" fill="#425CE6"/>
<g clip-path="url(#clip3_3_4198)">
<path d="M32.7843 54.362C31.3434 55.4335 29.8274 56.4 28.2478 57.2541C27.5243 57.6418 26.7626 57.9535 25.9748 58.1842C25.2796 58.3779 24.4986 58.4477 23.8415 57.9842C21.2383 56.1493 18.9653 54.0064 17.4669 51.1493C17.3657 50.9802 17.3142 50.786 17.3181 50.589C17.322 50.3919 17.3813 50.2 17.4891 50.035C18.8148 47.6342 20.6583 45.5586 22.8859 43.9588C24.1335 43.0699 25.7431 43.1207 27.0764 43.9588C28.8415 45.0223 30.7177 45.9271 32.397 47.1556C32.7872 47.3949 33.1242 47.7114 33.3875 48.0858C33.2764 46.3525 33.5018 44.8445 31.9558 43.7525C30.7337 42.902 29.7755 41.7249 29.1907 40.3556C28.9692 39.8803 28.8633 39.3593 28.8815 38.8351C28.8997 38.311 29.0415 37.7986 29.2954 37.3398C30.5113 35.0318 32.3304 33.2953 34.4319 31.8541C34.8166 31.6056 35.267 31.4782 35.7248 31.4884C36.1827 31.4985 36.627 31.6458 37.0002 31.9112C39.0368 33.2359 40.7315 35.0231 41.9462 37.1271C42.6764 38.4445 42.5558 39.689 41.8669 40.9366C41.2047 42.1033 40.3036 43.117 39.2224 43.9112C38.6986 44.308 38.3018 44.7112 38.2383 45.4001C38.1748 46.089 37.8034 46.6287 37.8224 47.3048C37.8224 47.4668 37.7494 47.6699 37.9208 47.7715C38.0923 47.8731 38.2383 47.7048 38.3589 47.6033C40.2383 46.1652 42.3335 45.0636 44.3907 43.9144C45.8669 43.0953 47.5399 43.0763 48.9177 44.2318C50.8193 45.8541 52.5558 47.6572 53.7907 49.8795C53.925 50.0762 54.0013 50.3067 54.0109 50.5447C54.0204 50.7827 53.9628 51.0186 53.8446 51.2255C52.7558 53.3779 51.07 55.0096 49.3304 56.6033C48.9526 56.9493 48.5462 57.2636 48.1431 57.5779C47.0224 58.4445 45.8097 58.5017 44.5494 57.9334C42.5874 57.0926 40.751 55.9848 39.0923 54.6414C38.905 54.4826 38.6669 54.2064 38.4288 54.3652C38.1907 54.5239 38.1653 57.4668 38.4764 58.1429C39.8573 60.0826 42.9462 61.362 42.9462 65.2699C42.924 65.9334 42.8542 66.1715 42.07 65.9525C41.082 65.6921 40.0663 65.5514 39.0446 65.5334C37.7399 65.4921 36.8224 65.5334 36.1399 64.508C35.797 64.0096 35.6034 63.8445 35.2319 64.4795C34.1716 66.2921 32.3018 65.5588 30.5653 65.7493C30.0823 65.7548 29.6028 65.8329 29.1431 65.981C28.5399 66.235 28.2764 66.0414 28.2288 65.3461C28.1367 64.0763 28.6351 62.9525 29.1272 61.8541C29.6986 60.5842 31.3494 59.3683 32.2478 58.2763C33.1462 57.1842 32.7589 55.8858 32.7843 54.362ZM37.6732 36.2668C37.7845 36.277 37.8966 36.2619 38.0011 36.2226C38.1057 36.1833 38.2 36.1209 38.277 36.0399C38.354 35.959 38.4116 35.8616 38.4456 35.7552C38.4796 35.6488 38.489 35.5361 38.4732 35.4255C38.4415 34.8795 38.0764 34.6318 37.5462 34.6541C37.4387 34.6466 37.3309 34.6627 37.2302 34.7012C37.1296 34.7398 37.0385 34.7999 36.9636 34.8773C36.8886 34.9547 36.8314 35.0476 36.796 35.1494C36.7607 35.2512 36.748 35.3595 36.7589 35.4668C36.7526 36.0255 37.0859 36.2572 37.6732 36.2509V36.2668ZM32.8319 35.708C32.8319 36.0033 33.1494 36.2858 33.6224 36.2858C33.7306 36.298 33.8402 36.2846 33.9423 36.2469C34.0445 36.2092 34.1364 36.1481 34.2107 36.0685C34.2851 35.9889 34.3398 35.8931 34.3705 35.7886C34.4012 35.6841 34.407 35.5739 34.3875 35.4668C34.3908 35.3518 34.3691 35.2374 34.3238 35.1317C34.2786 35.0259 34.2109 34.9313 34.1255 34.8543C34.04 34.7773 33.9388 34.7198 33.8289 34.6858C33.7191 34.6517 33.6031 34.642 33.4891 34.6572C32.9843 34.6858 32.8256 35.0191 32.8319 35.708Z" fill="#FFB000"/>
<path d="M37.6731 36.2507C37.0858 36.2507 36.7525 36.0253 36.7588 35.4507C36.7484 35.3437 36.7615 35.2358 36.797 35.1343C36.8326 35.0329 36.8899 34.9404 36.9648 34.8634C37.0397 34.7863 37.1306 34.7265 37.231 34.6882C37.3314 34.6498 37.4389 34.6337 37.5461 34.6412C38.0763 34.6189 38.4414 34.8666 38.4731 35.4126C38.4884 35.5229 38.4786 35.6353 38.4444 35.7413C38.4101 35.8473 38.3524 35.9442 38.2755 36.0248C38.1986 36.1054 38.1045 36.1676 38.0002 36.2067C37.8959 36.2458 37.7841 36.2608 37.6731 36.2507Z" fill="#FFB000"/>
<path d="M32.8315 35.7079C32.8315 35.019 32.9839 34.6857 33.4887 34.6571C33.6027 34.6419 33.7187 34.6516 33.8285 34.6857C33.9384 34.7197 34.0396 34.7772 34.125 34.8542C34.2105 34.9312 34.2782 35.0258 34.3234 35.1316C34.3687 35.2374 34.3904 35.3517 34.3871 35.4667C34.4066 35.5738 34.4008 35.684 34.3701 35.7885C34.3394 35.893 34.2847 35.9888 34.2103 36.0684C34.136 36.148 34.0441 36.2091 33.9419 36.2468C33.8398 36.2845 33.7302 36.2979 33.622 36.2857C33.1427 36.2857 32.8315 36.0032 32.8315 35.7079Z" fill="#FFB000"/>
<path d="M34.3812 50.8603C32.9402 51.9307 31.4241 52.8961 29.8446 53.7492C29.1224 54.1403 28.3604 54.4532 27.5716 54.6825C26.8764 54.873 26.0954 54.9428 25.4383 54.4825C22.8351 52.6476 20.5621 50.5142 19.0637 47.6317C18.9625 47.4632 18.9108 47.2695 18.9148 47.073C18.9187 46.8764 18.978 46.6849 19.0859 46.5206C20.4118 44.1199 22.2553 42.0443 24.4827 40.4444C25.7304 39.5555 27.3399 39.6063 28.6732 40.4444C30.4415 41.5301 32.3177 42.4349 33.997 43.6635C34.3864 43.905 34.7232 44.2224 34.9875 44.5968C34.8764 42.8603 35.1018 41.3523 33.5558 40.2603C32.3318 39.4063 31.3735 38.2246 30.7907 36.8508C30.5702 36.3751 30.4648 35.8543 30.483 35.3303C30.5012 34.8064 30.6425 34.2941 30.8954 33.8349C32.1081 31.5174 33.9272 29.7777 36.0478 28.3365C36.4346 28.09 36.8863 27.9652 37.3447 27.9782C37.8032 27.9912 38.2471 28.1415 38.6193 28.4095C40.6484 29.736 42.3355 31.5232 43.5431 33.6254C44.2764 34.9396 44.1526 36.1873 43.4637 37.4349C42.7984 38.6014 41.894 39.614 40.8097 40.4063C40.2859 40.8031 39.8923 41.2095 39.8256 41.8984C39.7589 42.5873 39.3939 43.1238 39.4097 43.8031C39.4097 43.9619 39.3367 44.1682 39.5081 44.2698C39.6796 44.3714 39.8256 44.2031 39.9462 44.1015C41.8256 42.6603 43.9208 41.5619 45.978 40.4127C47.4542 39.5936 49.1272 39.5746 50.505 40.7301C52.4161 42.3523 54.1431 44.165 55.3875 46.3873C55.5218 46.584 55.5981 46.8145 55.6077 47.0525C55.6172 47.2906 55.5596 47.5265 55.4415 47.7333C54.3526 49.8857 52.6669 51.5206 50.9272 53.1143C50.5494 53.4603 50.1431 53.7714 49.7399 54.0857C48.6192 54.9587 47.4066 55.0031 46.1462 54.4349C44.1862 53.5931 42.3502 52.4876 40.6891 51.1492C40.5018 50.9904 40.2637 50.7142 40.0256 50.8698C39.7875 51.0254 39.7653 53.9714 40.0732 54.6476C41.4446 56.5777 44.5431 57.8571 44.5431 61.765C44.5208 62.4254 44.451 62.6666 43.6669 62.4444C42.6786 62.1854 41.663 62.0447 40.6415 62.0254C39.3367 61.9841 38.4193 62.0095 37.7367 61.0031C37.397 60.5016 37.2002 60.3396 36.8288 60.9746C35.7685 62.7873 33.9018 62.0508 32.1621 62.2444C31.6788 62.2467 31.1989 62.3249 30.7399 62.4762C30.1367 62.7301 29.8732 62.5365 29.8256 61.8412C29.7335 60.5714 30.2319 59.4508 30.724 58.3492C31.2954 57.0793 32.9462 55.8635 33.8446 54.7714C34.7431 53.6793 34.3558 52.3809 34.3812 50.8603ZM39.27 32.7365C39.7653 32.7142 40.105 32.4571 40.07 31.8984C40.0351 31.3396 39.6764 31.1142 39.1431 31.1492C39.0358 31.1417 38.9283 31.1578 38.8279 31.1962C38.7275 31.2345 38.6366 31.2943 38.5617 31.3714C38.4868 31.4484 38.4295 31.5409 38.394 31.6423C38.3584 31.7438 38.3454 31.8517 38.3558 31.9587C38.3494 32.5238 38.6827 32.7555 39.27 32.7365ZM34.4288 32.2031C34.4288 32.5015 34.7462 32.7809 35.2193 32.7809C35.3275 32.7931 35.437 32.7797 35.5392 32.742C35.6413 32.7043 35.7332 32.6432 35.8076 32.5636C35.8819 32.484 35.9366 32.3882 35.9673 32.2837C35.998 32.1792 36.0038 32.069 35.9843 31.9619C35.989 31.8472 35.9686 31.733 35.9244 31.6271C35.8803 31.5212 35.8136 31.4262 35.7289 31.3488C35.6443 31.2713 35.5437 31.2134 35.4343 31.1789C35.3248 31.1444 35.2092 31.1343 35.0954 31.1492C34.5812 31.1841 34.4224 31.5174 34.4288 32.2031Z" fill="#425CE6"/>
<path d="M39.2699 32.7364C38.6826 32.7364 38.3493 32.5142 38.3556 31.9364C38.3486 31.8312 38.3642 31.7257 38.4013 31.627C38.4383 31.5283 38.4961 31.4387 38.5707 31.3641C38.6452 31.2896 38.7348 31.2318 38.8335 31.1947C38.9323 31.1576 39.0377 31.1421 39.1429 31.1491C39.6763 31.1269 40.0382 31.3713 40.0699 31.9205C40.1017 32.4697 39.7652 32.7364 39.2699 32.7364Z" fill="#F8F9FD"/>
<path d="M34.4287 32.203C34.4287 31.5173 34.5811 31.184 35.0859 31.1554C35.1998 31.1391 35.3159 31.148 35.426 31.1814C35.5362 31.2148 35.6376 31.272 35.7233 31.3488C35.809 31.4257 35.8767 31.5204 35.9218 31.6263C35.9669 31.7322 35.9882 31.8467 35.9843 31.9618C36.0038 32.0689 35.9979 32.1791 35.9672 32.2836C35.9365 32.3881 35.8818 32.4839 35.8075 32.5635C35.7332 32.6431 35.6413 32.7042 35.5391 32.7419C35.437 32.7796 35.3274 32.793 35.2192 32.7808C34.7398 32.7808 34.4287 32.5014 34.4287 32.203Z" fill="#F8F9FD"/>
</g>
<path d="M32.3491 24.0477C32.3491 25.1906 34.6221 26.1144 37.4285 26.1144C40.2348 26.1144 42.5079 25.1906 42.5079 24.0477V21.8255L39.9682 21.7747L37.4285 18.5557L34.8888 21.7747L32.3491 21.8255V24.0477Z" fill="#FFB000"/>
</g>
<g clip-path="url(#clip4_3_4198)" filter="url(#filter1_d_3_4198)">
<g clip-path="url(#clip5_3_4198)">
<path d="M80.4049 5.38086H28.0239V80.6189H80.4049V5.38086Z" stroke="#CCCCCC" stroke-width="0.1875" stroke-miterlimit="10"/>
<path d="M40.1954 5.38086H28.0239V80.6189H40.1954V5.38086Z" stroke="#CCCCCC" stroke-width="0.1875" stroke-miterlimit="10"/>
<path d="M40.1954 16.4729H28.0239V18.6634H40.1954V16.4729Z" stroke="#CCCCCC" stroke-width="0.1875" stroke-miterlimit="10"/>
<path d="M80.405 78.4285H35.5034V80.6189H80.405V78.4285Z" stroke="#CCCCCC" stroke-width="0.1875" stroke-miterlimit="10"/>
<path d="M78.535 14.2825H40.1953V78.4285H78.535V14.2825Z" stroke="#CCCCCC" stroke-width="0.1875" stroke-miterlimit="10"/>
<path d="M70.7099 20.0889H48.021V69.2762H70.7099V20.0889Z" stroke="#CCCCCC" stroke-width="0.16875" stroke-miterlimit="10"/>
<path d="M48.021 36.4858H70.7099" stroke="#CCCCCC" stroke-width="0.16875" stroke-miterlimit="10"/>
<path d="M48.021 52.8794H70.7099" stroke="#CCCCCC" stroke-width="0.16875" stroke-miterlimit="10"/>
<path d="M48.021 44.6826H70.7099" stroke="#CCCCCC" stroke-width="0.16875" stroke-miterlimit="10"/>
<path d="M59.3638 69.2762V20.0889" stroke="#CCCCCC" stroke-width="0.16875" stroke-miterlimit="10"/>
<path d="M70.7099 44.6825L59.3639 20.0889L48.021 44.6825L59.3639 69.2762L70.7099 44.6825Z" stroke="#CCCCCC" stroke-width="0.16875" stroke-miterlimit="10"/>
<path d="M48.021 20.0889L70.7099 36.4857" stroke="#CCCCCC" stroke-width="0.16875" stroke-miterlimit="10"/>
<path d="M48.021 36.4857L70.7099 20.0889" stroke="#CCCCCC" stroke-width="0.16875" stroke-miterlimit="10"/>
<path d="M48.021 36.4858L70.7099 52.8795" stroke="#CCCCCC" stroke-width="0.16875" stroke-miterlimit="10"/>
<path d="M48.021 52.8795L70.7099 36.4858" stroke="#CCCCCC" stroke-width="0.16875" stroke-miterlimit="10"/>
<path d="M48.021 52.8794L70.7099 69.2762" stroke="#CCCCCC" stroke-width="0.16875" stroke-miterlimit="10"/>
<path d="M48.021 69.2762L70.7099 52.8794" stroke="#CCCCCC" stroke-width="0.16875" stroke-miterlimit="10"/>
<path d="M78.9764 3H29.4526C27.3486 3 25.6431 4.70558 25.6431 6.80952V79.1905C25.6431 81.2944 27.3486 83 29.4526 83H78.9764C81.0803 83 82.7859 81.2944 82.7859 79.1905V6.80952C82.7859 4.70558 81.0803 3 78.9764 3Z" fill="#FFF4D7"/>
</g>
<g clip-path="url(#clip6_3_4198)">
<path d="M34.6528 27.0888L38.021 23.9587C38.1445 23.8446 38.2431 23.7061 38.3105 23.552C38.3779 23.398 38.4127 23.2316 38.4127 23.0635C38.4127 22.8953 38.3779 22.7289 38.3105 22.5749C38.2431 22.4208 38.1445 22.2824 38.021 22.1682L34.6528 19.0222C34.5885 18.9612 34.5033 18.9272 34.4147 18.9272C34.3261 18.9272 34.2409 18.9612 34.1766 19.0222L30.7925 22.1682C30.6694 22.2826 30.5712 22.4211 30.5041 22.5752C30.437 22.7292 30.4023 22.8954 30.4023 23.0635C30.4023 23.2315 30.437 23.3977 30.5041 23.5517C30.5712 23.7058 30.6694 23.8443 30.7925 23.9587L34.1766 27.0888C34.2416 27.1484 34.3265 27.1815 34.4147 27.1815C34.5029 27.1815 34.5878 27.1484 34.6528 27.0888Z" fill="#E1306C"/>
<path d="M34.475 26.162C33.767 25.4032 33.0876 24.6731 32.4051 23.9397C32.2654 23.7905 32.1194 23.6477 31.9734 23.508C31.8299 23.3342 31.7551 23.1137 31.7633 22.8884C31.7715 22.6632 31.8621 22.4487 32.0178 22.2858C32.7257 21.5588 33.44 20.8318 34.148 20.0921C34.1764 20.0462 34.2162 20.0083 34.2634 19.982C34.3106 19.9557 34.3638 19.9419 34.4178 19.9419C34.4719 19.9419 34.525 19.9557 34.5722 19.982C34.6195 20.0083 34.6592 20.0462 34.6876 20.0921C35.421 20.9175 36.1638 21.7397 36.8813 22.5778C37.1988 22.9429 37.0908 23.2667 36.7289 23.6509C36.094 24.3239 35.5003 25.0318 34.8845 25.7239C34.767 25.8636 34.64 25.9905 34.475 26.162Z" fill="#E1306C"/>
</g>
<path d="M35.0273 16.6509C35.6596 16.798 36.267 17.0365 36.8305 17.3588C37.3783 17.6867 37.9858 17.9026 38.6178 17.9937L37.113 19.3715C36.4966 19.1992 35.9084 18.9383 35.367 18.5969C34.7099 18.2032 34.2527 18.0096 33.9956 18.0096C33.8452 18.0108 33.6958 18.0322 33.5511 18.0731C33.3148 18.1398 33.0827 18.2203 32.8559 18.3143L32.4495 17.3366C32.7479 17.2477 33.0432 17.1493 33.3289 17.0382C33.6192 16.9243 33.9032 16.795 34.1797 16.6509C33.6859 16.5761 33.2142 16.3956 32.7967 16.1216C32.3791 15.8477 32.0257 15.4867 31.7606 15.0636C31.1164 14.0414 30.7955 12.8487 30.84 11.6413C30.84 10.1006 31.204 8.83075 31.9321 7.8318C32.2339 7.37163 32.6456 6.99394 33.1301 6.73287C33.6145 6.4718 34.1564 6.3356 34.7067 6.33657C35.2499 6.32607 35.7876 6.44703 36.2741 6.68913C36.7605 6.93123 37.1812 7.28731 37.5003 7.72704C38.2178 8.65403 38.5765 9.86355 38.5765 11.3556C38.6228 12.6541 38.2765 13.9364 37.5829 15.035C37.3129 15.4853 36.941 15.8661 36.4972 16.1467C36.0534 16.4274 35.5499 16.6 35.0273 16.6509ZM35.2051 15.581C35.3706 15.5858 35.5338 15.5404 35.6731 15.4509C35.8125 15.3614 35.9215 15.232 35.986 15.0794C36.1834 14.5747 36.2689 14.0331 36.2368 13.4921C36.2338 12.6541 36.1563 11.818 36.0051 10.9937C35.879 10.2277 35.678 9.47599 35.4051 8.74927C35.2797 8.38991 35.0916 8.05563 34.8495 7.76196C34.7732 7.66597 34.6769 7.58782 34.5672 7.53299C34.4575 7.47815 34.3372 7.44795 34.2146 7.4445C34.0509 7.43879 33.8892 7.48154 33.7497 7.56738C33.6102 7.65322 33.4992 7.77834 33.4305 7.92704C33.2331 8.40297 33.1463 8.91747 33.1765 9.4318C33.1821 10.275 33.2596 11.1161 33.4083 11.9461C33.5389 12.7363 33.7408 13.513 34.0114 14.2667C34.1319 14.6311 34.3168 14.9709 34.5575 15.2699C34.6365 15.3655 34.7353 15.4429 34.8471 15.4966C34.9589 15.5503 35.0811 15.5791 35.2051 15.581Z" fill="#E1306C"/>
<g clip-path="url(#clip7_3_4198)">
<path d="M55.005 69.9175C54.1765 70.0064 53.7574 69.3937 53.2812 68.8223C51.2304 66.3588 50.0399 63.3937 48.5193 60.6318C48.301 60.205 47.9951 59.8291 47.6214 59.5287C47.2477 59.2284 46.8148 59.0103 46.3511 58.8889C43.5288 58.0572 40.8844 56.7334 38.0463 55.9874C37.5909 55.8548 37.1696 55.6252 36.8114 55.3143C36.4979 55.0923 36.2725 54.7672 36.1744 54.3958C36.0763 54.0245 36.1119 53.6304 36.2749 53.2826C36.7066 52.1842 37.4939 51.3556 38.3257 50.5524C40.6083 48.4306 43.2521 46.734 46.132 45.5429C47.3606 45.0128 47.9733 44.2191 48.3542 42.9715C49.2304 40.127 50.4939 37.454 52.6304 35.3143C54.1638 33.7556 55.8685 33.7588 57.3923 35.3143C59.5257 37.4699 60.7828 40.1429 61.6622 42.9874C62.0336 44.1905 62.6146 44.981 63.8146 45.527C67.132 46.9937 70.2241 48.8445 72.6653 51.6096C74.6399 53.8318 74.2876 55.3429 71.4526 56.1588C68.7225 56.9334 66.1669 58.2191 63.4241 58.9715C63.0188 59.09 62.6431 59.2926 62.3215 59.5661C61.9999 59.8396 61.7395 60.1779 61.5574 60.5588C60.005 63.3429 58.7987 66.3302 56.7479 68.8286C56.078 69.635 55.7765 69.8985 55.005 69.9175ZM53.4177 39.362C53.3193 39.0445 53.205 38.7048 52.7828 38.6826C52.3606 38.6604 52.0368 38.8064 52.0177 39.3175C51.9987 39.7334 52.1098 40.0953 52.5828 40.1397C53.0558 40.1842 53.2653 39.7905 53.4177 39.3524V39.362ZM57.1542 39.9969C57.6241 39.9969 57.8368 39.7556 57.8368 39.2858C57.8368 38.8159 57.6336 38.5874 57.2209 38.6096C57.0269 38.6153 56.8426 38.6958 56.7065 38.8342C56.5704 38.9727 56.4931 39.1583 56.4907 39.3524C56.4832 39.4399 56.4955 39.528 56.5267 39.6101C56.5579 39.6922 56.6072 39.7662 56.671 39.8266C56.7347 39.8871 56.8113 39.9323 56.895 39.959C56.9786 39.9858 57.0673 39.9933 57.1542 39.981V39.9969Z" fill="#FFB000"/>
<path d="M53.4178 39.3525C53.2654 39.7906 53.0781 40.1652 52.5734 40.1144C52.0686 40.0636 51.9956 39.708 51.9956 39.2921C52.0147 38.7969 52.3385 38.6572 52.7607 38.6572C53.1829 38.6572 53.3194 39.0318 53.4178 39.3525Z" fill="#FFB000"/>
<path d="M57.154 39.9811C57.0665 39.9935 56.9773 39.9859 56.8931 39.9588C56.8089 39.9318 56.732 39.8859 56.6681 39.8248C56.6042 39.7637 56.555 39.6888 56.5243 39.6059C56.4935 39.523 56.482 39.4342 56.4905 39.3462C56.4929 39.1521 56.5702 38.9664 56.7063 38.828C56.8424 38.6895 57.0267 38.609 57.2207 38.6033C57.6334 38.5811 57.8366 38.8541 57.8366 39.2795C57.8366 39.7049 57.6239 39.9779 57.154 39.9811Z" fill="#FFB000"/>
<path d="M56.5351 64.4128C55.7065 64.5017 55.2875 63.889 54.8081 63.3144C52.7573 60.8541 51.5668 57.889 50.0462 55.124C49.8259 54.6972 49.5181 54.3216 49.1428 54.0219C48.7676 53.7221 48.3333 53.5049 47.8684 53.3843C45.0494 52.5621 42.4113 51.2382 39.5668 50.489C39.1171 50.3585 38.7004 50.1333 38.3446 49.8287C38.0276 49.6066 37.7995 49.2795 37.7007 48.9052C37.602 48.531 37.6389 48.1339 37.8049 47.7843C38.2335 46.6859 39.024 45.8605 39.8526 45.0668C42.1345 42.9416 44.7783 41.2418 47.6589 40.0478C48.8907 39.5144 49.5034 38.7208 49.8811 37.4763C50.7541 34.6192 52.0176 31.9589 54.1541 29.8065C55.6907 28.2605 57.3922 28.2605 58.916 29.8065C61.0462 31.9589 62.3034 34.6319 63.1827 37.4795C63.5573 38.6827 64.1351 39.4732 65.3351 40.0033C68.6716 41.4827 71.7637 43.3335 74.2176 46.1081C76.1922 48.3303 75.8367 49.8446 73.0018 50.6605C70.2621 51.4509 67.7065 52.7367 64.9573 53.489C64.5516 53.6064 64.1753 53.8086 63.8536 54.0823C63.5318 54.3559 63.2717 54.6947 63.0907 55.0763C61.5192 57.8541 60.3224 60.8287 58.2716 63.3303C57.6049 64.1398 57.3065 64.4033 56.5351 64.4128ZM54.9478 33.8573C54.8494 33.5398 54.7351 33.2001 54.3129 33.1779C53.8907 33.1557 53.57 33.3017 53.5478 33.7938C53.5319 34.2128 53.6399 34.5716 54.1161 34.6192C54.5922 34.6668 54.7922 34.2922 54.9446 33.8573H54.9478ZM58.6875 34.4922C59.1541 34.4922 59.3668 34.2541 59.37 33.7843C59.3732 33.3144 59.1637 33.0922 58.751 33.0922C58.557 33.0996 58.3733 33.1817 58.2384 33.3213C58.1035 33.4609 58.0278 33.6473 58.0272 33.8414C58.0171 33.9295 58.0273 34.0186 58.0571 34.1021C58.0868 34.1856 58.1352 34.2612 58.1986 34.323C58.262 34.3849 58.3388 34.4315 58.423 34.4592C58.5071 34.4868 58.5965 34.4949 58.6843 34.4827L58.6875 34.4922Z" fill="#E1306C"/>
<path d="M54.9445 33.8573C54.7921 34.2922 54.6048 34.6668 54.1032 34.6192C53.6016 34.5716 53.5191 34.2128 53.535 33.7938C53.5572 33.3017 53.8778 33.1589 54.3001 33.1779C54.7223 33.197 54.8524 33.5366 54.9445 33.8573Z" fill="white"/>
<path d="M58.681 34.4827C58.5936 34.4953 58.5044 34.4877 58.4204 34.4606C58.3363 34.4335 58.2595 34.3876 58.1959 34.3264C58.1322 34.2652 58.0833 34.1903 58.053 34.1074C58.0226 34.0244 58.0116 33.9357 58.0207 33.8478C58.0198 33.6515 58.0956 33.4626 58.232 33.3215C58.3684 33.1803 58.5546 33.0981 58.7508 33.0923C59.1635 33.0732 59.3667 33.343 59.3667 33.7716C59.3667 34.2002 59.1508 34.4796 58.681 34.4827Z" fill="white"/>
</g>
<path d="M51.3574 24.9808C51.3574 26.1237 53.6304 27.0507 56.4368 27.0507C59.2431 27.0507 61.5162 26.1237 61.5162 24.9808V22.7586L58.9765 22.7046L56.4368 19.4761L53.8971 22.7078L51.3574 22.7618V24.9808Z" fill="#FFB000"/>
</g>
<g clip-path="url(#clip8_3_4198)" filter="url(#filter2_d_3_4198)">
<g clip-path="url(#clip9_3_4198)">
<path d="M100.047 5.38086H47.6665V80.6189H100.047V5.38086Z" stroke="#CCCCCC" stroke-width="0.1875" stroke-miterlimit="10"/>
<path d="M59.8379 5.38086H47.6665V80.6189H59.8379V5.38086Z" stroke="#CCCCCC" stroke-width="0.1875" stroke-miterlimit="10"/>
<path d="M59.8379 16.4729H47.6665V18.6634H59.8379V16.4729Z" stroke="#CCCCCC" stroke-width="0.1875" stroke-miterlimit="10"/>
<path d="M100.048 78.4285H55.146V80.6189H100.048V78.4285Z" stroke="#CCCCCC" stroke-width="0.1875" stroke-miterlimit="10"/>
<path d="M98.1776 14.2825H59.8379V78.4285H98.1776V14.2825Z" stroke="#CCCCCC" stroke-width="0.1875" stroke-miterlimit="10"/>
<path d="M90.3525 20.0889H67.6636V69.2762H90.3525V20.0889Z" stroke="#CCCCCC" stroke-width="0.16875" stroke-miterlimit="10"/>
<path d="M67.6636 36.4858H90.3525" stroke="#CCCCCC" stroke-width="0.16875" stroke-miterlimit="10"/>
<path d="M67.6636 52.8794H90.3525" stroke="#CCCCCC" stroke-width="0.16875" stroke-miterlimit="10"/>
<path d="M67.6636 44.6826H90.3525" stroke="#CCCCCC" stroke-width="0.16875" stroke-miterlimit="10"/>
<path d="M79.0063 69.2762V20.0889" stroke="#CCCCCC" stroke-width="0.16875" stroke-miterlimit="10"/>
<path d="M90.3525 44.6825L79.0064 20.0889L67.6636 44.6825L79.0064 69.2762L90.3525 44.6825Z" stroke="#CCCCCC" stroke-width="0.16875" stroke-miterlimit="10"/>
<path d="M67.6636 20.0889L90.3525 36.4857" stroke="#CCCCCC" stroke-width="0.16875" stroke-miterlimit="10"/>
<path d="M67.6636 36.4857L90.3525 20.0889" stroke="#CCCCCC" stroke-width="0.16875" stroke-miterlimit="10"/>
<path d="M67.6636 36.4858L90.3525 52.8795" stroke="#CCCCCC" stroke-width="0.16875" stroke-miterlimit="10"/>
<path d="M67.6636 52.8795L90.3525 36.4858" stroke="#CCCCCC" stroke-width="0.16875" stroke-miterlimit="10"/>
<path d="M67.6636 52.8794L90.3525 69.2762" stroke="#CCCCCC" stroke-width="0.16875" stroke-miterlimit="10"/>
<path d="M67.6636 69.2762L90.3525 52.8794" stroke="#CCCCCC" stroke-width="0.16875" stroke-miterlimit="10"/>
<path d="M98.619 3H49.0952C46.9912 3 45.2856 4.70558 45.2856 6.80952V79.1905C45.2856 81.2944 46.9912 83 49.0952 83H98.619C100.723 83 102.429 81.2944 102.429 79.1905V6.80952C102.429 4.70558 100.723 3 98.619 3Z" fill="#FFF4D7"/>
</g>
<g clip-path="url(#clip10_3_4198)">
<path d="M58.2763 22.7683L56.2763 19.9111C56.2435 19.8638 56.2018 19.8234 56.1535 19.7922C56.1051 19.761 56.0511 19.7397 55.9945 19.7293C55.9379 19.719 55.8798 19.7199 55.8236 19.7321C55.7674 19.7442 55.7141 19.7673 55.6667 19.8L54.454 20.6381C54.3374 20.7187 54.199 20.7618 54.0572 20.7618C53.9155 20.7618 53.777 20.7187 53.6604 20.6381L52.4509 19.8C52.3552 19.7334 52.2371 19.7074 52.1223 19.7276C52.0075 19.7479 51.9053 19.8127 51.8382 19.908L49.8413 22.7683C49.7845 22.8506 49.7573 22.9498 49.7642 23.0495C49.7712 23.1493 49.8118 23.2438 49.8794 23.3175L53.7334 27.5143C53.7743 27.5573 53.8236 27.5916 53.8781 27.615C53.9327 27.6384 53.9915 27.6505 54.0509 27.6505C54.1102 27.6505 54.169 27.6384 54.2236 27.615C54.2782 27.5916 54.3274 27.5573 54.3683 27.5143L58.2382 23.3175C58.3058 23.2438 58.3464 23.1493 58.3534 23.0495C58.3603 22.9498 58.3331 22.8506 58.2763 22.7683Z" fill="#E1306C"/>
<path d="M54.1584 26.5683C54.046 26.5191 53.9395 26.4573 53.841 26.3842L51.0314 23.5651C50.9706 23.514 50.9211 23.4508 50.886 23.3796C50.8508 23.3084 50.8308 23.2306 50.8272 23.1513C50.8237 23.0719 50.8366 22.9927 50.8652 22.9186C50.8938 22.8445 50.9374 22.7771 50.9933 22.7207C51.3489 22.235 51.714 21.7366 52.0791 21.254C52.1491 21.1552 52.2428 21.0756 52.3515 21.0223C52.4603 20.9691 52.5807 20.9441 52.7017 20.9494C52.8227 20.9548 52.9404 20.9904 53.044 21.0531C53.1477 21.1157 53.2339 21.2034 53.2949 21.308C53.4884 21.5287 53.7093 21.724 53.9521 21.889C54.0187 21.9366 54.2124 21.889 54.2949 21.8191C54.6171 21.5651 54.9205 21.2882 55.2029 20.9905C55.4886 20.6731 55.7298 20.7778 55.9298 21.0318C56.3775 21.5969 56.7997 22.1747 57.2156 22.762C57.2508 22.817 57.2732 22.8793 57.2809 22.9442C57.2886 23.009 57.2814 23.0748 57.26 23.1366C57.0276 23.4973 56.7698 23.841 56.4886 24.1651C56.2092 24.4826 55.8917 24.7715 55.5902 25.0699C55.2886 25.3683 54.8981 25.7429 54.5616 26.0858C54.4219 26.2413 54.3013 26.4032 54.1584 26.5683Z" fill="#E1306C"/>
</g>
<path d="M54.6699 16.6509C55.3021 16.798 55.9096 17.0365 56.4731 17.3588C57.0209 17.6867 57.6284 17.9026 58.2604 17.9937L56.7556 19.3715C56.1392 19.1992 55.551 18.9383 55.0096 18.5969C54.3524 18.2032 53.8953 18.0096 53.6381 18.0096C53.4878 18.0108 53.3383 18.0322 53.1937 18.0731C52.9574 18.1398 52.7253 18.2203 52.4985 18.3143L52.0921 17.3366C52.3905 17.2477 52.6858 17.1493 52.9715 17.0382C53.2618 16.9243 53.5458 16.795 53.8223 16.6509C53.3285 16.5761 52.8567 16.3956 52.4392 16.1216C52.0217 15.8477 51.6683 15.4867 51.4032 15.0636C50.759 14.0414 50.4381 12.8487 50.4826 11.6413C50.4826 10.1006 50.8466 8.83075 51.5747 7.8318C51.8765 7.37163 52.2882 6.99394 52.7726 6.73287C53.2571 6.4718 53.7989 6.3356 54.3493 6.33657C54.8925 6.32607 55.4302 6.44703 55.9166 6.68913C56.4031 6.93123 56.8238 7.28731 57.1429 7.72704C57.8604 8.65403 58.2191 9.86355 58.2191 11.3556C58.2654 12.6541 57.9191 13.9364 57.2254 15.035C56.9554 15.4853 56.5836 15.8661 56.1398 16.1467C55.696 16.4274 55.1925 16.6 54.6699 16.6509ZM54.8477 15.581C55.0132 15.5858 55.1763 15.5404 55.3157 15.4509C55.455 15.3614 55.5641 15.232 55.6286 15.0794C55.826 14.5747 55.9115 14.0331 55.8794 13.4921C55.8764 12.6541 55.7989 11.818 55.6477 10.9937C55.5215 10.2277 55.3206 9.47599 55.0477 8.74927C54.9223 8.38991 54.7342 8.05563 54.4921 7.76196C54.4158 7.66597 54.3195 7.58782 54.2098 7.53299C54.1001 7.47815 53.9798 7.44795 53.8572 7.4445C53.6935 7.43879 53.5318 7.48154 53.3923 7.56738C53.2528 7.65322 53.1417 7.77834 53.0731 7.92704C52.8757 8.40297 52.7889 8.91747 52.8191 9.4318C52.8246 10.275 52.9022 11.1161 53.0508 11.9461C53.1815 12.7363 53.3833 13.513 53.654 14.2667C53.7745 14.6311 53.9594 14.9709 54.2 15.2699C54.2791 15.3655 54.3779 15.4429 54.4897 15.4966C54.6015 15.5503 54.7236 15.5791 54.8477 15.581Z" fill="#E1306C"/>
<g clip-path="url(#clip11_3_4198)">
<path d="M57.2603 45.8667C57.2253 45.4032 57.5079 44.7301 57.765 44.0889C59.1301 40.7238 61.1365 38.0032 63.8253 36.0127C64.6253 35.4159 65.5555 35.2857 66.4666 35.0984C67.9142 34.8254 69.2126 35.2921 70.5587 35.8C71.4126 36.1174 72.2698 36.3524 73.0126 36.9778C73.4126 37.3174 73.8253 37.2635 74.2825 37.0635C75.9523 36.3492 77.4571 35.1587 79.1777 34.6127C80.5777 34.1746 81.8571 34.1301 83.2253 35.0667C86.1587 37.0762 88.1523 39.1428 89.8476 42.5555C90.7999 44.1778 89.9079 46.727 89.238 47.927C87.473 51.1016 77.346 58.7524 76.4603 59.5714C75.9047 60.0825 74.3047 66.1079 74.1301 66.8921C74.0444 67.2635 73.8126 67.6095 73.5174 67.6349C73.1111 67.6698 73.1999 67.1651 73.1428 66.8794C72.4984 63.3206 70.9587 60.1555 70.2761 59.454C68.7238 57.8921 58.8476 50.3365 58.1396 48.8381C57.7396 47.9968 57.2857 47.1809 57.2603 45.8667ZM78.092 39.9079C78.092 39.3365 77.8539 38.9809 77.3079 38.9079C77.0501 38.8814 76.7919 38.9554 76.5873 39.1145C76.3827 39.2736 76.2474 39.5055 76.2095 39.7619C76.2015 39.872 76.2166 39.9826 76.2537 40.0867C76.2908 40.1907 76.3491 40.2859 76.4249 40.3662C76.5007 40.4465 76.5924 40.5101 76.6941 40.5531C76.7958 40.5961 76.9054 40.6175 77.0158 40.6159C77.1331 40.6422 77.2545 40.6447 77.3728 40.6231C77.491 40.6016 77.6038 40.5564 77.7042 40.4904C77.8046 40.4243 77.8907 40.3387 77.9574 40.2386C78.024 40.1385 78.0698 40.0261 78.092 39.9079ZM71.4603 40.1206C71.4317 39.6 71.1968 39.2254 70.6285 39.2254C70.5054 39.2168 70.3819 39.2348 70.2664 39.2783C70.1509 39.3218 70.0462 39.3898 69.9594 39.4775C69.8726 39.5652 69.8057 39.6706 69.7634 39.7866C69.7211 39.9025 69.7043 40.0262 69.7142 40.1492C69.7142 40.5809 69.9587 41.1016 70.4634 41.0317C70.9682 40.9619 71.546 40.8857 71.4603 40.1206Z" fill="#FFB000"/>
<path d="M78.0921 39.9079C78.0699 40.026 78.0241 40.1385 77.9575 40.2385C77.8908 40.3386 77.8047 40.4242 77.7043 40.4903C77.6039 40.5564 77.4912 40.6015 77.3729 40.6231C77.2546 40.6446 77.1332 40.6422 77.0159 40.6158C76.9055 40.6174 76.7959 40.596 76.6942 40.5531C76.5925 40.5101 76.5008 40.4464 76.425 40.3661C76.3492 40.2858 76.2909 40.1906 76.2538 40.0866C76.2167 39.9826 76.2016 39.872 76.2096 39.7618C76.2475 39.5054 76.3828 39.2735 76.5874 39.1145C76.7921 38.9554 77.0502 38.8814 77.308 38.9079C77.854 38.9809 78.0921 39.3364 78.0921 39.9079Z" fill="#FFB000"/>
<path d="M71.4605 40.1207C71.5493 40.8858 70.924 40.981 70.4636 41.0286C70.0033 41.0763 69.7208 40.5778 69.7144 40.1461C69.705 40.0233 69.7221 39.9 69.7647 39.7845C69.8072 39.6689 69.8741 39.5639 69.9609 39.4765C70.0476 39.3892 70.1522 39.3215 70.2674 39.2782C70.3827 39.2349 70.5059 39.2169 70.6287 39.2255C71.197 39.2255 71.4319 39.6001 71.4605 40.1207Z" fill="#FFB000"/>
<path d="M60.8603 37.6603C61.3174 35.6794 65.4698 30.9429 67.2984 29.7238C68.7428 28.7714 70.6666 28.7079 72.3364 29.2254C73.7586 29.6578 75.1528 30.1773 76.5111 30.781C76.7003 30.896 76.9145 30.9639 77.1355 30.9788C77.3565 30.9937 77.5779 30.9553 77.7809 30.8667C79.383 30.1753 81.0201 29.5681 82.6857 29.0476C84.0857 28.6127 85.365 28.5683 86.7364 29.5048C89.6666 31.5143 91.6603 33.581 93.3555 37.0032C94.3079 38.6254 93.4158 41.1714 92.746 42.3746C90.9809 45.5492 80.8571 53.2 79.9682 54.0191C79.4126 54.5302 77.8126 60.5556 77.638 61.3397C77.5523 61.7111 77.4666 62.0571 77.1555 62.0825C76.746 62.1175 76.7015 61.6127 76.6507 61.327C75.9904 57.7429 75.092 54.7492 74.3015 53.8286C73.5111 52.9079 63.4126 45.4127 61.8444 42.527C60.7237 40.6254 60.473 39.3365 60.8603 37.6603ZM81.5777 34.3333C81.5777 33.7619 81.3396 33.4064 80.7936 33.3333C80.5361 33.306 80.278 33.3792 80.0733 33.5378C79.8685 33.6964 79.7331 33.928 79.6952 34.1841C79.6873 34.2944 79.7023 34.4052 79.7394 34.5094C79.7764 34.6136 79.8347 34.7089 79.9104 34.7895C79.9862 34.87 80.0779 34.934 80.1796 34.9773C80.2813 35.0207 80.3909 35.0424 80.5015 35.0413C80.6188 35.0672 80.7401 35.0693 80.8582 35.0476C80.9763 35.0258 81.0888 34.9806 81.1891 34.9146C81.2895 34.8486 81.3756 34.7632 81.4423 34.6633C81.509 34.5635 81.5551 34.4513 81.5777 34.3333ZM74.946 34.5429C74.9206 34.0254 74.6825 33.6476 74.1142 33.6476C73.991 33.6385 73.8672 33.6561 73.7515 33.6995C73.6358 33.7428 73.5308 33.8107 73.4439 33.8985C73.357 33.9864 73.2901 34.092 73.248 34.2082C73.2059 34.3244 73.1895 34.4483 73.1999 34.5714C73.1999 35.0032 73.4444 35.5079 73.9523 35.454C74.4031 35.4159 75.038 35.3079 74.946 34.5429Z" fill="#E1306C"/>
<path d="M81.5779 34.3333C81.5553 34.4512 81.5093 34.5634 81.4425 34.6632C81.3758 34.7631 81.2897 34.8485 81.1894 34.9145C81.089 34.9805 80.9765 35.0257 80.8584 35.0475C80.7403 35.0693 80.619 35.0671 80.5018 35.0412C80.3912 35.0424 80.2816 35.0206 80.1798 34.9772C80.0781 34.9339 79.9864 34.8699 79.9107 34.7894C79.8349 34.7089 79.7767 34.6135 79.7396 34.5093C79.7025 34.4051 79.6875 34.2944 79.6954 34.1841C79.7333 33.9279 79.8688 33.6963 80.0735 33.5377C80.2782 33.3792 80.5363 33.3059 80.7938 33.3333C81.3398 33.4063 81.5779 33.7618 81.5779 34.3333Z" fill="white"/>
<path d="M74.9459 34.5429C75.0379 35.3079 74.403 35.4159 73.9522 35.454C73.4443 35.5079 73.2062 35.0032 73.1998 34.5714C73.1894 34.4483 73.2058 34.3244 73.2479 34.2082C73.29 34.092 73.3569 33.9864 73.4438 33.8985C73.5307 33.8107 73.6357 33.7428 73.7514 33.6995C73.8671 33.6561 73.9909 33.6384 74.1141 33.6476C74.6824 33.6476 74.9205 34.0254 74.9459 34.5429Z" fill="white"/>
</g>
<path d="M71.9521 25.3683C71.9521 26.5111 74.2252 27.4381 77.0315 27.4381C79.8379 27.4381 82.1109 26.5111 82.1109 25.3683V23.1461L79.5712 23.0953L77.0315 19.8635L74.4918 23.0984L71.9521 23.1492V25.3683Z" fill="#FFB000"/>
</g>
<g clip-path="url(#clip12_3_4198)" filter="url(#filter3_d_3_4198)">
<g clip-path="url(#clip13_3_4198)">
<path d="M119.691 5.38086H67.3096V80.6189H119.691V5.38086Z" stroke="#CCCCCC" stroke-width="0.1875" stroke-miterlimit="10"/>
<path d="M79.481 5.38086H67.3096V80.6189H79.481V5.38086Z" stroke="#CCCCCC" stroke-width="0.1875" stroke-miterlimit="10"/>
<path d="M79.481 16.4729H67.3096V18.6634H79.481V16.4729Z" stroke="#CCCCCC" stroke-width="0.1875" stroke-miterlimit="10"/>
<path d="M119.691 78.4285H74.7891V80.6189H119.691V78.4285Z" stroke="#CCCCCC" stroke-width="0.1875" stroke-miterlimit="10"/>
<path d="M117.821 14.2825H79.481V78.4285H117.821V14.2825Z" stroke="#CCCCCC" stroke-width="0.1875" stroke-miterlimit="10"/>
<path d="M109.996 20.0889H87.3066V69.2762H109.996V20.0889Z" stroke="#CCCCCC" stroke-width="0.16875" stroke-miterlimit="10"/>
<path d="M87.3066 36.4858H109.996" stroke="#CCCCCC" stroke-width="0.16875" stroke-miterlimit="10"/>
<path d="M87.3066 52.8794H109.996" stroke="#CCCCCC" stroke-width="0.16875" stroke-miterlimit="10"/>
<path d="M87.3066 44.6826H109.996" stroke="#CCCCCC" stroke-width="0.16875" stroke-miterlimit="10"/>
<path d="M98.6494 69.2762V20.0889" stroke="#CCCCCC" stroke-width="0.16875" stroke-miterlimit="10"/>
<path d="M109.996 44.6825L98.6495 20.0889L87.3066 44.6825L98.6495 69.2762L109.996 44.6825Z" stroke="#CCCCCC" stroke-width="0.16875" stroke-miterlimit="10"/>
<path d="M87.3066 20.0889L109.996 36.4857" stroke="#CCCCCC" stroke-width="0.16875" stroke-miterlimit="10"/>
<path d="M87.3066 36.4857L109.996 20.0889" stroke="#CCCCCC" stroke-width="0.16875" stroke-miterlimit="10"/>
<path d="M87.3066 36.4858L109.996 52.8795" stroke="#CCCCCC" stroke-width="0.16875" stroke-miterlimit="10"/>
<path d="M87.3066 52.8795L109.996 36.4858" stroke="#CCCCCC" stroke-width="0.16875" stroke-miterlimit="10"/>
<path d="M87.3066 52.8794L109.996 69.2762" stroke="#CCCCCC" stroke-width="0.16875" stroke-miterlimit="10"/>
<path d="M87.3066 69.2762L109.996 52.8794" stroke="#CCCCCC" stroke-width="0.16875" stroke-miterlimit="10"/>
<path d="M118.262 3H68.7382C66.6343 3 64.9287 4.70558 64.9287 6.80952V79.1905C64.9287 81.2944 66.6343 83 68.7382 83H118.262C120.366 83 122.072 81.2944 122.072 79.1905V6.80952C122.072 4.70558 120.366 3 118.262 3Z" fill="#FFF4D7"/>
</g>
<g clip-path="url(#clip14_3_4198)">
<path d="M73.7196 27.1809H74.8021C74.8572 27.1786 74.911 27.1634 74.9592 27.1365C75.0074 27.1096 75.0485 27.0718 75.0794 27.0261C75.1103 26.9804 75.13 26.9281 75.137 26.8734C75.144 26.8186 75.138 26.7631 75.1196 26.7111L74.3989 24.7079C74.3858 24.6714 74.384 24.6318 74.3937 24.5943C74.4033 24.5567 74.424 24.523 74.4531 24.4973C74.4822 24.4717 74.5183 24.4553 74.5567 24.4504C74.5952 24.4455 74.6342 24.4523 74.6688 24.4698L76.0783 25.1873C76.1769 25.2369 76.2897 25.2508 76.3974 25.2265C76.5052 25.2022 76.6011 25.1412 76.6688 25.0539L78.0339 23.3015C78.1042 23.2075 78.1376 23.0909 78.1276 22.9738C78.1177 22.8568 78.0651 22.7475 77.9799 22.6666L74.0688 19.0698C73.9687 18.9781 73.8379 18.9272 73.7021 18.9272C73.5664 18.9272 73.4355 18.9781 73.3354 19.0698L69.4275 22.6603C69.3421 22.7411 69.2897 22.8508 69.2803 22.968C69.2709 23.0852 69.3053 23.2018 69.3767 23.2952L70.7418 25.0476C70.8086 25.1351 70.9039 25.1963 71.0113 25.2207C71.1186 25.2451 71.2311 25.231 71.3291 25.1809L72.7386 24.4634C72.7732 24.4459 72.8122 24.4392 72.8507 24.4441C72.8891 24.449 72.9252 24.4653 72.9543 24.491C72.9834 24.5166 73.0041 24.5504 73.0137 24.5879C73.0234 24.6255 73.0215 24.665 73.0085 24.7015L72.2878 26.7111C72.2694 26.7631 72.2634 26.8186 72.2704 26.8734C72.2774 26.9281 72.2971 26.9804 72.328 27.0261C72.3588 27.0718 72.4 27.1096 72.4482 27.1365C72.4964 27.1634 72.5502 27.1786 72.6053 27.1809H73.7196Z" fill="#425CE6"/>
</g>
<g clip-path="url(#clip15_3_4198)">
<path d="M103.221 54.9269C101.195 55.0222 99.4111 54.2095 97.6047 53.4571C97.3508 53.3523 97.0682 53.0603 96.827 53.2857C96.5857 53.5111 96.7412 53.8095 96.8079 54.0952C97.0568 55.2411 97.5833 56.3084 98.3412 57.2031C99.0908 58.1375 99.6964 59.1786 100.138 60.292C100.773 61.6984 101.09 62.8889 101.052 64.419C101.052 64.9587 100.576 65.5428 100.1 65.0539C99.9629 64.9279 99.8006 64.8324 99.6238 64.7739C99.447 64.7153 99.2598 64.695 99.0746 64.7142C94.5412 64.7142 94.6301 63.4444 93.646 63.4444C92.6079 63.4444 92.2682 64.5238 88.5666 64.5238C88.2043 64.594 87.853 64.7125 87.5222 64.8762C86.8428 65.2412 86.3984 65.0031 86.4206 64.219C86.4968 61.8031 87.1444 59.5587 88.6428 57.6285C89.2166 56.8107 89.7465 55.963 90.2301 55.0889C90.4187 54.7622 90.5274 54.3956 90.5476 54.019C90.6365 52.9873 90.5984 52.965 89.6301 53.3174L86.1793 54.5968C84.4016 55.2317 82.6873 54.7555 81.0143 54.2127C78.1952 53.292 76.3158 51.3555 75.6174 48.4571C75.4989 47.8854 75.5041 47.295 75.6328 46.7255C75.7615 46.156 76.0106 45.6207 76.3635 45.1555C78.7444 41.7682 81.6841 38.9111 84.9 36.346C86.9158 34.7333 88.9539 33.1523 91.1127 31.7365C93.6174 30.0952 93.6524 30.0571 95.9508 31.6317C99.5348 34.0639 102.947 36.7401 106.163 39.6412C108.096 41.4025 109.789 43.4102 111.198 45.6127C111.833 46.5904 111.833 47.7682 111.608 48.8952C111.186 50.8825 110.173 52.4317 108.316 53.419C106.706 54.273 105.1 55.0317 103.221 54.9269Z" fill="#FFB000"/>
<path d="M104.983 51.2921C102.957 51.3841 101.173 50.5714 99.3669 49.819C99.1129 49.7143 98.8336 49.4254 98.5891 49.6476C98.3447 49.8698 98.5066 50.1714 98.5701 50.4571C98.8216 51.6021 99.3479 52.6688 100.103 53.5651C100.854 54.4993 101.461 55.5404 101.903 56.654C102.538 58.0635 102.856 59.2508 102.818 60.7809C102.818 61.3206 102.338 61.9048 101.865 61.4159C101.728 61.2895 101.566 61.1938 101.389 61.1352C101.212 61.0766 101.025 61.0565 100.84 61.0762C96.3066 61.0762 96.3955 59.8063 95.4114 59.8063C94.3733 59.8063 94.0336 60.8889 90.332 60.8889C89.9703 60.9562 89.6198 61.0737 89.2907 61.2381C88.6082 61.6032 88.1637 61.3651 88.1891 60.5809C88.2622 58.1651 88.9098 55.9206 90.4114 53.9905C90.9848 53.1724 91.5146 52.3247 91.9987 51.4508C92.1866 51.125 92.2953 50.7596 92.3161 50.3841C92.4018 49.3524 92.3669 49.327 91.3987 49.6794C90.2558 50.0952 89.1098 50.5016 87.9637 50.9143C86.186 51.5492 84.4717 51.073 82.7955 50.5302C79.9764 49.6095 78.0971 47.673 77.4145 44.7746C77.3001 44.2123 77.3055 43.6322 77.4302 43.0721C77.5549 42.512 77.7962 41.9844 78.1383 41.5238C80.5066 38.1238 83.4463 35.2889 86.6653 32.7143C88.6812 31.1016 90.7193 29.5206 92.878 28.1175C95.3796 26.4794 95.4177 26.4413 97.7129 28.0159C101.293 30.4432 104.702 33.114 107.916 36.0095C109.852 37.7708 111.549 39.7784 112.964 41.9809C113.599 42.9587 113.599 44.1365 113.373 45.2635C112.951 47.2508 111.935 48.8 110.078 49.7873C108.472 50.6571 106.862 51.4 104.983 51.2921ZM99.0082 32.3968C99.0653 31.8127 98.9129 31.3333 98.1923 31.3048C97.4717 31.2762 97.278 31.7365 97.2622 32.3492C97.2622 32.873 97.3701 33.3841 97.986 33.3651C98.5066 33.3492 99.0749 33.1778 99.0082 32.3968ZM93.1574 32.3048C93.1312 32.1035 93.0386 31.9168 92.8943 31.7742C92.7499 31.6316 92.5621 31.5412 92.3606 31.5175C91.8336 31.454 91.6241 31.8349 91.5891 32.3206C91.5542 32.8063 91.8145 33.2889 92.2812 33.3365C92.678 33.3778 93.1923 33.1968 93.1574 32.3048Z" fill="#425CE6"/>
<path d="M99.0081 32.3968C99.0747 33.1778 98.5065 33.3492 97.9858 33.3651C97.37 33.3841 97.2462 32.873 97.262 32.3492C97.262 31.7365 97.4716 31.273 98.1922 31.3048C98.9128 31.3365 99.0652 31.8127 99.0081 32.3968Z" fill="#FAFAFE"/>
<path d="M93.1573 32.3048C93.1923 33.181 92.6811 33.3778 92.2811 33.3365C91.8145 33.2889 91.551 32.854 91.5891 32.3207C91.6272 31.7873 91.8335 31.454 92.3605 31.5175C92.562 31.5412 92.7499 31.6316 92.8942 31.7742C93.0386 31.9168 93.1312 32.1036 93.1573 32.3048Z" fill="#F9FAFD"/>
</g>
<path d="M74.313 16.6509C74.9452 16.798 75.5526 17.0365 76.1161 17.3588C76.664 17.6867 77.2715 17.9026 77.9034 17.9937L76.3987 19.3715C75.7822 19.1992 75.1941 18.9383 74.6526 18.5969C73.9955 18.2032 73.5384 18.0096 73.2812 18.0096C73.1309 18.0108 72.9814 18.0322 72.8368 18.0731C72.6005 18.1398 72.3683 18.2203 72.1415 18.3143L71.7352 17.3366C72.0336 17.2477 72.3288 17.1493 72.6145 17.0382C72.9049 16.9243 73.1889 16.795 73.4653 16.6509C72.9716 16.5761 72.4998 16.3956 72.0823 16.1216C71.6648 15.8477 71.3114 15.4867 71.0463 15.0636C70.402 14.0414 70.0812 12.8487 70.1257 11.6413C70.1257 10.1006 70.4897 8.83075 71.2177 7.8318C71.5195 7.37163 71.9313 6.99394 72.4157 6.73287C72.9001 6.4718 73.442 6.3356 73.9923 6.33657C74.5356 6.32607 75.0733 6.44703 75.5597 6.68913C76.0461 6.93123 76.4668 7.28731 76.786 7.72704C77.5034 8.65403 77.8622 9.86355 77.8622 11.3556C77.9085 12.6541 77.5622 13.9364 76.8685 15.035C76.5985 15.4853 76.2267 15.8661 75.7828 16.1467C75.339 16.4274 74.8356 16.6 74.313 16.6509ZM74.4907 15.581C74.6563 15.5858 74.8194 15.5404 74.9588 15.4509C75.0981 15.3614 75.2072 15.232 75.2717 15.0794C75.469 14.5747 75.5546 14.0331 75.5225 13.4921C75.5195 12.6541 75.4419 11.818 75.2907 10.9937C75.1646 10.2277 74.9636 9.47599 74.6907 8.74927C74.5654 8.38991 74.3773 8.05563 74.1352 7.76196C74.0589 7.66597 73.9625 7.58782 73.8528 7.53299C73.7432 7.47815 73.6228 7.44795 73.5003 7.4445C73.3366 7.43879 73.1748 7.48154 73.0353 7.56738C72.8958 7.65322 72.7848 7.77834 72.7161 7.92704C72.5188 8.40297 72.4319 8.91747 72.4622 9.4318C72.4677 10.275 72.5452 11.1161 72.6939 11.9461C72.8245 12.7363 73.0264 13.513 73.2971 14.2667C73.4175 14.6311 73.6025 14.9709 73.8431 15.2699C73.9221 15.3655 74.0209 15.4429 74.1328 15.4966C74.2446 15.5503 74.3667 15.5791 74.4907 15.581Z" fill="#425CE6"/>
<path d="M90.3257 23.3905C90.3257 24.5302 92.5987 25.4572 95.405 25.4572C98.2114 25.4572 100.484 24.5302 100.484 23.3905V21.1683L97.9447 21.1175L95.405 17.8857L92.8654 21.1175L90.3257 21.1683V23.3905Z" fill="#FFB000"/>
</g>
<defs>
<filter id="filter0_d_3_4198" x="0.75" y="0.75" width="64.6431" height="87.5" filterUnits="userSpaceOnUse" color-interpolation-filters="sRGB">
<feFlood flood-opacity="0" result="BackgroundImageFix"/>
<feColorMatrix in="SourceAlpha" type="matrix" values="0 0 0 0 0 0 0 0 0 0 0 0 0 0 0 0 0 0 127 0" result="hardAlpha"/>
<feOffset dx="-1.5" dy="1.5"/>
<feGaussianBlur stdDeviation="1.875"/>
<feComposite in2="hardAlpha" operator="out"/>
<feColorMatrix type="matrix" values="0 0 0 0 0 0 0 0 0 0 0 0 0 0 0 0 0 0 0.25 0"/>
<feBlend mode="normal" in2="BackgroundImageFix" result="effect1_dropShadow_3_4198"/>
<feBlend mode="normal" in="SourceGraphic" in2="effect1_dropShadow_3_4198" result="shape"/>
</filter>
<filter id="filter1_d_3_4198" x="20.3931" y="0.75" width="64.6431" height="87.5" filterUnits="userSpaceOnUse" color-interpolation-filters="sRGB">
<feFlood flood-opacity="0" result="BackgroundImageFix"/>
<feColorMatrix in="SourceAlpha" type="matrix" values="0 0 0 0 0 0 0 0 0 0 0 0 0 0 0 0 0 0 127 0" result="hardAlpha"/>
<feOffset dx="-1.5" dy="1.5"/>
<feGaussianBlur stdDeviation="1.875"/>
<feComposite in2="hardAlpha" operator="out"/>
<feColorMatrix type="matrix" values="0 0 0 0 0 0 0 0 0 0 0 0 0 0 0 0 0 0 0.25 0"/>
<feBlend mode="normal" in2="BackgroundImageFix" result="effect1_dropShadow_3_4198"/>
<feBlend mode="normal" in="SourceGraphic" in2="effect1_dropShadow_3_4198" result="shape"/>
</filter>
<filter id="filter2_d_3_4198" x="40.0356" y="0.75" width="64.6431" height="87.5" filterUnits="userSpaceOnUse" color-interpolation-filters="sRGB">
<feFlood flood-opacity="0" result="BackgroundImageFix"/>
<feColorMatrix in="SourceAlpha" type="matrix" values="0 0 0 0 0 0 0 0 0 0 0 0 0 0 0 0 0 0 127 0" result="hardAlpha"/>
<feOffset dx="-1.5" dy="1.5"/>
<feGaussianBlur stdDeviation="1.875"/>
<feComposite in2="hardAlpha" operator="out"/>
<feColorMatrix type="matrix" values="0 0 0 0 0 0 0 0 0 0 0 0 0 0 0 0 0 0 0.25 0"/>
<feBlend mode="normal" in2="BackgroundImageFix" result="effect1_dropShadow_3_4198"/>
<feBlend mode="normal" in="SourceGraphic" in2="effect1_dropShadow_3_4198" result="shape"/>
</filter>
<filter id="filter3_d_3_4198" x="59.6787" y="0.75" width="64.6431" height="87.5" filterUnits="userSpaceOnUse" color-interpolation-filters="sRGB">
<feFlood flood-opacity="0" result="BackgroundImageFix"/>
<feColorMatrix in="SourceAlpha" type="matrix" values="0 0 0 0 0 0 0 0 0 0 0 0 0 0 0 0 0 0 127 0" result="hardAlpha"/>
<feOffset dx="-1.5" dy="1.5"/>
<feGaussianBlur stdDeviation="1.875"/>
<feComposite in2="hardAlpha" operator="out"/>
<feColorMatrix type="matrix" values="0 0 0 0 0 0 0 0 0 0 0 0 0 0 0 0 0 0 0.25 0"/>
<feBlend mode="normal" in2="BackgroundImageFix" result="effect1_dropShadow_3_4198"/>
<feBlend mode="normal" in="SourceGraphic" in2="effect1_dropShadow_3_4198" result="shape"/>
</filter>
<clipPath id="clip0_3_4198">
<rect width="57.1429" height="80" fill="white" transform="translate(6 3)"/>
</clipPath>
<clipPath id="clip1_3_4198">
<rect width="57.1429" height="80" fill="white" transform="translate(6 3)"/>
</clipPath>
<clipPath id="clip2_3_4198">
<rect width="8.83492" height="8.57143" fill="white" transform="translate(10.3555 18.7683)"/>
</clipPath>
<clipPath id="clip3_3_4198">
<rect width="38.2921" height="38.0952" fill="white" transform="translate(17.3174 27.9746)"/>
</clipPath>
<clipPath id="clip4_3_4198">
<rect width="57.1429" height="80" fill="white" transform="translate(25.6431 3)"/>
</clipPath>
<clipPath id="clip5_3_4198">
<rect width="57.1429" height="80" fill="white" transform="translate(25.6431 3)"/>
</clipPath>
<clipPath id="clip6_3_4198">
<rect width="8.0254" height="8.25397" fill="white" transform="translate(30.4019 18.927)"/>
</clipPath>
<clipPath id="clip7_3_4198">
<rect width="39.3302" height="41.2698" fill="white" transform="translate(36.1226 28.6477)"/>
</clipPath>
<clipPath id="clip8_3_4198">
<rect width="57.1429" height="80" fill="white" transform="translate(45.2856 3)"/>
</clipPath>
<clipPath id="clip9_3_4198">
<rect width="57.1429" height="80" fill="white" transform="translate(45.2856 3)"/>
</clipPath>
<clipPath id="clip10_3_4198">
<rect width="8.59365" height="7.93651" fill="white" transform="translate(49.7617 19.7207)"/>
</clipPath>
<clipPath id="clip11_3_4198">
<rect width="36.5079" height="38.9016" fill="white" transform="translate(57.2603 28.7493)"/>
</clipPath>
<clipPath id="clip12_3_4198">
<rect width="57.1429" height="80" fill="white" transform="translate(64.9287 3)"/>
</clipPath>
<clipPath id="clip13_3_4198">
<rect width="57.1429" height="80" fill="white" transform="translate(64.9287 3)"/>
</clipPath>
<clipPath id="clip14_3_4198">
<rect width="8.85397" height="8.25397" fill="white" transform="translate(69.2749 18.927)"/>
</clipPath>
<clipPath id="clip15_3_4198">
<rect width="37.9778" height="38.4032" fill="white" transform="translate(75.5352 26.8477)"/>
</clipPath>
</defs>
</svg>
