<svg width="125" height="89" viewBox="0 0 125 89" fill="none" xmlns="http://www.w3.org/2000/svg">
<g clip-path="url(#clip0_3_4188)" filter="url(#filter0_d_3_4188)">
<g clip-path="url(#clip1_3_4188)">
<path d="M60.7618 5.38086H8.38086V80.6189H60.7618V5.38086Z" stroke="#CCCCCC" stroke-width="0.1875" stroke-miterlimit="10"/>
<path d="M20.5523 5.38086H8.38086V80.6189H20.5523V5.38086Z" stroke="#CCCCCC" stroke-width="0.1875" stroke-miterlimit="10"/>
<path d="M20.5523 16.4729H8.38086V18.6634H20.5523V16.4729Z" stroke="#CCCCCC" stroke-width="0.1875" stroke-miterlimit="10"/>
<path d="M60.7619 78.4285H15.8604V80.6189H60.7619V78.4285Z" stroke="#CCCCCC" stroke-width="0.1875" stroke-miterlimit="10"/>
<path d="M58.8919 14.2825H20.5522V78.4285H58.8919V14.2825Z" stroke="#CCCCCC" stroke-width="0.1875" stroke-miterlimit="10"/>
<path d="M51.0668 20.0889H28.3779V69.2762H51.0668V20.0889Z" stroke="#CCCCCC" stroke-width="0.16875" stroke-miterlimit="10"/>
<path d="M28.3779 36.4858H51.0668" stroke="#CCCCCC" stroke-width="0.16875" stroke-miterlimit="10"/>
<path d="M28.3779 52.8794H51.0668" stroke="#CCCCCC" stroke-width="0.16875" stroke-miterlimit="10"/>
<path d="M28.3779 44.6826H51.0668" stroke="#CCCCCC" stroke-width="0.16875" stroke-miterlimit="10"/>
<path d="M39.7207 69.2762V20.0889" stroke="#CCCCCC" stroke-width="0.16875" stroke-miterlimit="10"/>
<path d="M51.0668 44.6825L39.7208 20.0889L28.3779 44.6825L39.7208 69.2762L51.0668 44.6825Z" stroke="#CCCCCC" stroke-width="0.16875" stroke-miterlimit="10"/>
<path d="M28.3779 20.0889L51.0668 36.4857" stroke="#CCCCCC" stroke-width="0.16875" stroke-miterlimit="10"/>
<path d="M28.3779 36.4857L51.0668 20.0889" stroke="#CCCCCC" stroke-width="0.16875" stroke-miterlimit="10"/>
<path d="M28.3779 36.4858L51.0668 52.8795" stroke="#CCCCCC" stroke-width="0.16875" stroke-miterlimit="10"/>
<path d="M28.3779 52.8795L51.0668 36.4858" stroke="#CCCCCC" stroke-width="0.16875" stroke-miterlimit="10"/>
<path d="M28.3779 52.8794L51.0668 69.2762" stroke="#CCCCCC" stroke-width="0.16875" stroke-miterlimit="10"/>
<path d="M28.3779 69.2762L51.0668 52.8794" stroke="#CCCCCC" stroke-width="0.16875" stroke-miterlimit="10"/>
<path d="M59.3333 3H9.80952C7.70558 3 6 4.70558 6 6.80952V79.1905C6 81.2944 7.70558 83 9.80952 83H59.3333C61.4373 83 63.1429 81.2944 63.1429 79.1905V6.80952C63.1429 4.70558 61.4373 3 59.3333 3Z" fill="#FFF4D7"/>
</g>
<path d="M11.5366 16.4731V15.3588H12.0319V7.65091H11.5239V6.52393H14.8192V7.65091H14.3112V10.6604L16.5335 7.65091H15.9747V6.52393H18.4541V7.65091H17.8985L16.3366 9.68266L18.5334 15.3588H19.0382V16.4731H16.4985L14.762 11.7747L14.3112 12.4096V15.3684H14.8192V16.4827L11.5366 16.4731Z" fill="#425CE6"/>
<g clip-path="url(#clip2_3_4188)">
<path d="M32.7272 54.362C31.2863 55.4335 29.7702 56.4 28.1907 57.2541C27.4672 57.6418 26.7054 57.9535 25.9177 58.1842C25.2224 58.3779 24.4415 58.4477 23.7843 57.9842C21.1812 56.1493 18.9082 54.0064 17.4097 51.1493C17.3086 50.9802 17.257 50.786 17.261 50.589C17.2649 50.3919 17.3241 50.2 17.432 50.035C18.7576 47.6342 20.6012 45.5586 22.8288 43.9588C24.0764 43.0699 25.6859 43.1207 27.0193 43.9588C28.7843 45.0223 30.6605 45.9271 32.3399 47.1556C32.73 47.3949 33.0671 47.7114 33.3304 48.0858C33.2193 46.3525 33.4447 44.8445 31.8986 43.7525C30.6766 42.902 29.7184 41.7249 29.1335 40.3556C28.9121 39.8803 28.8061 39.3593 28.8243 38.8351C28.8425 38.311 28.9844 37.7986 29.2383 37.3398C30.4542 35.0318 32.2732 33.2953 34.3748 31.8541C34.7595 31.6056 35.2099 31.4782 35.6677 31.4884C36.1256 31.4985 36.5698 31.6458 36.9431 31.9112C38.9796 33.2359 40.6744 35.0231 41.8891 37.1271C42.6193 38.4445 42.4986 39.689 41.8097 40.9366C41.1476 42.1033 40.2464 43.117 39.1653 43.9112C38.6415 44.308 38.2447 44.7112 38.1812 45.4001C38.1177 46.089 37.7462 46.6287 37.7653 47.3048C37.7653 47.4668 37.6923 47.6699 37.8637 47.7715C38.0351 47.8731 38.1812 47.7048 38.3018 47.6033C40.1812 46.1652 42.2764 45.0636 44.3335 43.9144C45.8097 43.0953 47.4828 43.0763 48.8605 44.2318C50.7621 45.8541 52.4986 47.6572 53.7335 49.8795C53.8679 50.0762 53.9442 50.3067 53.9537 50.5447C53.9633 50.7827 53.9057 51.0186 53.7875 51.2255C52.6986 53.3779 51.0129 55.0096 49.2732 56.6033C48.8955 56.9493 48.4891 57.2636 48.0859 57.5779C46.9653 58.4445 45.7526 58.5017 44.4923 57.9334C42.5303 57.0926 40.6939 55.9848 39.0351 54.6414C38.8478 54.4826 38.6097 54.2064 38.3716 54.3652C38.1335 54.5239 38.1082 57.4668 38.4193 58.1429C39.8002 60.0826 42.8891 61.362 42.8891 65.2699C42.8669 65.9334 42.797 66.1715 42.0129 65.9525C41.0249 65.6921 40.0091 65.5514 38.9875 65.5334C37.6828 65.4921 36.7653 65.5334 36.0828 64.508C35.7399 64.0096 35.5462 63.8445 35.1748 64.4795C34.1145 66.2921 32.2447 65.5588 30.5082 65.7493C30.0251 65.7548 29.5457 65.8329 29.0859 65.981C28.4828 66.235 28.2193 66.0414 28.1716 65.3461C28.0796 64.0763 28.578 62.9525 29.0701 61.8541C29.6415 60.5842 31.2923 59.3683 32.1907 58.2763C33.0891 57.1842 32.7018 55.8858 32.7272 54.362ZM37.6161 36.2668C37.7273 36.277 37.8394 36.2619 37.944 36.2226C38.0486 36.1833 38.1429 36.1209 38.2199 36.0399C38.2968 35.959 38.3545 35.8616 38.3885 35.7552C38.4225 35.6488 38.4319 35.5361 38.4161 35.4255C38.3843 34.8795 38.0193 34.6318 37.4891 34.6541C37.3816 34.6466 37.2737 34.6627 37.1731 34.7012C37.0724 34.7398 36.9814 34.7999 36.9064 34.8773C36.8314 34.9547 36.7743 35.0476 36.7389 35.1494C36.7036 35.2512 36.6909 35.3595 36.7018 35.4668C36.6955 36.0255 37.0288 36.2572 37.6161 36.2509V36.2668ZM32.7748 35.708C32.7748 36.0033 33.0923 36.2858 33.5653 36.2858C33.6735 36.298 33.7831 36.2846 33.8852 36.2469C33.9874 36.2092 34.0793 36.1481 34.1536 36.0685C34.228 35.9889 34.2826 35.8931 34.3133 35.7886C34.344 35.6841 34.3499 35.5739 34.3304 35.4668C34.3337 35.3518 34.312 35.2374 34.2667 35.1317C34.2215 35.0259 34.1538 34.9313 34.0683 34.8543C33.9829 34.7773 33.8817 34.7198 33.7718 34.6858C33.6619 34.6517 33.546 34.642 33.432 34.6572C32.9272 34.6858 32.7685 35.0191 32.7748 35.708Z" fill="#FFB000"/>
<path d="M37.616 36.2507C37.0287 36.2507 36.6954 36.0253 36.7017 35.4507C36.6913 35.3437 36.7043 35.2358 36.7399 35.1343C36.7755 35.0329 36.8327 34.9404 36.9077 34.8634C36.9826 34.7863 37.0734 34.7265 37.1738 34.6882C37.2742 34.6498 37.3818 34.6337 37.489 34.6412C38.0192 34.6189 38.3843 34.8666 38.416 35.4126C38.4313 35.5229 38.4214 35.6353 38.3872 35.7413C38.353 35.8473 38.2953 35.9442 38.2184 36.0248C38.1415 36.1054 38.0473 36.1676 37.943 36.2067C37.8387 36.2458 37.7269 36.2608 37.616 36.2507Z" fill="#FFB000"/>
<path d="M32.7744 35.7079C32.7744 35.019 32.9268 34.6857 33.4316 34.6571C33.5456 34.6419 33.6615 34.6516 33.7714 34.6857C33.8813 34.7197 33.9825 34.7772 34.0679 34.8542C34.1534 34.9312 34.2211 35.0258 34.2663 35.1316C34.3116 35.2374 34.3333 35.3517 34.33 35.4667C34.3495 35.5738 34.3436 35.684 34.3129 35.7885C34.2822 35.893 34.2275 35.9888 34.1532 36.0684C34.0789 36.148 33.987 36.2091 33.8848 36.2468C33.7827 36.2845 33.6731 36.2979 33.5649 36.2857C33.0855 36.2857 32.7744 36.0032 32.7744 35.7079Z" fill="#FFB000"/>
<path d="M34.324 50.8603C32.883 51.9307 31.367 52.8961 29.7875 53.7492C29.0652 54.1403 28.3032 54.4532 27.5145 54.6825C26.8193 54.873 26.0383 54.9428 25.3812 54.4825C22.778 52.6476 20.505 50.5142 19.0066 47.6317C18.9053 47.4632 18.8537 47.2695 18.8576 47.073C18.8616 46.8764 18.9209 46.6849 19.0288 46.5206C20.3546 44.1199 22.1982 42.0443 24.4256 40.4444C25.6732 39.5555 27.2828 39.6063 28.6161 40.4444C30.3843 41.5301 32.2605 42.4349 33.9399 43.6635C34.3293 43.905 34.6661 44.2224 34.9304 44.5968C34.8193 42.8603 35.0447 41.3523 33.4986 40.2603C32.2747 39.4063 31.3163 38.2246 30.7336 36.8508C30.5131 36.3751 30.4077 35.8543 30.4259 35.3303C30.4441 34.8064 30.5854 34.2941 30.8383 33.8349C32.051 31.5174 33.8701 29.7777 35.9907 28.3365C36.3774 28.09 36.8292 27.9652 37.2876 27.9782C37.746 27.9912 38.19 28.1415 38.5621 28.4095C40.5913 29.736 42.2784 31.5232 43.4859 33.6254C44.2193 34.9396 44.0955 36.1873 43.4066 37.4349C42.7413 38.6014 41.8369 39.614 40.7526 40.4063C40.2288 40.8031 39.8351 41.2095 39.7685 41.8984C39.7018 42.5873 39.3367 43.1238 39.3526 43.8031C39.3526 43.9619 39.2796 44.1682 39.451 44.2698C39.6224 44.3714 39.7685 44.2031 39.8891 44.1015C41.7685 42.6603 43.8637 41.5619 45.9209 40.4127C47.397 39.5936 49.0701 39.5746 50.4478 40.7301C52.3589 42.3523 54.0859 44.165 55.3304 46.3873C55.4647 46.584 55.541 46.8145 55.5506 47.0525C55.5601 47.2906 55.5025 47.5265 55.3843 47.7333C54.2955 49.8857 52.6097 51.5206 50.8701 53.1143C50.4923 53.4603 50.0859 53.7714 49.6828 54.0857C48.5621 54.9587 47.3494 55.0031 46.0891 54.4349C44.129 53.5931 42.293 52.4876 40.632 51.1492C40.4447 50.9904 40.2066 50.7142 39.9685 50.8698C39.7304 51.0254 39.7082 53.9714 40.0161 54.6476C41.3875 56.5777 44.4859 57.8571 44.4859 61.765C44.4637 62.4254 44.3939 62.6666 43.6097 62.4444C42.6214 62.1854 41.6058 62.0447 40.5843 62.0254C39.2796 61.9841 38.3621 62.0095 37.6796 61.0031C37.3399 60.5016 37.1431 60.3396 36.7716 60.9746C35.7113 62.7873 33.8447 62.0508 32.105 62.2444C31.6217 62.2467 31.1418 62.3249 30.6828 62.4762C30.0796 62.7301 29.8161 62.5365 29.7685 61.8412C29.6764 60.5714 30.1748 59.4508 30.6669 58.3492C31.2383 57.0793 32.8891 55.8635 33.7875 54.7714C34.6859 53.6793 34.2986 52.3809 34.324 50.8603ZM39.2129 32.7365C39.7082 32.7142 40.0478 32.4571 40.0129 31.8984C39.978 31.3396 39.6193 31.1142 39.0859 31.1492C38.9787 31.1417 38.8711 31.1578 38.7707 31.1962C38.6703 31.2345 38.5795 31.2943 38.5046 31.3714C38.4296 31.4484 38.3724 31.5409 38.3368 31.6423C38.3013 31.7438 38.2882 31.8517 38.2986 31.9587C38.2923 32.5238 38.6256 32.7555 39.2129 32.7365ZM34.3716 32.2031C34.3716 32.5015 34.6891 32.7809 35.1621 32.7809C35.2703 32.7931 35.3799 32.7797 35.482 32.742C35.5842 32.7043 35.6761 32.6432 35.7504 32.5636C35.8248 32.484 35.8795 32.3882 35.9102 32.2837C35.9409 32.1792 35.9467 32.069 35.9272 31.9619C35.9319 31.8472 35.9114 31.733 35.8673 31.6271C35.8232 31.5212 35.7565 31.4262 35.6718 31.3488C35.5871 31.2713 35.4866 31.2134 35.3771 31.1789C35.2677 31.1444 35.1521 31.1343 35.0383 31.1492C34.524 31.1841 34.3653 31.5174 34.3716 32.2031Z" fill="#425CE6"/>
<path d="M39.2128 32.7364C38.6255 32.7364 38.2922 32.5142 38.2985 31.9364C38.2915 31.8312 38.307 31.7257 38.3441 31.627C38.3812 31.5283 38.439 31.4387 38.5135 31.3641C38.5881 31.2896 38.6777 31.2318 38.7764 31.1947C38.8751 31.1576 38.9806 31.1421 39.0858 31.1491C39.6192 31.1269 39.9811 31.3713 40.0128 31.9205C40.0445 32.4697 39.708 32.7364 39.2128 32.7364Z" fill="#F8F9FD"/>
<path d="M34.3716 32.203C34.3716 31.5173 34.524 31.184 35.0287 31.1554C35.1427 31.1391 35.2588 31.148 35.3689 31.1814C35.4791 31.2148 35.5805 31.272 35.6662 31.3488C35.7518 31.4257 35.8196 31.5204 35.8647 31.6263C35.9098 31.7322 35.9311 31.8467 35.9271 31.9618C35.9466 32.0689 35.9408 32.1791 35.9101 32.2836C35.8794 32.3881 35.8247 32.4839 35.7504 32.5635C35.676 32.6431 35.5841 32.7042 35.482 32.7419C35.3798 32.7796 35.2703 32.793 35.1621 32.7808C34.6827 32.7808 34.3716 32.5014 34.3716 32.203Z" fill="#F8F9FD"/>
</g>
<g clip-path="url(#clip3_3_4188)">
<path d="M19.0381 22.0382L17.9461 20.5588C17.8505 20.4701 17.7274 20.417 17.5974 20.4084C17.4673 20.3997 17.3382 20.436 17.2318 20.5112L15.3048 21.781C15.2939 21.7877 15.2814 21.7914 15.2686 21.7917C15.2558 21.7921 15.2431 21.789 15.2318 21.7829C15.2206 21.7768 15.2111 21.7678 15.2044 21.7569C15.1977 21.746 15.194 21.7335 15.1937 21.7207V21.327C15.1927 21.2669 15.205 21.2072 15.2297 21.1524C15.2544 21.0975 15.2909 21.0488 15.3365 21.0096L16.7048 19.9397C16.7413 19.9073 16.7706 19.8674 16.7906 19.8228C16.8107 19.7782 16.821 19.7299 16.821 19.681C16.821 19.6321 16.8107 19.5838 16.7906 19.5392C16.7706 19.4946 16.7413 19.4547 16.7048 19.4223L15.1397 17.6413C15.0396 17.5496 14.9088 17.4988 14.773 17.4988C14.6373 17.4988 14.5065 17.5496 14.4064 17.6413L12.8349 19.4223C12.7988 19.455 12.77 19.4949 12.7502 19.5395C12.7305 19.5841 12.7203 19.6323 12.7203 19.681C12.7203 19.7297 12.7305 19.778 12.7502 19.8225C12.77 19.8671 12.7988 19.907 12.8349 19.9397L14.2064 21.0159C14.251 21.0558 14.2865 21.1048 14.3106 21.1595C14.3347 21.2143 14.3468 21.2736 14.3461 21.3334V21.7239C14.3457 21.7367 14.342 21.7492 14.3353 21.7601C14.3286 21.771 14.3192 21.78 14.3079 21.7861C14.2966 21.7922 14.284 21.7952 14.2712 21.7949C14.2584 21.7946 14.2459 21.7909 14.2349 21.7842L12.308 20.5143C12.202 20.4394 12.0735 20.4032 11.944 20.4119C11.8145 20.4206 11.6919 20.4736 11.5969 20.562L10.508 22.0382C10.4221 22.1186 10.3691 22.228 10.3591 22.3453C10.3492 22.4625 10.383 22.5793 10.454 22.6731L11.5905 24.1651C11.6577 24.2521 11.753 24.313 11.8602 24.3373C11.9674 24.3617 12.0797 24.3479 12.1778 24.2985L13.9207 23.3747C13.9552 23.3571 13.9943 23.3504 14.0327 23.3553C14.0712 23.3602 14.1073 23.3765 14.1363 23.4022C14.1654 23.4278 14.1861 23.4616 14.1958 23.4991C14.2054 23.5367 14.2036 23.5763 14.1905 23.6128L13.3619 25.6001C13.3435 25.652 13.3375 25.7076 13.3445 25.7624C13.3515 25.8171 13.3712 25.8694 13.4021 25.9151C13.433 25.9608 13.4741 25.9986 13.5223 26.0255C13.5705 26.0524 13.6243 26.0676 13.6794 26.0699H15.8413C15.8964 26.0676 15.9502 26.0524 15.9984 26.0255C16.0466 25.9986 16.0877 25.9608 16.1186 25.9151C16.1495 25.8694 16.1692 25.8171 16.1762 25.7624C16.1832 25.7076 16.1772 25.652 16.1588 25.6001L15.327 23.6032C15.3139 23.5667 15.3121 23.5272 15.3217 23.4896C15.3314 23.4521 15.3521 23.4183 15.3812 23.3927C15.4102 23.367 15.4463 23.3507 15.4848 23.3458C15.5232 23.3409 15.5623 23.3476 15.5969 23.3651L17.4096 24.2889C17.5086 24.3468 17.6255 24.3662 17.7379 24.3434C17.8504 24.3205 17.9505 24.2571 18.0191 24.1651L19.0889 22.6858C19.1655 22.5921 19.2029 22.4724 19.1935 22.3518C19.184 22.2311 19.1284 22.1188 19.0381 22.0382Z" fill="#425CE6"/>
</g>
<path d="M30.7236 23.927C30.7236 25.3619 33.5808 26.527 37.1109 26.527C40.6411 26.527 43.4982 25.3619 43.4982 23.927V18.746L40.3046 21.0698L37.1109 17.0032L33.9173 21.0698L30.7236 18.746V23.927Z" fill="#FFB000"/>
</g>
<g clip-path="url(#clip4_3_4188)" filter="url(#filter1_d_3_4188)">
<g clip-path="url(#clip5_3_4188)">
<path d="M80.4049 5.38086H28.0239V80.6189H80.4049V5.38086Z" stroke="#CCCCCC" stroke-width="0.1875" stroke-miterlimit="10"/>
<path d="M40.1954 5.38086H28.0239V80.6189H40.1954V5.38086Z" stroke="#CCCCCC" stroke-width="0.1875" stroke-miterlimit="10"/>
<path d="M40.1954 16.4729H28.0239V18.6634H40.1954V16.4729Z" stroke="#CCCCCC" stroke-width="0.1875" stroke-miterlimit="10"/>
<path d="M80.405 78.4285H35.5034V80.6189H80.405V78.4285Z" stroke="#CCCCCC" stroke-width="0.1875" stroke-miterlimit="10"/>
<path d="M78.535 14.2825H40.1953V78.4285H78.535V14.2825Z" stroke="#CCCCCC" stroke-width="0.1875" stroke-miterlimit="10"/>
<path d="M70.7099 20.0889H48.021V69.2762H70.7099V20.0889Z" stroke="#CCCCCC" stroke-width="0.16875" stroke-miterlimit="10"/>
<path d="M48.021 36.4858H70.7099" stroke="#CCCCCC" stroke-width="0.16875" stroke-miterlimit="10"/>
<path d="M48.021 52.8794H70.7099" stroke="#CCCCCC" stroke-width="0.16875" stroke-miterlimit="10"/>
<path d="M48.021 44.6826H70.7099" stroke="#CCCCCC" stroke-width="0.16875" stroke-miterlimit="10"/>
<path d="M59.3638 69.2762V20.0889" stroke="#CCCCCC" stroke-width="0.16875" stroke-miterlimit="10"/>
<path d="M70.7099 44.6825L59.3639 20.0889L48.021 44.6825L59.3639 69.2762L70.7099 44.6825Z" stroke="#CCCCCC" stroke-width="0.16875" stroke-miterlimit="10"/>
<path d="M48.021 20.0889L70.7099 36.4857" stroke="#CCCCCC" stroke-width="0.16875" stroke-miterlimit="10"/>
<path d="M48.021 36.4857L70.7099 20.0889" stroke="#CCCCCC" stroke-width="0.16875" stroke-miterlimit="10"/>
<path d="M48.021 36.4858L70.7099 52.8795" stroke="#CCCCCC" stroke-width="0.16875" stroke-miterlimit="10"/>
<path d="M48.021 52.8795L70.7099 36.4858" stroke="#CCCCCC" stroke-width="0.16875" stroke-miterlimit="10"/>
<path d="M48.021 52.8794L70.7099 69.2762" stroke="#CCCCCC" stroke-width="0.16875" stroke-miterlimit="10"/>
<path d="M48.021 69.2762L70.7099 52.8794" stroke="#CCCCCC" stroke-width="0.16875" stroke-miterlimit="10"/>
<path d="M78.9764 3H29.4526C27.3486 3 25.6431 4.70558 25.6431 6.80952V79.1905C25.6431 81.2944 27.3486 83 29.4526 83H78.9764C81.0803 83 82.7859 81.2944 82.7859 79.1905V6.80952C82.7859 4.70558 81.0803 3 78.9764 3Z" fill="#FFF4D7"/>
</g>
<g clip-path="url(#clip6_3_4188)">
<path d="M34.6528 25.8193L38.021 22.6892C38.1445 22.575 38.2431 22.4366 38.3105 22.2825C38.3779 22.1284 38.4127 21.9621 38.4127 21.7939C38.4127 21.6258 38.3779 21.4594 38.3105 21.3053C38.2431 21.1513 38.1445 21.0128 38.021 20.8987L34.6528 17.7527C34.5885 17.6917 34.5033 17.6577 34.4147 17.6577C34.3261 17.6577 34.2409 17.6917 34.1766 17.7527L30.7925 20.8987C30.6694 21.0131 30.5712 21.1516 30.5041 21.3056C30.437 21.4597 30.4023 21.6259 30.4023 21.7939C30.4023 21.9619 30.437 22.1282 30.5041 22.2822C30.5712 22.4362 30.6694 22.5748 30.7925 22.6892L34.1766 25.8193C34.2416 25.8789 34.3265 25.9119 34.4147 25.9119C34.5029 25.9119 34.5878 25.8789 34.6528 25.8193Z" fill="#E1306C"/>
<path d="M34.475 24.8922C33.767 24.1335 33.0876 23.4033 32.4051 22.67C32.2654 22.5208 32.1194 22.3779 31.9734 22.2382C31.8299 22.0644 31.7551 21.8439 31.7633 21.6187C31.7715 21.3934 31.8621 21.179 32.0178 21.016C32.7257 20.289 33.44 19.562 34.148 18.8223C34.1764 18.7764 34.2162 18.7385 34.2634 18.7122C34.3106 18.6859 34.3638 18.6721 34.4178 18.6721C34.4719 18.6721 34.525 18.6859 34.5722 18.7122C34.6195 18.7385 34.6592 18.7764 34.6876 18.8223C35.421 19.6477 36.1638 20.47 36.8813 21.3081C37.1988 21.6731 37.0908 21.997 36.7289 22.3811C36.094 23.0541 35.5003 23.762 34.8845 24.4541C34.767 24.5938 34.64 24.7208 34.475 24.8922Z" fill="#E1306C"/>
</g>
<path d="M31.1797 16.4731V15.3588H31.6749V7.65091H31.167V6.52393H34.4622V7.65091H33.9543V10.6604L36.1765 7.65091H35.6178V6.52393H38.0972V7.65091H37.5416L35.9797 9.68266L38.1765 15.3588H38.6813V16.4731H36.1416L34.4051 11.7715L33.9543 12.4065V15.3652H34.4622V16.4795L31.1797 16.4731Z" fill="#E1306C"/>
<g clip-path="url(#clip7_3_4188)">
<path d="M55.5636 69.5999C54.735 69.6888 54.316 69.0761 53.8398 68.5047C51.789 66.0412 50.5985 63.0761 49.0779 60.3142C48.8596 59.8873 48.5537 59.5114 48.18 59.2111C47.8063 58.9107 47.3734 58.6927 46.9097 58.5713C44.0874 57.7396 41.443 56.4158 38.6049 55.6697C38.1495 55.5372 37.7282 55.3076 37.37 54.9967C37.0565 54.7747 36.8311 54.4496 36.733 54.0782C36.6349 53.7068 36.6705 53.3128 36.8335 52.965C37.2652 51.8666 38.0525 51.038 38.8843 50.2348C41.1669 48.113 43.8107 46.4164 46.6906 45.2253C47.9192 44.6951 48.5319 43.9015 48.9128 42.6539C49.789 39.8094 51.0525 37.1364 53.189 34.9967C54.7223 33.438 56.4271 33.4412 57.9509 34.9967C60.0843 37.1523 61.3414 39.8253 62.2208 42.6697C62.5922 43.8729 63.1731 44.6634 64.3731 45.2094C67.6906 46.6761 70.7827 48.5269 73.2239 51.292C75.1985 53.5142 74.8462 55.0253 72.0112 55.8412C69.2811 56.6158 66.7255 57.9015 63.9827 58.6539C63.5774 58.7724 63.2017 58.975 62.8801 59.2485C62.5584 59.522 62.2981 59.8602 62.116 60.2412C60.5636 63.0253 59.3573 66.0126 57.3065 68.511C56.6366 69.3173 56.335 69.5808 55.5636 69.5999ZM53.9763 39.0443C53.8779 38.7269 53.7636 38.3872 53.3414 38.365C52.9192 38.3427 52.5954 38.4888 52.5763 38.9999C52.5573 39.4158 52.6684 39.7777 53.1414 39.8221C53.6144 39.8666 53.8239 39.4729 53.9763 39.0348V39.0443ZM57.7128 39.6793C58.1827 39.6793 58.3954 39.438 58.3954 38.9681C58.3954 38.4983 58.1922 38.2697 57.7795 38.292C57.5855 38.2977 57.4011 38.3782 57.2651 38.5166C57.129 38.655 57.0517 38.8407 57.0493 39.0348C57.0418 39.1223 57.0541 39.2104 57.0853 39.2925C57.1165 39.3746 57.1658 39.4486 57.2296 39.509C57.2933 39.5694 57.3699 39.6147 57.4536 39.6414C57.5372 39.6681 57.6259 39.6756 57.7128 39.6634V39.6793Z" fill="#FFB000"/>
<path d="M53.9764 39.0348C53.824 39.4729 53.6367 39.8475 53.132 39.7967C52.6272 39.7459 52.5542 39.3904 52.5542 38.9745C52.5732 38.4793 52.8971 38.3396 53.3193 38.3396C53.7415 38.3396 53.878 38.7142 53.9764 39.0348Z" fill="#FFB000"/>
<path d="M57.7131 39.6635C57.6256 39.6759 57.5363 39.6683 57.4522 39.6412C57.368 39.6141 57.291 39.5683 57.2271 39.5072C57.1633 39.446 57.1141 39.3712 57.0833 39.2883C57.0526 39.2054 57.0411 39.1166 57.0496 39.0285C57.052 38.8344 57.1293 38.6488 57.2654 38.5103C57.4014 38.3719 57.5857 38.2914 57.7798 38.2857C58.1925 38.2635 58.3957 38.5365 58.3957 38.9619C58.3957 39.3873 58.183 39.6603 57.7131 39.6635Z" fill="#FFB000"/>
<path d="M57.0937 64.0952C56.2651 64.1841 55.8461 63.5714 55.3667 62.9968C53.3159 60.5365 52.1254 57.5714 50.6048 54.8063C50.3845 54.3795 50.0767 54.004 49.7014 53.7043C49.3262 53.4045 48.8919 53.1872 48.427 53.0666C45.608 52.2444 42.9699 50.9206 40.1254 50.1714C39.6757 50.0408 39.259 49.8157 38.9032 49.5111C38.5862 49.289 38.3581 48.9618 38.2593 48.5876C38.1605 48.2134 38.1975 47.8163 38.3635 47.4666C38.7921 46.3682 39.5826 45.5428 40.4112 44.7492C42.6931 42.6239 45.3368 40.9241 48.2175 39.7301C49.4492 39.1968 50.0619 38.4032 50.4397 37.1587C51.3127 34.3016 52.5762 31.6412 54.7127 29.4889C56.2492 27.9428 57.9508 27.9428 59.4746 29.4889C61.6048 31.6412 62.8619 34.3143 63.7413 37.1619C64.1159 38.3651 64.6937 39.1555 65.8937 39.6857C69.2302 41.1651 72.3223 43.0159 74.7762 45.7905C76.7508 48.0127 76.3953 49.527 73.5604 50.3428C70.8207 51.1333 68.2651 52.419 65.5159 53.1714C65.1102 53.2888 64.7339 53.491 64.4121 53.7646C64.0904 54.0383 63.8303 54.3771 63.6492 54.7587C62.0778 57.5365 60.881 60.5111 58.8302 63.0127C58.1635 63.8222 57.8651 64.0857 57.0937 64.0952ZM55.5064 33.5397C55.408 33.2222 55.2937 32.8825 54.8715 32.8603C54.4492 32.8381 54.1286 32.9841 54.1064 33.4762C54.0905 33.8952 54.1985 34.2539 54.6746 34.3016C55.1508 34.3492 55.3508 33.9746 55.5032 33.5397H55.5064ZM59.2461 34.1746C59.7127 34.1746 59.9254 33.9365 59.9286 33.4666C59.9318 32.9968 59.7223 32.7746 59.3096 32.7746C59.1156 32.782 58.9319 32.864 58.797 33.0037C58.6621 33.1433 58.5864 33.3296 58.5858 33.5238C58.5757 33.6118 58.5859 33.701 58.6157 33.7845C58.6454 33.868 58.6938 33.9435 58.7572 34.0054C58.8206 34.0673 58.8974 34.1139 58.9816 34.1415C59.0657 34.1692 59.1551 34.1773 59.2429 34.1651L59.2461 34.1746Z" fill="#E1306C"/>
<path d="M55.5036 33.5397C55.3512 33.9746 55.1639 34.3492 54.6623 34.3016C54.1607 34.2539 54.0782 33.8952 54.0941 33.4762C54.1163 32.9841 54.4369 32.8412 54.8591 32.8603C55.2814 32.8793 55.4115 33.219 55.5036 33.5397Z" fill="white"/>
<path d="M59.2396 34.1649C59.1522 34.1774 59.063 34.1698 58.979 34.1427C58.8949 34.1157 58.8181 34.0698 58.7545 34.0086C58.6908 33.9473 58.6419 33.8724 58.6116 33.7895C58.5812 33.7066 58.5702 33.6178 58.5793 33.5299C58.5783 33.3336 58.6542 33.1448 58.7906 33.0036C58.927 32.8624 59.1132 32.7802 59.3094 32.7744C59.7221 32.7553 59.9253 33.0252 59.9253 33.4537C59.9253 33.8823 59.7094 34.1617 59.2396 34.1649Z" fill="white"/>
</g>
<path d="M50.3667 24.4731C50.3667 25.908 53.2238 27.0731 56.754 27.0731C60.2842 27.0731 63.1413 25.908 63.1413 24.4731V19.2922L59.9477 21.616L56.754 17.5493L53.5604 21.616L50.3667 19.2922V24.4731Z" fill="#FFB000"/>
</g>
<g clip-path="url(#clip8_3_4188)" filter="url(#filter2_d_3_4188)">
<g clip-path="url(#clip9_3_4188)">
<path d="M100.047 5.38086H47.6665V80.6189H100.047V5.38086Z" stroke="#CCCCCC" stroke-width="0.1875" stroke-miterlimit="10"/>
<path d="M59.8379 5.38086H47.6665V80.6189H59.8379V5.38086Z" stroke="#CCCCCC" stroke-width="0.1875" stroke-miterlimit="10"/>
<path d="M59.8379 16.4729H47.6665V18.6634H59.8379V16.4729Z" stroke="#CCCCCC" stroke-width="0.1875" stroke-miterlimit="10"/>
<path d="M100.048 78.4285H55.146V80.6189H100.048V78.4285Z" stroke="#CCCCCC" stroke-width="0.1875" stroke-miterlimit="10"/>
<path d="M98.1776 14.2825H59.8379V78.4285H98.1776V14.2825Z" stroke="#CCCCCC" stroke-width="0.1875" stroke-miterlimit="10"/>
<path d="M90.3525 20.0889H67.6636V69.2762H90.3525V20.0889Z" stroke="#CCCCCC" stroke-width="0.16875" stroke-miterlimit="10"/>
<path d="M67.6636 36.4858H90.3525" stroke="#CCCCCC" stroke-width="0.16875" stroke-miterlimit="10"/>
<path d="M67.6636 52.8794H90.3525" stroke="#CCCCCC" stroke-width="0.16875" stroke-miterlimit="10"/>
<path d="M67.6636 44.6826H90.3525" stroke="#CCCCCC" stroke-width="0.16875" stroke-miterlimit="10"/>
<path d="M79.0063 69.2762V20.0889" stroke="#CCCCCC" stroke-width="0.16875" stroke-miterlimit="10"/>
<path d="M90.3525 44.6825L79.0064 20.0889L67.6636 44.6825L79.0064 69.2762L90.3525 44.6825Z" stroke="#CCCCCC" stroke-width="0.16875" stroke-miterlimit="10"/>
<path d="M67.6636 20.0889L90.3525 36.4857" stroke="#CCCCCC" stroke-width="0.16875" stroke-miterlimit="10"/>
<path d="M67.6636 36.4857L90.3525 20.0889" stroke="#CCCCCC" stroke-width="0.16875" stroke-miterlimit="10"/>
<path d="M67.6636 36.4858L90.3525 52.8795" stroke="#CCCCCC" stroke-width="0.16875" stroke-miterlimit="10"/>
<path d="M67.6636 52.8795L90.3525 36.4858" stroke="#CCCCCC" stroke-width="0.16875" stroke-miterlimit="10"/>
<path d="M67.6636 52.8794L90.3525 69.2762" stroke="#CCCCCC" stroke-width="0.16875" stroke-miterlimit="10"/>
<path d="M67.6636 69.2762L90.3525 52.8794" stroke="#CCCCCC" stroke-width="0.16875" stroke-miterlimit="10"/>
<path d="M98.619 3H49.0952C46.9912 3 45.2856 4.70558 45.2856 6.80952V79.1905C45.2856 81.2944 46.9912 83 49.0952 83H98.619C100.723 83 102.429 81.2944 102.429 79.1905V6.80952C102.429 4.70558 100.723 3 98.619 3Z" fill="#FFF4D7"/>
</g>
<g clip-path="url(#clip10_3_4188)">
<path d="M58.2763 20.8635L56.2763 18.0063C56.2435 17.959 56.2018 17.9186 56.1535 17.8874C56.1051 17.8562 56.0511 17.8349 55.9945 17.8245C55.9379 17.8142 55.8798 17.8152 55.8236 17.8273C55.7674 17.8394 55.7141 17.8625 55.6667 17.8952L54.454 18.7333C54.3374 18.8139 54.199 18.857 54.0572 18.857C53.9155 18.857 53.777 18.8139 53.6604 18.7333L52.4509 17.8952C52.3552 17.8287 52.2371 17.8026 52.1223 17.8229C52.0075 17.8431 51.9053 17.9079 51.8382 18.0032L49.8413 20.8635C49.7845 20.9458 49.7573 21.045 49.7642 21.1448C49.7712 21.2445 49.8118 21.339 49.8794 21.4127L53.7334 25.6095C53.7743 25.6525 53.8236 25.6868 53.8781 25.7102C53.9327 25.7336 53.9915 25.7457 54.0509 25.7457C54.1102 25.7457 54.169 25.7336 54.2236 25.7102C54.2782 25.6868 54.3274 25.6525 54.3683 25.6095L58.2382 21.4127C58.3058 21.339 58.3464 21.2445 58.3534 21.1448C58.3603 21.045 58.3331 20.9458 58.2763 20.8635Z" fill="#E1306C"/>
<path d="M54.1584 24.6635C54.046 24.6143 53.9395 24.5525 53.841 24.4794L51.0314 21.6604C50.9706 21.6092 50.9211 21.5461 50.886 21.4748C50.8508 21.4036 50.8308 21.3258 50.8272 21.2465C50.8237 21.1671 50.8366 21.0879 50.8652 21.0138C50.8938 20.9397 50.9374 20.8723 50.9933 20.8159C51.3489 20.3302 51.714 19.8318 52.0791 19.3492C52.1491 19.2504 52.2428 19.1708 52.3515 19.1176C52.4603 19.0643 52.5807 19.0393 52.7017 19.0446C52.8227 19.05 52.9404 19.0857 53.044 19.1483C53.1477 19.2109 53.2339 19.2986 53.2949 19.4032C53.4884 19.624 53.7093 19.8192 53.9521 19.9842C54.0187 20.0318 54.2124 19.9842 54.2949 19.9143C54.6171 19.6603 54.9205 19.3834 55.2029 19.0858C55.4886 18.7683 55.7298 18.8731 55.9298 19.127C56.3775 19.6921 56.7997 20.2699 57.2156 20.8572C57.2508 20.9122 57.2732 20.9745 57.2809 21.0394C57.2886 21.1043 57.2814 21.1701 57.26 21.2318C57.0276 21.5925 56.7698 21.9362 56.4886 22.2604C56.2092 22.5778 55.8917 22.8667 55.5902 23.1651C55.2886 23.4635 54.8981 23.8381 54.5616 24.181C54.4219 24.3365 54.3013 24.4985 54.1584 24.6635Z" fill="#E1306C"/>
</g>
<path d="M50.8096 16.4731V15.3588H51.3175V7.65091H50.8096V6.52393H54.0889V7.65091H53.5842V10.6604L55.8064 7.65091H55.235V6.52393H57.7175V7.65091H57.1715L55.6096 9.68266L57.8032 15.3588H58.3016V16.4731H55.762L54.0318 11.7715L53.5842 12.4065V15.3652H54.0889V16.4795L50.8096 16.4731Z" fill="#E1306C"/>
<g clip-path="url(#clip11_3_4188)">
<path d="M57.6509 45.8667C57.616 45.4032 57.8985 44.7301 58.1557 44.0889C59.5207 40.7238 61.5271 38.0032 64.216 36.0127C65.016 35.4159 65.9461 35.2857 66.8572 35.0984C68.3049 34.8254 69.6033 35.2921 70.9493 35.8C71.8033 36.1174 72.6604 36.3524 73.4033 36.9778C73.8033 37.3174 74.216 37.2635 74.6731 37.0635C76.343 36.3492 77.8477 35.1587 79.5684 34.6127C80.9684 34.1746 82.2477 34.1301 83.616 35.0667C86.5493 37.0762 88.543 39.1428 90.2382 42.5555C91.1906 44.1778 90.2985 46.727 89.6287 47.927C87.8636 51.1016 77.7366 58.7524 76.8509 59.5714C76.2953 60.0825 74.6953 66.1079 74.5207 66.8921C74.435 67.2635 74.2033 67.6095 73.908 67.6349C73.5017 67.6698 73.5906 67.1651 73.5334 66.8794C72.889 63.3206 71.3493 60.1555 70.6668 59.454C69.1144 57.8921 59.2382 50.3365 58.5303 48.8381C58.1303 47.9968 57.6763 47.1809 57.6509 45.8667ZM78.4826 39.9079C78.4826 39.3365 78.2445 38.9809 77.6985 38.9079C77.4407 38.8814 77.1826 38.9554 76.978 39.1145C76.7733 39.2736 76.638 39.5055 76.6001 39.7619C76.5922 39.872 76.6072 39.9826 76.6443 40.0867C76.6814 40.1907 76.7397 40.2859 76.8155 40.3662C76.8913 40.4465 76.983 40.5101 77.0847 40.5531C77.1865 40.5961 77.296 40.6175 77.4064 40.6159C77.5237 40.6422 77.6451 40.6447 77.7634 40.6231C77.8817 40.6016 77.9944 40.5564 78.0948 40.4904C78.1953 40.4243 78.2814 40.3387 78.348 40.2386C78.4146 40.1385 78.4604 40.0261 78.4826 39.9079ZM71.8509 40.1206C71.8223 39.6 71.5874 39.2254 71.0191 39.2254C70.896 39.2168 70.7725 39.2348 70.657 39.2783C70.5416 39.3218 70.4368 39.3898 70.35 39.4775C70.2632 39.5652 70.1964 39.6706 70.154 39.7866C70.1117 39.9025 70.095 40.0262 70.1049 40.1492C70.1049 40.5809 70.3493 41.1016 70.8541 41.0317C71.3588 40.9619 71.9366 40.8857 71.8509 40.1206Z" fill="#FFB000"/>
<path d="M78.4823 39.9079C78.46 40.026 78.4142 40.1385 78.3476 40.2385C78.281 40.3386 78.1949 40.4242 78.0944 40.4903C77.994 40.5564 77.8813 40.6015 77.763 40.6231C77.6448 40.6446 77.5234 40.6422 77.4061 40.6158C77.2956 40.6174 77.1861 40.596 77.0844 40.5531C76.9826 40.5101 76.8909 40.4464 76.8151 40.3661C76.7393 40.2858 76.681 40.1906 76.6439 40.0866C76.6068 39.9826 76.5918 39.872 76.5997 39.7618C76.6376 39.5054 76.773 39.2735 76.9776 39.1145C77.1822 38.9554 77.4403 38.8814 77.6981 38.9079C78.2442 38.9809 78.4823 39.3364 78.4823 39.9079Z" fill="#FFB000"/>
<path d="M71.8506 40.1207C71.9395 40.8858 71.3141 40.981 70.8538 41.0286C70.3935 41.0763 70.1109 40.5778 70.1046 40.1461C70.0951 40.0233 70.1123 39.9 70.1548 39.7845C70.1973 39.6689 70.2643 39.5639 70.351 39.4765C70.4378 39.3892 70.5423 39.3215 70.6576 39.2782C70.7728 39.2349 70.896 39.2169 71.0188 39.2255C71.5871 39.2255 71.822 39.6001 71.8506 40.1207Z" fill="#FFB000"/>
<path d="M61.2509 37.6603C61.708 35.6794 65.8604 30.9429 67.689 29.7238C69.1334 28.7714 71.0572 28.7079 72.7271 29.2254C74.1492 29.6578 75.5434 30.1773 76.9017 30.781C77.0909 30.896 77.3051 30.9639 77.5261 30.9788C77.7471 30.9937 77.9685 30.9553 78.1715 30.8667C79.7736 30.1753 81.4108 29.5681 83.0763 29.0476C84.4763 28.6127 85.7556 28.5683 87.1271 29.5048C90.0572 31.5143 92.0509 33.581 93.7461 37.0032C94.6985 38.6254 93.8064 41.1714 93.1366 42.3746C91.3715 45.5492 81.2477 53.2 80.3588 54.0191C79.8033 54.5302 78.2033 60.5556 78.0287 61.3397C77.9429 61.7111 77.8572 62.0571 77.5461 62.0825C77.1366 62.1175 77.0922 61.6127 77.0414 61.327C76.381 57.7429 75.4826 54.7492 74.6922 53.8286C73.9017 52.9079 63.8033 45.4127 62.235 42.527C61.1144 40.6254 60.8636 39.3365 61.2509 37.6603ZM81.9683 34.3333C81.9683 33.7619 81.7302 33.4064 81.1842 33.3333C80.9267 33.306 80.6686 33.3792 80.4639 33.5378C80.2592 33.6964 80.1237 33.928 80.0858 34.1841C80.0779 34.2944 80.0929 34.4052 80.13 34.5094C80.167 34.6136 80.2253 34.7089 80.3011 34.7895C80.3768 34.87 80.4685 34.934 80.5702 34.9773C80.672 35.0207 80.7816 35.0424 80.8922 35.0413C81.0094 35.0672 81.1307 35.0693 81.2488 35.0476C81.3669 35.0258 81.4794 34.9806 81.5798 34.9146C81.6801 34.8486 81.7662 34.7632 81.8329 34.6633C81.8997 34.5635 81.9457 34.4513 81.9683 34.3333ZM75.3366 34.5429C75.3112 34.0254 75.0731 33.6476 74.5049 33.6476C74.3816 33.6385 74.2579 33.6561 74.1421 33.6995C74.0264 33.7428 73.9214 33.8107 73.8345 33.8985C73.7476 33.9864 73.6808 34.092 73.6386 34.2082C73.5965 34.3244 73.5801 34.4483 73.5906 34.5714C73.5906 35.0032 73.835 35.5079 74.3429 35.454C74.7937 35.4159 75.4287 35.3079 75.3366 34.5429Z" fill="#E1306C"/>
<path d="M81.9681 34.3333C81.9455 34.4512 81.8994 34.5634 81.8327 34.6632C81.7659 34.7631 81.6798 34.8485 81.5795 34.9145C81.4792 34.9805 81.3666 35.0257 81.2485 35.0475C81.1304 35.0693 81.0092 35.0671 80.8919 35.0412C80.7813 35.0424 80.6717 35.0206 80.57 34.9772C80.4682 34.9339 80.3766 34.8699 80.3008 34.7894C80.225 34.7089 80.1668 34.6135 80.1297 34.5093C80.0927 34.4051 80.0776 34.2944 80.0855 34.1841C80.1234 33.9279 80.2589 33.6963 80.4636 33.5377C80.6683 33.3792 80.9265 33.3059 81.184 33.3333C81.73 33.4063 81.9681 33.7618 81.9681 34.3333Z" fill="white"/>
<path d="M75.3365 34.5429C75.4286 35.3079 74.7936 35.4159 74.3428 35.454C73.8349 35.5079 73.5968 35.0032 73.5905 34.5714C73.58 34.4483 73.5964 34.3244 73.6385 34.2082C73.6806 34.092 73.7475 33.9864 73.8344 33.8985C73.9213 33.8107 74.0263 33.7428 74.142 33.6995C74.2578 33.6561 74.3815 33.6384 74.5047 33.6476C75.073 33.6476 75.3111 34.0254 75.3365 34.5429Z" fill="white"/>
</g>
<path d="M70.9619 25.3269C70.9619 26.7618 73.8191 27.9269 77.3492 27.9269C80.8794 27.9269 83.7365 26.7618 83.7365 25.3269V20.1428L80.5429 22.4634L77.3492 18.4031L74.1556 22.4666L70.9619 20.1428V25.3269Z" fill="#FFB000"/>
</g>
<g clip-path="url(#clip12_3_4188)" filter="url(#filter3_d_3_4188)">
<g clip-path="url(#clip13_3_4188)">
<path d="M119.691 5.38086H67.3096V80.6189H119.691V5.38086Z" stroke="#CCCCCC" stroke-width="0.1875" stroke-miterlimit="10"/>
<path d="M79.481 5.38086H67.3096V80.6189H79.481V5.38086Z" stroke="#CCCCCC" stroke-width="0.1875" stroke-miterlimit="10"/>
<path d="M79.481 16.4729H67.3096V18.6634H79.481V16.4729Z" stroke="#CCCCCC" stroke-width="0.1875" stroke-miterlimit="10"/>
<path d="M119.691 78.4285H74.7891V80.6189H119.691V78.4285Z" stroke="#CCCCCC" stroke-width="0.1875" stroke-miterlimit="10"/>
<path d="M117.821 14.2825H79.481V78.4285H117.821V14.2825Z" stroke="#CCCCCC" stroke-width="0.1875" stroke-miterlimit="10"/>
<path d="M109.996 20.0889H87.3066V69.2762H109.996V20.0889Z" stroke="#CCCCCC" stroke-width="0.16875" stroke-miterlimit="10"/>
<path d="M87.3066 36.4858H109.996" stroke="#CCCCCC" stroke-width="0.16875" stroke-miterlimit="10"/>
<path d="M87.3066 52.8794H109.996" stroke="#CCCCCC" stroke-width="0.16875" stroke-miterlimit="10"/>
<path d="M87.3066 44.6826H109.996" stroke="#CCCCCC" stroke-width="0.16875" stroke-miterlimit="10"/>
<path d="M98.6494 69.2762V20.0889" stroke="#CCCCCC" stroke-width="0.16875" stroke-miterlimit="10"/>
<path d="M109.996 44.6825L98.6495 20.0889L87.3066 44.6825L98.6495 69.2762L109.996 44.6825Z" stroke="#CCCCCC" stroke-width="0.16875" stroke-miterlimit="10"/>
<path d="M87.3066 20.0889L109.996 36.4857" stroke="#CCCCCC" stroke-width="0.16875" stroke-miterlimit="10"/>
<path d="M87.3066 36.4857L109.996 20.0889" stroke="#CCCCCC" stroke-width="0.16875" stroke-miterlimit="10"/>
<path d="M87.3066 36.4858L109.996 52.8795" stroke="#CCCCCC" stroke-width="0.16875" stroke-miterlimit="10"/>
<path d="M87.3066 52.8795L109.996 36.4858" stroke="#CCCCCC" stroke-width="0.16875" stroke-miterlimit="10"/>
<path d="M87.3066 52.8794L109.996 69.2762" stroke="#CCCCCC" stroke-width="0.16875" stroke-miterlimit="10"/>
<path d="M87.3066 69.2762L109.996 52.8794" stroke="#CCCCCC" stroke-width="0.16875" stroke-miterlimit="10"/>
<path d="M118.262 3H68.7382C66.6343 3 64.9287 4.70558 64.9287 6.80952V79.1905C64.9287 81.2944 66.6343 83 68.7382 83H118.262C120.366 83 122.072 81.2944 122.072 79.1905V6.80952C122.072 4.70558 120.366 3 118.262 3Z" fill="#FFF4D7"/>
</g>
<g clip-path="url(#clip14_3_4188)">
<path d="M73.7196 25.9111H74.8021C74.8572 25.9088 74.911 25.8936 74.9592 25.8667C75.0074 25.8399 75.0485 25.802 75.0794 25.7563C75.1103 25.7106 75.13 25.6583 75.137 25.6036C75.144 25.5489 75.138 25.4933 75.1196 25.4413L74.3989 23.4381C74.3858 23.4016 74.384 23.362 74.3937 23.3245C74.4033 23.287 74.424 23.2532 74.4531 23.2275C74.4822 23.2019 74.5183 23.1856 74.5567 23.1806C74.5952 23.1757 74.6342 23.1825 74.6688 23.2L76.0783 23.9175C76.1769 23.9672 76.2897 23.981 76.3974 23.9567C76.5052 23.9324 76.6011 23.8714 76.6688 23.7841L78.0339 22.0318C78.1042 21.9377 78.1376 21.8211 78.1276 21.704C78.1177 21.587 78.0651 21.4777 77.9799 21.3968L74.0688 17.8C73.9687 17.7083 73.8379 17.6575 73.7021 17.6575C73.5664 17.6575 73.4355 17.7083 73.3354 17.8L69.4275 21.3905C69.3421 21.4714 69.2897 21.581 69.2803 21.6982C69.2709 21.8154 69.3053 21.932 69.3767 22.0254L70.7418 23.7778C70.8086 23.8653 70.9039 23.9266 71.0113 23.9509C71.1186 23.9753 71.2311 23.9612 71.3291 23.9111L72.7386 23.1937C72.7732 23.1761 72.8122 23.1694 72.8507 23.1743C72.8891 23.1792 72.9252 23.1955 72.9543 23.2212C72.9834 23.2468 73.0041 23.2806 73.0137 23.3182C73.0234 23.3557 73.0215 23.3953 73.0085 23.4318L72.2878 25.4413C72.2694 25.4933 72.2634 25.5489 72.2704 25.6036C72.2774 25.6583 72.2971 25.7106 72.328 25.7563C72.3588 25.802 72.4 25.8399 72.4482 25.8667C72.4964 25.8936 72.5502 25.9088 72.6053 25.9111H73.7196Z" fill="#425CE6"/>
</g>
<path d="M70.4653 16.4731V15.3588H70.9606V7.65091H70.4526V6.52393H73.7479V7.65091H73.2399V10.6604L75.4622 7.65091H74.9034V6.52393H77.3828V7.65091H76.8272L75.2653 9.68266L77.4622 15.3588H77.9669V16.4731H75.4272L73.6907 11.7747L73.2399 12.4096V15.3684H73.7479V16.4827L70.4653 16.4731Z" fill="#425CE6"/>
<g clip-path="url(#clip15_3_4188)">
<path d="M104.173 54.9269C102.147 55.0222 100.363 54.2095 98.5569 53.4571C98.3029 53.3523 98.0204 53.0603 97.7791 53.2857C97.5378 53.5111 97.6934 53.8095 97.7601 54.0952C98.0089 55.2411 98.5354 56.3084 99.2934 57.2031C100.043 58.1375 100.649 59.1786 101.09 60.292C101.725 61.6984 102.043 62.8889 102.005 64.419C102.005 64.9587 101.528 65.5428 101.052 65.0539C100.915 64.9279 100.753 64.8324 100.576 64.7739C100.399 64.7153 100.212 64.695 100.027 64.7142C95.4934 64.7142 95.5823 63.4444 94.5982 63.4444C93.5601 63.4444 93.2204 64.5238 89.5188 64.5238C89.1565 64.594 88.8052 64.7125 88.4743 64.8762C87.795 65.2412 87.3505 65.0031 87.3728 64.219C87.4489 61.8031 88.0966 59.5587 89.595 57.6285C90.1688 56.8107 90.6986 55.963 91.1823 55.0889C91.3708 54.7622 91.4796 54.3956 91.4997 54.019C91.5886 52.9873 91.5505 52.965 90.5823 53.3174L87.1315 54.5968C85.3537 55.2317 83.6394 54.7555 81.9664 54.2127C79.1474 53.292 77.268 51.3555 76.5696 48.4571C76.451 47.8854 76.4562 47.295 76.5849 46.7255C76.7136 46.156 76.9628 45.6207 77.3156 45.1555C79.6966 41.7682 82.6363 38.9111 85.8521 36.346C87.868 34.7333 89.9061 33.1523 92.0648 31.7365C94.5696 30.0952 94.6045 30.0571 96.9029 31.6317C100.487 34.0639 103.899 36.7401 107.116 39.6412C109.048 41.4025 110.741 43.4102 112.151 45.6127C112.785 46.5904 112.785 47.7682 112.56 48.8952C112.138 50.8825 111.125 52.4317 109.268 53.419C107.658 54.273 106.052 55.0317 104.173 54.9269Z" fill="#FFB000"/>
<path d="M105.935 51.2921C103.91 51.3841 102.125 50.5714 100.319 49.819C100.065 49.7143 99.7857 49.4254 99.5413 49.6476C99.2968 49.8698 99.4587 50.1714 99.5222 50.4571C99.7738 51.6021 100.3 52.6688 101.056 53.5651C101.806 54.4993 102.413 55.5404 102.856 56.654C103.49 58.0635 103.808 59.2508 103.77 60.7809C103.77 61.3206 103.29 61.9048 102.817 61.4159C102.681 61.2895 102.518 61.1938 102.341 61.1352C102.165 61.0766 101.977 61.0565 101.792 61.0762C97.2587 61.0762 97.3476 59.8063 96.3635 59.8063C95.3254 59.8063 94.9857 60.8889 91.2841 60.8889C90.9225 60.9562 90.572 61.0737 90.2429 61.2381C89.5603 61.6032 89.1159 61.3651 89.1413 60.5809C89.2143 58.1651 89.8619 55.9206 91.3635 53.9905C91.9369 53.1724 92.4668 52.3247 92.9508 51.4508C93.1387 51.125 93.2475 50.7596 93.2683 50.3841C93.354 49.3524 93.3191 49.327 92.3508 49.6794C91.208 50.0952 90.0619 50.5016 88.9159 50.9143C87.1381 51.5492 85.4238 51.073 83.7476 50.5302C80.9286 49.6095 79.0492 47.673 78.3667 44.7746C78.2523 44.2123 78.2576 43.6322 78.3823 43.0721C78.507 42.512 78.7483 41.9844 79.0905 41.5238C81.4587 38.1238 84.3984 35.2889 87.6175 32.7143C89.6334 31.1016 91.6714 29.5206 93.8302 28.1175C96.3318 26.4794 96.3699 26.4413 98.6651 28.0159C102.246 30.4432 105.655 33.114 108.868 36.0095C110.805 37.7708 112.502 39.7784 113.916 41.9809C114.551 42.9587 114.551 44.1365 114.325 45.2635C113.903 47.2508 112.887 48.8 111.03 49.7873C109.424 50.6571 107.814 51.4 105.935 51.2921ZM99.9603 32.3968C100.017 31.8127 99.8651 31.3333 99.1445 31.3048C98.4238 31.2762 98.2302 31.7365 98.2143 32.3492C98.2143 32.873 98.3222 33.3841 98.9381 33.3651C99.4587 33.3492 100.027 33.1778 99.9603 32.3968ZM94.1095 32.3048C94.0834 32.1035 93.9908 31.9168 93.8464 31.7742C93.7021 31.6316 93.5142 31.5412 93.3127 31.5175C92.7857 31.454 92.5762 31.8349 92.5413 32.3206C92.5064 32.8063 92.7667 33.2889 93.2334 33.3365C93.6302 33.3778 94.1445 33.1968 94.1095 32.3048Z" fill="#425CE6"/>
<path d="M99.9602 32.3968C100.027 33.1778 99.4586 33.3492 98.938 33.3651C98.3221 33.3841 98.1983 32.873 98.2142 32.3492C98.2142 31.7365 98.4237 31.273 99.1443 31.3048C99.865 31.3365 100.017 31.8127 99.9602 32.3968Z" fill="#FAFAFE"/>
<path d="M94.1095 32.3048C94.1444 33.181 93.6333 33.3778 93.2333 33.3365C92.7666 33.2889 92.5031 32.854 92.5412 32.3207C92.5793 31.7873 92.7857 31.454 93.3127 31.5175C93.5142 31.5412 93.702 31.6316 93.8464 31.7742C93.9907 31.9168 94.0833 32.1036 94.1095 32.3048Z" fill="#F9FAFD"/>
</g>
<path d="M89.9697 22.8794C89.9697 24.3175 92.8269 25.4794 96.357 25.4794C99.8872 25.4794 102.744 24.3175 102.744 22.8794V17.6984L99.5507 20.0222L96.357 15.9556L93.1634 20.0222L89.9697 17.6984V22.8794Z" fill="#FFB000"/>
</g>
<defs>
<filter id="filter0_d_3_4188" x="0.75" y="0.75" width="64.6431" height="87.5" filterUnits="userSpaceOnUse" color-interpolation-filters="sRGB">
<feFlood flood-opacity="0" result="BackgroundImageFix"/>
<feColorMatrix in="SourceAlpha" type="matrix" values="0 0 0 0 0 0 0 0 0 0 0 0 0 0 0 0 0 0 127 0" result="hardAlpha"/>
<feOffset dx="-1.5" dy="1.5"/>
<feGaussianBlur stdDeviation="1.875"/>
<feComposite in2="hardAlpha" operator="out"/>
<feColorMatrix type="matrix" values="0 0 0 0 0 0 0 0 0 0 0 0 0 0 0 0 0 0 0.25 0"/>
<feBlend mode="normal" in2="BackgroundImageFix" result="effect1_dropShadow_3_4188"/>
<feBlend mode="normal" in="SourceGraphic" in2="effect1_dropShadow_3_4188" result="shape"/>
</filter>
<filter id="filter1_d_3_4188" x="20.3931" y="0.75" width="64.6431" height="87.5" filterUnits="userSpaceOnUse" color-interpolation-filters="sRGB">
<feFlood flood-opacity="0" result="BackgroundImageFix"/>
<feColorMatrix in="SourceAlpha" type="matrix" values="0 0 0 0 0 0 0 0 0 0 0 0 0 0 0 0 0 0 127 0" result="hardAlpha"/>
<feOffset dx="-1.5" dy="1.5"/>
<feGaussianBlur stdDeviation="1.875"/>
<feComposite in2="hardAlpha" operator="out"/>
<feColorMatrix type="matrix" values="0 0 0 0 0 0 0 0 0 0 0 0 0 0 0 0 0 0 0.25 0"/>
<feBlend mode="normal" in2="BackgroundImageFix" result="effect1_dropShadow_3_4188"/>
<feBlend mode="normal" in="SourceGraphic" in2="effect1_dropShadow_3_4188" result="shape"/>
</filter>
<filter id="filter2_d_3_4188" x="40.0356" y="0.75" width="64.6431" height="87.5" filterUnits="userSpaceOnUse" color-interpolation-filters="sRGB">
<feFlood flood-opacity="0" result="BackgroundImageFix"/>
<feColorMatrix in="SourceAlpha" type="matrix" values="0 0 0 0 0 0 0 0 0 0 0 0 0 0 0 0 0 0 127 0" result="hardAlpha"/>
<feOffset dx="-1.5" dy="1.5"/>
<feGaussianBlur stdDeviation="1.875"/>
<feComposite in2="hardAlpha" operator="out"/>
<feColorMatrix type="matrix" values="0 0 0 0 0 0 0 0 0 0 0 0 0 0 0 0 0 0 0.25 0"/>
<feBlend mode="normal" in2="BackgroundImageFix" result="effect1_dropShadow_3_4188"/>
<feBlend mode="normal" in="SourceGraphic" in2="effect1_dropShadow_3_4188" result="shape"/>
</filter>
<filter id="filter3_d_3_4188" x="59.6787" y="0.75" width="64.6431" height="87.5" filterUnits="userSpaceOnUse" color-interpolation-filters="sRGB">
<feFlood flood-opacity="0" result="BackgroundImageFix"/>
<feColorMatrix in="SourceAlpha" type="matrix" values="0 0 0 0 0 0 0 0 0 0 0 0 0 0 0 0 0 0 127 0" result="hardAlpha"/>
<feOffset dx="-1.5" dy="1.5"/>
<feGaussianBlur stdDeviation="1.875"/>
<feComposite in2="hardAlpha" operator="out"/>
<feColorMatrix type="matrix" values="0 0 0 0 0 0 0 0 0 0 0 0 0 0 0 0 0 0 0.25 0"/>
<feBlend mode="normal" in2="BackgroundImageFix" result="effect1_dropShadow_3_4188"/>
<feBlend mode="normal" in="SourceGraphic" in2="effect1_dropShadow_3_4188" result="shape"/>
</filter>
<clipPath id="clip0_3_4188">
<rect width="57.1429" height="80" fill="white" transform="translate(6 3)"/>
</clipPath>
<clipPath id="clip1_3_4188">
<rect width="57.1429" height="80" fill="white" transform="translate(6 3)"/>
</clipPath>
<clipPath id="clip2_3_4188">
<rect width="38.2921" height="38.0952" fill="white" transform="translate(17.2603 27.9746)"/>
</clipPath>
<clipPath id="clip3_3_4188">
<rect width="8.83492" height="8.57143" fill="white" transform="translate(10.3555 17.4985)"/>
</clipPath>
<clipPath id="clip4_3_4188">
<rect width="57.1429" height="80" fill="white" transform="translate(25.6431 3)"/>
</clipPath>
<clipPath id="clip5_3_4188">
<rect width="57.1429" height="80" fill="white" transform="translate(25.6431 3)"/>
</clipPath>
<clipPath id="clip6_3_4188">
<rect width="8.0254" height="8.25397" fill="white" transform="translate(30.4019 17.6572)"/>
</clipPath>
<clipPath id="clip7_3_4188">
<rect width="39.3302" height="41.2698" fill="white" transform="translate(36.6812 28.3301)"/>
</clipPath>
<clipPath id="clip8_3_4188">
<rect width="57.1429" height="80" fill="white" transform="translate(45.2856 3)"/>
</clipPath>
<clipPath id="clip9_3_4188">
<rect width="57.1429" height="80" fill="white" transform="translate(45.2856 3)"/>
</clipPath>
<clipPath id="clip10_3_4188">
<rect width="8.59365" height="7.93651" fill="white" transform="translate(49.7617 17.8159)"/>
</clipPath>
<clipPath id="clip11_3_4188">
<rect width="36.5079" height="38.9016" fill="white" transform="translate(57.6509 28.7493)"/>
</clipPath>
<clipPath id="clip12_3_4188">
<rect width="57.1429" height="80" fill="white" transform="translate(64.9287 3)"/>
</clipPath>
<clipPath id="clip13_3_4188">
<rect width="57.1429" height="80" fill="white" transform="translate(64.9287 3)"/>
</clipPath>
<clipPath id="clip14_3_4188">
<rect width="8.85397" height="8.25397" fill="white" transform="translate(69.2749 17.6572)"/>
</clipPath>
<clipPath id="clip15_3_4188">
<rect width="37.9778" height="38.4032" fill="white" transform="translate(76.4873 26.8477)"/>
</clipPath>
</defs>
</svg>
