<svg width="48" height="48" viewBox="0 0 48 48" fill="none" xmlns="http://www.w3.org/2000/svg">
<path d="M47.04 24.5457C47.04 22.8438 46.8874 21.2075 46.6037 19.6365H24V28.9202H36.9163C36.36 31.9202 34.6692 34.462 32.1274 36.1638V42.1857H39.8837C44.4218 38.0075 47.04 31.8546 47.04 24.5457Z" fill="#4285F4"/>
<path d="M23.9996 47.9998C30.4796 47.9998 35.9122 45.8506 39.883 42.1853L32.1267 36.1635C29.9778 37.6035 27.2286 38.4543 23.9996 38.4543C17.7486 38.4543 12.4578 34.2325 10.5704 28.5598H2.55225V34.778C6.50145 42.6217 14.6178 47.9998 23.9996 47.9998Z" fill="#34A853"/>
<path d="M10.5708 28.5598C10.0908 27.1198 9.81816 25.5817 9.81816 23.9998C9.81816 22.418 10.0908 20.8798 10.5708 19.4398V13.2217H2.55264C0.927359 16.4617 0 20.1272 0 23.9998C0 27.8725 0.927359 31.538 2.55264 34.778L10.5708 28.5598Z" fill="#FBBC04"/>
<path d="M23.9996 9.54552C27.523 9.54552 30.6867 10.7563 33.1741 13.1345L40.0578 6.2508C35.9015 2.37816 30.4686 0 23.9996 0C14.6178 0 6.50145 5.37816 2.55225 13.2218L10.5704 19.44C12.4578 13.7674 17.7486 9.54552 23.9996 9.54552Z" fill="#E94235"/>
</svg>
