<svg width="48" height="48" viewBox="0 0 48 34" fill="none" xmlns="http://www.w3.org/2000/svg">
    <rect x="4" y="5" width="41" height="24" fill="white"/>
    <path d="M19.2 24.2857L31.656 17L19.2 9.71429V24.2857ZM46.944 5.27C47.256 6.41143 47.472 7.94143 47.616 9.88428C47.784 11.8271 47.856 13.5029 47.856 14.96L48 17C48 22.3186 47.616 26.2286 46.944 28.73C46.344 30.9157 44.952 32.3243 42.792 32.9314C41.664 33.2471 39.6 33.4657 36.432 33.6114C33.312 33.7814 30.456 33.8543 27.816 33.8543L24 34C13.944 34 7.68 33.6114 5.208 32.9314C3.048 32.3243 1.656 30.9157 1.056 28.73C0.744 27.5886 0.528 26.0586 0.384 24.1157C0.216 22.1729 0.144 20.4971 0.144 19.04L0 17C0 11.6814 0.384 7.77143 1.056 5.27C1.656 3.08429 3.048 1.67571 5.208 1.06857C6.336 0.752857 8.4 0.534285 11.568 0.388571C14.688 0.218571 17.544 0.145714 20.184 0.145714L24 0C34.056 0 40.32 0.388572 42.792 1.06857C44.952 1.67571 46.344 3.08429 46.944 5.27Z" fill="#FF0000"/>
</svg>
