<svg width="49" height="48" viewBox="0 0 49 48" fill="none" xmlns="http://www.w3.org/2000/svg">
<g id="Discord - Original" clip-path="url(#clip0_235_2592)">
<path id="Vector" d="M41.3008 8.31115C38.2414 6.90738 34.9607 5.87315 31.5305 5.28081C31.4681 5.26937 31.4057 5.29794 31.3735 5.35508C30.9516 6.10551 30.4842 7.08451 30.1569 7.854C26.4676 7.30166 22.7971 7.30166 19.1834 7.854C18.856 7.06741 18.3717 6.10551 17.9479 5.35508C17.9157 5.29985 17.8533 5.27128 17.7908 5.28081C14.3626 5.87126 11.0819 6.90549 8.02062 8.31115C7.99412 8.32257 7.9714 8.34164 7.95633 8.36638C1.73353 17.6631 0.0288476 26.7313 0.865108 35.6871C0.868892 35.7309 0.893488 35.7728 0.927544 35.7995C5.03317 38.8145 9.01016 40.645 12.9133 41.8582C12.9758 41.8773 13.042 41.8544 13.0817 41.803C14.005 40.5421 14.828 39.2127 15.5337 37.8146C15.5753 37.7327 15.5356 37.6356 15.4505 37.6032C14.145 37.108 12.9019 36.5042 11.7062 35.8185C11.6116 35.7633 11.6041 35.628 11.6911 35.5632C11.9427 35.3747 12.1944 35.1785 12.4347 34.9804C12.4781 34.9443 12.5387 34.9366 12.5898 34.9595C20.4453 38.546 28.9498 38.546 36.7127 34.9595C36.7638 34.9347 36.8243 34.9424 36.8697 34.9785C37.11 35.1766 37.3617 35.3747 37.6152 35.5632C37.7022 35.628 37.6965 35.7633 37.6019 35.8185C36.4062 36.5175 35.1631 37.108 33.8558 37.6013C33.7707 37.6337 33.7328 37.7327 33.7744 37.8146C34.4953 39.2107 35.3183 40.5402 36.2245 41.8011C36.2624 41.8544 36.3305 41.8773 36.3929 41.8582C40.315 40.645 44.292 38.8145 48.3976 35.7995C48.4336 35.7728 48.4563 35.7328 48.4601 35.689C49.4609 25.3351 46.7837 16.3413 41.3632 8.36827C41.3499 8.34164 41.3273 8.32257 41.3008 8.31115ZM16.7068 30.234C14.3417 30.234 12.393 28.0627 12.393 25.3961C12.393 22.7295 14.304 20.5582 16.7068 20.5582C19.1285 20.5582 21.0584 22.7486 21.0205 25.3961C21.0205 28.0627 19.1096 30.234 16.7068 30.234ZM32.6562 30.234C30.2913 30.234 28.3425 28.0627 28.3425 25.3961C28.3425 22.7295 30.2534 20.5582 32.6562 20.5582C35.078 20.5582 37.0078 22.7486 36.97 25.3961C36.97 28.0627 35.078 30.234 32.6562 30.234Z" fill="white"/>
</g>
<defs>
<clipPath id="clip0_235_2592">
<rect width="48" height="48" fill="white" transform="translate(0.666748)"/>
</clipPath>
</defs>
</svg>
