<svg width="48" height="48" viewBox="0 0 50 48" fill="none" xmlns="http://www.w3.org/2000/svg">
    <g clip-path="url(#clip0_688_2403)">
        <mask id="mask0_688_2403" style="mask-type:luminance" maskUnits="userSpaceOnUse" x="1" y="0" width="49" height="48">
            <path d="M49.1665 0H1.1665V48H49.1665V0Z" fill="white"/>
        </mask>
        <g mask="url(#mask0_688_2403)">
            <path d="M41.8006 8.31115C38.7412 6.90738 35.4605 5.87315 32.0303 5.28081C31.9679 5.26937 31.9055 5.29794 31.8733 5.35508C31.4514 6.10551 30.984 7.08451 30.6567 7.854C26.9674 7.30166 23.2969 7.30166 19.6832 7.854C19.3558 7.06741 18.8715 6.10551 18.4477 5.35508C18.4155 5.29985 18.3531 5.27128 18.2906 5.28081C14.8624 5.87126 11.5817 6.90549 8.52038 8.31115C8.49388 8.32257 8.47116 8.34164 8.45609 8.36638C2.23329 17.6631 0.528604 26.7313 1.36486 35.6871C1.36865 35.7309 1.39324 35.7728 1.4273 35.7995C5.53293 38.8145 9.50992 40.645 13.4131 41.8582C13.4756 41.8773 13.5418 41.8544 13.5815 41.803C14.5048 40.5421 15.3278 39.2127 16.0335 37.8146C16.0751 37.7327 16.0354 37.6356 15.9503 37.6032C14.6448 37.108 13.4017 36.5042 12.206 35.8185C12.1114 35.7633 12.1039 35.628 12.1909 35.5632C12.4425 35.3747 12.6942 35.1785 12.9345 34.9804C12.9779 34.9443 13.0385 34.9366 13.0896 34.9595C20.9451 38.546 29.4496 38.546 37.2125 34.9595C37.2636 34.9347 37.3241 34.9424 37.3695 34.9785C37.6098 35.1766 37.8615 35.3747 38.115 35.5632C38.202 35.628 38.1963 35.7633 38.1017 35.8185C36.906 36.5175 35.6629 37.108 34.3556 37.6013C34.2705 37.6337 34.2326 37.7327 34.2742 37.8146C34.9951 39.2107 35.8181 40.5402 36.7243 41.8011C36.7622 41.8544 36.8303 41.8773 36.8927 41.8582C40.8148 40.645 44.7918 38.8145 48.8974 35.7995C48.9334 35.7728 48.9561 35.7328 48.9599 35.689C49.9607 25.3351 47.2835 16.3413 41.863 8.36827C41.8497 8.34164 41.8271 8.32257 41.8006 8.31115ZM17.2066 30.234C14.8415 30.234 12.8928 28.0627 12.8928 25.3961C12.8928 22.7295 14.8038 20.5582 17.2066 20.5582C19.6283 20.5582 21.5582 22.7486 21.5203 25.3961C21.5203 28.0627 19.6094 30.234 17.2066 30.234ZM33.156 30.234C30.7911 30.234 28.8423 28.0627 28.8423 25.3961C28.8423 22.7295 30.7532 20.5582 33.156 20.5582C35.5778 20.5582 37.5076 22.7486 37.4698 25.3961C37.4698 28.0627 35.5778 30.234 33.156 30.234Z" fill="#5865F2"/>
        </g>
    </g>
    <defs>
        <clipPath id="clip0_688_2403">
            <rect width="49" height="48" fill="white" transform="translate(0.5)"/>
        </clipPath>
    </defs>
</svg>
