<svg width="293" height="255" viewBox="0 0 293 255" fill="none" xmlns="http://www.w3.org/2000/svg">
<path d="M82.9547 91.2927C82.9647 91.2827 82.9847 91.2727 82.9947 91.2727C87.1847 89.3727 91.8947 88.3727 96.2247 87.6527C104.825 86.2227 113.165 91.2027 121.695 89.8227C123.455 89.5327 125.205 88.6927 126.185 87.2127C126.765 86.3427 127.055 85.3127 127.675 84.4827C130.265 81.0427 136.865 81.9227 140.495 82.3727C146.965 83.1827 153.625 86.4327 158.265 91.1527C157.255 92.5827 156.305 94.0527 155.465 95.6127C154.615 97.2327 153.875 98.8627 153.185 100.533C152.165 103.063 151.245 105.653 150.605 108.323C148.805 107.913 138.125 105.573 124.655 105.713C124.655 105.693 124.655 105.683 124.655 105.663L124.635 105.213L124.195 105.233L118.785 105.493L118.355 105.513L118.385 105.933C118.385 105.943 118.385 105.953 118.385 105.963C115.145 106.183 111.805 106.583 108.435 107.193L108.455 106.773L107.935 106.903L100.025 108.833L99.7847 108.893L99.7247 109.133C99.7147 109.193 99.6947 109.243 99.6847 109.303C93.7447 111.113 87.9147 113.753 82.6147 117.523C79.3847 119.803 76.3447 122.503 73.5947 125.693C73.5947 125.693 65.5247 133.803 60.6347 141.723C56.1647 148.933 54.3447 155.993 63.6447 156.623L63.6647 156.613C67.3447 166.003 74.0947 174.573 80.5347 181.243C80.5647 181.273 80.5947 181.313 80.6347 181.343C81.7347 182.483 82.8247 183.573 83.8947 184.603C85.1747 185.863 86.4747 187.113 87.7847 188.353C89.0047 189.513 90.2447 190.653 91.5047 191.763C92.7747 192.883 94.0546 193.973 95.4646 194.963L96.1147 195.413C88.3947 195.613 82.5047 197.393 75.5847 200.543C68.8047 203.633 61.5246 205.963 54.0046 206.013C46.9746 206.053 45.2547 203.423 42.6547 197.253C41.1347 193.613 38.6646 190.183 35.2946 188.053C32.1046 186.043 28.6847 185.523 25.0147 185.853C24.9147 185.863 -3.45535 188.353 1.60465 166.533C5.45465 156.763 12.4447 148.253 23.5147 148.163C17.2947 141.353 18.1647 134.353 25.0147 128.293C28.8447 124.903 33.5546 121.853 38.2246 119.793C44.6546 116.963 49.7447 118.063 56.2747 119.013C59.1047 119.423 63.1147 119.983 66.3447 119.123C67.7447 118.753 69.0047 118.113 69.9447 117.083C70.2347 116.763 70.4847 116.403 70.6747 116.003C71.9547 113.363 71.2747 109.873 71.4947 107.043C71.8247 102.773 73.1347 98.8927 76.2247 95.8127C78.1447 93.8927 80.4547 92.4327 82.9547 91.2927Z" fill="url(#paint0_linear)"/>
<path d="M71.4946 107.043C71.2746 109.873 71.9546 113.363 70.6746 116.003C70.4846 116.403 70.2346 116.763 69.9446 117.083C69.0046 118.113 67.7446 118.753 66.3446 119.123C67.9246 114.723 68.7446 111.873 71.4946 107.043Z" fill="url(#paint1_linear)"/>
<path d="M73.5946 125.693C76.3446 122.503 79.3846 119.803 82.6146 117.523L83.7046 119.093C83.6746 119.183 83.6646 119.283 83.6746 119.313L83.6846 119.423L83.7046 119.643L83.8546 121.433L84.1546 125.013C85.1346 134.513 87.1846 143.973 90.9446 152.793C92.7546 157.233 95.0246 161.473 97.6946 165.443C100.385 169.413 103.415 173.143 107.175 176.193C109.955 178.883 112.365 181.993 114.805 185.033C117.225 188.103 119.575 191.233 121.915 194.363C126.585 200.643 131.175 206.983 135.695 213.373C132.635 212.583 129.485 211.613 126.275 210.463L126.305 210.423L121.835 205.993L119.605 203.773C118.875 203.023 118.205 202.213 117.495 201.443L113.265 196.783C111.905 195.183 110.615 193.533 109.295 191.903L107.315 189.463C106.665 188.633 106.075 187.773 105.455 186.933L101.755 181.843C99.4646 178.333 97.1046 174.873 94.9746 171.253C90.6046 164.113 86.6946 156.683 83.2246 149.053C79.7546 141.423 76.6746 133.593 74.3346 125.563L73.5946 125.693Z" fill="url(#paint2_linear)"/>
<path d="M74.9146 130.063C74.4446 128.633 74.0145 127.193 73.6045 125.753L74.3445 125.623L74.9146 130.063Z" fill="black"/>
<path d="M74.9145 130.063C77.0045 136.663 79.5445 143.113 82.3645 149.443C85.7645 157.143 89.7545 164.583 94.1245 171.773C96.2345 175.423 98.7145 178.833 101.055 182.333L104.845 187.393C105.475 188.223 106.095 189.083 106.755 189.903L108.775 192.323C113.975 198.893 119.975 204.773 126.145 210.413C120.845 208.523 115.355 206.123 109.685 203.123L109.715 203.083C104.305 198.243 99.7245 192.533 95.6445 186.553C91.5845 180.543 88.0345 174.193 85.1145 167.553C84.3445 165.913 83.7545 164.193 83.0545 162.523L82.0445 160.003C81.7345 159.153 81.4645 158.283 81.1745 157.423L79.4745 152.263L78.0845 147.013L77.3945 144.383C77.1545 143.503 77.0245 142.603 76.8445 141.723L75.8045 136.383L75.5445 135.053L75.3745 133.703L75.0345 131.013L74.9145 130.063Z" fill="url(#paint3_linear)"/>
<path d="M80.5346 181.243C74.0946 174.573 67.3446 166.003 63.6646 156.613C61.7946 151.863 60.7146 146.893 60.8646 141.863L60.6346 141.723C65.5246 133.803 73.5946 125.693 73.5946 125.693L73.6046 125.753L74.3146 131.113L74.6746 133.813L74.8646 135.163L75.1246 136.503L76.2046 141.863C76.3946 142.743 76.5346 143.653 76.7746 144.523L77.4846 147.163L78.9146 152.433L80.6646 157.603C80.9546 158.463 81.2246 159.333 81.5546 160.183L82.5746 162.713C83.2846 164.383 83.9046 166.103 84.6846 167.743C87.6646 174.383 91.2846 180.723 95.4046 186.713C99.5146 192.623 104.085 198.233 109.485 203.013C105.295 200.793 101.005 198.243 96.6346 195.333L96.0346 194.403C93.3446 190.243 90.7846 185.993 88.2846 181.703C85.7746 177.433 83.3846 173.093 81.1046 168.693C78.7746 164.323 76.6446 159.843 74.7246 155.283C73.7246 153.013 72.9046 150.683 72.0946 148.343L71.0446 144.783L70.2846 141.193L70.2646 141.093C70.0846 141.613 70.1146 141.983 70.0546 142.443C70.0146 142.873 70.0046 143.313 69.9746 143.743C69.9546 144.623 69.9446 145.493 69.9846 146.363C70.0246 148.113 70.2046 149.853 70.4246 151.583C70.8846 155.053 71.6646 158.463 72.6246 161.823L73.3746 164.333L74.2246 166.813C74.7646 168.483 75.4646 170.083 76.0846 171.713C76.7546 173.333 77.4946 174.913 78.1946 176.513L80.5246 181.213L80.5346 181.243Z" fill="url(#paint4_linear)"/>
<path d="M82.6144 117.523C87.9144 113.753 93.7444 111.113 99.6844 109.303C98.5944 113.833 98.5444 118.503 98.8644 123.083C99.2144 127.733 99.9844 132.333 100.954 136.873C101.944 141.423 103.154 145.913 104.524 150.353C105.664 154.033 106.904 157.673 108.294 161.273C105.604 158.393 103.234 155.213 101.024 151.933C98.3944 147.983 96.0144 143.853 93.8144 139.643C91.6144 135.423 89.5844 131.113 87.7144 126.743C86.7744 124.553 85.8644 122.353 85.0244 120.123L84.7044 119.293L84.6144 119.063C84.5644 118.923 84.3844 118.783 84.2244 118.773C84.0644 118.763 83.9244 118.813 83.8144 118.923C83.7644 118.963 83.7244 119.023 83.7044 119.093L82.6144 117.523Z" fill="url(#paint5_linear)"/>
<path d="M96.2245 87.6527C91.8945 88.3727 87.1846 89.3727 82.9946 91.2727C90.2946 86.2627 102.525 79.3027 119.055 75.8027C141.525 71.0527 160.025 75.2327 169.165 77.9827C167.815 79.5327 166.495 81.1027 165.165 82.6427C162.845 85.3427 160.475 88.0527 158.375 91.0027C158.335 91.0527 158.305 91.1027 158.265 91.1527C153.625 86.4327 146.965 83.1827 140.495 82.3727C136.865 81.9227 130.265 81.0427 127.675 84.4827C127.055 85.3127 126.765 86.3427 126.185 87.2127C125.205 88.6927 123.455 89.5327 121.695 89.8227C113.165 91.2027 104.825 86.2227 96.2245 87.6527Z" fill="url(#paint6_linear)"/>
<path d="M84.4245 119.273L84.4345 119.383L84.4545 119.603L84.5745 121.073C84.4745 120.853 84.3945 120.623 84.3045 120.393L83.9945 119.553L83.9245 119.373C83.9445 119.443 84.0545 119.533 84.1445 119.533C84.2245 119.533 84.2945 119.513 84.3545 119.453C84.4145 119.413 84.4345 119.253 84.4245 119.273Z" fill="black"/>
<path d="M92.0045 191.193C90.7445 190.093 89.4945 188.973 88.2645 187.833C85.8145 185.563 83.4045 183.243 81.0445 180.883L78.7045 176.273C77.9945 174.683 77.2345 173.113 76.5545 171.513C75.9245 169.893 75.1945 168.313 74.6445 166.663L73.7645 164.213L72.9845 161.713C71.9845 158.383 71.1645 154.993 70.6545 151.553C70.1645 148.133 69.9345 144.563 70.2645 141.193L70.7745 144.843L71.6745 148.473C72.3945 150.853 73.1545 153.223 74.0845 155.543C75.8745 160.193 77.9745 164.703 80.2245 169.143C84.4245 177.323 89.0845 185.233 94.0945 192.933C93.3845 192.373 92.6945 191.783 92.0045 191.193Z" fill="url(#paint7_linear)"/>
<path d="M94.7546 193.943C92.5046 192.223 88.4446 188.973 83.8946 184.603C82.7946 183.523 81.7146 182.443 80.6346 181.343C80.5946 181.313 80.5646 181.273 80.5346 181.243L80.5246 181.213L78.1946 176.513C77.4946 174.913 76.7546 173.333 76.0846 171.713C75.4646 170.083 74.7646 168.483 74.2246 166.813L73.3746 164.333L72.6246 161.823C71.6646 158.463 70.8846 155.053 70.4246 151.583C70.2046 149.853 70.0246 148.113 69.9846 146.363C69.9446 145.493 69.9546 144.623 69.9746 143.743C70.0046 143.313 70.0146 142.873 70.0546 142.443C70.1146 141.983 70.0846 141.613 70.2646 141.093L70.2846 141.193L70.2646 141.193C69.9346 144.563 70.1646 148.133 70.6546 151.553C71.1646 154.993 71.9846 158.383 72.9846 161.713L73.7646 164.213L74.6446 166.663C75.1946 168.313 75.9246 169.893 76.5546 171.513C77.2346 173.113 77.9946 174.683 78.7046 176.273L81.0446 180.883C83.4046 183.243 85.8146 185.563 88.2646 187.833C89.4946 188.973 90.7446 190.093 92.0046 191.193C92.6946 191.783 93.3846 192.373 94.0946 192.933C94.3146 193.273 94.5346 193.603 94.7546 193.943Z" fill="black"/>
<path d="M94.7545 193.943C94.5345 193.603 94.3145 193.273 94.0945 192.933C94.6945 193.403 95.2946 193.863 95.9146 194.283L95.6145 194.593C95.3745 194.413 95.0845 194.193 94.7545 193.943Z" fill="black"/>
<path d="M95.3545 194.853C95.1545 194.553 94.9545 194.243 94.7545 193.943C95.0845 194.193 95.3745 194.413 95.6145 194.593L95.3545 194.853Z" fill="black"/>
<path d="M94.0945 192.933C89.0845 185.233 84.4245 177.323 80.2245 169.143C77.9745 164.703 75.8745 160.193 74.0845 155.543C73.1545 153.223 72.3945 150.853 71.6745 148.473L70.7745 144.843L70.2645 141.193L70.2845 141.193L71.0445 144.783L72.0945 148.343C72.9045 150.683 73.7245 153.013 74.7245 155.283C76.6445 159.843 78.7745 164.323 81.1045 168.693C83.3845 173.093 85.7745 177.433 88.2845 181.703C90.7845 185.993 93.3445 190.243 96.0345 194.403L96.6345 195.333C96.6245 195.323 96.6145 195.323 96.6045 195.313C96.6045 195.313 96.2545 195.063 95.6145 194.593L95.9145 194.283C95.2945 193.863 94.6945 193.403 94.0945 192.933Z" fill="black"/>
<path d="M96.6045 195.313C96.6145 195.323 96.6246 195.323 96.6346 195.333L97.1646 196.153L96.1145 195.413L95.4645 194.963C94.0545 193.973 92.7745 192.883 91.5045 191.763C90.2445 190.653 89.0045 189.513 87.7845 188.353C86.4745 187.113 85.1745 185.863 83.8945 184.603C88.4445 188.973 92.5045 192.223 94.7545 193.943C94.9545 194.243 95.1545 194.553 95.3545 194.853L95.6145 194.593C96.2545 195.063 96.6045 195.313 96.6045 195.313Z" fill="black"/>
<path d="M100.225 109.633L100.525 109.333C100.505 109.413 100.485 109.493 100.475 109.573L100.225 109.633Z" fill="black"/>
<path d="M95.6446 186.553C99.7246 192.533 104.305 198.243 109.715 203.083L109.685 203.123C109.625 203.093 109.555 203.053 109.485 203.013C104.085 198.233 99.5146 192.623 95.4046 186.713C91.2846 180.723 87.6646 174.383 84.6846 167.743C83.9046 166.103 83.2846 164.383 82.5746 162.713L81.5546 160.183C81.2246 159.333 80.9546 158.463 80.6646 157.603L78.9146 152.433L77.4846 147.163L76.7746 144.523C76.5346 143.653 76.3946 142.743 76.2046 141.863L75.1246 136.503L74.8646 135.163L74.6746 133.813L74.3146 131.113L73.6046 125.753C74.0146 127.193 74.4446 128.633 74.9146 130.063L75.0346 131.013L75.3746 133.703L75.5446 135.053L75.8046 136.383L76.8446 141.723C77.0246 142.603 77.1546 143.503 77.3946 144.383L78.0846 147.013L79.4746 152.263L81.1746 157.423C81.4646 158.283 81.7346 159.153 82.0446 160.003L83.0546 162.523C83.7546 164.193 84.3446 165.913 85.1146 167.553C88.0346 174.193 91.5846 180.543 95.6446 186.553Z" fill="black"/>
<path d="M107.625 107.783C107.625 107.633 107.635 107.483 107.645 107.333C107.675 107.333 107.695 107.323 107.725 107.323L108.125 107.663L107.625 107.783Z" fill="black"/>
<path d="M107.645 107.333C107.645 107.303 107.645 107.283 107.645 107.253L107.725 107.323C107.695 107.323 107.675 107.333 107.645 107.333Z" fill="black"/>
<path d="M100.025 108.833L107.935 106.903L108.455 106.773L108.435 107.193C108.195 107.233 107.965 107.273 107.725 107.323L107.645 107.253C107.645 107.283 107.645 107.303 107.645 107.333C104.995 107.843 102.325 108.493 99.6846 109.303C99.6946 109.243 99.7146 109.193 99.7246 109.133L99.7846 108.893L100.025 108.833Z" fill="black"/>
<path d="M100.225 109.633L100.475 109.573C99.4446 113.943 99.4146 118.513 99.7446 123.013C100.095 127.613 100.875 132.173 101.865 136.673C102.875 141.183 104.085 145.643 105.465 150.053C106.835 154.403 108.305 158.733 109.975 162.953L109.935 162.973C109.375 162.423 108.825 161.853 108.295 161.273C106.905 157.673 105.665 154.033 104.525 150.353C103.155 145.913 101.945 141.423 100.955 136.873C99.9846 132.333 99.2146 127.733 98.8646 123.083C98.5446 118.503 98.5946 113.833 99.6846 109.303C102.325 108.493 104.995 107.843 107.645 107.333C107.635 107.483 107.625 107.633 107.625 107.783L100.475 109.573C100.485 109.493 100.505 109.413 100.525 109.333L100.225 109.633Z" fill="black"/>
<path d="M109.814 136.513C108.594 126.833 107.984 117.033 108.424 107.313L108.434 107.193C111.804 106.583 115.144 106.183 118.384 105.963C118.774 111.123 119.404 116.263 120.494 121.323C121.574 126.383 122.864 131.403 124.494 136.313C126.104 141.233 127.914 146.083 129.934 150.843C131.974 155.583 134.164 160.253 136.644 164.793L140.264 172.843C141.664 175.433 142.984 178.073 144.464 180.613L146.814 184.353L147.984 186.223L149.294 188.003L151.904 191.563L154.764 194.923C158.674 199.323 163.014 203.363 167.914 206.633C170.384 208.243 172.914 209.763 175.614 210.933C178.244 212.113 180.974 213.103 183.824 213.603C179.694 214.713 174.994 215.653 169.794 216.183L169.794 216.173C165.474 213.853 161.564 210.843 158.004 207.493C154.454 204.133 151.194 200.463 148.274 196.543C145.324 192.643 142.594 188.583 140.074 184.393C137.574 180.193 135.244 175.883 133.054 171.513C128.734 162.733 124.884 153.723 121.524 144.533C118.164 135.353 115.164 126.013 112.694 116.563L111.724 116.733L111.734 116.803L113.604 130.643C113.734 131.803 113.944 132.953 114.164 134.103L114.804 137.553L116.084 144.453C116.284 145.613 116.554 146.743 116.834 147.883L117.654 151.293L119.294 158.123L121.334 164.843L122.354 168.193C122.674 169.323 123.144 170.403 123.534 171.503L125.994 178.083C126.914 180.233 127.894 182.353 128.844 184.493C129.734 186.663 130.944 188.683 132.014 190.763C132.584 191.783 133.084 192.843 133.704 193.843L135.574 196.813C136.224 197.783 136.784 198.813 137.494 199.743L139.594 202.563L140.644 203.973L141.794 205.303C142.564 206.183 143.314 207.073 144.104 207.943L146.604 210.403C147.434 211.233 148.374 211.933 149.254 212.703C151.084 214.133 152.984 215.533 155.124 216.473C151.994 216.303 148.744 215.953 145.384 215.413C139.164 207.863 133.464 199.883 128.464 191.483C125.954 187.293 123.594 183.013 121.414 178.643C120.314 176.463 119.274 174.253 118.284 172.023C117.794 170.903 117.284 169.783 116.884 168.653L115.824 165.153C114.404 160.483 113.274 155.723 112.224 150.963C111.284 146.163 110.404 141.363 109.814 136.513Z" fill="url(#paint8_linear)"/>
<path d="M109.155 163.503C108.855 162.763 108.565 162.023 108.295 161.273C108.825 161.853 109.375 162.423 109.935 162.973L109.155 163.503Z" fill="black"/>
<path d="M109.485 203.013C109.555 203.053 109.625 203.093 109.685 203.123L109.655 203.163C109.595 203.113 109.545 203.063 109.485 203.013Z" fill="black"/>
<path d="M110.045 163.133L110.895 165.273L109.265 163.663C109.215 163.613 109.175 163.573 109.135 163.523L109.155 163.503L109.935 162.973L109.975 162.953C109.995 163.013 110.025 163.073 110.045 163.133Z" fill="black"/>
<path d="M111.735 116.803L112.705 116.633L113.635 123.703C112.975 121.413 112.335 119.113 111.735 116.803Z" fill="black"/>
<path d="M118.825 106.333L119.205 105.903C119.215 105.903 119.225 105.903 119.225 105.903C119.235 106.043 119.245 106.173 119.255 106.313L118.825 106.333Z" fill="black"/>
<path d="M119.205 105.903L119.225 105.883C119.225 105.893 119.225 105.893 119.225 105.903C119.225 105.903 119.215 105.903 119.205 105.903Z" fill="black"/>
<path d="M119.254 106.313C119.244 106.173 119.234 106.043 119.224 105.903C120.774 105.813 122.294 105.753 123.784 105.723C123.794 105.853 123.804 105.993 123.814 106.123L119.254 106.313Z" fill="black"/>
<path d="M121.834 205.993L126.304 210.423L126.274 210.463C126.234 210.453 126.184 210.433 126.144 210.413C119.974 204.773 113.974 198.893 108.774 192.323L106.754 189.903C106.094 189.083 105.474 188.223 104.844 187.393L101.054 182.333C98.7144 178.833 96.2344 175.423 94.1244 171.773C89.7544 164.583 85.7644 157.143 82.3644 149.443C79.5444 143.113 77.0045 136.663 74.9145 130.063L74.3444 125.623L73.6044 125.753L73.5944 125.693L74.3344 125.563C76.6744 133.593 79.7544 141.423 83.2244 149.053C86.6944 156.683 90.6044 164.113 94.9744 171.253C97.1044 174.873 99.4644 178.333 101.754 181.843L105.454 186.933C106.074 187.773 106.664 188.633 107.314 189.463L109.294 191.903C110.614 193.533 111.904 195.183 113.264 196.783L117.494 201.443C118.204 202.213 118.874 203.023 119.604 203.773L121.834 205.993Z" fill="black"/>
<path d="M122.135 194.213C126.735 200.543 131.245 206.933 135.695 213.373C131.175 206.983 126.585 200.643 121.915 194.363C119.575 191.233 117.225 188.103 114.805 185.033C112.365 181.993 109.955 178.883 107.175 176.193C103.415 173.143 100.385 169.413 97.6946 165.443C95.0246 161.473 92.7546 157.233 90.9446 152.793C87.1846 143.973 85.1346 134.513 84.1546 125.013L83.8546 121.433L83.7046 119.643L83.6846 119.423L83.6746 119.313C83.6646 119.283 83.6746 119.183 83.7046 119.093C83.7246 119.023 83.7646 118.963 83.8146 118.923C83.9246 118.813 84.0646 118.763 84.2246 118.773C84.3846 118.783 84.5646 118.923 84.6146 119.063L84.7046 119.293L85.0246 120.123C85.8646 122.353 86.7746 124.553 87.7146 126.743C89.5846 131.113 91.6146 135.423 93.8146 139.643C96.0146 143.853 98.3946 147.983 101.025 151.933C103.235 155.213 105.605 158.393 108.295 161.273C108.565 162.023 108.855 162.763 109.155 163.503L109.135 163.523C105.755 160.163 102.885 156.363 100.275 152.433C97.6346 148.433 95.2546 144.273 93.0646 140.033C90.8646 135.783 88.8546 131.443 86.9846 127.053C86.1446 125.063 85.3346 123.083 84.5746 121.073L84.4546 119.603L84.4346 119.383L84.4246 119.273C84.4346 119.253 84.4146 119.413 84.3546 119.453C84.2946 119.513 84.2246 119.533 84.1446 119.533C84.0546 119.533 83.9446 119.443 83.9246 119.373L83.9946 119.553L84.3046 120.393C84.3946 120.623 84.4746 120.853 84.5746 121.073L84.5946 121.383L84.8846 124.933C85.8246 134.383 87.8246 143.793 91.5246 152.553C93.2946 156.963 95.5346 161.183 98.1646 165.133C100.805 169.063 103.835 172.813 107.485 175.793L107.505 175.803C108.955 177.173 110.235 178.663 111.475 180.183C112.725 181.693 113.925 183.243 115.115 184.793C117.505 187.893 119.825 191.043 122.135 194.213Z" fill="black"/>
<path d="M122.135 194.213C119.825 191.043 117.505 187.893 115.115 184.793C113.925 183.243 112.725 181.693 111.475 180.183C110.235 178.663 108.955 177.173 107.505 175.803L107.485 175.793C103.835 172.813 100.805 169.063 98.1645 165.133C95.5345 161.183 93.2945 156.963 91.5245 152.553C87.8245 143.793 85.8245 134.383 84.8845 124.933L84.5945 121.383L84.5745 121.073C85.3345 123.083 86.1445 125.063 86.9845 127.053C88.8545 131.443 90.8645 135.783 93.0645 140.033C95.2545 144.273 97.6345 148.433 100.275 152.433C102.885 156.363 105.755 160.163 109.135 163.523C109.175 163.573 109.215 163.613 109.265 163.663L110.895 165.273L110.045 163.133C110.025 163.073 109.995 163.013 109.975 162.953C108.305 158.733 106.835 154.403 105.465 150.053C104.085 145.643 102.875 141.183 101.865 136.673C100.875 132.173 100.095 127.613 99.7445 123.013C99.4145 118.513 99.4445 113.943 100.475 109.573L107.625 107.783C107.245 117.433 107.905 127.053 109.145 136.603C109.755 141.463 110.665 146.283 111.625 151.083C112.695 155.863 113.845 160.633 115.295 165.313L116.375 168.833C116.795 170.003 117.295 171.113 117.795 172.233C118.805 174.473 119.855 176.683 120.965 178.863C123.195 183.223 125.615 187.493 128.175 191.663C133.285 200.013 139.075 207.933 145.385 215.413C142.255 214.913 139.015 214.243 135.695 213.373C131.245 206.933 126.735 200.543 122.135 194.213Z" fill="url(#paint9_linear)"/>
<path d="M123.784 105.723C123.784 105.703 123.784 105.693 123.784 105.673L123.834 105.723C123.814 105.723 123.804 105.723 123.784 105.723Z" fill="black"/>
<path d="M123.815 106.123C123.805 105.993 123.795 105.853 123.785 105.723C123.805 105.723 123.815 105.723 123.835 105.723L124.235 106.103L123.815 106.123Z" fill="black"/>
<path d="M124.655 105.713C124.385 105.713 124.105 105.723 123.835 105.723L123.785 105.673C123.785 105.693 123.785 105.703 123.785 105.723C122.295 105.753 120.775 105.813 119.225 105.903C119.225 105.893 119.225 105.893 119.225 105.883L119.205 105.903C118.935 105.923 118.665 105.943 118.385 105.963C118.385 105.953 118.385 105.943 118.385 105.933L118.355 105.513L118.785 105.493L124.195 105.233L124.635 105.213L124.655 105.663C124.655 105.683 124.655 105.693 124.655 105.713Z" fill="black"/>
<path d="M126.145 210.413C126.185 210.433 126.235 210.453 126.275 210.463L126.245 210.503C126.215 210.473 126.175 210.443 126.145 210.413Z" fill="black"/>
<path d="M128.175 191.663C125.615 187.493 123.195 183.223 120.965 178.863C119.855 176.683 118.805 174.473 117.795 172.233C117.295 171.113 116.795 170.003 116.375 168.833L115.295 165.313C113.845 160.633 112.695 155.863 111.625 151.083C110.665 146.283 109.755 141.463 109.145 136.603C107.905 127.053 107.245 117.433 107.625 107.783L108.125 107.663L107.725 107.323C107.965 107.273 108.195 107.233 108.435 107.193L108.425 107.313C107.985 117.033 108.595 126.833 109.815 136.513C110.405 141.363 111.285 146.163 112.225 150.963C113.275 155.723 114.405 160.483 115.825 165.153L116.885 168.653C117.285 169.783 117.795 170.903 118.285 172.023C119.275 174.253 120.315 176.463 121.415 178.643C123.595 183.013 125.955 187.293 128.465 191.483C133.465 199.883 139.165 207.863 145.385 215.413C139.075 207.933 133.285 200.013 128.175 191.663Z" fill="black"/>
<path d="M137.844 199.513C137.144 198.573 136.604 197.533 135.974 196.553L134.154 193.573C133.544 192.583 133.054 191.523 132.504 190.493C131.454 188.413 130.274 186.403 129.404 184.233C128.484 182.093 127.524 179.973 126.624 177.823L124.244 171.253C123.874 170.153 123.404 169.073 123.104 167.953L122.114 164.593L120.124 157.893L118.514 151.093L117.704 147.693C117.424 146.563 117.154 145.423 116.974 144.273L115.714 137.393L115.094 133.953C114.874 132.803 114.664 131.663 114.534 130.503L113.634 123.703C115.724 130.843 118.094 137.883 120.664 144.853C124.084 154.053 127.914 163.103 132.354 171.863C134.594 176.233 136.974 180.533 139.524 184.723C142.094 188.903 144.874 192.963 147.874 196.853C150.874 200.733 154.214 204.363 157.834 207.673C161.464 210.973 165.434 213.923 169.794 216.173L169.794 216.183C165.274 216.633 160.374 216.783 155.124 216.473C152.994 215.503 151.134 214.073 149.324 212.603C148.464 211.823 147.534 211.113 146.724 210.273L144.274 207.773C143.504 206.903 142.774 205.993 142.014 205.113L140.894 203.773L139.874 202.353L137.844 199.513Z" fill="url(#paint10_linear)"/>
<path d="M146.605 210.403L144.105 207.943C143.315 207.073 142.565 206.183 141.795 205.303L140.645 203.973L139.595 202.563L137.495 199.743C136.785 198.813 136.225 197.783 135.575 196.813L133.705 193.843C133.085 192.843 132.585 191.783 132.015 190.763C130.945 188.683 129.735 186.663 128.845 184.493C127.895 182.353 126.915 180.233 125.995 178.083L123.535 171.503C123.145 170.403 122.675 169.323 122.355 168.193L121.335 164.843L119.295 158.123L117.655 151.293L116.835 147.883C116.555 146.743 116.285 145.613 116.085 144.453L114.805 137.553L114.165 134.103C113.945 132.953 113.735 131.803 113.605 130.643L111.735 116.803C112.335 119.113 112.975 121.413 113.635 123.703L114.535 130.503C114.665 131.663 114.875 132.803 115.095 133.953L115.715 137.393L116.975 144.273C117.155 145.423 117.425 146.563 117.705 147.693L118.515 151.093L120.125 157.893L122.115 164.593L123.105 167.953C123.405 169.073 123.875 170.153 124.245 171.253L126.625 177.823C127.525 179.973 128.485 182.093 129.405 184.233C130.275 186.403 131.455 188.413 132.505 190.493C133.055 191.523 133.545 192.583 134.155 193.573L135.975 196.553C136.605 197.533 137.145 198.573 137.845 199.513L139.875 202.353L140.895 203.773L142.015 205.113C142.775 205.993 143.505 206.903 144.275 207.773L146.725 210.273C147.535 211.113 148.465 211.823 149.325 212.603C151.135 214.073 152.995 215.503 155.125 216.473C152.985 215.533 151.085 214.133 149.255 212.703C148.375 211.933 147.435 211.233 146.605 210.403Z" fill="black"/>
<path d="M158.285 91.1727C158.285 91.1827 152.825 100.193 150.875 108.393C150.875 108.393 150.785 108.373 150.605 108.323C151.245 105.653 152.165 103.063 153.185 100.533C153.875 98.8627 154.615 97.2327 155.465 95.6127C156.305 94.0527 157.255 92.5827 158.265 91.1527C158.275 91.1627 158.275 91.1627 158.285 91.1727Z" fill="black"/>
<path d="M148.274 196.543C151.194 200.463 154.454 204.133 158.004 207.493C161.564 210.843 165.474 213.853 169.794 216.173C165.434 213.923 161.464 210.973 157.834 207.673C154.214 204.363 150.874 200.733 147.874 196.853C144.874 192.963 142.094 188.903 139.524 184.723C136.974 180.533 134.594 176.233 132.354 171.863C127.914 163.103 124.084 154.053 120.664 144.853C118.094 137.883 115.724 130.843 113.634 123.703L112.704 116.633L111.734 116.803L111.724 116.733L112.694 116.563C115.164 126.013 118.164 135.353 121.524 144.533C124.884 153.723 128.734 162.733 133.054 171.513C135.244 175.883 137.574 180.193 140.074 184.393C142.594 188.583 145.324 192.643 148.274 196.543Z" fill="black"/>
<path d="M163.755 135.503C162.695 136.913 161.595 138.223 160.845 139.763C160.065 141.253 159.305 142.793 158.905 144.463C158.475 146.123 158.255 147.853 158.235 149.583C158.205 151.313 158.335 153.063 158.705 154.763L158.605 154.793C157.635 151.413 157.425 147.793 158.125 144.283C158.435 142.533 159.025 140.783 159.985 139.253C160.235 138.883 160.475 138.503 160.745 138.143C161.045 137.803 161.335 137.463 161.645 137.143C162.235 136.463 162.995 135.963 163.695 135.423L163.755 135.503Z" fill="black"/>
<path d="M165.145 13.3027C164.155 13.8327 163.215 14.4527 162.315 15.1427C163.925 13.7527 165.745 12.5727 167.715 11.7027C167.495 11.8127 167.275 11.9327 167.055 12.0627C166.395 12.4527 165.755 12.8527 165.145 13.3027Z" fill="black"/>
<path d="M175.675 210.793C178.345 212.003 181.125 213.033 184.005 213.533L184.005 213.553C183.945 213.563 183.885 213.583 183.825 213.603C180.975 213.103 178.245 212.113 175.615 210.933C172.915 209.763 170.385 208.243 167.915 206.633C163.015 203.363 158.675 199.323 154.765 194.923L151.905 191.563L149.295 188.003L147.985 186.223L146.815 184.353L144.465 180.613C142.985 178.073 141.665 175.433 140.265 172.843L136.645 164.793C134.165 160.253 131.975 155.583 129.935 150.843C127.915 146.083 126.105 141.233 124.495 136.313C122.865 131.403 121.575 126.383 120.495 121.323C119.405 116.263 118.775 111.123 118.385 105.963C118.665 105.943 118.935 105.923 119.205 105.903L118.825 106.333L119.255 106.313C119.605 111.303 120.205 116.273 121.235 121.173C122.295 126.203 123.545 131.213 125.145 136.103C126.725 141.013 128.505 145.853 130.495 150.603C132.505 155.343 134.685 160.033 137.125 164.553L137.135 164.573L137.145 164.583L140.705 172.633C142.085 175.213 143.385 177.853 144.845 180.393L147.155 184.133L148.315 186.003L149.605 187.783L152.175 191.353L155.005 194.713C158.865 199.113 163.175 203.173 168.035 206.463C170.475 208.073 172.995 209.603 175.675 210.793Z" fill="black"/>
<path d="M177.005 123.203C179.945 122.403 182.975 121.963 186.005 121.863C186.045 121.903 186.075 121.953 186.115 121.993C184.665 122.153 183.234 122.413 181.814 122.723C180.264 123.053 178.724 123.453 177.234 123.973C175.754 124.503 174.334 125.163 172.924 125.823C171.514 126.493 170.184 127.263 168.854 128.183L168.775 128.113C169.735 126.793 171.054 125.763 172.464 124.933C173.884 124.113 175.455 123.643 177.005 123.203Z" fill="black"/>
<path d="M135.875 141.383C135.875 141.373 135.865 141.373 135.865 141.363L135.875 141.383ZM171.215 185.743C176.115 189.473 181.645 192.483 187.675 193.943C187.635 193.983 187.605 194.013 187.585 194.043C184.645 193.403 181.805 192.373 179.085 191.083C176.205 189.723 173.475 188.043 170.915 186.143C165.765 182.373 161.205 177.873 156.995 173.093C152.805 168.303 148.985 163.183 145.465 157.883C141.945 152.583 138.735 147.103 135.875 141.393C135.115 140.003 134.335 138.633 133.595 137.243C132.905 135.823 132.135 134.433 131.495 132.983C130.145 130.123 128.945 127.193 127.865 124.213C126.825 121.223 125.905 118.183 125.195 115.093C124.525 112.143 123.975 109.183 123.815 106.123L124.235 106.103L123.835 105.723C124.105 105.723 124.385 105.713 124.655 105.713C124.815 108.763 125.385 111.873 126.095 114.883C126.825 117.933 127.745 120.933 128.795 123.883C129.865 126.823 131.055 129.733 132.395 132.563C133.035 133.993 133.785 135.373 134.475 136.773C135.215 138.163 135.985 139.523 136.745 140.903L136.755 140.923L136.755 140.933C139.575 146.583 142.825 152.043 146.245 157.363C149.695 162.683 153.425 167.813 157.545 172.623C161.665 177.423 166.145 181.943 171.215 185.743Z" fill="black"/>
<path d="M183.825 213.603C183.885 213.583 183.945 213.563 184.005 213.553L183.995 213.633C183.935 213.623 183.885 213.613 183.825 213.603Z" fill="black"/>
<path d="M186.085 201.733C185.095 201.503 184.125 201.263 183.145 201.003C179.715 200.083 176.355 198.893 173.085 197.513C171.465 196.773 169.835 196.063 168.295 195.173C167.505 194.743 166.725 194.333 165.965 193.823C165.195 193.333 164.455 192.873 163.725 192.393C164.275 193.973 165.185 195.413 166.245 196.703C166.735 197.383 167.355 197.953 167.925 198.573C168.535 199.143 169.165 199.713 169.805 200.253C172.425 202.363 175.465 203.923 178.595 205.103C180.155 205.773 181.785 206.173 183.395 206.663C185.015 207.083 186.675 207.373 188.315 207.703C189.985 207.913 191.645 208.163 193.315 208.333L197.465 208.593C194.125 210.183 189.585 212.033 184.005 213.553L184.005 213.533C181.125 213.033 178.345 212.003 175.675 210.793C172.995 209.603 170.475 208.073 168.035 206.463C163.175 203.173 158.865 199.113 155.005 194.713L152.175 191.353L149.605 187.783L148.315 186.003L147.155 184.133L144.845 180.393C143.385 177.853 142.085 175.213 140.705 172.633L137.145 164.583L137.135 164.573L137.125 164.553C134.685 160.033 132.505 155.343 130.495 150.603C128.505 145.853 126.725 141.013 125.145 136.103C123.545 131.213 122.295 126.203 121.235 121.173C120.205 116.273 119.605 111.303 119.255 106.313L123.815 106.123C123.975 109.183 124.525 112.143 125.195 115.093C125.905 118.183 126.825 121.223 127.865 124.213C128.945 127.193 130.145 130.123 131.495 132.983C132.135 134.433 132.905 135.823 133.595 137.243C134.335 138.633 135.115 140.003 135.875 141.393C138.735 147.103 141.945 152.583 145.465 157.883C148.985 163.183 152.805 168.303 156.995 173.093C161.205 177.873 165.765 182.373 170.915 186.143C173.475 188.043 176.205 189.723 179.085 191.083C181.805 192.373 184.645 193.403 187.585 194.043C186.985 194.743 186.435 195.483 185.965 196.303C185.785 196.643 185.605 197.003 185.475 197.393C185.355 197.793 185.245 198.243 185.375 198.783C185.505 199.333 186.055 199.773 186.515 199.853L186.085 201.733Z" fill="url(#paint11_linear)"/>
<path d="M186.005 121.863C186.175 121.853 186.345 121.843 186.515 121.843L186.515 121.943C186.385 121.953 186.245 121.973 186.115 121.993C186.075 121.953 186.045 121.903 186.005 121.863Z" fill="black"/>
<path d="M180.615 111.073C182.695 117.233 186.635 122.753 191.735 126.893L191.615 127.053C189.625 125.563 187.775 123.863 186.115 121.993C186.245 121.973 186.385 121.953 186.515 121.943L186.515 121.843C186.345 121.843 186.175 121.853 186.005 121.863C183.315 118.793 181.145 115.263 179.675 111.413C177.225 105.153 176.925 98.2727 177.325 91.6927C177.465 88.3827 177.765 85.0327 178.475 81.7327C178.845 80.0827 179.295 78.4427 179.945 76.8627C180.615 75.2827 181.315 73.8127 182.065 72.3227C183.575 69.3727 185.225 66.4827 186.905 63.6727C188.535 60.8327 190.035 57.9027 191.585 54.9827L191.765 55.0627C190.695 58.1927 189.495 61.2727 188.085 64.2827C186.675 67.2827 185.195 70.1927 183.845 73.1827C183.165 74.6527 182.455 76.1627 181.865 77.6327C181.295 79.1027 180.785 80.6227 180.415 82.1827C179.625 85.3027 179.205 88.5327 178.935 91.7927C178.335 98.2927 178.435 104.913 180.615 111.073Z" fill="black"/>
<path d="M193.555 203.243C191.045 202.833 188.555 202.323 186.085 201.733L186.515 199.853C186.985 199.973 187.395 199.943 187.785 199.903C189.315 199.693 190.675 199.213 192.075 198.783L196.215 197.443C198.805 196.623 201.405 195.853 204.035 195.173C204.055 198.253 204.105 201.323 204.135 204.383C200.605 204.223 197.065 203.813 193.555 203.243Z" fill="url(#paint12_linear)"/>
<path d="M188.105 194.153C187.935 194.113 187.755 194.083 187.585 194.043C187.605 194.013 187.635 193.983 187.675 193.943C187.825 193.983 187.975 194.023 188.125 194.053L188.105 194.153Z" fill="black"/>
<path d="M191.765 49.2027C188.815 55.8027 184.965 61.9327 180.635 67.6727C179.525 69.0927 178.425 70.5027 177.235 71.8727C176.025 73.2527 174.785 74.5127 173.595 75.8227C171.195 78.4427 168.895 81.1427 166.535 83.8327C164.185 86.5127 161.835 89.1727 159.775 92.0127C158.745 93.4327 157.785 94.9027 156.925 96.4127C156.085 97.9327 155.305 99.5327 154.595 101.133C153.195 104.363 151.975 107.693 151.325 111.133C150.625 114.573 150.425 118.113 150.605 121.633C150.915 128.703 152.795 135.673 155.595 142.223C152.385 135.853 150.285 128.873 149.625 121.703C149.335 118.113 149.455 114.473 150.085 110.903C150.225 110.033 150.405 109.173 150.605 108.323C150.785 108.373 150.875 108.393 150.875 108.393C152.825 100.193 158.285 91.1827 158.285 91.1727C158.275 91.1627 158.275 91.1627 158.265 91.1527C158.305 91.1027 158.335 91.0527 158.375 91.0027C160.475 88.0527 162.845 85.3427 165.165 82.6427C166.495 81.1027 167.815 79.5327 169.165 77.9827C170.155 76.8227 171.165 75.6727 172.185 74.5427C173.375 73.2027 174.625 71.9127 175.755 70.5927C176.895 69.2727 177.965 67.8527 179.045 66.4527C183.345 60.8527 187.175 54.8627 190.105 48.4627C190.835 46.8627 191.495 45.2227 192.035 43.5827C192.285 42.8027 192.475 41.9027 192.695 41.0727C192.875 40.2127 193.065 39.3527 193.225 38.4927C193.805 35.0527 194.075 31.5427 193.675 28.0927C193.225 24.6827 192.155 21.2927 190.115 18.5027C188.105 15.7127 185.325 13.3827 182.215 11.9227C179.065 10.5327 175.385 10.3927 171.935 10.8827C169.565 11.2827 167.265 12.1127 165.145 13.3027C165.755 12.8527 166.395 12.4527 167.055 12.0627C167.275 11.9327 167.495 11.8127 167.715 11.7027C169.035 11.1127 170.415 10.6627 171.835 10.3627C173.605 9.99273 175.425 9.90272 177.225 9.94272C179.045 10.0027 180.875 10.3527 182.595 11.0227C183.445 11.3527 184.285 11.7727 185.045 12.2827C185.795 12.7927 186.605 13.2327 187.285 13.8427L188.345 14.7127C188.695 15.0027 189.005 15.3527 189.335 15.6727C190.005 16.3027 190.565 17.0327 191.135 17.7527C193.395 20.6827 194.635 24.2827 195.205 27.8927C195.725 31.5327 195.525 35.2127 194.925 38.7927C194.775 39.6827 194.585 40.5727 194.405 41.4627C194.175 42.3527 194.005 43.1927 193.725 44.1227C193.165 45.8727 192.495 47.5527 191.765 49.2027Z" fill="black"/>
<path d="M187.685 186.553C181.995 186.043 176.545 183.483 172.425 179.593L170.885 178.133L169.485 176.533C168.515 175.513 167.755 174.313 166.895 173.203C166.095 172.043 165.395 170.813 164.645 169.633C163.985 168.393 163.345 167.143 162.705 165.903L164.875 169.493C165.685 170.633 166.435 171.813 167.295 172.913C168.185 173.983 168.965 175.143 169.965 176.113L171.385 177.633L172.935 179.023C175.045 180.793 177.305 182.443 179.845 183.513C182.355 184.633 185.035 185.333 187.775 185.563C192.205 186.003 196.665 185.183 200.885 183.693C199.835 184.283 198.795 184.903 197.785 185.563C194.505 186.443 191.105 186.843 187.685 186.553Z" fill="black"/>
<path d="M193.415 204.133C196.405 204.643 199.405 205.043 202.445 205.273L198.235 207.673L193.395 207.413C191.745 207.263 190.105 207.033 188.455 206.843C186.835 206.523 185.205 206.243 183.595 205.863C182.005 205.413 180.385 205.053 178.845 204.443C177.265 203.943 175.785 203.213 174.285 202.513L172.125 201.293C171.435 200.843 170.765 200.363 170.075 199.903C169.425 199.393 168.785 198.863 168.155 198.333C167.575 197.743 166.945 197.203 166.425 196.553C165.335 195.313 164.365 193.933 163.725 192.393C165.265 193.433 166.565 194.533 168.165 195.393C169.675 196.353 171.285 197.133 172.885 197.943C176.145 199.433 179.505 200.703 182.945 201.723C186.375 202.743 189.875 203.523 193.415 204.133Z" fill="url(#paint13_linear)"/>
<path d="M198.104 207.753L198.234 207.673L198.354 207.683L198.104 207.753Z" fill="black"/>
<path d="M203.425 205.333C202.545 205.893 200.825 206.933 198.345 208.163C198.065 208.303 197.765 208.443 197.465 208.593L193.315 208.333C191.645 208.163 189.985 207.913 188.315 207.703C186.675 207.373 185.015 207.083 183.395 206.663C181.785 206.173 180.155 205.773 178.595 205.103C175.465 203.923 172.425 202.363 169.805 200.253C169.165 199.713 168.535 199.143 167.925 198.573C167.355 197.953 166.735 197.383 166.245 196.703C165.185 195.413 164.275 193.973 163.725 192.393C164.365 193.933 165.335 195.313 166.425 196.553C166.945 197.203 167.575 197.743 168.155 198.333C168.785 198.863 169.425 199.393 170.075 199.903C170.765 200.363 171.435 200.843 172.125 201.293L174.285 202.513C175.785 203.213 177.265 203.943 178.845 204.443C180.385 205.053 182.005 205.413 183.595 205.863C185.205 206.243 186.835 206.523 188.455 206.843C190.105 207.033 191.745 207.263 193.395 207.413L198.235 207.673L198.105 207.753L198.355 207.683L198.235 207.673L202.445 205.273C202.775 205.293 203.095 205.313 203.425 205.333Z" fill="black"/>
<path d="M201.035 247.273C200.665 248.273 200.265 249.263 199.835 250.233L199.655 250.153C199.945 249.403 200.205 248.643 200.455 247.873C200.645 247.643 200.845 247.443 201.035 247.273Z" fill="black"/>
<path d="M203.425 205.333C203.095 205.313 202.775 205.293 202.445 205.273L203.875 204.453L204.005 204.963C203.895 205.023 203.705 205.153 203.425 205.333Z" fill="black"/>
<path d="M203.884 182.513C202.904 182.943 201.894 183.333 200.884 183.693C203.744 182.063 206.734 180.653 209.814 179.463C207.904 180.603 205.924 181.633 203.884 182.513Z" fill="black"/>
<path d="M201.945 249.993C201.935 249.973 201.915 250.023 201.945 249.903C201.965 249.803 202.075 249.613 202.215 249.433C202.505 249.043 202.935 248.653 203.405 248.293C204.345 247.563 205.435 246.913 206.535 246.323C208.775 245.133 211.135 244.133 213.535 243.223C218.345 241.423 223.325 240.013 228.375 238.993C230.895 238.473 233.455 238.053 236.015 237.703C238.585 237.343 241.155 237.043 243.735 236.833C246.325 236.663 248.915 236.553 251.505 236.663C252.795 236.743 254.085 236.863 255.355 237.133C255.975 237.273 256.605 237.443 257.175 237.703C257.365 237.793 257.555 237.893 257.725 238.013C257.945 238.303 258.175 238.583 258.405 238.853C258.415 238.873 258.425 238.903 258.425 238.923C258.505 239.503 258.125 240.063 257.725 240.533C257.315 241.003 256.825 241.423 256.315 241.813C255.295 242.583 254.165 243.213 253.035 243.823C250.735 244.993 248.325 245.943 245.885 246.763C243.455 247.593 240.975 248.303 238.485 248.903C235.995 249.513 233.515 250.033 230.995 250.433C225.955 251.233 220.845 251.763 215.745 251.903C213.195 251.973 210.645 251.953 208.135 251.713C206.885 251.593 205.645 251.423 204.475 251.133C203.895 250.993 203.325 250.813 202.845 250.603C202.355 250.403 201.955 250.063 201.945 249.993Z" fill="#141414"/>
<path d="M204.004 204.963L204.104 205.373C203.874 205.363 203.654 205.353 203.424 205.333C203.704 205.153 203.894 205.023 204.004 204.963Z" fill="black"/>
<path d="M183.145 201.003C184.125 201.263 185.095 201.503 186.085 201.733C188.555 202.323 191.045 202.833 193.555 203.243C197.065 203.813 200.605 204.223 204.135 204.383C204.135 204.543 204.135 204.693 204.135 204.853L204.115 204.873C204.115 204.873 204.075 204.903 204.005 204.963L203.875 204.453L202.445 205.273C199.405 205.043 196.405 204.643 193.415 204.133C189.875 203.523 186.375 202.743 182.945 201.723C179.505 200.703 176.145 199.433 172.885 197.943C171.285 197.133 169.675 196.353 168.165 195.393C166.565 194.533 165.265 193.433 163.725 192.393C164.455 192.873 165.195 193.333 165.965 193.823C166.725 194.333 167.505 194.743 168.295 195.173C169.835 196.063 171.465 196.773 173.085 197.513C176.355 198.893 179.715 200.083 183.145 201.003Z" fill="black"/>
<path d="M204.034 195.173C204.034 195.163 204.034 195.153 204.034 195.133C204.214 195.093 204.384 195.063 204.564 195.033C204.384 195.083 204.214 195.123 204.034 195.173Z" fill="black"/>
<path d="M198.585 208.583L198.455 208.653L198.335 208.643L197.465 208.593C197.765 208.443 198.065 208.303 198.345 208.163C200.825 206.933 202.545 205.893 203.425 205.333C203.655 205.353 203.875 205.363 204.105 205.373L204.005 204.963C204.075 204.903 204.115 204.873 204.115 204.873L204.135 204.853C204.145 205.023 204.145 205.193 204.145 205.363C204.145 205.383 204.145 205.403 204.145 205.423L198.585 208.583Z" fill="black"/>
<path d="M204.135 204.853C204.135 204.693 204.135 204.543 204.135 204.383L204.725 204.413L204.135 204.853Z" fill="black"/>
<path d="M205.844 204.463L204.364 205.303L204.144 205.423C204.144 205.403 204.144 205.383 204.144 205.363C204.144 205.193 204.144 205.023 204.134 204.853L204.724 204.413L205.844 204.463Z" fill="black"/>
<path d="M201.345 102.323C202.515 109.493 205.385 116.343 209.475 122.403L209.315 122.523C207.095 119.593 205.205 116.413 203.685 113.053C202.145 109.703 201.005 106.143 200.315 102.513C199.595 98.8927 199.215 95.2027 199.165 91.4927C199.095 89.6527 199.265 87.7427 199.475 85.9227C199.695 84.0927 199.975 82.2827 200.245 80.4627L201.945 69.6027L202.855 64.1827C203.155 62.3627 203.525 60.5627 203.735 58.8027C204.145 55.1827 204.535 51.5627 204.565 47.9527C204.605 44.3427 204.355 40.7327 203.695 37.1827C202.275 30.1227 200.535 22.8527 196.225 17.0427C194.065 14.2027 191.245 11.8327 187.915 10.4627C184.595 9.09272 180.925 8.5727 177.325 8.8527C173.985 9.1327 170.675 10.0927 167.715 11.7027C165.745 12.5727 163.925 13.7527 162.315 15.1427L162.285 15.1227C162.315 15.0827 162.355 15.0427 162.385 15.0027C162.985 14.2827 163.665 13.6127 164.415 13.0527C165.165 12.4927 165.945 11.9927 166.755 11.5327C169.975 9.7027 173.565 8.5027 177.265 8.1627C180.965 7.8227 184.745 8.3427 188.225 9.6927C189.105 10.0227 189.915 10.4827 190.755 10.8927C191.185 11.1027 191.555 11.3927 191.955 11.6327C192.345 11.8927 192.755 12.1227 193.105 12.4327C194.615 13.5527 195.915 14.9227 197.115 16.3627C199.415 19.3227 201.105 22.7027 202.365 26.1827C202.995 27.9327 203.535 29.7027 204.025 31.4827C204.495 33.2627 204.985 35.0427 205.315 36.8827C206.745 44.2027 206.475 51.7427 205.485 59.0227C205.225 60.8927 204.845 62.6727 204.525 64.4727L203.575 69.8727L201.755 80.7027L200.925 86.1127C200.665 87.9327 200.465 89.6727 200.485 91.4927C200.445 95.1127 200.725 98.7527 201.345 102.323Z" fill="black"/>
<path d="M205.834 201.283C205.934 202.333 206.014 203.393 206.074 204.443L205.844 204.463L204.724 204.413L204.134 204.383C204.104 201.323 204.054 198.253 204.034 195.173C204.214 195.123 204.384 195.083 204.564 195.033C204.384 195.063 204.214 195.093 204.034 195.133C204.014 193.493 204.014 191.853 204.014 190.203L204.214 190.183C205.004 193.793 205.494 197.443 205.814 201.103C205.614 201.153 205.424 201.213 205.234 201.273L205.254 201.373C205.444 201.343 205.644 201.313 205.834 201.283Z" fill="black"/>
<path d="M205.254 201.373L205.234 201.273C205.424 201.213 205.614 201.153 205.814 201.103C205.824 201.163 205.834 201.223 205.834 201.283C205.644 201.313 205.444 201.343 205.254 201.373Z" fill="black"/>
<path d="M187.914 173.603C192.734 173.453 197.204 170.923 200.394 167.203C203.584 163.473 205.444 158.453 205.384 153.403C205.334 148.343 203.394 143.363 200.114 139.703C196.864 136.073 192.304 133.643 187.544 133.753C182.804 133.793 178.274 136.313 175.314 140.113C172.314 143.903 170.684 148.773 170.514 153.723C170.404 158.653 171.884 163.763 175.074 167.623C178.214 171.503 183.104 173.843 187.914 173.603ZM201.144 138.883C204.214 143.163 205.504 148.343 205.584 153.393C205.574 158.453 204.394 163.653 201.384 167.973C199.904 170.113 197.944 172.003 195.604 173.293C193.284 174.603 190.594 175.303 187.924 175.273C185.254 175.213 182.624 174.443 180.354 173.143C178.084 171.843 176.144 170.053 174.574 168.023C171.414 163.963 169.674 158.903 169.424 153.733C169.204 148.563 170.614 143.203 173.824 138.963C175.404 136.843 177.414 135.003 179.764 133.683C182.114 132.363 184.814 131.643 187.524 131.613C190.234 131.623 192.944 132.313 195.284 133.613C197.644 134.893 199.624 136.763 201.144 138.883Z" fill="black"/>
<path d="M205.655 208.213L205.635 208.113C205.845 208.043 206.045 207.973 206.255 207.903C206.255 207.973 206.255 208.033 206.255 208.103C206.055 208.143 205.855 208.173 205.655 208.213Z" fill="black"/>
<path d="M206.135 205.293C206.185 206.163 206.225 207.033 206.255 207.903C206.045 207.973 205.845 208.043 205.635 208.113L205.655 208.213C205.855 208.173 206.055 208.143 206.255 208.103C206.365 212.243 206.165 216.393 205.905 220.523C205.555 225.593 205.105 230.663 204.155 235.653C203.385 239.593 202.415 243.513 201.035 247.273C200.845 247.443 200.645 247.643 200.455 247.873C201.765 243.853 202.575 239.673 203.165 235.493C203.905 230.523 204.165 225.483 204.305 220.453C204.455 215.443 204.165 210.433 204.145 205.423L204.365 205.303L205.845 204.463L206.075 204.443C206.095 204.723 206.115 205.013 206.135 205.293Z" fill="black"/>
<path d="M211.095 178.963C210.665 179.123 210.235 179.283 209.815 179.463C210.295 179.183 210.775 178.883 211.245 178.583C213.615 177.113 215.885 175.473 218.015 173.663C216.145 175.473 214.135 177.143 212.005 178.633C211.705 178.743 211.395 178.853 211.095 178.963Z" fill="black"/>
<path d="M212.005 178.633C209.555 180.393 206.935 181.923 204.195 183.213C202.145 184.173 199.995 184.983 197.785 185.563C198.795 184.903 199.835 184.283 200.885 183.693C201.895 183.333 202.905 182.943 203.885 182.513C205.925 181.633 207.905 180.603 209.815 179.463C210.235 179.283 210.665 179.123 211.095 178.963C211.395 178.853 211.705 178.743 212.005 178.633Z" fill="black"/>
<path d="M220.875 204.373C219.135 204.543 217.415 204.913 215.695 205.223C213.995 205.593 212.295 206.043 210.605 206.483C209.145 206.933 207.695 207.393 206.255 207.903C206.225 207.033 206.185 206.163 206.135 205.293C206.115 205.013 206.095 204.723 206.075 204.443C206.015 203.393 205.935 202.333 205.835 201.283C207.335 201.063 208.825 200.813 210.315 200.543L215.365 199.773C218.725 199.323 222.085 198.733 225.475 198.463C228.865 198.163 232.265 198.013 235.665 198.143C237.365 198.203 239.065 198.303 240.755 198.513C242.335 198.693 243.925 198.943 245.465 199.363C245.535 200.083 245.605 200.803 245.685 201.523C245.845 202.903 246.035 204.283 246.235 205.653C244.785 205.173 243.285 204.843 241.775 204.573C240.065 204.243 238.325 204.053 236.585 203.893C233.095 203.623 229.595 203.663 226.105 203.883L223.485 204.073L220.875 204.373Z" fill="white"/>
<path d="M197.485 2.01272C201.075 2.74272 204.565 3.95272 207.805 5.69272C220.755 13.1027 229.985 25.8127 234.405 39.8227C234.205 39.2027 233.995 38.5927 233.775 37.9827C231.665 32.2427 228.835 26.6927 225.045 21.8727C223.175 19.4427 221.095 17.1827 218.925 15.0627C216.755 12.9227 214.475 10.8827 212.015 9.08273C209.555 7.29273 206.925 5.64273 204.025 4.61273C202.605 4.05273 201.185 3.55272 199.775 3.01272L198.705 2.62271C198.365 2.48271 197.965 2.37273 197.715 2.21273C197.605 2.13273 197.525 2.07272 197.485 2.01272Z" fill="black"/>
<path d="M233.755 105.743C234.725 98.4827 235.725 91.2227 236.455 83.9627C236.705 81.4127 236.905 78.8627 237.015 76.3127C236.935 78.5727 236.855 80.8527 236.745 83.1127C236.595 86.1227 236.365 89.1427 236.065 92.1427C235.455 98.1627 234.595 104.153 233.485 110.113L233.685 110.163C234.135 108.343 234.565 106.513 234.945 104.673C234.885 105.083 234.815 105.483 234.755 105.893C233.585 113.133 232.115 120.323 230.475 127.463L230.275 127.423C231.665 120.223 232.775 112.993 233.755 105.743Z" fill="black"/>
<path d="M232.205 38.5327C234.175 44.2027 235.475 50.0927 236.305 56.0327C237.125 61.9827 237.265 68.0127 237.085 74.0427C237.085 73.7227 237.095 73.3927 237.095 73.0727C237.135 69.4327 236.915 65.8427 236.565 62.1927C235.895 54.9527 234.815 47.7427 232.565 40.8627C231.455 37.4327 230.145 34.0527 228.475 30.8627C227.715 29.2227 226.735 27.7127 225.845 26.1527L224.345 23.9127L223.595 22.7827C223.335 22.4227 223.055 22.0727 222.775 21.7227L221.115 19.5927C220.535 18.9027 219.915 18.2627 219.315 17.5927C218.135 16.2427 216.825 14.9427 215.535 13.7027C212.925 11.2327 210.055 9.06272 206.915 7.35272C200.645 3.93272 193.345 2.49273 186.175 2.89273C182.565 3.07273 178.965 3.58273 175.475 4.49273C171.995 5.41273 168.605 6.75273 165.595 8.71273C162.595 10.6627 159.985 13.2727 158.305 16.4427C157.485 18.0127 156.795 19.7527 156.605 21.4527C156.595 21.6627 156.605 21.8627 156.645 22.0227C156.695 22.1727 156.715 22.1727 156.785 22.1827C157.005 22.1827 157.425 21.9827 157.715 21.6927C158.335 21.1227 158.835 20.3727 159.295 19.5927C160.215 18.0727 161.135 16.5227 162.285 15.1227L162.315 15.1427C163.215 14.4527 164.155 13.8327 165.145 13.3027C164.305 13.9127 163.535 14.6027 162.895 15.4227C161.745 16.8027 160.845 18.3827 159.895 19.9627C159.435 20.7527 158.925 21.5627 158.195 22.2327C157.825 22.5527 157.415 22.9027 156.715 22.9227C156.315 22.9127 155.975 22.5127 155.925 22.2227C155.855 21.9327 155.845 21.6727 155.865 21.4227C156.045 19.4727 156.715 17.7327 157.535 16.0427C159.225 12.6927 161.905 9.90273 164.985 7.80273C168.075 5.68273 171.555 4.21272 175.115 3.17272C178.685 2.13272 182.375 1.54273 186.075 1.30273C189.625 1.05273 193.225 1.23271 196.745 1.87271C196.745 2.00271 196.775 2.14271 196.835 2.25271C196.965 2.52271 197.175 2.67272 197.355 2.79272C197.755 3.02272 198.105 3.10273 198.465 3.24273L199.535 3.63272C200.955 4.15272 202.405 4.65272 203.805 5.19272C206.655 6.16272 209.185 7.85272 211.595 9.63272C214.005 11.4527 216.245 13.4727 218.335 15.6427C220.435 17.8227 222.395 20.1027 224.155 22.5327C227.715 27.3827 230.275 32.8627 232.205 38.5327Z" fill="black"/>
<path d="M211.595 9.63272C209.185 7.85272 206.655 6.16272 203.805 5.19272C202.405 4.65272 200.955 4.15272 199.535 3.63272L198.465 3.24273C198.105 3.10273 197.755 3.02272 197.355 2.79272C197.175 2.67272 196.965 2.52271 196.835 2.25271C196.775 2.14271 196.745 2.00271 196.745 1.87271C196.995 1.91271 197.235 1.96272 197.485 2.01272C197.525 2.07272 197.605 2.13273 197.715 2.21273C197.965 2.37273 198.365 2.48271 198.705 2.62271L199.775 3.01272C201.185 3.55272 202.605 4.05273 204.025 4.61273C206.925 5.64273 209.555 7.29273 212.015 9.08273C214.475 10.8827 216.755 12.9227 218.925 15.0627C221.095 17.1827 223.175 19.4427 225.045 21.8727C228.835 26.6927 231.665 32.2427 233.775 37.9827C233.995 38.5927 234.205 39.2027 234.405 39.8227C234.445 39.9627 234.495 40.1027 234.535 40.2427C235.675 43.7727 236.515 47.3927 237.155 51.0427C237.795 54.6827 238.225 58.3627 238.495 62.0327C238.585 63.2027 238.665 64.3827 238.725 65.5727C238.785 68.4227 238.735 71.2627 238.615 74.0927C238.465 77.6427 238.245 81.1927 237.925 84.7327C237.135 91.4227 236.015 98.0427 234.945 104.673C234.565 106.513 234.135 108.343 233.685 110.163L233.485 110.113C234.595 104.153 235.455 98.1627 236.065 92.1427C236.365 89.1427 236.595 86.1227 236.745 83.1127C236.855 80.8527 236.935 78.5727 237.015 76.3127C237.035 75.5527 237.055 74.7927 237.085 74.0427C237.265 68.0127 237.125 61.9827 236.305 56.0327C235.475 50.0927 234.175 44.2027 232.205 38.5327C230.275 32.8627 227.715 27.3827 224.155 22.5327C222.395 20.1027 220.435 17.8227 218.335 15.6427C216.245 13.4727 214.005 11.4527 211.595 9.63272Z" fill="black"/>
<path d="M234.945 104.673C236.015 98.0427 237.135 91.4227 237.925 84.7327C237.705 87.2527 237.435 89.7627 237.105 92.2727C236.545 96.4327 235.825 100.573 234.945 104.673Z" fill="black"/>
<path d="M238.045 55.8027C238.455 59.0527 238.665 62.3127 238.725 65.5727C238.665 64.3827 238.585 63.2027 238.495 62.0327C238.225 58.3627 237.795 54.6827 237.155 51.0427C236.515 47.3927 235.675 43.7727 234.535 40.2427C234.495 40.1027 234.445 39.9627 234.405 39.8227C235.165 42.1127 235.815 44.4327 236.385 46.7827C237.105 49.7527 237.685 52.7627 238.045 55.8027Z" fill="black"/>
<path d="M238.615 74.0927C238.735 71.2627 238.785 68.4227 238.725 65.5727C238.865 68.0727 238.915 70.6027 238.845 73.1027C238.745 76.7927 238.425 80.4727 238.005 84.1227C237.985 84.3227 237.955 84.5327 237.925 84.7327C238.245 81.1927 238.465 77.6427 238.615 74.0927Z" fill="black"/>
<path d="M235.695 197.643C237.405 197.773 239.105 197.933 240.795 198.213C242.375 198.453 243.935 198.763 245.455 199.253C245.455 199.293 245.465 199.333 245.465 199.363C243.925 198.943 242.335 198.693 240.755 198.513C239.065 198.303 237.365 198.203 235.665 198.143C232.265 198.013 228.865 198.163 225.475 198.463C222.085 198.733 218.725 199.323 215.365 199.773L210.315 200.543C208.825 200.813 207.335 201.063 205.835 201.283C205.835 201.223 205.825 201.163 205.815 201.103C207.255 200.653 208.715 200.253 210.175 199.863C211.845 199.483 213.515 199.123 215.195 198.783C218.575 198.193 221.995 197.823 225.415 197.663C228.835 197.463 232.275 197.413 235.695 197.643Z" fill="black"/>
<path d="M210.605 206.483C212.295 206.043 213.995 205.593 215.695 205.223C217.415 204.913 219.135 204.543 220.875 204.373L223.485 204.073L226.105 203.883C229.595 203.663 233.095 203.623 236.585 203.893C238.325 204.053 240.065 204.243 241.775 204.573C243.285 204.843 244.785 205.173 246.235 205.653C246.245 205.703 246.245 205.753 246.255 205.803C244.775 205.363 243.255 205.073 241.725 204.863C240.015 204.613 238.285 204.483 236.545 204.393C233.085 204.223 229.615 204.363 226.165 204.683L223.585 204.963L221.015 205.353C220.155 205.473 219.295 205.603 218.445 205.763L215.885 206.203C214.175 206.473 212.485 206.863 210.775 207.163C209.275 207.483 207.775 207.813 206.255 208.103C206.255 208.033 206.255 207.973 206.255 207.903C207.695 207.393 209.145 206.933 210.605 206.483Z" fill="black"/>
<path d="M245.464 199.363C245.464 199.333 245.454 199.293 245.454 199.253C245.574 199.273 245.684 199.313 245.804 199.353L245.774 199.443C245.674 199.413 245.564 199.383 245.464 199.363Z" fill="black"/>
<path d="M246.234 205.653C246.444 205.723 246.644 205.793 246.844 205.863L246.814 205.963C246.634 205.903 246.444 205.843 246.254 205.803C246.244 205.753 246.244 205.703 246.234 205.653Z" fill="black"/>
<path d="M254.804 181.523C253.054 180.413 251.334 179.263 249.644 178.053C253.204 179.443 256.554 181.453 259.334 184.103C257.744 183.353 256.254 182.433 254.804 181.523Z" fill="black"/>
<path d="M257.285 237.453C256.675 237.183 256.045 237.023 255.405 236.883C254.125 236.613 252.825 236.463 251.525 236.373C248.925 236.173 246.315 236.143 243.705 236.203C238.495 236.283 233.285 236.713 228.105 237.513C222.945 238.403 217.855 239.693 212.875 241.383C210.395 242.243 207.935 243.203 205.535 244.383C204.345 244.983 203.165 245.633 202.025 246.463C201.695 246.713 201.365 246.963 201.035 247.273C202.415 243.513 203.385 239.593 204.155 235.653C205.105 230.663 205.555 225.593 205.905 220.523C206.165 216.393 206.365 212.243 206.255 208.103C207.775 207.813 209.275 207.483 210.775 207.163C212.485 206.863 214.175 206.473 215.885 206.203L218.445 205.763C219.295 205.603 220.155 205.473 221.015 205.353L223.585 204.963L226.165 204.683C229.615 204.363 233.085 204.223 236.545 204.393C238.285 204.483 240.015 204.613 241.725 204.863C243.255 205.073 244.775 205.363 246.255 205.803C246.695 208.773 247.235 211.723 247.895 214.653C248.885 218.973 249.865 223.363 251.665 227.463C253.175 230.973 254.985 234.403 257.285 237.453Z" fill="#141414"/>
<path d="M245.454 199.253C245.104 195.603 244.854 191.943 244.974 188.253L245.174 188.273C245.244 190.793 245.494 193.323 245.824 195.833C246.074 197.693 246.364 199.543 246.674 201.383C247.384 205.723 248.304 210.033 249.444 214.273C249.714 215.333 250.024 216.383 250.354 217.433C250.694 218.473 250.984 219.533 251.364 220.553L252.414 223.663C252.804 224.683 253.164 225.713 253.524 226.743C254.924 230.603 256.504 234.383 258.314 238.133C258.034 237.823 257.644 237.613 257.294 237.453L257.284 237.453C254.984 234.403 253.174 230.973 251.664 227.463C249.864 223.363 248.884 218.973 247.894 214.653C247.234 211.723 246.694 208.773 246.254 205.803C246.444 205.843 246.634 205.903 246.814 205.963L246.844 205.863C246.644 205.793 246.444 205.723 246.234 205.653C246.034 204.283 245.844 202.903 245.684 201.523C245.604 200.803 245.534 200.083 245.464 199.363C245.564 199.383 245.674 199.413 245.774 199.443L245.804 199.353C245.684 199.313 245.574 199.273 245.454 199.253Z" fill="black"/>
<path d="M258.405 238.853C258.175 238.583 257.945 238.303 257.725 238.013C258.045 238.233 258.315 238.503 258.405 238.853Z" fill="black"/>
<path d="M257.295 237.453C257.645 237.613 258.035 237.823 258.315 238.133C258.425 238.373 258.535 238.603 258.655 238.843L258.485 238.953C258.455 238.923 258.425 238.883 258.405 238.853C258.315 238.503 258.045 238.233 257.725 238.013C257.575 237.833 257.435 237.643 257.295 237.453Z" fill="black"/>
<path d="M238.485 248.903C240.975 248.303 243.455 247.593 245.885 246.763C248.325 245.943 250.735 244.993 253.035 243.823C254.165 243.213 255.295 242.583 256.315 241.813C256.825 241.423 257.315 241.003 257.725 240.533C258.125 240.063 258.505 239.503 258.425 238.923C258.425 238.903 258.415 238.873 258.405 238.853C258.425 238.883 258.455 238.923 258.485 238.953L258.655 238.843C258.535 238.603 258.425 238.373 258.315 238.133C258.505 238.333 258.655 238.573 258.715 238.873C258.845 239.623 258.415 240.263 258.015 240.773C257.595 241.293 257.115 241.753 256.605 242.173C255.595 243.013 254.515 243.763 253.395 244.463C251.175 245.853 248.855 247.093 246.485 248.233C241.745 250.473 236.755 252.363 231.525 253.363C226.345 254.413 221.065 254.873 215.775 254.873C213.135 254.853 210.485 254.723 207.825 254.373C206.495 254.193 205.165 253.963 203.825 253.583C203.145 253.393 202.475 253.173 201.785 252.833C201.115 252.473 200.315 252.103 199.745 250.993C199.475 250.413 199.495 249.673 199.675 249.173C199.855 248.653 200.115 248.293 200.365 247.973C200.395 247.933 200.425 247.903 200.455 247.873C200.205 248.643 199.945 249.403 199.655 250.153L199.835 250.233C200.265 249.263 200.665 248.273 201.035 247.273C201.365 246.963 201.695 246.713 202.025 246.463C203.165 245.633 204.345 244.983 205.535 244.383C207.935 243.203 210.395 242.243 212.875 241.383C217.855 239.693 222.945 238.403 228.105 237.513C233.285 236.713 238.495 236.283 243.705 236.203C246.315 236.143 248.925 236.173 251.525 236.373C252.825 236.463 254.125 236.613 255.405 236.883C256.045 237.023 256.675 237.183 257.285 237.453L257.295 237.453C257.435 237.643 257.575 237.833 257.725 238.013C257.555 237.893 257.365 237.793 257.175 237.703C256.605 237.443 255.975 237.273 255.355 237.133C254.085 236.863 252.795 236.743 251.505 236.663C248.915 236.553 246.325 236.663 243.735 236.833C241.155 237.043 238.585 237.343 236.015 237.703C233.455 238.053 230.895 238.473 228.375 238.993C223.325 240.013 218.345 241.423 213.535 243.223C211.135 244.133 208.775 245.133 206.535 246.323C205.435 246.913 204.345 247.563 203.405 248.293C202.935 248.653 202.505 249.043 202.215 249.433C202.075 249.613 201.965 249.803 201.945 249.903C201.915 250.023 201.935 249.973 201.945 249.993C201.955 250.063 202.355 250.403 202.845 250.603C203.325 250.813 203.895 250.993 204.475 251.133C205.645 251.423 206.885 251.593 208.135 251.713C210.645 251.953 213.195 251.973 215.745 251.903C220.845 251.763 225.955 251.233 230.995 250.433C233.515 250.033 235.995 249.513 238.485 248.903Z" fill="black"/>
<path d="M264.505 199.123C264.015 199.433 263.345 199.533 262.675 199.563C261.305 199.593 259.875 199.313 258.475 199.013C257.065 198.703 255.665 198.333 254.265 197.963C251.465 197.203 248.655 196.463 245.825 195.833C245.495 193.323 245.245 190.793 245.175 188.273L244.975 188.253C244.855 191.943 245.105 195.603 245.455 199.253C243.935 198.763 242.375 198.453 240.795 198.213C239.105 197.933 237.405 197.773 235.695 197.643C232.275 197.413 228.835 197.463 225.415 197.663C221.995 197.823 218.575 198.193 215.195 198.783C213.515 199.123 211.845 199.483 210.175 199.863C208.715 200.253 207.255 200.653 205.815 201.103C205.495 197.443 205.005 193.793 204.215 190.183L204.015 190.203C204.015 191.853 204.015 193.493 204.035 195.133C201.355 195.613 198.705 196.233 196.065 196.923L191.855 198.043C190.465 198.393 189.045 198.793 187.695 198.903C187.365 198.923 187.035 198.923 186.795 198.853C186.545 198.773 186.485 198.673 186.435 198.503C186.345 198.133 186.635 197.443 186.975 196.893C187.695 195.733 188.675 194.683 189.685 193.703C191.735 191.723 194.015 189.973 196.395 188.383C205.945 182.053 217.025 178.033 228.475 177.373C234.165 176.953 239.945 177.233 245.425 178.643C250.915 180.023 256.065 182.773 259.885 186.933C261.765 189.023 263.475 191.373 264.655 193.893C265.215 195.143 265.665 196.533 265.435 197.733C265.315 198.313 264.995 198.833 264.505 199.123Z" fill="#141414"/>
<path d="M263.015 90.3427C263.935 78.3327 262.505 66.2527 259.465 54.6327C258.695 51.7427 257.815 48.8027 256.935 45.9527C255.995 43.1027 254.995 40.2727 253.815 37.5227C251.515 31.9927 248.575 26.7327 245.065 21.8927C243.255 19.5227 241.365 17.2027 239.225 15.1227C238.215 14.0227 237.045 13.0927 235.955 12.0827L234.195 10.6927L233.315 10.0127L232.395 9.3827L230.535 8.12269L228.605 7.01271C227.325 6.23271 225.965 5.61272 224.615 4.99272C221.875 3.79272 219.025 2.84271 216.095 2.17271C213.175 1.48271 210.195 1.07271 207.195 0.89271C205.685 0.79271 204.185 0.782693 202.675 0.812693C201.175 0.852693 199.685 0.9727 198.275 1.3827C197.905 1.4727 197.585 1.6027 197.475 1.7627C197.425 1.8327 197.415 1.9127 197.485 2.0127C197.235 1.9627 196.995 1.91269 196.745 1.87269C196.745 1.69269 196.805 1.51269 196.905 1.37269C197.255 0.90269 197.725 0.822707 198.075 0.702707C199.575 0.262707 201.125 0.122693 202.655 0.0626929C204.175 0.00269305 205.705 -0.0273056 207.235 0.0326945C210.285 0.132695 213.335 0.472702 216.335 1.1027C219.335 1.7027 222.285 2.58271 225.145 3.73271C226.555 4.33271 227.985 4.9227 229.315 5.6927L231.345 6.8127L233.045 7.9127L233.285 8.0627L234.245 8.70271L235.175 9.39271L237.015 10.7827C238.165 11.8027 239.395 12.7527 240.465 13.8627C242.725 15.9627 244.675 18.3527 246.575 20.7727C250.245 25.7027 253.315 31.0627 255.725 36.7027C256.985 39.5027 257.995 42.4027 258.945 45.3127C259.825 48.2627 260.675 51.1327 261.465 54.1027C262.965 60.0227 264.145 66.0527 264.635 72.1527C265.155 78.2527 265.175 84.3927 264.575 90.4727C263.305 102.633 259.665 114.543 253.625 125.093L253.455 125.003C256.175 119.593 258.365 113.923 259.915 108.103C261.515 102.283 262.525 96.3327 263.015 90.3427Z" fill="black"/>
<path d="M266.544 197.983C266.354 198.813 265.814 199.623 265.034 200.043C264.264 200.473 263.434 200.543 262.674 200.533C261.134 200.483 259.704 200.123 258.294 199.743C256.884 199.353 255.494 198.913 254.114 198.473C251.354 197.583 248.604 196.673 245.824 195.833C248.654 196.463 251.464 197.203 254.264 197.963C255.664 198.333 257.064 198.703 258.474 199.013C259.874 199.313 261.304 199.593 262.674 199.563C263.344 199.533 264.014 199.433 264.504 199.123C264.994 198.833 265.314 198.313 265.434 197.733C265.664 196.533 265.214 195.143 264.654 193.893C263.474 191.373 261.764 189.023 259.884 186.933C256.064 182.773 250.914 180.023 245.424 178.643C239.944 177.233 234.164 176.953 228.474 177.373C217.024 178.033 205.944 182.053 196.394 188.383C194.014 189.973 191.734 191.723 189.684 193.703C188.674 194.683 187.694 195.733 186.974 196.893C186.634 197.443 186.344 198.133 186.434 198.503C186.484 198.673 186.544 198.773 186.794 198.853C187.034 198.923 187.364 198.923 187.694 198.903C189.044 198.793 190.464 198.393 191.854 198.043L196.064 196.923C198.704 196.233 201.354 195.613 204.034 195.133C204.034 195.153 204.034 195.163 204.034 195.173C201.404 195.853 198.804 196.623 196.214 197.443L192.074 198.783C190.674 199.213 189.314 199.693 187.784 199.903C187.394 199.943 186.984 199.973 186.514 199.853C186.054 199.773 185.504 199.333 185.374 198.783C185.244 198.243 185.354 197.793 185.474 197.393C185.604 197.003 185.784 196.643 185.964 196.303C186.434 195.483 186.984 194.743 187.584 194.043C187.754 194.083 187.934 194.113 188.104 194.153L188.124 194.053C187.974 194.023 187.824 193.983 187.674 193.943C188.014 193.543 188.374 193.153 188.744 192.763C190.804 190.633 193.114 188.793 195.504 187.093C196.254 186.563 197.014 186.053 197.784 185.563C199.994 184.983 202.144 184.173 204.194 183.213C206.934 181.923 209.554 180.393 212.004 178.633C217.264 176.813 222.794 175.783 228.334 175.373C234.194 174.983 240.164 175.273 245.914 176.823C247.174 177.163 248.424 177.573 249.644 178.053C251.334 179.263 253.054 180.413 254.804 181.523C256.254 182.433 257.744 183.353 259.334 184.103C259.934 184.663 260.504 185.263 261.044 185.893C262.964 188.163 264.674 190.593 265.854 193.383C266.394 194.773 266.904 196.303 266.544 197.983Z" fill="black"/>
<path d="M272.695 132.313C269.705 137.363 266.375 142.203 262.655 146.733C265.165 143.283 267.505 139.713 269.655 136.043C269.765 135.893 269.865 135.733 269.975 135.573C270.605 134.673 271.105 133.773 272.005 132.833C272.195 132.633 272.425 132.453 272.695 132.313Z" fill="black"/>
<path d="M282.295 111.843C282.175 111.433 282.055 111.023 281.945 110.613C282.085 110.953 282.225 111.293 282.375 111.623C282.355 111.693 282.325 111.773 282.295 111.843Z" fill="black"/>
<path d="M284.044 99.6227C284.724 96.2427 285.204 92.7927 285.574 89.3527C286.294 82.4927 286.024 75.5527 284.664 68.7927C282.084 55.2827 275.764 42.3927 266.234 32.3927C261.514 27.2927 256.354 22.6327 251.024 18.1327C248.394 15.8527 245.694 13.6527 242.734 11.8327C241.264 10.9227 239.714 10.1427 238.114 9.46273C236.514 8.77273 234.874 8.1727 233.194 7.6827C236.594 8.4827 239.934 9.65272 243.004 11.3827C246.074 13.0927 248.904 15.2027 251.644 17.3727C257.104 21.7227 262.444 26.3127 267.344 31.3227C272.374 36.2827 276.454 42.1827 279.684 48.4527C282.904 54.7427 285.254 61.4727 286.624 68.4227C287.964 75.3727 288.174 82.5427 287.374 89.5427C286.584 96.5127 285.274 103.503 282.914 110.143C282.734 110.633 282.564 111.133 282.374 111.623C282.224 111.293 282.084 110.953 281.944 110.613C282.054 111.023 282.174 111.433 282.294 111.843C280.084 117.873 277.484 123.743 274.404 129.373C273.854 130.363 273.284 131.343 272.694 132.313C272.424 132.453 272.194 132.633 272.004 132.833C271.104 133.773 270.604 134.673 269.974 135.573C269.864 135.733 269.764 135.893 269.654 136.043C274.544 127.703 278.504 118.843 281.454 109.663C282.494 106.363 283.364 103.013 284.044 99.6227Z" fill="black"/>
<path d="M288.105 154.593C287.645 158.643 285.835 162.463 283.355 165.573C282.015 167.233 280.455 168.693 278.695 169.783C276.945 170.873 274.925 171.433 272.905 171.313C270.875 171.173 268.915 170.263 267.245 168.983C265.555 167.693 264.145 166.033 263.005 164.213C261.885 162.373 261.035 160.363 260.505 158.283C259.945 156.213 259.775 154.023 260.045 151.943C260.195 150.903 260.485 149.873 260.925 148.973C261.315 148.203 262.055 147.553 262.755 146.823C262.815 146.763 262.875 146.693 262.935 146.633C264.475 145.063 265.915 143.403 267.285 141.703C268.675 140.003 270.005 138.253 271.265 136.463C271.895 135.603 272.505 134.613 273.115 133.983C273.425 133.673 273.695 133.563 274.115 133.503C274.525 133.423 274.985 133.473 275.445 133.573C277.315 133.983 279.065 135.303 280.595 136.703C282.125 138.143 283.485 139.783 284.645 141.573C286.945 145.143 288.455 149.433 288.175 153.783C288.155 154.053 288.135 154.323 288.105 154.593Z" fill="white"/>
<path d="M159.985 139.253C159.025 140.783 158.435 142.533 158.125 144.283C157.425 147.793 157.635 151.413 158.605 154.793L158.705 154.763C158.335 153.063 158.205 151.313 158.235 149.583C158.255 147.853 158.475 146.123 158.905 144.463C159.305 142.793 160.065 141.253 160.845 139.763C161.595 138.223 162.695 136.913 163.755 135.503L163.695 135.423C162.995 135.963 162.235 136.463 161.645 137.143C161.335 137.463 161.045 137.803 160.745 138.143C160.475 138.503 160.235 138.883 159.985 139.253ZM191.585 54.9827C190.035 57.9027 188.535 60.8328 186.905 63.6728C185.225 66.4828 183.575 69.3727 182.065 72.3227C181.315 73.8127 180.615 75.2827 179.945 76.8627C179.295 78.4427 178.845 80.0827 178.475 81.7327C177.765 85.0327 177.465 88.3827 177.325 91.6927C176.925 98.2727 177.225 105.153 179.675 111.413C181.145 115.263 183.315 118.793 186.005 121.863C182.975 121.963 179.945 122.403 177.005 123.203C175.455 123.643 173.885 124.113 172.465 124.933C171.055 125.763 169.735 126.793 168.775 128.113L168.855 128.183C170.185 127.263 171.515 126.493 172.925 125.823C174.335 125.163 175.755 124.503 177.235 123.973C178.725 123.453 180.265 123.053 181.815 122.723C183.235 122.413 184.665 122.153 186.115 121.993C187.775 123.863 189.625 125.563 191.615 127.053L191.735 126.893C186.635 122.753 182.695 117.233 180.615 111.073C178.435 104.913 178.335 98.2927 178.935 91.7927C179.205 88.5327 179.625 85.3027 180.415 82.1827C180.785 80.6227 181.295 79.1027 181.865 77.6327C182.455 76.1627 183.165 74.6527 183.845 73.1827C185.195 70.1927 186.675 67.2827 188.085 64.2827C189.495 61.2727 190.695 58.1927 191.765 55.0627L191.585 54.9827ZM287.135 165.983C285.605 170.443 283.445 174.703 280.355 178.183C277.285 181.633 273.145 184.273 268.515 184.623C266.235 184.813 263.895 184.513 261.675 183.783C259.435 183.093 257.365 181.923 255.255 180.763C251.075 178.423 246.985 175.883 243.195 172.923C244.955 174.563 246.855 176.063 248.815 177.463C249.095 177.663 249.365 177.863 249.645 178.053C248.425 177.573 247.175 177.163 245.915 176.823C240.165 175.273 234.195 174.983 228.335 175.373C222.795 175.783 217.265 176.813 212.005 178.633C214.135 177.143 216.145 175.473 218.015 173.663C215.885 175.473 213.615 177.113 211.245 178.583C210.775 178.883 210.295 179.183 209.815 179.463C206.735 180.653 203.745 182.063 200.885 183.693C196.665 185.183 192.205 186.003 187.775 185.563C185.035 185.333 182.355 184.633 179.845 183.513C177.305 182.443 175.045 180.793 172.935 179.023L171.385 177.633L169.965 176.113C168.965 175.143 168.185 173.983 167.295 172.913C166.435 171.813 165.685 170.633 164.875 169.493L162.705 165.903C163.345 167.143 163.985 168.393 164.645 169.633C165.395 170.813 166.095 172.043 166.895 173.203C167.755 174.313 168.515 175.513 169.485 176.533L170.885 178.133L172.425 179.593C176.545 183.483 181.995 186.043 187.685 186.553C191.105 186.843 194.505 186.443 197.785 185.563C197.015 186.053 196.255 186.563 195.505 187.093C193.115 188.793 190.805 190.633 188.745 192.763C188.375 193.153 188.015 193.543 187.675 193.943C181.645 192.483 176.115 189.473 171.215 185.743C166.145 181.943 161.665 177.423 157.545 172.623C153.425 167.813 149.695 162.683 146.245 157.363C142.825 152.043 139.575 146.583 136.755 140.933L136.755 140.923L136.745 140.903C135.985 139.523 135.215 138.163 134.475 136.773C133.785 135.373 133.035 133.993 132.395 132.563C131.055 129.733 129.865 126.823 128.795 123.883C127.745 120.933 126.825 117.933 126.095 114.883C125.385 111.873 124.815 108.763 124.655 105.713C138.125 105.573 148.805 107.913 150.605 108.323C150.405 109.173 150.225 110.033 150.085 110.903C149.455 114.473 149.335 118.113 149.625 121.703C150.285 128.873 152.385 135.853 155.595 142.223C152.795 135.673 150.915 128.703 150.605 121.633C150.425 118.113 150.625 114.573 151.325 111.133C151.975 107.693 153.195 104.363 154.595 101.133C155.305 99.5327 156.085 97.9327 156.925 96.4127C157.785 94.9027 158.745 93.4327 159.775 92.0127C161.835 89.1727 164.185 86.5127 166.535 83.8327C168.895 81.1427 171.195 78.4427 173.595 75.8227C174.785 74.5127 176.025 73.2527 177.235 71.8727C178.425 70.5027 179.525 69.0927 180.635 67.6727C184.965 61.9327 188.815 55.8027 191.765 49.2028C192.495 47.5528 193.165 45.8727 193.725 44.1227C194.005 43.1927 194.175 42.3527 194.405 41.4627C194.585 40.5727 194.775 39.6827 194.925 38.7927C195.525 35.2127 195.725 31.5328 195.205 27.8928C194.635 24.2828 193.395 20.6827 191.135 17.7527C190.565 17.0327 190.005 16.3028 189.335 15.6728C189.005 15.3528 188.695 15.0028 188.345 14.7128L187.285 13.8427C186.605 13.2327 185.795 12.7927 185.045 12.2827C184.285 11.7727 183.445 11.3528 182.595 11.0228C180.875 10.3528 179.045 10.0027 177.225 9.94274C175.425 9.90274 173.605 9.99275 171.835 10.3628C170.415 10.6628 169.035 11.1127 167.715 11.7027C170.675 10.0927 173.985 9.13274 177.325 8.85274C180.925 8.57274 184.595 9.09276 187.915 10.4628C191.245 11.8328 194.065 14.2027 196.225 17.0427C200.535 22.8527 202.275 30.1227 203.695 37.1827C204.355 40.7327 204.605 44.3428 204.565 47.9528C204.535 51.5628 204.145 55.1827 203.735 58.8027C203.525 60.5627 203.155 62.3627 202.855 64.1827L201.945 69.6027L200.245 80.4627C199.975 82.2827 199.695 84.0927 199.475 85.9227C199.265 87.7427 199.095 89.6527 199.165 91.4927C199.215 95.2027 199.595 98.8927 200.315 102.513C201.005 106.143 202.145 109.703 203.685 113.053C205.205 116.413 207.095 119.593 209.315 122.523L209.475 122.403C205.385 116.343 202.515 109.493 201.345 102.323C200.725 98.7527 200.445 95.1127 200.485 91.4927C200.465 89.6727 200.665 87.9327 200.925 86.1127L201.755 80.7027L203.575 69.8727L204.525 64.4727C204.845 62.6727 205.225 60.8927 205.485 59.0227C206.475 51.7427 206.745 44.2027 205.315 36.8827C204.985 35.0427 204.495 33.2628 204.025 31.4828C203.535 29.7028 202.995 27.9327 202.365 26.1827C201.105 22.7027 199.415 19.3227 197.115 16.3627C195.915 14.9227 194.615 13.5527 193.105 12.4327C192.755 12.1227 192.345 11.8927 191.955 11.6327C191.555 11.3927 191.185 11.1028 190.755 10.8928C189.915 10.4828 189.105 10.0227 188.225 9.69274C184.745 8.34274 180.965 7.82274 177.265 8.16274C173.565 8.50274 169.975 9.70273 166.755 11.5327C165.945 11.9927 165.165 12.4928 164.415 13.0528C163.665 13.6128 162.985 14.2827 162.385 15.0027C162.355 15.0427 162.315 15.0827 162.285 15.1227C161.135 16.5227 160.215 18.0727 159.295 19.5927C158.835 20.3727 158.335 21.1227 157.715 21.6927C157.425 21.9827 157.005 22.1827 156.785 22.1827C156.715 22.1727 156.695 22.1727 156.645 22.0227C156.605 21.8627 156.595 21.6627 156.605 21.4527C156.795 19.7527 157.485 18.0127 158.305 16.4427C159.985 13.2727 162.595 10.6628 165.595 8.71276C168.605 6.75276 171.995 5.41276 175.475 4.49276C178.965 3.58276 182.565 3.07275 186.175 2.89275C193.345 2.49275 200.645 3.93274 206.915 7.35275C210.055 9.06275 212.925 11.2328 215.535 13.7028C216.825 14.9428 218.135 16.2427 219.315 17.5927C219.915 18.2627 220.535 18.9027 221.115 19.5927L222.775 21.7227C223.055 22.0727 223.335 22.4227 223.595 22.7827L224.345 23.9127L225.845 26.1527C226.735 27.7127 227.715 29.2227 228.475 30.8627C230.145 34.0527 231.455 37.4327 232.565 40.8627C234.815 47.7427 235.895 54.9527 236.565 62.1927C236.915 65.8427 237.135 69.4327 237.095 73.0727C237.095 73.3927 237.085 73.7227 237.085 74.0427C237.055 74.7927 237.035 75.5527 237.015 76.3127C236.905 78.8627 236.705 81.4127 236.455 83.9627C235.725 91.2227 234.725 98.4827 233.755 105.743C232.775 112.993 231.665 120.223 230.275 127.423L230.475 127.463C232.115 120.323 233.585 113.133 234.755 105.893C234.815 105.483 234.885 105.083 234.945 104.673C235.825 100.573 236.545 96.4327 237.105 92.2727C237.435 89.7627 237.705 87.2527 237.925 84.7327C237.955 84.5327 237.985 84.3227 238.005 84.1227C238.425 80.4727 238.745 76.7927 238.845 73.1027C238.915 70.6027 238.865 68.0727 238.725 65.5727C238.665 62.3127 238.455 59.0527 238.045 55.8027C237.685 52.7627 237.105 49.7527 236.385 46.7827C235.815 44.4327 235.165 42.1127 234.405 39.8227C229.985 25.8127 220.755 13.1027 207.805 5.69274C204.565 3.95274 201.075 2.74275 197.485 2.01275C197.415 1.91275 197.425 1.83275 197.475 1.76275C197.585 1.60275 197.905 1.47274 198.275 1.38274C199.685 0.972744 201.175 0.852736 202.675 0.812737C204.185 0.782737 205.685 0.792754 207.195 0.892754C210.195 1.07275 213.175 1.48275 216.095 2.17275C219.025 2.84275 221.875 3.79276 224.615 4.99276C225.965 5.61276 227.325 6.23275 228.605 7.01275L230.535 8.12274L232.395 9.38275L233.315 10.0128L234.195 10.6927L235.955 12.0828C237.045 13.0928 238.215 14.0227 239.225 15.1227C241.365 17.2027 243.255 19.5228 245.065 21.8928C248.575 26.7328 251.515 31.9927 253.815 37.5227C254.995 40.2727 255.995 43.1028 256.935 45.9528C257.815 48.8028 258.695 51.7427 259.465 54.6327C262.505 66.2527 263.935 78.3327 263.015 90.3427C262.525 96.3327 261.515 102.283 259.915 108.103C258.365 113.923 256.175 119.593 253.455 125.003L253.625 125.093C259.665 114.543 263.305 102.633 264.575 90.4727C265.175 84.3927 265.155 78.2527 264.635 72.1527C264.145 66.0527 262.965 60.0228 261.465 54.1028C260.675 51.1328 259.825 48.2627 258.945 45.3127C257.995 42.4027 256.985 39.5028 255.725 36.7028C253.315 31.0628 250.245 25.7027 246.575 20.7727C244.675 18.3527 242.725 15.9628 240.465 13.8628C239.395 12.7528 238.165 11.8027 237.015 10.7827L235.175 9.39276L234.245 8.70275L233.285 8.06274L233.045 7.91275L233.195 7.68273C234.875 8.17273 236.515 8.77276 238.115 9.46276C239.715 10.1428 241.265 10.9228 242.735 11.8328C245.695 13.6528 248.395 15.8527 251.025 18.1327C256.355 22.6327 261.515 27.2928 266.235 32.3928C275.765 42.3928 282.085 55.2827 284.665 68.7927C286.025 75.5527 286.295 82.4927 285.575 89.3527C285.205 92.7927 284.725 96.2427 284.045 99.6227C283.365 103.013 282.495 106.363 281.455 109.663C278.505 118.843 274.545 127.703 269.655 136.043C268.555 137.683 267.395 139.273 266.185 140.823C264.855 142.533 263.505 144.213 262.065 145.823L260.975 147.043C260.605 147.463 260.235 147.983 260.005 148.533C259.555 149.613 259.325 150.723 259.235 151.843C259.035 154.093 259.415 156.303 259.995 158.423C260.585 160.543 261.495 162.553 262.585 164.463C263.705 166.343 265.035 168.143 266.715 169.623C268.385 171.093 270.455 172.263 272.775 172.553C275.105 172.793 277.495 172.163 279.395 170.903C281.325 169.673 282.875 167.973 284.115 166.133C286.115 163.123 287.415 159.733 288.025 156.233L289.545 156.513C288.965 159.733 288.185 162.903 287.135 165.983ZM173.825 138.963C170.615 143.203 169.205 148.563 169.425 153.733C169.675 158.903 171.415 163.963 174.575 168.023C176.145 170.053 178.085 171.843 180.355 173.143C182.625 174.443 185.255 175.213 187.925 175.273C190.595 175.303 193.285 174.603 195.605 173.293C197.945 172.003 199.905 170.113 201.385 167.973C204.395 163.653 205.575 158.453 205.585 153.393C205.505 148.343 204.215 143.163 201.145 138.883C199.625 136.763 197.645 134.893 195.285 133.613C192.945 132.313 190.235 131.623 187.525 131.613C184.815 131.643 182.115 132.363 179.765 133.683C177.415 135.003 175.405 136.843 173.825 138.963Z" fill="url(#paint14_linear)"/>
<path d="M263.005 164.213C264.145 166.033 265.555 167.693 267.245 168.983C268.915 170.263 270.875 171.173 272.905 171.313C274.925 171.433 276.945 170.873 278.695 169.783C280.455 168.693 282.015 167.233 283.355 165.573C285.835 162.463 287.645 158.643 288.105 154.593L288.245 154.603C288.195 155.143 288.115 155.693 288.025 156.233C287.415 159.733 286.115 163.123 284.115 166.133C282.875 167.973 281.325 169.673 279.395 170.903C277.495 172.163 275.105 172.793 272.775 172.553C270.455 172.263 268.385 171.093 266.715 169.623C265.035 168.143 263.705 166.343 262.585 164.463C261.495 162.553 260.585 160.543 259.995 158.423C259.415 156.303 259.035 154.093 259.235 151.843C259.325 150.723 259.555 149.613 260.005 148.533C260.235 147.983 260.605 147.463 260.975 147.043L262.065 145.823C263.505 144.213 264.855 142.533 266.185 140.823C267.395 139.273 268.555 137.683 269.655 136.043C267.505 139.713 265.165 143.283 262.655 146.733L262.755 146.823C262.055 147.553 261.315 148.203 260.925 148.973C260.485 149.873 260.195 150.903 260.045 151.943C259.775 154.023 259.945 156.213 260.505 158.283C261.035 160.363 261.885 162.373 263.005 164.213Z" fill="black"/>
<path d="M262.654 146.733C266.374 142.203 269.704 137.363 272.694 132.313C273.064 132.103 273.494 131.953 273.874 131.913C274.544 131.803 275.194 131.863 275.784 132.013C276.994 132.293 278.034 132.853 278.994 133.483C279.944 134.123 280.814 134.863 281.604 135.663C283.184 137.263 284.474 139.113 285.494 141.083C287.544 145.013 288.594 149.433 288.324 153.793C288.304 154.063 288.274 154.333 288.244 154.603L288.104 154.593C288.134 154.323 288.154 154.053 288.174 153.783C288.454 149.433 286.944 145.143 284.644 141.573C283.484 139.783 282.124 138.143 280.594 136.703C279.064 135.303 277.314 133.983 275.444 133.573C274.984 133.473 274.524 133.423 274.114 133.503C273.694 133.563 273.424 133.673 273.114 133.983C272.504 134.613 271.894 135.603 271.264 136.463C270.004 138.253 268.674 140.003 267.284 141.703C265.914 143.403 264.474 145.063 262.934 146.633C262.874 146.693 262.814 146.763 262.754 146.823L262.654 146.733Z" fill="black"/>
<path d="M290.225 152.133C290.035 153.603 289.815 155.063 289.545 156.513L288.025 156.233C288.115 155.693 288.195 155.143 288.245 154.603C288.275 154.333 288.305 154.063 288.325 153.793C288.595 149.433 287.545 145.013 285.495 141.083C284.475 139.113 283.185 137.263 281.605 135.663C280.815 134.863 279.945 134.123 278.995 133.483C278.035 132.853 276.995 132.293 275.785 132.013C275.195 131.863 274.545 131.803 273.875 131.913C273.495 131.953 273.065 132.103 272.695 132.313C273.285 131.343 273.855 130.363 274.405 129.373C277.485 123.743 280.085 117.873 282.295 111.843C283.545 116.063 285.125 120.173 286.605 124.283C287.415 126.543 288.225 128.803 288.885 131.063C289.535 133.333 290.025 135.653 290.335 137.993C290.985 142.683 290.815 147.403 290.225 152.133Z" fill="url(#paint15_linear)"/>
<path d="M268.515 184.623C273.145 184.273 277.285 181.633 280.355 178.183C283.445 174.703 285.605 170.443 287.135 165.983C288.185 162.903 288.965 159.733 289.545 156.513C289.815 155.063 290.035 153.603 290.225 152.133C290.815 147.403 290.985 142.683 290.335 137.993C290.025 135.653 289.535 133.333 288.885 131.063C288.225 128.803 287.415 126.543 286.605 124.283C285.125 120.173 283.545 116.063 282.295 111.843C282.325 111.773 282.355 111.693 282.375 111.623C284.125 115.713 286.065 119.703 287.845 123.793C288.785 126.023 289.725 128.243 290.465 130.583C291.205 132.923 291.745 135.313 292.115 137.743C292.475 140.163 292.665 142.613 292.665 145.063C292.655 147.533 292.435 149.953 292.165 152.363C291.605 157.203 290.605 162.003 288.985 166.633C287.385 171.243 285.075 175.733 281.675 179.393C279.995 181.213 278.045 182.833 275.825 184.013C273.615 185.203 271.135 185.953 268.625 186.073C266.115 186.223 263.595 185.793 261.285 184.923C260.615 184.683 259.965 184.403 259.335 184.103C256.555 181.453 253.205 179.443 249.645 178.053C249.365 177.863 249.095 177.663 248.815 177.463C246.855 176.063 244.955 174.563 243.195 172.923C246.985 175.883 251.075 178.423 255.255 180.763C257.365 181.923 259.435 183.093 261.675 183.783C263.895 184.513 266.235 184.813 268.515 184.623Z" fill="black"/>
<path d="M275.636 133.362C271.726 127.952 269.106 126.902 263.406 129.412C259.636 131.082 256.096 133.452 252.716 135.912C248.236 139.162 243.566 141.722 238.156 139.522C234.796 138.152 232.186 138.332 228.926 139.902C224.586 141.992 220.106 141.072 215.846 138.572C211.676 136.132 207.446 133.582 202.956 132.032C197.006 129.972 194.716 131.242 191.276 136.612C192.296 121.352 214.486 106.172 232.856 120.422C241.026 112.982 250.286 111.402 260.366 115.372C268.186 118.452 273.816 125.152 275.636 133.362Z" fill="black"/>
<path d="M197.619 208.213C197.272 208.358 197.065 208.653 197.157 208.872C197.248 209.091 197.604 209.151 197.95 209.007C198.297 208.862 198.503 208.567 198.412 208.348C198.32 208.129 197.965 208.068 197.619 208.213Z" fill="black"/>
<path d="M198.142 208.003C197.795 208.148 197.589 208.443 197.68 208.662C197.772 208.881 198.127 208.941 198.473 208.797C198.82 208.652 199.027 208.357 198.935 208.138C198.844 207.919 198.489 207.858 198.142 208.003Z" fill="black"/>
<path opacity="0.47" d="M187.836 135.332C178.79 135.332 171.456 143.364 171.456 153.272C171.456 163.18 178.79 171.212 187.836 171.212C196.883 171.212 204.216 163.18 204.216 153.272C204.216 143.364 196.883 135.332 187.836 135.332Z" fill="#69CAE0"/>
<path d="M167.046 153.362C167.136 154.062 167.236 154.792 167.686 155.342C168.106 155.852 168.766 156.102 169.226 156.582C169.856 157.242 170.006 158.222 170.186 159.122C171.336 164.802 175.386 169.812 180.696 172.122C185.276 174.112 190.686 174.052 195.256 172.042C196.176 171.642 197.286 171.232 198.086 170.642C199.046 169.932 199.886 168.942 200.646 168.032C202.226 166.172 203.536 164.092 204.516 161.862C205.666 159.242 206.336 156.402 206.426 153.542C206.636 146.782 203.406 139.902 197.796 136.112C192.186 132.322 184.326 131.972 178.636 135.632C176.766 136.832 175.186 138.382 173.836 140.132C171.786 142.792 170.246 145.932 168.966 149.062C168.966 149.732 168.966 150.512 168.966 149.062C168.726 148.842 168.376 148.452 168.106 147.892C167.746 147.142 167.736 146.212 167.736 146.192C167.716 145.152 167.486 138.052 167.196 128.302C166.716 120.302 166.566 113.812 166.516 109.472C166.436 102.852 166.366 96.2224 166.246 89.6024C166.186 86.2924 166.126 82.9824 166.046 79.6724C166.006 77.9724 165.966 76.2824 165.916 74.5824C165.896 73.8324 166.026 72.8724 165.846 72.1524C165.616 71.2524 165.586 71.3524 164.606 71.0324C164.526 71.0024 164.436 70.9824 164.366 71.0224C164.306 71.0624 164.276 71.1424 164.266 71.2224C164.116 71.9324 164.046 72.6124 164.046 73.3424C163.946 89.3424 163.966 105.322 164.526 121.312C164.546 131.972 165.736 142.802 167.046 153.362ZM187.956 135.332C196.906 135.442 204.276 143.662 204.206 153.462C204.136 163.322 196.736 171.282 187.696 171.212C178.676 171.152 171.416 163.082 171.456 153.182C171.506 143.392 179.056 135.222 187.956 135.332ZM167.486 146.882C167.486 146.852 167.486 146.852 167.486 146.882V146.882Z" fill="black"/>
<path d="M174.886 148.972C172.966 164.262 187.266 172.112 196.986 164.802C194.686 168.762 186.536 170.382 181.076 166.982C174.946 163.172 172.486 154.552 174.886 148.972Z" fill="white"/>
<path d="M82.9545 91.2927C80.4545 92.4327 78.1445 93.8927 76.2245 95.8127C73.1345 98.8927 71.8245 102.773 71.4945 107.043C71.2745 109.873 71.9545 113.363 70.6745 116.003C70.4845 116.403 70.2345 116.763 69.9445 117.083C69.0045 118.113 67.7445 118.753 66.3445 119.123C63.1145 119.983 59.1045 119.423 56.2745 119.013C49.7445 118.063 44.6545 116.963 38.2245 119.793C33.5545 121.853 28.8445 124.903 25.0145 128.293C18.1645 134.353 17.2945 141.353 23.5145 148.163C12.4445 148.253 5.4545 156.763 1.6045 166.533C-3.45551 188.353 24.9145 185.863 25.0145 185.853C28.6845 185.523 32.1045 186.043 35.2945 188.053C38.6645 190.183 41.1345 193.613 42.6545 197.253C45.2545 203.423 46.9745 206.053 54.0045 206.013C61.5245 205.963 68.8045 203.633 75.5845 200.543C82.5045 197.393 88.3945 195.613 96.1145 195.413" stroke="black" stroke-miterlimit="10"/>
<path d="M158.265 91.1527C153.625 86.4327 146.965 83.1827 140.495 82.3727C136.865 81.9227 130.265 81.0427 127.675 84.4827C127.055 85.3127 126.765 86.3427 126.185 87.2127C125.205 88.6927 123.455 89.5327 121.695 89.8227C113.165 91.2027 104.825 86.2227 96.2247 87.6527C91.8947 88.3727 87.1847 89.3727 82.9947 91.2727" stroke="black" stroke-miterlimit="10"/>
<path d="M63.6445 156.623C54.3445 155.993 56.1645 148.933 60.6345 141.723C65.5245 133.803 73.5945 125.693 73.5945 125.693C76.3445 122.503 79.3845 119.803 82.6145 117.523C87.9145 113.753 93.7445 111.113 99.6845 109.303C102.324 108.493 104.995 107.843 107.645 107.333C107.675 107.333 107.695 107.323 107.725 107.323C107.965 107.273 108.194 107.233 108.434 107.193C111.804 106.583 115.145 106.183 118.385 105.963C118.665 105.943 118.935 105.923 119.205 105.903C119.215 105.903 119.225 105.903 119.225 105.903C120.775 105.813 122.295 105.753 123.785 105.723C123.805 105.723 123.815 105.723 123.835 105.723C124.105 105.723 124.384 105.713 124.654 105.713C138.124 105.573 148.804 107.913 150.604 108.323" stroke="black" stroke-miterlimit="10"/>
<path d="M197.465 208.593C194.125 210.183 189.585 212.033 184.005 213.553C183.945 213.563 183.885 213.583 183.825 213.603C179.695 214.713 174.995 215.653 169.795 216.183C165.275 216.633 160.375 216.783 155.125 216.473C151.995 216.303 148.745 215.953 145.385 215.413C142.255 214.913 139.015 214.243 135.695 213.373C132.635 212.583 129.485 211.613 126.275 210.463C126.235 210.453 126.185 210.433 126.145 210.413C120.845 208.523 115.355 206.123 109.685 203.123C109.625 203.093 109.555 203.053 109.485 203.013C105.295 200.793 101.005 198.243 96.6346 195.333C96.6246 195.323 96.6146 195.323 96.6046 195.313C96.6046 195.313 96.2546 195.063 95.6146 194.593C95.3746 194.413 95.0846 194.193 94.7546 193.943C92.5046 192.223 88.4446 188.973 83.8946 184.603C82.8246 183.573 81.7346 182.483 80.6346 181.343C80.5946 181.313 80.5646 181.273 80.5346 181.243C74.0946 174.573 67.3446 166.003 63.6646 156.613C61.7946 151.863 60.7146 146.893 60.8646 141.863" stroke="black" stroke-miterlimit="10"/>
<path d="M66.3446 119.123C67.9246 114.723 68.7446 111.873 71.4946 107.043" stroke="black" stroke-miterlimit="10"/>
<path d="M82.5945 91.5427C82.7145 91.4627 82.8345 91.3827 82.9545 91.2927C82.9645 91.2827 82.9846 91.2727 82.9946 91.2727C90.2946 86.2627 102.525 79.3027 119.055 75.8027C141.525 71.0527 160.025 75.2328 169.165 77.9828" stroke="black" stroke-miterlimit="10"/>
<line x1="177.313" y1="162.273" x2="195.313" y2="145.273" stroke="black" stroke-width="2"/>
<line x1="177.625" y1="146.219" x2="197.625" y2="162.219" stroke="black" stroke-width="2"/>
<line x1="265.313" y1="162.273" x2="283.313" y2="145.273" stroke="black" stroke-width="2"/>
<line x1="265.625" y1="146.219" x2="285.625" y2="162.219" stroke="black" stroke-width="2"/>
<defs>
<linearGradient id="paint0_linear" x1="158.269" y1="143.973" x2="1.00436" y2="143.973" gradientUnits="userSpaceOnUse">
<stop stop-color="#FFF23A"/>
<stop offset="0.0401" stop-color="#FEE62D"/>
<stop offset="0.1171" stop-color="#FED41A"/>
<stop offset="0.1964" stop-color="#FDC90F"/>
<stop offset="0.2809" stop-color="#FDC60B"/>
<stop offset="0.6685" stop-color="#F28F3F"/>
<stop offset="0.8876" stop-color="#ED693C"/>
<stop offset="1" stop-color="#E83E39"/>
</linearGradient>
<linearGradient id="paint1_linear" x1="71.4987" y1="113.085" x2="66.3487" y2="113.085" gradientUnits="userSpaceOnUse">
<stop stop-color="#E1306C"/>
<stop offset="1" stop-color="#405DE6"/>
</linearGradient>
<linearGradient id="paint2_linear" x1="135.699" y1="165.45" x2="73.5987" y2="165.45" gradientUnits="userSpaceOnUse">
<stop stop-color="#E1306C"/>
<stop offset="1" stop-color="#405DE6"/>
</linearGradient>
<linearGradient id="paint3_linear" x1="126.149" y1="170.24" x2="74.9186" y2="170.24" gradientUnits="userSpaceOnUse">
<stop stop-color="#FFF23A"/>
<stop offset="0.0401" stop-color="#FEE62D"/>
<stop offset="0.1171" stop-color="#FED41A"/>
<stop offset="0.1964" stop-color="#FDC90F"/>
<stop offset="0.2809" stop-color="#FDC60B"/>
<stop offset="0.6685" stop-color="#F28F3F"/>
<stop offset="0.8876" stop-color="#ED693C"/>
<stop offset="1" stop-color="#E83E39"/>
</linearGradient>
<linearGradient id="paint4_linear" x1="109.489" y1="164.355" x2="60.6387" y2="164.355" gradientUnits="userSpaceOnUse">
<stop stop-color="#E1306C"/>
<stop offset="1" stop-color="#405DE6"/>
</linearGradient>
<linearGradient id="paint5_linear" x1="108.299" y1="135.29" x2="82.6185" y2="135.29" gradientUnits="userSpaceOnUse">
<stop stop-color="#E1306C"/>
<stop offset="1" stop-color="#405DE6"/>
</linearGradient>
<linearGradient id="paint6_linear" x1="169.169" y1="82.461" x2="82.9987" y2="82.461" gradientUnits="userSpaceOnUse">
<stop stop-color="#E1306C"/>
<stop offset="1" stop-color="#405DE6"/>
</linearGradient>
<linearGradient id="paint7_linear" x1="94.0986" y1="167.065" x2="70.114" y2="167.065" gradientUnits="userSpaceOnUse">
<stop stop-color="#FFF23A"/>
<stop offset="0.0401" stop-color="#FEE62D"/>
<stop offset="0.1171" stop-color="#FED41A"/>
<stop offset="0.1964" stop-color="#FDC90F"/>
<stop offset="0.2809" stop-color="#FDC60B"/>
<stop offset="0.6685" stop-color="#F28F3F"/>
<stop offset="0.8876" stop-color="#ED693C"/>
<stop offset="1" stop-color="#E83E39"/>
</linearGradient>
<linearGradient id="paint8_linear" x1="183.829" y1="161.22" x2="108.286" y2="161.22" gradientUnits="userSpaceOnUse">
<stop stop-color="#E1306C"/>
<stop offset="1" stop-color="#405DE6"/>
</linearGradient>
<linearGradient id="paint9_linear" x1="145.389" y1="161.6" x2="84.5786" y2="161.6" gradientUnits="userSpaceOnUse">
<stop stop-color="#FFF23A"/>
<stop offset="0.0401" stop-color="#FEE62D"/>
<stop offset="0.1171" stop-color="#FED41A"/>
<stop offset="0.1964" stop-color="#FDC90F"/>
<stop offset="0.2809" stop-color="#FDC60B"/>
<stop offset="0.6685" stop-color="#F28F3F"/>
<stop offset="0.8876" stop-color="#ED693C"/>
<stop offset="1" stop-color="#E83E39"/>
</linearGradient>
<linearGradient id="paint10_linear" x1="169.799" y1="170.171" x2="113.639" y2="170.171" gradientUnits="userSpaceOnUse">
<stop stop-color="#FFF23A"/>
<stop offset="0.0401" stop-color="#FEE62D"/>
<stop offset="0.1171" stop-color="#FED41A"/>
<stop offset="0.1964" stop-color="#FDC90F"/>
<stop offset="0.2809" stop-color="#FDC60B"/>
<stop offset="0.6685" stop-color="#F28F3F"/>
<stop offset="0.8876" stop-color="#ED693C"/>
<stop offset="1" stop-color="#E83E39"/>
</linearGradient>
<linearGradient id="paint11_linear" x1="197.469" y1="159.84" x2="119.259" y2="159.84" gradientUnits="userSpaceOnUse">
<stop stop-color="#FFF23A"/>
<stop offset="0.0401" stop-color="#FEE62D"/>
<stop offset="0.1171" stop-color="#FED41A"/>
<stop offset="0.1964" stop-color="#FDC90F"/>
<stop offset="0.2809" stop-color="#FDC60B"/>
<stop offset="0.6685" stop-color="#F28F3F"/>
<stop offset="0.8876" stop-color="#ED693C"/>
<stop offset="1" stop-color="#E83E39"/>
</linearGradient>
<linearGradient id="paint12_linear" x1="204.139" y1="199.78" x2="186.089" y2="199.78" gradientUnits="userSpaceOnUse">
<stop stop-color="#E83E39"/>
<stop offset="0.1124" stop-color="#ED693C"/>
<stop offset="0.3315" stop-color="#F28F3F"/>
<stop offset="0.7191" stop-color="#FDC60B"/>
<stop offset="0.7266" stop-color="#FDC40D"/>
<stop offset="0.7278" stop-color="#FCC20F"/>
<stop offset="0.8697" stop-color="#FCC411"/>
<stop offset="0.9208" stop-color="#FDCB17"/>
<stop offset="0.9572" stop-color="#FDD621"/>
<stop offset="0.9864" stop-color="#FEE730"/>
<stop offset="1" stop-color="#FFF23A"/>
</linearGradient>
<linearGradient id="paint13_linear" x1="202.449" y1="200.035" x2="163.729" y2="200.035" gradientUnits="userSpaceOnUse">
<stop stop-color="#E1306C"/>
<stop offset="1" stop-color="#405DE6"/>
</linearGradient>
<linearGradient id="paint14_linear" x1="233.312" y1="114.244" x2="90.5095" y2="31.7964" gradientUnits="userSpaceOnUse">
<stop stop-color="#E1306C"/>
<stop offset="0.3727" stop-color="#405DE6"/>
</linearGradient>
<linearGradient id="paint15_linear" x1="290.755" y1="134.18" x2="272.699" y2="134.18" gradientUnits="userSpaceOnUse">
<stop stop-color="#E1306C"/>
<stop offset="0.0588" stop-color="#D53375"/>
<stop offset="0.6065" stop-color="#6A51C6"/>
<stop offset="0.8503" stop-color="#405DE6"/>
</linearGradient>
</defs>
</svg>
