<svg width="90" height="79" viewBox="0 0 90 79" fill="none" xmlns="http://www.w3.org/2000/svg">
<g id="Group">
<g id="Group_2">
<g id="Group_3">
<path id="Vector" d="M41.6347 69.341C40.8261 69.9835 39.7051 70.5893 38.6393 70.5893C36.8567 70.5893 36.0297 69.7449 36.0297 68.0376V63.0808L35.3866 63.2644V62.1997L39.3927 61.0247V67.0646C39.3927 67.8173 39.5214 68.4965 40.4035 68.4965C41.0099 68.4965 41.4693 68.2028 41.6715 67.9641V63.1543L40.9915 63.3011V62.218L45.0345 61.0247V69.2125H45.6409V70.314H41.892L41.6347 69.341Z" fill="white"/>
<path id="Vector_2" d="M47.5705 62.732H46.67V61.7223C48.1034 61.3185 49.3898 60.3271 49.9595 58.9319L51.0621 59.1338C50.9519 59.5928 50.9335 60.0885 50.9335 60.5658V61.3001H52.5691L52.2934 62.732H50.9335V68.0376C50.9335 68.6067 51.4113 68.7719 51.687 68.7719C51.9994 68.7719 52.3118 68.6434 52.5691 68.4782L53.0469 69.2676C52.128 69.9468 51.0805 70.5893 49.886 70.5893C48.2137 70.5893 47.5705 69.7632 47.5705 68.1661V62.732Z" fill="white"/>
<path id="Vector_3" d="M54.37 62.732H53.4695V61.7223C54.9029 61.3185 56.1893 60.3271 56.759 58.9319L57.8616 59.1338C57.7514 59.5928 57.733 60.0885 57.733 60.5658V61.3001H59.3685L59.0929 62.732H57.733V68.0376C57.733 68.6067 58.2108 68.7719 58.4864 68.7719C58.7989 68.7719 59.1113 68.6434 59.3685 68.4782L59.8463 69.2676C58.9275 69.9468 57.88 70.5893 56.6855 70.5893C55.0132 70.5893 54.37 69.7632 54.37 68.1661V62.732Z" fill="white"/>
<path id="Vector_4" d="M60.6733 70.314V69.2125H61.3349V59.8865L60.7101 60.0885V59.0237L65.3411 57.4816V58.6198L64.6979 58.8401V69.2125H65.3411V70.314H60.6733Z" fill="white"/>
<path id="Vector_5" d="M75.5587 68.2028C74.4928 69.6164 73.0226 70.5893 70.9828 70.5893C68.2079 70.5893 66.4988 68.6434 66.4988 65.7244C66.4988 63.1726 68.4284 61.0247 71.0196 61.0247C73.5004 61.0247 74.8787 62.6586 75.5219 64.8983L70.3029 66.8076C70.7255 67.854 71.479 68.4231 72.6184 68.4231C73.4821 68.4231 74.309 68.1294 74.8603 67.4501L75.5587 68.2028ZM72.1222 64.5495C71.8649 63.7601 71.4422 62.4199 70.4499 62.4199C69.7332 62.4199 69.4391 62.9891 69.4391 63.7601C69.4391 64.4761 69.6413 64.9534 69.7515 65.4491L72.1222 64.5495Z" fill="white"/>
</g>
</g>
<g id="XMLID_1_">
<g id="Group_4">
<path id="Vector_6" d="M64.2783 50.9308C64.2752 50.9338 64.2691 50.9369 64.266 50.9369C62.9827 51.5182 61.5401 51.8242 60.2139 52.0445C57.5798 52.482 55.0254 50.9583 52.4128 51.3806C51.8738 51.4693 51.3378 51.7263 51.0376 52.1791C50.86 52.4453 50.7712 52.7605 50.5813 53.0144C49.788 54.067 47.7665 53.7977 46.6547 53.66C44.6731 53.4122 42.6332 52.4178 41.2121 50.9736C41.5214 50.5361 41.8124 50.0863 42.0697 49.609C42.33 49.1133 42.5567 48.6146 42.768 48.1036C43.0804 47.3295 43.3622 46.537 43.5582 45.7201C44.1095 45.8456 47.3806 46.5615 51.5062 46.5187C51.5062 46.5248 51.5062 46.5279 51.5062 46.534L51.5124 46.6717L51.6471 46.6656L53.3041 46.586L53.4358 46.5799L53.4266 46.4514C53.4266 46.4483 53.4266 46.4453 53.4266 46.4422C54.419 46.3749 55.442 46.2525 56.4742 46.0659L56.468 46.1944L56.6273 46.1546L59.05 45.5641L59.1235 45.5457L59.1419 45.4723C59.145 45.4539 59.1511 45.4386 59.1541 45.4203C60.9735 44.8665 62.7591 44.0587 64.3824 42.9052C65.3717 42.2076 66.3028 41.3815 67.1451 40.4054C67.1451 40.4054 69.6168 37.924 71.1145 35.5007C72.4836 33.2947 73.041 31.1345 70.1926 30.9418L70.1865 30.9448C69.0593 28.0718 66.9919 25.4496 65.0195 23.4088C65.0103 23.3996 65.0011 23.3874 64.9888 23.3782C64.6519 23.0294 64.3181 22.6959 63.9904 22.3807C63.5983 21.9952 63.2001 21.6127 62.7989 21.2333C62.4252 20.8784 62.0455 20.5296 61.6595 20.19C61.2706 19.8473 60.8785 19.5138 60.4467 19.2109L60.2476 19.0732C62.6121 19.012 64.4161 18.4674 66.5356 17.5036C68.6122 16.5581 70.8419 15.8452 73.1452 15.8299C75.2983 15.8177 75.8251 16.6224 76.6215 18.5102C77.087 19.6239 77.8436 20.6734 78.8757 21.3251C79.8528 21.9401 80.9003 22.0992 82.0243 21.9983C82.0549 21.9952 90.7442 21.2333 89.1944 27.9096C88.0152 30.8989 85.8743 33.5027 82.4837 33.5303C84.3888 35.6139 84.1224 37.7557 82.0243 39.6099C80.8513 40.6471 79.4087 41.5803 77.9783 42.2106C76.0089 43.0765 74.4499 42.74 72.4499 42.4493C71.5831 42.3238 70.3549 42.1525 69.3656 42.4156C68.9368 42.5288 68.5509 42.7247 68.263 43.0398C68.1742 43.1377 68.0976 43.2479 68.0394 43.3703C67.6474 44.178 67.8556 45.2459 67.7883 46.1117C67.6872 47.4182 67.286 48.6054 66.3395 49.5478C65.7515 50.1353 65.044 50.582 64.2783 50.9308Z" fill="url(#paint0_linear_159_2)"/>
<path id="Vector_7" d="M67.7883 46.1118C67.8557 45.2459 67.6474 44.178 68.0394 43.3703C68.0976 43.2479 68.1742 43.1377 68.263 43.0398C68.5509 42.7247 68.9368 42.5288 69.3656 42.4156C68.8817 43.7619 68.6306 44.6339 67.7883 46.1118Z" fill="url(#paint1_linear_159_2)"/>
<path id="Vector_8" d="M67.1451 40.4054C66.3028 41.3815 65.3717 42.2076 64.3824 42.9052L64.0485 42.4248C64.0577 42.3973 64.0608 42.3667 64.0577 42.3575L64.0547 42.3238L64.0485 42.2565L64.0026 41.7088L63.9107 40.6135C63.6106 37.7068 62.9827 34.8123 61.8311 32.1136C61.2767 30.7551 60.5814 29.4578 59.7636 28.2431C58.9397 27.0284 58.0117 25.8871 56.8601 24.9539C56.0086 24.1309 55.2705 23.1793 54.5231 22.2492C53.7819 21.3098 53.0622 20.3521 52.3455 19.3945C50.9151 17.473 49.5093 15.5331 48.1249 13.578C49.0621 13.8197 50.0269 14.1165 51.0101 14.4683L51.0009 14.4806L52.37 15.836L53.053 16.5153C53.2766 16.7448 53.4818 16.9926 53.6992 17.2282L54.9948 18.654C55.4114 19.1436 55.8065 19.6484 56.2108 20.1471L56.8172 20.8937C57.0163 21.1477 57.197 21.4108 57.3869 21.6678L58.5201 23.2252C59.2215 24.2992 59.9444 25.3578 60.5967 26.4654C61.9352 28.65 63.1328 30.9234 64.1956 33.258C65.2584 35.5925 66.2017 37.9882 66.9184 40.4452L67.1451 40.4054Z" fill="url(#paint2_linear_159_2)"/>
<path id="Vector_9" d="M66.7408 39.0683C66.8847 39.5059 67.0164 39.9465 67.142 40.3871L66.9154 40.4268L66.7408 39.0683Z" fill="black"/>
<path id="Vector_10" d="M66.7408 39.0683C66.1006 37.0489 65.3227 35.0754 64.459 33.1386C63.4176 30.7827 62.1955 28.5062 60.8571 26.3063C60.2108 25.1895 59.4512 24.1462 58.7345 23.0753L57.5737 21.5271C57.3808 21.2731 57.1909 21.01 56.9887 20.7591L56.37 20.0186C54.7774 18.0084 52.9397 16.2093 51.0499 14.4836C52.6732 15.0619 54.3547 15.7963 56.0913 16.7142L56.0821 16.7264C57.7391 18.2073 59.1419 19.9544 60.3915 21.7841C61.635 23.623 62.7223 25.5659 63.6167 27.5975C63.8525 28.0993 64.0332 28.6256 64.2476 29.1365L64.557 29.9076C64.6519 30.1677 64.7346 30.4339 64.8234 30.697L65.3441 32.2758L65.7699 33.8821L65.9812 34.6868C66.0547 34.9561 66.0945 35.2315 66.1497 35.5007L66.4682 37.1346L66.5478 37.5415L66.5999 37.9546L66.704 38.7776L66.7408 39.0683Z" fill="url(#paint3_linear_159_2)"/>
<path id="Vector_11" d="M65.0195 23.4088C66.9919 25.4496 69.0593 28.0718 70.1865 30.9448C70.7592 32.3982 71.09 33.9189 71.0441 35.4579L71.1145 35.5007C69.6168 37.924 67.1451 40.4054 67.1451 40.4054L67.142 40.3871L66.9245 38.7471L66.8143 37.9209L66.7561 37.5079L66.6765 37.0979L66.3457 35.4579C66.2875 35.1886 66.2446 34.9102 66.1711 34.644L65.9536 33.8362L65.5156 32.2238L64.9796 30.6419C64.8908 30.3788 64.8081 30.1126 64.7071 29.8525L64.3947 29.0784C64.1772 28.5674 63.9873 28.0412 63.7484 27.5394C62.8357 25.5077 61.7269 23.5679 60.465 21.7351C59.2062 19.9268 57.8065 18.2104 56.1526 16.7478C57.4359 17.4271 58.7498 18.2073 60.0883 19.0977L60.2721 19.3822C61.096 20.6551 61.8801 21.9554 62.6458 23.268C63.4145 24.5745 64.1466 25.9024 64.8449 27.2487C65.5585 28.5858 66.2109 29.9565 66.799 31.3518C67.1053 32.0463 67.3564 32.7592 67.6045 33.4752L67.9261 34.5644L68.1589 35.6629L68.165 35.6935C68.2201 35.5344 68.2109 35.4212 68.2293 35.2804C68.2416 35.1488 68.2446 35.0142 68.2538 34.8827C68.2599 34.6134 68.263 34.3472 68.2508 34.081C68.2385 33.5456 68.1834 33.0132 68.116 32.4838C67.9751 31.4221 67.7362 30.3788 67.4422 29.3507L67.2125 28.5827L66.9521 27.8239C66.7867 27.313 66.5723 26.8234 66.3824 26.3247C66.1772 25.829 65.9506 25.3456 65.7362 24.856L65.0225 23.418L65.0195 23.4088Z" fill="url(#paint4_linear_159_2)"/>
<path id="Vector_12" d="M64.3824 42.9052C62.7591 44.0587 60.9735 44.8665 59.1541 45.4203C59.488 44.0342 59.5033 42.6053 59.4053 41.204C59.2981 39.7812 59.0623 38.3738 58.7652 36.9847C58.4619 35.5925 58.0913 34.2187 57.6717 32.8602C57.3226 31.7342 56.9428 30.6205 56.517 29.519C57.3409 30.4002 58.0668 31.3732 58.7437 32.3768C59.5492 33.5853 60.2782 34.849 60.952 36.1371C61.6259 37.4283 62.2476 38.7471 62.8204 40.0841C63.1083 40.7542 63.387 41.4274 63.6443 42.1097L63.7423 42.3636L63.7698 42.434C63.7851 42.4768 63.8403 42.5197 63.8893 42.5227C63.9383 42.5258 63.9812 42.5105 64.0149 42.4768C64.0302 42.4646 64.0424 42.4462 64.0486 42.4248L64.3824 42.9052Z" fill="url(#paint5_linear_159_2)"/>
<path id="Vector_13" d="M60.2139 52.0445C61.5401 51.8242 62.9827 51.5182 64.266 50.9369C62.0301 52.4698 58.2843 54.5994 53.2214 55.6703C46.3392 57.1236 40.673 55.8447 37.8736 55.0032C38.2871 54.529 38.6913 54.0486 39.0987 53.5774C39.8093 52.7513 40.5352 51.9221 41.1784 51.0195C41.1906 51.0042 41.1998 50.9889 41.2121 50.9736C42.6332 52.4178 44.6731 53.4122 46.6547 53.66C47.7665 53.7977 49.788 54.067 50.5813 53.0144C50.7712 52.7605 50.86 52.4453 51.0376 52.1791C51.3378 51.7263 51.8738 51.4693 52.4128 51.3806C55.0254 50.9583 57.5798 52.482 60.2139 52.0445Z" fill="url(#paint6_linear_159_2)"/>
<path id="Vector_14" d="M63.828 42.3697L63.825 42.3361L63.8188 42.2688L63.7821 41.819C63.8127 41.8863 63.8372 41.9567 63.8648 42.027L63.9597 42.2841L63.9812 42.3391C63.975 42.3177 63.9414 42.2902 63.9138 42.2902C63.8893 42.2902 63.8678 42.2963 63.8495 42.3147C63.8311 42.3269 63.825 42.3759 63.828 42.3697Z" fill="black"/>
<path id="Vector_15" d="M61.5064 20.3644C61.8923 20.7009 62.2752 21.0436 62.6519 21.3924C63.4023 22.087 64.1404 22.7968 64.8633 23.5189L65.58 24.9295C65.7974 25.4159 66.0302 25.8963 66.2385 26.3859C66.4314 26.8815 66.655 27.365 66.8235 27.8698L67.093 28.6194L67.3319 29.3844C67.6382 30.4033 67.8893 31.4405 68.0456 32.493C68.1956 33.5394 68.2661 34.6318 68.165 35.6629L68.0088 34.5461L67.7331 33.4354C67.5126 32.7072 67.2798 31.9821 66.995 31.2722C66.4467 29.8494 65.8036 28.4695 65.1144 27.111C63.828 24.6082 62.4007 22.188 60.8663 19.832C61.0837 20.0033 61.2951 20.1839 61.5064 20.3644Z" fill="url(#paint7_linear_159_2)"/>
<path id="Vector_16" d="M60.6641 19.523C61.3533 20.0492 62.5968 21.0436 63.9904 22.3807C64.3273 22.7112 64.658 23.0416 64.9888 23.3782C65.0011 23.3874 65.0103 23.3996 65.0195 23.4088L65.0225 23.418L65.7362 24.856C65.9506 25.3456 66.1772 25.829 66.3824 26.3247C66.5723 26.8234 66.7867 27.313 66.9521 27.8239L67.2125 28.5827L67.4422 29.3507C67.7362 30.3788 67.9751 31.4221 68.116 32.4838C68.1834 33.0132 68.2385 33.5456 68.2508 34.081C68.263 34.3472 68.2599 34.6134 68.2538 34.8827C68.2446 35.0142 68.2416 35.1488 68.2293 35.2804C68.2109 35.4212 68.2201 35.5344 68.165 35.6935L68.1589 35.6629H68.165C68.2661 34.6318 68.1956 33.5394 68.0455 32.493C67.8893 31.4405 67.6382 30.4033 67.3319 29.3844L67.093 28.6194L66.8235 27.8698C66.655 27.365 66.4314 26.8815 66.2385 26.3859C66.0302 25.8963 65.7974 25.4159 65.58 24.9295L64.8633 23.5189C64.1404 22.7968 63.4023 22.087 62.6519 21.3924C62.2752 21.0436 61.8923 20.7009 61.5064 20.3644C61.2951 20.1839 61.0837 20.0033 60.8663 19.832C60.7989 19.728 60.7315 19.627 60.6641 19.523Z" fill="black"/>
<path id="Vector_17" d="M60.6641 19.523C60.7315 19.627 60.7989 19.728 60.8663 19.832C60.6825 19.6882 60.4987 19.5474 60.3088 19.4189L60.4007 19.3241C60.4742 19.3792 60.563 19.4465 60.6641 19.523Z" fill="black"/>
<path id="Vector_18" d="M60.4803 19.2445C60.5416 19.3363 60.6029 19.4312 60.6641 19.523C60.563 19.4465 60.4742 19.3792 60.4007 19.3241L60.4803 19.2445Z" fill="black"/>
<path id="Vector_19" d="M60.8663 19.832C62.4007 22.188 63.828 24.6082 65.1144 27.111C65.8036 28.4695 66.4467 29.8494 66.995 31.2722C67.2798 31.9821 67.5126 32.7072 67.7331 33.4354L68.0088 34.5461L68.165 35.6629H68.1589L67.9261 34.5644L67.6045 33.4752C67.3564 32.7592 67.1053 32.0463 66.799 31.3518C66.2109 29.9565 65.5585 28.5858 64.8449 27.2487C64.1466 25.9024 63.4145 24.5745 62.6458 23.268C61.8801 21.9554 61.096 20.6551 60.2721 19.3822L60.0883 19.0977C60.0914 19.1007 60.0944 19.1007 60.0975 19.1038C60.0975 19.1038 60.2047 19.1803 60.4007 19.3241L60.3088 19.4189C60.4987 19.5474 60.6825 19.6882 60.8663 19.832Z" fill="black"/>
<path id="Vector_20" d="M60.0975 19.1038C60.0944 19.1007 60.0914 19.1007 60.0883 19.0977L59.926 18.8468L60.2476 19.0732L60.4467 19.2109C60.8785 19.5138 61.2706 19.8473 61.6595 20.19C62.0455 20.5296 62.4252 20.8784 62.7989 21.2333C63.2001 21.6127 63.5983 21.9952 63.9904 22.3807C62.5968 21.0436 61.3533 20.0492 60.6641 19.523C60.6029 19.4312 60.5416 19.3363 60.4803 19.2445L60.4007 19.3241C60.2047 19.1803 60.0975 19.1038 60.0975 19.1038Z" fill="black"/>
<path id="Vector_21" d="M58.9887 45.3193L58.8969 45.4111C58.903 45.3866 58.9091 45.3621 58.9122 45.3376L58.9887 45.3193Z" fill="black"/>
<path id="Vector_22" d="M60.3915 21.7841C59.1419 19.9544 57.7391 18.2073 56.0821 16.7264L56.0913 16.7142C56.1097 16.7233 56.1311 16.7356 56.1526 16.7478C57.8065 18.2104 59.2062 19.9268 60.465 21.7351C61.7269 23.5679 62.8357 25.5077 63.7484 27.5394C63.9873 28.0412 64.1772 28.5674 64.3947 29.0784L64.7071 29.8525C64.8081 30.1126 64.8908 30.3788 64.9796 30.6419L65.5156 32.2238L65.9536 33.8362L66.1711 34.644C66.2446 34.9102 66.2875 35.1886 66.3457 35.4579L66.6765 37.0979L66.7561 37.5079L66.8143 37.9209L66.9246 38.7471L67.142 40.3871C67.0164 39.9465 66.8847 39.5059 66.7408 39.0683L66.704 38.7776L66.5999 37.9546L66.5478 37.5415L66.4682 37.1346L66.1497 35.5007C66.0945 35.2315 66.0547 34.9561 65.9812 34.6868L65.7699 33.8821L65.3441 32.2758L64.8234 30.697C64.7346 30.4339 64.6519 30.1677 64.557 29.9076L64.2476 29.1365C64.0332 28.6256 63.8525 28.0993 63.6167 27.5975C62.7223 25.5659 61.635 23.623 60.3915 21.7841Z" fill="black"/>
<path id="Vector_23" d="M56.7223 45.8853C56.7223 45.9312 56.7192 45.9771 56.7161 46.023C56.7069 46.023 56.7008 46.0261 56.6916 46.0261L56.5691 45.9221L56.7223 45.8853Z" fill="black"/>
<path id="Vector_24" d="M56.7161 46.023C56.7161 46.0322 56.7161 46.0383 56.7161 46.0475L56.6916 46.0261C56.7008 46.0261 56.7069 46.023 56.7161 46.023Z" fill="black"/>
<path id="Vector_25" d="M59.05 45.5641L56.6273 46.1546L56.468 46.1944L56.4742 46.0659C56.5477 46.0536 56.6181 46.0414 56.6916 46.0261L56.7161 46.0475C56.7161 46.0383 56.7161 46.0322 56.7161 46.023C57.5278 45.867 58.3456 45.6681 59.1541 45.4203C59.1511 45.4386 59.145 45.4539 59.1419 45.4723L59.1235 45.5457L59.05 45.5641Z" fill="black"/>
<path id="Vector_26" d="M58.9887 45.3193L58.9122 45.3376C59.2277 44.0006 59.2368 42.6023 59.1358 41.2254C59.0286 39.8179 58.7897 38.4227 58.4864 37.0459C58.1771 35.6659 57.8065 34.3013 57.3838 32.952C56.9642 31.621 56.514 30.2962 56.0025 29.005L56.0147 28.9989C56.1863 29.1671 56.3547 29.3415 56.517 29.519C56.9428 30.6205 57.3226 31.7342 57.6717 32.8602C58.0913 34.2187 58.4619 35.5925 58.7652 36.9847C59.0623 38.3738 59.2981 39.7812 59.4053 41.204C59.5033 42.6053 59.488 44.0342 59.1541 45.4203C58.3456 45.6681 57.5278 45.867 56.7161 46.023C56.7192 45.9771 56.7223 45.9312 56.7223 45.8853L58.9122 45.3376C58.9091 45.3621 58.903 45.3866 58.8969 45.4111L58.9887 45.3193Z" fill="black"/>
<path id="Vector_27" d="M56.0515 37.0948C56.4252 40.0566 56.612 43.0551 56.4772 46.0291L56.4742 46.0659C55.442 46.2525 54.419 46.3749 53.4266 46.4422C53.3072 44.8634 53.1142 43.2907 52.7804 41.7425C52.4496 40.1943 52.0545 38.6583 51.5552 37.156C51.0621 35.6506 50.5078 34.1667 49.8891 32.7103C49.2643 31.26 48.5935 29.8311 47.8339 28.442L46.7252 25.9789C46.2964 25.1865 45.8921 24.3787 45.4388 23.6015L44.719 22.4572L44.3607 21.8851L43.9594 21.3404L43.16 20.2512L42.2841 19.2231C41.0865 17.8768 39.7572 16.6407 38.2564 15.6402C37.4999 15.1476 36.725 14.6825 35.898 14.3245C35.0925 13.9635 34.2564 13.6606 33.3835 13.5076C34.6484 13.168 36.0879 12.8804 37.6806 12.7182V12.7213C39.0038 13.4311 40.2013 14.3521 41.2917 15.3771C42.379 16.4051 43.3775 17.528 44.2718 18.7274C45.1754 19.9207 46.0115 21.163 46.7834 22.445C47.5491 23.7301 48.2627 25.0488 48.9335 26.3859C50.2566 29.0723 51.4358 31.8291 52.4649 34.6409C53.494 37.4497 54.4129 40.3075 55.1694 43.1989L55.4665 43.1469L55.4634 43.1255L54.8907 38.8909C54.8509 38.5359 54.7865 38.1841 54.7192 37.8322L54.5231 36.7766L54.1311 34.6654C54.0698 34.3105 53.9871 33.9647 53.9014 33.6159L53.6502 32.5726L53.1479 30.4828L52.5231 28.4267L52.2107 27.4017C52.1127 27.0559 51.9687 26.7255 51.8493 26.3889L51.0958 24.3756C50.814 23.7178 50.5139 23.0692 50.2229 22.4144C49.9503 21.7504 49.5797 21.1324 49.252 20.4959C49.0774 20.1839 48.9243 19.8595 48.7344 19.5536L48.1616 18.6448C47.9625 18.348 47.791 18.0329 47.5736 17.7483L46.9304 16.8855L46.6088 16.4541L46.2565 16.0471C46.0207 15.7779 45.791 15.5056 45.549 15.2394L44.7833 14.4867C44.5291 14.2327 44.2412 14.0186 43.9717 13.783C43.4112 13.3454 42.8292 12.9171 42.1738 12.6295C43.1325 12.6815 44.1279 12.7886 45.157 12.9538C47.0621 15.2639 48.8079 17.7055 50.3393 20.2756C51.1081 21.5577 51.8309 22.8672 52.4986 24.2043C52.8355 24.8713 53.154 25.5475 53.4573 26.2298C53.6073 26.5725 53.7636 26.9152 53.8861 27.2609L54.2107 28.3318C54.6457 29.7607 54.9917 31.2171 55.3133 32.6736C55.6013 34.1422 55.8708 35.6109 56.0515 37.0948Z" fill="url(#paint8_linear_159_2)"/>
<path id="Vector_28" d="M56.2536 28.8367C56.3455 29.0631 56.4343 29.2895 56.517 29.519C56.3547 29.3415 56.1863 29.1671 56.0147 28.9989L56.2536 28.8367Z" fill="black"/>
<path id="Vector_29" d="M56.1526 16.7478C56.1311 16.7356 56.1097 16.7233 56.0913 16.7142L56.1005 16.7019C56.1189 16.7172 56.1342 16.7325 56.1526 16.7478Z" fill="black"/>
<path id="Vector_30" d="M55.981 28.9499L55.7207 28.2951L56.2199 28.7877C56.2353 28.803 56.2475 28.8153 56.2598 28.8306L56.2536 28.8367L56.0147 28.9989L56.0025 29.005C55.9964 28.9866 55.9872 28.9683 55.981 28.9499Z" fill="black"/>
<path id="Vector_31" d="M55.4634 43.1255L55.1663 43.1775L54.8815 41.0143C55.0836 41.715 55.2797 42.4187 55.4634 43.1255Z" fill="black"/>
<path id="Vector_32" d="M53.2919 46.329L53.1755 46.4606C53.1724 46.4606 53.1694 46.4606 53.1694 46.4606C53.1663 46.4177 53.1632 46.3779 53.1602 46.3351L53.2919 46.329Z" fill="black"/>
<path id="Vector_33" d="M53.1755 46.4606L53.1694 46.4667C53.1694 46.4636 53.1694 46.4636 53.1694 46.4606C53.1694 46.4606 53.1724 46.4606 53.1755 46.4606Z" fill="black"/>
<path id="Vector_34" d="M53.1602 46.3351C53.1632 46.3779 53.1663 46.4177 53.1694 46.4606C52.6946 46.4881 52.2291 46.5065 51.7727 46.5156C51.7697 46.4759 51.7666 46.433 51.7635 46.3932L53.1602 46.3351Z" fill="black"/>
<path id="Vector_35" d="M52.37 15.836L51.0009 14.4806L51.0101 14.4683C51.0223 14.4714 51.0376 14.4775 51.0499 14.4836C52.9397 16.2093 54.7774 18.0084 56.37 20.0186L56.9887 20.7591C57.1909 21.01 57.3808 21.2731 57.5737 21.5271L58.7345 23.0753C59.4512 24.1462 60.2108 25.1895 60.8571 26.3063C62.1955 28.5062 63.4176 30.7827 64.459 33.1386C65.3227 35.0754 66.1006 37.0489 66.7408 39.0683L66.9154 40.4268L67.142 40.3871L67.1451 40.4054L66.9184 40.4452C66.2017 37.9882 65.2584 35.5925 64.1956 33.258C63.1328 30.9234 61.9352 28.65 60.5967 26.4654C59.9444 25.3578 59.2215 24.2992 58.5201 23.2252L57.3869 21.6678C57.197 21.4108 57.0163 21.1477 56.8172 20.8937L56.2108 20.1471C55.8065 19.6484 55.4114 19.1436 54.9948 18.654L53.6992 17.2282C53.4818 16.9926 53.2766 16.7448 53.053 16.5153L52.37 15.836Z" fill="black"/>
<path id="Vector_36" d="M52.2781 19.4404C50.8692 17.5036 49.4878 15.5484 48.1249 13.578C49.5093 15.5331 50.9151 17.473 52.3455 19.3945C53.0622 20.3521 53.7819 21.3098 54.5231 22.2492C55.2705 23.1793 56.0086 24.1309 56.8601 24.9539C58.0117 25.8871 58.9397 27.0284 59.7636 28.2431C60.5814 29.4578 61.2767 30.7551 61.8311 32.1136C62.9827 34.8123 63.6106 37.7068 63.9107 40.6135L64.0026 41.7088L64.0485 42.2565L64.0547 42.3238L64.0577 42.3575C64.0608 42.3667 64.0577 42.3973 64.0485 42.4248C64.0424 42.4462 64.0302 42.4646 64.0149 42.4768C63.9812 42.5105 63.9383 42.5258 63.8893 42.5227C63.8403 42.5197 63.7851 42.4768 63.7698 42.434L63.7423 42.3636L63.6443 42.1097C63.387 41.4273 63.1083 40.7542 62.8204 40.0841C62.2476 38.7471 61.6258 37.4283 60.952 36.1371C60.2782 34.849 59.5492 33.5853 58.7437 32.3768C58.0668 31.3732 57.3409 30.4002 56.517 29.519C56.4343 29.2895 56.3455 29.0631 56.2536 28.8367L56.2598 28.8306C57.295 29.8586 58.174 31.0213 58.9734 32.2238C59.782 33.4477 60.511 34.7205 61.1817 36.0178C61.8556 37.3182 62.4712 38.6461 63.0439 39.9893C63.3012 40.5982 63.5493 41.204 63.7821 41.819L63.8188 42.2688L63.825 42.3361L63.828 42.3697C63.825 42.3759 63.8311 42.3269 63.8495 42.3147C63.8678 42.2963 63.8893 42.2902 63.9138 42.2902C63.9413 42.2902 63.975 42.3177 63.9812 42.3391L63.9597 42.2841L63.8648 42.027C63.8372 41.9567 63.8127 41.8863 63.7821 41.819L63.776 41.7241L63.6871 40.6379C63.3992 37.7465 62.7867 34.8674 61.6534 32.1871C61.1113 30.8377 60.4252 29.5465 59.6197 28.338C58.8111 27.1355 57.8831 25.9881 56.7651 25.0763L56.759 25.0733C56.3149 24.6541 55.9229 24.1982 55.5431 23.7331C55.1602 23.2711 54.7927 22.7968 54.4282 22.3226C53.6962 21.3741 52.9856 20.4103 52.2781 19.4404Z" fill="black"/>
<path id="Vector_37" d="M52.2781 19.4404C52.9856 20.4103 53.6962 21.3741 54.4282 22.3226C54.7927 22.7968 55.1602 23.2711 55.5431 23.7331C55.9229 24.1982 56.3149 24.6541 56.759 25.0733L56.7651 25.0763C57.8831 25.9881 58.8111 27.1355 59.6197 28.338C60.4252 29.5465 61.1113 30.8377 61.6534 32.1871C62.7867 34.8674 63.3992 37.7465 63.6871 40.6379L63.776 41.7241L63.7821 41.819C63.5493 41.204 63.3012 40.5982 63.0439 39.9893C62.4712 38.6461 61.8556 37.3182 61.1817 36.0178C60.511 34.7205 59.782 33.4477 58.9734 32.2238C58.174 31.0213 57.295 29.8586 56.2598 28.8306C56.2475 28.8153 56.2353 28.803 56.2199 28.7877L55.7207 28.2951L55.981 28.9499C55.9872 28.9683 55.9964 28.9866 56.0025 29.005C56.514 30.2962 56.9642 31.621 57.3838 32.952C57.8065 34.3013 58.1771 35.6659 58.4864 37.0459C58.7897 38.4227 59.0286 39.8179 59.1358 41.2254C59.2368 42.6023 59.2277 44.0006 58.9122 45.3376L56.7223 45.8853C56.8386 42.9327 56.6365 39.9893 56.2567 37.0673C56.0699 35.5803 55.7912 34.1055 55.4971 32.6368C55.1694 31.1743 54.8172 29.7148 54.3731 28.2829L54.0423 27.2059C53.9136 26.8479 53.7605 26.5083 53.6074 26.1656C53.298 25.4802 52.9764 24.804 52.6364 24.137C51.9534 22.803 51.2122 21.4965 50.4281 20.2206C48.863 17.6657 47.0896 15.2424 45.157 12.9538C46.1157 13.1068 47.108 13.3118 48.1249 13.578C49.4878 15.5484 50.8692 17.5036 52.2781 19.4404Z" fill="url(#paint9_linear_159_2)"/>
<path id="Vector_38" d="M51.7727 46.5156C51.7727 46.5218 51.7727 46.5248 51.7727 46.5309L51.7574 46.5156C51.7635 46.5156 51.7666 46.5156 51.7727 46.5156Z" fill="black"/>
<path id="Vector_39" d="M51.7635 46.3932C51.7666 46.433 51.7696 46.4759 51.7727 46.5156C51.7666 46.5156 51.7635 46.5156 51.7574 46.5156L51.6349 46.3994L51.7635 46.3932Z" fill="black"/>
<path id="Vector_40" d="M51.5062 46.5187C51.5889 46.5187 51.6747 46.5156 51.7574 46.5156L51.7727 46.5309C51.7727 46.5248 51.7727 46.5218 51.7727 46.5156C52.2291 46.5065 52.6946 46.4881 53.1694 46.4606C53.1694 46.4636 53.1694 46.4636 53.1694 46.4667L53.1755 46.4606C53.2582 46.4544 53.3409 46.4483 53.4266 46.4422C53.4266 46.4453 53.4266 46.4483 53.4266 46.4514L53.4358 46.5799L53.3041 46.586L51.6471 46.6656L51.5124 46.6717L51.5062 46.534C51.5062 46.5279 51.5062 46.5248 51.5062 46.5187Z" fill="black"/>
<path id="Vector_41" d="M51.0499 14.4836C51.0376 14.4775 51.0223 14.4714 51.0101 14.4683L51.0193 14.4561C51.0284 14.4653 51.0407 14.4745 51.0499 14.4836Z" fill="black"/>
<path id="Vector_42" d="M50.4281 20.2206C51.2122 21.4965 51.9534 22.803 52.6364 24.137C52.9764 24.804 53.298 25.4802 53.6074 26.1656C53.7605 26.5083 53.9136 26.8479 54.0423 27.2059L54.3731 28.2829C54.8172 29.7148 55.1694 31.1743 55.4971 32.6368C55.7912 34.1055 56.0699 35.5803 56.2567 37.0673C56.6365 39.9893 56.8386 42.9327 56.7223 45.8853L56.5691 45.922L56.6916 46.0261C56.6181 46.0414 56.5477 46.0536 56.4742 46.0659L56.4772 46.0291C56.612 43.0551 56.4252 40.0566 56.0515 37.0948C55.8708 35.6109 55.6013 34.1422 55.3133 32.6736C54.9917 31.2171 54.6457 29.7607 54.2107 28.3318L53.8861 27.2609C53.7636 26.9152 53.6073 26.5725 53.4573 26.2298C53.154 25.5475 52.8355 24.8713 52.4986 24.2043C51.8309 22.8672 51.1081 21.5577 50.3393 20.2757C48.8079 17.7055 47.0621 15.2639 45.157 12.9538C47.0896 15.2424 48.863 17.6657 50.4281 20.2206Z" fill="black"/>
<path id="Vector_43" d="M47.4664 17.8187C47.6808 18.1063 47.8462 18.4245 48.0391 18.7244L48.5966 19.6362C48.7834 19.9391 48.9335 20.2634 49.1019 20.5786C49.4235 21.215 49.7849 21.83 50.0514 22.4939C50.3332 23.1487 50.6272 23.7974 50.9029 24.4552L51.6318 26.4654C51.7451 26.802 51.8891 27.1324 51.981 27.4751L52.2842 28.5032L52.8937 30.5532L53.3868 32.6338L53.6349 33.6741C53.7207 34.0198 53.8034 34.3686 53.8585 34.7205L54.2444 36.8256L54.4343 37.8781C54.5017 38.23 54.566 38.5788 54.6058 38.9337L54.8815 41.0143C54.2414 38.8297 53.5155 36.6756 52.7283 34.543C51.6808 31.7281 50.5078 28.9591 49.1479 26.2788C48.4618 24.9417 47.7328 23.626 46.9518 22.344C46.1647 21.0651 45.3132 19.8228 44.3943 18.6326C43.4755 17.4454 42.4525 16.3348 41.3438 15.322C40.232 14.3123 39.016 13.4097 37.6806 12.7213V12.7182C39.065 12.5805 40.5658 12.5346 42.1738 12.6295C42.8262 12.9263 43.3959 13.3638 43.9502 13.8136C44.2136 14.0522 44.4985 14.2695 44.7466 14.5265L45.497 15.2914C45.7328 15.5576 45.9564 15.836 46.1892 16.1053L46.5322 16.5153L46.8446 16.9498L47.4664 17.8187Z" fill="url(#paint10_linear_159_2)"/>
<path id="Vector_44" d="M44.7833 14.4867L45.549 15.2394C45.791 15.5056 46.0207 15.7779 46.2566 16.0471L46.6088 16.4541L46.9304 16.8855L47.5736 17.7483C47.791 18.0329 47.9626 18.348 48.1616 18.6448L48.7344 19.5536C48.9243 19.8595 49.0774 20.1839 49.252 20.4959C49.5797 21.1324 49.9503 21.7504 50.2229 22.4144C50.5139 23.0692 50.814 23.7178 51.0958 24.3756L51.8493 26.3889C51.9687 26.7255 52.1127 27.0559 52.2107 27.4017L52.5231 28.4267L53.1479 30.4828L53.6502 32.5726L53.9014 33.6159C53.9871 33.9647 54.0698 34.3105 54.1311 34.6654L54.5231 36.7766L54.7192 37.8322C54.7865 38.1841 54.8509 38.5359 54.8907 38.8909L55.4634 43.1255C55.2797 42.4187 55.0836 41.715 54.8815 41.0143L54.6058 38.9337C54.566 38.5788 54.5017 38.23 54.4343 37.8781L54.2444 36.8256L53.8585 34.7205C53.8034 34.3686 53.7207 34.0198 53.6349 33.6741L53.3868 32.6338L52.8937 30.5532L52.2842 28.5032L51.981 27.4751C51.8891 27.1324 51.7451 26.802 51.6318 26.4654L50.9029 24.4552C50.6272 23.7974 50.3332 23.1487 50.0514 22.4939C49.7849 21.83 49.4235 21.215 49.1019 20.5786C48.9335 20.2634 48.7834 19.9391 48.5966 19.6362L48.0391 18.7244C47.8462 18.4245 47.6808 18.1063 47.4664 17.8187L46.8446 16.9498L46.5322 16.5153L46.1892 16.1053C45.9564 15.836 45.7328 15.5576 45.497 15.2914L44.7466 14.5265C44.4985 14.2695 44.2136 14.0522 43.9502 13.8136C43.3959 13.3638 42.8262 12.9263 42.1738 12.6295C42.8292 12.9171 43.4112 13.3454 43.9717 13.783C44.2412 14.0186 44.5291 14.2327 44.7833 14.4867Z" fill="black"/>
<path id="Vector_45" d="M41.2059 50.9675C41.2059 50.9644 42.8782 48.2076 43.4755 45.6987C43.4755 45.6987 43.5031 45.7048 43.5582 45.7201C43.3622 46.537 43.0804 47.3295 42.768 48.1036C42.5566 48.6146 42.33 49.1133 42.0697 49.609C41.8124 50.0863 41.5214 50.5361 41.2121 50.9736C41.209 50.9706 41.209 50.9706 41.2059 50.9675Z" fill="black"/>
<path id="Vector_46" d="M44.2718 18.7274C43.3775 17.528 42.379 16.4051 41.2917 15.3771C40.2013 14.3521 39.0038 13.4311 37.6806 12.7213C39.016 13.4097 40.232 14.3123 41.3438 15.322C42.4525 16.3348 43.4755 17.4454 44.3943 18.6326C45.3132 19.8228 46.1647 21.0651 46.9518 22.344C47.7328 23.626 48.4618 24.9417 49.1479 26.2788C50.5078 28.9591 51.6808 31.7281 52.7283 34.543C53.5155 36.6756 54.2414 38.8297 54.8815 41.0143L55.1663 43.1775L55.4634 43.1255L55.4665 43.1469L55.1694 43.1989C54.4129 40.3075 53.494 37.4497 52.4649 34.6409C51.4358 31.8291 50.2566 29.0723 48.9335 26.3859C48.2627 25.0488 47.5491 23.7301 46.7834 22.445C46.0115 21.163 45.1754 19.9207 44.2718 18.7274Z" fill="black"/>
<path id="Vector_47" d="M39.5306 37.4039C39.8552 36.9724 40.1921 36.5716 40.4219 36.1004C40.6608 35.6445 40.8935 35.1733 41.016 34.6624C41.1477 34.1544 41.2151 33.6251 41.2213 33.0958C41.2304 32.5665 41.1906 32.031 41.0773 31.5109L41.1079 31.5017C41.405 32.5359 41.4693 33.6435 41.2549 34.7174C41.16 35.2529 40.9793 35.7883 40.6853 36.2565C40.6087 36.3697 40.5352 36.4859 40.4525 36.5961C40.3606 36.7001 40.2718 36.8041 40.1768 36.9021C39.9961 37.1101 39.7633 37.2631 39.5489 37.4283L39.5306 37.4039Z" fill="black"/>
<path id="Vector_48" d="M39.1048 74.7934C39.4081 74.6312 39.696 74.4415 39.9716 74.2304C39.4785 74.6557 38.9211 75.0167 38.3177 75.2829C38.3851 75.2493 38.4524 75.2126 38.5198 75.1728C38.722 75.0534 38.918 74.9311 39.1048 74.7934Z" fill="black"/>
<path id="Vector_49" d="M36.0634 27.5761C37.0405 28.7571 37.4938 30.3206 37.4601 31.8291C37.408 33.3436 36.9088 34.8337 35.9899 35.9933C35.0833 37.156 33.6959 37.9271 32.2441 37.9393C30.7862 37.973 29.3895 37.2294 28.3941 36.1188C27.3895 34.9989 26.7953 33.4752 26.78 31.927C26.7616 30.3818 27.3313 28.8459 28.3083 27.7046C29.2854 26.5664 30.6545 25.7923 32.1308 25.7464C33.604 25.673 35.1017 26.3889 36.0634 27.5761ZM35.4356 32.4441C35.6469 32.2024 34.5381 30.2472 32.4585 30.1493C30.3666 30.0483 28.8535 32.5695 29.0434 32.8265C29.1996 33.0407 30.4646 31.6241 32.3911 31.7128C34.3023 31.8046 35.2579 32.643 35.4356 32.4441Z" fill="white"/>
<path id="Vector_50" d="M35.8797 14.3674C35.0619 13.9971 34.2104 13.682 33.3283 13.529V13.5229C33.3467 13.5198 33.3651 13.5137 33.3835 13.5076C34.2564 13.6606 35.0925 13.9635 35.898 14.3245C36.725 14.6825 37.4999 15.1476 38.2564 15.6402C39.7572 16.6407 41.0865 17.8768 42.2841 19.2231L43.16 20.2512L43.9594 21.3404L44.3607 21.8851L44.719 22.4572L45.4388 23.6015C45.8921 24.3787 46.2964 25.1865 46.7252 25.9789L47.8339 28.442C48.5935 29.8311 49.2643 31.26 49.8891 32.7103C50.5078 34.1667 51.0621 35.6506 51.5552 37.156C52.0545 38.6583 52.4496 40.1943 52.7804 41.7425C53.1142 43.2907 53.3072 44.8634 53.4266 46.4422C53.3409 46.4483 53.2582 46.4544 53.1755 46.4606L53.2919 46.329L53.1602 46.3351C53.053 44.8083 52.8692 43.2876 52.5537 41.7884C52.2291 40.2494 51.8462 38.7165 51.3562 37.2203C50.8722 35.718 50.3271 34.2371 49.7175 32.7837C49.1019 31.3334 48.4342 29.8984 47.6869 28.5154L47.6838 28.5093L47.6808 28.5062L46.5904 26.0432C46.1677 25.2538 45.7696 24.446 45.3224 23.6689L44.6149 22.5245L44.2596 21.9524L43.8645 21.4077L43.0773 20.3154L42.2105 19.2874C41.0283 17.9411 39.7082 16.6989 38.2197 15.6922C37.4723 15.1996 36.7005 14.7315 35.8797 14.3674Z" fill="black"/>
<path id="Vector_51" d="M35.4723 41.1673C34.5718 41.4121 33.6438 41.5467 32.7158 41.5773C32.7035 41.565 32.6943 41.5497 32.6821 41.5375C33.1262 41.4885 33.5642 41.409 33.9991 41.3141C34.4738 41.2132 34.9455 41.0908 35.4019 40.9317C35.8552 40.7695 36.2901 40.5676 36.7219 40.3656C37.1538 40.1606 37.5612 39.925 37.9685 39.6435L37.993 39.665C37.699 40.0688 37.2947 40.384 36.8628 40.6379C36.4279 40.8888 35.9471 41.0326 35.4723 41.1673Z" fill="black"/>
<path id="Vector_52" d="M32.4585 30.1493C34.5381 30.2472 35.6469 32.2024 35.4356 32.4441C35.2579 32.643 34.3023 31.8046 32.3911 31.7128C30.4646 31.6241 29.1996 33.0407 29.0434 32.8265C28.8535 32.5695 30.3666 30.0483 32.4585 30.1493Z" fill="black"/>
<path id="Vector_53" d="M48.0697 35.6047C48.0697 35.6078 48.0728 35.6078 48.0728 35.6109L48.0697 35.6047ZM37.2457 22.0319C35.7449 20.8907 34.0512 19.9697 32.2043 19.523C32.2165 19.5107 32.2257 19.5015 32.2318 19.4924C33.1323 19.6882 34.0022 20.0033 34.8352 20.398C35.7173 20.8142 36.5535 21.3282 37.3376 21.9095C38.9149 23.063 40.3116 24.4399 41.601 25.9024C42.8844 27.368 44.0544 28.9346 45.1325 30.5562C46.2106 32.1779 47.1938 33.8546 48.0697 35.6017C48.3025 36.027 48.5414 36.4462 48.7681 36.8715C48.9794 37.3059 49.2152 37.7312 49.4113 38.1749C49.8247 39.05 50.1923 39.9465 50.5231 40.8582C50.8416 41.7731 51.1234 42.7032 51.3409 43.6487C51.5461 44.5513 51.7145 45.457 51.7635 46.3932L51.6349 46.3994L51.7574 46.5156C51.6747 46.5156 51.5889 46.5187 51.5062 46.5187C51.4572 45.5855 51.2827 44.6339 51.0652 43.7129C50.8416 42.7797 50.5598 41.8618 50.2382 40.9592C49.9105 40.0597 49.546 39.1693 49.1356 38.3034C48.9396 37.8659 48.7099 37.4436 48.4985 37.0153C48.2719 36.59 48.0361 36.1738 47.8033 35.7516L47.8002 35.7455V35.7424C46.9365 34.0137 45.9411 32.3431 44.8936 30.7153C43.8369 29.0876 42.6945 27.518 41.4326 26.0462C40.1707 24.5776 38.7986 23.1946 37.2457 22.0319Z" fill="black"/>
<path id="Vector_54" d="M33.3835 13.5076C33.3651 13.5137 33.3467 13.5198 33.3283 13.5229L33.3314 13.4984C33.3498 13.5015 33.3651 13.5045 33.3835 13.5076Z" fill="black"/>
<path id="Vector_55" d="M32.6913 17.1395C32.9945 17.2098 33.2916 17.2833 33.5917 17.3628C34.6423 17.6443 35.6714 18.0084 36.6729 18.4307C37.1691 18.6571 37.6684 18.8743 38.14 19.1466C38.382 19.2782 38.6209 19.4036 38.8537 19.5597C39.0895 19.7096 39.3162 19.8504 39.5398 19.9972C39.3713 19.5138 39.0926 19.0732 38.7679 18.6785C38.6178 18.4704 38.4279 18.296 38.2534 18.1063C38.0665 17.9319 37.8736 17.7575 37.6775 17.5923C36.8751 16.9467 35.944 16.4694 34.9853 16.1083C34.5075 15.9033 34.0083 15.781 33.5152 15.631C33.019 15.5025 32.5106 15.4138 32.0082 15.3128C31.4968 15.2486 30.9883 15.1721 30.4768 15.1201L29.2058 15.0405C30.2287 14.554 31.6193 13.988 33.3283 13.5229V13.529C34.2104 13.682 35.0619 13.9971 35.8797 14.3674C36.7005 14.7315 37.4723 15.1996 38.2197 15.6922C39.7082 16.6989 41.0283 17.9411 42.2105 19.2874L43.0773 20.3154L43.8645 21.4077L44.2596 21.9524L44.6149 22.5245L45.3224 23.6689C45.7696 24.446 46.1677 25.2538 46.5904 26.0432L47.6808 28.5062L47.6838 28.5093L47.6869 28.5154C48.4342 29.8984 49.1019 31.3334 49.7175 32.7837C50.3271 34.2371 50.8722 35.718 51.3562 37.2203C51.8462 38.7165 52.2291 40.2494 52.5537 41.7884C52.8692 43.2876 53.053 44.8083 53.1602 46.3351L51.7635 46.3932C51.7145 45.457 51.5461 44.5513 51.3409 43.6487C51.1234 42.7032 50.8416 41.7731 50.5231 40.8582C50.1923 39.9465 49.8247 39.05 49.4113 38.1749C49.2152 37.7312 48.9794 37.3059 48.7681 36.8715C48.5414 36.4462 48.3025 36.027 48.0697 35.6017C47.1938 33.8546 46.2106 32.1779 45.1325 30.5562C44.0544 28.9346 42.8844 27.368 41.601 25.9024C40.3116 24.4399 38.9149 23.063 37.3376 21.9095C36.5535 21.3282 35.7173 20.8142 34.8352 20.398C34.0021 20.0033 33.1323 19.6882 32.2318 19.4924C32.4156 19.2782 32.5841 19.0518 32.728 18.8009C32.7831 18.6968 32.8383 18.5867 32.8781 18.4674C32.9148 18.345 32.9485 18.2073 32.9087 18.0421C32.8689 17.8738 32.7004 17.7392 32.5596 17.7147L32.6913 17.1395Z" fill="url(#paint11_linear_159_2)"/>
<path id="Vector_56" d="M32.7158 41.5773C32.6637 41.5803 32.6116 41.5834 32.5596 41.5834V41.5528C32.5994 41.5497 32.6423 41.5436 32.6821 41.5375C32.6943 41.5497 32.7035 41.565 32.7158 41.5773Z" fill="black"/>
<path id="Vector_57" d="M34.3666 44.8787C33.7296 42.9939 32.5228 41.305 30.9608 40.0382L30.9975 39.9893C31.607 40.4452 32.1736 40.9653 32.6821 41.5375C32.6423 41.5436 32.5994 41.5497 32.5596 41.5528V41.5834C32.6116 41.5834 32.6637 41.5803 32.7158 41.5773C33.5397 42.5166 34.2043 43.5967 34.6545 44.7747C35.4049 46.69 35.4968 48.7951 35.3743 50.8084C35.3314 51.8212 35.2395 52.8461 35.0221 53.8558C34.9087 54.3607 34.7709 54.8625 34.5718 55.3459C34.3666 55.8294 34.1522 56.2791 33.9225 56.735C33.46 57.6376 32.9547 58.5219 32.4401 59.3817C31.9409 60.2506 31.4814 61.1471 31.0067 62.0405L30.9516 62.0161C31.2793 61.0584 31.6468 60.116 32.0787 59.195C32.5106 58.2771 32.9639 57.3867 33.3773 56.4719C33.5856 56.0221 33.8031 55.5601 33.9838 55.1103C34.1584 54.6606 34.3146 54.1955 34.4279 53.7182C34.6698 52.7635 34.7985 51.7753 34.8812 50.7778C35.065 48.789 35.0343 46.7635 34.3666 44.8787Z" fill="black"/>
<path id="Vector_58" d="M30.4033 16.6774C31.1721 16.8029 31.9347 16.9589 32.6913 17.1395L32.5596 17.7147C32.4156 17.678 32.29 17.6871 32.1706 17.6994C31.702 17.7636 31.2854 17.9105 30.8566 18.0421L29.5886 18.4521C28.7953 18.703 27.999 18.9386 27.1935 19.1466C27.1873 18.2042 27.172 17.2649 27.1628 16.3286C28.244 16.3776 29.3283 16.503 30.4033 16.6774Z" fill="url(#paint12_linear_159_2)"/>
<path id="Vector_59" d="M32.0726 19.4587C32.1246 19.4709 32.1798 19.4801 32.2318 19.4924C32.2257 19.5015 32.2165 19.5107 32.2043 19.523C32.1583 19.5107 32.1124 19.4985 32.0664 19.4893L32.0726 19.4587Z" fill="black"/>
<path id="Vector_60" d="M30.9516 63.809C31.8551 61.7896 33.0343 59.9141 34.3605 58.1578C34.7005 57.7233 35.0374 57.2919 35.4019 56.8727C35.7725 56.4505 36.1523 56.065 36.5167 55.6641C37.2518 54.8625 37.9563 54.0364 38.6791 53.2133C39.3989 52.3933 40.1186 51.5794 40.7496 50.7105C41.065 50.276 41.3591 49.8262 41.6225 49.3642C41.8798 48.8991 42.1187 48.4096 42.3361 47.92C42.7649 46.9318 43.1386 45.9129 43.3377 44.8603C43.5521 43.8078 43.6133 42.7247 43.5582 41.6477C43.4632 39.4844 42.8874 37.3518 42.0298 35.3477C43.013 37.2968 43.6562 39.4324 43.8583 41.6262C43.9472 42.7247 43.9104 43.8384 43.7175 44.9307C43.6746 45.1969 43.6194 45.46 43.5582 45.7201C43.5031 45.7048 43.4755 45.6987 43.4755 45.6987C42.8782 48.2076 41.2059 50.9644 41.2059 50.9675C41.209 50.9706 41.209 50.9706 41.2121 50.9736C41.1998 50.9889 41.1906 51.0042 41.1784 51.0195C40.5352 51.9221 39.8093 52.7513 39.0987 53.5774C38.6913 54.0486 38.2871 54.529 37.8736 55.0032C37.5704 55.3582 37.261 55.71 36.9486 56.0558C36.5841 56.4658 36.2013 56.8605 35.8552 57.2644C35.506 57.6682 35.1783 58.1027 34.8475 58.5311C33.5305 60.2445 32.3574 62.0773 31.46 64.0355C31.2364 64.525 31.0343 65.0268 30.8689 65.5286C30.7923 65.7673 30.7341 66.0426 30.6667 66.2966C30.6116 66.5597 30.5534 66.8229 30.5044 67.086C30.3268 68.1385 30.2441 69.2125 30.3666 70.2681C30.5044 71.3114 30.8321 72.3487 31.4569 73.2023C32.0726 74.056 32.924 74.7689 33.8766 75.2156C34.8414 75.6409 35.9685 75.6837 37.0252 75.5338C37.7511 75.4114 38.4555 75.1575 39.1048 74.7934C38.918 74.9311 38.722 75.0534 38.5198 75.1728C38.4524 75.2126 38.3851 75.2493 38.3177 75.2829C37.9134 75.4634 37.4907 75.6011 37.0558 75.6929C36.5137 75.8061 35.9562 75.8337 35.4049 75.8214C34.8475 75.8031 34.287 75.696 33.7602 75.491C33.4998 75.39 33.2426 75.2615 33.0098 75.1055C32.7801 74.9494 32.532 74.8148 32.3237 74.6281L31.9991 74.3619C31.8919 74.2732 31.7969 74.1661 31.6958 74.0682C31.4906 73.8755 31.3191 73.6521 31.1445 73.4318C30.4523 72.5353 30.0725 71.4338 29.898 70.3293C29.7387 69.2155 29.7999 68.0896 29.9837 66.9942C30.0297 66.7219 30.0878 66.4496 30.143 66.1773C30.2134 65.9049 30.2655 65.6479 30.3513 65.3634C30.5228 64.8279 30.728 64.3139 30.9516 63.809Z" fill="black"/>
<path id="Vector_61" d="M32.2012 21.7841C33.944 21.9401 35.6132 22.7234 36.8751 23.9136L37.3468 24.3604L37.7756 24.8499C38.0727 25.162 38.3054 25.5292 38.5688 25.8688C38.8139 26.2237 39.0283 26.6001 39.258 26.9611C39.4601 27.3405 39.6561 27.723 39.8522 28.1024L39.1875 27.0039C38.9394 26.6551 38.7097 26.2941 38.4463 25.9575C38.1737 25.6301 37.9348 25.2752 37.6285 24.9784L37.1936 24.5133L36.7189 24.088C36.0726 23.5465 35.3804 23.0416 34.6025 22.7142C33.8337 22.3715 33.0129 22.1574 32.1736 22.087C30.8168 21.9524 29.4508 22.2033 28.1583 22.6592C28.4799 22.4786 28.7984 22.2889 29.1077 22.087C30.1124 21.8177 31.1537 21.6954 32.2012 21.7841Z" fill="black"/>
<path id="Vector_62" d="M30.4462 16.4051C29.5304 16.2491 28.6116 16.1267 27.6805 16.0563L28.9699 15.322L30.4523 15.4016C30.9577 15.4474 31.46 15.5178 31.9654 15.576C32.4615 15.6739 32.9608 15.7595 33.4539 15.8758C33.9409 16.0135 34.4371 16.1236 34.9088 16.3103C35.3927 16.4633 35.846 16.6866 36.3054 16.9008L36.967 17.2741C37.1783 17.4118 37.3835 17.5586 37.5949 17.6994C37.7939 17.8554 37.99 18.0176 38.1829 18.1798C38.3606 18.3603 38.5535 18.5255 38.7128 18.7244C39.0466 19.1038 39.3437 19.526 39.5398 19.9972C39.0681 19.679 38.6699 19.3424 38.1799 19.0793C37.7174 18.7856 37.2242 18.5469 36.7342 18.2991C35.7357 17.8432 34.7066 17.4546 33.653 17.1425C32.6024 16.8304 31.5304 16.5918 30.4462 16.4051Z" fill="url(#paint13_linear_159_2)"/>
<path id="Vector_63" d="M29.0097 15.2975L28.9699 15.322L28.9332 15.3189L29.0097 15.2975Z" fill="black"/>
<path id="Vector_64" d="M27.3803 16.038C27.6498 15.8666 28.1766 15.5484 28.9362 15.1721C29.022 15.1292 29.1139 15.0864 29.2058 15.0405L30.4768 15.1201C30.9883 15.1721 31.4968 15.2486 32.0082 15.3128C32.5106 15.4138 33.019 15.5025 33.5152 15.631C34.0083 15.781 34.5075 15.9033 34.9853 16.1083C35.944 16.4694 36.8751 16.9467 37.6776 17.5923C37.8736 17.7575 38.0665 17.9319 38.2534 18.1063C38.4279 18.296 38.6178 18.4704 38.7679 18.6785C39.0926 19.0732 39.3713 19.5138 39.5398 19.9972C39.3437 19.526 39.0466 19.1038 38.7128 18.7244C38.5535 18.5255 38.3606 18.3603 38.1829 18.1798C37.99 18.0176 37.7939 17.8554 37.5949 17.6994C37.3835 17.5586 37.1783 17.4118 36.967 17.2741L36.3054 16.9008C35.846 16.6866 35.3927 16.4633 34.9088 16.3103C34.4371 16.1236 33.9409 16.0135 33.4539 15.8758C32.9608 15.7595 32.4615 15.6739 31.9654 15.576C31.46 15.5178 30.9577 15.4474 30.4523 15.4015L28.9699 15.322L29.0097 15.2975L28.9332 15.3189L28.9699 15.322L27.6805 16.0563C27.5794 16.0502 27.4814 16.0441 27.3803 16.038Z" fill="black"/>
<path id="Vector_65" d="M28.1123 3.20559C28.2256 2.89962 28.3482 2.59671 28.4799 2.29992L28.535 2.3244C28.4462 2.55387 28.3665 2.78641 28.29 3.02201C28.2318 3.09238 28.1705 3.15357 28.1123 3.20559Z" fill="black"/>
<path id="Vector_66" d="M27.3803 16.038C27.4814 16.0441 27.5794 16.0502 27.6805 16.0563L27.2425 16.3072L27.2027 16.1512C27.2364 16.1328 27.2945 16.093 27.3803 16.038Z" fill="black"/>
<path id="Vector_67" d="M27.2394 23.0202C27.5396 22.8886 27.8489 22.7693 28.1583 22.6592C27.2823 23.1579 26.3665 23.5893 25.4232 23.9534C26.0082 23.6046 26.6146 23.2895 27.2394 23.0202Z" fill="black"/>
<path id="Vector_68" d="M27.8336 2.37335C27.8367 2.37947 27.8428 2.36417 27.8336 2.40089C27.8275 2.43149 27.7938 2.48962 27.7509 2.54469C27.6621 2.66402 27.5304 2.78335 27.3864 2.8935C27.0985 3.11686 26.7647 3.31574 26.4278 3.49626C25.7417 3.86036 25.0189 4.16633 24.2838 4.44477C22.8106 4.99551 21.2853 5.42693 19.7385 5.73902C18.9667 5.89812 18.1826 6.02663 17.3985 6.13372C16.6114 6.24387 15.8242 6.33566 15.034 6.39992C14.2408 6.45193 13.4475 6.48559 12.6542 6.45193C12.2591 6.42745 11.864 6.39074 11.475 6.30812C11.2851 6.26529 11.0922 6.21327 10.9176 6.13372C10.8594 6.10618 10.8012 6.07559 10.7491 6.03887C10.6817 5.95014 10.6113 5.86447 10.5408 5.78186C10.5378 5.77574 10.5347 5.76656 10.5347 5.76044C10.5102 5.58298 10.6266 5.41163 10.7491 5.26783C10.8747 5.12402 11.0248 4.99551 11.181 4.87618C11.4934 4.64059 11.8395 4.44783 12.1856 4.26119C12.89 3.9032 13.6282 3.61253 14.3755 3.36163C15.1198 3.10768 15.8794 2.89044 16.642 2.70686C17.4047 2.52022 18.1642 2.36111 18.9361 2.23872C20.4797 1.99395 22.0449 1.83178 23.6069 1.78895C24.3879 1.76753 25.1689 1.77365 25.9377 1.84708C26.3206 1.8838 26.7004 1.93581 27.0587 2.02455C27.2364 2.06738 27.4109 2.12246 27.558 2.18671C27.708 2.2479 27.8305 2.35193 27.8336 2.37335Z" fill="#141414"/>
<path id="Vector_69" d="M27.2027 16.1512L27.172 16.0257C27.2425 16.0288 27.3099 16.0318 27.3803 16.038C27.2945 16.093 27.2364 16.1328 27.2027 16.1512Z" fill="black"/>
<path id="Vector_70" d="M33.5917 17.3628C33.2916 17.2833 32.9945 17.2098 32.6913 17.1395C31.9347 16.9589 31.1721 16.8029 30.4033 16.6774C29.3283 16.503 28.244 16.3776 27.1628 16.3286C27.1628 16.2797 27.1628 16.2338 27.1628 16.1848L27.169 16.1787C27.169 16.1787 27.1812 16.1695 27.2027 16.1512L27.2425 16.3072L27.6805 16.0563C28.6116 16.1267 29.5304 16.2491 30.4462 16.4051C31.5304 16.5918 32.6024 16.8304 33.653 17.1425C34.7066 17.4546 35.7357 17.8432 36.7342 18.2991C37.2243 18.5469 37.7174 18.7856 38.1799 19.0793C38.6699 19.3424 39.0681 19.679 39.5398 19.9972C39.3162 19.8504 39.0895 19.7096 38.8537 19.5597C38.6209 19.4036 38.382 19.2782 38.14 19.1466C37.6684 18.8743 37.1691 18.6571 36.6729 18.4307C35.6714 18.0084 34.6423 17.6443 33.5917 17.3628Z" fill="black"/>
<path id="Vector_71" d="M27.1935 19.1466C27.1935 19.1497 27.1935 19.1527 27.1935 19.1589C27.1383 19.1711 27.0863 19.1803 27.0311 19.1895C27.0863 19.1742 27.1383 19.1619 27.1935 19.1466Z" fill="black"/>
<path id="Vector_72" d="M28.8627 15.0436L28.9025 15.0221L28.9393 15.0252L29.2058 15.0405C29.1139 15.0864 29.022 15.1292 28.9362 15.1721C28.1766 15.5484 27.6498 15.8666 27.3803 16.038C27.3099 16.0318 27.2425 16.0288 27.172 16.0257L27.2027 16.1512C27.1812 16.1695 27.169 16.1787 27.169 16.1787L27.1628 16.1848C27.1598 16.1328 27.1598 16.0808 27.1598 16.0288C27.1598 16.0227 27.1598 16.0166 27.1598 16.0104L28.8627 15.0436Z" fill="black"/>
<path id="Vector_73" d="M27.1628 16.1848C27.1628 16.2338 27.1628 16.2797 27.1628 16.3286L26.9821 16.3195L27.1628 16.1848Z" fill="black"/>
<path id="Vector_74" d="M26.6391 16.3042L27.0924 16.0471L27.1598 16.0104C27.1598 16.0165 27.1598 16.0227 27.1598 16.0288C27.1598 16.0808 27.1598 16.1328 27.1628 16.1848L26.9821 16.3195L26.6391 16.3042Z" fill="black"/>
<path id="Vector_75" d="M28.0174 47.5559C27.659 45.3621 26.78 43.2662 25.5273 41.4121L25.5763 41.3753C26.2562 42.2718 26.8351 43.2448 27.3007 44.2729C27.7723 45.2979 28.1215 46.3871 28.3328 47.4978C28.5534 48.6054 28.6698 49.7344 28.6851 50.8696C28.7065 51.4326 28.6544 52.017 28.5901 52.5738C28.5227 53.1338 28.437 53.6876 28.3543 54.2444L27.8336 57.5673L27.5549 59.2256C27.463 59.7825 27.3497 60.3332 27.2854 60.8717C27.1598 61.9794 27.0403 63.087 27.0311 64.1915C27.0189 65.2961 27.0955 66.4006 27.2976 67.4868C27.7325 69.647 28.2655 71.8714 29.5855 73.649C30.2471 74.518 31.1108 75.2431 32.1308 75.6623C33.1476 76.0815 34.2717 76.2406 35.3743 76.1549C36.3973 76.0693 37.4111 75.7755 38.3177 75.2829C38.9211 75.0167 39.4785 74.6557 39.9716 74.2304L39.9808 74.2365C39.9716 74.2487 39.9594 74.261 39.9502 74.2732C39.7664 74.4935 39.5581 74.6985 39.3284 74.8699C39.0987 75.0412 38.8598 75.1942 38.6117 75.3349C37.6255 75.8949 36.5259 76.262 35.3927 76.3661C34.2594 76.4701 33.1017 76.311 32.0358 75.8979C31.7663 75.797 31.5182 75.6562 31.2609 75.5308C31.1292 75.4665 31.0159 75.3778 30.8934 75.3043C30.7739 75.2248 30.6483 75.1544 30.5411 75.0596C30.0787 74.7169 29.6805 74.2977 29.313 73.8571C28.6085 72.9514 28.0909 71.9173 27.705 70.8525C27.512 70.317 27.3466 69.7755 27.1965 69.2308C27.0526 68.6862 26.9025 68.1416 26.8014 67.5786C26.3634 65.3389 26.4461 63.0319 26.7494 60.8044C26.829 60.2323 26.9454 59.6876 27.0434 59.1369L27.3344 57.4847L27.8918 54.171L28.146 52.5157C28.2256 51.9588 28.2869 51.4264 28.2808 50.8696C28.293 49.762 28.2073 48.6482 28.0174 47.5559Z" fill="black"/>
<path id="Vector_76" d="M26.6422 17.2771C26.6115 16.9559 26.587 16.6315 26.5687 16.3103L26.6391 16.3042L26.9821 16.3195L27.1628 16.3286C27.172 17.2649 27.1873 18.2042 27.1935 19.1466C27.1383 19.1619 27.0863 19.1742 27.0311 19.1895C27.0863 19.1803 27.1383 19.1711 27.1935 19.1589C27.1996 19.6607 27.1996 20.1624 27.1996 20.6673L27.1383 20.6734C26.8964 19.5689 26.7463 18.4521 26.6483 17.3322C26.7095 17.3169 26.7677 17.2986 26.8259 17.2802L26.8198 17.2496C26.7616 17.2588 26.7004 17.268 26.6422 17.2771Z" fill="black"/>
<path id="Vector_77" d="M26.8198 17.2496L26.8259 17.2802C26.7677 17.2986 26.7095 17.3169 26.6483 17.3322C26.6452 17.3139 26.6422 17.2955 26.6422 17.2771C26.7004 17.268 26.7616 17.2588 26.8198 17.2496Z" fill="black"/>
<path id="Vector_78" d="M32.1308 25.7464C30.6545 25.7923 29.2854 26.5664 28.3083 27.7046C27.3313 28.8459 26.7616 30.3818 26.78 31.927C26.7953 33.4752 27.3895 34.9989 28.3941 36.1188C29.3895 37.2294 30.7862 37.973 32.2441 37.9393C33.6959 37.9271 35.0833 37.156 35.9899 35.9933C36.9088 34.8337 37.408 33.3436 37.4601 31.8291C37.4938 30.3206 37.0405 28.7571 36.0634 27.5761C35.1017 26.3889 33.604 25.673 32.1308 25.7464ZM28.0786 36.3697C27.1383 35.0601 26.7432 33.4752 26.7187 31.93C26.7218 30.3818 27.0832 28.7908 28.0051 27.469C28.4584 26.8142 29.0587 26.2359 29.7754 25.8412C30.486 25.4404 31.3099 25.2262 32.1277 25.2354C32.9455 25.2538 33.751 25.4894 34.4463 25.8871C35.1415 26.2849 35.7357 26.8326 36.2166 27.4537C37.1844 28.6959 37.7174 30.2441 37.7939 31.826C37.8613 33.4079 37.4295 35.0479 36.4463 36.3452C35.9624 36.9938 35.3467 37.5568 34.627 37.9607C33.9072 38.3646 33.0802 38.5849 32.2502 38.5941C31.4202 38.591 30.5902 38.3799 29.8735 37.9821C29.1506 37.5905 28.5442 37.0183 28.0786 36.3697Z" fill="black"/>
<path id="Vector_79" d="M26.6973 15.1568L26.7034 15.1874C26.6391 15.2088 26.5778 15.2302 26.5135 15.2516C26.5135 15.2302 26.5135 15.2118 26.5135 15.1904C26.5748 15.1782 26.636 15.169 26.6973 15.1568Z" fill="black"/>
<path id="Vector_80" d="M26.5503 16.0502C26.535 15.784 26.5227 15.5178 26.5135 15.2516C26.5778 15.2302 26.6391 15.2088 26.7034 15.1874L26.6973 15.1568C26.636 15.169 26.5748 15.1782 26.5135 15.1904C26.4798 13.9237 26.5411 12.6539 26.6207 11.3903C26.7279 9.83902 26.8657 8.28775 27.1567 6.76096C27.3926 5.55544 27.6897 4.35604 28.1123 3.20559C28.1705 3.15357 28.2318 3.09238 28.29 3.02201C27.8887 4.25201 27.6406 5.53096 27.4599 6.80992C27.2333 8.33059 27.1537 9.87267 27.1108 11.4117C27.0648 12.9446 27.1537 14.4775 27.1598 16.0104L27.0924 16.0471L26.6391 16.3042L26.5687 16.3103C26.5625 16.2246 26.5564 16.1359 26.5503 16.0502Z" fill="black"/>
<path id="Vector_81" d="M25.0311 24.1064C25.1628 24.0574 25.2945 24.0085 25.4232 23.9534C25.2761 24.0391 25.1291 24.1309 24.9852 24.2227C24.2593 24.6724 23.564 25.1742 22.9116 25.728C23.4844 25.1742 24.1 24.6633 24.7524 24.2074C24.8443 24.1737 24.9392 24.1401 25.0311 24.1064Z" fill="black"/>
<path id="Vector_82" d="M24.7524 24.2074C25.5028 23.6689 26.3053 23.2007 27.1445 22.806C27.7724 22.5123 28.4309 22.2645 29.1077 22.087C28.7984 22.2889 28.4799 22.4786 28.1583 22.6592C27.8489 22.7693 27.5396 22.8886 27.2394 23.0202C26.6146 23.2895 26.0082 23.6046 25.4232 23.9534C25.2945 24.0085 25.1628 24.0574 25.0311 24.1064C24.9392 24.1401 24.8443 24.1737 24.7524 24.2074Z" fill="black"/>
<path id="Vector_83" d="M22.0357 16.3317C22.5686 16.2797 23.0954 16.1665 23.6222 16.0716C24.1429 15.9584 24.6636 15.8207 25.1812 15.6861C25.6284 15.5484 26.0725 15.4077 26.5135 15.2516C26.5227 15.5178 26.535 15.784 26.5503 16.0502C26.5564 16.1359 26.5625 16.2246 26.5687 16.3103C26.587 16.6315 26.6115 16.9559 26.6422 17.2771C26.1827 17.3445 25.7264 17.4209 25.27 17.5036L23.7233 17.7392C22.6942 17.8768 21.6651 18.0574 20.6268 18.14C19.5885 18.2318 18.5471 18.2777 17.5057 18.2379C16.9851 18.2195 16.4644 18.1889 15.9467 18.1247C15.4628 18.0696 14.9758 17.9931 14.5042 17.8646C14.4827 17.6443 14.4613 17.424 14.4368 17.2037C14.3878 16.7815 14.3296 16.3592 14.2683 15.9401C14.7124 16.0869 15.1719 16.1879 15.6343 16.2705C16.1581 16.3715 16.691 16.4296 17.224 16.4786C18.2929 16.5612 19.3649 16.5489 20.4338 16.4816L21.2363 16.4235L22.0357 16.3317Z" fill="white"/>
<path id="Vector_84" d="M29.1996 78.2478C28.1001 78.0244 27.0311 77.6542 26.0388 77.1218C22.0724 74.8546 19.2454 70.9657 17.8916 66.679C17.9529 66.8687 18.0172 67.0554 18.0846 67.242C18.7309 68.9983 19.5976 70.6964 20.7585 72.1712C21.3312 72.9147 21.9683 73.6062 22.6329 74.2549C23.2976 74.9096 23.9959 75.5338 24.7493 76.0846C25.5028 76.6322 26.3083 77.1371 27.1965 77.4522C27.6315 77.6236 28.0664 77.7766 28.4982 77.9418L28.826 78.0611C28.9301 78.104 29.0526 78.1376 29.1292 78.1866C29.1629 78.2111 29.1874 78.2294 29.1996 78.2478Z" fill="black"/>
<path id="Vector_85" d="M18.0907 46.5095C17.7936 48.7309 17.4874 50.9522 17.2638 53.1735C17.1872 53.9538 17.1259 54.734 17.0923 55.5142C17.1168 54.8227 17.1413 54.1251 17.1749 53.4336C17.2209 52.5126 17.2913 51.5886 17.3832 50.6707C17.5701 48.8288 17.8335 46.996 18.1734 45.1724L18.1122 45.1571C17.9743 45.714 17.8426 46.2739 17.7263 46.8369C17.7446 46.7115 17.7661 46.5891 17.7844 46.4636C18.1428 44.2484 18.593 42.0485 19.0953 39.8638L19.1566 39.8761C18.7309 42.0791 18.3909 44.2912 18.0907 46.5095Z" fill="black"/>
<path id="Vector_86" d="M18.5655 67.0737C17.9621 65.3389 17.5639 63.5367 17.3097 61.7193C17.0586 59.8988 17.0157 58.0538 17.0708 56.2088C17.0708 56.3067 17.0677 56.4076 17.0677 56.5056C17.0555 57.6193 17.1229 58.7177 17.2301 59.8345C17.4353 62.0497 17.7661 64.2558 18.4552 66.3608C18.7952 67.4103 19.1964 68.4445 19.7079 69.4205C19.9407 69.9223 20.2408 70.3843 20.5134 70.8617L20.9729 71.547L21.2026 71.8928C21.2822 72.0029 21.368 72.11 21.4537 72.2171L21.9622 72.8688C22.1398 73.0799 22.3297 73.2758 22.5135 73.4808C22.8749 73.8938 23.2761 74.2916 23.6712 74.671C24.4706 75.4267 25.3496 76.0907 26.3114 76.6139C28.2318 77.6603 30.4676 78.1009 32.6637 77.9785C33.7694 77.9234 34.872 77.7674 35.9409 77.489C37.0068 77.2075 38.0451 76.7975 38.967 76.1978C39.8859 75.6011 40.6853 74.8025 41.1998 73.8326C41.451 73.3523 41.6623 72.8199 41.7205 72.2997C41.7236 72.2355 41.7205 72.1743 41.7082 72.1253C41.6929 72.0794 41.6868 72.0794 41.6654 72.0764C41.598 72.0764 41.4693 72.1376 41.3805 72.2263C41.1906 72.4007 41.0375 72.6302 40.8966 72.8688C40.6148 73.3339 40.333 73.8081 39.9808 74.2365L39.9716 74.2304C39.696 74.4415 39.4081 74.6312 39.1048 74.7934C39.3621 74.6067 39.5979 74.3956 39.794 74.1447C40.1462 73.7225 40.4219 73.239 40.7128 72.7556C40.8537 72.5139 41.0099 72.2661 41.2335 72.0611C41.3468 71.9631 41.4724 71.8561 41.6868 71.8499C41.8093 71.853 41.9135 71.9754 41.9288 72.0641C41.9502 72.1529 41.9533 72.2324 41.9471 72.3089C41.892 72.9055 41.6868 73.4379 41.4356 73.955C40.918 74.98 40.0972 75.8337 39.1538 76.4762C38.2074 77.1249 37.1416 77.5746 36.0512 77.8928C34.9578 78.2111 33.8276 78.3916 32.6943 78.465C31.607 78.5415 30.5044 78.4864 29.4263 78.2906C29.4263 78.2508 29.4171 78.208 29.3987 78.1743C29.3589 78.0917 29.2946 78.0458 29.2394 78.0091C29.1169 77.9387 29.0097 77.9143 28.8995 77.8714L28.5717 77.7521C28.1368 77.593 27.6927 77.44 27.2639 77.2748C26.391 76.978 25.6161 76.4609 24.878 75.9163C24.1398 75.3594 23.4538 74.7414 22.8136 74.0774C22.1704 73.4104 21.5701 72.7128 21.0311 71.9693C19.9407 70.4853 19.1566 68.8086 18.5655 67.0737Z" fill="black"/>
<path id="Vector_87" d="M24.878 75.9163C25.6161 76.4609 26.391 76.978 27.2639 77.2748C27.6927 77.44 28.1368 77.593 28.5718 77.7521L28.8995 77.8714C29.0097 77.9143 29.1169 77.9387 29.2395 78.0091C29.2946 78.0458 29.3589 78.0917 29.3987 78.1743C29.4171 78.208 29.4263 78.2508 29.4263 78.2906C29.3497 78.2784 29.2762 78.2631 29.1996 78.2478C29.1874 78.2294 29.1629 78.211 29.1292 78.1866C29.0526 78.1376 28.9301 78.104 28.826 78.0611L28.4982 77.9418C28.0664 77.7766 27.6315 77.6236 27.1965 77.4522C26.3083 77.1371 25.5028 76.6322 24.7493 76.0846C23.9959 75.5338 23.2976 74.9096 22.6329 74.2549C21.9683 73.6062 21.3312 72.9147 20.7585 72.1712C19.5976 70.6964 18.7309 68.9983 18.0846 67.242C18.0172 67.0554 17.9529 66.8687 17.8916 66.679C17.8794 66.6362 17.8641 66.5934 17.8518 66.5505C17.5027 65.4705 17.2454 64.3629 17.0494 63.2461C16.8533 62.1323 16.7216 61.0064 16.639 59.8835C16.6114 59.5255 16.5869 59.1644 16.5685 58.8003C16.5501 57.9283 16.5654 57.0594 16.6022 56.1935C16.6481 55.1073 16.7155 54.0211 16.8135 52.9379C17.0555 50.891 17.3985 48.8655 17.7263 46.8369C17.8426 46.2739 17.9743 45.714 18.1122 45.1571L18.1734 45.1724C17.8335 46.996 17.5701 48.8288 17.3832 50.6707C17.2913 51.5886 17.2209 52.5126 17.1749 53.4336C17.1413 54.1251 17.1168 54.8227 17.0923 55.5142C17.0861 55.7467 17.08 55.9793 17.0708 56.2088C17.0157 58.0538 17.0586 59.8988 17.3097 61.7193C17.5639 63.5367 17.9621 65.3389 18.5655 67.0737C19.1566 68.8086 19.9407 70.4853 21.0311 71.9693C21.5701 72.7128 22.1704 73.4104 22.8136 74.0774C23.4538 74.7414 24.1398 75.3594 24.878 75.9163Z" fill="black"/>
<path id="Vector_88" d="M17.7263 46.8369C17.3985 48.8655 17.0555 50.891 16.8135 52.9379C16.8809 52.1669 16.9636 51.3989 17.0647 50.6309C17.2362 49.3581 17.4567 48.0914 17.7263 46.8369Z" fill="black"/>
<path id="Vector_89" d="M16.7768 61.7896C16.6512 60.7952 16.5869 59.7978 16.5685 58.8003C16.5869 59.1644 16.6114 59.5255 16.639 59.8835C16.7216 61.0064 16.8533 62.1323 17.0494 63.2461C17.2454 64.3629 17.5027 65.4705 17.8518 66.5505C17.8641 66.5934 17.8794 66.6362 17.8916 66.679C17.6589 65.9784 17.4598 65.2685 17.2852 64.5495C17.0647 63.6408 16.887 62.7198 16.7768 61.7896Z" fill="black"/>
<path id="Vector_90" d="M16.6022 56.1935C16.5654 57.0594 16.5501 57.9283 16.5685 58.8003C16.5256 58.0354 16.5103 57.2613 16.5318 56.4964C16.5624 55.3673 16.6604 54.2414 16.789 53.1246C16.7952 53.0634 16.8043 52.9991 16.8135 52.9379C16.7155 54.0211 16.6481 55.1073 16.6022 56.1935Z" fill="black"/>
<path id="Vector_91" d="M17.4965 18.3909C16.9728 18.3511 16.4521 18.3021 15.9345 18.2165C15.4506 18.143 14.9728 18.0482 14.5072 17.8983C14.5072 17.886 14.5042 17.8738 14.5042 17.8646C14.9758 17.9931 15.4628 18.0696 15.9467 18.1247C16.4644 18.1889 16.9851 18.2195 17.5057 18.2379C18.5471 18.2777 19.5885 18.2318 20.6268 18.14C21.6651 18.0574 22.6942 17.8768 23.7233 17.7392L25.27 17.5036C25.7264 17.421 26.1827 17.3445 26.6422 17.2771C26.6422 17.2955 26.6452 17.3139 26.6483 17.3322C26.2072 17.4699 25.7601 17.5923 25.3129 17.7116C24.8014 17.8279 24.2899 17.938 23.7754 18.0421C22.7401 18.2226 21.6926 18.3358 20.6451 18.3848C19.5976 18.446 18.544 18.4612 17.4965 18.3909Z" fill="black"/>
<path id="Vector_92" d="M25.1812 15.6861C24.6636 15.8207 24.1429 15.9584 23.6222 16.0716C23.0954 16.1665 22.5686 16.2797 22.0357 16.3317L21.2363 16.4235L20.4338 16.4816C19.3649 16.5489 18.2929 16.5612 17.2239 16.4786C16.691 16.4296 16.1581 16.3715 15.6343 16.2705C15.1719 16.1879 14.7124 16.0869 14.2683 15.9401C14.2653 15.9248 14.2653 15.9095 14.2622 15.8942C14.7155 16.0288 15.181 16.1175 15.6497 16.1818C16.1734 16.2583 16.7033 16.298 17.2362 16.3256C18.2959 16.3776 19.3587 16.3348 20.4154 16.2368L21.2056 16.1512L21.9928 16.0318C22.2562 15.9951 22.5196 15.9554 22.7799 15.9064L23.564 15.7718C24.0878 15.6892 24.6054 15.5698 25.1291 15.478C25.5885 15.3801 26.048 15.2792 26.5135 15.1904C26.5135 15.2118 26.5135 15.2302 26.5135 15.2516C26.0725 15.4077 25.6284 15.5484 25.1812 15.6861Z" fill="black"/>
<path id="Vector_93" d="M14.5042 17.8646C14.5042 17.8738 14.5072 17.886 14.5072 17.8983C14.4705 17.8921 14.4368 17.8799 14.4 17.8677L14.4092 17.8401C14.4398 17.8493 14.4735 17.8585 14.5042 17.8646Z" fill="black"/>
<path id="Vector_94" d="M14.2683 15.9401C14.204 15.9186 14.1427 15.8972 14.0815 15.8758L14.0907 15.8452C14.1458 15.8636 14.204 15.8819 14.2622 15.8942C14.2653 15.9095 14.2653 15.9248 14.2683 15.9401Z" fill="black"/>
<path id="Vector_95" d="M11.6435 23.3231C12.1795 23.6627 12.7063 24.0146 13.2239 24.3848C12.1335 23.9595 11.1075 23.3445 10.256 22.5337C10.743 22.7632 11.1994 23.0447 11.6435 23.3231Z" fill="black"/>
<path id="Vector_96" d="M10.8839 6.21021C11.0707 6.29283 11.2637 6.34178 11.4597 6.38462C11.8517 6.46723 12.2499 6.51312 12.6481 6.54066C13.4444 6.60186 14.2438 6.61103 15.0432 6.59268C16.6389 6.5682 18.2347 6.43663 19.8212 6.19186C21.4017 5.91954 22.9606 5.52484 24.4859 5.00775C25.2455 4.74462 25.999 4.45089 26.734 4.08984C27.0985 3.90626 27.4599 3.70738 27.8091 3.45343C27.9102 3.37693 28.0112 3.30044 28.1123 3.20559C27.6897 4.35604 27.3926 5.55544 27.1567 6.76096C26.8657 8.28775 26.7279 9.83902 26.6207 11.3903C26.5411 12.6539 26.4798 13.9237 26.5135 15.1904C26.048 15.2792 25.5885 15.3801 25.1291 15.478C24.6054 15.5698 24.0878 15.6892 23.564 15.7718L22.7799 15.9064C22.5196 15.9554 22.2562 15.9951 21.9928 16.0318L21.2056 16.1512L20.4154 16.2368C19.3587 16.3348 18.2959 16.3776 17.2362 16.3256C16.7033 16.298 16.1734 16.2583 15.6497 16.1818C15.181 16.1175 14.7155 16.0288 14.2622 15.8942C14.1274 14.9854 13.962 14.0828 13.7599 13.1863C13.4567 11.8645 13.1565 10.5213 12.6052 9.26685C12.1427 8.1929 11.5883 7.14342 10.8839 6.21021Z" fill="#141414"/>
<path id="Vector_97" d="M14.5072 17.8983C14.6144 19.0151 14.691 20.1349 14.6542 21.2639L14.593 21.2578C14.5715 20.4868 14.495 19.7127 14.3939 18.9447C14.3173 18.3756 14.2285 17.8095 14.1335 17.2466C13.9161 15.9186 13.6343 14.5999 13.2851 13.3026C13.2024 12.9783 13.1075 12.657 13.0064 12.3357C12.9023 12.0175 12.8135 11.6932 12.6971 11.3811L12.3755 10.4295C12.256 10.1175 12.1458 9.8023 12.0355 9.48715C11.6067 8.30611 11.1228 7.14954 10.5684 6.00216C10.6542 6.09701 10.7736 6.16126 10.8808 6.21021H10.8839C11.5883 7.14342 12.1427 8.1929 12.6052 9.26686C13.1565 10.5213 13.4567 11.8645 13.7599 13.1863C13.962 14.0828 14.1274 14.9854 14.2622 15.8942C14.204 15.8819 14.1458 15.8636 14.0907 15.8452L14.0815 15.8758C14.1427 15.8972 14.204 15.9186 14.2683 15.9401C14.3296 16.3592 14.3878 16.7815 14.4368 17.2037C14.4613 17.424 14.4827 17.6443 14.5042 17.8646C14.4735 17.8585 14.4398 17.8493 14.4092 17.8401L14.4 17.8677C14.4368 17.8799 14.4705 17.8921 14.5072 17.8983Z" fill="black"/>
<path id="Vector_98" d="M10.5408 5.78186C10.6113 5.86447 10.6817 5.95014 10.7491 6.03887C10.6511 5.97156 10.5684 5.88895 10.5408 5.78186Z" fill="black"/>
<path id="Vector_99" d="M10.8808 6.21021C10.7736 6.16126 10.6542 6.097 10.5684 6.00215C10.5347 5.92872 10.501 5.85835 10.4643 5.78492L10.5163 5.75126C10.5255 5.76044 10.5347 5.77268 10.5409 5.78186C10.5684 5.88894 10.6511 5.97156 10.7491 6.03887C10.7951 6.09395 10.8379 6.15208 10.8808 6.21021Z" fill="black"/>
<path id="Vector_100" d="M16.642 2.70686C15.8794 2.89044 15.1198 3.10768 14.3755 3.36163C13.6282 3.61253 12.89 3.9032 12.1856 4.26119C11.8395 4.44783 11.4934 4.64059 11.181 4.87619C11.0248 4.99551 10.8747 5.12402 10.7491 5.26783C10.6266 5.41163 10.5102 5.58298 10.5347 5.76044C10.5347 5.76656 10.5378 5.77574 10.5408 5.78186C10.5347 5.77268 10.5255 5.76044 10.5163 5.75126L10.4643 5.78492C10.501 5.85835 10.5347 5.92872 10.5684 6.00215C10.5102 5.94096 10.4643 5.86753 10.4459 5.77574C10.4061 5.54626 10.5378 5.35044 10.6603 5.19439C10.7889 5.03529 10.936 4.89454 11.0922 4.76604C11.4015 4.50902 11.7323 4.27954 12.0753 4.06537C12.7553 3.64007 13.4659 3.26066 14.1917 2.91186C15.6435 2.22649 17.1719 1.6482 18.7737 1.34223C20.3603 1.02096 21.9775 0.880219 23.5977 0.880219C24.4063 0.886338 25.2179 0.926114 26.0327 1.0332C26.44 1.08828 26.8474 1.15865 27.2578 1.27492C27.4661 1.33305 27.6713 1.40037 27.8826 1.5044C28.0878 1.61455 28.3329 1.72776 28.5074 2.06738C28.5901 2.24484 28.584 2.47126 28.5289 2.62425C28.4737 2.78335 28.3941 2.8935 28.3175 2.99141C28.3083 3.00365 28.2992 3.01283 28.29 3.02201C28.3665 2.78641 28.4462 2.55387 28.535 2.3244L28.4799 2.29992C28.3482 2.59671 28.2257 2.89962 28.1123 3.20559C28.0113 3.30044 27.9102 3.37693 27.8091 3.45343C27.4599 3.70738 27.0985 3.90626 26.7341 4.08984C25.999 4.45089 25.2455 4.74462 24.4859 5.00775C22.9606 5.52484 21.4017 5.91954 19.8212 6.19186C18.2347 6.43663 16.639 6.5682 15.0432 6.59268C14.2438 6.61103 13.4444 6.60186 12.6481 6.54066C12.2499 6.51312 11.8517 6.46723 11.4597 6.38462C11.2637 6.34178 11.0707 6.29283 10.8839 6.21021H10.8808C10.8379 6.15208 10.7951 6.09395 10.7491 6.03887C10.8012 6.07559 10.8594 6.10618 10.9176 6.13372C11.0922 6.21327 11.2851 6.26529 11.475 6.30812C11.864 6.39074 12.2591 6.42745 12.6542 6.45193C13.4475 6.48559 14.2408 6.45193 15.034 6.39992C15.8242 6.33566 16.6114 6.24387 17.3985 6.13372C18.1826 6.02663 18.9667 5.89813 19.7385 5.73902C21.2853 5.42693 22.8106 4.99551 24.2838 4.44477C25.0189 4.16634 25.7417 3.86037 26.4278 3.49626C26.7647 3.31574 27.0985 3.11686 27.3864 2.8935C27.5304 2.78335 27.6621 2.66402 27.7509 2.54469C27.7938 2.48962 27.8275 2.43149 27.8336 2.40089C27.8428 2.36417 27.8367 2.37947 27.8336 2.37335C27.8305 2.35193 27.708 2.2479 27.558 2.18671C27.4109 2.12246 27.2364 2.06738 27.0587 2.02455C26.7004 1.93581 26.3206 1.8838 25.9377 1.84708C25.1689 1.77365 24.3879 1.76753 23.6069 1.78895C22.0449 1.83179 20.4797 1.99395 18.9361 2.23872C18.1642 2.36111 17.4047 2.52022 16.642 2.70686Z" fill="black"/>
<path id="Vector_101" d="M8.67252 17.938C8.8226 17.8432 9.02781 17.8126 9.23302 17.8034C9.65263 17.7942 10.0906 17.8799 10.5194 17.9717C10.9513 18.0665 11.3801 18.1798 11.8089 18.293C12.6665 18.5255 13.5271 18.7519 14.3939 18.9447C14.495 19.7127 14.5715 20.4868 14.593 21.2578L14.6542 21.2639C14.691 20.1349 14.6144 19.0151 14.5072 17.8983C14.9728 18.0482 15.4506 18.143 15.9345 18.2165C16.4521 18.3021 16.9728 18.3511 17.4965 18.3909C18.544 18.4612 19.5977 18.446 20.6451 18.3848C21.6926 18.3358 22.7401 18.2226 23.7754 18.0421C24.2899 17.938 24.8014 17.8279 25.3129 17.7116C25.7601 17.5923 26.2072 17.4699 26.6483 17.3322C26.7463 18.4521 26.8964 19.5689 27.1383 20.6734L27.1996 20.6673C27.1996 20.1624 27.1996 19.6607 27.1935 19.1589C28.0143 19.012 28.826 18.8223 29.6346 18.6112L30.924 18.2685C31.3497 18.1614 31.7847 18.039 32.1981 18.0054C32.2992 17.9992 32.4003 17.9992 32.4738 18.0207C32.5504 18.0451 32.5688 18.0757 32.5841 18.1277C32.6116 18.241 32.5228 18.4521 32.4187 18.6204C32.1981 18.9753 31.898 19.2965 31.5886 19.5964C30.9608 20.2022 30.2624 20.7377 29.5335 21.2242C26.6085 23.1609 23.2149 24.3909 19.7079 24.5929C17.9652 24.7214 16.1948 24.6357 14.5164 24.2043C12.8349 23.7821 11.2576 22.9406 10.0876 21.6678C9.51174 21.0283 8.98799 20.3093 8.62658 19.5383C8.45506 19.1558 8.31723 18.7305 8.38768 18.3633C8.42443 18.1859 8.52244 18.0268 8.67252 17.938Z" fill="#141414"/>
<path id="Vector_102" d="M9.12888 51.2214C8.8471 54.8961 9.28509 58.5923 10.2162 62.1476C10.452 63.0319 10.7216 63.9314 10.9911 64.8035C11.279 65.6755 11.5853 66.5414 11.9467 67.3828C12.6511 69.0748 13.5516 70.6842 14.6267 72.1651C15.181 72.8902 15.7599 73.6001 16.4154 74.2365C16.7247 74.5731 17.0831 74.8576 17.4169 75.1667L17.956 75.592L18.2255 75.8L18.5073 75.9928L19.077 76.3783L19.6681 76.7179C20.0601 76.9566 20.4767 77.1463 20.8902 77.336C21.7294 77.7031 22.6023 77.9938 23.4997 78.1988C24.394 78.4099 25.3068 78.5354 26.2256 78.5905C26.6881 78.6211 27.1475 78.6241 27.61 78.6149C28.0694 78.6027 28.5258 78.566 28.9577 78.4405C29.071 78.413 29.169 78.3732 29.2027 78.3243C29.218 78.3028 29.2211 78.2784 29.1996 78.2478C29.2762 78.2631 29.3497 78.2784 29.4263 78.2906C29.4263 78.3457 29.4079 78.4008 29.3773 78.4436C29.2701 78.5874 29.1261 78.6119 29.0189 78.6486C28.5595 78.7832 28.0848 78.8261 27.6161 78.8444C27.1506 78.8628 26.682 78.872 26.2134 78.8536C25.2792 78.823 24.345 78.719 23.4262 78.5262C22.5073 78.3426 21.6038 78.0734 20.7278 77.7215C20.296 77.5379 19.858 77.3574 19.4506 77.1218L18.8289 76.7791L18.3082 76.4426L18.2347 76.3967L17.9407 76.2008L17.6558 75.9897L17.0922 75.5644C16.74 75.2523 16.3633 74.9617 16.0356 74.622C15.3434 73.9795 14.7461 73.2482 14.1642 72.5078C13.0401 70.9993 12.0998 69.3593 11.3617 67.6337C10.9758 66.777 10.6664 65.8896 10.3755 64.9993C10.1059 64.0967 9.84558 63.2185 9.60362 62.3098C9.14419 60.4985 8.78278 58.6535 8.6327 56.787C8.47343 54.9206 8.46731 53.042 8.65108 51.1817C9.04006 47.4611 10.1549 43.817 12.0049 40.589L12.0569 40.6165C11.2239 42.2718 10.5531 44.0067 10.0784 45.7874C9.58831 47.5682 9.27896 49.3887 9.12888 51.2214Z" fill="black"/>
<path id="Vector_103" d="M8.0477 18.2868C8.1059 18.0329 8.27129 17.7851 8.51019 17.6565C8.74603 17.525 9.00024 17.5036 9.23302 17.5066C9.70469 17.5219 10.1427 17.6321 10.5745 17.7483C11.0064 17.8677 11.4321 18.0023 11.8548 18.1369C12.7001 18.4092 13.5424 18.6877 14.3939 18.9447C13.5271 18.7519 12.6665 18.5255 11.8089 18.293C11.3801 18.1798 10.9513 18.0665 10.5194 17.9717C10.0906 17.8799 9.65263 17.7942 9.23302 17.8034C9.02781 17.8126 8.8226 17.8432 8.67252 17.938C8.52244 18.0268 8.42443 18.1859 8.38768 18.3633C8.31723 18.7305 8.45506 19.1558 8.62658 19.5383C8.98799 20.3093 9.51174 21.0283 10.0875 21.6678C11.2576 22.9406 12.8349 23.7821 14.5164 24.2043C16.1948 24.6357 17.9652 24.7214 19.7079 24.5929C23.2149 24.3909 26.6085 23.1609 29.5335 21.2242C30.2624 20.7377 30.9608 20.2022 31.5886 19.5964C31.898 19.2965 32.1981 18.9753 32.4187 18.6204C32.5228 18.4521 32.6116 18.2409 32.5841 18.1277C32.5687 18.0757 32.5504 18.0451 32.4738 18.0207C32.4003 17.9992 32.2992 17.9992 32.1981 18.0054C31.7847 18.039 31.3497 18.1614 30.924 18.2685L29.6346 18.6112C28.826 18.8223 28.0143 19.012 27.1935 19.1589C27.1935 19.1527 27.1935 19.1497 27.1935 19.1466C27.999 18.9386 28.7953 18.703 29.5886 18.4521L30.8566 18.0421C31.2854 17.9105 31.702 17.7636 32.1706 17.6994C32.29 17.6871 32.4156 17.678 32.5596 17.7147C32.7004 17.7392 32.8689 17.8738 32.9087 18.0421C32.9485 18.2073 32.9148 18.345 32.8781 18.4674C32.8383 18.5867 32.7831 18.6968 32.728 18.8009C32.5841 19.0518 32.4156 19.2782 32.2318 19.4924C32.1798 19.4801 32.1246 19.4709 32.0726 19.4587L32.0664 19.4893C32.1124 19.4985 32.1583 19.5107 32.2043 19.523C32.1001 19.6454 31.9899 19.7647 31.8765 19.884C31.2456 20.5357 30.5381 21.0987 29.8061 21.6189C29.5764 21.781 29.3436 21.9371 29.1077 22.087C28.4309 22.2645 27.7724 22.5123 27.1445 22.806C26.3053 23.2007 25.5028 23.6689 24.7524 24.2074C23.1413 24.7642 21.4476 25.0794 19.7508 25.2048C17.956 25.3242 16.1275 25.2354 14.3663 24.7612C13.9804 24.6571 13.5976 24.5317 13.2239 24.3848C12.7063 24.0146 12.1795 23.6627 11.6435 23.3231C11.1994 23.0447 10.743 22.7632 10.256 22.5337C10.0722 22.3624 9.89765 22.1788 9.73226 21.986C9.1442 21.2915 8.62045 20.548 8.25904 19.6943C8.09364 19.269 7.93744 18.8009 8.0477 18.2868Z" fill="black"/>
<path id="Vector_104" d="M5.73526 30.5777C7.13192 30.5012 8.36011 31.7403 8.23147 32.031C8.14265 32.2452 7.38001 31.8566 5.96498 31.9515C4.27429 32.0647 3.4167 32.7531 3.27887 32.542C3.09816 32.2666 4.21304 30.6603 5.73526 30.5777Z" fill="black"/>
<path id="Vector_105" d="M6.16406 38.3799C7.07985 36.8347 8.09977 35.3538 9.23914 33.9678C8.47037 35.0234 7.75367 36.1157 7.09516 37.2386C7.06147 37.2845 7.03084 37.3335 6.99715 37.3824C6.80419 37.6578 6.65105 37.9332 6.37539 38.2208C6.3172 38.282 6.24676 38.3371 6.16406 38.3799Z" fill="black"/>
<path id="Vector_106" d="M3.22374 44.6431C3.26049 44.7685 3.29725 44.894 3.33094 45.0194C3.28806 44.9154 3.24518 44.8114 3.19923 44.7104C3.20536 44.689 3.21455 44.6645 3.22374 44.6431Z" fill="black"/>
<path id="Vector_107" d="M2.68775 48.382C2.47947 49.4162 2.33246 50.4718 2.21913 51.5244C1.99861 53.6233 2.0813 55.7467 2.49785 57.8151C3.28806 61.9488 5.22377 65.8927 8.14265 68.9524C9.58831 70.5128 11.1687 71.9387 12.8012 73.3155C13.6067 74.0131 14.4337 74.6863 15.3403 75.2431C15.7905 75.5216 16.2653 75.7602 16.7553 75.9683C17.2454 76.1794 17.7477 76.363 18.2623 76.5129C17.2209 76.2682 16.1979 75.9102 15.2576 75.3808C14.3173 74.8576 13.4505 74.212 12.6113 73.5481C10.939 72.2171 9.30347 70.8127 7.80268 69.2798C6.26207 67.7622 5.01244 65.957 4.02314 64.0385C3.03691 62.114 2.31714 60.0548 1.89753 57.9283C1.48711 55.8018 1.4228 53.608 1.66782 51.4662C1.90979 49.3336 2.31102 47.1949 3.03385 45.1632C3.08898 45.0133 3.14104 44.8603 3.19924 44.7104C3.24518 44.8114 3.28806 44.9154 3.33094 45.0194C3.29725 44.894 3.2605 44.7685 3.22374 44.6431C3.90063 42.7981 4.69696 41.0021 5.64032 39.2794C5.80877 38.9765 5.98335 38.6767 6.16406 38.3799C6.24676 38.3371 6.3172 38.282 6.3754 38.2208C6.65105 37.9332 6.80419 37.6578 6.99715 37.3824C7.03084 37.3335 7.06147 37.2845 7.09516 37.2386C5.59744 39.7904 4.38456 42.5013 3.48102 45.3101C3.16249 46.3198 2.89602 47.3448 2.68775 48.382Z" fill="black"/>
<path id="Vector_108" d="M1.44423 31.5629C1.58513 30.3237 2.1395 29.1549 2.89908 28.2033C3.3095 27.6954 3.7873 27.2487 4.32636 26.9152C4.86236 26.5817 5.48105 26.4104 6.09974 26.4471C6.7215 26.4899 7.32181 26.7683 7.83331 27.16C8.35092 27.5547 8.78278 28.0626 9.13195 28.6195C9.47498 29.1824 9.73532 29.7974 9.89766 30.4339C10.0692 31.0672 10.1212 31.7373 10.0385 32.3737C9.9926 32.6919 9.90378 33.0071 9.76902 33.2824C9.64957 33.518 9.42292 33.7169 9.20852 33.9403C9.19014 33.9586 9.17176 33.98 9.15339 33.9984C8.68171 34.4788 8.24066 34.9867 7.82105 35.5068C7.39532 36.027 6.98796 36.5624 6.60205 37.1101C6.40909 37.3733 6.22226 37.6762 6.03542 37.8689C5.94047 37.9638 5.85778 37.9974 5.72914 38.0158C5.60356 38.0403 5.46267 38.025 5.32178 37.9944C4.74903 37.8689 4.21304 37.465 3.74442 37.0367C3.27581 36.5961 2.85926 36.0943 2.50398 35.5466C1.79952 34.4543 1.33704 33.1417 1.4228 31.8107C1.42892 31.7281 1.43505 31.6455 1.44423 31.5629ZM8.23147 32.031C8.36011 31.7403 7.13192 30.5012 5.73527 30.5777C4.21304 30.6603 3.09817 32.2666 3.27887 32.542C3.4167 32.7531 4.27429 32.0647 5.96498 31.9515C7.38001 31.8566 8.14265 32.2452 8.23147 32.031Z" fill="white"/>
<path id="Vector_109" d="M40.6853 36.2565C40.9793 35.7883 41.16 35.2529 41.2549 34.7174C41.4693 33.6435 41.405 32.5359 41.1079 31.5017L41.0773 31.5109C41.1906 32.031 41.2304 32.5665 41.2212 33.0958C41.2151 33.6251 41.1477 34.1544 41.016 34.6624C40.8935 35.1733 40.6607 35.6445 40.4218 36.1004C40.1921 36.5716 39.8552 36.9724 39.5306 37.4038L39.5489 37.4283C39.7633 37.2631 39.9961 37.1101 40.1768 36.9021C40.2718 36.8041 40.3606 36.7001 40.4525 36.5961C40.5352 36.4859 40.6087 36.3697 40.6853 36.2565ZM31.0067 62.0405C31.4814 61.1471 31.9409 60.2506 32.4401 59.3817C32.9547 58.5219 33.46 57.6376 33.9225 56.735C34.1522 56.2791 34.3666 55.8294 34.5718 55.3459C34.7709 54.8625 34.9087 54.3607 35.0221 53.8558C35.2395 52.8461 35.3314 51.8211 35.3743 50.8084C35.4968 48.7951 35.4049 46.69 34.6545 44.7747C34.2043 43.5967 33.5397 42.5166 32.7158 41.5773C33.6438 41.5467 34.5718 41.412 35.4723 41.1673C35.947 41.0326 36.4279 40.8888 36.8628 40.6379C37.2947 40.384 37.699 40.0688 37.993 39.665L37.9685 39.6435C37.5612 39.925 37.1538 40.1606 36.7219 40.3656C36.2901 40.5676 35.8552 40.7695 35.4019 40.9317C34.9455 41.0908 34.4738 41.2132 33.9991 41.3141C33.5642 41.409 33.1262 41.4885 32.6821 41.5375C32.1736 40.9653 31.607 40.4452 30.9975 39.9893L30.9608 40.0382C32.5228 41.305 33.7296 42.9939 34.3666 44.8787C35.0343 46.7635 35.065 48.789 34.8812 50.7778C34.7985 51.7753 34.6698 52.7635 34.4279 53.7182C34.3146 54.1955 34.1584 54.6605 33.9838 55.1103C33.8031 55.5601 33.5856 56.0221 33.3773 56.4719C32.9639 57.3867 32.5106 58.2771 32.0787 59.195C31.6468 60.116 31.2793 61.0584 30.9516 62.0161L31.0067 62.0405ZM1.74133 28.0779C2.20994 26.7133 2.87151 25.4098 3.81793 24.345C4.75822 23.2895 6.02623 22.4817 7.44432 22.3746C8.14265 22.3165 8.85935 22.4083 9.5393 22.6316C10.2254 22.8427 10.8594 23.2007 11.5056 23.5556C12.7859 24.2716 14.0386 25.0488 15.1994 25.9545C14.6604 25.4527 14.0784 24.9937 13.4781 24.5653C13.3923 24.5042 13.3096 24.443 13.2239 24.3848C13.5976 24.5317 13.9804 24.6571 14.3663 24.7612C16.1275 25.2354 17.956 25.3242 19.7508 25.2048C21.4476 25.0794 23.1413 24.7642 24.7524 24.2074C24.1 24.6633 23.4844 25.1742 22.9116 25.728C23.564 25.1742 24.2593 24.6724 24.9852 24.2227C25.1291 24.1309 25.2761 24.0391 25.4232 23.9534C26.3665 23.5893 27.2823 23.1579 28.1583 22.6592C29.4508 22.2033 30.8168 21.9524 32.1736 22.087C33.0129 22.1574 33.8337 22.3715 34.6025 22.7142C35.3804 23.0416 36.0726 23.5465 36.7189 24.088L37.1936 24.5133L37.6285 24.9784C37.9348 25.2752 38.1737 25.6301 38.4463 25.9575C38.7097 26.2941 38.9394 26.6551 39.1875 27.0039L39.8522 28.1024C39.6561 27.723 39.4601 27.3405 39.258 26.9611C39.0283 26.6 38.8139 26.2237 38.5688 25.8688C38.3054 25.5292 38.0727 25.162 37.7756 24.8499L37.3468 24.3603L36.8751 23.9136C35.6132 22.7234 33.944 21.9401 32.2012 21.7841C31.1537 21.6953 30.1124 21.8177 29.1077 22.087C29.3436 21.9371 29.5764 21.781 29.8061 21.6189C30.5381 21.0987 31.2456 20.5357 31.8765 19.884C31.9899 19.7647 32.1001 19.6454 32.2043 19.523C34.0512 19.9697 35.7449 20.8906 37.2457 22.0319C38.7985 23.1946 40.1707 24.5776 41.4326 26.0462C42.6945 27.518 43.8369 29.0876 44.8936 30.7153C45.9411 32.3431 46.9365 34.0137 47.8002 35.7424V35.7455L47.8033 35.7516C48.036 36.1738 48.2719 36.59 48.4985 37.0153C48.7099 37.4436 48.9396 37.8659 49.1356 38.3034C49.546 39.1693 49.9105 40.0597 50.2382 40.9592C50.5598 41.8618 50.8416 42.7797 51.0652 43.7129C51.2827 44.6339 51.4572 45.5855 51.5062 46.5187C47.3806 46.5615 44.1095 45.8456 43.5582 45.7201C43.6194 45.46 43.6746 45.1969 43.7175 44.9307C43.9104 43.8384 43.9472 42.7247 43.8583 41.6262C43.6562 39.4324 43.013 37.2968 42.0298 35.3477C42.8874 37.3518 43.4632 39.4844 43.5582 41.6476C43.6133 42.7247 43.5521 43.8078 43.3377 44.8603C43.1386 45.9129 42.7649 46.9317 42.3361 47.92C42.1187 48.4096 41.8798 48.8991 41.6225 49.3642C41.3591 49.8262 41.065 50.276 40.7496 50.7105C40.1186 51.5794 39.3989 52.3933 38.6791 53.2133C37.9563 54.0364 37.2518 54.8625 36.5167 55.6641C36.1523 56.0649 35.7725 56.4505 35.4019 56.8727C35.0374 57.2919 34.7005 57.7233 34.3605 58.1578C33.0343 59.914 31.8551 61.7896 30.9516 63.809C30.728 64.3139 30.5228 64.8279 30.3513 65.3634C30.2655 65.6479 30.2134 65.9049 30.143 66.1773C30.0879 66.4496 30.0297 66.7219 29.9837 66.9942C29.7999 68.0896 29.7387 69.2155 29.898 70.3293C30.0725 71.4338 30.4523 72.5353 31.1445 73.4318C31.3191 73.6521 31.4906 73.8755 31.6958 74.0682C31.7969 74.1661 31.8919 74.2732 31.9991 74.3619L32.3237 74.6281C32.532 74.8148 32.7801 74.9494 33.0098 75.1055C33.2426 75.2615 33.4998 75.39 33.7602 75.491C34.287 75.696 34.8475 75.8031 35.4049 75.8214C35.9562 75.8337 36.5137 75.8061 37.0558 75.6929C37.4907 75.6011 37.9134 75.4634 38.3177 75.2829C37.4111 75.7755 36.3973 76.0693 35.3743 76.1549C34.2717 76.2406 33.1476 76.0815 32.1308 75.6623C31.1108 75.2431 30.2471 74.518 29.5855 73.649C28.2655 71.8714 27.7325 69.647 27.2976 67.4868C27.0955 66.4006 27.0189 65.2961 27.0311 64.1915C27.0403 63.087 27.1598 61.9793 27.2854 60.8717C27.3497 60.3332 27.463 59.7825 27.5549 59.2256L27.8336 57.5673L28.3543 54.2444C28.437 53.6876 28.5227 53.1338 28.5901 52.5738C28.6544 52.017 28.7065 51.4326 28.6851 50.8696C28.6698 49.7344 28.5534 48.6054 28.3328 47.4978C28.1215 46.3871 27.7723 45.2979 27.3007 44.2729C26.8351 43.2448 26.2562 42.2718 25.5763 41.3753L25.5273 41.412C26.78 43.2662 27.659 45.3621 28.0174 47.5559C28.2073 48.6482 28.293 49.762 28.2808 50.8696C28.2869 51.4264 28.2256 51.9588 28.146 52.5157L27.8918 54.171L27.3344 57.4846L27.0434 59.1369C26.9454 59.6876 26.829 60.2323 26.7494 60.8044C26.4461 63.0319 26.3634 65.3389 26.8014 67.5786C26.9025 68.1416 27.0526 68.6862 27.1965 69.2308C27.3466 69.7755 27.512 70.317 27.705 70.8525C28.0909 71.9172 28.6085 72.9514 29.313 73.8571C29.6805 74.2977 30.0787 74.7169 30.5411 75.0596C30.6483 75.1544 30.7739 75.2248 30.8934 75.3043C31.0159 75.3778 31.1292 75.4665 31.2609 75.5307C31.5182 75.6562 31.7663 75.7969 32.0358 75.8979C33.1017 76.311 34.2594 76.4701 35.3927 76.366C36.5259 76.262 37.6255 75.8949 38.6117 75.3349C38.8598 75.1942 39.0987 75.0412 39.3284 74.8699C39.5581 74.6985 39.7664 74.4935 39.9502 74.2732C39.9594 74.261 39.9716 74.2487 39.9808 74.2365C40.333 73.8081 40.6148 73.3339 40.8966 72.8688C41.0375 72.6302 41.1906 72.4007 41.3805 72.2263C41.4693 72.1375 41.598 72.0764 41.6654 72.0764C41.6868 72.0794 41.6929 72.0794 41.7082 72.1253C41.7205 72.1743 41.7236 72.2355 41.7205 72.2997C41.6623 72.8199 41.451 73.3522 41.1998 73.8326C40.6852 74.8025 39.8859 75.6011 38.967 76.1978C38.0451 76.7975 37.0068 77.2075 35.9409 77.489C34.872 77.7674 33.7694 77.9234 32.6637 77.9785C30.4676 78.1009 28.2318 77.6603 26.3114 76.6139C25.3496 76.0907 24.4706 75.4267 23.6712 74.671C23.2761 74.2916 22.8749 73.8938 22.5135 73.4808C22.3297 73.2758 22.1398 73.0799 21.9622 72.8688L21.4537 72.2171C21.368 72.11 21.2822 72.0029 21.2026 71.8928L20.9729 71.547L20.5134 70.8617C20.2408 70.3843 19.9407 69.9223 19.7079 69.4205C19.1964 68.4445 18.7952 67.4103 18.4552 66.3608C17.7661 64.2558 17.4353 62.0497 17.2301 59.8345C17.1229 58.7177 17.0555 57.6193 17.0677 56.5055C17.0677 56.4076 17.0708 56.3067 17.0708 56.2088C17.08 55.9793 17.0861 55.7467 17.0923 55.5142C17.1259 54.734 17.1872 53.9538 17.2638 53.1735C17.4874 50.9522 17.7936 48.7309 18.0907 46.5095C18.3909 44.2912 18.7309 42.0791 19.1566 39.8761L19.0953 39.8638C18.593 42.0485 18.1428 44.2484 17.7844 46.4636C17.7661 46.5891 17.7446 46.7114 17.7263 46.8369C17.4567 48.0914 17.2362 49.3581 17.0647 50.6309C16.9636 51.3989 16.8809 52.1669 16.8135 52.9379C16.8043 52.9991 16.7952 53.0634 16.789 53.1246C16.6604 54.2414 16.5624 55.3673 16.5318 56.4964C16.5103 57.2613 16.5256 58.0354 16.5685 58.8003C16.5869 59.7978 16.6512 60.7952 16.7768 61.7896C16.887 62.7198 17.0647 63.6408 17.2852 64.5495C17.4598 65.2685 17.6589 65.9784 17.8916 66.679C19.2454 70.9657 22.0724 74.8546 26.0388 77.1218C27.0311 77.6542 28.1001 78.0244 29.1996 78.2478C29.2211 78.2784 29.218 78.3028 29.2027 78.3243C29.169 78.3732 29.071 78.413 28.9577 78.4405C28.5258 78.566 28.0694 78.6027 27.61 78.6149C27.1475 78.6241 26.6881 78.621 26.2256 78.5904C25.3068 78.5354 24.394 78.4099 23.4997 78.1988C22.6023 77.9938 21.7294 77.7031 20.8902 77.336C20.4767 77.1463 20.0601 76.9566 19.6681 76.7179L19.077 76.3783L18.5073 75.9928L18.2255 75.8L17.956 75.5919L17.4169 75.1666C17.0831 74.8576 16.7247 74.5731 16.4154 74.2365C15.7599 73.6001 15.181 72.8902 14.6267 72.1651C13.5516 70.6842 12.6511 69.0748 11.9467 67.3828C11.5853 66.5414 11.279 65.6755 10.9911 64.8034C10.7216 63.9314 10.452 63.0319 10.2162 62.1476C9.28509 58.5923 8.8471 54.8961 9.12888 51.2214C9.27896 49.3887 9.58831 47.5682 10.0784 45.7874C10.5531 44.0067 11.2239 42.2718 12.057 40.6165L12.0049 40.589C10.1549 43.817 9.04006 47.4611 8.65108 51.1817C8.46731 53.042 8.47344 54.9206 8.6327 56.787C8.78278 58.6535 9.1442 60.4984 9.60362 62.3098C9.84558 63.2185 10.1059 64.0967 10.3755 64.9993C10.6664 65.8896 10.9758 66.7769 11.3617 67.6337C12.0998 69.3593 13.0401 70.9993 14.1642 72.5078C14.7461 73.2482 15.3434 73.9795 16.0356 74.622C16.3633 74.9616 16.74 75.2523 17.0923 75.5644L17.6558 75.9897L17.9407 76.2008L18.2347 76.3966L18.3082 76.4425L18.2623 76.5129C17.7477 76.363 17.2454 76.1794 16.7553 75.9683C16.2653 75.7602 15.7905 75.5216 15.3403 75.2431C14.4337 74.6863 13.6067 74.0131 12.8012 73.3155C11.1687 71.9387 9.58831 70.5128 8.14265 68.9524C5.22377 65.8927 3.28806 61.9487 2.49785 57.8151C2.0813 55.7467 1.99861 53.6233 2.21913 51.5244C2.33246 50.4718 2.47947 49.4162 2.68774 48.382C2.89602 47.3448 3.16248 46.3198 3.48102 45.3101C4.38455 42.5013 5.59744 39.7904 7.09516 37.2386C7.43207 36.7368 7.78736 36.2503 8.15796 35.7761C8.56532 35.2529 8.9788 34.7388 9.41985 34.2462L9.7537 33.873C9.86703 33.7444 9.98035 33.5853 10.0508 33.4171C10.1886 33.0866 10.2591 32.747 10.2866 32.4043C10.3479 31.7159 10.2315 31.0397 10.0539 30.391C9.87315 29.7424 9.59443 29.1274 9.26058 28.543C8.91755 27.9677 8.51019 27.417 7.99563 26.9642C7.48414 26.5144 6.85013 26.1564 6.13956 26.0677C5.42592 25.9942 4.6939 26.187 4.11196 26.5725C3.52083 26.9489 3.0461 27.469 2.6663 28.032C2.05374 28.953 1.65557 29.9902 1.46874 31.0611L1.00319 30.9754C1.18083 29.9902 1.41973 29.0203 1.74133 28.0779ZM36.4463 36.3452C37.4295 35.0479 37.8613 33.4079 37.7939 31.826C37.7174 30.2441 37.1844 28.6959 36.2166 27.4537C35.7357 26.8326 35.1415 26.2849 34.4463 25.8871C33.751 25.4894 32.9455 25.2538 32.1277 25.2354C31.3099 25.2262 30.486 25.4404 29.7754 25.8412C29.0587 26.2359 28.4584 26.8142 28.0051 27.469C27.0832 28.7908 26.7218 30.3818 26.7187 31.93C26.7432 33.4752 27.1383 35.0601 28.0786 36.3697C28.5442 37.0183 29.1506 37.5905 29.8735 37.9821C30.5902 38.3799 31.4202 38.591 32.2502 38.5941C33.0802 38.5849 33.9072 38.3646 34.627 37.9607C35.3467 37.5568 35.9624 36.9938 36.4463 36.3452Z" fill="url(#paint14_linear_159_2)"/>
<path id="Vector_110" d="M9.13194 28.6195C8.78278 28.0626 8.35092 27.5547 7.8333 27.16C7.32181 26.7683 6.72149 26.4899 6.09974 26.4471C5.48105 26.4104 4.86235 26.5817 4.32636 26.9152C3.7873 27.2487 3.3095 27.6954 2.89908 28.2033C2.13949 29.1549 1.58512 30.3237 1.44423 31.5629L1.40135 31.5598C1.41667 31.3946 1.44117 31.2263 1.46873 31.0611C1.65557 29.9902 2.05374 28.953 2.6663 28.032C3.04609 27.469 3.52083 26.9489 4.11196 26.5725C4.6939 26.187 5.42592 25.9942 6.13956 26.0677C6.85013 26.1564 7.48414 26.5144 7.99563 26.9642C8.51019 27.417 8.91755 27.9677 9.26058 28.543C9.59443 29.1274 9.87315 29.7424 10.0539 30.391C10.2315 31.0397 10.3479 31.7159 10.2866 32.4043C10.2591 32.747 10.1886 33.0866 10.0508 33.4171C9.98035 33.5853 9.86702 33.7444 9.7537 33.873L9.41985 34.2462C8.9788 34.7388 8.56532 35.2529 8.15796 35.7761C7.78736 36.2503 7.43207 36.7368 7.09516 37.2386C7.75367 36.1157 8.47037 35.0234 9.23914 33.9678L9.20851 33.9403C9.42291 33.7169 9.64956 33.518 9.76901 33.2824C9.90378 33.0071 9.9926 32.6919 10.0385 32.3737C10.1212 31.7373 10.0692 31.0672 9.89765 30.4339C9.73532 29.7974 9.47498 29.1824 9.13194 28.6195Z" fill="black"/>
<path id="Vector_111" d="M9.23915 33.9678C8.09977 35.3538 7.07985 36.8347 6.16406 38.3799C6.05074 38.4441 5.91903 38.49 5.80265 38.5023C5.59744 38.5359 5.39835 38.5176 5.21765 38.4717C4.84704 38.386 4.52851 38.2147 4.23448 38.0219C3.94351 37.8261 3.67704 37.5997 3.43508 37.3549C2.95115 36.8653 2.55604 36.2993 2.24363 35.6965C1.61575 34.4941 1.29416 33.1417 1.37685 31.8077C1.38298 31.725 1.39217 31.6424 1.40136 31.5598L1.44423 31.5629C1.43505 31.6455 1.42892 31.7281 1.4228 31.8107C1.33704 33.1417 1.79952 34.4543 2.50398 35.5466C2.85926 36.0943 3.27581 36.5961 3.74442 37.0367C4.21304 37.465 4.74903 37.8689 5.32178 37.9944C5.46267 38.025 5.60356 38.0403 5.72914 38.0158C5.85778 37.9974 5.94047 37.9638 6.03542 37.8689C6.22226 37.6762 6.40909 37.3732 6.60205 37.1101C6.98796 36.5624 7.39532 36.027 7.82105 35.5068C8.24066 34.9867 8.68171 34.4788 9.15339 33.9984C9.17176 33.98 9.19014 33.9586 9.20852 33.9403L9.23915 33.9678Z" fill="black"/>
<path id="Vector_112" d="M0.794912 32.3156C0.853105 31.8658 0.920487 31.4191 1.00318 30.9754L1.46873 31.0611C1.44117 31.2263 1.41667 31.3946 1.40135 31.5598C1.39216 31.6424 1.38298 31.725 1.37685 31.8077C1.29415 33.1417 1.61575 34.4941 2.24363 35.6965C2.55604 36.2993 2.95115 36.8653 3.43507 37.3549C3.67704 37.5997 3.9435 37.8261 4.23447 38.0219C4.52851 38.2147 4.84704 38.386 5.21764 38.4717C5.39835 38.5176 5.59743 38.5359 5.80264 38.5023C5.91903 38.49 6.05073 38.4441 6.16406 38.3799C5.98335 38.6767 5.80877 38.9765 5.64031 39.2794C4.69696 41.0021 3.90062 42.7981 3.22374 44.6431C2.84088 43.3519 2.35696 42.0944 1.90366 40.8368C1.65557 40.1453 1.40748 39.4538 1.20533 38.7624C1.00625 38.0678 0.856168 37.358 0.76122 36.642C0.562136 35.207 0.614204 33.7628 0.794912 32.3156Z" fill="url(#paint15_linear_159_2)"/>
<path id="Vector_113" d="M7.44432 22.3746C6.02623 22.4817 4.75822 23.2895 3.81793 24.3451C2.87151 25.4098 2.20994 26.7133 1.74133 28.0779C1.41973 29.0203 1.18083 29.9902 1.00318 30.9754C0.920488 31.4191 0.853106 31.8658 0.794912 32.3156C0.614205 33.7628 0.562137 35.207 0.761221 36.642C0.856169 37.358 1.00625 38.0678 1.20533 38.7624C1.40748 39.4538 1.65557 40.1453 1.90366 40.8368C2.35696 42.0944 2.84089 43.3519 3.22374 44.6431C3.21455 44.6645 3.20536 44.689 3.19924 44.7104C2.66324 43.459 2.06905 42.2382 1.52387 40.9868C1.23596 40.3044 0.948053 39.6252 0.721404 38.9092C0.494754 38.1932 0.329361 37.462 0.216036 36.7185C0.105774 35.978 0.0475807 35.2284 0.0475807 34.4788C0.0506436 33.723 0.118026 32.9826 0.200722 32.2452C0.372241 30.7643 0.678524 29.2956 1.1747 27.879C1.66476 26.4685 2.37227 25.0947 3.41363 23.9748C3.92819 23.418 4.52544 22.9223 5.20539 22.5612C5.88228 22.1971 6.64186 21.9677 7.41063 21.9309C8.1794 21.8851 8.95124 22.0166 9.65875 22.2828C9.86396 22.3562 10.063 22.4419 10.256 22.5337C11.1075 23.3445 12.1335 23.9595 13.2239 24.3848C13.3096 24.443 13.3923 24.5042 13.4781 24.5653C14.0784 24.9937 14.6604 25.4527 15.1994 25.9545C14.0386 25.0488 12.7859 24.2716 11.5056 23.5556C10.8594 23.2007 10.2254 22.8427 9.5393 22.6316C8.85935 22.4083 8.14265 22.3165 7.44432 22.3746Z" fill="black"/>
</g>
<g id="Group_5">
<path id="Vector_114" d="M64.2783 50.9308C65.044 50.582 65.7515 50.1353 66.3396 49.5478C67.286 48.6054 67.6872 47.4182 67.7883 46.1117C67.8557 45.2459 67.6474 44.178 68.0394 43.3703C68.0976 43.2479 68.1742 43.1377 68.263 43.0398C68.5509 42.7247 68.9368 42.5288 69.3656 42.4156C70.3549 42.1525 71.5831 42.3238 72.4499 42.4493C74.4499 42.74 76.0089 43.0765 77.9783 42.2106C79.4087 41.5803 80.8513 40.6471 82.0243 39.6099C84.1224 37.7557 84.3888 35.6139 82.4837 33.5303C85.8743 33.5027 88.0152 30.8989 89.1944 27.9096C90.7442 21.2333 82.055 21.9952 82.0243 21.9983C80.9003 22.0992 79.8528 21.9401 78.8757 21.3251C77.8436 20.6734 77.087 19.6239 76.6215 18.5102C75.8251 16.6224 75.2983 15.8177 73.1452 15.8299C70.8419 15.8452 68.6122 16.5581 66.5356 17.5036C64.4161 18.4674 62.6121 19.012 60.2476 19.0732" stroke="black" stroke-miterlimit="10"/>
<path id="Vector_115" d="M41.2121 50.9736C42.6332 52.4178 44.6731 53.4122 46.6547 53.66C47.7665 53.7977 49.788 54.067 50.5813 53.0144C50.7712 52.7605 50.86 52.4453 51.0376 52.1791C51.3378 51.7263 51.8738 51.4693 52.4128 51.3806C55.0254 50.9583 57.5798 52.482 60.2139 52.0445C61.5401 51.8242 62.9827 51.5182 64.266 50.9369" stroke="black" stroke-miterlimit="10"/>
<path id="Vector_116" d="M70.1926 30.9418C73.041 31.1345 72.4836 33.2947 71.1145 35.5007C69.6168 37.924 67.1451 40.4054 67.1451 40.4054C66.3028 41.3815 65.3717 42.2076 64.3824 42.9052C62.7591 44.0587 60.9735 44.8665 59.1541 45.4203C58.3456 45.6681 57.5278 45.867 56.7161 46.023C56.7069 46.023 56.7008 46.0261 56.6916 46.0261C56.6181 46.0414 56.5477 46.0536 56.4742 46.0659C55.442 46.2525 54.419 46.3749 53.4266 46.4422C53.3409 46.4483 53.2582 46.4544 53.1755 46.4606C53.1724 46.4606 53.1694 46.4606 53.1694 46.4606C52.6946 46.4881 52.2291 46.5065 51.7727 46.5156C51.7666 46.5156 51.7635 46.5156 51.7574 46.5156C51.6747 46.5156 51.5889 46.5187 51.5063 46.5187C47.3806 46.5615 44.1095 45.8456 43.5582 45.7201" stroke="black" stroke-miterlimit="10"/>
<path id="Vector_117" d="M29.2058 15.0405C30.2287 14.554 31.6193 13.988 33.3283 13.5229C33.3467 13.5198 33.3651 13.5137 33.3835 13.5076C34.6484 13.168 36.0879 12.8804 37.6806 12.7182C39.065 12.5805 40.5658 12.5346 42.1738 12.6295C43.1325 12.6815 44.1279 12.7886 45.157 12.9538C46.1157 13.1068 47.108 13.3118 48.1249 13.578C49.0621 13.8197 50.0269 14.1165 51.0101 14.4683C51.0223 14.4714 51.0376 14.4775 51.0499 14.4836C52.6732 15.0619 54.3547 15.7962 56.0913 16.7142C56.1097 16.7233 56.1311 16.7356 56.1526 16.7478C57.4359 17.4271 58.7498 18.2073 60.0883 19.0977C60.0914 19.1007 60.0944 19.1007 60.0975 19.1038C60.0975 19.1038 60.2047 19.1803 60.4007 19.3241C60.4742 19.3792 60.563 19.4465 60.6641 19.523C61.3533 20.0492 62.5968 21.0436 63.9904 22.3807C64.3181 22.6959 64.6519 23.0294 64.9888 23.3782C65.0011 23.3874 65.0103 23.3996 65.0195 23.4088C66.9919 25.4496 69.0593 28.0718 70.1865 30.9448C70.7592 32.3982 71.09 33.9188 71.0441 35.4579" stroke="black" stroke-miterlimit="10"/>
<path id="Vector_118" d="M69.3656 42.4156C68.8817 43.7619 68.6306 44.6339 67.7883 46.1117" stroke="black" stroke-miterlimit="10"/>
<path id="Vector_119" d="M64.3885 50.8543C64.3518 50.8788 64.315 50.9032 64.2783 50.9308C64.2752 50.9338 64.2691 50.9369 64.266 50.9369C62.0301 52.4698 58.2843 54.5994 53.2214 55.6703C46.3393 57.1236 40.673 55.8447 37.8736 55.0032" stroke="black" stroke-miterlimit="10"/>
<path id="Vector_120" d="M29.0434 32.8265C28.8535 32.5695 30.3666 30.0483 32.4585 30.1493C34.5382 30.2472 35.6469 32.2024 35.4356 32.4441C35.2579 32.643 34.3023 31.8046 32.3911 31.7128C30.4646 31.6241 29.1996 33.0407 29.0434 32.8265Z" stroke="black" stroke-miterlimit="10"/>
<path id="Vector_121" d="M3.27887 32.542C3.09816 32.2666 4.21304 30.6603 5.73526 30.5777C7.13192 30.5012 8.36011 31.7403 8.23147 32.031C8.14265 32.2452 7.38001 31.8566 5.96498 31.9515C4.27429 32.0647 3.4167 32.7531 3.27887 32.542Z" stroke="black" stroke-miterlimit="10"/>
</g>
</g>
<path id="Vector_122" d="M5.34016 38.0464C6.53772 39.7017 7.34019 40.0229 9.086 39.255C10.2407 38.744 11.3249 38.0188 12.3602 37.2662C13.7323 36.2718 15.1627 35.4885 16.8197 36.1616C17.8488 36.5808 18.6482 36.5257 19.6467 36.0453C20.9759 35.4059 22.3481 35.6874 23.6528 36.4523C24.93 37.1988 26.2256 37.9791 27.6008 38.4533C29.4232 39.0836 30.1246 38.695 31.1782 37.052C30.8658 41.7211 24.0694 46.3657 18.443 42.0056C15.9406 44.282 13.1044 44.7655 10.0171 43.5508C7.62197 42.6084 5.89759 40.5584 5.34016 38.0464Z" fill="black"/>
<path id="Vector_123" d="M29.2357 15.1443C29.3418 15.1001 29.4051 15.0098 29.3771 14.9428C29.3491 14.8757 29.2403 14.8572 29.1342 14.9015C29.028 14.9458 28.9647 15.036 28.9927 15.1031C29.0208 15.1701 29.1295 15.1886 29.2357 15.1443Z" fill="black"/>
<path id="Vector_124" d="M29.0755 15.2086C29.1816 15.1644 29.2449 15.0741 29.2169 15.0071C29.1889 14.94 29.0801 14.9215 28.974 14.9658C28.8678 15.0101 28.8045 15.1003 28.8325 15.1674C28.8606 15.2344 28.9693 15.2529 29.0755 15.2086Z" fill="black"/>
<g id="Group_6">
<path id="Vector_125" opacity="0.47" d="M32.2318 37.4436C35.0026 37.4436 37.2488 34.9861 37.2488 31.9545C37.2488 28.923 35.0026 26.4654 32.2318 26.4654C29.4611 26.4654 27.2149 28.923 27.2149 31.9545C27.2149 34.9861 29.4611 37.4436 32.2318 37.4436Z" fill="#69CAE0"/>
<path id="Vector_126" d="M38.5995 31.927C38.5719 31.7128 38.5413 31.4894 38.4034 31.3212C38.2748 31.1651 38.0727 31.0886 37.9318 30.9418C37.7388 30.7398 37.6929 30.44 37.6377 30.1646C37.2855 28.4267 36.0451 26.8938 34.4187 26.187C33.0159 25.5781 31.3589 25.5965 29.9592 26.2115C29.6774 26.3339 29.3375 26.4593 29.0924 26.6398C28.7984 26.8571 28.5411 27.16 28.3083 27.4384C27.8244 28.0075 27.4232 28.6439 27.123 29.3262C26.7708 30.1279 26.5656 30.9968 26.538 31.8719C26.4737 33.9403 27.463 36.0453 29.1813 37.205C30.8995 38.3646 33.3069 38.4717 35.0496 37.3518C35.6224 36.9847 36.1063 36.5104 36.5198 35.975C37.1477 35.1611 37.6194 34.2003 38.0114 33.2427C38.0114 32.799 38.0114 33.0377 38.0114 33.2427C38.0849 33.31 38.1921 33.4293 38.2748 33.6006C38.3851 33.8301 38.3881 34.1147 38.3881 34.1208C38.3943 34.439 38.4647 36.6114 38.5535 39.5946C38.7005 42.0423 38.7465 44.0281 38.7618 45.356C38.7863 47.3815 38.8077 49.4101 38.8445 51.4356C38.8629 52.4484 38.8812 53.4611 38.9057 54.4739C38.918 54.9941 38.9302 55.5111 38.9456 56.0313C38.9517 56.2608 38.9119 56.5545 38.967 56.7748C39.0374 57.0502 39.0466 57.0196 39.3468 57.1175C39.3713 57.1267 39.3989 57.1328 39.4203 57.1205C39.4387 57.1083 39.4479 57.0838 39.4509 57.0594C39.4969 56.8421 39.5183 56.6341 39.5183 56.4107C39.5489 51.5152 39.5428 46.6258 39.3713 41.7333C39.3652 38.4717 39.0007 35.158 38.5995 31.927ZM32.1951 37.4436C29.4538 37.41 27.1965 34.8949 27.218 31.8964C27.2394 28.8795 29.5059 26.444 32.2747 26.4654C35.0374 26.4838 37.261 28.953 37.2488 31.9821C37.2334 34.9775 34.921 37.4773 32.1951 37.4436ZM38.4647 33.9097C38.4647 33.9188 38.4647 33.9188 38.4647 33.9097V33.9097Z" fill="black"/>
<path id="Vector_127" d="M36.1982 33.2702C36.7863 28.5919 32.4064 26.1901 29.4293 28.4267C30.1338 27.2151 32.63 26.7194 34.3023 27.7597C36.1798 28.9254 36.9333 31.5629 36.1982 33.2702Z" fill="white"/>
</g>
</g>
<defs>
<linearGradient id="paint0_linear_159_2" x1="41.2108" y1="34.8121" x2="89.3783" y2="34.8121" gradientUnits="userSpaceOnUse">
<stop stop-color="#FFF23A"/>
<stop offset="0.0401" stop-color="#FEE62D"/>
<stop offset="0.1171" stop-color="#FED41A"/>
<stop offset="0.1964" stop-color="#FDC90F"/>
<stop offset="0.2809" stop-color="#FDC60B"/>
<stop offset="0.6685" stop-color="#F28F3F"/>
<stop offset="0.8876" stop-color="#ED693C"/>
<stop offset="1" stop-color="#E83E39"/>
</linearGradient>
<linearGradient id="paint1_linear_159_2" x1="67.787" y1="44.2631" x2="69.3644" y2="44.2631" gradientUnits="userSpaceOnUse">
<stop stop-color="#E1306C"/>
<stop offset="1" stop-color="#405DE6"/>
</linearGradient>
<linearGradient id="paint2_linear_159_2" x1="48.1236" y1="28.241" x2="67.1438" y2="28.241" gradientUnits="userSpaceOnUse">
<stop stop-color="#E1306C"/>
<stop offset="1" stop-color="#405DE6"/>
</linearGradient>
<linearGradient id="paint3_linear_159_2" x1="51.0486" y1="26.7754" x2="66.7395" y2="26.7754" gradientUnits="userSpaceOnUse">
<stop stop-color="#FFF23A"/>
<stop offset="0.0401" stop-color="#FEE62D"/>
<stop offset="0.1171" stop-color="#FED41A"/>
<stop offset="0.1964" stop-color="#FDC90F"/>
<stop offset="0.2809" stop-color="#FDC60B"/>
<stop offset="0.6685" stop-color="#F28F3F"/>
<stop offset="0.8876" stop-color="#ED693C"/>
<stop offset="1" stop-color="#E83E39"/>
</linearGradient>
<linearGradient id="paint4_linear_159_2" x1="56.1513" y1="28.576" x2="71.1132" y2="28.576" gradientUnits="userSpaceOnUse">
<stop stop-color="#E1306C"/>
<stop offset="1" stop-color="#405DE6"/>
</linearGradient>
<linearGradient id="paint5_linear_159_2" x1="56.5158" y1="37.469" x2="64.3811" y2="37.469" gradientUnits="userSpaceOnUse">
<stop stop-color="#E1306C"/>
<stop offset="1" stop-color="#405DE6"/>
</linearGradient>
<linearGradient id="paint6_linear_159_2" x1="37.8723" y1="53.633" x2="64.2648" y2="53.633" gradientUnits="userSpaceOnUse">
<stop stop-color="#E1306C"/>
<stop offset="1" stop-color="#405DE6"/>
</linearGradient>
<linearGradient id="paint7_linear_159_2" x1="60.865" y1="27.7468" x2="68.2111" y2="27.7468" gradientUnits="userSpaceOnUse">
<stop stop-color="#FFF23A"/>
<stop offset="0.0401" stop-color="#FEE62D"/>
<stop offset="0.1171" stop-color="#FED41A"/>
<stop offset="0.1964" stop-color="#FDC90F"/>
<stop offset="0.2809" stop-color="#FDC60B"/>
<stop offset="0.6685" stop-color="#F28F3F"/>
<stop offset="0.8876" stop-color="#ED693C"/>
<stop offset="1" stop-color="#E83E39"/>
</linearGradient>
<linearGradient id="paint8_linear_159_2" x1="33.3822" y1="29.5352" x2="56.5196" y2="29.5352" gradientUnits="userSpaceOnUse">
<stop stop-color="#E1306C"/>
<stop offset="1" stop-color="#405DE6"/>
</linearGradient>
<linearGradient id="paint9_linear_159_2" x1="45.1557" y1="29.4189" x2="63.7808" y2="29.4189" gradientUnits="userSpaceOnUse">
<stop stop-color="#FFF23A"/>
<stop offset="0.0401" stop-color="#FEE62D"/>
<stop offset="0.1171" stop-color="#FED41A"/>
<stop offset="0.1964" stop-color="#FDC90F"/>
<stop offset="0.2809" stop-color="#FDC60B"/>
<stop offset="0.6685" stop-color="#F28F3F"/>
<stop offset="0.8876" stop-color="#ED693C"/>
<stop offset="1" stop-color="#E83E39"/>
</linearGradient>
<linearGradient id="paint10_linear_159_2" x1="37.6794" y1="26.7963" x2="54.8802" y2="26.7963" gradientUnits="userSpaceOnUse">
<stop stop-color="#FFF23A"/>
<stop offset="0.0401" stop-color="#FEE62D"/>
<stop offset="0.1171" stop-color="#FED41A"/>
<stop offset="0.1964" stop-color="#FDC90F"/>
<stop offset="0.2809" stop-color="#FDC60B"/>
<stop offset="0.6685" stop-color="#F28F3F"/>
<stop offset="0.8876" stop-color="#ED693C"/>
<stop offset="1" stop-color="#E83E39"/>
</linearGradient>
<linearGradient id="paint11_linear_159_2" x1="29.2045" y1="29.9575" x2="53.1589" y2="29.9575" gradientUnits="userSpaceOnUse">
<stop stop-color="#FFF23A"/>
<stop offset="0.0401" stop-color="#FEE62D"/>
<stop offset="0.1171" stop-color="#FED41A"/>
<stop offset="0.1964" stop-color="#FDC90F"/>
<stop offset="0.2809" stop-color="#FDC60B"/>
<stop offset="0.6685" stop-color="#F28F3F"/>
<stop offset="0.8876" stop-color="#ED693C"/>
<stop offset="1" stop-color="#E83E39"/>
</linearGradient>
<linearGradient id="paint12_linear_159_2" x1="27.1616" y1="17.737" x2="32.69" y2="17.737" gradientUnits="userSpaceOnUse">
<stop stop-color="#E83E39"/>
<stop offset="0.1124" stop-color="#ED693C"/>
<stop offset="0.3315" stop-color="#F28F3F"/>
<stop offset="0.7191" stop-color="#FDC60B"/>
<stop offset="0.7266" stop-color="#FDC40D"/>
<stop offset="0.7278" stop-color="#FCC20F"/>
<stop offset="0.8697" stop-color="#FCC411"/>
<stop offset="0.9208" stop-color="#FDCB17"/>
<stop offset="0.9572" stop-color="#FDD621"/>
<stop offset="0.9864" stop-color="#FEE730"/>
<stop offset="1" stop-color="#FFF23A"/>
</linearGradient>
<linearGradient id="paint13_linear_159_2" x1="27.6792" y1="17.659" x2="39.5385" y2="17.659" gradientUnits="userSpaceOnUse">
<stop stop-color="#E1306C"/>
<stop offset="1" stop-color="#405DE6"/>
</linearGradient>
<linearGradient id="paint14_linear_159_2" x1="18.2263" y1="43.9085" x2="61.9419" y2="69.1736" gradientUnits="userSpaceOnUse">
<stop stop-color="#E1306C"/>
<stop offset="0.3727" stop-color="#405DE6"/>
</linearGradient>
<linearGradient id="paint15_linear_159_2" x1="0.632612" y1="37.8086" x2="6.1628" y2="37.8086" gradientUnits="userSpaceOnUse">
<stop stop-color="#E1306C"/>
<stop offset="0.0588" stop-color="#D53375"/>
<stop offset="0.6065" stop-color="#6A51C6"/>
<stop offset="0.8503" stop-color="#405DE6"/>
</linearGradient>
</defs>
</svg>
