<svg xmlns="http://www.w3.org/2000/svg" width="101" height="88" viewBox="0 0 101 88" fill="none">
  <path d="M48.6348 73.3407C47.8262 73.9832 46.7052 74.589 45.6393 74.589C43.8568 74.589 43.0298 73.7446 43.0298 72.0372V67.0805L42.3866 67.2641V66.1993L46.3928 65.0244V71.0643C46.3928 71.8169 46.5214 72.4962 47.4035 72.4962C48.01 72.4962 48.4694 72.2025 48.6715 71.9638V67.154L47.9916 67.3008V66.2177L52.0345 65.0244V73.2122H52.641V74.3137H48.8921L48.6348 73.3407Z" fill="#4A2416"/>
  <path d="M54.5705 66.7318H53.67V65.7221C55.1035 65.3182 56.3898 64.3269 56.9595 62.9316L58.0622 63.1336C57.9519 63.5925 57.9335 64.0882 57.9335 64.5655V65.2999H59.5691L59.2934 66.7318H57.9335V72.0373C57.9335 72.6064 58.4113 72.7716 58.687 72.7716C58.9994 72.7716 59.3118 72.6431 59.5691 72.4779L60.0469 73.2673C59.128 73.9466 58.0805 74.5891 56.886 74.5891C55.2137 74.5891 54.5705 73.763 54.5705 72.1658V66.7318Z" fill="#4A2416"/>
  <path d="M61.3701 66.7318H60.4696V65.7221C61.903 65.3182 63.1894 64.3269 63.7591 62.9316L64.8617 63.1336C64.7515 63.5925 64.7331 64.0882 64.7331 64.5655V65.2999H66.3686L66.093 66.7318H64.7331V72.0373C64.7331 72.6064 65.2109 72.7716 65.4865 72.7716C65.7989 72.7716 66.1113 72.6431 66.3686 72.4779L66.8464 73.2673C65.9276 73.9466 64.8801 74.5891 63.6856 74.5891C62.0133 74.5891 61.3701 73.763 61.3701 72.1658V66.7318Z" fill="#4A2416"/>
  <path d="M67.6733 74.3138V73.2123H68.3349V63.8864L67.7101 64.0883V63.0235L72.3411 61.4814V62.6197L71.6979 62.84V73.2123H72.3411V74.3138H67.6733Z" fill="#4A2416"/>
  <path d="M82.5588 72.2025C81.4929 73.616 80.0227 74.589 77.9829 74.589C75.208 74.589 73.4989 72.6431 73.4989 69.7241C73.4989 67.1723 75.4285 65.0244 78.0196 65.0244C80.5005 65.0244 81.8788 66.6583 82.522 68.898L77.3029 70.8072C77.7256 71.8537 78.4791 72.4228 79.6184 72.4228C80.4822 72.4228 81.3091 72.129 81.8604 71.4498L82.5588 72.2025ZM79.1223 68.5492C78.865 67.7598 78.4423 66.4196 77.45 66.4196C76.7332 66.4196 76.4392 66.9887 76.4392 67.7598C76.4392 68.4758 76.6414 68.9531 76.7516 69.4487L79.1223 68.5492Z" fill="#4A2416"/>
  <path d="M71.2782 54.9301C71.2752 54.9332 71.269 54.9362 71.266 54.9362C69.9827 55.5176 68.5401 55.8235 67.2139 56.0438C64.5798 56.4814 62.0254 54.9576 59.4128 55.3799C58.8738 55.4686 58.3378 55.7256 58.0376 56.1785C57.86 56.4447 57.7711 56.7598 57.5812 57.0138C56.788 58.0663 54.7665 57.797 53.6547 57.6594C51.673 57.4115 49.6332 56.4171 48.212 54.9729C48.5214 54.5354 48.8124 54.0856 49.0696 53.6083C49.33 53.1127 49.5566 52.6139 49.768 52.1029C50.0804 51.3288 50.3621 50.5364 50.5582 49.7194C51.1095 49.8449 54.3806 50.5609 58.5062 50.518C58.5062 50.5241 58.5062 50.5272 58.5062 50.5333L58.5123 50.671L58.6471 50.6649L60.3041 50.5853L60.4358 50.5792L60.4266 50.4507C60.4266 50.4477 60.4266 50.4446 60.4266 50.4415C61.419 50.3742 62.442 50.2518 63.4741 50.0652L63.468 50.1937L63.6273 50.1539L66.05 49.5634L66.1235 49.545L66.1419 49.4716C66.1449 49.4532 66.1511 49.438 66.1541 49.4196C67.9734 48.8658 69.7591 48.058 71.3824 46.9045C72.3717 46.2069 73.3028 45.3808 74.145 44.4047C74.145 44.4047 76.6167 41.9233 78.1145 39.5C79.4836 37.294 80.041 35.1339 77.1926 34.9411L77.1864 34.9442C76.0593 32.0711 73.9919 29.4489 72.0194 27.4081C72.0103 27.3989 72.0011 27.3867 71.9888 27.3775C71.6519 27.0287 71.318 26.6952 70.9903 26.3801C70.5983 25.9945 70.2001 25.6121 69.7989 25.2327C69.4252 24.8777 69.0454 24.5289 68.6595 24.1893C68.2705 23.8466 67.8785 23.5131 67.4466 23.2102L67.2475 23.0725C69.6121 23.0113 71.4161 22.4667 73.5355 21.5029C75.6121 20.5574 77.8419 19.8445 80.1451 19.8292C82.2983 19.817 82.8251 20.6217 83.6214 22.5095C84.087 23.6233 84.8435 24.6727 85.8757 25.3245C86.8527 25.9395 87.9002 26.0986 89.0243 25.9976C89.0549 25.9945 97.7442 25.2327 96.1944 31.9089C95.0152 34.8983 92.8743 37.5021 89.4837 37.5296C91.3888 39.6133 91.1223 41.755 89.0243 43.6092C87.8512 44.6465 86.4086 45.5797 84.9783 46.21C83.0089 47.0759 81.4499 46.7393 79.4499 46.4486C78.5831 46.3232 77.3549 46.1518 76.3656 46.415C75.9368 46.5282 75.5509 46.724 75.263 47.0391C75.1742 47.1371 75.0976 47.2472 75.0394 47.3696C74.6473 48.1774 74.8556 49.2452 74.7882 50.1111C74.6872 51.4176 74.2859 52.6047 73.3395 53.5471C72.7515 54.1346 72.0439 54.5813 71.2782 54.9301Z" fill="url(#paint0_linear_139_9493)"/>
  <path d="M74.7883 50.1112C74.8557 49.2453 74.6474 48.1774 75.0395 47.3697C75.0977 47.2473 75.1742 47.1371 75.2631 47.0392C75.551 46.7241 75.9369 46.5282 76.3657 46.415C75.8818 47.7613 75.6306 48.6333 74.7883 50.1112Z" fill="url(#paint1_linear_139_9493)"/>
  <path d="M74.1451 44.4046C73.3028 45.3806 72.3717 46.2068 71.3824 46.9044L71.0485 46.424C71.0577 46.3965 71.0608 46.3659 71.0577 46.3567L71.0547 46.323L71.0485 46.2557L71.0026 45.708L70.9107 44.6127C70.6106 41.7059 69.9827 38.8115 68.8311 36.1128C68.2767 34.7543 67.5814 33.457 66.7636 32.2423C65.9397 31.0276 65.0117 29.8863 63.8601 28.9531C63.0086 28.13 62.2705 27.1785 61.5231 26.2483C60.7819 25.309 60.0622 24.3513 59.3455 23.3936C57.9151 21.4721 56.5093 19.5323 55.1249 17.5771C56.0621 17.8189 57.0269 18.1157 58.0101 18.4675L58.0009 18.4798L59.37 19.8352L60.053 20.5145C60.2766 20.7439 60.4818 20.9918 60.6992 21.2274L61.9948 22.6532C62.4114 23.1427 62.8065 23.6476 63.2108 24.1463L63.8172 24.8929C64.0163 25.1468 64.197 25.41 64.3869 25.667L65.5201 27.2244C66.2215 28.2983 66.9444 29.357 67.5967 30.4646C68.9352 32.6492 70.1328 34.9226 71.1956 37.2571C72.2584 39.5917 73.2017 41.9874 73.9184 44.4444L74.1451 44.4046Z" fill="url(#paint2_linear_139_9493)"/>
  <path d="M73.7408 43.0684C73.8848 43.5059 74.0165 43.9465 74.1421 44.3871L73.9154 44.4269L73.7408 43.0684Z" fill="black"/>
  <path d="M73.7408 43.0681C73.1007 41.0487 72.3227 39.0752 71.459 37.1384C70.4176 34.7824 69.1956 32.506 67.8571 30.3061C67.2109 29.1893 66.4513 28.1459 65.7346 27.075L64.5738 25.5268C64.3808 25.2729 64.1909 25.0097 63.9888 24.7588L63.3701 24.0184C61.7774 22.0082 59.9397 20.2091 58.0499 18.4834C59.6732 19.0617 61.3547 19.796 63.0914 20.7139L63.0822 20.7262C64.7392 22.2071 66.1419 23.9541 67.3916 25.7838C68.6351 27.6227 69.7224 29.5656 70.6167 31.5973C70.8526 32.0991 71.0333 32.6253 71.2477 33.1363L71.557 33.9073C71.652 34.1674 71.7347 34.4336 71.8235 34.6967L72.3442 36.2755L72.7699 37.8819L72.9812 38.6866C73.0547 38.9558 73.0946 39.2312 73.1497 39.5005L73.4682 41.1343L73.5479 41.5413L73.5999 41.9543L73.7041 42.7774L73.7408 43.0681Z" fill="url(#paint3_linear_139_9493)"/>
  <path d="M72.0195 27.408C73.992 29.4489 76.0594 32.071 77.1865 34.9441C77.7592 36.3974 78.09 37.9181 78.0441 39.4571L78.1145 39.5C76.6168 41.9233 74.1451 44.4047 74.1451 44.4047L74.142 44.3863L73.9246 42.7463L73.8143 41.9202L73.7561 41.5071L73.6765 41.0971L73.3457 39.4571C73.2875 39.1879 73.2446 38.9094 73.1711 38.6433L72.9537 37.8355L72.5157 36.223L71.9797 34.6412C71.8908 34.378 71.8082 34.1118 71.7071 33.8518L71.3947 33.0777C71.1772 32.5667 70.9873 32.0404 70.7484 31.5386C69.8357 29.507 68.7269 27.5671 67.4651 25.7344C66.2062 23.9261 64.8065 22.2096 63.1526 20.7471C64.4359 21.4263 65.7499 22.2065 67.0883 23.0969L67.2721 23.3815C68.096 24.6543 68.8801 25.9547 69.6458 27.2673C70.4146 28.5738 71.1466 29.9017 71.8449 31.248C72.5585 32.585 73.2109 33.9558 73.799 35.351C74.1053 36.0456 74.3564 36.7585 74.6045 37.4744L74.9261 38.5637L75.1589 39.6621L75.165 39.6927C75.2202 39.5336 75.211 39.4204 75.2293 39.2797C75.2416 39.1481 75.2447 39.0135 75.2538 38.8819C75.26 38.6127 75.263 38.3465 75.2508 38.0803C75.2385 37.5448 75.1834 37.0124 75.116 36.4831C74.9751 35.4214 74.7362 34.378 74.4422 33.35L74.2125 32.582L73.9521 31.8232C73.7867 31.3122 73.5723 30.8227 73.3824 30.3239C73.1772 29.8283 72.9506 29.3448 72.7362 28.8553L72.0226 27.4172L72.0195 27.408Z" fill="url(#paint4_linear_139_9493)"/>
  <path d="M71.3824 46.9047C69.7591 48.0582 67.9735 48.866 66.1542 49.4198C66.488 48.0338 66.5034 46.6049 66.4053 45.2035C66.2981 43.7808 66.0623 42.3733 65.7652 40.9842C65.462 39.5921 65.0914 38.2183 64.6718 36.8597C64.3226 35.7338 63.9428 34.62 63.5171 33.5186C64.341 34.3997 65.0669 35.3727 65.7438 36.3763C66.5493 37.5849 67.2782 38.8485 67.9521 40.1367C68.6259 41.4279 69.2477 42.7466 69.8204 44.0837C70.1083 44.7538 70.387 45.4269 70.6443 46.1092L70.7423 46.3632L70.7699 46.4335C70.7852 46.4764 70.8403 46.5192 70.8893 46.5223C70.9383 46.5253 70.9812 46.51 71.0149 46.4764C71.0302 46.4641 71.0425 46.4458 71.0486 46.4244L71.3824 46.9047Z" fill="url(#paint5_linear_139_9493)"/>
  <path d="M67.2138 56.0441C68.5401 55.8238 69.9826 55.5179 71.266 54.9365C69.0301 56.4694 65.2843 58.599 60.2214 59.6699C53.3392 61.1232 47.673 59.8443 44.8735 59.0029C45.287 58.5286 45.6913 58.0482 46.0987 57.577C46.8092 56.7509 47.5351 55.9217 48.1783 55.0191C48.1906 55.0038 48.1998 54.9885 48.212 54.9732C49.6332 56.4174 51.673 57.4118 53.6547 57.6597C54.7665 57.7973 56.788 58.0666 57.5812 57.0141C57.7711 56.7601 57.86 56.445 58.0376 56.1788C58.3378 55.7259 58.8737 55.4689 59.4128 55.3802C62.0254 54.9579 64.5798 56.4817 67.2138 56.0441Z" fill="url(#paint6_linear_139_9493)"/>
  <path d="M70.828 46.3691L70.825 46.3354L70.8189 46.2681L70.7821 45.8184C70.8127 45.8857 70.8372 45.956 70.8648 46.0264L70.9597 46.2834L70.9812 46.3385C70.9751 46.3171 70.9414 46.2896 70.9138 46.2896C70.8893 46.2896 70.8679 46.2957 70.8495 46.314C70.8311 46.3263 70.825 46.3752 70.828 46.3691Z" fill="black"/>
  <path d="M68.5065 24.3644C68.8924 24.701 69.2752 25.0437 69.652 25.3925C70.4024 26.087 71.1405 26.7969 71.8633 27.519L72.58 28.9295C72.7975 29.416 73.0303 29.8964 73.2385 30.3859C73.4315 30.8816 73.6551 31.365 73.8235 31.8699L74.0931 32.6195L74.332 33.3844C74.6383 34.4033 74.8894 35.4405 75.0456 36.4931C75.1957 37.5395 75.2661 38.6318 75.1651 39.6629L75.0089 38.5461L74.7332 37.4355C74.5127 36.7072 74.2799 35.9821 73.9951 35.2722C73.4468 33.8495 72.8036 32.4696 72.1145 31.1111C70.8281 28.6082 69.4008 26.188 67.8663 23.832C68.0838 24.0034 68.2951 24.1839 68.5065 24.3644Z" fill="url(#paint7_linear_139_9493)"/>
  <path d="M67.6642 23.5225C68.3533 24.0487 69.5968 25.0431 70.9904 26.3802C71.3273 26.7107 71.6581 27.0411 71.9889 27.3777C72.0012 27.3869 72.0103 27.3991 72.0195 27.4083L72.0226 27.4175L72.7362 28.8555C72.9506 29.3451 73.1773 29.8285 73.3825 30.3242C73.5724 30.8229 73.7868 31.3125 73.9522 31.8234L74.2125 32.5822L74.4422 33.3502C74.7363 34.3783 74.9752 35.4216 75.1161 36.4833C75.1834 37.0127 75.2386 37.5451 75.2508 38.0805C75.2631 38.3467 75.26 38.6129 75.2539 38.8822C75.2447 39.0137 75.2416 39.1483 75.2294 39.2799C75.211 39.4207 75.2202 39.5339 75.1651 39.693L75.1589 39.6624H75.1651C75.2661 38.6313 75.1957 37.5389 75.0456 36.4925C74.8894 35.44 74.6383 34.4028 74.332 33.3839L74.0931 32.6189L73.8235 31.8693C73.6551 31.3645 73.4315 30.881 73.2385 30.3854C73.0303 29.8958 72.7975 29.4154 72.58 28.929L71.8633 27.5184C71.1405 26.7963 70.4024 26.0865 69.652 25.3919C69.2752 25.0431 68.8924 24.7004 68.5065 24.3639C68.2951 24.1834 68.0838 24.0028 67.8663 23.8315C67.799 23.7275 67.7316 23.6265 67.6642 23.5225Z" fill="black"/>
  <path d="M67.6641 23.5231C67.7315 23.6271 67.7989 23.7281 67.8663 23.8321C67.6825 23.6883 67.4987 23.5476 67.3088 23.4191L67.4007 23.3242C67.4742 23.3793 67.5631 23.4466 67.6641 23.5231Z" fill="black"/>
  <path d="M67.4804 23.2441C67.5417 23.3359 67.6029 23.4308 67.6642 23.5226C67.5631 23.4461 67.4743 23.3788 67.4008 23.3237L67.4804 23.2441Z" fill="black"/>
  <path d="M67.8663 23.832C69.4008 26.188 70.8281 28.6082 72.1145 31.111C72.8036 32.4695 73.4468 33.8494 73.9951 35.2722C74.2799 35.982 74.5127 36.7072 74.7332 37.4354L75.0089 38.5461L75.1651 39.6629H75.1589L74.9262 38.5644L74.6046 37.4752C74.3565 36.7592 74.1053 36.0463 73.7991 35.3518C73.211 33.9565 72.5586 32.5858 71.845 31.2487C71.1466 29.9024 70.4146 28.5745 69.6458 27.268C68.8801 25.9554 68.0961 24.655 67.2722 23.3822L67.0884 23.0977C67.0914 23.1007 67.0945 23.1007 67.0976 23.1038C67.0976 23.1038 67.2048 23.1803 67.4008 23.3241L67.3089 23.4189C67.4988 23.5474 67.6826 23.6882 67.8663 23.832Z" fill="black"/>
  <path d="M67.0975 23.1037C67.0945 23.1006 67.0914 23.1006 67.0884 23.0976L66.926 22.8467L67.2476 23.0731L67.4467 23.2108C67.8786 23.5137 68.2706 23.8472 68.6596 24.1899C69.0455 24.5295 69.4253 24.8783 69.799 25.2332C70.2002 25.6126 70.5984 25.9951 70.9904 26.3806C69.5968 25.0435 68.3533 24.0491 67.6642 23.5229C67.6029 23.4311 67.5417 23.3362 67.4804 23.2444L67.4008 23.324C67.2047 23.1802 67.0975 23.1037 67.0975 23.1037Z" fill="black"/>
  <path d="M65.9887 49.3193L65.8969 49.4111C65.903 49.3867 65.9091 49.3622 65.9122 49.3377L65.9887 49.3193Z" fill="black"/>
  <path d="M67.3916 25.7838C66.1419 23.9541 64.7391 22.207 63.0822 20.7261L63.0913 20.7139C63.1097 20.723 63.1312 20.7353 63.1526 20.7475C64.8065 22.2101 66.2062 23.9266 67.4651 25.7348C68.727 27.5676 69.8357 29.5074 70.7484 31.5391C70.9873 32.0409 71.1772 32.5671 71.3947 33.0781L71.7071 33.8522C71.8082 34.1123 71.8909 34.3785 71.9797 34.6416L72.5157 36.2235L72.9537 37.8359L73.1711 38.6437C73.2446 38.9099 73.2875 39.1883 73.3457 39.4576L73.6765 41.0976L73.7561 41.5076L73.8143 41.9206L73.9246 42.7468L74.142 44.3868C74.0165 43.9462 73.8848 43.5056 73.7408 43.068L73.7041 42.7774L73.5999 41.9543L73.5479 41.5412L73.4682 41.1343L73.1497 39.5004C73.0946 39.2312 73.0547 38.9558 72.9812 38.6865L72.7699 37.8818L72.3442 36.2755L71.8235 34.6967C71.7347 34.4336 71.652 34.1674 71.557 33.9073L71.2477 33.1362C71.0333 32.6253 70.8526 32.099 70.6167 31.5972C69.7224 29.5656 68.6351 27.6227 67.3916 25.7838Z" fill="black"/>
  <path d="M63.7222 49.8848C63.7222 49.9307 63.7192 49.9766 63.7161 50.0225C63.7069 50.0225 63.7008 50.0255 63.6916 50.0255L63.5691 49.9215L63.7222 49.8848Z" fill="black"/>
  <path d="M63.7162 50.0225C63.7162 50.0316 63.7162 50.0378 63.7162 50.0469L63.6917 50.0255C63.7008 50.0255 63.707 50.0225 63.7162 50.0225Z" fill="black"/>
  <path d="M66.05 49.5637L63.6273 50.1542L63.468 50.194L63.4741 50.0655C63.5477 50.0533 63.6181 50.041 63.6916 50.0257L63.7161 50.0472C63.7161 50.038 63.7161 50.0319 63.7161 50.0227C64.5278 49.8666 65.3455 49.6678 66.1541 49.4199C66.1511 49.4383 66.1449 49.4536 66.1419 49.4719L66.1235 49.5454L66.05 49.5637Z" fill="black"/>
  <path d="M65.9888 49.3185L65.9123 49.3368C66.2277 47.9998 66.2369 46.6015 66.1358 45.2246C66.0286 43.8171 65.7897 42.4219 65.4865 41.0451C65.1772 39.6651 64.8066 38.3005 64.3839 36.9512C63.9643 35.6202 63.5141 34.2954 63.0026 33.0042L63.0148 32.998C63.1863 33.1663 63.3548 33.3407 63.5171 33.5182C63.9429 34.6197 64.3226 35.7334 64.6718 36.8594C65.0914 38.2179 65.462 39.5917 65.7652 40.9839C66.0623 42.373 66.2982 43.7804 66.4054 45.2032C66.5034 46.6045 66.4881 48.0334 66.1542 49.4195C65.3456 49.6673 64.5279 49.8662 63.7162 50.0222C63.7193 49.9763 63.7223 49.9304 63.7223 49.8845L65.9123 49.3368C65.9092 49.3613 65.9031 49.3858 65.8969 49.4103L65.9888 49.3185Z" fill="black"/>
  <path d="M63.0516 41.0943C63.4252 44.056 63.6121 47.0546 63.4773 50.0286L63.4742 50.0653C62.4421 50.2519 61.4191 50.3743 60.4267 50.4416C60.3073 48.8628 60.1143 47.2902 59.7805 45.7419C59.4497 44.1937 59.0546 42.6578 58.5553 41.1555C58.0622 39.6501 57.5078 38.1661 56.8892 36.7097C56.2643 35.2594 55.5936 33.8305 54.834 32.4414L53.7252 29.9784C53.2965 29.1859 52.8922 28.3782 52.4389 27.601L51.7191 26.4567L51.3607 25.8845L50.9595 25.3399L50.1601 24.2506L49.2841 23.2226C48.0866 21.8763 46.7573 20.6402 45.2565 19.6397C44.5 19.147 43.7251 18.682 42.8981 18.324C42.0926 17.9629 41.2565 17.66 40.3835 17.507C41.6485 17.1674 43.088 16.8798 44.6807 16.7176V16.7207C46.0038 17.4305 47.2014 18.3515 48.2918 19.3765C49.3791 20.4046 50.3776 21.5275 51.2719 22.7269C52.1755 23.9202 53.0116 25.1624 53.7834 26.4444C54.5492 27.7295 55.2628 29.0482 55.9335 30.3853C57.2567 33.0717 58.4359 35.8285 59.465 38.6404C60.4941 41.4492 61.413 44.3069 62.1695 47.1984L62.4666 47.1463L62.4635 47.1249L61.8908 42.8903C61.8509 42.5354 61.7866 42.1835 61.7192 41.8316L61.5232 40.7761L61.1312 38.6649C61.0699 38.3099 60.9872 37.9642 60.9015 37.6154L60.6503 36.572L60.148 34.4823L59.5232 32.4261L59.2108 31.4011C59.1128 31.0554 58.9688 30.7249 58.8494 30.3884L58.0959 28.3751C57.8141 27.7173 57.514 27.0686 57.223 26.4138C56.9504 25.7499 56.5798 25.1318 56.2521 24.4954C56.0775 24.1833 55.9244 23.859 55.7345 23.553L55.1617 22.6443C54.9626 22.3475 54.7911 22.0323 54.5736 21.7478L53.9305 20.8849L53.6089 20.4535L53.2566 20.0466C53.0208 19.7773 52.7911 19.505 52.5491 19.2388L51.7834 18.4861C51.5292 18.2322 51.2413 18.018 50.9718 17.7824C50.4113 17.3449 49.8293 16.9165 49.1739 16.6289C50.1325 16.6809 51.128 16.788 52.1571 16.9532C54.0622 19.2633 55.808 21.7049 57.3394 24.2751C58.1082 25.5571 58.831 26.8667 59.4987 28.2037C59.8356 28.8708 60.1541 29.547 60.4574 30.2293C60.6074 30.572 60.7636 30.9146 60.8861 31.2604L61.2108 32.3313C61.6457 33.7602 61.9918 35.2166 62.3134 36.673C62.6013 38.1417 62.8709 39.6103 63.0516 41.0943Z" fill="url(#paint8_linear_139_9493)"/>
  <path d="M63.2537 32.8359C63.3456 33.0624 63.4344 33.2888 63.5171 33.5182C63.3547 33.3408 63.1863 33.1664 63.0148 32.9981L63.2537 32.8359Z" fill="black"/>
  <path d="M63.1526 20.7471C63.1311 20.7348 63.1097 20.7226 63.0913 20.7134L63.1005 20.7012C63.1189 20.7165 63.1342 20.7318 63.1526 20.7471Z" fill="black"/>
  <path d="M62.981 32.9497L62.7207 32.2949L63.2199 32.7875C63.2353 32.8028 63.2475 32.8151 63.2598 32.8304L63.2536 32.8365L63.0147 32.9987L63.0025 33.0048C62.9964 32.9864 62.9872 32.9681 62.981 32.9497Z" fill="black"/>
  <path d="M62.4634 47.1249L62.1663 47.1769L61.8815 45.0137C62.0836 45.7143 62.2796 46.4181 62.4634 47.1249Z" fill="black"/>
  <path d="M60.2919 50.3291L60.1755 50.4607C60.1724 50.4607 60.1693 50.4607 60.1693 50.4607C60.1663 50.4178 60.1632 50.3781 60.1602 50.3352L60.2919 50.3291Z" fill="black"/>
  <path d="M60.1756 50.46L60.1694 50.4661C60.1694 50.463 60.1694 50.463 60.1694 50.46C60.1694 50.46 60.1725 50.46 60.1756 50.46Z" fill="black"/>
  <path d="M60.1602 50.335C60.1633 50.3778 60.1663 50.4176 60.1694 50.4604C59.6946 50.4879 59.2291 50.5063 58.7727 50.5155C58.7697 50.4757 58.7666 50.4329 58.7635 50.3931L60.1602 50.335Z" fill="black"/>
  <path d="M59.3699 19.8355L58.0009 18.48L58.01 18.4678C58.0223 18.4708 58.0376 18.477 58.0499 18.4831C59.9396 20.2087 61.7773 22.0078 63.37 24.0181L63.9887 24.7585C64.1908 25.0094 64.3807 25.2725 64.5737 25.5265L65.7345 27.0747C66.4512 28.1456 67.2108 29.189 67.8571 30.3057C69.1955 32.5057 70.4176 34.7821 71.4589 37.1381C72.3227 39.0748 73.1006 41.0483 73.7408 43.0678L73.9153 44.4263L74.142 44.3865L74.1451 44.4048L73.9184 44.4446C73.2017 41.9877 72.2583 39.5919 71.1955 37.2574C70.1327 34.9228 68.9352 32.6495 67.5967 30.4649C66.9443 29.3572 66.2215 28.2986 65.5201 27.2246L64.3869 25.6672C64.197 25.4102 64.0163 25.1471 63.8172 24.8931L63.2107 24.1466C62.8064 23.6478 62.4113 23.143 61.9948 22.6534L60.6992 21.2276C60.4817 20.992 60.2765 20.7442 60.053 20.5147L59.3699 19.8355Z" fill="black"/>
  <path d="M59.2781 23.4395C57.8692 21.5027 56.4878 19.5476 55.1249 17.5771C56.5093 19.5323 57.9151 21.4721 59.3455 23.3936C60.0622 24.3513 60.7819 25.309 61.5231 26.2483C62.2705 27.1785 63.0086 28.13 63.8601 28.9531C65.0117 29.8863 65.9397 31.0276 66.7636 32.2423C67.5814 33.457 68.2767 34.7543 68.8311 36.1128C69.9827 38.8115 70.6106 41.7059 70.9107 44.6126L71.0026 45.708L71.0485 46.2557L71.0547 46.323L71.0577 46.3567C71.0608 46.3659 71.0577 46.3965 71.0485 46.424C71.0424 46.4454 71.0302 46.4638 71.0149 46.476C70.9812 46.5097 70.9383 46.525 70.8893 46.5219C70.8403 46.5188 70.7851 46.476 70.7698 46.4332L70.7423 46.3628L70.6443 46.1088C70.387 45.4265 70.1083 44.7534 69.8204 44.0833C69.2476 42.7462 68.6258 41.4275 67.952 40.1363C67.2782 38.8482 66.5492 37.5845 65.7437 36.3759C65.0668 35.3724 64.3409 34.3994 63.517 33.5182C63.4343 33.2887 63.3455 33.0623 63.2536 32.8359L63.2598 32.8297C64.295 33.8578 65.174 35.0205 65.9734 36.223C66.782 37.4468 67.511 38.7197 68.1817 40.017C68.8556 41.3174 69.4712 42.6453 70.0439 43.9885C70.3012 44.5974 70.5493 45.2032 70.7821 45.8182L70.8188 46.2679L70.825 46.3353L70.828 46.3689C70.825 46.375 70.8311 46.3261 70.8495 46.3138C70.8678 46.2955 70.8893 46.2894 70.9138 46.2894C70.9413 46.2894 70.975 46.3169 70.9812 46.3383L70.9597 46.2832L70.8648 46.0262C70.8372 45.9559 70.8127 45.8855 70.7821 45.8182L70.776 45.7233L70.6871 44.6371C70.3992 41.7457 69.7867 38.8665 68.6534 36.1862C68.1113 34.8369 67.4252 33.5457 66.6197 32.3371C65.8111 31.1347 64.8831 29.9873 63.7651 29.0755L63.759 29.0724C63.3149 28.6533 62.9229 28.1974 62.5431 27.7323C62.1602 27.2703 61.7927 26.796 61.4282 26.3218C60.6962 25.3733 59.9856 24.4095 59.2781 23.4395Z" fill="black"/>
  <path d="M59.2781 23.4397C59.9856 24.4096 60.6962 25.3734 61.4282 26.3219C61.7927 26.7962 62.1602 27.2704 62.5431 27.7324C62.9228 28.1975 63.3149 28.6534 63.759 29.0726L63.7651 29.0757C64.8831 29.9874 65.8111 31.1348 66.6197 32.3373C67.4252 33.5459 68.1113 34.8371 68.6534 36.1864C69.7867 38.8667 70.3992 41.7459 70.6871 44.6373L70.776 45.7235L70.7821 45.8183C70.5493 45.2033 70.3012 44.5975 70.0439 43.9886C69.4712 42.6454 68.8556 41.3175 68.1817 40.0171C67.511 38.7198 66.782 37.447 65.9734 36.2231C65.174 35.0206 64.295 33.858 63.2598 32.8299C63.2475 32.8146 63.2353 32.8024 63.2199 32.7871L62.7207 32.2945L62.981 32.9492C62.9872 32.9676 62.9964 32.9859 63.0025 33.0043C63.514 34.2955 63.9642 35.6203 64.3838 36.9513C64.8065 38.3006 65.1771 39.6653 65.4864 41.0452C65.7897 42.4221 66.0286 43.8173 66.1358 45.2247C66.2368 46.6016 66.2276 47.9999 65.9122 49.337L63.7222 49.8847C63.8386 46.9321 63.6365 43.9886 63.2567 41.0666C63.0699 39.5796 62.7911 38.1048 62.4971 36.6362C62.1694 35.1736 61.8172 33.7142 61.3731 32.2822L61.0423 31.2052C60.9136 30.8472 60.7605 30.5076 60.6073 30.1649C60.298 29.4795 59.9764 28.8033 59.6364 28.1363C58.9534 26.8023 58.2122 25.4958 57.4281 24.2199C55.863 21.6651 54.0896 19.2418 52.157 16.9531C53.1156 17.1061 54.108 17.3111 55.1249 17.5773C56.4878 19.5477 57.8692 21.5029 59.2781 23.4397Z" fill="url(#paint9_linear_139_9493)"/>
  <path d="M58.7728 50.5156C58.7728 50.5217 58.7728 50.5248 58.7728 50.5309L58.7574 50.5156C58.7636 50.5156 58.7666 50.5156 58.7728 50.5156Z" fill="black"/>
  <path d="M58.7635 50.3926C58.7666 50.4324 58.7696 50.4752 58.7727 50.515C58.7666 50.515 58.7635 50.515 58.7574 50.515L58.6349 50.3987L58.7635 50.3926Z" fill="black"/>
  <path d="M58.5062 50.5179C58.5889 50.5179 58.6747 50.5148 58.7574 50.5148L58.7727 50.5301C58.7727 50.524 58.7727 50.521 58.7727 50.5148C59.2291 50.5057 59.6946 50.4873 60.1693 50.4598C60.1693 50.4628 60.1693 50.4628 60.1693 50.4659L60.1755 50.4598C60.2582 50.4536 60.3409 50.4475 60.4266 50.4414C60.4266 50.4445 60.4266 50.4475 60.4266 50.4506L60.4358 50.5791L60.3041 50.5852L58.6471 50.6648L58.5123 50.6709L58.5062 50.5332C58.5062 50.5271 58.5062 50.524 58.5062 50.5179Z" fill="black"/>
  <path d="M58.0499 18.4836C58.0377 18.4775 58.0224 18.4714 58.0101 18.4683L58.0193 18.4561C58.0285 18.4652 58.0408 18.4744 58.0499 18.4836Z" fill="black"/>
  <path d="M57.4281 24.2199C58.2122 25.4958 58.9534 26.8023 59.6364 28.1363C59.9764 28.8033 60.298 29.4795 60.6073 30.1649C60.7605 30.5076 60.9136 30.8472 61.0423 31.2052L61.3731 32.2822C61.8172 33.7142 62.1694 35.1736 62.4971 36.6362C62.7911 38.1048 63.0699 39.5796 63.2567 41.0666C63.6365 43.9886 63.8386 46.9321 63.7222 49.8847L63.5691 49.9214L63.6916 50.0254C63.6181 50.0407 63.5477 50.053 63.4742 50.0652L63.4772 50.0285C63.612 47.0544 63.4251 44.0559 63.0515 41.0942C62.8708 39.6102 62.6012 38.1415 62.3133 36.6729C61.9917 35.2165 61.6456 33.7601 61.2107 32.3312L60.8861 31.2603C60.7635 30.9145 60.6073 30.5718 60.4573 30.2292C60.154 29.5468 59.8355 28.8707 59.4986 28.2036C58.8309 26.8666 58.1081 25.557 57.3393 24.275C55.8079 21.7048 54.0621 19.2632 52.157 16.9531C54.0896 19.2418 55.863 21.6651 57.4281 24.2199Z" fill="black"/>
  <path d="M54.4664 21.8184C54.6808 22.106 54.8462 22.4242 55.0392 22.724L55.5966 23.6358C55.7834 23.9387 55.9335 24.2631 56.102 24.5782C56.4236 25.2146 56.785 25.8296 57.0514 26.4936C57.3332 27.1483 57.6273 27.797 57.9029 28.4548L58.6319 30.4651C58.7452 30.8016 58.8892 31.1321 58.981 31.4748L59.2843 32.5028L59.8938 34.5528L60.3869 36.6334L60.635 37.6737C60.7207 38.0195 60.8034 38.3683 60.8585 38.7201L61.2445 40.8252L61.4344 41.8777C61.5017 42.2296 61.5661 42.5784 61.6059 42.9333L61.8815 45.0139C61.2414 42.8293 60.5155 40.6753 59.7284 38.5427C58.6809 35.7277 57.5078 32.9587 56.1479 30.2784C55.4618 28.9413 54.7329 27.6257 53.9519 26.3436C53.1647 25.0647 52.3132 23.8225 51.3944 22.6322C50.4755 21.4451 49.4526 20.3344 48.3438 19.3216C47.232 18.3119 46.0161 17.4093 44.6807 16.7209V16.7178C46.0651 16.5801 47.5659 16.5343 49.1738 16.6291C49.8262 16.9259 50.3959 17.3634 50.9503 17.8132C51.2137 18.0519 51.4985 18.2691 51.7466 18.5261L52.497 19.291C52.7329 19.5572 52.9564 19.8357 53.1892 20.1049L53.5323 20.5149L53.8447 20.9494L54.4664 21.8184Z" fill="url(#paint10_linear_139_9493)"/>
  <path d="M51.7834 18.4861L52.5491 19.2388C52.791 19.505 53.0207 19.7773 53.2566 20.0466L53.6088 20.4535L53.9304 20.8849L54.5736 21.7478C54.7911 22.0323 54.9626 22.3475 55.1617 22.6443L55.7344 23.553C55.9243 23.859 56.0775 24.1833 56.252 24.4954C56.5798 25.1318 56.9504 25.7499 57.223 26.4138C57.5139 27.0686 57.8141 27.7173 58.0959 28.3751L58.8493 30.3884C58.9688 30.7249 59.1127 31.0554 59.2107 31.4011L59.5231 32.4261L60.148 34.4822L60.6503 36.572L60.9014 37.6154C60.9872 37.9642 61.0699 38.3099 61.1311 38.6649L61.5232 40.7761L61.7192 41.8316C61.7866 42.1835 61.8509 42.5354 61.8907 42.8903L62.4635 47.1249C62.2797 46.4181 62.0837 45.7144 61.8815 45.0137L61.6059 42.9331C61.5661 42.5782 61.5017 42.2294 61.4344 41.8775L61.2445 40.825L60.8585 38.7199C60.8034 38.3681 60.7207 38.0193 60.635 37.6735L60.3869 36.6332L59.8937 34.5526L59.2842 32.5026L58.981 31.4746C58.8891 31.1319 58.7452 30.8014 58.6319 30.4649L57.9029 28.4546C57.6272 27.7968 57.3332 27.1482 57.0514 26.4934C56.785 25.8294 56.4236 25.2144 56.102 24.578C55.9335 24.2629 55.7834 23.9385 55.5966 23.6356L55.0392 22.7238C54.8462 22.424 54.6808 22.1058 54.4664 21.8182L53.8446 20.9492L53.5322 20.5147L53.1892 20.1047C52.9564 19.8355 52.7328 19.557 52.497 19.2908L51.7466 18.5259C51.4985 18.2689 51.2137 18.0517 50.9503 17.813C50.3959 17.3632 49.8262 16.9257 49.1738 16.6289C49.8293 16.9165 50.4112 17.3449 50.9717 17.7824C51.2412 18.018 51.5291 18.2322 51.7834 18.4861Z" fill="black"/>
  <path d="M48.2059 54.967C48.2059 54.964 49.8782 52.2072 50.4755 49.6982C50.4755 49.6982 50.5031 49.7044 50.5582 49.7197C50.3622 50.5366 50.0804 51.3291 49.768 52.1032C49.5566 52.6141 49.33 53.1129 49.0697 53.6085C48.8124 54.0859 48.5214 54.5356 48.2121 54.9732C48.209 54.9701 48.209 54.9701 48.2059 54.967Z" fill="black"/>
  <path d="M51.2719 22.7269C50.3775 21.5275 49.379 20.4046 48.2917 19.3765C47.2014 18.3515 46.0038 17.4306 44.6807 16.7207C46.0161 17.4091 47.232 18.3117 48.3438 19.3214C49.4526 20.3342 50.4755 21.4449 51.3944 22.632C52.3132 23.8223 53.1647 25.0645 53.9519 26.3435C54.7329 27.6255 55.4618 28.9411 56.1479 30.2782C57.5078 32.9585 58.6809 35.7276 59.7284 38.5425C60.5155 40.6751 61.2414 42.8291 61.8815 45.0137L62.1664 47.177L62.4635 47.1249L62.4665 47.1464L62.1694 47.1984C61.4129 44.3069 60.4941 41.4492 59.465 38.6404C58.4358 35.8285 57.2567 33.0717 55.9335 30.3853C55.2628 29.0482 54.5491 27.7295 53.7834 26.4444C53.0116 25.1624 52.1754 23.9202 51.2719 22.7269Z" fill="black"/>
  <path d="M46.5306 41.4031C46.8553 40.9717 47.1922 40.5709 47.4219 40.0997C47.6608 39.6438 47.8936 39.1726 48.0161 38.6616C48.1478 38.1537 48.2152 37.6244 48.2213 37.0951C48.2305 36.5658 48.1907 36.0303 48.0774 35.5102L48.108 35.501C48.4051 36.5352 48.4694 37.6428 48.255 38.7167C48.1601 39.2522 47.9794 39.7876 47.6853 40.2558C47.6088 40.369 47.5352 40.4852 47.4526 40.5954C47.3607 40.6994 47.2718 40.8034 47.1769 40.9013C46.9962 41.1094 46.7634 41.2624 46.549 41.4276L46.5306 41.4031Z" fill="black"/>
  <path d="M46.1049 78.7935C46.4081 78.6313 46.696 78.4416 46.9717 78.2305C46.4786 78.6558 45.9211 79.0168 45.3177 79.283C45.3851 79.2493 45.4525 79.2126 45.5199 79.1729C45.722 79.0535 45.9181 78.9311 46.1049 78.7935Z" fill="black"/>
  <path d="M43.0634 31.5761C44.0405 32.7571 44.4938 34.3206 44.4601 35.829C44.408 37.3436 43.9088 38.8337 42.9899 39.9933C42.0833 41.156 40.6959 41.927 39.2441 41.9393C37.7862 41.9729 36.3895 41.2294 35.3941 40.1187C34.3895 38.9989 33.7953 37.4752 33.78 35.927C33.7616 34.3818 34.3313 32.8458 35.3083 31.7046C36.2854 30.5664 37.6545 29.7923 39.1307 29.7464C40.604 29.6729 42.1017 30.3889 43.0634 31.5761ZM42.4355 36.444C42.6469 36.2023 41.5381 34.2472 39.4585 34.1493C37.3666 34.0483 35.8535 36.5695 36.0434 36.8265C36.1996 37.0407 37.4646 35.624 39.3911 35.7128C41.3023 35.8046 42.2579 36.6429 42.4355 36.444Z" fill="white"/>
  <path d="M42.8797 18.3666C42.0619 17.9964 41.2105 17.6812 40.3284 17.5283V17.5221C40.3467 17.5191 40.3651 17.513 40.3835 17.5068C41.2564 17.6598 42.0926 17.9627 42.8981 18.3238C43.7251 18.6818 44.4999 19.1468 45.2565 19.6394C46.7573 20.64 48.0865 21.8761 49.2841 23.2224L50.1601 24.2504L50.9595 25.3397L51.3607 25.8843L51.719 26.4565L52.4388 27.6008C52.8921 28.3779 53.2964 29.1857 53.7252 29.9782L54.8339 32.4412C55.5935 33.8303 56.2643 35.2592 56.8891 36.7095C57.5078 38.1659 58.0622 39.6499 58.5553 41.1552C59.0545 42.6576 59.4496 44.1935 59.7804 45.7417C60.1143 47.2899 60.3072 48.8626 60.4267 50.4414C60.3409 50.4476 60.2582 50.4537 60.1755 50.4598L60.2919 50.3282L60.1602 50.3343C60.053 48.8076 59.8692 47.2869 59.5538 45.7876C59.2291 44.2486 58.8463 42.7157 58.3562 41.2195C57.8723 39.7172 57.3271 38.2363 56.7176 36.7829C56.102 35.3326 55.4343 33.8976 54.6869 32.5147L54.6839 32.5085L54.6808 32.5055L53.5904 30.0424C53.1678 29.253 52.7696 28.4453 52.3224 27.6681L51.6149 26.5238L51.2596 25.9516L50.8645 25.407L50.0774 24.3147L49.2106 23.2866C48.0283 21.9403 46.7083 20.6981 45.2197 19.6915C44.4724 19.1988 43.7005 18.7307 42.8797 18.3666Z" fill="black"/>
  <path d="M42.4724 45.1673C41.5719 45.4121 40.6439 45.5467 39.7158 45.5773C39.7036 45.565 39.6944 45.5497 39.6821 45.5375C40.1262 45.4886 40.5642 45.409 40.9991 45.3142C41.4739 45.2132 41.9456 45.0908 42.4019 44.9317C42.8552 44.7695 43.2901 44.5676 43.722 44.3656C44.1539 44.1606 44.5612 43.925 44.9686 43.6436L44.9931 43.665C44.6991 44.0689 44.2948 44.384 43.8629 44.638C43.428 44.8889 42.9471 45.0327 42.4724 45.1673Z" fill="black"/>
  <path d="M39.4585 34.1494C41.5381 34.2473 42.6469 36.2025 42.4356 36.4442C42.2579 36.6431 41.3023 35.8047 39.3911 35.7129C37.4646 35.6242 36.1996 37.0408 36.0434 36.8267C35.8535 36.5697 37.3666 34.0485 39.4585 34.1494Z" fill="black"/>
  <path d="M55.0698 39.6046C55.0698 39.6076 55.0729 39.6076 55.0729 39.6107L55.0698 39.6046ZM44.2458 26.0317C42.745 24.8905 41.0512 23.9695 39.2043 23.5228C39.2166 23.5105 39.2258 23.5014 39.2319 23.4922C40.1324 23.688 41.0022 24.0032 41.8353 24.3979C42.7174 24.814 43.5536 25.328 44.3377 25.9094C45.915 27.0629 47.3117 28.4397 48.6011 29.9023C49.8844 31.3679 51.0545 32.9344 52.1326 34.5561C53.2107 36.1777 54.1939 37.8544 55.0698 39.6015C55.3026 40.0268 55.5415 40.446 55.7681 40.8713C55.9795 41.3058 56.2153 41.7311 56.4113 42.1747C56.8248 43.0498 57.1924 43.9463 57.5232 44.8581C57.8417 45.7729 58.1235 46.7031 58.3409 47.6485C58.5461 48.5511 58.7146 49.4568 58.7636 50.3931L58.635 50.3992L58.7575 50.5155C58.6748 50.5155 58.589 50.5185 58.5063 50.5185C58.4573 49.5853 58.2827 48.6337 58.0653 47.7128C57.8417 46.7796 57.5599 45.8617 57.2383 44.959C56.9106 44.0595 56.5461 43.1691 56.1357 42.3032C55.9397 41.8657 55.71 41.4434 55.4986 41.0151C55.272 40.5898 55.0361 40.1737 54.8034 39.7514L54.8003 39.7453V39.7423C53.9366 38.0135 52.9412 36.3429 51.8937 34.7152C50.837 33.0874 49.6946 31.5178 48.4327 30.0461C47.1708 28.5774 45.7986 27.1944 44.2458 26.0317Z" fill="black"/>
  <path d="M40.3835 17.5072C40.3651 17.5133 40.3467 17.5195 40.3284 17.5225L40.3314 17.498C40.3498 17.5011 40.3651 17.5042 40.3835 17.5072Z" fill="black"/>
  <path d="M39.6913 21.139C39.9945 21.2094 40.2916 21.2828 40.5918 21.3624C41.6423 21.6439 42.6715 22.008 43.673 22.4302C44.1692 22.6566 44.6684 22.8739 45.1401 23.1462C45.3821 23.2778 45.621 23.4032 45.8537 23.5592C46.0896 23.7092 46.3162 23.8499 46.5398 23.9968C46.3714 23.5134 46.0926 23.0728 45.768 22.6781C45.6179 22.47 45.428 22.2956 45.2534 22.1059C45.0666 21.9315 44.8736 21.7571 44.6776 21.5919C43.8751 20.9463 42.944 20.469 41.9854 20.1079C41.5076 19.9029 41.0083 19.7805 40.5152 19.6306C40.019 19.5021 39.5106 19.4134 39.0083 19.3124C38.4968 19.2481 37.9884 19.1716 37.4769 19.1196L36.2058 19.0401C37.2288 18.5536 38.6193 17.9875 40.3284 17.5225V17.5286C41.2105 17.6816 42.0619 17.9967 42.8797 18.3669C43.7006 18.731 44.4724 19.1992 45.2197 19.6918C46.7083 20.6984 48.0283 21.9407 49.2106 23.2869L50.0774 24.315L50.8645 25.4073L51.2596 25.9519L51.6149 26.5241L52.3224 27.6684C52.7696 28.4456 53.1678 29.2533 53.5905 30.0428L54.6808 32.5058L54.6839 32.5089L54.6869 32.515C55.4343 33.898 56.102 35.333 56.7176 36.7833C57.3271 38.2366 57.8723 39.7175 58.3562 41.2198C58.8463 42.716 59.2291 44.2489 59.5538 45.788C59.8693 47.2872 60.053 48.8079 60.1602 50.3347L58.7636 50.3928C58.7146 49.4565 58.5461 48.5509 58.3409 47.6483C58.1234 46.7028 57.8417 45.7727 57.5231 44.8578C57.1923 43.946 56.8248 43.0495 56.4113 42.1745C56.2153 41.7308 55.9795 41.3055 55.7681 40.871C55.5415 40.4457 55.3026 40.0265 55.0698 39.6012C54.1938 37.8542 53.2107 36.1774 52.1325 34.5558C51.0544 32.9342 49.8844 31.3676 48.6011 29.902C47.3116 28.4395 45.915 27.0626 44.3376 25.9091C43.5535 25.3278 42.7174 24.8137 41.8353 24.3976C41.0022 24.0029 40.1324 23.6878 39.2319 23.4919C39.4157 23.2778 39.5841 23.0513 39.7281 22.8004C39.7832 22.6964 39.8383 22.5863 39.8781 22.4669C39.9149 22.3445 39.9486 22.2069 39.9088 22.0416C39.869 21.8734 39.7005 21.7387 39.5596 21.7142L39.6913 21.139Z" fill="url(#paint11_linear_139_9493)"/>
  <path d="M39.7158 45.5769C39.6637 45.5799 39.6116 45.583 39.5596 45.583V45.5524C39.5994 45.5493 39.6423 45.5432 39.6821 45.5371C39.6943 45.5493 39.7035 45.5646 39.7158 45.5769Z" fill="black"/>
  <path d="M41.3666 48.8787C40.7295 46.9939 39.5228 45.3049 37.9607 44.0382L37.9975 43.9893C38.607 44.4452 39.1736 44.9653 39.682 45.5375C39.6422 45.5436 39.5993 45.5497 39.5595 45.5528V45.5834C39.6116 45.5834 39.6637 45.5803 39.7157 45.5772C40.5396 46.5166 41.2043 47.5966 41.6545 48.7746C42.4049 50.69 42.4968 52.7951 42.3743 54.8084C42.3314 55.8211 42.2395 56.8461 42.022 57.8558C41.9087 58.3607 41.7709 58.8625 41.5718 59.3459C41.3666 59.8293 41.1522 60.2791 40.9225 60.735C40.46 61.6376 39.9546 62.5218 39.4401 63.3816C38.9408 64.2506 38.4814 65.1471 38.0067 66.0405L37.9515 66.016C38.2793 65.0583 38.6468 64.116 39.0787 63.195C39.5105 62.2771 39.9638 61.3867 40.3773 60.4719C40.5856 60.0221 40.803 59.5601 40.9837 59.1103C41.1583 58.6605 41.3145 58.1954 41.4279 57.7181C41.6698 56.7635 41.7985 55.7752 41.8812 54.7778C42.0649 52.7889 42.0343 50.7634 41.3666 48.8787Z" fill="black"/>
  <path d="M37.4033 20.6769C38.1721 20.8024 38.9347 20.9584 39.6913 21.1389L39.5596 21.7142C39.4156 21.6775 39.29 21.6866 39.1706 21.6989C38.702 21.7631 38.2854 21.91 37.8566 22.0416L36.5886 22.4516C35.7953 22.7024 34.999 22.938 34.1935 23.1461C34.1873 22.2037 34.172 21.2644 34.1628 20.3281C35.244 20.3771 36.3283 20.5025 37.4033 20.6769Z" fill="url(#paint12_linear_139_9493)"/>
  <path d="M39.0725 23.458C39.1246 23.4702 39.1797 23.4794 39.2318 23.4917C39.2257 23.5008 39.2165 23.51 39.2042 23.5223C39.1583 23.51 39.1123 23.4978 39.0664 23.4886L39.0725 23.458Z" fill="black"/>
  <path d="M37.9516 67.809C38.8551 65.7896 40.0343 63.914 41.3605 62.1577C41.7005 61.7232 42.0374 61.2918 42.4019 60.8726C42.7725 60.4504 43.1523 60.0649 43.5167 59.6641C44.2518 58.8624 44.9563 58.0363 45.6791 57.2132C46.3989 56.3932 47.1186 55.5794 47.7496 54.7104C48.065 54.2759 48.3591 53.8262 48.6225 53.3641C48.8798 52.8991 49.1187 52.4095 49.3361 51.92C49.7649 50.9317 50.1386 49.9128 50.3377 48.8603C50.5521 47.8077 50.6133 46.7246 50.5582 45.6476C50.4632 43.4844 49.8874 41.3518 49.0298 39.3477C50.013 41.2967 50.6562 43.4324 50.8583 45.6262C50.9472 46.7246 50.9104 47.8383 50.7174 48.9306C50.6746 49.1968 50.6194 49.46 50.5582 49.72C50.5031 49.7047 50.4755 49.6986 50.4755 49.6986C49.8782 52.2076 48.2059 54.9644 48.2059 54.9674C48.209 54.9705 48.209 54.9705 48.2121 54.9735C48.1998 54.9888 48.1906 55.0041 48.1784 55.0194C47.5352 55.922 46.8093 56.7512 46.0987 57.5773C45.6913 58.0485 45.287 58.5289 44.8736 59.0032C44.5703 59.3581 44.261 59.71 43.9486 60.0557C43.5841 60.4657 43.2013 60.8604 42.8552 61.2643C42.506 61.6682 42.1783 62.1026 41.8475 62.531C40.5305 64.2444 39.3574 66.0772 38.46 68.0354C38.2364 68.5249 38.0343 69.0267 37.8689 69.5285C37.7923 69.7672 37.7341 70.0426 37.6667 70.2965C37.6116 70.5596 37.5534 70.8228 37.5044 71.0859C37.3267 72.1384 37.244 73.2124 37.3666 74.268C37.5044 75.3114 37.8321 76.3486 38.4569 77.2023C39.0726 78.0559 39.924 78.7688 40.8766 79.2155C41.8414 79.6408 42.9685 79.6837 44.0252 79.5337C44.7511 79.4114 45.4555 79.1574 46.1048 78.7933C45.918 78.931 45.722 79.0534 45.5198 79.1727C45.4524 79.2125 45.3851 79.2492 45.3177 79.2828C44.9134 79.4634 44.4907 79.6011 44.0558 79.6928C43.5137 79.806 42.9562 79.8336 42.4049 79.8214C41.8475 79.803 41.287 79.6959 40.7602 79.4909C40.4998 79.3899 40.2426 79.2614 40.0098 79.1054C39.7801 78.9493 39.532 78.8147 39.3237 78.6281L38.9991 78.3619C38.8919 78.2731 38.7969 78.1661 38.6958 78.0681C38.4906 77.8754 38.3191 77.652 38.1445 77.4317C37.4523 76.5352 37.0725 75.4337 36.8979 74.3292C36.7387 73.2155 36.7999 72.0895 36.9837 70.9941C37.0296 70.7218 37.0878 70.4495 37.143 70.1772C37.2134 69.9049 37.2655 69.6479 37.3512 69.3633C37.5228 68.8279 37.728 68.3138 37.9516 67.809Z" fill="black"/>
  <path d="M39.2013 25.7835C40.944 25.9395 42.6133 26.7228 43.8752 27.913L44.3468 28.3597L44.7756 28.8493C45.0727 29.1614 45.3055 29.5286 45.5689 29.8682C45.8139 30.2231 46.0283 30.5994 46.258 30.9605C46.4602 31.3399 46.6562 31.7224 46.8522 32.1018L46.1876 31.0033C45.9395 30.6545 45.7098 30.2935 45.4464 29.9569C45.1738 29.6295 44.9349 29.2746 44.6286 28.9778L44.1937 28.5127L43.7189 28.0874C43.0727 27.5459 42.3805 27.041 41.6025 26.7136C40.8338 26.3709 40.0129 26.1568 39.1737 26.0864C37.8169 25.9518 36.4508 26.2027 35.1583 26.6586C35.4799 26.478 35.7985 26.2883 36.1078 26.0864C37.1124 25.8171 38.1538 25.6947 39.2013 25.7835Z" fill="black"/>
  <path d="M37.4463 20.4044C36.5305 20.2484 35.6116 20.126 34.6805 20.0556L35.97 19.3213L37.4524 19.4008C37.9578 19.4467 38.4601 19.5171 38.9654 19.5752C39.4616 19.6732 39.9609 19.7588 40.454 19.8751C40.941 20.0128 41.4372 20.1229 41.9088 20.3096C42.3928 20.4626 42.8461 20.6859 43.3055 20.9001L43.9671 21.2734C44.1784 21.4111 44.3836 21.5579 44.5949 21.6987C44.794 21.8547 44.99 22.0169 45.183 22.179C45.3606 22.3596 45.5536 22.5248 45.7129 22.7237C46.0467 23.1031 46.3438 23.5253 46.5398 23.9965C46.0682 23.6783 45.67 23.3417 45.1799 23.0786C44.7174 22.7849 44.2243 22.5462 43.7343 22.2984C42.7358 21.8425 41.7067 21.4539 40.6531 21.1418C39.6025 20.8297 38.5305 20.5911 37.4463 20.4044Z" fill="url(#paint13_linear_139_9493)"/>
  <path d="M36.0098 19.2969L35.97 19.3214L35.9332 19.3183L36.0098 19.2969Z" fill="black"/>
  <path d="M34.3804 20.0375C34.6499 19.8662 35.1767 19.5479 35.9363 19.1716C36.0221 19.1288 36.1139 19.0859 36.2058 19.04L37.4769 19.1196C37.9884 19.1716 38.4968 19.2481 39.0083 19.3124C39.5106 19.4133 40.019 19.5021 40.5152 19.6306C41.0083 19.7805 41.5076 19.9029 41.9854 20.1079C42.9441 20.4689 43.8752 20.9462 44.6776 21.5918C44.8736 21.7571 45.0666 21.9315 45.2534 22.1059C45.428 22.2956 45.6179 22.47 45.768 22.678C46.0926 23.0727 46.3714 23.5133 46.5398 23.9968C46.3438 23.5256 46.0467 23.1033 45.7129 22.7239C45.5536 22.525 45.3606 22.3598 45.183 22.1793C44.99 22.0171 44.794 21.855 44.5949 21.6989C44.3836 21.5582 44.1784 21.4113 43.967 21.2736L43.3055 20.9003C42.846 20.6862 42.3927 20.4628 41.9088 20.3098C41.4371 20.1232 40.941 20.013 40.454 19.8753C39.9609 19.7591 39.4616 19.6734 38.9654 19.5755C38.4601 19.5174 37.9578 19.447 37.4524 19.4011L35.97 19.3215L36.0098 19.2971L35.9332 19.3185L35.97 19.3215L34.6805 20.0559C34.5795 20.0497 34.4814 20.0436 34.3804 20.0375Z" fill="black"/>
  <path d="M35.1123 7.20548C35.2256 6.89951 35.3481 6.5966 35.4798 6.2998L35.535 6.32428C35.4462 6.55376 35.3665 6.7863 35.2899 7.02189C35.2318 7.09227 35.1705 7.15346 35.1123 7.20548Z" fill="black"/>
  <path d="M34.3803 20.0381C34.4814 20.0442 34.5794 20.0503 34.6804 20.0564L34.2425 20.3073L34.2026 20.1513C34.2363 20.1329 34.2945 20.0932 34.3803 20.0381Z" fill="black"/>
  <path d="M34.2395 27.0202C34.5396 26.8887 34.849 26.7693 35.1583 26.6592C34.2824 27.1579 33.3666 27.5893 32.4232 27.9534C33.0082 27.6046 33.6147 27.2895 34.2395 27.0202Z" fill="black"/>
  <path d="M34.8337 6.37255C34.8367 6.37867 34.8429 6.36337 34.8337 6.40008C34.8275 6.43068 34.7939 6.48881 34.751 6.54389C34.6621 6.66322 34.5304 6.78255 34.3865 6.8927C34.0986 7.11605 33.7647 7.31493 33.4278 7.49546C32.7418 7.85956 32.0189 8.16553 31.2838 8.44396C29.8106 8.99471 28.2853 9.42613 26.7386 9.73821C25.9668 9.89732 25.1827 10.0258 24.3986 10.1329C23.6114 10.2431 22.8243 10.3349 22.0341 10.3991C21.2408 10.4511 20.4475 10.4848 19.6543 10.4511C19.2592 10.4266 18.8641 10.3899 18.4751 10.3073C18.2852 10.2645 18.0922 10.2125 17.9176 10.1329C17.8594 10.1054 17.8013 10.0748 17.7492 10.0381C17.6818 9.94933 17.6114 9.86366 17.5409 9.78105C17.5378 9.77493 17.5348 9.76575 17.5348 9.75963C17.5103 9.58217 17.6267 9.41083 17.7492 9.26702C17.8748 9.12322 18.0248 8.99471 18.181 8.87538C18.4935 8.63978 18.8396 8.44702 19.1857 8.26038C19.8901 7.9024 20.6282 7.61172 21.3756 7.36083C22.1198 7.10687 22.8794 6.88964 23.6421 6.70605C24.4047 6.51941 25.1643 6.36031 25.9361 6.23792C27.4798 5.99314 29.0449 5.83098 30.607 5.78814C31.388 5.76673 32.169 5.77285 32.9378 5.84628C33.3206 5.88299 33.7004 5.93501 34.0588 6.02374C34.2364 6.06658 34.411 6.12165 34.558 6.1859C34.7081 6.2471 34.8306 6.35113 34.8337 6.37255Z" fill="#141414"/>
  <path d="M34.2027 20.1508L34.1721 20.0254C34.2426 20.0285 34.3099 20.0315 34.3804 20.0376C34.2946 20.0927 34.2364 20.1325 34.2027 20.1508Z" fill="black"/>
  <path d="M40.5917 21.3622C40.2916 21.2826 39.9945 21.2092 39.6913 21.1388C38.9347 20.9583 38.1721 20.8022 37.4033 20.6768C36.3283 20.5024 35.244 20.3769 34.1628 20.328C34.1628 20.279 34.1628 20.2331 34.1628 20.1842L34.169 20.1781C34.169 20.1781 34.1812 20.1689 34.2027 20.1505L34.2425 20.3066L34.6805 20.0557C35.6116 20.126 36.5304 20.2484 37.4462 20.4045C38.5304 20.5911 39.6024 20.8298 40.653 21.1419C41.7066 21.4539 42.7357 21.8425 43.7342 22.2984C44.2242 22.5463 44.7174 22.7849 45.1799 23.0786C45.6699 23.3418 46.0681 23.6783 46.5398 23.9966C46.3162 23.8497 46.0895 23.7089 45.8537 23.559C45.6209 23.403 45.382 23.2775 45.14 23.146C44.6684 22.8736 44.1691 22.6564 43.6729 22.43C42.6714 22.0078 41.6423 21.6436 40.5917 21.3622Z" fill="black"/>
  <path d="M34.1935 23.1465C34.1935 23.1495 34.1935 23.1526 34.1935 23.1587C34.1383 23.171 34.0863 23.1801 34.0311 23.1893C34.0863 23.174 34.1383 23.1618 34.1935 23.1465Z" fill="black"/>
  <path d="M35.8627 19.0429L35.9025 19.0215L35.9393 19.0245L36.2058 19.0398C36.1139 19.0857 36.022 19.1286 35.9362 19.1714C35.1767 19.5478 34.6498 19.866 34.3803 20.0373C34.3099 20.0312 34.2425 20.0281 34.172 20.0251L34.2027 20.1505C34.1812 20.1689 34.169 20.1781 34.169 20.1781L34.1629 20.1842C34.1598 20.1322 34.1598 20.0801 34.1598 20.0281C34.1598 20.022 34.1598 20.0159 34.1598 20.0098L35.8627 19.0429Z" fill="black"/>
  <path d="M34.1629 20.1846C34.1629 20.2335 34.1629 20.2794 34.1629 20.3284L33.9822 20.3192L34.1629 20.1846Z" fill="black"/>
  <path d="M33.6392 20.3035L34.0925 20.0465L34.1598 20.0098C34.1598 20.0159 34.1598 20.022 34.1598 20.0281C34.1598 20.0801 34.1598 20.1322 34.1629 20.1842L33.9822 20.3188L33.6392 20.3035Z" fill="black"/>
  <path d="M35.0174 51.5556C34.6591 49.3618 33.78 47.2659 32.5273 45.4117L32.5764 45.375C33.2563 46.2715 33.8352 47.2445 34.3007 48.2725C34.7724 49.2975 35.1216 50.3868 35.3329 51.4975C35.5534 52.6051 35.6698 53.7341 35.6851 54.8692C35.7066 55.4322 35.6545 56.0166 35.5902 56.5735C35.5228 57.1334 35.437 57.6872 35.3543 58.2441L34.8337 61.5669L34.5549 63.2253C34.4631 63.7821 34.3497 64.3329 34.2854 64.8714C34.1598 65.979 34.0404 67.0866 34.0312 68.1912C34.0189 69.2957 34.0955 70.4003 34.2977 71.4865C34.7326 73.6466 35.2655 75.871 36.5856 77.6487C37.2472 78.5177 38.1109 79.2428 39.1308 79.662C40.1477 80.0812 41.2717 80.2403 42.3744 80.1546C43.3973 80.0689 44.4111 79.7752 45.3177 79.2826C45.9211 79.0164 46.4785 78.6553 46.9717 78.23L46.9809 78.2362C46.9717 78.2484 46.9594 78.2606 46.9502 78.2729C46.7665 78.4932 46.5582 78.6982 46.3285 78.8695C46.0988 79.0409 45.8599 79.1939 45.6118 79.3346C44.6255 79.8945 43.526 80.2617 42.3927 80.3657C41.2595 80.4697 40.1017 80.3106 39.0359 79.8976C38.7663 79.7966 38.5182 79.6559 38.261 79.5304C38.1293 79.4662 38.0159 79.3774 37.8934 79.304C37.774 79.2244 37.6484 79.1541 37.5412 79.0592C37.0787 78.7165 36.6805 78.2974 36.313 77.8568C35.6086 76.9511 35.0909 75.9169 34.705 74.8521C34.5121 74.3167 34.3467 73.7751 34.1966 73.2305C34.0526 72.6859 33.9026 72.1412 33.8015 71.5783C33.3635 69.3386 33.4462 67.0315 33.7494 64.8041C33.829 64.2319 33.9454 63.6873 34.0434 63.1366L34.3344 61.4843L34.8919 58.1707L35.1461 56.5154C35.2257 55.9585 35.287 55.4261 35.2808 54.8692C35.2931 53.7616 35.2073 52.6479 35.0174 51.5556Z" fill="black"/>
  <path d="M33.6422 21.2767C33.6116 20.9554 33.5871 20.6311 33.5687 20.3098L33.6392 20.3037L33.9822 20.319L34.1629 20.3282C34.1721 21.2645 34.1874 22.2038 34.1935 23.1462C34.1384 23.1615 34.0863 23.1737 34.0312 23.189C34.0863 23.1798 34.1384 23.1706 34.1935 23.1584C34.1997 23.6602 34.1997 24.162 34.1997 24.6668L34.1384 24.673C33.8964 23.5684 33.7464 22.4516 33.6484 21.3318C33.7096 21.3165 33.7678 21.2981 33.826 21.2798L33.8199 21.2492C33.7617 21.2583 33.7004 21.2675 33.6422 21.2767Z" fill="black"/>
  <path d="M33.8199 21.249L33.826 21.2796C33.7678 21.298 33.7096 21.3163 33.6483 21.3316C33.6453 21.3133 33.6422 21.2949 33.6422 21.2766C33.7004 21.2674 33.7617 21.2582 33.8199 21.249Z" fill="black"/>
  <path d="M39.1308 29.7456C37.6545 29.7915 36.2854 30.5656 35.3084 31.7038C34.3313 32.8451 33.7616 34.3811 33.78 35.9262C33.7953 37.4744 34.3895 38.9982 35.3941 40.118C36.3895 41.2287 37.7862 41.9722 39.2441 41.9385C40.6959 41.9263 42.0834 41.1552 42.9899 39.9926C43.9088 38.8329 44.408 37.3429 44.4601 35.8283C44.4938 34.3199 44.0405 32.7564 43.0635 31.5753C42.1017 30.3882 40.604 29.6722 39.1308 29.7456ZM35.0786 40.3689C34.1384 39.0594 33.7433 37.4744 33.7188 35.9293C33.7218 34.3811 34.0832 32.79 35.0051 31.4682C35.4584 30.8135 36.0588 30.2352 36.7755 29.8405C37.486 29.4397 38.3099 29.2255 39.1277 29.2347C39.9455 29.253 40.751 29.4886 41.4463 29.8864C42.1415 30.2841 42.7357 30.8318 43.2166 31.4529C44.1845 32.6952 44.7174 34.2434 44.794 35.8252C44.8613 37.4071 44.4295 39.0471 43.4463 40.3444C42.9624 40.9931 42.3468 41.5561 41.627 41.9599C40.9072 42.3638 40.0803 42.5841 39.2502 42.5933C38.4202 42.5902 37.5902 42.3791 36.8735 41.9814C36.1506 41.5897 35.5442 41.0176 35.0786 40.3689Z" fill="black"/>
  <path d="M33.6973 19.1562L33.7034 19.1868C33.6391 19.2083 33.5779 19.2297 33.5135 19.2511C33.5135 19.2297 33.5135 19.2113 33.5135 19.1899C33.5748 19.1777 33.6361 19.1685 33.6973 19.1562Z" fill="black"/>
  <path d="M33.5504 20.0497C33.535 19.7835 33.5228 19.5173 33.5136 19.2511C33.5779 19.2297 33.6392 19.2083 33.7035 19.1868L33.6974 19.1563C33.6361 19.1685 33.5749 19.1777 33.5136 19.1899C33.4799 17.9232 33.5412 16.6534 33.6208 15.3898C33.728 13.8385 33.8658 12.2872 34.1568 10.7604C34.3926 9.55491 34.6897 8.35551 35.1124 7.20507C35.1706 7.15305 35.2318 7.09186 35.29 7.02148C34.8888 8.25148 34.6407 9.53044 34.46 10.8094C34.2334 12.3301 34.1537 13.8722 34.1109 15.4112C34.0649 16.9441 34.1537 18.477 34.1599 20.0099L34.0925 20.0466L33.6392 20.3036L33.5687 20.3098C33.5626 20.2241 33.5565 20.1354 33.5504 20.0497Z" fill="black"/>
  <path d="M32.0311 28.1061C32.1628 28.0572 32.2945 28.0082 32.4231 27.9531C32.2761 28.0388 32.1291 28.1306 31.9852 28.2224C31.2593 28.6722 30.564 29.1739 29.9116 29.7278C30.4844 29.1739 31.1 28.663 31.7524 28.2071C31.8443 28.1734 31.9392 28.1398 32.0311 28.1061Z" fill="black"/>
  <path d="M31.7524 28.2073C32.5028 27.6688 33.3053 27.2006 34.1445 26.8059C34.7724 26.5122 35.4309 26.2644 36.1078 26.0869C35.7984 26.2889 35.4799 26.4786 35.1583 26.6591C34.849 26.7692 34.5396 26.8886 34.2395 27.0201C33.6146 27.2894 33.0082 27.6045 32.4232 27.9533C32.2946 28.0084 32.1629 28.0574 32.0312 28.1063C31.9393 28.14 31.8443 28.1736 31.7524 28.2073Z" fill="black"/>
  <path d="M29.0357 20.331C29.5686 20.279 30.0954 20.1658 30.6222 20.071C31.1429 19.9578 31.6636 19.8201 32.1812 19.6855C32.6284 19.5478 33.0725 19.407 33.5135 19.251C33.5227 19.5172 33.535 19.7834 33.5503 20.0496C33.5564 20.1352 33.5625 20.224 33.5686 20.3096C33.587 20.6309 33.6115 20.9552 33.6422 21.2765C33.1827 21.3438 32.7264 21.4203 32.27 21.5029L30.7233 21.7385C29.6942 21.8762 28.6651 22.0567 27.6268 22.1393C26.5885 22.2311 25.5471 22.277 24.5057 22.2372C23.985 22.2189 23.4644 22.1883 22.9467 22.124C22.4628 22.069 21.9758 21.9925 21.5041 21.864C21.4827 21.6437 21.4613 21.4234 21.4368 21.2031C21.3878 20.7808 21.3296 20.3586 21.2683 19.9394C21.7124 20.0863 22.1718 20.1872 22.6343 20.2699C23.1581 20.3708 23.691 20.429 24.2239 20.4779C25.2929 20.5605 26.3649 20.5483 27.4338 20.481L28.2363 20.4228L29.0357 20.331Z" fill="white"/>
  <path d="M36.1997 82.2474C35.1002 82.0241 34.0312 81.6539 33.0389 81.1215C29.0725 78.8542 26.2455 74.9654 24.8917 70.6787C24.953 70.8684 25.0173 71.0551 25.0847 71.2417C25.7309 72.998 26.5977 74.6961 27.7585 76.1709C28.3313 76.9144 28.9684 77.6059 29.633 78.2545C30.2976 78.9093 30.996 79.5335 31.7494 80.0842C32.5029 80.6319 33.3084 81.1368 34.1966 81.4519C34.6315 81.6233 35.0665 81.7762 35.4983 81.9415L35.826 82.0608C35.9302 82.1036 36.0527 82.1373 36.1293 82.1862C36.163 82.2107 36.1875 82.2291 36.1997 82.2474Z" fill="black"/>
  <path d="M25.0908 50.5089C24.7937 52.7303 24.4874 54.9516 24.2638 57.173C24.1872 57.9532 24.126 58.7334 24.0923 59.5136C24.1168 58.8221 24.1413 58.1245 24.175 57.433C24.2209 56.5121 24.2914 55.588 24.3833 54.6701C24.5701 52.8282 24.8335 50.9954 25.1735 49.1719L25.1122 49.1566C24.9744 49.7134 24.8427 50.2733 24.7263 50.8363C24.7447 50.7109 24.7661 50.5885 24.7845 50.463C25.1428 48.2478 25.5931 46.0479 26.0954 43.8633L26.1566 43.8755C25.7309 46.0785 25.3909 48.2907 25.0908 50.5089Z" fill="black"/>
  <path d="M25.5655 71.073C24.9621 69.3381 24.5639 67.536 24.3097 65.7185C24.0586 63.898 24.0157 62.053 24.0708 60.208C24.0708 60.3059 24.0678 60.4069 24.0678 60.5048C24.0555 61.6185 24.1229 62.717 24.2301 63.8338C24.4353 66.049 24.7661 68.255 25.4552 70.3601C25.7952 71.4096 26.1964 72.4437 26.7079 73.4198C26.9407 73.9216 27.2408 74.3836 27.5134 74.8609L27.9729 75.5463L28.2026 75.892C28.2822 76.0022 28.368 76.1093 28.4537 76.2164L28.9622 76.8681C29.1398 77.0792 29.3297 77.275 29.5135 77.48C29.8749 77.8931 30.2761 78.2908 30.6712 78.6702C31.4706 79.426 32.3497 80.0899 33.3114 80.6131C35.2318 81.6596 37.4676 82.1001 39.6637 81.9778C40.7694 81.9227 41.872 81.7666 42.9409 81.4882C44.0068 81.2067 45.0451 80.7967 45.967 80.197C46.8859 79.6004 47.6853 78.8018 48.1998 77.8319C48.451 77.3515 48.6623 76.8191 48.7205 76.299C48.7236 76.2347 48.7205 76.1735 48.7082 76.1246C48.6929 76.0787 48.6868 76.0787 48.6654 76.0756C48.598 76.0756 48.4693 76.1368 48.3805 76.2255C48.1906 76.3999 48.0375 76.6294 47.8966 76.8681C47.6148 77.3331 47.333 77.8074 46.9808 78.2358L46.9716 78.2296C46.696 78.4408 46.4081 78.6305 46.1048 78.7926C46.3621 78.606 46.598 78.3949 46.794 78.144C47.1462 77.7217 47.4219 77.2383 47.7128 76.7549C47.8537 76.5131 48.0099 76.2653 48.2335 76.0603C48.3468 75.9624 48.4724 75.8553 48.6868 75.8492C48.8093 75.8522 48.9135 75.9746 48.9288 76.0634C48.9502 76.1521 48.9533 76.2316 48.9471 76.3081C48.892 76.9048 48.6868 77.4372 48.4357 77.9543C47.918 78.9793 47.0972 79.8329 46.1538 80.4754C45.2074 81.1241 44.1416 81.5739 43.0512 81.8921C41.9578 82.2103 40.8276 82.3908 39.6943 82.4643C38.607 82.5407 37.5044 82.4857 36.4263 82.2899C36.4263 82.2501 36.4171 82.2072 36.3987 82.1736C36.3589 82.091 36.2946 82.0451 36.2395 82.0084C36.1169 81.938 36.0097 81.9135 35.8995 81.8707L35.5718 81.7513C35.1368 81.5922 34.6927 81.4393 34.2639 81.274C33.391 80.9772 32.6161 80.4602 31.878 79.9155C31.1398 79.3587 30.4538 78.7406 29.8136 78.0766C29.1704 77.4096 28.5701 76.712 28.0311 75.9685C26.9407 74.4846 26.1566 72.8078 25.5655 71.073Z" fill="black"/>
  <path d="M31.878 79.9164C32.6162 80.461 33.3911 80.9781 34.264 81.2749C34.6928 81.4401 35.1369 81.5931 35.5718 81.7522L35.8995 81.8715C36.0098 81.9144 36.117 81.9388 36.2395 82.0092C36.2947 82.0459 36.359 82.0918 36.3988 82.1744C36.4172 82.2081 36.4264 82.2509 36.4264 82.2907C36.3498 82.2785 36.2763 82.2632 36.1997 82.2479C36.1875 82.2295 36.163 82.2111 36.1293 82.1867C36.0527 82.1377 35.9302 82.1041 35.826 82.0612L35.4983 81.9419C35.0665 81.7767 34.6315 81.6237 34.1966 81.4523C33.3084 81.1372 32.5029 80.6323 31.7494 80.0847C30.996 79.5339 30.2976 78.9097 29.633 78.255C28.9684 77.6063 28.3313 76.9148 27.7585 76.1713C26.5977 74.6965 25.7309 72.9984 25.0847 71.2421C25.0173 71.0555 24.953 70.8688 24.8917 70.6791C24.8795 70.6363 24.8642 70.5935 24.8519 70.5506C24.5027 69.4706 24.2455 68.363 24.0494 67.2462C23.8534 66.1324 23.7217 65.0065 23.639 63.8836C23.6115 63.5256 23.587 63.1645 23.5686 62.8004C23.5502 61.9284 23.5655 61.0595 23.6023 60.1936C23.6482 59.1074 23.7156 58.0212 23.8136 56.938C24.0556 54.8911 24.3986 52.8656 24.7263 50.837C24.8427 50.274 24.9744 49.7141 25.1122 49.1572L25.1735 49.1725C24.8335 50.9961 24.5701 52.8289 24.3833 54.6708C24.2914 55.5887 24.221 56.5127 24.175 57.4337C24.1413 58.1252 24.1168 58.8228 24.0923 59.5143C24.0862 59.7468 24.0801 59.9794 24.0709 60.2089C24.0158 62.0539 24.0586 63.8989 24.3098 65.7194C24.564 67.5368 24.9622 69.339 25.5655 71.0738C26.1567 72.8087 26.9408 74.4854 28.0311 75.9694C28.5702 76.7129 29.1705 77.4105 29.8137 78.0775C30.4538 78.7415 31.1399 79.3595 31.878 79.9164Z" fill="black"/>
  <path d="M24.7263 50.8369C24.3986 52.8655 24.0556 54.891 23.8136 56.938C23.881 56.1669 23.9637 55.3989 24.0648 54.6309C24.2363 53.3581 24.4568 52.0914 24.7263 50.8369Z" fill="black"/>
  <path d="M23.7768 65.7891C23.6512 64.7947 23.5869 63.7973 23.5685 62.7998C23.5869 63.1639 23.6114 63.525 23.6389 63.8829C23.7216 65.0058 23.8533 66.1318 24.0493 67.2455C24.2454 68.3623 24.5026 69.4699 24.8518 70.55C24.8641 70.5929 24.8794 70.6357 24.8916 70.6785C24.6588 69.9779 24.4598 69.268 24.2852 68.549C24.0647 67.6402 23.887 66.7193 23.7768 65.7891Z" fill="black"/>
  <path d="M23.6023 60.193C23.5655 61.0589 23.5502 61.9279 23.5686 62.7999C23.5257 62.035 23.5104 61.2609 23.5318 60.4959C23.5625 59.3669 23.6605 58.2409 23.7891 57.1241C23.7952 57.0629 23.8044 56.9987 23.8136 56.9375C23.7156 58.0206 23.6482 59.1068 23.6023 60.193Z" fill="black"/>
  <path d="M24.4965 22.3901C23.9728 22.3503 23.4521 22.3014 22.9345 22.2157C22.4506 22.1423 21.9728 22.0474 21.5072 21.8975C21.5072 21.8852 21.5042 21.873 21.5042 21.8638C21.9758 21.9923 22.4628 22.0688 22.9467 22.1239C23.4644 22.1882 23.985 22.2188 24.5057 22.2371C25.5471 22.2769 26.5885 22.231 27.6268 22.1392C28.6651 22.0566 29.6942 21.8761 30.7233 21.7384L32.27 21.5028C32.7264 21.4202 33.1827 21.3437 33.6422 21.2764C33.6422 21.2947 33.6452 21.3131 33.6483 21.3314C33.2072 21.4691 32.7601 21.5915 32.3129 21.7108C31.8014 21.8271 31.2899 21.9373 30.7753 22.0413C29.7401 22.2218 28.6926 22.335 27.6451 22.384C26.5976 22.4452 25.544 22.4605 24.4965 22.3901Z" fill="black"/>
  <path d="M32.1812 19.6861C31.6636 19.8207 31.1429 19.9584 30.6222 20.0716C30.0954 20.1665 29.5686 20.2797 29.0357 20.3317L28.2363 20.4235L27.4338 20.4816C26.3649 20.5489 25.2929 20.5612 24.224 20.4786C23.691 20.4296 23.1581 20.3715 22.6344 20.2705C22.1719 20.1879 21.7124 20.0869 21.2683 19.9401C21.2653 19.9248 21.2653 19.9095 21.2622 19.8942C21.7155 20.0288 22.1811 20.1175 22.6497 20.1818C23.1734 20.2583 23.7033 20.298 24.2362 20.3256C25.296 20.3776 26.3588 20.3348 27.4154 20.2368L28.2057 20.1512L28.9928 20.0318C29.2562 19.9951 29.5196 19.9554 29.7799 19.9064L30.564 19.7718C31.0878 19.6892 31.6054 19.5698 32.1291 19.478C32.5886 19.3801 33.048 19.2792 33.5135 19.1904C33.5135 19.2118 33.5135 19.2302 33.5135 19.2516C33.0725 19.4077 32.6284 19.5484 32.1812 19.6861Z" fill="black"/>
  <path d="M21.5042 21.8643C21.5042 21.8735 21.5072 21.8857 21.5072 21.898C21.4705 21.8919 21.4368 21.8796 21.4 21.8674L21.4092 21.8398C21.4398 21.849 21.4735 21.8582 21.5042 21.8643Z" fill="black"/>
  <path d="M21.2684 19.9396C21.2041 19.9182 21.1428 19.8967 21.0815 19.8753L21.0907 19.8447C21.1459 19.8631 21.2041 19.8814 21.2623 19.8937C21.2653 19.909 21.2653 19.9243 21.2684 19.9396Z" fill="black"/>
  <path d="M18.6434 27.3226C19.1794 27.6622 19.7062 28.0141 20.2239 28.3843C19.1335 27.959 18.1074 27.344 17.256 26.5332C17.743 26.7627 18.1993 27.0442 18.6434 27.3226Z" fill="black"/>
  <path d="M17.8839 10.2097C18.0707 10.2923 18.2637 10.3413 18.4597 10.3841C18.8518 10.4667 19.2499 10.5126 19.6481 10.5402C20.4444 10.6013 21.2438 10.6105 22.0432 10.5922C23.639 10.5677 25.2347 10.4361 26.8213 10.1913C28.4017 9.91903 29.9607 9.52433 31.486 9.00724C32.2455 8.74411 32.999 8.45038 33.7341 8.08933C34.0986 7.90575 34.46 7.70687 34.8091 7.45291C34.9102 7.37642 35.0113 7.29993 35.1124 7.20508C34.6897 8.35552 34.3926 9.55493 34.1567 10.7604C33.8658 12.2872 33.7279 13.8385 33.6207 15.3898C33.5411 16.6534 33.4799 17.9232 33.5136 19.1899C33.048 19.2787 32.5886 19.3796 32.1292 19.4775C31.6054 19.5693 31.0878 19.6887 30.564 19.7713L29.78 19.9059C29.5196 19.9548 29.2562 19.9946 28.9928 20.0313L28.2057 20.1507L27.4155 20.2363C26.3588 20.3342 25.296 20.3771 24.2362 20.3251C23.7033 20.2975 23.1734 20.2578 22.6497 20.1813C22.1811 20.117 21.7155 20.0283 21.2622 19.8936C21.1275 18.9849 20.9621 18.0823 20.7599 17.1858C20.4567 15.864 20.1565 14.5208 19.6052 13.2663C19.1427 12.1924 18.5884 11.1429 17.8839 10.2097Z" fill="#141414"/>
  <path d="M21.5073 21.8981C21.6145 23.0149 21.6911 24.1347 21.6543 25.2637L21.593 25.2576C21.5716 24.4866 21.495 23.7125 21.394 22.9445C21.3174 22.3754 21.2286 21.8093 21.1336 21.2463C20.9162 19.9184 20.6344 18.5997 20.2852 17.3024C20.2025 16.9781 20.1076 16.6568 20.0065 16.3355C19.9024 16.0173 19.8135 15.693 19.6971 15.3809L19.3756 14.4293C19.2561 14.1172 19.1458 13.8021 19.0356 13.487C18.6068 12.3059 18.1229 11.1493 17.5685 10.002C17.6542 10.0968 17.7737 10.1611 17.8809 10.21H17.884C18.5884 11.1432 19.1428 12.1927 19.6053 13.2667C20.1566 14.5211 20.4567 15.8643 20.76 17.1861C20.9621 18.0826 21.1275 18.9852 21.2623 19.894C21.2041 19.8817 21.1459 19.8634 21.0907 19.845L21.0816 19.8756C21.1428 19.897 21.2041 19.9184 21.2684 19.9399C21.3296 20.359 21.3878 20.7813 21.4368 21.2035C21.4613 21.4238 21.4828 21.6441 21.5042 21.8644C21.4736 21.8583 21.4399 21.8491 21.4093 21.8399L21.4001 21.8675C21.4368 21.8797 21.4705 21.8919 21.5073 21.8981Z" fill="black"/>
  <path d="M17.5409 9.78125C17.6113 9.86386 17.6818 9.94953 17.7492 10.0383C17.6512 9.97095 17.5685 9.88834 17.5409 9.78125Z" fill="black"/>
  <path d="M17.8809 10.2099C17.7737 10.161 17.6543 10.0967 17.5685 10.0019C17.5348 9.92844 17.5011 9.85807 17.4644 9.78463L17.5164 9.75098C17.5256 9.76016 17.5348 9.77239 17.5409 9.78157C17.5685 9.88866 17.6512 9.97128 17.7492 10.0386C17.7951 10.0937 17.838 10.1518 17.8809 10.2099Z" fill="black"/>
  <path d="M23.6421 6.70652C22.8794 6.89011 22.1199 7.10734 21.3756 7.3613C20.6283 7.61219 19.8901 7.90287 19.1857 8.26085C18.8396 8.44749 18.4935 8.64025 18.181 8.87585C18.0248 8.99518 17.8748 9.12369 17.7492 9.26749C17.6267 9.4113 17.5103 9.58264 17.5348 9.7601C17.5348 9.76622 17.5379 9.7754 17.5409 9.78152C17.5348 9.77234 17.5256 9.7601 17.5164 9.75092L17.4643 9.78458C17.5011 9.85801 17.5348 9.92839 17.5685 10.0018C17.5103 9.94062 17.4643 9.86719 17.446 9.7754C17.4061 9.54592 17.5379 9.3501 17.6604 9.19406C17.789 9.03495 17.936 8.89421 18.0922 8.7657C18.4016 8.50869 18.7324 8.27921 19.0754 8.06503C19.7553 7.63973 20.4659 7.26033 21.1918 6.91152C22.6436 6.22615 24.1719 5.64787 25.7738 5.3419C27.3604 5.02063 28.9775 4.87988 30.5978 4.87988C31.4064 4.886 32.218 4.92578 33.0327 5.03287C33.4401 5.08794 33.8474 5.15832 34.2579 5.27458C34.4661 5.33272 34.6713 5.40003 34.8827 5.50406C35.0879 5.61421 35.3329 5.72742 35.5075 6.06705C35.5902 6.24451 35.5841 6.47093 35.5289 6.62391C35.4738 6.78302 35.3942 6.89317 35.3176 6.99108C35.3084 7.00331 35.2992 7.01249 35.29 7.02167C35.3666 6.78608 35.4462 6.55354 35.5351 6.32406L35.4799 6.29958C35.3482 6.59637 35.2257 6.89928 35.1124 7.20525C35.0113 7.3001 34.9102 7.3766 34.8092 7.45309C34.46 7.70705 34.0986 7.90593 33.7341 8.08951C32.999 8.45055 32.2456 8.74428 31.486 9.00742C29.9607 9.52451 28.4017 9.91921 26.8213 10.1915C25.2348 10.4363 23.639 10.5679 22.0433 10.5923C21.2439 10.6107 20.4445 10.6015 19.6481 10.5403C19.25 10.5128 18.8518 10.4669 18.4598 10.3843C18.2637 10.3414 18.0708 10.2925 17.884 10.2099H17.8809C17.838 10.1517 17.7951 10.0936 17.7492 10.0385C17.8013 10.0753 17.8594 10.1058 17.9176 10.1334C18.0922 10.2129 18.2852 10.265 18.4751 10.3078C18.8641 10.3904 19.2592 10.4271 19.6543 10.4516C20.4475 10.4853 21.2408 10.4516 22.0341 10.3996C22.8243 10.3353 23.6115 10.2435 24.3986 10.1334C25.1827 10.0263 25.9668 9.89779 26.7386 9.73869C28.2853 9.4266 29.8106 8.99518 31.2838 8.44443C32.0189 8.166 32.7418 7.86003 33.4278 7.49593C33.7647 7.3154 34.0986 7.11652 34.3865 6.89317C34.5305 6.78302 34.6622 6.66369 34.751 6.54436C34.7939 6.48928 34.8275 6.43115 34.8337 6.40055C34.8429 6.36384 34.8367 6.37914 34.8337 6.37302C34.8306 6.3516 34.7081 6.24757 34.558 6.18637C34.411 6.12212 34.2364 6.06705 34.0588 6.02421C33.7004 5.93548 33.3206 5.88346 32.9378 5.84675C32.169 5.77332 31.388 5.7672 30.607 5.78861C29.0449 5.83145 27.4798 5.99361 25.9361 6.23839C25.1643 6.36078 24.4047 6.51988 23.6421 6.70652Z" fill="black"/>
  <path d="M15.6726 21.9379C15.8226 21.843 16.0278 21.8124 16.2331 21.8032C16.6527 21.794 17.0907 21.8797 17.5194 21.9715C17.9513 22.0664 18.3801 22.1796 18.8089 22.2928C19.6665 22.5253 20.5272 22.7517 21.3939 22.9445C21.495 23.7125 21.5716 24.4866 21.593 25.2576L21.6543 25.2637C21.691 24.1347 21.6145 23.0149 21.5073 21.8981C21.9728 22.048 22.4506 22.1429 22.9345 22.2163C23.4522 22.302 23.9728 22.3509 24.4966 22.3907C25.5441 22.4611 26.5977 22.4458 27.6452 22.3846C28.6927 22.3356 29.7402 22.2224 30.7754 22.0419C31.29 21.9379 31.8014 21.8277 32.3129 21.7114C32.7601 21.5921 33.2073 21.4697 33.6483 21.332C33.7463 22.4519 33.8964 23.5687 34.1384 24.6732L34.1996 24.6671C34.1996 24.1623 34.1996 23.6605 34.1935 23.1587C35.0144 23.0118 35.826 22.8221 36.6346 22.611L37.924 22.2683C38.3498 22.1612 38.7847 22.0388 39.1982 22.0052C39.2993 21.999 39.4003 21.999 39.4738 22.0205C39.5504 22.0449 39.5688 22.0755 39.5841 22.1276C39.6117 22.2408 39.5228 22.4519 39.4187 22.6202C39.1982 22.9751 38.898 23.2964 38.5887 23.5962C37.9608 24.202 37.2625 24.7375 36.5335 25.224C33.6085 27.1608 30.2149 28.3908 26.7079 28.5927C24.9652 28.7212 23.1949 28.6355 21.5164 28.2041C19.835 27.7819 18.2576 26.9405 17.0876 25.6676C16.5118 25.0281 15.988 24.3091 15.6266 23.5381C15.4551 23.1556 15.3173 22.7303 15.3877 22.3631C15.4245 22.1857 15.5225 22.0266 15.6726 21.9379Z" fill="#141414"/>
  <path d="M16.1289 55.2213C15.8471 58.896 16.2851 62.5921 17.2162 66.1475C17.452 67.0318 17.7215 67.9313 17.9911 68.8033C18.279 69.6753 18.5852 70.5412 18.9467 71.3827C19.6511 73.0747 20.5516 74.6841 21.6266 76.165C22.181 76.8901 22.7599 77.6 23.4153 78.2364C23.7247 78.5729 24.083 78.8575 24.4169 79.1665L24.9559 79.5918L25.2255 79.7999L25.5072 79.9926L26.0769 80.3782L26.6681 80.7178C27.0601 80.9565 27.4767 81.1462 27.8901 81.3359C28.7294 81.703 29.6023 81.9937 30.4997 82.1987C31.394 82.4098 32.3067 82.5353 33.2256 82.5903C33.6881 82.6209 34.1475 82.624 34.61 82.6148C35.0694 82.6026 35.5258 82.5659 35.9576 82.4404C36.071 82.4129 36.169 82.3731 36.2027 82.3241C36.218 82.3027 36.221 82.2782 36.1996 82.2476C36.2762 82.2629 36.3497 82.2782 36.4263 82.2905C36.4263 82.3456 36.4079 82.4006 36.3772 82.4435C36.27 82.5873 36.1261 82.6117 36.0189 82.6485C35.5595 82.7831 35.0847 82.8259 34.6161 82.8443C34.1506 82.8626 33.682 82.8718 33.2133 82.8535C32.2792 82.8229 31.345 82.7188 30.4262 82.5261C29.5073 82.3425 28.6038 82.0732 27.7278 81.7214C27.2959 81.5378 26.858 81.3573 26.4506 81.1217L25.8288 80.779L25.3082 80.4424L25.2347 80.3965L24.9406 80.2007L24.6558 79.9896L24.0922 79.5643C23.74 79.2522 23.3633 78.9615 23.0355 78.6219C22.3433 77.9794 21.7461 77.2481 21.1642 76.5077C20.0401 74.9992 19.0998 73.3592 18.3617 71.6335C17.9757 70.7768 17.6664 69.8895 17.3754 68.9991C17.1059 68.0965 16.8456 67.2184 16.6036 66.3097C16.1442 64.4983 15.7828 62.6533 15.6327 60.7869C15.4734 58.9205 15.4673 57.0418 15.6511 55.1815C16.04 51.461 17.1549 47.8168 19.0049 44.5889L19.0569 44.6164C18.2238 46.2717 17.5531 48.0066 17.0783 49.7873C16.5883 51.568 16.2789 53.3886 16.1289 55.2213Z" fill="black"/>
  <path d="M15.0477 22.2864C15.1059 22.0324 15.2713 21.7846 15.5102 21.6561C15.746 21.5245 16.0002 21.5031 16.233 21.5061C16.7047 21.5214 17.1426 21.6316 17.5745 21.7478C18.0064 21.8672 18.4321 22.0018 18.8548 22.1364C19.7001 22.4087 20.5424 22.6872 21.3939 22.9442C20.5271 22.7514 19.6664 22.525 18.8088 22.2925C18.38 22.1793 17.9512 22.0661 17.5194 21.9712C17.0906 21.8794 16.6526 21.7937 16.233 21.8029C16.0278 21.8121 15.8226 21.8427 15.6725 21.9375C15.5224 22.0263 15.4244 22.1854 15.3876 22.3628C15.3172 22.73 15.455 23.1553 15.6265 23.5378C15.988 24.3088 16.5117 25.0278 17.0875 25.6673C18.2575 26.9402 19.8349 27.7816 21.5164 28.2038C23.1948 28.6352 24.9651 28.7209 26.7079 28.5924C30.2148 28.3905 33.6084 27.1605 36.5334 25.2237C37.2624 24.7372 37.9607 24.2017 38.5886 23.5959C38.898 23.2961 39.1981 22.9748 39.4186 22.6199C39.5228 22.4516 39.6116 22.2405 39.584 22.1272C39.5687 22.0752 39.5503 22.0446 39.4738 22.0202C39.4003 21.9987 39.2992 21.9987 39.1981 22.0049C38.7846 22.0385 38.3497 22.1609 37.924 22.268L36.6345 22.6107C35.8259 22.8218 35.0143 23.0115 34.1934 23.1584C34.1934 23.1522 34.1934 23.1492 34.1934 23.1461C34.999 22.9381 35.7953 22.7025 36.5886 22.4516L37.8566 22.0416C38.2854 21.91 38.7019 21.7631 39.1705 21.6989C39.29 21.6866 39.4156 21.6775 39.5595 21.7142C39.7004 21.7387 39.8689 21.8733 39.9087 22.0416C39.9485 22.2068 39.9148 22.3445 39.8781 22.4669C39.8382 22.5862 39.7831 22.6963 39.728 22.8004C39.584 23.0513 39.4156 23.2777 39.2318 23.4919C39.1797 23.4796 39.1246 23.4705 39.0725 23.4582L39.0664 23.4888C39.1124 23.498 39.1583 23.5102 39.2042 23.5225C39.1001 23.6449 38.9898 23.7642 38.8765 23.8835C38.2456 24.5352 37.5381 25.0982 36.806 25.6184C36.5763 25.7805 36.3436 25.9366 36.1077 26.0865C35.4308 26.264 34.7723 26.5118 34.1444 26.8055C33.3052 27.2002 32.5028 27.6684 31.7524 28.2069C30.1413 28.7637 28.4476 29.0789 26.7508 29.2043C24.9559 29.3237 23.1274 29.2349 21.3663 28.7607C20.9804 28.6566 20.5975 28.5312 20.2239 28.3843C19.7062 28.0141 19.1794 27.6622 18.6434 27.3226C18.1993 27.0442 17.743 26.7627 17.256 26.5332C17.0722 26.3619 16.8976 26.1783 16.7322 25.9855C16.1442 25.291 15.6204 24.5475 15.259 23.6938C15.0936 23.2685 14.9374 22.8004 15.0477 22.2864Z" fill="black"/>
  <path d="M12.7353 34.5776C14.1319 34.5011 15.3601 35.7403 15.2315 36.031C15.1426 36.2451 14.38 35.8566 12.965 35.9514C11.2743 36.0646 10.4167 36.7531 10.2789 36.5419C10.0982 36.2666 11.213 34.6602 12.7353 34.5776Z" fill="black"/>
  <path d="M13.1641 42.3799C14.0798 40.8347 15.0998 39.3538 16.2391 37.9678C15.4704 39.0234 14.7537 40.1157 14.0952 41.2386C14.0615 41.2845 14.0308 41.3334 13.9972 41.3824C13.8042 41.6578 13.6511 41.9331 13.3754 42.2208C13.3172 42.282 13.2468 42.337 13.1641 42.3799Z" fill="black"/>
  <path d="M10.2237 48.6426C10.2605 48.768 10.2972 48.8935 10.3309 49.0189C10.288 48.9149 10.2452 48.8109 10.1992 48.7099C10.2053 48.6885 10.2145 48.664 10.2237 48.6426Z" fill="black"/>
  <path d="M9.68781 52.3817C9.47954 53.4159 9.33253 54.4715 9.2192 55.524C8.99868 57.623 9.08137 59.7464 9.49792 61.8148C10.2881 65.9484 12.2238 69.8924 15.1427 72.9521C16.5884 74.5125 18.1688 75.9383 19.8013 77.3152C20.6068 78.0128 21.4338 78.6859 22.3404 79.2428C22.7906 79.5212 23.2654 79.7599 23.7554 79.9679C24.2455 80.1791 24.7478 80.3627 25.2623 80.5126C24.221 80.2678 23.198 79.9098 22.2577 79.3805C21.3174 78.8573 20.4506 78.2117 19.6114 77.5477C17.9391 76.2168 16.3035 74.8124 14.8027 73.2794C13.2621 71.7618 12.0125 69.9566 11.0232 68.0382C10.037 66.1136 9.31721 64.0545 8.8976 61.928C8.48718 59.8015 8.42286 57.6077 8.66789 55.4659C8.90985 53.3333 9.31109 51.1945 10.0339 49.1629C10.089 49.013 10.1411 48.86 10.1993 48.7101C10.2452 48.811 10.2881 48.9151 10.331 49.0191C10.2973 48.8937 10.2606 48.7682 10.2238 48.6428C10.9007 46.7978 11.697 45.0017 12.6404 43.2791C12.8088 42.9762 12.9834 42.6763 13.1641 42.3795C13.2468 42.3367 13.3173 42.2816 13.3755 42.2204C13.6511 41.9328 13.8043 41.6575 13.9972 41.3821C14.0309 41.3331 14.0615 41.2842 14.0952 41.2383C12.5975 43.7901 11.3846 46.501 10.4811 49.3098C10.1626 50.3195 9.89609 51.3445 9.68781 52.3817Z" fill="black"/>
  <path d="M8.44425 35.5621C8.58514 34.3229 9.13951 33.1541 9.8991 32.2026C10.3095 31.6947 10.7873 31.2479 11.3264 30.9144C11.8624 30.5809 12.4811 30.4096 13.0998 30.4463C13.7215 30.4891 14.3218 30.7676 14.8333 31.1592C15.3509 31.5539 15.7828 32.0618 16.132 32.6187C16.475 33.1817 16.7353 33.7967 16.8977 34.4331C17.0692 35.0664 17.1213 35.7365 17.0386 36.3729C16.9926 36.6911 16.9038 37.0063 16.769 37.2817C16.6496 37.5173 16.4229 37.7161 16.2085 37.9395C16.1902 37.9579 16.1718 37.9793 16.1534 37.9976C15.6817 38.478 15.2407 38.9859 14.8211 39.5061C14.3953 40.0262 13.988 40.5617 13.6021 41.1093C13.4091 41.3725 13.2223 41.6754 13.0354 41.8682C12.9405 41.963 12.8578 41.9967 12.7292 42.015C12.6036 42.0395 12.4627 42.0242 12.3218 41.9936C11.749 41.8682 11.2131 41.4643 10.7444 41.0359C10.2758 40.5953 9.85928 40.0935 9.50399 39.5458C8.79954 38.4535 8.33705 37.1409 8.42281 35.8099C8.42894 35.7273 8.43506 35.6447 8.44425 35.5621ZM15.2315 36.0302C15.3601 35.7396 14.1319 34.5004 12.7353 34.5769C11.2131 34.6595 10.0982 36.2658 10.2789 36.5412C10.4167 36.7523 11.2743 36.0639 12.965 35.9507C14.38 35.8558 15.1427 36.2444 15.2315 36.0302Z" fill="white"/>
  <path d="M47.6852 40.256C47.9793 39.7878 48.16 39.2524 48.2549 38.7169C48.4693 37.643 48.405 36.5354 48.1079 35.5012L48.0773 35.5104C48.1906 36.0305 48.2304 36.566 48.2212 37.0953C48.2151 37.6246 48.1477 38.1539 48.016 38.6619C47.8935 39.1728 47.6607 39.644 47.4218 40.0999C47.1921 40.5711 46.8552 40.9719 46.5306 41.4033L46.5489 41.4278C46.7633 41.2626 46.9961 41.1096 47.1768 40.9016C47.2718 40.8036 47.3606 40.6996 47.4525 40.5956C47.5352 40.4854 47.6087 40.3692 47.6852 40.256ZM38.0067 66.04C38.4814 65.1466 38.9409 64.2501 39.4401 63.3812C39.9547 62.5214 40.46 61.6371 40.9225 60.7345C41.1522 60.2786 41.3666 59.8288 41.5718 59.3454C41.7709 58.862 41.9087 58.3602 42.0221 57.8553C42.2395 56.8456 42.3314 55.8206 42.3743 54.8079C42.4968 52.7946 42.4049 50.6895 41.6545 48.7742C41.2043 47.5962 40.5396 46.5161 39.7157 45.5768C40.6438 45.5462 41.5718 45.4115 42.4723 45.1668C42.947 45.0321 43.4279 44.8883 43.8628 44.6374C44.2947 44.3835 44.699 44.0683 44.993 43.6645L44.9685 43.643C44.5612 43.9245 44.1538 44.1601 43.7219 44.3651C43.2901 44.5671 42.8552 44.769 42.4019 44.9312C41.9455 45.0903 41.4738 45.2127 40.9991 45.3136C40.5642 45.4085 40.1262 45.488 39.6821 45.537C39.1736 44.9648 38.607 44.4447 37.9975 43.9888L37.9607 44.0377C39.5228 45.3045 40.7295 46.9934 41.3666 48.8782C42.0343 50.763 42.0649 52.7885 41.8812 54.7773C41.7985 55.7747 41.6698 56.763 41.4279 57.7177C41.3145 58.195 41.1583 58.66 40.9838 59.1098C40.8031 59.5596 40.5856 60.0216 40.3773 60.4714C39.9638 61.3862 39.5105 62.2766 39.0787 63.1945C38.6468 64.1155 38.2793 65.0579 37.9516 66.0156L38.0067 66.04ZM8.74132 32.0774C9.20993 30.7128 9.8715 29.4093 10.8179 28.3445C11.7582 27.289 13.0262 26.4812 14.4443 26.3741C15.1426 26.316 15.8593 26.4078 16.5393 26.6311C17.2254 26.8422 17.8594 27.2002 18.5056 27.5551C19.7859 28.2711 21.0386 29.0483 22.1994 29.9539C21.6603 29.4522 21.0784 28.9932 20.4781 28.5648C20.3923 28.5037 20.3096 28.4425 20.2239 28.3843C20.5975 28.5312 20.9804 28.6566 21.3663 28.7607C23.1274 29.2349 24.956 29.3236 26.7508 29.2043C28.4476 29.0789 30.1413 28.7637 31.7524 28.2069C31.1 28.6628 30.4844 29.1737 29.9116 29.7275C30.564 29.1737 31.2593 28.6719 31.9852 28.2222C32.1291 28.1304 32.2761 28.0386 32.4231 27.9529C33.3665 27.5888 34.2823 27.1574 35.1583 26.6587C36.4508 26.2028 37.8168 25.9519 39.1736 26.0865C40.0128 26.1569 40.8337 26.371 41.6025 26.7137C42.3804 27.0411 43.0726 27.546 43.7189 28.0875L44.1936 28.5128L44.6285 28.9779C44.9348 29.2747 45.1737 29.6296 45.4463 29.957C45.7097 30.2936 45.9394 30.6546 46.1875 31.0034L46.8522 32.1019C46.6561 31.7225 46.4601 31.34 46.258 30.9606C46.0282 30.5995 45.8139 30.2232 45.5688 29.8683C45.3054 29.5287 45.0726 29.1615 44.7756 28.8494L44.3468 28.3598L43.8751 27.9131C42.6132 26.7229 40.9439 25.9396 39.2012 25.7836C38.1537 25.6948 37.1123 25.8172 36.1077 26.0865C36.3436 25.9366 36.5763 25.7805 36.8061 25.6184C37.5381 25.0982 38.2456 24.5352 38.8765 23.8835C38.9899 23.7642 39.1001 23.6448 39.2043 23.5225C41.0511 23.9692 42.7449 24.8901 44.2457 26.0314C45.7985 27.1941 47.1707 28.5771 48.4326 30.0457C49.6945 31.5175 50.8369 33.0871 51.8936 34.7148C52.9411 36.3426 53.9365 38.0132 54.8002 39.7419V39.745L54.8033 39.7511C55.036 40.1733 55.2719 40.5895 55.4985 41.0148C55.7099 41.4431 55.9396 41.8654 56.1356 42.3029C56.546 43.1688 56.9105 44.0592 57.2382 44.9587C57.5598 45.8613 57.8416 46.7792 58.0652 47.7124C58.2826 48.6334 58.4572 49.585 58.5062 50.5182C54.3806 50.561 51.1095 49.8451 50.5582 49.7196C50.6194 49.4595 50.6746 49.1964 50.7174 48.9302C50.9104 47.8379 50.9472 46.7242 50.8583 45.6257C50.6562 43.4319 50.013 41.2963 49.0298 39.3472C49.8874 41.3513 50.4632 43.4839 50.5582 45.6471C50.6133 46.7242 50.5521 47.8073 50.3377 48.8598C50.1386 49.9124 49.7649 50.9312 49.3361 51.9195C49.1186 52.4091 48.8797 52.8986 48.6225 53.3637C48.3591 53.8257 48.065 54.2755 47.7496 54.71C47.1186 55.5789 46.3989 56.3928 45.6791 57.2128C44.9563 58.0359 44.2518 58.862 43.5167 59.6636C43.1522 60.0644 42.7725 60.45 42.4019 60.8722C42.0374 61.2914 41.7005 61.7228 41.3605 62.1573C40.0343 63.9135 38.8551 65.7891 37.9516 67.8085C37.728 68.3134 37.5228 68.8274 37.3512 69.3629C37.2655 69.6474 37.2134 69.9044 37.143 70.1768C37.0878 70.4491 37.0296 70.7214 36.9837 70.9937C36.7999 72.0891 36.7387 73.215 36.8979 74.3288C37.0725 75.4333 37.4523 76.5348 38.1445 77.4313C38.3191 77.6516 38.4906 77.875 38.6958 78.0677C38.7969 78.1656 38.8918 78.2727 38.999 78.3614L39.3237 78.6276C39.532 78.8143 39.7801 78.9489 40.0098 79.105C40.2426 79.261 40.4998 79.3895 40.7602 79.4905C41.287 79.6955 41.8475 79.8026 42.4049 79.8209C42.9562 79.8332 43.5137 79.8056 44.0558 79.6924C44.4907 79.6006 44.9134 79.4629 45.3177 79.2824C44.4111 79.775 43.3973 80.0688 42.3743 80.1544C41.2717 80.2401 40.1476 80.081 39.1307 79.6618C38.1108 79.2426 37.2471 78.5175 36.5855 77.6485C35.2655 75.8708 34.7325 73.6465 34.2976 71.4863C34.0955 70.4001 34.0189 69.2956 34.0311 68.191C34.0403 67.0865 34.1598 65.9788 34.2853 64.8712C34.3497 64.3327 34.463 63.782 34.5549 63.2251L34.8336 61.5668L35.3543 58.2439C35.437 57.6871 35.5227 57.1333 35.5901 56.5733C35.6544 56.0165 35.7065 55.4321 35.6851 54.8691C35.6697 53.7339 35.5534 52.6049 35.3328 51.4973C35.1215 50.3866 34.7723 49.2974 34.3007 48.2724C33.8351 47.2443 33.2562 46.2713 32.5763 45.3748L32.5273 45.4115C33.78 47.2657 34.659 49.3616 35.0174 51.5554C35.2073 52.6477 35.293 53.7615 35.2808 54.8691C35.2869 55.4259 35.2256 55.9583 35.146 56.5152L34.8918 58.1705L34.3344 61.4841L34.0434 63.1364C33.9454 63.6871 33.829 64.2318 33.7494 64.8039C33.4461 67.0314 33.3634 69.3384 33.8014 71.5781C33.9025 72.1411 34.0526 72.6857 34.1965 73.2303C34.3466 73.775 34.512 74.3165 34.705 74.852C35.0909 75.9167 35.6085 76.9509 36.3129 77.8566C36.6805 78.2972 37.0787 78.7164 37.5411 79.0591C37.6483 79.1539 37.7739 79.2243 37.8934 79.3038C38.0159 79.3773 38.1292 79.466 38.2609 79.5302C38.5182 79.6557 38.7663 79.7964 39.0358 79.8974C40.1017 80.3105 41.2594 80.4696 42.3927 80.3655C43.5259 80.2615 44.6255 79.8944 45.6117 79.3344C45.8598 79.1937 46.0987 79.0407 46.3284 78.8694C46.5581 78.698 46.7664 78.493 46.9502 78.2727C46.9594 78.2605 46.9716 78.2482 46.9808 78.236C47.333 77.8076 47.6148 77.3334 47.8966 76.8683C48.0375 76.6297 48.1906 76.4002 48.3805 76.2258C48.4693 76.137 48.598 76.0759 48.6653 76.0759C48.6868 76.0789 48.6929 76.0789 48.7082 76.1248C48.7205 76.1738 48.7235 76.235 48.7205 76.2992C48.6623 76.8194 48.4509 77.3517 48.1998 77.8321C47.6852 78.802 46.8858 79.6006 45.967 80.1973C45.0451 80.797 44.0068 81.207 42.9409 81.4885C41.872 81.7669 40.7694 81.9229 39.6637 81.978C37.4676 82.1004 35.2318 81.6598 33.3114 80.6134C32.3496 80.0902 31.4706 79.4262 30.6712 78.6705C30.2761 78.2911 29.8749 77.8933 29.5135 77.4803C29.3297 77.2753 29.1398 77.0794 28.9621 76.8683L28.4537 76.2166C28.368 76.1095 28.2822 76.0024 28.2026 75.8923L27.9728 75.5465L27.5134 74.8612C27.2408 74.3838 26.9407 73.9218 26.7079 73.42C26.1964 72.444 25.7952 71.4098 25.4552 70.3603C24.7661 68.2553 24.4353 66.0492 24.2301 63.834C24.1229 62.7172 24.0555 61.6188 24.0677 60.505C24.0677 60.4071 24.0708 60.3062 24.0708 60.2083C24.08 59.9788 24.0861 59.7462 24.0922 59.5137C24.1259 58.7335 24.1872 57.9533 24.2638 57.173C24.4873 54.9517 24.7936 52.7303 25.0907 50.509C25.3909 48.2907 25.7309 46.0786 26.1566 43.8756L26.0953 43.8633C25.593 46.048 25.1428 48.2479 24.7844 50.4631C24.7661 50.5886 24.7446 50.7109 24.7262 50.8364C24.4567 52.0909 24.2362 53.3576 24.0647 54.6304C23.9636 55.3984 23.8809 56.1664 23.8135 56.9374C23.8043 56.9986 23.7951 57.0629 23.789 57.1241C23.6604 58.2409 23.5624 59.3668 23.5317 60.4959C23.5103 61.2608 23.5256 62.0349 23.5685 62.7998C23.5869 63.7973 23.6512 64.7947 23.7768 65.7891C23.887 66.7193 24.0647 67.6403 24.2852 68.549C24.4598 69.268 24.6589 69.9779 24.8916 70.6785C26.2454 74.9652 29.0724 78.8541 33.0388 81.1213C34.0311 81.6537 35.1001 82.0239 36.1996 82.2473C36.2211 82.2779 36.218 82.3023 36.2027 82.3238C36.169 82.3727 36.071 82.4125 35.9577 82.44C35.5258 82.5655 35.0694 82.6022 34.61 82.6144C34.1475 82.6236 33.6881 82.6205 33.2256 82.5899C32.3068 82.5349 31.394 82.4094 30.4997 82.1983C29.6023 81.9933 28.7294 81.7026 27.8902 81.3355C27.4767 81.1458 27.0601 80.9561 26.6681 80.7174L26.077 80.3778L25.5073 79.9923L25.2255 79.7995L24.956 79.5914L24.4169 79.1661C24.083 78.8571 23.7247 78.5726 23.4154 78.236C22.7599 77.5996 22.181 76.8897 21.6267 76.1646C20.5516 74.6837 19.6511 73.0743 18.9467 71.3823C18.5853 70.5409 18.279 69.675 17.9911 68.8029C17.7215 67.9309 17.452 67.0314 17.2162 66.1471C16.2851 62.5918 15.8471 58.8956 16.1289 55.2209C16.2789 53.3882 16.5883 51.5677 17.0783 49.7869C17.5531 48.0062 18.2238 46.2713 19.0569 44.616L19.0049 44.5885C17.1549 47.8165 16.04 51.4606 15.6511 55.1812C15.4673 57.0415 15.4734 58.9201 15.6327 60.7865C15.7828 62.653 16.1442 64.4979 16.6036 66.3093C16.8456 67.218 17.1059 68.0962 17.3754 68.9988C17.6664 69.8891 17.9758 70.7764 18.3617 71.6332C19.0998 73.3588 20.0401 74.9988 21.1642 76.5073C21.7461 77.2477 22.3434 77.979 23.0356 78.6215C23.3633 78.9611 23.74 79.2518 24.0922 79.5639L24.6558 79.9892L24.9406 80.2003L25.2347 80.3961L25.3082 80.442L25.2622 80.5124C24.7477 80.3625 24.2454 80.1789 23.7553 79.9678C23.2653 79.7597 22.7905 79.5211 22.3403 79.2426C21.4337 78.6858 20.6067 78.0126 19.8012 77.315C18.1687 75.9382 16.5883 74.5123 15.1426 72.9519C12.2238 69.8922 10.288 65.9482 9.49784 61.8146C9.08129 59.7462 8.99859 57.6228 9.21912 55.5239C9.33244 54.4713 9.47946 53.4157 9.68773 52.3815C9.896 51.3443 10.1625 50.3193 10.481 49.3096C11.3845 46.5008 12.5974 43.7899 14.0951 41.2381C14.4321 40.7363 14.7874 40.2498 15.158 39.7756C15.5653 39.2524 15.9788 38.7383 16.4198 38.2457L16.7537 37.8724C16.867 37.7439 16.9803 37.5848 17.0508 37.4166C17.1886 37.0861 17.2591 36.7465 17.2866 36.4038C17.3479 35.7154 17.2315 35.0392 17.0538 34.3905C16.8731 33.7419 16.5944 33.1269 16.2606 32.5425C15.9175 31.9672 15.5102 31.4165 14.9956 30.9636C14.4841 30.5139 13.8501 30.1559 13.1395 30.0672C12.4259 29.9937 11.6939 30.1865 11.1119 30.572C10.5208 30.9484 10.0461 31.4685 9.66629 32.0315C9.05373 32.9525 8.65556 33.9897 8.46872 35.0606L8.00317 34.9749C8.18082 33.9897 8.41972 33.0198 8.74132 32.0774ZM43.4463 40.3447C44.4295 39.0474 44.8613 37.4074 44.7939 35.8255C44.7174 34.2436 44.1844 32.6954 43.2166 31.4532C42.7357 30.8321 42.1415 30.2844 41.4463 29.8866C40.751 29.4889 39.9455 29.2533 39.1277 29.2349C38.3099 29.2257 37.486 29.4399 36.7754 29.8407C36.0587 30.2354 35.4584 30.8137 35.0051 31.4685C34.0832 32.7903 33.7218 34.3813 33.7187 35.9295C33.7432 37.4747 34.1383 39.0596 35.0786 40.3692C35.5442 41.0178 36.1506 41.59 36.8734 41.9816C37.5901 42.3794 38.4202 42.5905 39.2502 42.5936C40.0802 42.5844 40.9072 42.3641 41.627 41.9602C42.3467 41.5563 42.9624 40.9933 43.4463 40.3447Z" fill="url(#paint14_linear_139_9493)"/>
  <path d="M16.132 32.6189C15.7828 32.0621 15.3509 31.5542 14.8333 31.1595C14.3218 30.7678 13.7215 30.4894 13.0998 30.4466C12.4811 30.4098 11.8624 30.5812 11.3264 30.9147C10.7873 31.2482 10.3095 31.6949 9.89909 32.2028C9.13951 33.1544 8.58514 34.3232 8.44425 35.5624L8.40137 35.5593C8.41668 35.3941 8.44118 35.2258 8.46875 35.0606C8.65558 33.9897 9.05375 32.9524 9.66632 32.0315C10.0461 31.4685 10.5208 30.9483 11.112 30.572C11.6939 30.1865 12.4259 29.9937 13.1396 30.0671C13.8501 30.1559 14.4842 30.5139 14.9956 30.9636C15.5102 31.4165 15.9176 31.9672 16.2606 32.5424C16.5944 33.1268 16.8732 33.7418 17.0539 34.3905C17.2315 35.0392 17.3479 35.7154 17.2866 36.4038C17.2591 36.7465 17.1886 37.0861 17.0508 37.4165C16.9804 37.5848 16.867 37.7439 16.7537 37.8724L16.4199 38.2457C15.9788 38.7383 15.5653 39.2524 15.158 39.7756C14.7874 40.2498 14.4321 40.7363 14.0952 41.2381C14.7537 40.1152 15.4704 39.0229 16.2392 37.9673L16.2085 37.9398C16.4229 37.7164 16.6496 37.5175 16.769 37.2819C16.9038 37.0065 16.9926 36.6914 17.0386 36.3732C17.1213 35.7368 17.0692 35.0667 16.8977 34.4333C16.7353 33.7969 16.475 33.1819 16.132 32.6189Z" fill="black"/>
  <path d="M16.2392 37.9676C15.0998 39.3536 14.0799 40.8345 13.1641 42.3796C13.0508 42.4439 12.9191 42.4898 12.8027 42.502C12.5975 42.5357 12.3984 42.5173 12.2177 42.4714C11.8471 42.3858 11.5286 42.2144 11.2346 42.0217C10.9436 41.8258 10.6771 41.5994 10.4352 41.3546C9.95123 40.8651 9.55612 40.299 9.24371 39.6963C8.61583 38.4938 8.29423 37.1414 8.37693 35.8074C8.38305 35.7248 8.39224 35.6422 8.40143 35.5596L8.44431 35.5626C8.43512 35.6452 8.429 35.7279 8.42287 35.8105C8.33711 37.1414 8.7996 38.454 9.50405 39.5464C9.85934 40.094 10.2759 40.5958 10.7445 41.0364C11.2131 41.4648 11.7491 41.8687 12.3219 41.9941C12.4627 42.0247 12.6036 42.04 12.7292 42.0155C12.8579 41.9972 12.9406 41.9635 13.0355 41.8687C13.2223 41.6759 13.4092 41.373 13.6021 41.1099C13.988 40.5622 14.3954 40.0267 14.8211 39.5066C15.2407 38.9864 15.6818 38.4785 16.1535 37.9982C16.1718 37.9798 16.1902 37.9584 16.2086 37.94L16.2392 37.9676Z" fill="black"/>
  <path d="M7.79497 36.3148C7.85317 35.865 7.92055 35.4183 8.00324 34.9746L8.4688 35.0603C8.44123 35.2255 8.41673 35.3938 8.40141 35.559C8.39222 35.6416 8.38304 35.7242 8.37691 35.8068C8.29421 37.1409 8.61581 38.4933 9.24369 39.6957C9.5561 40.2985 9.95121 40.8645 10.4351 41.3541C10.6771 41.5989 10.9436 41.8253 11.2345 42.0211C11.5286 42.2139 11.8471 42.3852 12.2177 42.4709C12.3984 42.5168 12.5975 42.5351 12.8027 42.5015C12.9191 42.4892 13.0508 42.4433 13.1641 42.3791C12.9834 42.6759 12.8088 42.9757 12.6404 43.2786C11.697 45.0012 10.9007 46.7973 10.2238 48.6423C9.84095 47.3511 9.35702 46.0936 8.90372 44.836C8.65563 44.1445 8.40754 43.453 8.20539 42.7615C8.00631 42.067 7.85623 41.3571 7.76128 40.6412C7.5622 39.2062 7.61427 37.762 7.79497 36.3148Z" fill="url(#paint15_linear_139_9493)"/>
  <path d="M14.4444 26.3745C13.0263 26.4816 11.7582 27.2894 10.818 28.345C9.87154 29.4097 9.20997 30.7132 8.74135 32.0778C8.41976 33.0202 8.18086 33.9901 8.00321 34.9753C7.92051 35.419 7.85313 35.8657 7.79494 36.3155C7.61423 37.7627 7.56216 39.2069 7.76125 40.6419C7.8562 41.3579 8.00627 42.0677 8.20536 42.7623C8.40751 43.4538 8.65559 44.1453 8.90368 44.8368C9.35698 46.0943 9.84091 47.3518 10.2238 48.643C10.2146 48.6644 10.2054 48.6889 10.1993 48.7103C9.66327 47.4589 9.06908 46.2381 8.52389 44.9867C8.23599 44.3044 7.94808 43.6251 7.72143 42.9091C7.49478 42.1932 7.32939 41.4619 7.21606 40.7184C7.1058 39.978 7.04761 39.2283 7.04761 38.4787C7.05067 37.723 7.11805 36.9825 7.20075 36.2451C7.37227 34.7642 7.67855 33.2956 8.17473 31.8789C8.66478 30.4684 9.3723 29.0946 10.4137 27.9748C10.9282 27.4179 11.5255 26.9222 12.2054 26.5612C12.8823 26.1971 13.6419 25.9676 14.4107 25.9309C15.1794 25.885 15.9513 26.0165 16.6588 26.2827C16.864 26.3562 17.0631 26.4418 17.256 26.5336C18.1075 27.3445 19.1335 27.9595 20.2239 28.3847C20.3097 28.4429 20.3924 28.5041 20.4781 28.5653C21.0784 28.9936 21.6604 29.4526 22.1994 29.9544C21.0386 29.0487 19.7859 28.2715 18.5057 27.5556C17.8594 27.2006 17.2254 26.8427 16.5393 26.6315C15.8594 26.4082 15.1427 26.3164 14.4444 26.3745Z" fill="black"/>
  <path d="M71.2782 54.9301C72.044 54.5813 72.7515 54.1346 73.3395 53.5471C74.2859 52.6047 74.6872 51.4176 74.7883 50.1111C74.8556 49.2452 74.6474 48.1774 75.0394 47.3696C75.0976 47.2472 75.1742 47.1371 75.263 47.0391C75.5509 46.724 75.9368 46.5282 76.3656 46.415C77.3549 46.1518 78.5831 46.3232 79.4499 46.4486C81.4499 46.7393 83.0089 47.0759 84.9783 46.21C86.4086 45.5797 87.8512 44.6465 89.0243 43.6092C91.1223 41.755 91.3888 39.6133 89.4837 37.5296C92.8743 37.5021 95.0152 34.8983 96.1944 31.9089C97.7442 25.2327 89.0549 25.9945 89.0243 25.9976C87.9002 26.0986 86.8528 25.9395 85.8757 25.3245C84.8435 24.6727 84.087 23.6233 83.6215 22.5095C82.8251 20.6217 82.2983 19.817 80.1452 19.8292C77.8419 19.8445 75.6122 20.5574 73.5356 21.5029C71.4161 22.4667 69.6121 23.0113 67.2476 23.0725" stroke="black" stroke-miterlimit="10"/>
  <path d="M48.212 54.9732C49.6332 56.4174 51.673 57.4118 53.6547 57.6597C54.7665 57.7973 56.788 58.0666 57.5812 57.0141C57.7711 56.7601 57.86 56.445 58.0376 56.1788C58.3378 55.7259 58.8738 55.4689 59.4128 55.3802C62.0254 54.9579 64.5798 56.4817 67.2139 56.0441C68.5401 55.8238 69.9827 55.5179 71.266 54.9365" stroke="black" stroke-miterlimit="10"/>
  <path d="M77.1926 34.9414C80.0411 35.1342 79.4836 37.2943 78.1145 39.5004C76.6168 41.9236 74.1451 44.4051 74.1451 44.4051C73.3028 45.3811 72.3717 46.2072 71.3824 46.9048C69.7591 48.0583 67.9735 48.8661 66.1542 49.4199C65.3456 49.6677 64.5278 49.8666 63.7162 50.0227C63.707 50.0227 63.7008 50.0257 63.6917 50.0257C63.6181 50.041 63.5477 50.0533 63.4742 50.0655C62.442 50.2521 61.419 50.3745 60.4267 50.4418C60.3409 50.448 60.2582 50.4541 60.1755 50.4602C60.1725 50.4602 60.1694 50.4602 60.1694 50.4602C59.6947 50.4877 59.2291 50.5061 58.7727 50.5153C58.7666 50.5153 58.7636 50.5153 58.7574 50.5153C58.6747 50.5153 58.589 50.5183 58.5063 50.5183C54.3806 50.5612 51.1095 49.8452 50.5582 49.7198" stroke="black" stroke-miterlimit="10"/>
  <path d="M36.2057 19.0401C37.2287 18.5537 38.6192 17.9876 40.3283 17.5225C40.3466 17.5195 40.365 17.5134 40.3834 17.5072C41.6483 17.1676 43.0879 16.88 44.6806 16.7178C46.065 16.5801 47.5657 16.5343 49.1737 16.6291C50.1324 16.6811 51.1278 16.7882 52.1569 16.9534C53.1156 17.1064 54.108 17.3114 55.1248 17.5776C56.062 17.8193 57.0268 18.1161 58.01 18.468C58.0223 18.471 58.0376 18.4772 58.0498 18.4833C59.6731 19.0616 61.3546 19.7959 63.0912 20.7138C63.1096 20.723 63.1311 20.7352 63.1525 20.7475C64.4358 21.4267 65.7498 22.2069 67.0882 23.0973C67.0913 23.1004 67.0944 23.1004 67.0974 23.1034C67.0974 23.1034 67.2046 23.1799 67.4007 23.3237C67.4742 23.3788 67.563 23.4461 67.6641 23.5226C68.3532 24.0489 69.5967 25.0433 70.9903 26.3804C71.318 26.6955 71.6519 27.029 71.9888 27.3778C72.001 27.387 72.0102 27.3992 72.0194 27.4084C73.9919 29.4492 76.0593 32.0714 77.1864 34.9445C77.7592 36.3978 78.0899 37.9185 78.044 39.4575" stroke="black" stroke-miterlimit="10"/>
  <path d="M76.3656 46.415C75.8816 47.7613 75.6305 48.6333 74.7882 50.1112" stroke="black" stroke-miterlimit="10"/>
  <path d="M71.3885 54.8535C71.3517 54.878 71.315 54.9025 71.2782 54.93C71.2752 54.9331 71.269 54.9361 71.266 54.9361C69.0301 56.469 65.2843 58.5986 60.2214 59.6695C53.3392 61.1228 47.673 59.8439 44.8735 59.0025" stroke="black" stroke-miterlimit="10"/>
  <path d="M36.0434 36.8257C35.8535 36.5687 37.3666 34.0475 39.4585 34.1485C41.5381 34.2464 42.6469 36.2015 42.4356 36.4432C42.2579 36.6421 41.3023 35.8038 39.3911 35.712C37.4646 35.6232 36.1996 37.0399 36.0434 36.8257Z" stroke="black" stroke-miterlimit="10"/>
  <path d="M10.2789 36.5419C10.0982 36.2666 11.213 34.6602 12.7353 34.5776C14.1319 34.5011 15.3601 35.7403 15.2315 36.031C15.1426 36.2451 14.38 35.8566 12.965 35.9514C11.2743 36.0646 10.4167 36.7531 10.2789 36.5419Z" stroke="black" stroke-miterlimit="10"/>
  <path d="M12.3402 42.0465C13.5378 43.7018 14.3402 44.0231 16.0861 43.2551C17.2407 42.7441 18.325 42.019 19.3602 41.2663C20.7324 40.2719 22.1627 39.4886 23.8197 40.1617C24.8488 40.5809 25.6482 40.5258 26.6467 40.0455C27.976 39.406 29.3481 39.6875 30.6529 40.4524C31.9301 41.199 33.2257 41.9792 34.6009 42.4534C36.4233 43.0837 37.1247 42.6952 38.1783 41.0521C37.8659 45.7212 31.0694 50.3658 25.443 46.0058C22.9407 48.2822 20.1045 48.7656 17.0172 47.5509C14.622 46.6085 12.8976 44.5585 12.3402 42.0465Z" fill="black"/>
  <path d="M36.2357 19.1441C36.3418 19.0998 36.4052 19.0096 36.3771 18.9425C36.3491 18.8755 36.2404 18.857 36.1342 18.9013C36.0281 18.9456 35.9647 19.0358 35.9928 19.1029C36.0208 19.1699 36.1296 19.1884 36.2357 19.1441Z" fill="black"/>
  <path d="M36.0755 19.2086C36.1817 19.1643 36.245 19.074 36.217 19.007C36.189 18.9399 36.0802 18.9215 35.9741 18.9657C35.8679 19.01 35.8046 19.1003 35.8326 19.1673C35.8606 19.2344 35.9694 19.2528 36.0755 19.2086Z" fill="black"/>
  <path opacity="0.47" d="M39.2319 41.444C42.0027 41.444 44.2488 38.9865 44.2488 35.9549C44.2488 32.9234 42.0027 30.4658 39.2319 30.4658C36.4611 30.4658 34.215 32.9234 34.215 35.9549C34.215 38.9865 36.4611 41.444 39.2319 41.444Z" fill="#69CAE0"/>
  <path d="M45.5995 35.9271C45.572 35.7129 45.5414 35.4895 45.4035 35.3213C45.2749 35.1652 45.0727 35.0887 44.9318 34.9419C44.7389 34.7399 44.693 34.4401 44.6378 34.1647C44.2856 32.4268 43.0451 30.8939 41.4188 30.1871C40.016 29.5782 38.359 29.5966 36.9593 30.2116C36.6775 30.334 36.3375 30.4594 36.0925 30.6399C35.7985 30.8572 35.5412 31.1601 35.3084 31.4385C34.8245 32.0076 34.4233 32.644 34.1231 33.3263C33.7709 34.128 33.5657 34.9969 33.5381 35.872C33.4738 37.9404 34.4631 40.0454 36.1813 41.2051C37.8996 42.3647 40.307 42.4718 42.0497 41.3519C42.6225 40.9848 43.1064 40.5105 43.5199 39.9751C44.1478 39.1612 44.6194 38.2004 45.0115 37.2428C45.0115 36.7991 45.0115 37.0378 45.0115 37.2428C45.085 37.3101 45.1922 37.4294 45.2749 37.6007C45.3852 37.8302 45.3882 38.1148 45.3882 38.1209C45.3943 38.4391 45.4648 40.6115 45.5536 43.5947C45.7006 46.0424 45.7466 48.0282 45.7619 49.3561C45.7864 51.3816 45.8078 53.4102 45.8446 55.4357C45.8629 56.4485 45.8813 57.4612 45.9058 58.474C45.9181 58.9942 45.9303 59.5112 45.9456 60.0314C45.9518 60.2609 45.912 60.5546 45.9671 60.7749C46.0375 61.0503 46.0467 61.0197 46.3469 61.1176C46.3714 61.1268 46.3989 61.1329 46.4204 61.1206C46.4388 61.1084 46.448 61.0839 46.451 61.0595C46.497 60.8422 46.5184 60.6342 46.5184 60.4108C46.549 55.5153 46.5429 50.6259 46.3714 45.7334C46.3653 42.4718 46.0008 39.1581 45.5995 35.9271ZM39.1952 41.4437C36.4539 41.4101 34.1966 38.895 34.2181 35.8965C34.2395 32.8796 36.506 30.4441 39.2748 30.4655C42.0375 30.4839 44.2611 32.9531 44.2488 35.9822C44.2335 38.9776 41.9211 41.4774 39.1952 41.4437ZM45.4648 37.9098C45.4648 37.919 45.4648 37.919 45.4648 37.9098V37.9098Z" fill="black"/>
  <path d="M43.1983 37.2705C43.7864 32.5922 39.4065 30.1903 36.4294 32.4269C37.1339 31.2153 39.6301 30.7196 41.3024 31.7599C43.1799 32.9257 43.9334 35.5631 43.1983 37.2705Z" fill="white"/>
  <defs>
    <linearGradient id="paint0_linear_139_9493" x1="48.2108" y1="38.8114" x2="96.3782" y2="38.8114" gradientUnits="userSpaceOnUse">
      <stop stop-color="#FFF23A"/>
      <stop offset="0.0401" stop-color="#FEE62D"/>
      <stop offset="0.1171" stop-color="#FED41A"/>
      <stop offset="0.1964" stop-color="#FDC90F"/>
      <stop offset="0.2809" stop-color="#FDC60B"/>
      <stop offset="0.6685" stop-color="#F28F3F"/>
      <stop offset="0.8876" stop-color="#ED693C"/>
      <stop offset="1" stop-color="#E83E39"/>
    </linearGradient>
    <linearGradient id="paint1_linear_139_9493" x1="74.7871" y1="48.2625" x2="76.3644" y2="48.2625" gradientUnits="userSpaceOnUse">
      <stop stop-color="#E1306C"/>
      <stop offset="1" stop-color="#405DE6"/>
    </linearGradient>
    <linearGradient id="paint2_linear_139_9493" x1="55.1236" y1="32.2401" x2="74.1438" y2="32.2401" gradientUnits="userSpaceOnUse">
      <stop stop-color="#E1306C"/>
      <stop offset="1" stop-color="#405DE6"/>
    </linearGradient>
    <linearGradient id="paint3_linear_139_9493" x1="58.0487" y1="30.7751" x2="73.7396" y2="30.7751" gradientUnits="userSpaceOnUse">
      <stop stop-color="#FFF23A"/>
      <stop offset="0.0401" stop-color="#FEE62D"/>
      <stop offset="0.1171" stop-color="#FED41A"/>
      <stop offset="0.1964" stop-color="#FDC90F"/>
      <stop offset="0.2809" stop-color="#FDC60B"/>
      <stop offset="0.6685" stop-color="#F28F3F"/>
      <stop offset="0.8876" stop-color="#ED693C"/>
      <stop offset="1" stop-color="#E83E39"/>
    </linearGradient>
    <linearGradient id="paint4_linear_139_9493" x1="63.1513" y1="32.5753" x2="78.1133" y2="32.5753" gradientUnits="userSpaceOnUse">
      <stop stop-color="#E1306C"/>
      <stop offset="1" stop-color="#405DE6"/>
    </linearGradient>
    <linearGradient id="paint5_linear_139_9493" x1="63.5158" y1="41.4686" x2="71.3812" y2="41.4686" gradientUnits="userSpaceOnUse">
      <stop stop-color="#E1306C"/>
      <stop offset="1" stop-color="#405DE6"/>
    </linearGradient>
    <linearGradient id="paint6_linear_139_9493" x1="44.8723" y1="57.6326" x2="71.2647" y2="57.6326" gradientUnits="userSpaceOnUse">
      <stop stop-color="#E1306C"/>
      <stop offset="1" stop-color="#405DE6"/>
    </linearGradient>
    <linearGradient id="paint7_linear_139_9493" x1="67.8651" y1="31.7469" x2="75.2112" y2="31.7469" gradientUnits="userSpaceOnUse">
      <stop stop-color="#FFF23A"/>
      <stop offset="0.0401" stop-color="#FEE62D"/>
      <stop offset="0.1171" stop-color="#FED41A"/>
      <stop offset="0.1964" stop-color="#FDC90F"/>
      <stop offset="0.2809" stop-color="#FDC60B"/>
      <stop offset="0.6685" stop-color="#F28F3F"/>
      <stop offset="0.8876" stop-color="#ED693C"/>
      <stop offset="1" stop-color="#E83E39"/>
    </linearGradient>
    <linearGradient id="paint8_linear_139_9493" x1="40.3823" y1="33.5347" x2="63.5197" y2="33.5347" gradientUnits="userSpaceOnUse">
      <stop stop-color="#E1306C"/>
      <stop offset="1" stop-color="#405DE6"/>
    </linearGradient>
    <linearGradient id="paint9_linear_139_9493" x1="52.1557" y1="33.4183" x2="70.7808" y2="33.4183" gradientUnits="userSpaceOnUse">
      <stop stop-color="#FFF23A"/>
      <stop offset="0.0401" stop-color="#FEE62D"/>
      <stop offset="0.1171" stop-color="#FED41A"/>
      <stop offset="0.1964" stop-color="#FDC90F"/>
      <stop offset="0.2809" stop-color="#FDC60B"/>
      <stop offset="0.6685" stop-color="#F28F3F"/>
      <stop offset="0.8876" stop-color="#ED693C"/>
      <stop offset="1" stop-color="#E83E39"/>
    </linearGradient>
    <linearGradient id="paint10_linear_139_9493" x1="44.6794" y1="30.7959" x2="61.8803" y2="30.7959" gradientUnits="userSpaceOnUse">
      <stop stop-color="#FFF23A"/>
      <stop offset="0.0401" stop-color="#FEE62D"/>
      <stop offset="0.1171" stop-color="#FED41A"/>
      <stop offset="0.1964" stop-color="#FDC90F"/>
      <stop offset="0.2809" stop-color="#FDC60B"/>
      <stop offset="0.6685" stop-color="#F28F3F"/>
      <stop offset="0.8876" stop-color="#ED693C"/>
      <stop offset="1" stop-color="#E83E39"/>
    </linearGradient>
    <linearGradient id="paint11_linear_139_9493" x1="36.2046" y1="33.957" x2="60.159" y2="33.957" gradientUnits="userSpaceOnUse">
      <stop stop-color="#FFF23A"/>
      <stop offset="0.0401" stop-color="#FEE62D"/>
      <stop offset="0.1171" stop-color="#FED41A"/>
      <stop offset="0.1964" stop-color="#FDC90F"/>
      <stop offset="0.2809" stop-color="#FDC60B"/>
      <stop offset="0.6685" stop-color="#F28F3F"/>
      <stop offset="0.8876" stop-color="#ED693C"/>
      <stop offset="1" stop-color="#E83E39"/>
    </linearGradient>
    <linearGradient id="paint12_linear_139_9493" x1="34.1616" y1="21.7365" x2="39.69" y2="21.7365" gradientUnits="userSpaceOnUse">
      <stop stop-color="#E83E39"/>
      <stop offset="0.1124" stop-color="#ED693C"/>
      <stop offset="0.3315" stop-color="#F28F3F"/>
      <stop offset="0.7191" stop-color="#FDC60B"/>
      <stop offset="0.7266" stop-color="#FDC40D"/>
      <stop offset="0.7278" stop-color="#FCC20F"/>
      <stop offset="0.8697" stop-color="#FCC411"/>
      <stop offset="0.9208" stop-color="#FDCB17"/>
      <stop offset="0.9572" stop-color="#FDD621"/>
      <stop offset="0.9864" stop-color="#FEE730"/>
      <stop offset="1" stop-color="#FFF23A"/>
    </linearGradient>
    <linearGradient id="paint13_linear_139_9493" x1="34.6793" y1="21.6583" x2="46.5386" y2="21.6583" gradientUnits="userSpaceOnUse">
      <stop stop-color="#E1306C"/>
      <stop offset="1" stop-color="#405DE6"/>
    </linearGradient>
    <linearGradient id="paint14_linear_139_9493" x1="25.2263" y1="47.908" x2="68.9419" y2="73.1731" gradientUnits="userSpaceOnUse">
      <stop stop-color="#E1306C"/>
      <stop offset="0.3727" stop-color="#405DE6"/>
    </linearGradient>
    <linearGradient id="paint15_linear_139_9493" x1="7.63267" y1="41.8078" x2="13.1629" y2="41.8078" gradientUnits="userSpaceOnUse">
      <stop stop-color="#E1306C"/>
      <stop offset="0.0588" stop-color="#D53375"/>
      <stop offset="0.6065" stop-color="#6A51C6"/>
      <stop offset="0.8503" stop-color="#405DE6"/>
    </linearGradient>
  </defs>
</svg>