
<svg width="101" height="88" viewBox="0 0 101 88" fill="none" xmlns="http://www.w3.org/2000/svg">
<path d="M48.6347 73.341C47.8261 73.9835 46.7051 74.5893 45.6393 74.5893C43.8567 74.5893 43.0297 73.7449 43.0297 72.0376V67.0808L42.3866 67.2644V66.1997L46.3927 65.0247V71.0646C46.3927 71.8173 46.5214 72.4965 47.4035 72.4965C48.0099 72.4965 48.4693 72.2028 48.6715 71.9641V67.1543L47.9915 67.3011V66.218L52.0345 65.0247V73.2125H52.6409V74.314H48.892L48.6347 73.341Z" fill="white"/>
<path d="M54.5705 66.732H53.67V65.7223C55.1034 65.3185 56.3898 64.3271 56.9595 62.9319L58.0621 63.1338C57.9519 63.5928 57.9335 64.0885 57.9335 64.5658V65.3001H59.5691L59.2934 66.732H57.9335V72.0376C57.9335 72.6067 58.4113 72.7719 58.687 72.7719C58.9994 72.7719 59.3118 72.6434 59.5691 72.4782L60.0469 73.2676C59.128 73.9468 58.0805 74.5893 56.886 74.5893C55.2137 74.5893 54.5705 73.7632 54.5705 72.1661V66.732Z" fill="white"/>
<path d="M61.37 66.732H60.4695V65.7223C61.9029 65.3185 63.1893 64.3271 63.759 62.9319L64.8616 63.1338C64.7514 63.5928 64.733 64.0885 64.733 64.5658V65.3001H66.3685L66.0929 66.732H64.733V72.0376C64.733 72.6067 65.2108 72.7719 65.4864 72.7719C65.7989 72.7719 66.1113 72.6434 66.3685 72.4782L66.8463 73.2676C65.9275 73.9468 64.88 74.5893 63.6855 74.5893C62.0132 74.5893 61.37 73.7632 61.37 72.1661V66.732Z" fill="white"/>
<path d="M67.6733 74.314V73.2125H68.3349V63.8865L67.7101 64.0885V63.0237L72.3411 61.4816V62.6198L71.6979 62.8401V73.2125H72.3411V74.314H67.6733Z" fill="white"/>
<path d="M82.5587 72.2028C81.4928 73.6164 80.0226 74.5893 77.9828 74.5893C75.2079 74.5893 73.4988 72.6434 73.4988 69.7244C73.4988 67.1726 75.4284 65.0247 78.0196 65.0247C80.5004 65.0247 81.8787 66.6586 82.5219 68.8983L77.3029 70.8076C77.7255 71.854 78.479 72.4231 79.6184 72.4231C80.4821 72.4231 81.309 72.1294 81.8603 71.4501L82.5587 72.2028ZM79.1222 68.5495C78.8649 67.7601 78.4422 66.4199 77.4499 66.4199C76.7332 66.4199 76.4391 66.9891 76.4391 67.7601C76.4391 68.4761 76.6413 68.9534 76.7515 69.4491L79.1222 68.5495Z" fill="white"/>
<path d="M71.2783 54.9308C71.2752 54.9338 71.2691 54.9369 71.266 54.9369C69.9827 55.5182 68.5401 55.8242 67.2139 56.0445C64.5798 56.482 62.0254 54.9583 59.4128 55.3806C58.8738 55.4693 58.3378 55.7263 58.0376 56.1791C57.86 56.4453 57.7712 56.7605 57.5813 57.0144C56.788 58.067 54.7665 57.7977 53.6547 57.66C51.6731 57.4122 49.6332 56.4178 48.2121 54.9736C48.5214 54.5361 48.8124 54.0863 49.0697 53.609C49.33 53.1133 49.5567 52.6146 49.768 52.1036C50.0804 51.3295 50.3622 50.537 50.5582 49.7201C51.1095 49.8456 54.3806 50.5615 58.5062 50.5187C58.5062 50.5248 58.5062 50.5279 58.5062 50.534L58.5124 50.6717L58.6471 50.6656L60.3041 50.586L60.4358 50.5799L60.4266 50.4514C60.4266 50.4483 60.4266 50.4453 60.4266 50.4422C61.419 50.3749 62.442 50.2525 63.4742 50.0659L63.468 50.1944L63.6273 50.1546L66.05 49.5641L66.1235 49.5457L66.1419 49.4723C66.145 49.4539 66.1511 49.4386 66.1541 49.4203C67.9735 48.8665 69.7591 48.0587 71.3824 46.9052C72.3717 46.2076 73.3028 45.3815 74.1451 44.4054C74.1451 44.4054 76.6168 41.924 78.1145 39.5007C79.4836 37.2947 80.041 35.1345 77.1926 34.9418L77.1865 34.9448C76.0593 32.0718 73.9919 29.4496 72.0195 27.4088C72.0103 27.3996 72.0011 27.3874 71.9888 27.3782C71.6519 27.0294 71.3181 26.6959 70.9904 26.3807C70.5983 25.9952 70.2001 25.6127 69.7989 25.2333C69.4252 24.8784 69.0455 24.5296 68.6595 24.19C68.2706 23.8473 67.8785 23.5138 67.4467 23.2109L67.2476 23.0732C69.6121 23.012 71.4161 22.4674 73.5356 21.5036C75.6122 20.5581 77.8419 19.8452 80.1452 19.8299C82.2983 19.8177 82.8251 20.6224 83.6215 22.5102C84.087 23.6239 84.8436 24.6734 85.8757 25.3251C86.8528 25.9401 87.9003 26.0992 89.0243 25.9983C89.0549 25.9952 97.7442 25.2333 96.1944 31.9096C95.0152 34.8989 92.8743 37.5027 89.4837 37.5303C91.3888 39.6139 91.1224 41.7557 89.0243 43.6099C87.8513 44.6471 86.4087 45.5803 84.9783 46.2106C83.0089 47.0765 81.4499 46.74 79.4499 46.4493C78.5831 46.3238 77.3549 46.1525 76.3656 46.4156C75.9368 46.5288 75.5509 46.7247 75.263 47.0398C75.1742 47.1377 75.0976 47.2479 75.0394 47.3703C74.6474 48.178 74.8556 49.2459 74.7883 50.1117C74.6872 51.4182 74.286 52.6054 73.3395 53.5478C72.7515 54.1353 72.044 54.582 71.2783 54.9308Z" fill="url(#paint0_linear_137_9020)"/>
<path d="M74.7883 50.1118C74.8557 49.2459 74.6474 48.178 75.0394 47.3703C75.0976 47.2479 75.1742 47.1377 75.263 47.0398C75.5509 46.7247 75.9368 46.5288 76.3656 46.4156C75.8817 47.7619 75.6306 48.6339 74.7883 50.1118Z" fill="url(#paint1_linear_137_9020)"/>
<path d="M74.1451 44.4054C73.3028 45.3815 72.3717 46.2076 71.3824 46.9052L71.0485 46.4248C71.0577 46.3973 71.0608 46.3667 71.0577 46.3575L71.0547 46.3238L71.0485 46.2565L71.0026 45.7088L70.9107 44.6135C70.6106 41.7068 69.9827 38.8123 68.8311 36.1136C68.2767 34.7551 67.5814 33.4578 66.7636 32.2431C65.9397 31.0284 65.0117 29.8871 63.8601 28.9539C63.0086 28.1309 62.2705 27.1793 61.5231 26.2492C60.7819 25.3098 60.0622 24.3521 59.3455 23.3945C57.9151 21.473 56.5093 19.5331 55.1249 17.578C56.0621 17.8197 57.0269 18.1165 58.0101 18.4683L58.0009 18.4806L59.37 19.836L60.053 20.5153C60.2766 20.7448 60.4818 20.9926 60.6992 21.2282L61.9948 22.654C62.4114 23.1436 62.8065 23.6484 63.2108 24.1471L63.8172 24.8937C64.0163 25.1477 64.197 25.4108 64.3869 25.6678L65.5201 27.2252C66.2215 28.2992 66.9444 29.3578 67.5967 30.4654C68.9352 32.65 70.1328 34.9234 71.1956 37.258C72.2584 39.5925 73.2017 41.9882 73.9184 44.4452L74.1451 44.4054Z" fill="url(#paint2_linear_137_9020)"/>
<path d="M73.7408 43.0683C73.8847 43.5059 74.0164 43.9465 74.142 44.3871L73.9154 44.4268L73.7408 43.0683Z" fill="black"/>
<path d="M73.7408 43.0683C73.1006 41.0489 72.3227 39.0754 71.459 37.1386C70.4176 34.7827 69.1955 32.5062 67.8571 30.3063C67.2108 29.1895 66.4512 28.1462 65.7345 27.0753L64.5737 25.5271C64.3808 25.2731 64.1909 25.01 63.9887 24.7591L63.37 24.0186C61.7774 22.0084 59.9397 20.2093 58.0499 18.4836C59.6732 19.0619 61.3547 19.7963 63.0913 20.7142L63.0821 20.7264C64.7391 22.2073 66.1419 23.9544 67.3915 25.7841C68.635 27.623 69.7223 29.5659 70.6167 31.5975C70.8525 32.0993 71.0332 32.6256 71.2476 33.1365L71.557 33.9076C71.6519 34.1677 71.7346 34.4339 71.8234 34.697L72.3441 36.2758L72.7699 37.8821L72.9812 38.6868C73.0547 38.9561 73.0945 39.2315 73.1497 39.5007L73.4682 41.1346L73.5478 41.5415L73.5999 41.9546L73.704 42.7776L73.7408 43.0683Z" fill="url(#paint3_linear_137_9020)"/>
<path d="M72.0195 27.4088C73.9919 29.4496 76.0593 32.0718 77.1865 34.9448C77.7592 36.3982 78.09 37.9189 78.0441 39.4579L78.1145 39.5007C76.6168 41.924 74.1451 44.4054 74.1451 44.4054L74.142 44.3871L73.9245 42.7471L73.8143 41.9209L73.7561 41.5079L73.6765 41.0979L73.3457 39.4579C73.2875 39.1886 73.2446 38.9102 73.1711 38.644L72.9536 37.8362L72.5156 36.2238L71.9796 34.6419C71.8908 34.3788 71.8081 34.1126 71.7071 33.8525L71.3947 33.0784C71.1772 32.5674 70.9873 32.0412 70.7484 31.5394C69.8357 29.5077 68.7269 27.5679 67.465 25.7351C66.2062 23.9268 64.8065 22.2104 63.1526 20.7478C64.4359 21.4271 65.7498 22.2073 67.0883 23.0977L67.2721 23.3822C68.096 24.6551 68.8801 25.9554 69.6458 27.268C70.4145 28.5745 71.1466 29.9024 71.8449 31.2487C72.5585 32.5858 73.2109 33.9565 73.799 35.3518C74.1053 36.0463 74.3564 36.7592 74.6045 37.4752L74.9261 38.5644L75.1589 39.6629L75.165 39.6935C75.2201 39.5344 75.2109 39.4212 75.2293 39.2804C75.2416 39.1488 75.2446 39.0142 75.2538 38.8827C75.2599 38.6134 75.263 38.3472 75.2508 38.081C75.2385 37.5456 75.1834 37.0132 75.116 36.4838C74.9751 35.4221 74.7362 34.3788 74.4422 33.3507L74.2125 32.5827L73.9521 31.8239C73.7867 31.313 73.5723 30.8234 73.3824 30.3247C73.1772 29.829 72.9506 29.3456 72.7362 28.856L72.0225 27.418L72.0195 27.4088Z" fill="url(#paint4_linear_137_9020)"/>
<path d="M71.3824 46.9052C69.7591 48.0587 67.9735 48.8665 66.1541 49.4203C66.488 48.0342 66.5033 46.6053 66.4053 45.204C66.2981 43.7812 66.0623 42.3738 65.7652 40.9847C65.4619 39.5925 65.0913 38.2187 64.6717 36.8602C64.3226 35.7342 63.9428 34.6205 63.517 33.519C64.3409 34.4002 65.0668 35.3732 65.7437 36.3768C66.5492 37.5853 67.2782 38.849 67.952 40.1371C68.6259 41.4283 69.2476 42.7471 69.8204 44.0841C70.1083 44.7542 70.387 45.4274 70.6443 46.1097L70.7423 46.3636L70.7698 46.434C70.7851 46.4768 70.8403 46.5197 70.8893 46.5227C70.9383 46.5258 70.9812 46.5105 71.0149 46.4768C71.0302 46.4646 71.0424 46.4462 71.0486 46.4248L71.3824 46.9052Z" fill="url(#paint5_linear_137_9020)"/>
<path d="M67.2139 56.0445C68.5401 55.8242 69.9827 55.5182 71.266 54.9369C69.0301 56.4698 65.2843 58.5994 60.2214 59.6703C53.3392 61.1236 47.673 59.8447 44.8736 59.0032C45.2871 58.529 45.6913 58.0486 46.0987 57.5774C46.8093 56.7513 47.5352 55.9221 48.1784 55.0195C48.1906 55.0042 48.1998 54.9889 48.2121 54.9736C49.6332 56.4178 51.6731 57.4122 53.6547 57.66C54.7665 57.7977 56.788 58.067 57.5813 57.0144C57.7712 56.7605 57.86 56.4453 58.0376 56.1791C58.3378 55.7263 58.8738 55.4693 59.4128 55.3806C62.0254 54.9583 64.5798 56.482 67.2139 56.0445Z" fill="url(#paint6_linear_137_9020)"/>
<path d="M70.828 46.3697L70.825 46.3361L70.8188 46.2688L70.7821 45.819C70.8127 45.8863 70.8372 45.9567 70.8648 46.027L70.9597 46.2841L70.9812 46.3391C70.975 46.3177 70.9414 46.2902 70.9138 46.2902C70.8893 46.2902 70.8678 46.2963 70.8495 46.3147C70.8311 46.3269 70.825 46.3759 70.828 46.3697Z" fill="black"/>
<path d="M68.5064 24.3644C68.8923 24.7009 69.2752 25.0436 69.6519 25.3924C70.4023 26.087 71.1404 26.7968 71.8633 27.5189L72.58 28.9295C72.7974 29.4159 73.0302 29.8963 73.2385 30.3859C73.4314 30.8815 73.655 31.365 73.8235 31.8698L74.093 32.6194L74.3319 33.3844C74.6382 34.4033 74.8893 35.4405 75.0456 36.493C75.1956 37.5394 75.2661 38.6318 75.165 39.6629L75.0088 38.5461L74.7331 37.4354C74.5126 36.7072 74.2798 35.9821 73.995 35.2722C73.4467 33.8494 72.8036 32.4695 72.1144 31.111C70.828 28.6082 69.4007 26.188 67.8663 23.832C68.0837 24.0033 68.2951 24.1839 68.5064 24.3644Z" fill="url(#paint7_linear_137_9020)"/>
<path d="M67.6641 23.523C68.3533 24.0492 69.5968 25.0436 70.9904 26.3807C71.3273 26.7112 71.658 27.0416 71.9888 27.3782C72.0011 27.3874 72.0103 27.3996 72.0195 27.4088L72.0225 27.418L72.7362 28.856C72.9506 29.3456 73.1772 29.829 73.3824 30.3247C73.5723 30.8234 73.7867 31.313 73.9521 31.8239L74.2125 32.5827L74.4422 33.3507C74.7362 34.3788 74.9751 35.4221 75.116 36.4838C75.1834 37.0132 75.2385 37.5456 75.2508 38.081C75.263 38.3472 75.2599 38.6134 75.2538 38.8827C75.2446 39.0142 75.2416 39.1488 75.2293 39.2804C75.2109 39.4212 75.2201 39.5344 75.165 39.6935L75.1589 39.6629H75.165C75.2661 38.6318 75.1956 37.5394 75.0455 36.493C74.8893 35.4405 74.6382 34.4033 74.3319 33.3844L74.093 32.6194L73.8235 31.8698C73.655 31.365 73.4314 30.8815 73.2385 30.3859C73.0302 29.8963 72.7974 29.4159 72.58 28.9295L71.8633 27.5189C71.1404 26.7968 70.4023 26.087 69.6519 25.3924C69.2752 25.0436 68.8923 24.7009 68.5064 24.3644C68.2951 24.1839 68.0837 24.0033 67.8663 23.832C67.7989 23.728 67.7315 23.627 67.6641 23.523Z" fill="black"/>
<path d="M67.6641 23.523C67.7315 23.627 67.7989 23.728 67.8663 23.832C67.6825 23.6882 67.4987 23.5474 67.3088 23.4189L67.4007 23.3241C67.4742 23.3792 67.563 23.4465 67.6641 23.523Z" fill="black"/>
<path d="M67.4803 23.2445C67.5416 23.3363 67.6029 23.4312 67.6641 23.523C67.563 23.4465 67.4742 23.3792 67.4007 23.3241L67.4803 23.2445Z" fill="black"/>
<path d="M67.8663 23.832C69.4007 26.188 70.828 28.6082 72.1144 31.111C72.8036 32.4695 73.4467 33.8494 73.995 35.2722C74.2798 35.9821 74.5126 36.7072 74.7331 37.4354L75.0088 38.5461L75.165 39.6629H75.1589L74.9261 38.5644L74.6045 37.4752C74.3564 36.7592 74.1053 36.0463 73.799 35.3518C73.2109 33.9565 72.5585 32.5858 71.8449 31.2487C71.1466 29.9024 70.4145 28.5745 69.6458 27.268C68.8801 25.9554 68.096 24.6551 67.2721 23.3822L67.0883 23.0977C67.0914 23.1007 67.0944 23.1007 67.0975 23.1038C67.0975 23.1038 67.2047 23.1803 67.4007 23.3241L67.3088 23.4189C67.4987 23.5474 67.6825 23.6882 67.8663 23.832Z" fill="black"/>
<path d="M67.0975 23.1038C67.0944 23.1007 67.0914 23.1007 67.0883 23.0977L66.926 22.8468L67.2476 23.0732L67.4467 23.2109C67.8785 23.5138 68.2706 23.8473 68.6595 24.19C69.0455 24.5296 69.4252 24.8784 69.7989 25.2333C70.2001 25.6127 70.5983 25.9952 70.9904 26.3807C69.5968 25.0436 68.3533 24.0492 67.6641 23.523C67.6029 23.4312 67.5416 23.3363 67.4803 23.2445L67.4007 23.3241C67.2047 23.1803 67.0975 23.1038 67.0975 23.1038Z" fill="black"/>
<path d="M65.9887 49.3193L65.8969 49.4111C65.903 49.3866 65.9091 49.3621 65.9122 49.3376L65.9887 49.3193Z" fill="black"/>
<path d="M67.3915 25.7841C66.1419 23.9544 64.7391 22.2073 63.0821 20.7264L63.0913 20.7142C63.1097 20.7233 63.1311 20.7356 63.1526 20.7478C64.8065 22.2104 66.2062 23.9268 67.465 25.7351C68.7269 27.5679 69.8357 29.5077 70.7484 31.5394C70.9873 32.0412 71.1772 32.5674 71.3947 33.0784L71.7071 33.8525C71.8081 34.1126 71.8908 34.3788 71.9796 34.6419L72.5156 36.2238L72.9536 37.8362L73.1711 38.644C73.2446 38.9102 73.2875 39.1886 73.3457 39.4579L73.6765 41.0979L73.7561 41.5079L73.8143 41.9209L73.9246 42.7471L74.142 44.3871C74.0164 43.9465 73.8847 43.5059 73.7408 43.0683L73.704 42.7776L73.5999 41.9546L73.5478 41.5415L73.4682 41.1346L73.1497 39.5007C73.0945 39.2315 73.0547 38.9561 72.9812 38.6868L72.7699 37.8821L72.3441 36.2758L71.8234 34.697C71.7346 34.4339 71.6519 34.1677 71.557 33.9076L71.2476 33.1365C71.0332 32.6256 70.8525 32.0993 70.6167 31.5975C69.7223 29.5659 68.635 27.623 67.3915 25.7841Z" fill="black"/>
<path d="M63.7223 49.8853C63.7223 49.9312 63.7192 49.9771 63.7161 50.023C63.7069 50.023 63.7008 50.0261 63.6916 50.0261L63.5691 49.9221L63.7223 49.8853Z" fill="black"/>
<path d="M63.7161 50.023C63.7161 50.0322 63.7161 50.0383 63.7161 50.0475L63.6916 50.0261C63.7008 50.0261 63.7069 50.023 63.7161 50.023Z" fill="black"/>
<path d="M66.05 49.5641L63.6273 50.1546L63.468 50.1944L63.4742 50.0659C63.5477 50.0536 63.6181 50.0414 63.6916 50.0261L63.7161 50.0475C63.7161 50.0383 63.7161 50.0322 63.7161 50.023C64.5278 49.867 65.3456 49.6681 66.1541 49.4203C66.1511 49.4386 66.145 49.4539 66.1419 49.4723L66.1235 49.5457L66.05 49.5641Z" fill="black"/>
<path d="M65.9887 49.3193L65.9122 49.3376C66.2277 48.0006 66.2368 46.6023 66.1358 45.2254C66.0286 43.8179 65.7897 42.4227 65.4864 41.0459C65.1771 39.6659 64.8065 38.3013 64.3838 36.952C63.9642 35.621 63.514 34.2962 63.0025 33.005L63.0147 32.9989C63.1863 33.1671 63.3547 33.3415 63.517 33.519C63.9428 34.6205 64.3226 35.7342 64.6717 36.8602C65.0913 38.2187 65.4619 39.5925 65.7652 40.9847C66.0623 42.3738 66.2981 43.7812 66.4053 45.204C66.5033 46.6053 66.488 48.0342 66.1541 49.4203C65.3456 49.6681 64.5278 49.867 63.7161 50.023C63.7192 49.9771 63.7223 49.9312 63.7223 49.8853L65.9122 49.3376C65.9091 49.3621 65.903 49.3866 65.8969 49.4111L65.9887 49.3193Z" fill="black"/>
<path d="M63.0515 41.0948C63.4252 44.0566 63.612 47.0551 63.4772 50.0291L63.4742 50.0659C62.442 50.2525 61.419 50.3749 60.4266 50.4422C60.3072 48.8634 60.1142 47.2907 59.7804 45.7425C59.4496 44.1943 59.0545 42.6583 58.5552 41.156C58.0621 39.6506 57.5078 38.1667 56.8891 36.7103C56.2643 35.26 55.5935 33.8311 54.8339 32.442L53.7252 29.9789C53.2964 29.1865 52.8921 28.3787 52.4388 27.6015L51.719 26.4572L51.3607 25.8851L50.9594 25.3404L50.16 24.2512L49.2841 23.2231C48.0865 21.8768 46.7572 20.6407 45.2564 19.6402C44.4999 19.1476 43.725 18.6825 42.898 18.3245C42.0925 17.9635 41.2564 17.6606 40.3835 17.5076C41.6484 17.168 43.0879 16.8804 44.6806 16.7182V16.7213C46.0038 17.4311 47.2013 18.3521 48.2917 19.3771C49.379 20.4051 50.3775 21.528 51.2718 22.7274C52.1754 23.9207 53.0115 25.163 53.7834 26.445C54.5491 27.7301 55.2627 29.0488 55.9335 30.3859C57.2566 33.0723 58.4358 35.8291 59.4649 38.6409C60.494 41.4497 61.4129 44.3075 62.1694 47.1989L62.4665 47.1469L62.4634 47.1255L61.8907 42.8909C61.8509 42.5359 61.7865 42.1841 61.7192 41.8322L61.5231 40.7766L61.1311 38.6654C61.0698 38.3105 60.9871 37.9647 60.9014 37.6159L60.6502 36.5726L60.1479 34.4828L59.5231 32.4267L59.2107 31.4017C59.1127 31.0559 58.9687 30.7255 58.8493 30.3889L58.0958 28.3756C57.814 27.7178 57.5139 27.0692 57.2229 26.4144C56.9503 25.7504 56.5797 25.1324 56.252 24.4959C56.0774 24.1839 55.9243 23.8595 55.7344 23.5536L55.1616 22.6448C54.9625 22.348 54.791 22.0329 54.5736 21.7483L53.9304 20.8855L53.6088 20.4541L53.2565 20.0471C53.0207 19.7779 52.791 19.5056 52.549 19.2394L51.7833 18.4867C51.5291 18.2327 51.2412 18.0186 50.9717 17.783C50.4112 17.3454 49.8292 16.9171 49.1738 16.6295C50.1325 16.6815 51.1279 16.7886 52.157 16.9538C54.0621 19.2639 55.8079 21.7055 57.3393 24.2756C58.1081 25.5577 58.8309 26.8672 59.4986 28.2043C59.8355 28.8713 60.154 29.5475 60.4573 30.2298C60.6073 30.5725 60.7636 30.9152 60.8861 31.2609L61.2107 32.3318C61.6457 33.7607 61.9917 35.2171 62.3133 36.6736C62.6013 38.1422 62.8708 39.6109 63.0515 41.0948Z" fill="url(#paint8_linear_137_9020)"/>
<path d="M63.2536 32.8367C63.3455 33.0631 63.4343 33.2895 63.517 33.519C63.3547 33.3415 63.1863 33.1671 63.0147 32.9989L63.2536 32.8367Z" fill="black"/>
<path d="M63.1526 20.7478C63.1311 20.7356 63.1097 20.7233 63.0913 20.7142L63.1005 20.7019C63.1189 20.7172 63.1342 20.7325 63.1526 20.7478Z" fill="black"/>
<path d="M62.981 32.9499L62.7207 32.2951L63.2199 32.7877C63.2353 32.803 63.2475 32.8153 63.2598 32.8306L63.2536 32.8367L63.0147 32.9989L63.0025 33.005C62.9964 32.9866 62.9872 32.9683 62.981 32.9499Z" fill="black"/>
<path d="M62.4634 47.1255L62.1663 47.1775L61.8815 45.0143C62.0836 45.715 62.2797 46.4187 62.4634 47.1255Z" fill="black"/>
<path d="M60.2919 50.329L60.1755 50.4606C60.1724 50.4606 60.1694 50.4606 60.1694 50.4606C60.1663 50.4177 60.1632 50.3779 60.1602 50.3351L60.2919 50.329Z" fill="black"/>
<path d="M60.1755 50.4606L60.1694 50.4667C60.1694 50.4636 60.1694 50.4636 60.1694 50.4606C60.1694 50.4606 60.1724 50.4606 60.1755 50.4606Z" fill="black"/>
<path d="M60.1602 50.3351C60.1632 50.3779 60.1663 50.4177 60.1694 50.4606C59.6946 50.4881 59.2291 50.5065 58.7727 50.5156C58.7697 50.4759 58.7666 50.433 58.7635 50.3932L60.1602 50.3351Z" fill="black"/>
<path d="M59.37 19.836L58.0009 18.4806L58.0101 18.4683C58.0223 18.4714 58.0376 18.4775 58.0499 18.4836C59.9397 20.2093 61.7774 22.0084 63.37 24.0186L63.9887 24.7591C64.1909 25.01 64.3808 25.2731 64.5737 25.5271L65.7345 27.0753C66.4512 28.1462 67.2108 29.1895 67.8571 30.3063C69.1955 32.5062 70.4176 34.7827 71.459 37.1386C72.3227 39.0754 73.1006 41.0489 73.7408 43.0683L73.9154 44.4268L74.142 44.3871L74.1451 44.4054L73.9184 44.4452C73.2017 41.9882 72.2584 39.5925 71.1956 37.258C70.1328 34.9234 68.9352 32.65 67.5967 30.4654C66.9444 29.3578 66.2215 28.2992 65.5201 27.2252L64.3869 25.6678C64.197 25.4108 64.0163 25.1477 63.8172 24.8937L63.2108 24.1471C62.8065 23.6484 62.4114 23.1436 61.9948 22.654L60.6992 21.2282C60.4818 20.9926 60.2766 20.7448 60.053 20.5153L59.37 19.836Z" fill="black"/>
<path d="M59.2781 23.4404C57.8692 21.5036 56.4878 19.5484 55.1249 17.578C56.5093 19.5331 57.9151 21.473 59.3455 23.3945C60.0622 24.3521 60.7819 25.3098 61.5231 26.2492C62.2705 27.1793 63.0086 28.1309 63.8601 28.9539C65.0117 29.8871 65.9397 31.0284 66.7636 32.2431C67.5814 33.4578 68.2767 34.7551 68.8311 36.1136C69.9827 38.8123 70.6106 41.7068 70.9107 44.6135L71.0026 45.7088L71.0485 46.2565L71.0547 46.3238L71.0577 46.3575C71.0608 46.3667 71.0577 46.3973 71.0485 46.4248C71.0424 46.4462 71.0302 46.4646 71.0149 46.4768C70.9812 46.5105 70.9383 46.5258 70.8893 46.5227C70.8403 46.5197 70.7851 46.4768 70.7698 46.434L70.7423 46.3636L70.6443 46.1097C70.387 45.4273 70.1083 44.7542 69.8204 44.0841C69.2476 42.7471 68.6258 41.4283 67.952 40.1371C67.2782 38.849 66.5492 37.5853 65.7437 36.3768C65.0668 35.3732 64.3409 34.4002 63.517 33.519C63.4343 33.2895 63.3455 33.0631 63.2536 32.8367L63.2598 32.8306C64.295 33.8586 65.174 35.0213 65.9734 36.2238C66.782 37.4477 67.511 38.7205 68.1817 40.0178C68.8556 41.3182 69.4712 42.6461 70.0439 43.9893C70.3012 44.5982 70.5493 45.204 70.7821 45.819L70.8188 46.2688L70.825 46.3361L70.828 46.3697C70.825 46.3759 70.8311 46.3269 70.8495 46.3147C70.8678 46.2963 70.8893 46.2902 70.9138 46.2902C70.9413 46.2902 70.975 46.3177 70.9812 46.3391L70.9597 46.2841L70.8648 46.027C70.8372 45.9567 70.8127 45.8863 70.7821 45.819L70.776 45.7241L70.6871 44.6379C70.3992 41.7465 69.7867 38.8674 68.6534 36.1871C68.1113 34.8377 67.4252 33.5465 66.6197 32.338C65.8111 31.1355 64.8831 29.9881 63.7651 29.0763L63.759 29.0733C63.3149 28.6541 62.9229 28.1982 62.5431 27.7331C62.1602 27.2711 61.7927 26.7968 61.4282 26.3226C60.6962 25.3741 59.9856 24.4103 59.2781 23.4404Z" fill="black"/>
<path d="M59.2781 23.4404C59.9856 24.4103 60.6962 25.3741 61.4282 26.3226C61.7927 26.7968 62.1602 27.2711 62.5431 27.7331C62.9229 28.1982 63.3149 28.6541 63.759 29.0733L63.7651 29.0763C64.8831 29.9881 65.8111 31.1355 66.6197 32.338C67.4252 33.5465 68.1113 34.8377 68.6534 36.1871C69.7867 38.8674 70.3992 41.7465 70.6871 44.6379L70.776 45.7241L70.7821 45.819C70.5493 45.204 70.3012 44.5982 70.0439 43.9893C69.4712 42.6461 68.8556 41.3182 68.1817 40.0178C67.511 38.7205 66.782 37.4477 65.9734 36.2238C65.174 35.0213 64.295 33.8586 63.2598 32.8306C63.2475 32.8153 63.2353 32.803 63.2199 32.7877L62.7207 32.2951L62.981 32.9499C62.9872 32.9683 62.9964 32.9866 63.0025 33.005C63.514 34.2962 63.9642 35.621 64.3838 36.952C64.8065 38.3013 65.1771 39.6659 65.4864 41.0459C65.7897 42.4227 66.0286 43.8179 66.1358 45.2254C66.2368 46.6023 66.2277 48.0006 65.9122 49.3376L63.7223 49.8853C63.8386 46.9327 63.6365 43.9893 63.2567 41.0673C63.0699 39.5803 62.7912 38.1055 62.4971 36.6368C62.1694 35.1743 61.8172 33.7148 61.3731 32.2829L61.0423 31.2059C60.9136 30.8479 60.7605 30.5083 60.6074 30.1656C60.298 29.4802 59.9764 28.804 59.6364 28.137C58.9534 26.803 58.2122 25.4965 57.4281 24.2206C55.863 21.6657 54.0896 19.2424 52.157 16.9538C53.1157 17.1068 54.108 17.3118 55.1249 17.578C56.4878 19.5484 57.8692 21.5036 59.2781 23.4404Z" fill="url(#paint9_linear_137_9020)"/>
<path d="M58.7727 50.5156C58.7727 50.5218 58.7727 50.5248 58.7727 50.5309L58.7574 50.5156C58.7635 50.5156 58.7666 50.5156 58.7727 50.5156Z" fill="black"/>
<path d="M58.7635 50.3932C58.7666 50.433 58.7696 50.4759 58.7727 50.5156C58.7666 50.5156 58.7635 50.5156 58.7574 50.5156L58.6349 50.3994L58.7635 50.3932Z" fill="black"/>
<path d="M58.5062 50.5187C58.5889 50.5187 58.6747 50.5156 58.7574 50.5156L58.7727 50.5309C58.7727 50.5248 58.7727 50.5218 58.7727 50.5156C59.2291 50.5065 59.6946 50.4881 60.1694 50.4606C60.1694 50.4636 60.1694 50.4636 60.1694 50.4667L60.1755 50.4606C60.2582 50.4544 60.3409 50.4483 60.4266 50.4422C60.4266 50.4453 60.4266 50.4483 60.4266 50.4514L60.4358 50.5799L60.3041 50.586L58.6471 50.6656L58.5124 50.6717L58.5062 50.534C58.5062 50.5279 58.5062 50.5248 58.5062 50.5187Z" fill="black"/>
<path d="M58.0499 18.4836C58.0376 18.4775 58.0223 18.4714 58.0101 18.4683L58.0193 18.4561C58.0284 18.4653 58.0407 18.4745 58.0499 18.4836Z" fill="black"/>
<path d="M57.4281 24.2206C58.2122 25.4965 58.9534 26.803 59.6364 28.137C59.9764 28.804 60.298 29.4802 60.6074 30.1656C60.7605 30.5083 60.9136 30.8479 61.0423 31.2059L61.3731 32.2829C61.8172 33.7148 62.1694 35.1743 62.4971 36.6368C62.7912 38.1055 63.0699 39.5803 63.2567 41.0673C63.6365 43.9893 63.8386 46.9327 63.7223 49.8853L63.5691 49.922L63.6916 50.0261C63.6181 50.0414 63.5477 50.0536 63.4742 50.0659L63.4772 50.0291C63.612 47.0551 63.4252 44.0566 63.0515 41.0948C62.8708 39.6109 62.6013 38.1422 62.3133 36.6736C61.9917 35.2171 61.6457 33.7607 61.2107 32.3318L60.8861 31.2609C60.7636 30.9152 60.6073 30.5725 60.4573 30.2298C60.154 29.5475 59.8355 28.8713 59.4986 28.2043C58.8309 26.8672 58.1081 25.5577 57.3393 24.2757C55.8079 21.7055 54.0621 19.2639 52.157 16.9538C54.0896 19.2424 55.863 21.6657 57.4281 24.2206Z" fill="black"/>
<path d="M54.4664 21.8187C54.6808 22.1063 54.8462 22.4245 55.0391 22.7244L55.5966 23.6362C55.7834 23.9391 55.9335 24.2634 56.1019 24.5786C56.4235 25.215 56.7849 25.83 57.0514 26.4939C57.3332 27.1487 57.6272 27.7974 57.9029 28.4552L58.6318 30.4654C58.7451 30.802 58.8891 31.1324 58.981 31.4751L59.2842 32.5032L59.8937 34.5532L60.3868 36.6338L60.6349 37.6741C60.7207 38.0198 60.8034 38.3686 60.8585 38.7205L61.2444 40.8256L61.4343 41.8781C61.5017 42.23 61.566 42.5788 61.6058 42.9337L61.8815 45.0143C61.2414 42.8297 60.5155 40.6756 59.7283 38.543C58.6808 35.7281 57.5078 32.9591 56.1479 30.2788C55.4618 28.9417 54.7328 27.626 53.9518 26.344C53.1647 25.0651 52.3132 23.8228 51.3943 22.6326C50.4755 21.4454 49.4525 20.3348 48.3438 19.322C47.232 18.3123 46.016 17.4097 44.6806 16.7213V16.7182C46.065 16.5805 47.5658 16.5346 49.1738 16.6295C49.8262 16.9263 50.3959 17.3638 50.9502 17.8136C51.2136 18.0522 51.4985 18.2695 51.7466 18.5265L52.497 19.2914C52.7328 19.5576 52.9564 19.836 53.1892 20.1053L53.5322 20.5153L53.8446 20.9498L54.4664 21.8187Z" fill="url(#paint10_linear_137_9020)"/>
<path d="M51.7833 18.4867L52.549 19.2394C52.791 19.5056 53.0207 19.7779 53.2566 20.0471L53.6088 20.4541L53.9304 20.8855L54.5736 21.7483C54.791 22.0329 54.9626 22.348 55.1616 22.6448L55.7344 23.5536C55.9243 23.8595 56.0774 24.1839 56.252 24.4959C56.5797 25.1324 56.9503 25.7504 57.2229 26.4144C57.5139 27.0692 57.814 27.7178 58.0958 28.3756L58.8493 30.3889C58.9687 30.7255 59.1127 31.0559 59.2107 31.4017L59.5231 32.4267L60.1479 34.4828L60.6502 36.5726L60.9014 37.6159C60.9871 37.9647 61.0698 38.3105 61.1311 38.6654L61.5231 40.7766L61.7192 41.8322C61.7865 42.1841 61.8509 42.5359 61.8907 42.8909L62.4634 47.1255C62.2797 46.4187 62.0836 45.715 61.8815 45.0143L61.6058 42.9337C61.566 42.5788 61.5017 42.23 61.4343 41.8781L61.2444 40.8256L60.8585 38.7205C60.8034 38.3686 60.7207 38.0198 60.6349 37.6741L60.3868 36.6338L59.8937 34.5532L59.2842 32.5032L58.981 31.4751C58.8891 31.1324 58.7451 30.802 58.6318 30.4654L57.9029 28.4552C57.6272 27.7974 57.3332 27.1487 57.0514 26.4939C56.7849 25.83 56.4235 25.215 56.1019 24.5786C55.9335 24.2634 55.7834 23.9391 55.5966 23.6362L55.0391 22.7244C54.8462 22.4245 54.6808 22.1063 54.4664 21.8187L53.8446 20.9498L53.5322 20.5153L53.1892 20.1053C52.9564 19.836 52.7328 19.5576 52.497 19.2914L51.7466 18.5265C51.4985 18.2695 51.2136 18.0522 50.9502 17.8136C50.3959 17.3638 49.8262 16.9263 49.1738 16.6295C49.8292 16.9171 50.4112 17.3454 50.9717 17.783C51.2412 18.0186 51.5291 18.2327 51.7833 18.4867Z" fill="black"/>
<path d="M48.2059 54.9675C48.2059 54.9644 49.8782 52.2076 50.4755 49.6987C50.4755 49.6987 50.5031 49.7048 50.5582 49.7201C50.3622 50.537 50.0804 51.3295 49.768 52.1036C49.5566 52.6146 49.33 53.1133 49.0697 53.609C48.8124 54.0863 48.5214 54.5361 48.2121 54.9736C48.209 54.9706 48.209 54.9706 48.2059 54.9675Z" fill="black"/>
<path d="M51.2718 22.7274C50.3775 21.528 49.379 20.4051 48.2917 19.3771C47.2013 18.3521 46.0038 17.4311 44.6806 16.7213C46.016 17.4097 47.232 18.3123 48.3438 19.322C49.4525 20.3348 50.4755 21.4454 51.3943 22.6326C52.3132 23.8228 53.1647 25.0651 53.9518 26.344C54.7328 27.626 55.4618 28.9417 56.1479 30.2788C57.5078 32.9591 58.6808 35.7281 59.7283 38.543C60.5155 40.6756 61.2414 42.8297 61.8815 45.0143L62.1663 47.1775L62.4634 47.1255L62.4665 47.1469L62.1694 47.1989C61.4129 44.3075 60.494 41.4497 59.4649 38.6409C58.4358 35.8291 57.2566 33.0723 55.9335 30.3859C55.2627 29.0488 54.5491 27.7301 53.7834 26.445C53.0115 25.163 52.1754 23.9207 51.2718 22.7274Z" fill="black"/>
<path d="M46.5306 41.4039C46.8552 40.9724 47.1921 40.5716 47.4219 40.1004C47.6608 39.6445 47.8935 39.1733 48.016 38.6624C48.1477 38.1544 48.2151 37.6251 48.2213 37.0958C48.2304 36.5665 48.1906 36.031 48.0773 35.5109L48.1079 35.5017C48.405 36.5359 48.4693 37.6435 48.2549 38.7174C48.16 39.2529 47.9793 39.7883 47.6853 40.2565C47.6087 40.3697 47.5352 40.4859 47.4525 40.5961C47.3606 40.7001 47.2718 40.8041 47.1768 40.9021C46.9961 41.1101 46.7633 41.2631 46.5489 41.4283L46.5306 41.4039Z" fill="black"/>
<path d="M46.1048 78.7934C46.4081 78.6312 46.696 78.4415 46.9716 78.2304C46.4785 78.6557 45.9211 79.0167 45.3177 79.2829C45.3851 79.2493 45.4524 79.2126 45.5198 79.1728C45.722 79.0534 45.918 78.9311 46.1048 78.7934Z" fill="black"/>
<path d="M43.0634 31.5761C44.0405 32.7571 44.4938 34.3206 44.4601 35.8291C44.408 37.3436 43.9088 38.8337 42.9899 39.9933C42.0833 41.156 40.6959 41.9271 39.2441 41.9393C37.7862 41.973 36.3895 41.2294 35.3941 40.1188C34.3895 38.9989 33.7953 37.4752 33.78 35.927C33.7616 34.3818 34.3313 32.8459 35.3083 31.7046C36.2854 30.5664 37.6545 29.7923 39.1308 29.7464C40.604 29.673 42.1017 30.3889 43.0634 31.5761ZM42.4356 36.4441C42.6469 36.2024 41.5381 34.2472 39.4585 34.1493C37.3666 34.0483 35.8535 36.5695 36.0434 36.8265C36.1996 37.0407 37.4646 35.6241 39.3911 35.7128C41.3023 35.8046 42.2579 36.643 42.4356 36.4441Z" fill="white"/>
<path d="M42.8797 18.3674C42.0619 17.9971 41.2104 17.682 40.3283 17.529V17.5229C40.3467 17.5198 40.3651 17.5137 40.3835 17.5076C41.2564 17.6606 42.0925 17.9635 42.898 18.3245C43.725 18.6825 44.4999 19.1476 45.2564 19.6402C46.7572 20.6407 48.0865 21.8768 49.2841 23.2231L50.16 24.2512L50.9594 25.3404L51.3607 25.8851L51.719 26.4572L52.4388 27.6015C52.8921 28.3787 53.2964 29.1865 53.7252 29.9789L54.8339 32.442C55.5935 33.8311 56.2643 35.26 56.8891 36.7103C57.5078 38.1667 58.0621 39.6506 58.5552 41.156C59.0545 42.6583 59.4496 44.1943 59.7804 45.7425C60.1142 47.2907 60.3072 48.8634 60.4266 50.4422C60.3409 50.4483 60.2582 50.4544 60.1755 50.4606L60.2919 50.329L60.1602 50.3351C60.053 48.8083 59.8692 47.2876 59.5537 45.7884C59.2291 44.2494 58.8462 42.7165 58.3562 41.2203C57.8722 39.718 57.3271 38.2371 56.7175 36.7837C56.1019 35.3334 55.4342 33.8984 54.6869 32.5154L54.6838 32.5093L54.6808 32.5062L53.5904 30.0432C53.1677 29.2538 52.7696 28.446 52.3224 27.6689L51.6149 26.5245L51.2596 25.9524L50.8645 25.4077L50.0773 24.3154L49.2105 23.2874C48.0283 21.9411 46.7082 20.6989 45.2197 19.6922C44.4723 19.1996 43.7005 18.7315 42.8797 18.3674Z" fill="black"/>
<path d="M42.4723 45.1673C41.5718 45.4121 40.6438 45.5467 39.7158 45.5773C39.7035 45.565 39.6943 45.5497 39.6821 45.5375C40.1262 45.4885 40.5642 45.409 40.9991 45.3141C41.4738 45.2132 41.9455 45.0908 42.4019 44.9317C42.8552 44.7695 43.2901 44.5676 43.7219 44.3656C44.1538 44.1606 44.5612 43.925 44.9685 43.6435L44.993 43.665C44.699 44.0688 44.2947 44.384 43.8628 44.6379C43.4279 44.8888 42.9471 45.0326 42.4723 45.1673Z" fill="black"/>
<path d="M39.4585 34.1493C41.5381 34.2472 42.6469 36.2024 42.4356 36.4441C42.2579 36.643 41.3023 35.8046 39.3911 35.7128C37.4646 35.6241 36.1996 37.0407 36.0434 36.8265C35.8535 36.5695 37.3666 34.0483 39.4585 34.1493Z" fill="black"/>
<path d="M55.0697 39.6047C55.0697 39.6078 55.0728 39.6078 55.0728 39.6109L55.0697 39.6047ZM44.2457 26.0319C42.7449 24.8907 41.0512 23.9697 39.2043 23.523C39.2165 23.5107 39.2257 23.5015 39.2318 23.4924C40.1323 23.6882 41.0022 24.0033 41.8352 24.398C42.7173 24.8142 43.5535 25.3282 44.3376 25.9095C45.9149 27.063 47.3116 28.4399 48.601 29.9024C49.8844 31.368 51.0544 32.9346 52.1325 34.5562C53.2106 36.1779 54.1938 37.8546 55.0697 39.6017C55.3025 40.027 55.5414 40.4462 55.7681 40.8715C55.9794 41.3059 56.2152 41.7312 56.4113 42.1749C56.8247 43.05 57.1923 43.9465 57.5231 44.8582C57.8416 45.7731 58.1234 46.7032 58.3409 47.6487C58.5461 48.5513 58.7145 49.457 58.7635 50.3932L58.6349 50.3994L58.7574 50.5156C58.6747 50.5156 58.5889 50.5187 58.5062 50.5187C58.4572 49.5855 58.2827 48.6339 58.0652 47.7129C57.8416 46.7797 57.5598 45.8618 57.2382 44.9592C56.9105 44.0597 56.546 43.1693 56.1356 42.3034C55.9396 41.8659 55.7099 41.4436 55.4985 41.0153C55.2719 40.59 55.0361 40.1738 54.8033 39.7516L54.8002 39.7455V39.7424C53.9365 38.0137 52.9411 36.3431 51.8936 34.7153C50.8369 33.0876 49.6945 31.518 48.4326 30.0462C47.1707 28.5776 45.7986 27.1946 44.2457 26.0319Z" fill="black"/>
<path d="M40.3835 17.5076C40.3651 17.5137 40.3467 17.5198 40.3283 17.5229L40.3314 17.4984C40.3498 17.5015 40.3651 17.5045 40.3835 17.5076Z" fill="black"/>
<path d="M39.6913 21.1395C39.9945 21.2098 40.2916 21.2833 40.5917 21.3628C41.6423 21.6443 42.6714 22.0084 43.6729 22.4307C44.1691 22.6571 44.6684 22.8743 45.14 23.1466C45.382 23.2782 45.6209 23.4036 45.8537 23.5597C46.0895 23.7096 46.3162 23.8504 46.5398 23.9972C46.3713 23.5138 46.0926 23.0732 45.7679 22.6785C45.6178 22.4704 45.4279 22.296 45.2534 22.1063C45.0665 21.9319 44.8736 21.7575 44.6775 21.5923C43.8751 20.9467 42.944 20.4694 41.9853 20.1083C41.5075 19.9033 41.0083 19.781 40.5152 19.631C40.019 19.5025 39.5106 19.4138 39.0082 19.3128C38.4968 19.2486 37.9883 19.1721 37.4768 19.1201L36.2058 19.0405C37.2287 18.554 38.6193 17.988 40.3283 17.5229V17.529C41.2104 17.682 42.0619 17.9971 42.8797 18.3674C43.7005 18.7315 44.4723 19.1996 45.2197 19.6922C46.7082 20.6989 48.0283 21.9411 49.2105 23.2874L50.0773 24.3154L50.8645 25.4077L51.2596 25.9524L51.6149 26.5245L52.3224 27.6689C52.7696 28.446 53.1677 29.2538 53.5904 30.0432L54.6808 32.5062L54.6838 32.5093L54.6869 32.5154C55.4342 33.8984 56.1019 35.3334 56.7175 36.7837C57.3271 38.2371 57.8722 39.718 58.3562 41.2203C58.8462 42.7165 59.2291 44.2494 59.5537 45.7884C59.8692 47.2876 60.053 48.8083 60.1602 50.3351L58.7635 50.3932C58.7145 49.457 58.5461 48.5513 58.3409 47.6487C58.1234 46.7032 57.8416 45.7731 57.5231 44.8582C57.1923 43.9465 56.8247 43.05 56.4113 42.1749C56.2152 41.7312 55.9794 41.3059 55.7681 40.8715C55.5414 40.4462 55.3025 40.027 55.0697 39.6017C54.1938 37.8546 53.2106 36.1779 52.1325 34.5562C51.0544 32.9346 49.8844 31.368 48.601 29.9024C47.3116 28.4399 45.9149 27.063 44.3376 25.9095C43.5535 25.3282 42.7173 24.8142 41.8352 24.398C41.0021 24.0033 40.1323 23.6882 39.2318 23.4924C39.4156 23.2782 39.5841 23.0518 39.728 22.8009C39.7831 22.6968 39.8383 22.5867 39.8781 22.4674C39.9148 22.345 39.9485 22.2073 39.9087 22.0421C39.8689 21.8738 39.7004 21.7392 39.5596 21.7147L39.6913 21.1395Z" fill="url(#paint11_linear_137_9020)"/>
<path d="M39.7158 45.5773C39.6637 45.5803 39.6116 45.5834 39.5596 45.5834V45.5528C39.5994 45.5497 39.6423 45.5436 39.6821 45.5375C39.6943 45.5497 39.7035 45.565 39.7158 45.5773Z" fill="black"/>
<path d="M41.3666 48.8787C40.7296 46.9939 39.5228 45.305 37.9608 44.0382L37.9975 43.9893C38.607 44.4452 39.1736 44.9653 39.6821 45.5375C39.6423 45.5436 39.5994 45.5497 39.5596 45.5528V45.5834C39.6116 45.5834 39.6637 45.5803 39.7158 45.5773C40.5397 46.5166 41.2043 47.5967 41.6545 48.7747C42.4049 50.69 42.4968 52.7951 42.3743 54.8084C42.3314 55.8212 42.2395 56.8461 42.0221 57.8558C41.9087 58.3607 41.7709 58.8625 41.5718 59.3459C41.3666 59.8294 41.1522 60.2791 40.9225 60.735C40.46 61.6376 39.9547 62.5219 39.4401 63.3817C38.9409 64.2506 38.4814 65.1471 38.0067 66.0405L37.9516 66.0161C38.2793 65.0584 38.6468 64.116 39.0787 63.195C39.5106 62.2771 39.9639 61.3867 40.3773 60.4719C40.5856 60.0221 40.8031 59.5601 40.9838 59.1103C41.1584 58.6606 41.3146 58.1955 41.4279 57.7182C41.6698 56.7635 41.7985 55.7753 41.8812 54.7778C42.065 52.789 42.0343 50.7635 41.3666 48.8787Z" fill="black"/>
<path d="M37.4033 20.6774C38.1721 20.8029 38.9347 20.9589 39.6913 21.1395L39.5596 21.7147C39.4156 21.678 39.29 21.6871 39.1706 21.6994C38.702 21.7636 38.2854 21.9105 37.8566 22.0421L36.5886 22.4521C35.7953 22.703 34.999 22.9386 34.1935 23.1466C34.1873 22.2042 34.172 21.2649 34.1628 20.3286C35.244 20.3776 36.3283 20.503 37.4033 20.6774Z" fill="url(#paint12_linear_137_9020)"/>
<path d="M39.0726 23.4587C39.1246 23.4709 39.1798 23.4801 39.2318 23.4924C39.2257 23.5015 39.2165 23.5107 39.2043 23.523C39.1583 23.5107 39.1124 23.4985 39.0664 23.4893L39.0726 23.4587Z" fill="black"/>
<path d="M37.9516 67.809C38.8551 65.7896 40.0343 63.9141 41.3605 62.1578C41.7005 61.7233 42.0374 61.2919 42.4019 60.8727C42.7725 60.4505 43.1523 60.065 43.5167 59.6641C44.2518 58.8625 44.9563 58.0364 45.6791 57.2133C46.3989 56.3933 47.1186 55.5794 47.7496 54.7105C48.065 54.276 48.3591 53.8262 48.6225 53.3642C48.8798 52.8991 49.1187 52.4096 49.3361 51.92C49.7649 50.9318 50.1386 49.9129 50.3377 48.8603C50.5521 47.8078 50.6133 46.7247 50.5582 45.6477C50.4632 43.4844 49.8874 41.3518 49.0298 39.3477C50.013 41.2968 50.6562 43.4324 50.8583 45.6262C50.9472 46.7247 50.9104 47.8384 50.7175 48.9307C50.6746 49.1969 50.6194 49.46 50.5582 49.7201C50.5031 49.7048 50.4755 49.6987 50.4755 49.6987C49.8782 52.2076 48.2059 54.9644 48.2059 54.9675C48.209 54.9706 48.209 54.9706 48.2121 54.9736C48.1998 54.9889 48.1906 55.0042 48.1784 55.0195C47.5352 55.9221 46.8093 56.7513 46.0987 57.5774C45.6913 58.0486 45.2871 58.529 44.8736 59.0032C44.5704 59.3582 44.261 59.71 43.9486 60.0558C43.5841 60.4658 43.2013 60.8605 42.8552 61.2644C42.506 61.6682 42.1783 62.1027 41.8475 62.5311C40.5305 64.2445 39.3574 66.0773 38.46 68.0355C38.2364 68.525 38.0343 69.0268 37.8689 69.5286C37.7923 69.7673 37.7341 70.0426 37.6667 70.2966C37.6116 70.5597 37.5534 70.8229 37.5044 71.086C37.3268 72.1385 37.2441 73.2125 37.3666 74.2681C37.5044 75.3114 37.8321 76.3487 38.4569 77.2023C39.0726 78.056 39.924 78.7689 40.8766 79.2156C41.8414 79.6409 42.9685 79.6837 44.0252 79.5338C44.7511 79.4114 45.4555 79.1575 46.1048 78.7934C45.918 78.9311 45.722 79.0534 45.5198 79.1728C45.4524 79.2126 45.3851 79.2493 45.3177 79.2829C44.9134 79.4634 44.4907 79.6011 44.0558 79.6929C43.5137 79.8061 42.9562 79.8337 42.4049 79.8214C41.8475 79.8031 41.287 79.696 40.7602 79.491C40.4998 79.39 40.2426 79.2615 40.0098 79.1055C39.7801 78.9494 39.532 78.8148 39.3237 78.6281L38.9991 78.3619C38.8919 78.2732 38.7969 78.1661 38.6958 78.0682C38.4906 77.8755 38.3191 77.6521 38.1445 77.4318C37.4523 76.5353 37.0725 75.4338 36.898 74.3293C36.7387 73.2155 36.7999 72.0896 36.9837 70.9942C37.0297 70.7219 37.0878 70.4496 37.143 70.1773C37.2134 69.9049 37.2655 69.6479 37.3513 69.3634C37.5228 68.8279 37.728 68.3139 37.9516 67.809Z" fill="black"/>
<path d="M39.2012 25.7841C40.944 25.9401 42.6132 26.7234 43.8751 27.9136L44.3468 28.3604L44.7756 28.8499C45.0727 29.162 45.3054 29.5292 45.5688 29.8688C45.8139 30.2237 46.0283 30.6001 46.258 30.9611C46.4601 31.3405 46.6561 31.723 46.8522 32.1024L46.1875 31.0039C45.9394 30.6551 45.7097 30.2941 45.4463 29.9575C45.1737 29.6301 44.9348 29.2752 44.6285 28.9784L44.1936 28.5133L43.7189 28.088C43.0726 27.5465 42.3804 27.0416 41.6025 26.7142C40.8337 26.3715 40.0129 26.1574 39.1736 26.087C37.8168 25.9524 36.4508 26.2033 35.1583 26.6592C35.4799 26.4786 35.7984 26.2889 36.1077 26.087C37.1124 25.8177 38.1537 25.6954 39.2012 25.7841Z" fill="black"/>
<path d="M37.4462 20.4051C36.5304 20.2491 35.6116 20.1267 34.6805 20.0563L35.9699 19.322L37.4523 19.4016C37.9577 19.4474 38.46 19.5178 38.9654 19.576C39.4615 19.6739 39.9608 19.7595 40.4539 19.8758C40.9409 20.0135 41.4371 20.1236 41.9088 20.3103C42.3927 20.4633 42.846 20.6866 43.3054 20.9008L43.967 21.2741C44.1783 21.4118 44.3835 21.5586 44.5949 21.6994C44.7939 21.8554 44.99 22.0176 45.1829 22.1798C45.3606 22.3603 45.5535 22.5255 45.7128 22.7244C46.0466 23.1038 46.3437 23.526 46.5398 23.9972C46.0681 23.679 45.6699 23.3424 45.1799 23.0793C44.7174 22.7856 44.2242 22.5469 43.7342 22.2991C42.7357 21.8432 41.7066 21.4546 40.653 21.1425C39.6024 20.8304 38.5304 20.5918 37.4462 20.4051Z" fill="url(#paint13_linear_137_9020)"/>
<path d="M36.0097 19.2975L35.9699 19.322L35.9332 19.3189L36.0097 19.2975Z" fill="black"/>
<path d="M34.3803 20.038C34.6498 19.8666 35.1766 19.5484 35.9362 19.1721C36.022 19.1292 36.1139 19.0864 36.2058 19.0405L37.4768 19.1201C37.9883 19.1721 38.4968 19.2486 39.0082 19.3128C39.5106 19.4138 40.019 19.5025 40.5152 19.631C41.0083 19.781 41.5075 19.9033 41.9853 20.1083C42.944 20.4694 43.8751 20.9467 44.6776 21.5923C44.8736 21.7575 45.0665 21.9319 45.2534 22.1063C45.4279 22.296 45.6178 22.4704 45.7679 22.6785C46.0926 23.0732 46.3713 23.5138 46.5398 23.9972C46.3437 23.526 46.0466 23.1038 45.7128 22.7244C45.5535 22.5255 45.3606 22.3603 45.1829 22.1798C44.99 22.0176 44.7939 21.8554 44.5949 21.6994C44.3835 21.5586 44.1783 21.4118 43.967 21.2741L43.3054 20.9008C42.846 20.6866 42.3927 20.4633 41.9088 20.3103C41.4371 20.1236 40.9409 20.0135 40.4539 19.8758C39.9608 19.7595 39.4615 19.6739 38.9654 19.576C38.46 19.5178 37.9577 19.4474 37.4523 19.4015L35.9699 19.322L36.0097 19.2975L35.9332 19.3189L35.9699 19.322L34.6805 20.0563C34.5794 20.0502 34.4814 20.0441 34.3803 20.038Z" fill="black"/>
<path d="M35.1123 7.20559C35.2256 6.89962 35.3482 6.59671 35.4799 6.29992L35.535 6.3244C35.4462 6.55387 35.3665 6.78641 35.29 7.02201C35.2318 7.09238 35.1705 7.15357 35.1123 7.20559Z" fill="black"/>
<path d="M34.3803 20.038C34.4814 20.0441 34.5794 20.0502 34.6805 20.0563L34.2425 20.3072L34.2027 20.1512C34.2364 20.1328 34.2945 20.093 34.3803 20.038Z" fill="black"/>
<path d="M34.2394 27.0202C34.5396 26.8886 34.8489 26.7693 35.1583 26.6592C34.2823 27.1579 33.3665 27.5893 32.4232 27.9534C33.0082 27.6046 33.6146 27.2895 34.2394 27.0202Z" fill="black"/>
<path d="M34.8336 6.37335C34.8367 6.37947 34.8428 6.36417 34.8336 6.40089C34.8275 6.43149 34.7938 6.48962 34.7509 6.54469C34.6621 6.66402 34.5304 6.78335 34.3864 6.8935C34.0985 7.11686 33.7647 7.31574 33.4278 7.49626C32.7417 7.86036 32.0189 8.16633 31.2838 8.44477C29.8106 8.99551 28.2853 9.42693 26.7385 9.73902C25.9667 9.89812 25.1826 10.0266 24.3985 10.1337C23.6114 10.2439 22.8242 10.3357 22.034 10.3999C21.2408 10.4519 20.4475 10.4856 19.6542 10.4519C19.2591 10.4275 18.864 10.3907 18.475 10.3081C18.2851 10.2653 18.0922 10.2133 17.9176 10.1337C17.8594 10.1062 17.8012 10.0756 17.7491 10.0389C17.6817 9.95014 17.6113 9.86447 17.5408 9.78186C17.5378 9.77574 17.5347 9.76656 17.5347 9.76044C17.5102 9.58298 17.6266 9.41163 17.7491 9.26783C17.8747 9.12402 18.0248 8.99551 18.181 8.87618C18.4934 8.64059 18.8395 8.44783 19.1856 8.26119C19.89 7.9032 20.6282 7.61253 21.3755 7.36163C22.1198 7.10768 22.8794 6.89044 23.642 6.70686C24.4047 6.52022 25.1642 6.36111 25.9361 6.23872C27.4797 5.99395 29.0449 5.83178 30.6069 5.78895C31.3879 5.76753 32.1689 5.77365 32.9377 5.84708C33.3206 5.8838 33.7004 5.93581 34.0587 6.02455C34.2364 6.06738 34.4109 6.12246 34.558 6.18671C34.708 6.2479 34.8305 6.35193 34.8336 6.37335Z" fill="#141414"/>
<path d="M34.2027 20.1512L34.172 20.0257C34.2425 20.0288 34.3099 20.0318 34.3803 20.038C34.2945 20.093 34.2364 20.1328 34.2027 20.1512Z" fill="black"/>
<path d="M40.5917 21.3628C40.2916 21.2833 39.9945 21.2098 39.6913 21.1395C38.9347 20.9589 38.1721 20.8029 37.4033 20.6774C36.3283 20.503 35.244 20.3776 34.1628 20.3286C34.1628 20.2797 34.1628 20.2338 34.1628 20.1848L34.169 20.1787C34.169 20.1787 34.1812 20.1695 34.2027 20.1512L34.2425 20.3072L34.6805 20.0563C35.6116 20.1267 36.5304 20.2491 37.4462 20.4051C38.5304 20.5918 39.6024 20.8304 40.653 21.1425C41.7066 21.4546 42.7357 21.8432 43.7342 22.2991C44.2243 22.5469 44.7174 22.7856 45.1799 23.0793C45.6699 23.3424 46.0681 23.679 46.5398 23.9972C46.3162 23.8504 46.0895 23.7096 45.8537 23.5597C45.6209 23.4036 45.382 23.2782 45.14 23.1466C44.6684 22.8743 44.1691 22.6571 43.6729 22.4307C42.6714 22.0084 41.6423 21.6443 40.5917 21.3628Z" fill="black"/>
<path d="M34.1935 23.1466C34.1935 23.1497 34.1935 23.1527 34.1935 23.1589C34.1383 23.1711 34.0863 23.1803 34.0311 23.1895C34.0863 23.1742 34.1383 23.1619 34.1935 23.1466Z" fill="black"/>
<path d="M35.8627 19.0436L35.9025 19.0221L35.9393 19.0252L36.2058 19.0405C36.1139 19.0864 36.022 19.1292 35.9362 19.1721C35.1766 19.5484 34.6498 19.8666 34.3803 20.038C34.3099 20.0318 34.2425 20.0288 34.172 20.0257L34.2027 20.1512C34.1812 20.1695 34.169 20.1787 34.169 20.1787L34.1628 20.1848C34.1598 20.1328 34.1598 20.0808 34.1598 20.0288C34.1598 20.0227 34.1598 20.0166 34.1598 20.0104L35.8627 19.0436Z" fill="black"/>
<path d="M34.1628 20.1848C34.1628 20.2338 34.1628 20.2797 34.1628 20.3286L33.9821 20.3195L34.1628 20.1848Z" fill="black"/>
<path d="M33.6391 20.3042L34.0924 20.0471L34.1598 20.0104C34.1598 20.0165 34.1598 20.0227 34.1598 20.0288C34.1598 20.0808 34.1598 20.1328 34.1628 20.1848L33.9821 20.3195L33.6391 20.3042Z" fill="black"/>
<path d="M35.0174 51.5559C34.659 49.3621 33.78 47.2662 32.5273 45.4121L32.5763 45.3753C33.2562 46.2718 33.8351 47.2448 34.3007 48.2729C34.7723 49.2979 35.1215 50.3871 35.3328 51.4978C35.5534 52.6054 35.6698 53.7344 35.6851 54.8696C35.7065 55.4326 35.6544 56.017 35.5901 56.5738C35.5227 57.1338 35.437 57.6876 35.3543 58.2444L34.8336 61.5673L34.5549 63.2256C34.463 63.7825 34.3497 64.3332 34.2854 64.8717C34.1598 65.9794 34.0403 67.087 34.0311 68.1915C34.0189 69.2961 34.0955 70.4006 34.2976 71.4868C34.7325 73.647 35.2655 75.8714 36.5855 77.649C37.2471 78.518 38.1108 79.2431 39.1308 79.6623C40.1476 80.0815 41.2717 80.2406 42.3743 80.1549C43.3973 80.0693 44.4111 79.7755 45.3177 79.2829C45.9211 79.0167 46.4785 78.6557 46.9716 78.2304L46.9808 78.2365C46.9716 78.2487 46.9594 78.261 46.9502 78.2732C46.7664 78.4935 46.5581 78.6985 46.3284 78.8699C46.0987 79.0412 45.8598 79.1942 45.6117 79.3349C44.6255 79.8949 43.5259 80.262 42.3927 80.3661C41.2594 80.4701 40.1017 80.311 39.0358 79.8979C38.7663 79.797 38.5182 79.6562 38.2609 79.5308C38.1292 79.4665 38.0159 79.3778 37.8934 79.3043C37.7739 79.2248 37.6483 79.1544 37.5411 79.0596C37.0787 78.7169 36.6805 78.2977 36.313 77.8571C35.6085 76.9514 35.0909 75.9173 34.705 74.8525C34.512 74.317 34.3466 73.7755 34.1965 73.2308C34.0526 72.6862 33.9025 72.1416 33.8014 71.5786C33.3634 69.3389 33.4461 67.0319 33.7494 64.8044C33.829 64.2323 33.9454 63.6876 34.0434 63.1369L34.3344 61.4847L34.8918 58.171L35.146 56.5157C35.2256 55.9588 35.2869 55.4264 35.2808 54.8696C35.293 53.762 35.2073 52.6482 35.0174 51.5559Z" fill="black"/>
<path d="M33.6422 21.2771C33.6115 20.9559 33.587 20.6315 33.5687 20.3103L33.6391 20.3042L33.9821 20.3195L34.1628 20.3286C34.172 21.2649 34.1873 22.2042 34.1935 23.1466C34.1383 23.1619 34.0863 23.1742 34.0311 23.1895C34.0863 23.1803 34.1383 23.1711 34.1935 23.1589C34.1996 23.6607 34.1996 24.1624 34.1996 24.6673L34.1383 24.6734C33.8964 23.5689 33.7463 22.4521 33.6483 21.3322C33.7095 21.3169 33.7677 21.2986 33.8259 21.2802L33.8198 21.2496C33.7616 21.2588 33.7004 21.268 33.6422 21.2771Z" fill="black"/>
<path d="M33.8198 21.2496L33.8259 21.2802C33.7677 21.2986 33.7095 21.3169 33.6483 21.3322C33.6452 21.3139 33.6422 21.2955 33.6422 21.2771C33.7004 21.268 33.7616 21.2588 33.8198 21.2496Z" fill="black"/>
<path d="M39.1308 29.7464C37.6545 29.7923 36.2854 30.5664 35.3083 31.7046C34.3313 32.8459 33.7616 34.3818 33.78 35.927C33.7953 37.4752 34.3895 38.9989 35.3941 40.1188C36.3895 41.2294 37.7862 41.973 39.2441 41.9393C40.6959 41.9271 42.0833 41.156 42.9899 39.9933C43.9088 38.8337 44.408 37.3436 44.4601 35.8291C44.4938 34.3206 44.0405 32.7571 43.0634 31.5761C42.1017 30.3889 40.604 29.673 39.1308 29.7464ZM35.0786 40.3697C34.1383 39.0601 33.7432 37.4752 33.7187 35.93C33.7218 34.3818 34.0832 32.7908 35.0051 31.469C35.4584 30.8142 36.0587 30.2359 36.7754 29.8412C37.486 29.4404 38.3099 29.2262 39.1277 29.2354C39.9455 29.2538 40.751 29.4894 41.4463 29.8871C42.1415 30.2849 42.7357 30.8326 43.2166 31.4537C44.1844 32.6959 44.7174 34.2441 44.7939 35.826C44.8613 37.4079 44.4295 39.0479 43.4463 40.3452C42.9624 40.9938 42.3467 41.5568 41.627 41.9607C40.9072 42.3646 40.0802 42.5849 39.2502 42.5941C38.4202 42.591 37.5902 42.3799 36.8735 41.9821C36.1506 41.5905 35.5442 41.0183 35.0786 40.3697Z" fill="black"/>
<path d="M33.6973 19.1568L33.7034 19.1874C33.6391 19.2088 33.5778 19.2302 33.5135 19.2516C33.5135 19.2302 33.5135 19.2118 33.5135 19.1904C33.5748 19.1782 33.636 19.169 33.6973 19.1568Z" fill="black"/>
<path d="M33.5503 20.0502C33.535 19.784 33.5227 19.5178 33.5135 19.2516C33.5778 19.2302 33.6391 19.2088 33.7034 19.1874L33.6973 19.1568C33.636 19.169 33.5748 19.1782 33.5135 19.1904C33.4798 17.9237 33.5411 16.6539 33.6207 15.3903C33.7279 13.839 33.8657 12.2877 34.1567 10.761C34.3926 9.55544 34.6897 8.35604 35.1123 7.20559C35.1705 7.15357 35.2318 7.09238 35.29 7.02201C34.8887 8.25201 34.6406 9.53096 34.4599 10.8099C34.2333 12.3306 34.1537 13.8727 34.1108 15.4117C34.0648 16.9446 34.1537 18.4775 34.1598 20.0104L34.0924 20.0471L33.6391 20.3042L33.5687 20.3103C33.5625 20.2246 33.5564 20.1359 33.5503 20.0502Z" fill="black"/>
<path d="M32.0311 28.1064C32.1628 28.0574 32.2945 28.0085 32.4232 27.9534C32.2761 28.0391 32.1291 28.1309 31.9852 28.2227C31.2593 28.6724 30.564 29.1742 29.9116 29.728C30.4844 29.1742 31.1 28.6633 31.7524 28.2074C31.8443 28.1737 31.9392 28.1401 32.0311 28.1064Z" fill="black"/>
<path d="M31.7524 28.2074C32.5028 27.6689 33.3053 27.2007 34.1445 26.806C34.7724 26.5123 35.4309 26.2645 36.1077 26.087C35.7984 26.2889 35.4799 26.4786 35.1583 26.6592C34.8489 26.7693 34.5396 26.8886 34.2394 27.0202C33.6146 27.2895 33.0082 27.6046 32.4232 27.9534C32.2945 28.0085 32.1628 28.0574 32.0311 28.1064C31.9392 28.1401 31.8443 28.1737 31.7524 28.2074Z" fill="black"/>
<path d="M29.0357 20.3317C29.5686 20.2797 30.0954 20.1665 30.6222 20.0716C31.1429 19.9584 31.6636 19.8207 32.1812 19.6861C32.6284 19.5484 33.0725 19.4077 33.5135 19.2516C33.5227 19.5178 33.535 19.784 33.5503 20.0502C33.5564 20.1359 33.5625 20.2246 33.5687 20.3103C33.587 20.6315 33.6115 20.9559 33.6422 21.2771C33.1827 21.3445 32.7264 21.4209 32.27 21.5036L30.7233 21.7392C29.6942 21.8768 28.6651 22.0574 27.6268 22.14C26.5885 22.2318 25.5471 22.2777 24.5057 22.2379C23.9851 22.2195 23.4644 22.1889 22.9467 22.1247C22.4628 22.0696 21.9758 21.9931 21.5042 21.8646C21.4827 21.6443 21.4613 21.424 21.4368 21.2037C21.3878 20.7815 21.3296 20.3592 21.2683 19.9401C21.7124 20.0869 22.1719 20.1879 22.6343 20.2705C23.1581 20.3715 23.691 20.4296 24.224 20.4786C25.2929 20.5612 26.3649 20.5489 27.4338 20.4816L28.2363 20.4235L29.0357 20.3317Z" fill="white"/>
<path d="M36.1996 82.2478C35.1001 82.0244 34.0311 81.6542 33.0388 81.1218C29.0724 78.8546 26.2454 74.9657 24.8916 70.679C24.9529 70.8687 25.0172 71.0554 25.0846 71.242C25.7309 72.9983 26.5976 74.6964 27.7585 76.1712C28.3312 76.9147 28.9683 77.6062 29.6329 78.2549C30.2976 78.9096 30.9959 79.5338 31.7493 80.0846C32.5028 80.6322 33.3083 81.1371 34.1965 81.4522C34.6315 81.6236 35.0664 81.7766 35.4982 81.9418L35.826 82.0611C35.9301 82.104 36.0526 82.1376 36.1292 82.1866C36.1629 82.2111 36.1874 82.2294 36.1996 82.2478Z" fill="black"/>
<path d="M25.0907 50.5095C24.7936 52.7309 24.4874 54.9522 24.2638 57.1735C24.1872 57.9538 24.1259 58.734 24.0923 59.5142C24.1168 58.8227 24.1413 58.1251 24.1749 57.4336C24.2209 56.5126 24.2913 55.5886 24.3832 54.6707C24.5701 52.8288 24.8335 50.996 25.1734 49.1724L25.1122 49.1571C24.9743 49.714 24.8426 50.2739 24.7263 50.8369C24.7446 50.7115 24.7661 50.5891 24.7844 50.4636C25.1428 48.2484 25.593 46.0485 26.0953 43.8638L26.1566 43.8761C25.7309 46.0791 25.3909 48.2912 25.0907 50.5095Z" fill="black"/>
<path d="M25.5655 71.0737C24.9621 69.3389 24.5639 67.5367 24.3097 65.7193C24.0586 63.8988 24.0157 62.0538 24.0708 60.2088C24.0708 60.3067 24.0677 60.4076 24.0677 60.5056C24.0555 61.6193 24.1229 62.7177 24.2301 63.8345C24.4353 66.0497 24.7661 68.2558 25.4552 70.3608C25.7952 71.4103 26.1964 72.4445 26.7079 73.4205C26.9407 73.9223 27.2408 74.3843 27.5134 74.8617L27.9729 75.547L28.2026 75.8928C28.2822 76.0029 28.368 76.11 28.4537 76.2171L28.9622 76.8688C29.1398 77.0799 29.3297 77.2758 29.5135 77.4808C29.8749 77.8938 30.2761 78.2916 30.6712 78.671C31.4706 79.4267 32.3496 80.0907 33.3114 80.6139C35.2318 81.6603 37.4676 82.1009 39.6637 81.9785C40.7694 81.9234 41.872 81.7674 42.9409 81.489C44.0068 81.2075 45.0451 80.7975 45.967 80.1978C46.8859 79.6011 47.6853 78.8025 48.1998 77.8326C48.451 77.3523 48.6623 76.8199 48.7205 76.2997C48.7236 76.2355 48.7205 76.1743 48.7082 76.1253C48.6929 76.0794 48.6868 76.0794 48.6654 76.0764C48.598 76.0764 48.4693 76.1376 48.3805 76.2263C48.1906 76.4007 48.0375 76.6302 47.8966 76.8688C47.6148 77.3339 47.333 77.8081 46.9808 78.2365L46.9716 78.2304C46.696 78.4415 46.4081 78.6312 46.1048 78.7934C46.3621 78.6067 46.5979 78.3956 46.794 78.1447C47.1462 77.7225 47.4219 77.239 47.7128 76.7556C47.8537 76.5139 48.0099 76.2661 48.2335 76.0611C48.3468 75.9631 48.4724 75.8561 48.6868 75.8499C48.8093 75.853 48.9135 75.9754 48.9288 76.0641C48.9502 76.1529 48.9533 76.2324 48.9471 76.3089C48.892 76.9055 48.6868 77.4379 48.4356 77.955C47.918 78.98 47.0972 79.8337 46.1538 80.4762C45.2074 81.1249 44.1416 81.5746 43.0512 81.8928C41.9578 82.2111 40.8276 82.3916 39.6943 82.465C38.607 82.5415 37.5044 82.4864 36.4263 82.2906C36.4263 82.2508 36.4171 82.208 36.3987 82.1743C36.3589 82.0917 36.2946 82.0458 36.2394 82.0091C36.1169 81.9387 36.0097 81.9143 35.8995 81.8714L35.5717 81.7521C35.1368 81.593 34.6927 81.44 34.2639 81.2748C33.391 80.978 32.6161 80.4609 31.878 79.9163C31.1398 79.3594 30.4538 78.7414 29.8136 78.0774C29.1704 77.4104 28.5701 76.7128 28.0311 75.9693C26.9407 74.4853 26.1566 72.8086 25.5655 71.0737Z" fill="black"/>
<path d="M31.878 79.9163C32.6161 80.4609 33.391 80.978 34.2639 81.2748C34.6927 81.44 35.1368 81.593 35.5718 81.7521L35.8995 81.8714C36.0097 81.9143 36.1169 81.9387 36.2395 82.0091C36.2946 82.0458 36.3589 82.0917 36.3987 82.1743C36.4171 82.208 36.4263 82.2508 36.4263 82.2906C36.3497 82.2784 36.2762 82.2631 36.1996 82.2478C36.1874 82.2294 36.1629 82.211 36.1292 82.1866C36.0526 82.1376 35.9301 82.104 35.826 82.0611L35.4982 81.9418C35.0664 81.7766 34.6315 81.6236 34.1965 81.4522C33.3083 81.1371 32.5028 80.6322 31.7493 80.0846C30.9959 79.5338 30.2976 78.9096 29.6329 78.2549C28.9683 77.6062 28.3312 76.9147 27.7585 76.1712C26.5976 74.6964 25.7309 72.9983 25.0846 71.242C25.0172 71.0554 24.9529 70.8687 24.8916 70.679C24.8794 70.6362 24.8641 70.5934 24.8518 70.5505C24.5027 69.4705 24.2454 68.3629 24.0494 67.2461C23.8533 66.1323 23.7216 65.0064 23.639 63.8835C23.6114 63.5255 23.5869 63.1644 23.5685 62.8003C23.5501 61.9283 23.5654 61.0594 23.6022 60.1935C23.6481 59.1073 23.7155 58.0211 23.8135 56.9379C24.0555 54.891 24.3985 52.8655 24.7263 50.8369C24.8426 50.2739 24.9743 49.714 25.1122 49.1571L25.1734 49.1724C24.8335 50.996 24.5701 52.8288 24.3832 54.6707C24.2913 55.5886 24.2209 56.5126 24.1749 57.4336C24.1413 58.1251 24.1168 58.8227 24.0923 59.5142C24.0861 59.7467 24.08 59.9793 24.0708 60.2088C24.0157 62.0538 24.0586 63.8988 24.3097 65.7193C24.5639 67.5367 24.9621 69.3389 25.5655 71.0737C26.1566 72.8086 26.9407 74.4853 28.0311 75.9693C28.5701 76.7128 29.1704 77.4104 29.8136 78.0774C30.4538 78.7414 31.1398 79.3594 31.878 79.9163Z" fill="black"/>
<path d="M24.7263 50.8369C24.3985 52.8655 24.0555 54.891 23.8135 56.9379C23.8809 56.1669 23.9636 55.3989 24.0647 54.6309C24.2362 53.3581 24.4567 52.0914 24.7263 50.8369Z" fill="black"/>
<path d="M23.7768 65.7896C23.6512 64.7952 23.5869 63.7978 23.5685 62.8003C23.5869 63.1644 23.6114 63.5255 23.639 63.8835C23.7216 65.0064 23.8533 66.1323 24.0494 67.2461C24.2454 68.3629 24.5027 69.4705 24.8518 70.5505C24.8641 70.5934 24.8794 70.6362 24.8916 70.679C24.6589 69.9784 24.4598 69.2685 24.2852 68.5495C24.0647 67.6408 23.887 66.7198 23.7768 65.7896Z" fill="black"/>
<path d="M23.6022 60.1935C23.5654 61.0594 23.5501 61.9283 23.5685 62.8003C23.5256 62.0354 23.5103 61.2613 23.5318 60.4964C23.5624 59.3673 23.6604 58.2414 23.789 57.1246C23.7952 57.0634 23.8043 56.9991 23.8135 56.9379C23.7155 58.0211 23.6481 59.1073 23.6022 60.1935Z" fill="black"/>
<path d="M24.4965 22.3909C23.9728 22.3511 23.4521 22.3021 22.9345 22.2165C22.4506 22.143 21.9728 22.0482 21.5072 21.8983C21.5072 21.886 21.5042 21.8738 21.5042 21.8646C21.9758 21.9931 22.4628 22.0696 22.9467 22.1247C23.4644 22.1889 23.9851 22.2195 24.5057 22.2379C25.5471 22.2777 26.5885 22.2318 27.6268 22.14C28.6651 22.0574 29.6942 21.8768 30.7233 21.7392L32.27 21.5036C32.7264 21.421 33.1827 21.3445 33.6422 21.2771C33.6422 21.2955 33.6452 21.3139 33.6483 21.3322C33.2072 21.4699 32.7601 21.5923 32.3129 21.7116C31.8014 21.8279 31.2899 21.938 30.7754 22.0421C29.7401 22.2226 28.6926 22.3358 27.6451 22.3848C26.5976 22.446 25.544 22.4612 24.4965 22.3909Z" fill="black"/>
<path d="M32.1812 19.6861C31.6636 19.8207 31.1429 19.9584 30.6222 20.0716C30.0954 20.1665 29.5686 20.2797 29.0357 20.3317L28.2363 20.4235L27.4338 20.4816C26.3649 20.5489 25.2929 20.5612 24.2239 20.4786C23.691 20.4296 23.1581 20.3715 22.6343 20.2705C22.1719 20.1879 21.7124 20.0869 21.2683 19.9401C21.2653 19.9248 21.2653 19.9095 21.2622 19.8942C21.7155 20.0288 22.181 20.1175 22.6497 20.1818C23.1734 20.2583 23.7033 20.298 24.2362 20.3256C25.2959 20.3776 26.3587 20.3348 27.4154 20.2368L28.2056 20.1512L28.9928 20.0318C29.2562 19.9951 29.5196 19.9554 29.7799 19.9064L30.564 19.7718C31.0878 19.6892 31.6054 19.5698 32.1291 19.478C32.5885 19.3801 33.048 19.2792 33.5135 19.1904C33.5135 19.2118 33.5135 19.2302 33.5135 19.2516C33.0725 19.4077 32.6284 19.5484 32.1812 19.6861Z" fill="black"/>
<path d="M21.5042 21.8646C21.5042 21.8738 21.5072 21.886 21.5072 21.8983C21.4705 21.8921 21.4368 21.8799 21.4 21.8677L21.4092 21.8401C21.4398 21.8493 21.4735 21.8585 21.5042 21.8646Z" fill="black"/>
<path d="M21.2683 19.9401C21.204 19.9186 21.1427 19.8972 21.0815 19.8758L21.0907 19.8452C21.1458 19.8636 21.204 19.8819 21.2622 19.8942C21.2653 19.9095 21.2653 19.9248 21.2683 19.9401Z" fill="black"/>
<path d="M18.6435 27.3231C19.1795 27.6627 19.7063 28.0146 20.2239 28.3848C19.1335 27.9595 18.1075 27.3445 17.256 26.5337C17.743 26.7632 18.1994 27.0447 18.6435 27.3231Z" fill="black"/>
<path d="M17.8839 10.2102C18.0707 10.2928 18.2637 10.3418 18.4597 10.3846C18.8517 10.4672 19.2499 10.5131 19.6481 10.5407C20.4444 10.6019 21.2438 10.611 22.0432 10.5927C23.6389 10.5682 25.2347 10.4366 26.8212 10.1919C28.4017 9.91954 29.9606 9.52484 31.4859 9.00775C32.2455 8.74462 32.999 8.45089 33.734 8.08984C34.0985 7.90626 34.4599 7.70738 34.8091 7.45343C34.9102 7.37693 35.0112 7.30044 35.1123 7.20559C34.6897 8.35604 34.3926 9.55544 34.1567 10.761C33.8657 12.2877 33.7279 13.839 33.6207 15.3903C33.5411 16.6539 33.4798 17.9237 33.5135 19.1904C33.048 19.2792 32.5885 19.3801 32.1291 19.478C31.6054 19.5698 31.0878 19.6892 30.564 19.7718L29.7799 19.9064C29.5196 19.9554 29.2562 19.9951 28.9928 20.0318L28.2056 20.1512L27.4154 20.2368C26.3587 20.3348 25.2959 20.3776 24.2362 20.3256C23.7033 20.298 23.1734 20.2583 22.6497 20.1818C22.181 20.1175 21.7155 20.0288 21.2622 19.8942C21.1274 18.9854 20.962 18.0828 20.7599 17.1863C20.4567 15.8645 20.1565 14.5213 19.6052 13.2669C19.1427 12.1929 18.5883 11.1434 17.8839 10.2102Z" fill="#141414"/>
<path d="M21.5072 21.8983C21.6144 23.0151 21.691 24.1349 21.6542 25.2639L21.593 25.2578C21.5715 24.4868 21.495 23.7127 21.3939 22.9447C21.3173 22.3756 21.2285 21.8095 21.1335 21.2466C20.9161 19.9186 20.6343 18.5999 20.2851 17.3026C20.2024 16.9783 20.1075 16.657 20.0064 16.3357C19.9023 16.0175 19.8135 15.6932 19.6971 15.3811L19.3755 14.4295C19.256 14.1175 19.1458 13.8023 19.0355 13.4872C18.6067 12.3061 18.1228 11.1495 17.5684 10.0022C17.6542 10.097 17.7736 10.1613 17.8808 10.2102H17.8839C18.5883 11.1434 19.1427 12.1929 19.6052 13.2669C20.1565 14.5213 20.4567 15.8645 20.7599 17.1863C20.962 18.0828 21.1274 18.9854 21.2622 19.8942C21.204 19.8819 21.1458 19.8636 21.0907 19.8452L21.0815 19.8758C21.1427 19.8972 21.204 19.9186 21.2683 19.9401C21.3296 20.3592 21.3878 20.7815 21.4368 21.2037C21.4613 21.424 21.4827 21.6443 21.5042 21.8646C21.4735 21.8585 21.4398 21.8493 21.4092 21.8401L21.4 21.8677C21.4368 21.8799 21.4705 21.8921 21.5072 21.8983Z" fill="black"/>
<path d="M17.5408 9.78186C17.6113 9.86447 17.6817 9.95014 17.7491 10.0389C17.6511 9.97156 17.5684 9.88895 17.5408 9.78186Z" fill="black"/>
<path d="M17.8808 10.2102C17.7736 10.1613 17.6542 10.097 17.5684 10.0022C17.5347 9.92872 17.501 9.85835 17.4643 9.78492L17.5163 9.75126C17.5255 9.76044 17.5347 9.77268 17.5409 9.78186C17.5684 9.88894 17.6511 9.97156 17.7491 10.0389C17.7951 10.0939 17.8379 10.1521 17.8808 10.2102Z" fill="black"/>
<path d="M23.642 6.70686C22.8794 6.89044 22.1198 7.10768 21.3755 7.36163C20.6282 7.61253 19.89 7.9032 19.1856 8.26119C18.8395 8.44783 18.4934 8.64059 18.181 8.87619C18.0248 8.99551 17.8747 9.12402 17.7491 9.26783C17.6266 9.41163 17.5102 9.58298 17.5347 9.76044C17.5347 9.76656 17.5378 9.77574 17.5408 9.78186C17.5347 9.77268 17.5255 9.76044 17.5163 9.75126L17.4643 9.78492C17.501 9.85835 17.5347 9.92872 17.5684 10.0022C17.5102 9.94096 17.4643 9.86753 17.4459 9.77574C17.4061 9.54626 17.5378 9.35044 17.6603 9.19439C17.7889 9.03529 17.936 8.89454 18.0922 8.76604C18.4015 8.50902 18.7323 8.27954 19.0753 8.06537C19.7553 7.64007 20.4659 7.26066 21.1917 6.91186C22.6435 6.22649 24.1719 5.6482 25.7737 5.34223C27.3603 5.02096 28.9775 4.88022 30.5977 4.88022C31.4063 4.88634 32.2179 4.92611 33.0327 5.0332C33.44 5.08828 33.8474 5.15865 34.2578 5.27492C34.4661 5.33305 34.6713 5.40037 34.8826 5.5044C35.0878 5.61455 35.3329 5.72776 35.5074 6.06738C35.5901 6.24484 35.584 6.47126 35.5289 6.62425C35.4737 6.78335 35.3941 6.8935 35.3175 6.99141C35.3083 7.00365 35.2992 7.01283 35.29 7.02201C35.3665 6.78641 35.4462 6.55387 35.535 6.3244L35.4799 6.29992C35.3482 6.59671 35.2257 6.89962 35.1123 7.20559C35.0113 7.30044 34.9102 7.37693 34.8091 7.45343C34.4599 7.70738 34.0985 7.90626 33.7341 8.08984C32.999 8.45089 32.2455 8.74462 31.4859 9.00775C29.9606 9.52484 28.4017 9.91954 26.8212 10.1919C25.2347 10.4366 23.639 10.5682 22.0432 10.5927C21.2438 10.611 20.4444 10.6019 19.6481 10.5407C19.2499 10.5131 18.8517 10.4672 18.4597 10.3846C18.2637 10.3418 18.0707 10.2928 17.8839 10.2102H17.8808C17.8379 10.1521 17.7951 10.0939 17.7491 10.0389C17.8012 10.0756 17.8594 10.1062 17.9176 10.1337C18.0922 10.2133 18.2851 10.2653 18.475 10.3081C18.864 10.3907 19.2591 10.4275 19.6542 10.4519C20.4475 10.4856 21.2408 10.4519 22.034 10.3999C22.8242 10.3357 23.6114 10.2439 24.3985 10.1337C25.1826 10.0266 25.9667 9.89813 26.7385 9.73902C28.2853 9.42693 29.8106 8.99551 31.2838 8.44477C32.0189 8.16634 32.7417 7.86037 33.4278 7.49626C33.7647 7.31574 34.0985 7.11686 34.3864 6.8935C34.5304 6.78335 34.6621 6.66402 34.7509 6.54469C34.7938 6.48962 34.8275 6.43149 34.8336 6.40089C34.8428 6.36417 34.8367 6.37947 34.8336 6.37335C34.8305 6.35193 34.708 6.2479 34.558 6.18671C34.4109 6.12246 34.2364 6.06738 34.0587 6.02455C33.7004 5.93581 33.3206 5.8838 32.9377 5.84708C32.1689 5.77365 31.3879 5.76753 30.6069 5.78895C29.0449 5.83179 27.4797 5.99395 25.9361 6.23872C25.1642 6.36111 24.4047 6.52022 23.642 6.70686Z" fill="black"/>
<path d="M15.6725 21.938C15.8226 21.8432 16.0278 21.8126 16.233 21.8034C16.6526 21.7942 17.0906 21.8799 17.5194 21.9717C17.9513 22.0665 18.3801 22.1798 18.8089 22.293C19.6665 22.5255 20.5271 22.7519 21.3939 22.9447C21.495 23.7127 21.5715 24.4868 21.593 25.2578L21.6542 25.2639C21.691 24.1349 21.6144 23.0151 21.5072 21.8983C21.9728 22.0482 22.4506 22.143 22.9345 22.2165C23.4521 22.3021 23.9728 22.3511 24.4965 22.3909C25.544 22.4612 26.5977 22.446 27.6451 22.3848C28.6926 22.3358 29.7401 22.2226 30.7754 22.0421C31.2899 21.938 31.8014 21.8279 32.3129 21.7116C32.7601 21.5923 33.2072 21.4699 33.6483 21.3322C33.7463 22.4521 33.8964 23.5689 34.1383 24.6734L34.1996 24.6673C34.1996 24.1624 34.1996 23.6607 34.1935 23.1589C35.0143 23.012 35.826 22.8223 36.6346 22.6112L37.924 22.2685C38.3497 22.1614 38.7847 22.039 39.1981 22.0054C39.2992 21.9992 39.4003 21.9992 39.4738 22.0207C39.5504 22.0451 39.5688 22.0757 39.5841 22.1277C39.6116 22.241 39.5228 22.4521 39.4187 22.6204C39.1981 22.9753 38.898 23.2965 38.5886 23.5964C37.9608 24.2022 37.2624 24.7377 36.5335 25.2242C33.6085 27.1609 30.2149 28.3909 26.7079 28.5929C24.9652 28.7214 23.1948 28.6357 21.5164 28.2043C19.8349 27.7821 18.2576 26.9406 17.0876 25.6678C16.5117 25.0283 15.988 24.3093 15.6266 23.5383C15.4551 23.1558 15.3172 22.7305 15.3877 22.3633C15.4244 22.1859 15.5224 22.0268 15.6725 21.938Z" fill="#141414"/>
<path d="M16.1289 55.2214C15.8471 58.8961 16.2851 62.5923 17.2162 66.1476C17.452 67.0319 17.7216 67.9314 17.9911 68.8035C18.279 69.6755 18.5853 70.5414 18.9467 71.3828C19.6511 73.0748 20.5516 74.6842 21.6267 76.1651C22.181 76.8902 22.7599 77.6001 23.4154 78.2365C23.7247 78.5731 24.0831 78.8576 24.4169 79.1667L24.956 79.592L25.2255 79.8L25.5073 79.9928L26.077 80.3783L26.6681 80.7179C27.0601 80.9566 27.4767 81.1463 27.8902 81.336C28.7294 81.7031 29.6023 81.9938 30.4997 82.1988C31.394 82.4099 32.3068 82.5354 33.2256 82.5905C33.6881 82.6211 34.1475 82.6241 34.61 82.6149C35.0694 82.6027 35.5258 82.566 35.9577 82.4405C36.071 82.413 36.169 82.3732 36.2027 82.3243C36.218 82.3028 36.2211 82.2784 36.1996 82.2478C36.2762 82.2631 36.3497 82.2784 36.4263 82.2906C36.4263 82.3457 36.4079 82.4008 36.3773 82.4436C36.2701 82.5874 36.1261 82.6119 36.0189 82.6486C35.5595 82.7832 35.0848 82.8261 34.6161 82.8444C34.1506 82.8628 33.682 82.872 33.2134 82.8536C32.2792 82.823 31.345 82.719 30.4262 82.5262C29.5073 82.3426 28.6038 82.0734 27.7278 81.7215C27.296 81.5379 26.858 81.3574 26.4506 81.1218L25.8289 80.7791L25.3082 80.4426L25.2347 80.3967L24.9407 80.2008L24.6558 79.9897L24.0922 79.5644C23.74 79.2523 23.3633 78.9617 23.0356 78.622C22.3434 77.9795 21.7461 77.2482 21.1642 76.5078C20.0401 74.9993 19.0998 73.3593 18.3617 71.6337C17.9758 70.777 17.6664 69.8896 17.3755 68.9993C17.1059 68.0967 16.8456 67.2185 16.6036 66.3098C16.1442 64.4985 15.7828 62.6535 15.6327 60.787C15.4734 58.9206 15.4673 57.042 15.6511 55.1817C16.0401 51.4611 17.1549 47.817 19.0049 44.589L19.0569 44.6165C18.2239 46.2718 17.5531 48.0067 17.0784 49.7874C16.5883 51.5682 16.279 53.3887 16.1289 55.2214Z" fill="black"/>
<path d="M15.0477 22.2868C15.1059 22.0329 15.2713 21.7851 15.5102 21.6565C15.746 21.525 16.0002 21.5036 16.233 21.5066C16.7047 21.5219 17.1427 21.6321 17.5745 21.7483C18.0064 21.8677 18.4321 22.0023 18.8548 22.1369C19.7001 22.4092 20.5424 22.6877 21.3939 22.9447C20.5271 22.7519 19.6665 22.5255 18.8089 22.293C18.3801 22.1798 17.9513 22.0665 17.5194 21.9717C17.0906 21.8799 16.6526 21.7942 16.233 21.8034C16.0278 21.8126 15.8226 21.8432 15.6725 21.938C15.5224 22.0268 15.4244 22.1859 15.3877 22.3633C15.3172 22.7305 15.4551 23.1558 15.6266 23.5383C15.988 24.3093 16.5117 25.0283 17.0875 25.6678C18.2576 26.9406 19.8349 27.7821 21.5164 28.2043C23.1948 28.6357 24.9652 28.7214 26.7079 28.5929C30.2149 28.3909 33.6085 27.1609 36.5335 25.2242C37.2624 24.7377 37.9608 24.2022 38.5886 23.5964C38.898 23.2965 39.1981 22.9753 39.4187 22.6204C39.5228 22.4521 39.6116 22.2409 39.5841 22.1277C39.5687 22.0757 39.5504 22.0451 39.4738 22.0207C39.4003 21.9992 39.2992 21.9992 39.1981 22.0054C38.7847 22.039 38.3497 22.1614 37.924 22.2685L36.6346 22.6112C35.826 22.8223 35.0143 23.012 34.1935 23.1589C34.1935 23.1527 34.1935 23.1497 34.1935 23.1466C34.999 22.9386 35.7953 22.703 36.5886 22.4521L37.8566 22.0421C38.2854 21.9105 38.702 21.7636 39.1706 21.6994C39.29 21.6871 39.4156 21.678 39.5596 21.7147C39.7004 21.7392 39.8689 21.8738 39.9087 22.0421C39.9485 22.2073 39.9148 22.345 39.8781 22.4674C39.8383 22.5867 39.7831 22.6968 39.728 22.8009C39.5841 23.0518 39.4156 23.2782 39.2318 23.4924C39.1798 23.4801 39.1246 23.4709 39.0726 23.4587L39.0664 23.4893C39.1124 23.4985 39.1583 23.5107 39.2043 23.523C39.1001 23.6454 38.9899 23.7647 38.8765 23.884C38.2456 24.5357 37.5381 25.0987 36.8061 25.6189C36.5764 25.781 36.3436 25.9371 36.1077 26.087C35.4309 26.2645 34.7724 26.5123 34.1445 26.806C33.3053 27.2007 32.5028 27.6689 31.7524 28.2074C30.1413 28.7642 28.4476 29.0794 26.7508 29.2048C24.956 29.3242 23.1275 29.2354 21.3663 28.7612C20.9804 28.6571 20.5976 28.5317 20.2239 28.3848C19.7063 28.0146 19.1795 27.6627 18.6435 27.3231C18.1994 27.0447 17.743 26.7632 17.256 26.5337C17.0722 26.3624 16.8977 26.1788 16.7323 25.986C16.1442 25.2915 15.6205 24.548 15.259 23.6943C15.0936 23.269 14.9374 22.8009 15.0477 22.2868Z" fill="black"/>
<path d="M12.7353 34.5777C14.1319 34.5012 15.3601 35.7403 15.2315 36.031C15.1427 36.2452 14.38 35.8566 12.965 35.9515C11.2743 36.0647 10.4167 36.7531 10.2789 36.542C10.0982 36.2666 11.213 34.6603 12.7353 34.5777Z" fill="black"/>
<path d="M13.1641 42.3799C14.0798 40.8347 15.0998 39.3538 16.2391 37.9678C15.4704 39.0234 14.7537 40.1157 14.0952 41.2386C14.0615 41.2845 14.0308 41.3335 13.9971 41.3824C13.8042 41.6578 13.651 41.9332 13.3754 42.2208C13.3172 42.282 13.2468 42.3371 13.1641 42.3799Z" fill="black"/>
<path d="M10.2237 48.6431C10.2605 48.7685 10.2972 48.894 10.3309 49.0194C10.2881 48.9154 10.2452 48.8114 10.1992 48.7104C10.2054 48.689 10.2145 48.6645 10.2237 48.6431Z" fill="black"/>
<path d="M9.68775 52.382C9.47947 53.4162 9.33246 54.4718 9.21913 55.5244C8.99861 57.6233 9.0813 59.7467 9.49785 61.8151C10.2881 65.9488 12.2238 69.8927 15.1427 72.9524C16.5883 74.5128 18.1687 75.9387 19.8012 77.3155C20.6067 78.0131 21.4337 78.6863 22.3403 79.2431C22.7905 79.5216 23.2653 79.7602 23.7553 79.9683C24.2454 80.1794 24.7477 80.363 25.2623 80.5129C24.2209 80.2682 23.1979 79.9102 22.2576 79.3808C21.3173 78.8576 20.4505 78.212 19.6113 77.5481C17.939 76.2171 16.3035 74.8127 14.8027 73.2798C13.2621 71.7622 12.0124 69.957 11.0231 68.0385C10.0369 66.114 9.31714 64.0548 8.89753 61.9283C8.48711 59.8018 8.4228 57.608 8.66782 55.4662C8.90979 53.3336 9.31102 51.1949 10.0338 49.1632C10.089 49.0133 10.141 48.8603 10.1992 48.7104C10.2452 48.8114 10.2881 48.9154 10.3309 49.0194C10.2972 48.894 10.2605 48.7685 10.2237 48.6431C10.9006 46.7981 11.697 45.0021 12.6403 43.2794C12.8088 42.9765 12.9834 42.6767 13.1641 42.3799C13.2468 42.3371 13.3172 42.282 13.3754 42.2208C13.6511 41.9332 13.8042 41.6578 13.9972 41.3824C14.0308 41.3335 14.0615 41.2845 14.0952 41.2386C12.5974 43.7904 11.3846 46.5013 10.481 49.3101C10.1625 50.3198 9.89602 51.3448 9.68775 52.382Z" fill="black"/>
<path d="M8.44423 35.5629C8.58513 34.3237 9.1395 33.1549 9.89908 32.2033C10.3095 31.6954 10.7873 31.2487 11.3264 30.9152C11.8624 30.5817 12.4811 30.4104 13.0997 30.4471C13.7215 30.4899 14.3218 30.7683 14.8333 31.16C15.3509 31.5547 15.7828 32.0626 16.1319 32.6195C16.475 33.1824 16.7353 33.7974 16.8977 34.4339C17.0692 35.0672 17.1212 35.7373 17.0385 36.3737C16.9926 36.6919 16.9038 37.0071 16.769 37.2824C16.6496 37.518 16.4229 37.7169 16.2085 37.9403C16.1901 37.9586 16.1718 37.98 16.1534 37.9984C15.6817 38.4788 15.2407 38.9867 14.8211 39.5068C14.3953 40.027 13.988 40.5624 13.602 41.1101C13.4091 41.3733 13.2223 41.6762 13.0354 41.8689C12.9405 41.9638 12.8578 41.9974 12.7291 42.0158C12.6036 42.0403 12.4627 42.025 12.3218 41.9944C11.749 41.8689 11.213 41.465 10.7444 41.0367C10.2758 40.5961 9.85926 40.0943 9.50398 39.5466C8.79952 38.4543 8.33704 37.1417 8.4228 35.8107C8.42892 35.7281 8.43505 35.6455 8.44423 35.5629ZM15.2315 36.031C15.3601 35.7403 14.1319 34.5012 12.7353 34.5777C11.213 34.6603 10.0982 36.2666 10.2789 36.542C10.4167 36.7531 11.2743 36.0647 12.965 35.9515C14.38 35.8566 15.1427 36.2452 15.2315 36.031Z" fill="white"/>
<path d="M47.6853 40.2565C47.9793 39.7883 48.16 39.2529 48.2549 38.7174C48.4693 37.6435 48.405 36.5359 48.1079 35.5017L48.0773 35.5109C48.1906 36.031 48.2304 36.5665 48.2212 37.0958C48.2151 37.6251 48.1477 38.1544 48.016 38.6624C47.8935 39.1733 47.6607 39.6445 47.4218 40.1004C47.1921 40.5716 46.8552 40.9724 46.5306 41.4038L46.5489 41.4283C46.7633 41.2631 46.9961 41.1101 47.1768 40.9021C47.2718 40.8041 47.3606 40.7001 47.4525 40.5961C47.5352 40.4859 47.6087 40.3697 47.6853 40.2565ZM38.0067 66.0405C38.4814 65.1471 38.9409 64.2506 39.4401 63.3817C39.9547 62.5219 40.46 61.6376 40.9225 60.735C41.1522 60.2791 41.3666 59.8294 41.5718 59.3459C41.7709 58.8625 41.9087 58.3607 42.0221 57.8558C42.2395 56.8461 42.3314 55.8211 42.3743 54.8084C42.4968 52.7951 42.4049 50.69 41.6545 48.7747C41.2043 47.5967 40.5397 46.5166 39.7158 45.5773C40.6438 45.5467 41.5718 45.412 42.4723 45.1673C42.947 45.0326 43.4279 44.8888 43.8628 44.6379C44.2947 44.384 44.699 44.0688 44.993 43.665L44.9685 43.6435C44.5612 43.925 44.1538 44.1606 43.7219 44.3656C43.2901 44.5676 42.8552 44.7695 42.4019 44.9317C41.9455 45.0908 41.4738 45.2132 40.9991 45.3141C40.5642 45.409 40.1262 45.4885 39.6821 45.5375C39.1736 44.9653 38.607 44.4452 37.9975 43.9893L37.9608 44.0382C39.5228 45.305 40.7296 46.9939 41.3666 48.8787C42.0343 50.7635 42.065 52.789 41.8812 54.7778C41.7985 55.7753 41.6698 56.7635 41.4279 57.7182C41.3146 58.1955 41.1584 58.6605 40.9838 59.1103C40.8031 59.5601 40.5856 60.0221 40.3773 60.4719C39.9639 61.3867 39.5106 62.2771 39.0787 63.195C38.6468 64.116 38.2793 65.0584 37.9516 66.0161L38.0067 66.0405ZM8.74133 32.0779C9.20994 30.7133 9.87151 29.4098 10.8179 28.345C11.7582 27.2895 13.0262 26.4817 14.4443 26.3746C15.1426 26.3165 15.8594 26.4083 16.5393 26.6316C17.2254 26.8427 17.8594 27.2007 18.5056 27.5556C19.7859 28.2716 21.0386 29.0488 22.1994 29.9545C21.6604 29.4527 21.0784 28.9937 20.4781 28.5653C20.3923 28.5042 20.3096 28.443 20.2239 28.3848C20.5976 28.5317 20.9804 28.6571 21.3663 28.7612C23.1275 29.2354 24.956 29.3242 26.7508 29.2048C28.4476 29.0794 30.1413 28.7642 31.7524 28.2074C31.1 28.6633 30.4844 29.1742 29.9116 29.728C30.564 29.1742 31.2593 28.6724 31.9852 28.2227C32.1291 28.1309 32.2761 28.0391 32.4232 27.9534C33.3665 27.5893 34.2823 27.1579 35.1583 26.6592C36.4508 26.2033 37.8168 25.9524 39.1736 26.087C40.0129 26.1574 40.8337 26.3715 41.6025 26.7142C42.3804 27.0416 43.0726 27.5465 43.7189 28.088L44.1936 28.5133L44.6285 28.9784C44.9348 29.2752 45.1737 29.6301 45.4463 29.9575C45.7097 30.2941 45.9394 30.6551 46.1875 31.0039L46.8522 32.1024C46.6561 31.723 46.4601 31.3405 46.258 30.9611C46.0283 30.6 45.8139 30.2237 45.5688 29.8688C45.3054 29.5292 45.0727 29.162 44.7756 28.8499L44.3468 28.3603L43.8751 27.9136C42.6132 26.7234 40.944 25.9401 39.2012 25.7841C38.1537 25.6953 37.1124 25.8177 36.1077 26.087C36.3436 25.9371 36.5764 25.781 36.8061 25.6189C37.5381 25.0987 38.2456 24.5357 38.8765 23.884C38.9899 23.7647 39.1001 23.6454 39.2043 23.523C41.0512 23.9697 42.7449 24.8906 44.2457 26.0319C45.7985 27.1946 47.1707 28.5776 48.4326 30.0462C49.6945 31.518 50.8369 33.0876 51.8936 34.7153C52.9411 36.3431 53.9365 38.0137 54.8002 39.7424V39.7455L54.8033 39.7516C55.036 40.1738 55.2719 40.59 55.4985 41.0153C55.7099 41.4436 55.9396 41.8659 56.1356 42.3034C56.546 43.1693 56.9105 44.0597 57.2382 44.9592C57.5598 45.8618 57.8416 46.7797 58.0652 47.7129C58.2827 48.6339 58.4572 49.5855 58.5062 50.5187C54.3806 50.5615 51.1095 49.8456 50.5582 49.7201C50.6194 49.46 50.6746 49.1969 50.7175 48.9307C50.9104 47.8384 50.9472 46.7247 50.8583 45.6262C50.6562 43.4324 50.013 41.2968 49.0298 39.3477C49.8874 41.3518 50.4632 43.4844 50.5582 45.6476C50.6133 46.7247 50.5521 47.8078 50.3377 48.8603C50.1386 49.9129 49.7649 50.9317 49.3361 51.92C49.1187 52.4096 48.8798 52.8991 48.6225 53.3642C48.3591 53.8262 48.065 54.276 47.7496 54.7105C47.1186 55.5794 46.3989 56.3933 45.6791 57.2133C44.9563 58.0364 44.2518 58.8625 43.5167 59.6641C43.1523 60.0649 42.7725 60.4505 42.4019 60.8727C42.0374 61.2919 41.7005 61.7233 41.3605 62.1578C40.0343 63.914 38.8551 65.7896 37.9516 67.809C37.728 68.3139 37.5228 68.8279 37.3513 69.3634C37.2655 69.6479 37.2134 69.9049 37.143 70.1773C37.0879 70.4496 37.0297 70.7219 36.9837 70.9942C36.7999 72.0896 36.7387 73.2155 36.898 74.3293C37.0725 75.4338 37.4523 76.5353 38.1445 77.4318C38.3191 77.6521 38.4906 77.8755 38.6958 78.0682C38.7969 78.1661 38.8919 78.2732 38.9991 78.3619L39.3237 78.6281C39.532 78.8148 39.7801 78.9494 40.0098 79.1055C40.2426 79.2615 40.4998 79.39 40.7602 79.491C41.287 79.696 41.8475 79.8031 42.4049 79.8214C42.9562 79.8337 43.5137 79.8061 44.0558 79.6929C44.4907 79.6011 44.9134 79.4634 45.3177 79.2829C44.4111 79.7755 43.3973 80.0693 42.3743 80.1549C41.2717 80.2406 40.1476 80.0815 39.1308 79.6623C38.1108 79.2431 37.2471 78.518 36.5855 77.649C35.2655 75.8714 34.7325 73.647 34.2976 71.4868C34.0955 70.4006 34.0189 69.2961 34.0311 68.1915C34.0403 67.087 34.1598 65.9793 34.2854 64.8717C34.3497 64.3332 34.463 63.7825 34.5549 63.2256L34.8336 61.5673L35.3543 58.2444C35.437 57.6876 35.5227 57.1338 35.5901 56.5738C35.6544 56.017 35.7065 55.4326 35.6851 54.8696C35.6698 53.7344 35.5534 52.6054 35.3328 51.4978C35.1215 50.3871 34.7723 49.2979 34.3007 48.2729C33.8351 47.2448 33.2562 46.2718 32.5763 45.3753L32.5273 45.412C33.78 47.2662 34.659 49.3621 35.0174 51.5559C35.2073 52.6482 35.293 53.762 35.2808 54.8696C35.2869 55.4264 35.2256 55.9588 35.146 56.5157L34.8918 58.171L34.3344 61.4846L34.0434 63.1369C33.9454 63.6876 33.829 64.2323 33.7494 64.8044C33.4461 67.0319 33.3634 69.3389 33.8014 71.5786C33.9025 72.1416 34.0526 72.6862 34.1965 73.2308C34.3466 73.7755 34.512 74.317 34.705 74.8525C35.0909 75.9172 35.6085 76.9514 36.313 77.8571C36.6805 78.2977 37.0787 78.7169 37.5411 79.0596C37.6483 79.1544 37.7739 79.2248 37.8934 79.3043C38.0159 79.3778 38.1292 79.4665 38.2609 79.5307C38.5182 79.6562 38.7663 79.7969 39.0358 79.8979C40.1017 80.311 41.2594 80.4701 42.3927 80.366C43.5259 80.262 44.6255 79.8949 45.6117 79.3349C45.8598 79.1942 46.0987 79.0412 46.3284 78.8699C46.5581 78.6985 46.7664 78.4935 46.9502 78.2732C46.9594 78.261 46.9716 78.2487 46.9808 78.2365C47.333 77.8081 47.6148 77.3339 47.8966 76.8688C48.0375 76.6302 48.1906 76.4007 48.3805 76.2263C48.4693 76.1375 48.598 76.0764 48.6654 76.0764C48.6868 76.0794 48.6929 76.0794 48.7082 76.1253C48.7205 76.1743 48.7236 76.2355 48.7205 76.2997C48.6623 76.8199 48.451 77.3522 48.1998 77.8326C47.6852 78.8025 46.8859 79.6011 45.967 80.1978C45.0451 80.7975 44.0068 81.2075 42.9409 81.489C41.872 81.7674 40.7694 81.9234 39.6637 81.9785C37.4676 82.1009 35.2318 81.6603 33.3114 80.6139C32.3496 80.0907 31.4706 79.4267 30.6712 78.671C30.2761 78.2916 29.8749 77.8938 29.5135 77.4808C29.3297 77.2758 29.1398 77.0799 28.9622 76.8688L28.4537 76.2171C28.368 76.11 28.2822 76.0029 28.2026 75.8928L27.9729 75.547L27.5134 74.8617C27.2408 74.3843 26.9407 73.9223 26.7079 73.4205C26.1964 72.4445 25.7952 71.4103 25.4552 70.3608C24.7661 68.2558 24.4353 66.0497 24.2301 63.8345C24.1229 62.7177 24.0555 61.6193 24.0677 60.5055C24.0677 60.4076 24.0708 60.3067 24.0708 60.2088C24.08 59.9793 24.0861 59.7467 24.0923 59.5142C24.1259 58.734 24.1872 57.9538 24.2638 57.1735C24.4874 54.9522 24.7936 52.7309 25.0907 50.5095C25.3909 48.2912 25.7309 46.0791 26.1566 43.8761L26.0953 43.8638C25.593 46.0485 25.1428 48.2484 24.7844 50.4636C24.7661 50.5891 24.7446 50.7114 24.7263 50.8369C24.4567 52.0914 24.2362 53.3581 24.0647 54.6309C23.9636 55.3989 23.8809 56.1669 23.8135 56.9379C23.8043 56.9991 23.7952 57.0634 23.789 57.1246C23.6604 58.2414 23.5624 59.3673 23.5318 60.4964C23.5103 61.2613 23.5256 62.0354 23.5685 62.8003C23.5869 63.7978 23.6512 64.7952 23.7768 65.7896C23.887 66.7198 24.0647 67.6408 24.2852 68.5495C24.4598 69.2685 24.6589 69.9784 24.8916 70.679C26.2454 74.9657 29.0724 78.8546 33.0388 81.1218C34.0311 81.6542 35.1001 82.0244 36.1996 82.2478C36.2211 82.2784 36.218 82.3028 36.2027 82.3243C36.169 82.3732 36.071 82.413 35.9577 82.4405C35.5258 82.566 35.0694 82.6027 34.61 82.6149C34.1475 82.6241 33.6881 82.621 33.2256 82.5904C32.3068 82.5354 31.394 82.4099 30.4997 82.1988C29.6023 81.9938 28.7294 81.7031 27.8902 81.336C27.4767 81.1463 27.0601 80.9566 26.6681 80.7179L26.077 80.3783L25.5073 79.9928L25.2255 79.8L24.956 79.5919L24.4169 79.1666C24.0831 78.8576 23.7247 78.5731 23.4154 78.2365C22.7599 77.6001 22.181 76.8902 21.6267 76.1651C20.5516 74.6842 19.6511 73.0748 18.9467 71.3828C18.5853 70.5414 18.279 69.6755 17.9911 68.8034C17.7216 67.9314 17.452 67.0319 17.2162 66.1476C16.2851 62.5923 15.8471 58.8961 16.1289 55.2214C16.279 53.3887 16.5883 51.5682 17.0784 49.7874C17.5531 48.0067 18.2239 46.2718 19.057 44.6165L19.0049 44.589C17.1549 47.817 16.0401 51.4611 15.6511 55.1817C15.4673 57.042 15.4734 58.9206 15.6327 60.787C15.7828 62.6535 16.1442 64.4984 16.6036 66.3098C16.8456 67.2185 17.1059 68.0967 17.3755 68.9993C17.6664 69.8896 17.9758 70.7769 18.3617 71.6337C19.0998 73.3593 20.0401 74.9993 21.1642 76.5078C21.7461 77.2482 22.3434 77.9795 23.0356 78.622C23.3633 78.9616 23.74 79.2523 24.0923 79.5644L24.6558 79.9897L24.9407 80.2008L25.2347 80.3966L25.3082 80.4425L25.2623 80.5129C24.7477 80.363 24.2454 80.1794 23.7553 79.9683C23.2653 79.7602 22.7905 79.5216 22.3403 79.2431C21.4337 78.6863 20.6067 78.0131 19.8012 77.3155C18.1687 75.9387 16.5883 74.5128 15.1426 72.9524C12.2238 69.8927 10.2881 65.9487 9.49785 61.8151C9.0813 59.7467 8.99861 57.6233 9.21913 55.5244C9.33246 54.4718 9.47947 53.4162 9.68774 52.382C9.89602 51.3448 10.1625 50.3198 10.481 49.3101C11.3846 46.5013 12.5974 43.7904 14.0952 41.2386C14.4321 40.7368 14.7874 40.2503 15.158 39.7761C15.5653 39.2529 15.9788 38.7388 16.4199 38.2462L16.7537 37.873C16.867 37.7444 16.9803 37.5853 17.0508 37.4171C17.1886 37.0866 17.2591 36.747 17.2866 36.4043C17.3479 35.7159 17.2315 35.0397 17.0539 34.391C16.8732 33.7424 16.5944 33.1274 16.2606 32.543C15.9175 31.9677 15.5102 31.417 14.9956 30.9642C14.4841 30.5144 13.8501 30.1564 13.1396 30.0677C12.4259 29.9942 11.6939 30.187 11.112 30.5725C10.5208 30.9489 10.0461 31.469 9.6663 32.032C9.05374 32.953 8.65557 33.9902 8.46874 35.0611L8.00319 34.9754C8.18083 33.9902 8.41973 33.0203 8.74133 32.0779ZM43.4463 40.3452C44.4295 39.0479 44.8613 37.4079 44.7939 35.826C44.7174 34.2441 44.1844 32.6959 43.2166 31.4537C42.7357 30.8326 42.1415 30.2849 41.4463 29.8871C40.751 29.4894 39.9455 29.2538 39.1277 29.2354C38.3099 29.2262 37.486 29.4404 36.7754 29.8412C36.0587 30.2359 35.4584 30.8142 35.0051 31.469C34.0832 32.7908 33.7218 34.3818 33.7187 35.93C33.7432 37.4752 34.1383 39.0601 35.0786 40.3697C35.5442 41.0183 36.1506 41.5905 36.8735 41.9821C37.5902 42.3799 38.4202 42.591 39.2502 42.5941C40.0802 42.5849 40.9072 42.3646 41.627 41.9607C42.3467 41.5568 42.9624 40.9938 43.4463 40.3452Z" fill="url(#paint14_linear_137_9020)"/>
<path d="M16.1319 32.6195C15.7828 32.0626 15.3509 31.5547 14.8333 31.16C14.3218 30.7683 13.7215 30.4899 13.0997 30.4471C12.481 30.4104 11.8624 30.5817 11.3264 30.9152C10.7873 31.2487 10.3095 31.6954 9.89908 32.2033C9.13949 33.1549 8.58512 34.3237 8.44423 35.5629L8.40135 35.5598C8.41667 35.3946 8.44117 35.2263 8.46873 35.0611C8.65557 33.9902 9.05374 32.953 9.6663 32.032C10.0461 31.469 10.5208 30.9489 11.112 30.5725C11.6939 30.187 12.4259 29.9942 13.1396 30.0677C13.8501 30.1564 14.4841 30.5144 14.9956 30.9642C15.5102 31.417 15.9175 31.9677 16.2606 32.543C16.5944 33.1274 16.8731 33.7424 17.0539 34.391C17.2315 35.0397 17.3479 35.7159 17.2866 36.4043C17.2591 36.747 17.1886 37.0866 17.0508 37.4171C16.9803 37.5853 16.867 37.7444 16.7537 37.873L16.4199 38.2462C15.9788 38.7388 15.5653 39.2529 15.158 39.7761C14.7874 40.2503 14.4321 40.7368 14.0952 41.2386C14.7537 40.1157 15.4704 39.0234 16.2391 37.9678L16.2085 37.9403C16.4229 37.7169 16.6496 37.518 16.769 37.2824C16.9038 37.0071 16.9926 36.6919 17.0385 36.3737C17.1212 35.7373 17.0692 35.0672 16.8977 34.4339C16.7353 33.7974 16.475 33.1824 16.1319 32.6195Z" fill="black"/>
<path d="M16.2391 37.9678C15.0998 39.3538 14.0798 40.8347 13.1641 42.3799C13.0507 42.4441 12.919 42.49 12.8026 42.5023C12.5974 42.5359 12.3984 42.5176 12.2176 42.4717C11.847 42.386 11.5285 42.2147 11.2345 42.0219C10.9435 41.8261 10.677 41.5997 10.4351 41.3549C9.95115 40.8653 9.55604 40.2993 9.24363 39.6965C8.61575 38.4941 8.29416 37.1417 8.37685 35.8077C8.38298 35.725 8.39217 35.6424 8.40136 35.5598L8.44423 35.5629C8.43505 35.6455 8.42892 35.7281 8.4228 35.8107C8.33704 37.1417 8.79952 38.4543 9.50398 39.5466C9.85926 40.0943 10.2758 40.5961 10.7444 41.0367C11.213 41.465 11.749 41.8689 12.3218 41.9944C12.4627 42.025 12.6036 42.0403 12.7291 42.0158C12.8578 41.9974 12.9405 41.9638 13.0354 41.8689C13.2223 41.6762 13.4091 41.3732 13.602 41.1101C13.988 40.5624 14.3953 40.027 14.8211 39.5068C15.2407 38.9867 15.6817 38.4788 16.1534 37.9984C16.1718 37.98 16.1901 37.9586 16.2085 37.9403L16.2391 37.9678Z" fill="black"/>
<path d="M7.79491 36.3156C7.85311 35.8658 7.92049 35.4191 8.00318 34.9754L8.46873 35.0611C8.44117 35.2263 8.41667 35.3946 8.40135 35.5598C8.39216 35.6424 8.38298 35.725 8.37685 35.8077C8.29415 37.1417 8.61575 38.4941 9.24363 39.6965C9.55604 40.2993 9.95115 40.8653 10.4351 41.3549C10.677 41.5997 10.9435 41.8261 11.2345 42.0219C11.5285 42.2147 11.847 42.386 12.2176 42.4717C12.3983 42.5176 12.5974 42.5359 12.8026 42.5023C12.919 42.49 13.0507 42.4441 13.1641 42.3799C12.9834 42.6767 12.8088 42.9765 12.6403 43.2794C11.697 45.0021 10.9006 46.7981 10.2237 48.6431C9.84088 47.3519 9.35696 46.0944 8.90366 44.8368C8.65557 44.1453 8.40748 43.4538 8.20533 42.7624C8.00625 42.0678 7.85617 41.358 7.76122 40.642C7.56214 39.207 7.6142 37.7628 7.79491 36.3156Z" fill="url(#paint15_linear_137_9020)"/>
<path d="M14.4443 26.3746C13.0262 26.4817 11.7582 27.2895 10.8179 28.3451C9.87151 29.4098 9.20994 30.7133 8.74133 32.0779C8.41973 33.0203 8.18083 33.9902 8.00318 34.9754C7.92049 35.4191 7.85311 35.8658 7.79491 36.3156C7.61421 37.7628 7.56214 39.207 7.76122 40.642C7.85617 41.358 8.00625 42.0678 8.20533 42.7624C8.40748 43.4538 8.65557 44.1453 8.90366 44.8368C9.35696 46.0944 9.84089 47.3519 10.2237 48.6431C10.2146 48.6645 10.2054 48.689 10.1992 48.7104C9.66324 47.459 9.06905 46.2382 8.52387 44.9868C8.23596 44.3044 7.94805 43.6252 7.7214 42.9092C7.49475 42.1932 7.32936 41.462 7.21604 40.7185C7.10577 39.978 7.04758 39.2284 7.04758 38.4788C7.05064 37.723 7.11803 36.9826 7.20072 36.2452C7.37224 34.7643 7.67852 33.2956 8.1747 31.879C8.66476 30.4685 9.37227 29.0947 10.4136 27.9748C10.9282 27.418 11.5254 26.9223 12.2054 26.5612C12.8823 26.1971 13.6419 25.9677 14.4106 25.9309C15.1794 25.8851 15.9512 26.0166 16.6588 26.2828C16.864 26.3562 17.063 26.4419 17.256 26.5337C18.1075 27.3445 19.1335 27.9595 20.2239 28.3848C20.3096 28.443 20.3923 28.5042 20.4781 28.5653C21.0784 28.9937 21.6604 29.4527 22.1994 29.9545C21.0386 29.0488 19.7859 28.2716 18.5056 27.5556C17.8594 27.2007 17.2254 26.8427 16.5393 26.6316C15.8594 26.4083 15.1426 26.3165 14.4443 26.3746Z" fill="black"/>
<path d="M71.2783 54.9308C72.044 54.582 72.7515 54.1353 73.3396 53.5478C74.286 52.6054 74.6872 51.4182 74.7883 50.1117C74.8557 49.2459 74.6474 48.178 75.0394 47.3703C75.0976 47.2479 75.1742 47.1377 75.263 47.0398C75.5509 46.7247 75.9368 46.5288 76.3656 46.4156C77.3549 46.1525 78.5831 46.3238 79.4499 46.4493C81.4499 46.74 83.0089 47.0765 84.9783 46.2106C86.4087 45.5803 87.8513 44.6471 89.0243 43.6099C91.1224 41.7557 91.3888 39.6139 89.4837 37.5303C92.8743 37.5027 95.0152 34.8989 96.1944 31.9096C97.7442 25.2333 89.055 25.9952 89.0243 25.9983C87.9003 26.0992 86.8528 25.9401 85.8757 25.3251C84.8436 24.6734 84.087 23.6239 83.6215 22.5102C82.8251 20.6224 82.2983 19.8177 80.1452 19.8299C77.8419 19.8452 75.6122 20.5581 73.5356 21.5036C71.4161 22.4674 69.6121 23.012 67.2476 23.0732" stroke="black" stroke-miterlimit="10"/>
<path d="M48.2121 54.9736C49.6332 56.4178 51.6731 57.4122 53.6547 57.66C54.7665 57.7977 56.788 58.067 57.5813 57.0144C57.7712 56.7605 57.86 56.4453 58.0376 56.1791C58.3378 55.7263 58.8738 55.4693 59.4128 55.3806C62.0254 54.9583 64.5798 56.482 67.2139 56.0445C68.5401 55.8242 69.9827 55.5182 71.266 54.9369" stroke="black" stroke-miterlimit="10"/>
<path d="M77.1926 34.9418C80.041 35.1345 79.4836 37.2947 78.1145 39.5007C76.6168 41.924 74.1451 44.4054 74.1451 44.4054C73.3028 45.3815 72.3717 46.2076 71.3824 46.9052C69.7591 48.0587 67.9735 48.8665 66.1541 49.4203C65.3456 49.6681 64.5278 49.867 63.7161 50.023C63.7069 50.023 63.7008 50.0261 63.6916 50.0261C63.6181 50.0414 63.5477 50.0536 63.4742 50.0659C62.442 50.2525 61.419 50.3749 60.4266 50.4422C60.3409 50.4483 60.2582 50.4544 60.1755 50.4606C60.1724 50.4606 60.1694 50.4606 60.1694 50.4606C59.6946 50.4881 59.2291 50.5065 58.7727 50.5156C58.7666 50.5156 58.7635 50.5156 58.7574 50.5156C58.6747 50.5156 58.5889 50.5187 58.5063 50.5187C54.3806 50.5615 51.1095 49.8456 50.5582 49.7201" stroke="black" stroke-miterlimit="10"/>
<path d="M36.2058 19.0405C37.2287 18.554 38.6193 17.988 40.3283 17.5229C40.3467 17.5198 40.3651 17.5137 40.3835 17.5076C41.6484 17.168 43.0879 16.8804 44.6806 16.7182C46.065 16.5805 47.5658 16.5346 49.1738 16.6295C50.1325 16.6815 51.1279 16.7886 52.157 16.9538C53.1157 17.1068 54.108 17.3118 55.1249 17.578C56.0621 17.8197 57.0269 18.1165 58.0101 18.4683C58.0223 18.4714 58.0376 18.4775 58.0499 18.4836C59.6732 19.0619 61.3547 19.7962 63.0913 20.7142C63.1097 20.7233 63.1311 20.7356 63.1526 20.7478C64.4359 21.4271 65.7498 22.2073 67.0883 23.0977C67.0914 23.1007 67.0944 23.1007 67.0975 23.1038C67.0975 23.1038 67.2047 23.1803 67.4007 23.3241C67.4742 23.3792 67.563 23.4465 67.6641 23.523C68.3533 24.0492 69.5968 25.0436 70.9904 26.3807C71.3181 26.6959 71.6519 27.0294 71.9888 27.3782C72.0011 27.3874 72.0103 27.3996 72.0195 27.4088C73.9919 29.4496 76.0593 32.0718 77.1865 34.9448C77.7592 36.3982 78.09 37.9188 78.0441 39.4579" stroke="black" stroke-miterlimit="10"/>
<path d="M76.3656 46.4156C75.8817 47.7619 75.6306 48.6339 74.7883 50.1117" stroke="black" stroke-miterlimit="10"/>
<path d="M71.3885 54.8543C71.3518 54.8788 71.315 54.9032 71.2783 54.9308C71.2752 54.9338 71.2691 54.9369 71.266 54.9369C69.0301 56.4698 65.2843 58.5994 60.2214 59.6703C53.3393 61.1236 47.673 59.8447 44.8736 59.0032" stroke="black" stroke-miterlimit="10"/>
<path d="M36.0434 36.8265C35.8535 36.5695 37.3666 34.0483 39.4585 34.1493C41.5382 34.2472 42.6469 36.2024 42.4356 36.4441C42.2579 36.643 41.3023 35.8046 39.3911 35.7128C37.4646 35.6241 36.1996 37.0407 36.0434 36.8265Z" stroke="black" stroke-miterlimit="10"/>
<path d="M10.2789 36.542C10.0982 36.2666 11.213 34.6603 12.7353 34.5777C14.1319 34.5012 15.3601 35.7403 15.2315 36.031C15.1427 36.2452 14.38 35.8566 12.965 35.9515C11.2743 36.0647 10.4167 36.7531 10.2789 36.542Z" stroke="black" stroke-miterlimit="10"/>
<path d="M12.3402 42.0464C13.5377 43.7017 14.3402 44.0229 16.086 43.255C17.2407 42.744 18.3249 42.0188 19.3602 41.2662C20.7323 40.2718 22.1627 39.4885 23.8197 40.1616C24.8488 40.5808 25.6482 40.5257 26.6467 40.0453C27.9759 39.4059 29.3481 39.6874 30.6528 40.4523C31.93 41.1988 33.2256 41.9791 34.6008 42.4533C36.4232 43.0836 37.1246 42.695 38.1782 41.052C37.8658 45.7211 31.0694 50.3657 25.443 46.0056C22.9406 48.282 20.1044 48.7655 17.0171 47.5508C14.622 46.6084 12.8976 44.5584 12.3402 42.0464Z" fill="black"/>
<path d="M36.2357 19.1443C36.3418 19.1001 36.4051 19.0098 36.3771 18.9428C36.3491 18.8757 36.2403 18.8572 36.1342 18.9015C36.028 18.9458 35.9647 19.036 35.9927 19.1031C36.0208 19.1701 36.1295 19.1886 36.2357 19.1443Z" fill="black"/>
<path d="M36.0755 19.2086C36.1816 19.1644 36.2449 19.0741 36.2169 19.0071C36.1889 18.94 36.0801 18.9215 35.974 18.9658C35.8678 19.0101 35.8045 19.1003 35.8325 19.1674C35.8606 19.2344 35.9693 19.2529 36.0755 19.2086Z" fill="black"/>
<path opacity="0.47" d="M39.2318 41.4436C42.0026 41.4436 44.2488 38.9861 44.2488 35.9545C44.2488 32.923 42.0026 30.4654 39.2318 30.4654C36.4611 30.4654 34.2149 32.923 34.2149 35.9545C34.2149 38.9861 36.4611 41.4436 39.2318 41.4436Z" fill="#69CAE0"/>
<path d="M45.5995 35.927C45.5719 35.7128 45.5413 35.4894 45.4034 35.3212C45.2748 35.1651 45.0727 35.0886 44.9318 34.9418C44.7388 34.7398 44.6929 34.44 44.6377 34.1646C44.2855 32.4267 43.0451 30.8938 41.4187 30.187C40.0159 29.5781 38.3589 29.5965 36.9592 30.2115C36.6774 30.3339 36.3375 30.4593 36.0924 30.6398C35.7984 30.8571 35.5411 31.16 35.3083 31.4384C34.8244 32.0075 34.4232 32.6439 34.123 33.3262C33.7708 34.1279 33.5656 34.9968 33.538 35.8719C33.4737 37.9403 34.463 40.0453 36.1813 41.205C37.8995 42.3646 40.3069 42.4717 42.0496 41.3518C42.6224 40.9847 43.1063 40.5104 43.5198 39.975C44.1477 39.1611 44.6194 38.2003 45.0114 37.2427C45.0114 36.799 45.0114 37.0377 45.0114 37.2427C45.0849 37.31 45.1921 37.4293 45.2748 37.6006C45.3851 37.8301 45.3881 38.1147 45.3881 38.1208C45.3943 38.439 45.4647 40.6114 45.5535 43.5946C45.7005 46.0423 45.7465 48.0281 45.7618 49.356C45.7863 51.3815 45.8077 53.4101 45.8445 55.4356C45.8629 56.4484 45.8812 57.4611 45.9057 58.4739C45.918 58.9941 45.9302 59.5111 45.9456 60.0313C45.9517 60.2608 45.9119 60.5545 45.967 60.7748C46.0374 61.0502 46.0466 61.0196 46.3468 61.1175C46.3713 61.1267 46.3989 61.1328 46.4203 61.1205C46.4387 61.1083 46.4479 61.0838 46.4509 61.0594C46.4969 60.8421 46.5183 60.6341 46.5183 60.4107C46.5489 55.5152 46.5428 50.6258 46.3713 45.7333C46.3652 42.4717 46.0007 39.158 45.5995 35.927ZM39.1951 41.4436C36.4538 41.41 34.1965 38.8949 34.218 35.8964C34.2394 32.8795 36.5059 30.444 39.2747 30.4654C42.0374 30.4838 44.261 32.953 44.2488 35.9821C44.2334 38.9775 41.921 41.4773 39.1951 41.4436ZM45.4647 37.9097C45.4647 37.9188 45.4647 37.9188 45.4647 37.9097V37.9097Z" fill="black"/>
<path d="M43.1982 37.2702C43.7863 32.5919 39.4064 30.1901 36.4293 32.4267C37.1338 31.2151 39.63 30.7194 41.3023 31.7597C43.1798 32.9254 43.9333 35.5629 43.1982 37.2702Z" fill="white"/>
<defs>
<linearGradient id="paint0_linear_137_9020" x1="48.2108" y1="38.8121" x2="96.3783" y2="38.8121" gradientUnits="userSpaceOnUse">
<stop stop-color="#FFF23A"/>
<stop offset="0.0401" stop-color="#FEE62D"/>
<stop offset="0.1171" stop-color="#FED41A"/>
<stop offset="0.1964" stop-color="#FDC90F"/>
<stop offset="0.2809" stop-color="#FDC60B"/>
<stop offset="0.6685" stop-color="#F28F3F"/>
<stop offset="0.8876" stop-color="#ED693C"/>
<stop offset="1" stop-color="#E83E39"/>
</linearGradient>
<linearGradient id="paint1_linear_137_9020" x1="74.787" y1="48.2631" x2="76.3644" y2="48.2631" gradientUnits="userSpaceOnUse">
<stop stop-color="#E1306C"/>
<stop offset="1" stop-color="#405DE6"/>
</linearGradient>
<linearGradient id="paint2_linear_137_9020" x1="55.1236" y1="32.241" x2="74.1438" y2="32.241" gradientUnits="userSpaceOnUse">
<stop stop-color="#E1306C"/>
<stop offset="1" stop-color="#405DE6"/>
</linearGradient>
<linearGradient id="paint3_linear_137_9020" x1="58.0486" y1="30.7754" x2="73.7395" y2="30.7754" gradientUnits="userSpaceOnUse">
<stop stop-color="#FFF23A"/>
<stop offset="0.0401" stop-color="#FEE62D"/>
<stop offset="0.1171" stop-color="#FED41A"/>
<stop offset="0.1964" stop-color="#FDC90F"/>
<stop offset="0.2809" stop-color="#FDC60B"/>
<stop offset="0.6685" stop-color="#F28F3F"/>
<stop offset="0.8876" stop-color="#ED693C"/>
<stop offset="1" stop-color="#E83E39"/>
</linearGradient>
<linearGradient id="paint4_linear_137_9020" x1="63.1513" y1="32.576" x2="78.1132" y2="32.576" gradientUnits="userSpaceOnUse">
<stop stop-color="#E1306C"/>
<stop offset="1" stop-color="#405DE6"/>
</linearGradient>
<linearGradient id="paint5_linear_137_9020" x1="63.5158" y1="41.469" x2="71.3811" y2="41.469" gradientUnits="userSpaceOnUse">
<stop stop-color="#E1306C"/>
<stop offset="1" stop-color="#405DE6"/>
</linearGradient>
<linearGradient id="paint6_linear_137_9020" x1="44.8723" y1="57.633" x2="71.2648" y2="57.633" gradientUnits="userSpaceOnUse">
<stop stop-color="#E1306C"/>
<stop offset="1" stop-color="#405DE6"/>
</linearGradient>
<linearGradient id="paint7_linear_137_9020" x1="67.865" y1="31.7468" x2="75.2111" y2="31.7468" gradientUnits="userSpaceOnUse">
<stop stop-color="#FFF23A"/>
<stop offset="0.0401" stop-color="#FEE62D"/>
<stop offset="0.1171" stop-color="#FED41A"/>
<stop offset="0.1964" stop-color="#FDC90F"/>
<stop offset="0.2809" stop-color="#FDC60B"/>
<stop offset="0.6685" stop-color="#F28F3F"/>
<stop offset="0.8876" stop-color="#ED693C"/>
<stop offset="1" stop-color="#E83E39"/>
</linearGradient>
<linearGradient id="paint8_linear_137_9020" x1="40.3822" y1="33.5352" x2="63.5196" y2="33.5352" gradientUnits="userSpaceOnUse">
<stop stop-color="#E1306C"/>
<stop offset="1" stop-color="#405DE6"/>
</linearGradient>
<linearGradient id="paint9_linear_137_9020" x1="52.1557" y1="33.4189" x2="70.7808" y2="33.4189" gradientUnits="userSpaceOnUse">
<stop stop-color="#FFF23A"/>
<stop offset="0.0401" stop-color="#FEE62D"/>
<stop offset="0.1171" stop-color="#FED41A"/>
<stop offset="0.1964" stop-color="#FDC90F"/>
<stop offset="0.2809" stop-color="#FDC60B"/>
<stop offset="0.6685" stop-color="#F28F3F"/>
<stop offset="0.8876" stop-color="#ED693C"/>
<stop offset="1" stop-color="#E83E39"/>
</linearGradient>
<linearGradient id="paint10_linear_137_9020" x1="44.6794" y1="30.7963" x2="61.8802" y2="30.7963" gradientUnits="userSpaceOnUse">
<stop stop-color="#FFF23A"/>
<stop offset="0.0401" stop-color="#FEE62D"/>
<stop offset="0.1171" stop-color="#FED41A"/>
<stop offset="0.1964" stop-color="#FDC90F"/>
<stop offset="0.2809" stop-color="#FDC60B"/>
<stop offset="0.6685" stop-color="#F28F3F"/>
<stop offset="0.8876" stop-color="#ED693C"/>
<stop offset="1" stop-color="#E83E39"/>
</linearGradient>
<linearGradient id="paint11_linear_137_9020" x1="36.2045" y1="33.9575" x2="60.1589" y2="33.9575" gradientUnits="userSpaceOnUse">
<stop stop-color="#FFF23A"/>
<stop offset="0.0401" stop-color="#FEE62D"/>
<stop offset="0.1171" stop-color="#FED41A"/>
<stop offset="0.1964" stop-color="#FDC90F"/>
<stop offset="0.2809" stop-color="#FDC60B"/>
<stop offset="0.6685" stop-color="#F28F3F"/>
<stop offset="0.8876" stop-color="#ED693C"/>
<stop offset="1" stop-color="#E83E39"/>
</linearGradient>
<linearGradient id="paint12_linear_137_9020" x1="34.1616" y1="21.737" x2="39.69" y2="21.737" gradientUnits="userSpaceOnUse">
<stop stop-color="#E83E39"/>
<stop offset="0.1124" stop-color="#ED693C"/>
<stop offset="0.3315" stop-color="#F28F3F"/>
<stop offset="0.7191" stop-color="#FDC60B"/>
<stop offset="0.7266" stop-color="#FDC40D"/>
<stop offset="0.7278" stop-color="#FCC20F"/>
<stop offset="0.8697" stop-color="#FCC411"/>
<stop offset="0.9208" stop-color="#FDCB17"/>
<stop offset="0.9572" stop-color="#FDD621"/>
<stop offset="0.9864" stop-color="#FEE730"/>
<stop offset="1" stop-color="#FFF23A"/>
</linearGradient>
<linearGradient id="paint13_linear_137_9020" x1="34.6792" y1="21.659" x2="46.5385" y2="21.659" gradientUnits="userSpaceOnUse">
<stop stop-color="#E1306C"/>
<stop offset="1" stop-color="#405DE6"/>
</linearGradient>
<linearGradient id="paint14_linear_137_9020" x1="25.2263" y1="47.9085" x2="68.9419" y2="73.1736" gradientUnits="userSpaceOnUse">
<stop stop-color="#E1306C"/>
<stop offset="0.3727" stop-color="#405DE6"/>
</linearGradient>
<linearGradient id="paint15_linear_137_9020" x1="7.63261" y1="41.8086" x2="13.1628" y2="41.8086" gradientUnits="userSpaceOnUse">
<stop stop-color="#E1306C"/>
<stop offset="0.0588" stop-color="#D53375"/>
<stop offset="0.6065" stop-color="#6A51C6"/>
<stop offset="0.8503" stop-color="#405DE6"/>
</linearGradient>
</defs>
</svg>
