<?xml version="1.0" encoding="utf-8"?>
<!-- Generator: Adobe Illustrator 24.3.0, SVG Export Plug-In . SVG Version: 6.00 Build 0)  -->
<svg version="1.1" id="Layer_1" xmlns="http://www.w3.org/2000/svg" xmlns:xlink="http://www.w3.org/1999/xlink" x="0px" y="0px"
	 viewBox="0 0 329.76 287.61" style="enable-background:new 0 0 329.76 287.61;" xml:space="preserve">
<style type="text/css">
	.st0{fill:none;stroke:#000000;stroke-miterlimit:10;}
	.st1{fill:none;}
	.st2{font-family:'Belwe-Bold';}
	.st3{font-size:60px;}
	.st4{fill:url(#SVGID_1_);}
	.st5{fill:url(#SVGID_2_);}
	.st6{fill:url(#SVGID_3_);}
	.st7{fill:url(#SVGID_4_);}
	.st8{fill:url(#SVGID_5_);}
	.st9{fill:url(#SVGID_6_);}
	.st10{fill:url(#SVGID_7_);}
	.st11{fill:url(#SVGID_8_);}
	.st12{fill:url(#SVGID_9_);}
	.st13{fill:url(#SVGID_10_);}
	.st14{fill:url(#SVGID_11_);}
	.st15{fill:url(#SVGID_12_);}
	.st16{fill:url(#SVGID_13_);}
	.st17{fill:url(#SVGID_14_);}
	.st18{fill:url(#SVGID_15_);}
	.st19{fill:url(#SVGID_16_);}
	.st20{fill:#FFFFFF;}
	.st21{fill:url(#SVGID_17_);}
	.st22{fill:url(#SVGID_18_);}
	.st23{fill:url(#SVGID_19_);}
	.st24{fill:#141414;}
	.st25{fill:url(#SVGID_20_);}
	.st26{fill:url(#SVGID_21_);}
	.st27{opacity:0.47;fill:#69CAE0;}
</style>
<g>
	<path class="st0" d="M265.37,200.74"/>
	<g>
		
			<rect x="136.1" y="201.76" transform="matrix(1 -9.151256e-03 9.151256e-03 1 -2.0755 2.0773)" class="st1" width="179.71" height="52.15"/>
		<text transform="matrix(1 0 0 1 136.2322 242.8751)" class="st2 st3">uttle</text>
		<g>
			<linearGradient id="SVGID_1_" gradientUnits="userSpaceOnUse" x1="138.3922" y1="222.356" x2="269.5485" y2="222.356">
				<stop  offset="0.2273" style="stop-color:#405DE6"/>
				<stop  offset="1" style="stop-color:#E1306C"/>
			</linearGradient>
			<path class="st4" d="M158.79,239.7c-2.64,2.1-6.3,4.08-9.78,4.08c-5.82,0-8.52-2.76-8.52-8.34v-16.2l-2.1,0.6v-3.48l13.08-3.84
				v19.74c0,2.46,0.42,4.68,3.3,4.68c1.98,0,3.48-0.96,4.14-1.74v-15.72l-2.22,0.48v-3.54l13.2-3.9v26.76h1.98v3.6h-12.24
				L158.79,239.7z"/>
			<linearGradient id="SVGID_2_" gradientUnits="userSpaceOnUse" x1="138.3922" y1="222.356" x2="269.5485" y2="222.356">
				<stop  offset="0.2273" style="stop-color:#405DE6"/>
				<stop  offset="1" style="stop-color:#E1306C"/>
			</linearGradient>
			<path class="st5" d="M178.17,218.1h-2.94v-3.3c4.68-1.32,8.88-4.56,10.74-9.12l3.6,0.66c-0.36,1.5-0.42,3.12-0.42,4.68v2.4h5.34
				l-0.9,4.68h-4.44v17.34c0,1.86,1.56,2.4,2.46,2.4c1.02,0,2.04-0.42,2.88-0.96l1.56,2.58c-3,2.22-6.42,4.32-10.32,4.32
				c-5.46,0-7.56-2.7-7.56-7.92V218.1z"/>
			<linearGradient id="SVGID_3_" gradientUnits="userSpaceOnUse" x1="138.3922" y1="222.356" x2="269.5485" y2="222.356">
				<stop  offset="0.2273" style="stop-color:#405DE6"/>
				<stop  offset="1" style="stop-color:#E1306C"/>
			</linearGradient>
			<path class="st6" d="M200.37,218.1h-2.94v-3.3c4.68-1.32,8.88-4.56,10.74-9.12l3.6,0.66c-0.36,1.5-0.42,3.12-0.42,4.68v2.4h5.34
				l-0.9,4.68h-4.44v17.34c0,1.86,1.56,2.4,2.46,2.4c1.02,0,2.04-0.42,2.88-0.96l1.56,2.58c-3,2.22-6.42,4.32-10.32,4.32
				c-5.46,0-7.56-2.7-7.56-7.92V218.1z"/>
			<linearGradient id="SVGID_4_" gradientUnits="userSpaceOnUse" x1="138.3922" y1="222.356" x2="269.5485" y2="222.356">
				<stop  offset="0.2273" style="stop-color:#405DE6"/>
				<stop  offset="1" style="stop-color:#E1306C"/>
			</linearGradient>
			<path class="st7" d="M220.95,242.88v-3.6h2.16V208.8l-2.04,0.66v-3.48l15.12-5.04v3.72l-2.1,0.72v33.9h2.1v3.6H220.95z"/>
			<linearGradient id="SVGID_5_" gradientUnits="userSpaceOnUse" x1="138.3922" y1="222.356" x2="269.5485" y2="222.356">
				<stop  offset="0.2273" style="stop-color:#405DE6"/>
				<stop  offset="1" style="stop-color:#E1306C"/>
			</linearGradient>
			<path class="st8" d="M269.55,235.98c-3.48,4.62-8.28,7.8-14.94,7.8c-9.06,0-14.64-6.36-14.64-15.9c0-8.34,6.3-15.36,14.76-15.36
				c8.1,0,12.6,5.34,14.7,12.66l-17.04,6.24c1.38,3.42,3.84,5.28,7.56,5.28c2.82,0,5.52-0.96,7.32-3.18L269.55,235.98z
				 M258.33,224.04c-0.84-2.58-2.22-6.96-5.46-6.96c-2.34,0-3.3,1.86-3.3,4.38c0,2.34,0.66,3.9,1.02,5.52L258.33,224.04z"/>
		</g>
	</g>
	<g id="XMLID_1_">
		<g>
			<linearGradient id="SVGID_6_" gradientUnits="userSpaceOnUse" x1="157.4059" y1="126.8493" x2="314.6703" y2="126.8493">
				<stop  offset="0" style="stop-color:#FFF23A"/>
				<stop  offset="0.0401" style="stop-color:#FEE62D"/>
				<stop  offset="0.1171" style="stop-color:#FED41A"/>
				<stop  offset="0.1964" style="stop-color:#FDC90F"/>
				<stop  offset="0.2809" style="stop-color:#FDC60B"/>
				<stop  offset="0.6685" style="stop-color:#F28F3F"/>
				<stop  offset="0.8876" style="stop-color:#ED693C"/>
				<stop  offset="1" style="stop-color:#E83E39"/>
			</linearGradient>
			<path class="st9" d="M232.72,179.53c-0.01,0.01-0.03,0.02-0.04,0.02c-4.19,1.9-8.9,2.9-13.23,3.62
				c-8.6,1.43-16.94-3.55-25.47-2.17c-1.76,0.29-3.51,1.13-4.49,2.61c-0.58,0.87-0.87,1.9-1.49,2.73
				c-2.59,3.44-9.19,2.56-12.82,2.11c-6.47-0.81-13.13-4.06-17.77-8.78c1.01-1.43,1.96-2.9,2.8-4.46c0.85-1.62,1.59-3.25,2.28-4.92
				c1.02-2.53,1.94-5.12,2.58-7.79c1.8,0.41,12.48,2.75,25.95,2.61c0,0.02,0,0.03,0,0.05l0.02,0.45l0.44-0.02l5.41-0.26l0.43-0.02
				l-0.03-0.42c0-0.01,0-0.02,0-0.03c3.24-0.22,6.58-0.62,9.95-1.23l-0.02,0.42l0.52-0.13l7.91-1.93l0.24-0.06l0.06-0.24
				c0.01-0.06,0.03-0.11,0.04-0.17c5.94-1.81,11.77-4.45,17.07-8.22c3.23-2.28,6.27-4.98,9.02-8.17c0,0,8.07-8.11,12.96-16.03
				c4.47-7.21,6.29-14.27-3.01-14.9l-0.02,0.01c-3.68-9.39-10.43-17.96-16.87-24.63c-0.03-0.03-0.06-0.07-0.1-0.1
				c-1.1-1.14-2.19-2.23-3.26-3.26c-1.28-1.26-2.58-2.51-3.89-3.75c-1.22-1.16-2.46-2.3-3.72-3.41c-1.27-1.12-2.55-2.21-3.96-3.2
				l-0.65-0.45c7.72-0.2,13.61-1.98,20.53-5.13c6.78-3.09,14.06-5.42,21.58-5.47c7.03-0.04,8.75,2.59,11.35,8.76
				c1.52,3.64,3.99,7.07,7.36,9.2c3.19,2.01,6.61,2.53,10.28,2.2c0.1-0.01,28.47-2.5,23.41,19.32
				c-3.85,9.77-10.84,18.28-21.91,18.37c6.22,6.81,5.35,13.81-1.5,19.87c-3.83,3.39-8.54,6.44-13.21,8.5
				c-6.43,2.83-11.52,1.73-18.05,0.78c-2.83-0.41-6.84-0.97-10.07-0.11c-1.4,0.37-2.66,1.01-3.6,2.04
				c-0.29,0.32-0.54,0.68-0.73,1.08c-1.28,2.64-0.6,6.13-0.82,8.96c-0.33,4.27-1.64,8.15-4.73,11.23
				C237.53,176.93,235.22,178.39,232.72,179.53z"/>
			<linearGradient id="SVGID_7_" gradientUnits="userSpaceOnUse" x1="244.1759" y1="157.738" x2="249.3259" y2="157.738">
				<stop  offset="0" style="stop-color:#E1306C"/>
				<stop  offset="1" style="stop-color:#405DE6"/>
			</linearGradient>
			<path class="st10" d="M244.18,163.78c0.22-2.83-0.46-6.32,0.82-8.96c0.19-0.4,0.44-0.76,0.73-1.08c0.94-1.03,2.2-1.67,3.6-2.04
				C247.75,156.1,246.93,158.95,244.18,163.78z"/>
			<linearGradient id="SVGID_8_" gradientUnits="userSpaceOnUse" x1="179.9759" y1="105.373" x2="242.0759" y2="105.373">
				<stop  offset="0" style="stop-color:#E1306C"/>
				<stop  offset="1" style="stop-color:#405DE6"/>
			</linearGradient>
			<path class="st11" d="M242.08,145.13c-2.75,3.19-5.79,5.89-9.02,8.17l-1.09-1.57c0.03-0.09,0.04-0.19,0.03-0.22l-0.01-0.11
				l-0.02-0.22l-0.15-1.79l-0.3-3.58c-0.98-9.5-3.03-18.96-6.79-27.78c-1.81-4.44-4.08-8.68-6.75-12.65
				c-2.69-3.97-5.72-7.7-9.48-10.75c-2.78-2.69-5.19-5.8-7.63-8.84c-2.42-3.07-4.77-6.2-7.11-9.33
				c-4.67-6.28-9.26-12.62-13.78-19.01c3.06,0.79,6.21,1.76,9.42,2.91l-0.03,0.04l4.47,4.43l2.23,2.22c0.73,0.75,1.4,1.56,2.11,2.33
				l4.23,4.66c1.36,1.6,2.65,3.25,3.97,4.88l1.98,2.44c0.65,0.83,1.24,1.69,1.86,2.53l3.7,5.09c2.29,3.51,4.65,6.97,6.78,10.59
				c4.37,7.14,8.28,14.57,11.75,22.2c3.47,7.63,6.55,15.46,8.89,23.49L242.08,145.13z"/>
			<path d="M240.76,140.76c0.47,1.43,0.9,2.87,1.31,4.31l-0.74,0.13L240.76,140.76z"/>
			<linearGradient id="SVGID_9_" gradientUnits="userSpaceOnUse" x1="189.5259" y1="100.583" x2="240.7559" y2="100.583">
				<stop  offset="0" style="stop-color:#FFF23A"/>
				<stop  offset="0.0401" style="stop-color:#FEE62D"/>
				<stop  offset="0.1171" style="stop-color:#FED41A"/>
				<stop  offset="0.1964" style="stop-color:#FDC90F"/>
				<stop  offset="0.2809" style="stop-color:#FDC60B"/>
				<stop  offset="0.6685" style="stop-color:#F28F3F"/>
				<stop  offset="0.8876" style="stop-color:#ED693C"/>
				<stop  offset="1" style="stop-color:#E83E39"/>
			</linearGradient>
			<path class="st12" d="M240.76,140.76c-2.09-6.6-4.63-13.05-7.45-19.38c-3.4-7.7-7.39-15.14-11.76-22.33
				c-2.11-3.65-4.59-7.06-6.93-10.56l-3.79-5.06c-0.63-0.83-1.25-1.69-1.91-2.51l-2.02-2.42c-5.2-6.57-11.2-12.45-17.37-18.09
				c5.3,1.89,10.79,4.29,16.46,7.29l-0.03,0.04c5.41,4.84,9.99,10.55,14.07,16.53c4.06,6.01,7.61,12.36,10.53,19
				c0.77,1.64,1.36,3.36,2.06,5.03l1.01,2.52c0.31,0.85,0.58,1.72,0.87,2.58l1.7,5.16l1.39,5.25l0.69,2.63
				c0.24,0.88,0.37,1.78,0.55,2.66l1.04,5.34l0.26,1.33l0.17,1.35l0.34,2.69L240.76,140.76z"/>
			<linearGradient id="SVGID_10_" gradientUnits="userSpaceOnUse" x1="206.1859" y1="106.468" x2="255.0359" y2="106.468">
				<stop  offset="0" style="stop-color:#E1306C"/>
				<stop  offset="1" style="stop-color:#405DE6"/>
			</linearGradient>
			<path class="st13" d="M235.14,89.58c6.44,6.67,13.19,15.24,16.87,24.63c1.87,4.75,2.95,9.72,2.8,14.75l0.23,0.14
				c-4.89,7.92-12.96,16.03-12.96,16.03l-0.01-0.06l-0.71-5.36l-0.36-2.7l-0.19-1.35l-0.26-1.34l-1.08-5.36
				c-0.19-0.88-0.33-1.79-0.57-2.66l-0.71-2.64l-1.43-5.27l-1.75-5.17c-0.29-0.86-0.56-1.73-0.89-2.58l-1.02-2.53
				c-0.71-1.67-1.33-3.39-2.11-5.03c-2.98-6.64-6.6-12.98-10.72-18.97c-4.11-5.91-8.68-11.52-14.08-16.3
				c4.19,2.22,8.48,4.77,12.85,7.68l0.6,0.93c2.69,4.16,5.25,8.41,7.75,12.7c2.51,4.27,4.9,8.61,7.18,13.01
				c2.33,4.37,4.46,8.85,6.38,13.41c1,2.27,1.82,4.6,2.63,6.94l1.05,3.56l0.76,3.59l0.02,0.1c0.18-0.52,0.15-0.89,0.21-1.35
				c0.04-0.43,0.05-0.87,0.08-1.3c0.02-0.88,0.03-1.75-0.01-2.62c-0.04-1.75-0.22-3.49-0.44-5.22c-0.46-3.47-1.24-6.88-2.2-10.24
				l-0.75-2.51l-0.85-2.48c-0.54-1.67-1.24-3.27-1.86-4.9c-0.67-1.62-1.41-3.2-2.11-4.8l-2.33-4.7L235.14,89.58z"/>
			<linearGradient id="SVGID_11_" gradientUnits="userSpaceOnUse" x1="207.3759" y1="135.533" x2="233.0559" y2="135.533">
				<stop  offset="0" style="stop-color:#E1306C"/>
				<stop  offset="1" style="stop-color:#405DE6"/>
			</linearGradient>
			<path class="st14" d="M233.06,153.3c-5.3,3.77-11.13,6.41-17.07,8.22c1.09-4.53,1.14-9.2,0.82-13.78
				c-0.35-4.65-1.12-9.25-2.09-13.79c-0.99-4.55-2.2-9.04-3.57-13.48c-1.14-3.68-2.38-7.32-3.77-10.92
				c2.69,2.88,5.06,6.06,7.27,9.34c2.63,3.95,5.01,8.08,7.21,12.29c2.2,4.22,4.23,8.53,6.1,12.9c0.94,2.19,1.85,4.39,2.69,6.62
				l0.32,0.83l0.09,0.23c0.05,0.14,0.23,0.28,0.39,0.29c0.16,0.01,0.3-0.04,0.41-0.15c0.05-0.04,0.09-0.1,0.11-0.17L233.06,153.3z"
				/>
			<linearGradient id="SVGID_12_" gradientUnits="userSpaceOnUse" x1="146.5059" y1="188.3617" x2="232.6759" y2="188.3617">
				<stop  offset="0" style="stop-color:#E1306C"/>
				<stop  offset="1" style="stop-color:#405DE6"/>
			</linearGradient>
			<path class="st15" d="M219.45,183.17c4.33-0.72,9.04-1.72,13.23-3.62c-7.3,5.01-19.53,11.97-36.06,15.47
				c-22.47,4.75-40.97,0.57-50.11-2.18c1.35-1.55,2.67-3.12,4-4.66c2.32-2.7,4.69-5.41,6.79-8.36c0.04-0.05,0.07-0.1,0.11-0.15
				c4.64,4.72,11.3,7.97,17.77,8.78c3.63,0.45,10.23,1.33,12.82-2.11c0.62-0.83,0.91-1.86,1.49-2.73c0.98-1.48,2.73-2.32,4.49-2.61
				C202.51,179.62,210.85,184.6,219.45,183.17z"/>
			<path d="M231.25,151.55l-0.01-0.11l-0.02-0.22l-0.12-1.47c0.1,0.22,0.18,0.45,0.27,0.68l0.31,0.84l0.07,0.18
				c-0.02-0.07-0.13-0.16-0.22-0.16c-0.08,0-0.15,0.02-0.21,0.08C231.26,151.41,231.24,151.57,231.25,151.55z"/>
			<linearGradient id="SVGID_13_" gradientUnits="userSpaceOnUse" x1="221.5759" y1="103.758" x2="245.5605" y2="103.758">
				<stop  offset="0" style="stop-color:#FFF23A"/>
				<stop  offset="0.0401" style="stop-color:#FEE62D"/>
				<stop  offset="0.1171" style="stop-color:#FED41A"/>
				<stop  offset="0.1964" style="stop-color:#FDC90F"/>
				<stop  offset="0.2809" style="stop-color:#FDC60B"/>
				<stop  offset="0.6685" style="stop-color:#F28F3F"/>
				<stop  offset="0.8876" style="stop-color:#ED693C"/>
				<stop  offset="1" style="stop-color:#E83E39"/>
			</linearGradient>
			<path class="st16" d="M223.67,79.63c1.26,1.1,2.51,2.22,3.74,3.36c2.45,2.27,4.86,4.59,7.22,6.95l2.34,4.61
				c0.71,1.59,1.47,3.16,2.15,4.76c0.63,1.62,1.36,3.2,1.91,4.85l0.88,2.45l0.78,2.5c1,3.33,1.82,6.72,2.33,10.16
				c0.49,3.42,0.72,6.99,0.39,10.36l-0.51-3.65l-0.9-3.63c-0.72-2.38-1.48-4.75-2.41-7.07c-1.79-4.65-3.89-9.16-6.14-13.6
				c-4.2-8.18-8.86-16.09-13.87-23.79C222.29,78.45,222.98,79.04,223.67,79.63z"/>
			<path d="M220.92,76.88c2.25,1.72,6.31,4.97,10.86,9.34c1.1,1.08,2.18,2.16,3.26,3.26c0.04,0.03,0.07,0.07,0.1,0.1l0.01,0.03
				l2.33,4.7c0.7,1.6,1.44,3.18,2.11,4.8c0.62,1.63,1.32,3.23,1.86,4.9l0.85,2.48l0.75,2.51c0.96,3.36,1.74,6.77,2.2,10.24
				c0.22,1.73,0.4,3.47,0.44,5.22c0.04,0.87,0.03,1.74,0.01,2.62c-0.03,0.43-0.04,0.87-0.08,1.3c-0.06,0.46-0.03,0.83-0.21,1.35
				l-0.02-0.1h0.02c0.33-3.37,0.1-6.94-0.39-10.36c-0.51-3.44-1.33-6.83-2.33-10.16l-0.78-2.5l-0.88-2.45
				c-0.55-1.65-1.28-3.23-1.91-4.85c-0.68-1.6-1.44-3.17-2.15-4.76l-2.34-4.61c-2.36-2.36-4.77-4.68-7.22-6.95
				c-1.23-1.14-2.48-2.26-3.74-3.36c-0.69-0.59-1.38-1.18-2.09-1.74C221.36,77.55,221.14,77.22,220.92,76.88z"/>
			<path d="M220.92,76.88c0.22,0.34,0.44,0.67,0.66,1.01c-0.6-0.47-1.2-0.93-1.82-1.35l0.3-0.31
				C220.3,76.41,220.59,76.63,220.92,76.88z"/>
			<path d="M220.32,75.97c0.2,0.3,0.4,0.61,0.6,0.91c-0.33-0.25-0.62-0.47-0.86-0.65L220.32,75.97z"/>
			<path d="M221.58,77.89c5.01,7.7,9.67,15.61,13.87,23.79c2.25,4.44,4.35,8.95,6.14,13.6c0.93,2.32,1.69,4.69,2.41,7.07l0.9,3.63
				l0.51,3.65h-0.02l-0.76-3.59l-1.05-3.56c-0.81-2.34-1.63-4.67-2.63-6.94c-1.92-4.56-4.05-9.04-6.38-13.41
				c-2.28-4.4-4.67-8.74-7.18-13.01c-2.5-4.29-5.06-8.54-7.75-12.7l-0.6-0.93c0.01,0.01,0.02,0.01,0.03,0.02
				c0,0,0.35,0.25,0.99,0.72l-0.3,0.31C220.38,76.96,220.98,77.42,221.58,77.89z"/>
			<path d="M219.07,75.51c-0.01-0.01-0.02-0.01-0.03-0.02l-0.53-0.82l1.05,0.74l0.65,0.45c1.41,0.99,2.69,2.08,3.96,3.2
				c1.26,1.11,2.5,2.25,3.72,3.41c1.31,1.24,2.61,2.49,3.89,3.75c-4.55-4.37-8.61-7.62-10.86-9.34c-0.2-0.3-0.4-0.61-0.6-0.91
				l-0.26,0.26C219.42,75.76,219.07,75.51,219.07,75.51z"/>
			<path d="M215.45,161.19l-0.3,0.3c0.02-0.08,0.04-0.16,0.05-0.24L215.45,161.19z"/>
			<path d="M220.03,84.27c-4.08-5.98-8.66-11.69-14.07-16.53l0.03-0.04c0.06,0.03,0.13,0.07,0.2,0.11
				c5.4,4.78,9.97,10.39,14.08,16.3c4.12,5.99,7.74,12.33,10.72,18.97c0.78,1.64,1.4,3.36,2.11,5.03l1.02,2.53
				c0.33,0.85,0.6,1.72,0.89,2.58l1.75,5.17l1.43,5.27l0.71,2.64c0.24,0.87,0.38,1.78,0.57,2.66l1.08,5.36l0.26,1.34l0.19,1.35
				l0.36,2.7l0.71,5.36c-0.41-1.44-0.84-2.88-1.31-4.31l-0.12-0.95l-0.34-2.69l-0.17-1.35l-0.26-1.33l-1.04-5.34
				c-0.18-0.88-0.31-1.78-0.55-2.66l-0.69-2.63l-1.39-5.25l-1.7-5.16c-0.29-0.86-0.56-1.73-0.87-2.58l-1.01-2.52
				c-0.7-1.67-1.29-3.39-2.06-5.03C227.64,96.63,224.09,90.28,220.03,84.27z"/>
			<path d="M208.05,163.04c0,0.15-0.01,0.3-0.02,0.45c-0.03,0-0.05,0.01-0.08,0.01l-0.4-0.34L208.05,163.04z"/>
			<path d="M208.03,163.49c0,0.03,0,0.05,0,0.08l-0.08-0.07C207.98,163.5,208,163.49,208.03,163.49z"/>
			<path d="M215.65,161.99l-7.91,1.93l-0.52,0.13l0.02-0.42c0.24-0.04,0.47-0.08,0.71-0.13l0.08,0.07c0-0.03,0-0.05,0-0.08
				c2.65-0.51,5.32-1.16,7.96-1.97c-0.01,0.06-0.03,0.11-0.04,0.17l-0.06,0.24L215.65,161.99z"/>
			<path d="M215.45,161.19l-0.25,0.06c1.03-4.37,1.06-8.94,0.73-13.44c-0.35-4.6-1.13-9.16-2.12-13.66
				c-1.01-4.51-2.22-8.97-3.6-13.38c-1.37-4.35-2.84-8.68-4.51-12.9l0.04-0.02c0.56,0.55,1.11,1.12,1.64,1.7
				c1.39,3.6,2.63,7.24,3.77,10.92c1.37,4.44,2.58,8.93,3.57,13.48c0.97,4.54,1.74,9.14,2.09,13.79c0.32,4.58,0.27,9.25-0.82,13.78
				c-2.64,0.81-5.31,1.46-7.96,1.97c0.01-0.15,0.02-0.3,0.02-0.45l7.15-1.79c-0.01,0.08-0.03,0.16-0.05,0.24L215.45,161.19z"/>
			<linearGradient id="SVGID_14_" gradientUnits="userSpaceOnUse" x1="131.8459" y1="109.603" x2="207.3885" y2="109.603">
				<stop  offset="0" style="stop-color:#E1306C"/>
				<stop  offset="1" style="stop-color:#405DE6"/>
			</linearGradient>
			<path class="st17" d="M205.86,134.31c1.22,9.68,1.83,19.48,1.39,29.2l-0.01,0.12c-3.37,0.61-6.71,1.01-9.95,1.23
				c-0.39-5.16-1.02-10.3-2.11-15.36c-1.08-5.06-2.37-10.08-4-14.99c-1.61-4.92-3.42-9.77-5.44-14.53
				c-2.04-4.74-4.23-9.41-6.71-13.95l-3.62-8.05c-1.4-2.59-2.72-5.23-4.2-7.77l-2.35-3.74l-1.17-1.87l-1.31-1.78l-2.61-3.56
				l-2.86-3.36c-3.91-4.4-8.25-8.44-13.15-11.71c-2.47-1.61-5-3.13-7.7-4.3c-2.63-1.18-5.36-2.17-8.21-2.67
				c4.13-1.11,8.83-2.05,14.03-2.58v0.01c4.32,2.32,8.23,5.33,11.79,8.68c3.55,3.36,6.81,7.03,9.73,10.95
				c2.95,3.9,5.68,7.96,8.2,12.15c2.5,4.2,4.83,8.51,7.02,12.88c4.32,8.78,8.17,17.79,11.53,26.98c3.36,9.18,6.36,18.52,8.83,27.97
				l0.97-0.17l-0.01-0.07l-1.87-13.84c-0.13-1.16-0.34-2.31-0.56-3.46l-0.64-3.45l-1.28-6.9c-0.2-1.16-0.47-2.29-0.75-3.43
				l-0.82-3.41l-1.64-6.83l-2.04-6.72l-1.02-3.35c-0.32-1.13-0.79-2.21-1.18-3.31l-2.46-6.58c-0.92-2.15-1.9-4.27-2.85-6.41
				c-0.89-2.17-2.1-4.19-3.17-6.27c-0.57-1.02-1.07-2.08-1.69-3.08l-1.87-2.97c-0.65-0.97-1.21-2-1.92-2.93l-2.1-2.82l-1.05-1.41
				l-1.15-1.33c-0.77-0.88-1.52-1.77-2.31-2.64l-2.5-2.46c-0.83-0.83-1.77-1.53-2.65-2.3c-1.83-1.43-3.73-2.83-5.87-3.77
				c3.13,0.17,6.38,0.52,9.74,1.06c6.22,7.55,11.92,15.53,16.92,23.93c2.51,4.19,4.87,8.47,7.05,12.84c1.1,2.18,2.14,4.39,3.13,6.62
				c0.49,1.12,1,2.24,1.4,3.37l1.06,3.5c1.42,4.67,2.55,9.43,3.6,14.19C204.39,124.66,205.27,129.46,205.86,134.31z"/>
			<path d="M206.52,107.32c0.3,0.74,0.59,1.48,0.86,2.23c-0.53-0.58-1.08-1.15-1.64-1.7L206.52,107.32z"/>
			<path d="M206.19,67.81c-0.07-0.04-0.14-0.08-0.2-0.11l0.03-0.04C206.08,67.71,206.13,67.76,206.19,67.81z"/>
			<path d="M205.63,107.69l-0.85-2.14l1.63,1.61c0.05,0.05,0.09,0.09,0.13,0.14l-0.02,0.02l-0.78,0.53l-0.04,0.02
				C205.68,107.81,205.65,107.75,205.63,107.69z"/>
			<path d="M203.94,154.02l-0.97,0.17l-0.93-7.07C202.7,149.41,203.34,151.71,203.94,154.02z"/>
			<path d="M196.85,164.49l-0.38,0.43c-0.01,0-0.02,0-0.02,0c-0.01-0.14-0.02-0.27-0.03-0.41L196.85,164.49z"/>
			<path d="M196.47,164.92l-0.02,0.02c0-0.01,0-0.01,0-0.02C196.45,164.92,196.46,164.92,196.47,164.92z"/>
			<path d="M196.42,164.51c0.01,0.14,0.02,0.27,0.03,0.41c-1.55,0.09-3.07,0.15-4.56,0.18c-0.01-0.13-0.02-0.27-0.03-0.4
				L196.42,164.51z"/>
			<path d="M193.84,64.83l-4.47-4.43l0.03-0.04c0.04,0.01,0.09,0.03,0.13,0.05c6.17,5.64,12.17,11.52,17.37,18.09l2.02,2.42
				c0.66,0.82,1.28,1.68,1.91,2.51l3.79,5.06c2.34,3.5,4.82,6.91,6.93,10.56c4.37,7.19,8.36,14.63,11.76,22.33
				c2.82,6.33,5.36,12.78,7.45,19.38l0.57,4.44l0.74-0.13l0.01,0.06l-0.74,0.13c-2.34-8.03-5.42-15.86-8.89-23.49
				c-3.47-7.63-7.38-15.06-11.75-22.2c-2.13-3.62-4.49-7.08-6.78-10.59l-3.7-5.09c-0.62-0.84-1.21-1.7-1.86-2.53l-1.98-2.44
				c-1.32-1.63-2.61-3.28-3.97-4.88l-4.23-4.66c-0.71-0.77-1.38-1.58-2.11-2.33L193.84,64.83z"/>
			<path d="M193.54,76.61c-4.6-6.33-9.11-12.72-13.56-19.16c4.52,6.39,9.11,12.73,13.78,19.01c2.34,3.13,4.69,6.26,7.11,9.33
				c2.44,3.04,4.85,6.15,7.63,8.84c3.76,3.05,6.79,6.78,9.48,10.75c2.67,3.97,4.94,8.21,6.75,12.65c3.76,8.82,5.81,18.28,6.79,27.78
				l0.3,3.58l0.15,1.79l0.02,0.22l0.01,0.11c0.01,0.03,0,0.13-0.03,0.22c-0.02,0.07-0.06,0.13-0.11,0.17
				c-0.11,0.11-0.25,0.16-0.41,0.15c-0.16-0.01-0.34-0.15-0.39-0.29l-0.09-0.23l-0.32-0.83c-0.84-2.23-1.75-4.43-2.69-6.62
				c-1.87-4.37-3.9-8.68-6.1-12.9c-2.2-4.21-4.58-8.34-7.21-12.29c-2.21-3.28-4.58-6.46-7.27-9.34c-0.27-0.75-0.56-1.49-0.86-2.23
				l0.02-0.02c3.38,3.36,6.25,7.16,8.86,11.09c2.64,4,5.02,8.16,7.21,12.4c2.2,4.25,4.21,8.59,6.08,12.98
				c0.84,1.99,1.65,3.97,2.41,5.98l0.12,1.47l0.02,0.22l0.01,0.11c-0.01,0.02,0.01-0.14,0.07-0.18c0.06-0.06,0.13-0.08,0.21-0.08
				c0.09,0,0.2,0.09,0.22,0.16l-0.07-0.18l-0.31-0.84c-0.09-0.23-0.17-0.46-0.27-0.68l-0.02-0.31l-0.29-3.55
				c-0.94-9.45-2.94-18.86-6.64-27.62c-1.77-4.41-4.01-8.63-6.64-12.58c-2.64-3.93-5.67-7.68-9.32-10.66l-0.02-0.01
				c-1.45-1.37-2.73-2.86-3.97-4.38c-1.25-1.51-2.45-3.06-3.64-4.61C198.17,82.93,195.85,79.78,193.54,76.61z"/>
			<linearGradient id="SVGID_15_" gradientUnits="userSpaceOnUse" x1="170.2859" y1="109.223" x2="231.0959" y2="109.223">
				<stop  offset="0" style="stop-color:#FFF23A"/>
				<stop  offset="0.0401" style="stop-color:#FEE62D"/>
				<stop  offset="0.1171" style="stop-color:#FED41A"/>
				<stop  offset="0.1964" style="stop-color:#FDC90F"/>
				<stop  offset="0.2809" style="stop-color:#FDC60B"/>
				<stop  offset="0.6685" style="stop-color:#F28F3F"/>
				<stop  offset="0.8876" style="stop-color:#ED693C"/>
				<stop  offset="1" style="stop-color:#E83E39"/>
			</linearGradient>
			<path class="st18" d="M193.54,76.61c2.31,3.17,4.63,6.32,7.02,9.42c1.19,1.55,2.39,3.1,3.64,4.61c1.24,1.52,2.52,3.01,3.97,4.38
				l0.02,0.01c3.65,2.98,6.68,6.73,9.32,10.66c2.63,3.95,4.87,8.17,6.64,12.58c3.7,8.76,5.7,18.17,6.64,27.62l0.29,3.55l0.02,0.31
				c-0.76-2.01-1.57-3.99-2.41-5.98c-1.87-4.39-3.88-8.73-6.08-12.98c-2.19-4.24-4.57-8.4-7.21-12.4
				c-2.61-3.93-5.48-7.73-8.86-11.09c-0.04-0.05-0.08-0.09-0.13-0.14l-1.63-1.61l0.85,2.14c0.02,0.06,0.05,0.12,0.07,0.18
				c1.67,4.22,3.14,8.55,4.51,12.9c1.38,4.41,2.59,8.87,3.6,13.38c0.99,4.5,1.77,9.06,2.12,13.66c0.33,4.5,0.3,9.07-0.73,13.44
				l-7.15,1.79c0.38-9.65-0.28-19.27-1.52-28.82c-0.61-4.86-1.52-9.68-2.48-14.48c-1.07-4.78-2.22-9.55-3.67-14.23l-1.08-3.52
				c-0.42-1.17-0.92-2.28-1.42-3.4c-1.01-2.24-2.06-4.45-3.17-6.63c-2.23-4.36-4.65-8.63-7.21-12.8
				c-5.11-8.35-10.9-16.27-17.21-23.75c3.13,0.5,6.37,1.17,9.69,2.04C184.43,63.89,188.94,70.28,193.54,76.61z"/>
			<path d="M191.89,165.1c0,0.02,0,0.03,0,0.05l-0.05-0.05C191.86,165.1,191.87,165.1,191.89,165.1z"/>
			<path d="M191.86,164.7c0.01,0.13,0.02,0.27,0.03,0.4c-0.02,0-0.03,0-0.05,0l-0.4-0.38L191.86,164.7z"/>
			<path d="M191.02,165.11c0.27,0,0.55-0.01,0.82-0.01l0.05,0.05c0-0.02,0-0.03,0-0.05c1.49-0.03,3.01-0.09,4.56-0.18
				c0,0.01,0,0.01,0,0.02l0.02-0.02c0.27-0.02,0.54-0.04,0.82-0.06c0,0.01,0,0.02,0,0.03l0.03,0.42l-0.43,0.02l-5.41,0.26
				l-0.44,0.02l-0.02-0.45C191.02,165.14,191.02,165.13,191.02,165.11z"/>
			<path d="M189.53,60.41c-0.04-0.02-0.09-0.04-0.13-0.05l0.03-0.04C189.46,60.35,189.5,60.38,189.53,60.41z"/>
			<path d="M187.5,79.16c2.56,4.17,4.98,8.44,7.21,12.8c1.11,2.18,2.16,4.39,3.17,6.63c0.5,1.12,1,2.23,1.42,3.4l1.08,3.52
				c1.45,4.68,2.6,9.45,3.67,14.23c0.96,4.8,1.87,9.62,2.48,14.48c1.24,9.55,1.9,19.17,1.52,28.82l-0.5,0.12l0.4,0.34
				c-0.24,0.05-0.47,0.09-0.71,0.13l0.01-0.12c0.44-9.72-0.17-19.52-1.39-29.2c-0.59-4.85-1.47-9.65-2.41-14.45
				c-1.05-4.76-2.18-9.52-3.6-14.19l-1.06-3.5c-0.4-1.13-0.91-2.25-1.4-3.37c-0.99-2.23-2.03-4.44-3.13-6.62
				c-2.18-4.37-4.54-8.65-7.05-12.84c-5-8.4-10.7-16.38-16.92-23.93C176.6,62.89,182.39,70.81,187.5,79.16z"/>
			<linearGradient id="SVGID_16_" gradientUnits="userSpaceOnUse" x1="145.8759" y1="100.6513" x2="202.0359" y2="100.6513">
				<stop  offset="0" style="stop-color:#FFF23A"/>
				<stop  offset="0.0401" style="stop-color:#FEE62D"/>
				<stop  offset="0.1171" style="stop-color:#FED41A"/>
				<stop  offset="0.1964" style="stop-color:#FDC90F"/>
				<stop  offset="0.2809" style="stop-color:#FDC60B"/>
				<stop  offset="0.6685" style="stop-color:#F28F3F"/>
				<stop  offset="0.8876" style="stop-color:#ED693C"/>
				<stop  offset="1" style="stop-color:#E83E39"/>
			</linearGradient>
			<path class="st19" d="M177.83,71.31c0.7,0.94,1.24,1.98,1.87,2.96l1.82,2.98c0.61,0.99,1.1,2.05,1.65,3.08
				c1.05,2.08,2.23,4.09,3.1,6.26c0.92,2.14,1.88,4.26,2.78,6.41l2.38,6.57c0.37,1.1,0.84,2.18,1.14,3.3l0.99,3.36l1.99,6.7
				l1.61,6.8l0.81,3.4c0.28,1.13,0.55,2.27,0.73,3.42l1.26,6.88l0.62,3.44c0.22,1.15,0.43,2.29,0.56,3.45l0.9,6.8
				c-2.09-7.14-4.46-14.18-7.03-21.15c-3.42-9.2-7.25-18.25-11.69-27.01c-2.24-4.37-4.62-8.67-7.17-12.86
				c-2.57-4.18-5.35-8.24-8.35-12.13c-3-3.88-6.34-7.51-9.96-10.82c-3.63-3.3-7.6-6.25-11.96-8.5v-0.01
				c4.52-0.45,9.42-0.6,14.67-0.29c2.13,0.97,3.99,2.4,5.8,3.87c0.86,0.78,1.79,1.49,2.6,2.33l2.45,2.5
				c0.77,0.87,1.5,1.78,2.26,2.66l1.12,1.34l1.02,1.42L177.83,71.31z"/>
			<path d="M169.07,60.42l2.5,2.46c0.79,0.87,1.54,1.76,2.31,2.64l1.15,1.33l1.05,1.41l2.1,2.82c0.71,0.93,1.27,1.96,1.92,2.93
				l1.87,2.97c0.62,1,1.12,2.06,1.69,3.08c1.07,2.08,2.28,4.1,3.17,6.27c0.95,2.14,1.93,4.26,2.85,6.41l2.46,6.58
				c0.39,1.1,0.86,2.18,1.18,3.31l1.02,3.35l2.04,6.72l1.64,6.83l0.82,3.41c0.28,1.14,0.55,2.27,0.75,3.43l1.28,6.9l0.64,3.45
				c0.22,1.15,0.43,2.3,0.56,3.46l1.87,13.84c-0.6-2.31-1.24-4.61-1.9-6.9l-0.9-6.8c-0.13-1.16-0.34-2.3-0.56-3.45l-0.62-3.44
				l-1.26-6.88c-0.18-1.15-0.45-2.29-0.73-3.42l-0.81-3.4l-1.61-6.8l-1.99-6.7l-0.99-3.36c-0.3-1.12-0.77-2.2-1.14-3.3L189.05,93
				c-0.9-2.15-1.86-4.27-2.78-6.41c-0.87-2.17-2.05-4.18-3.1-6.26c-0.55-1.03-1.04-2.09-1.65-3.08l-1.82-2.98
				c-0.63-0.98-1.17-2.02-1.87-2.96l-2.03-2.84l-1.02-1.42l-1.12-1.34c-0.76-0.88-1.49-1.79-2.26-2.66l-2.45-2.5
				c-0.81-0.84-1.74-1.55-2.6-2.33c-1.81-1.47-3.67-2.9-5.8-3.87c2.14,0.94,4.04,2.34,5.87,3.77
				C167.3,58.89,168.24,59.59,169.07,60.42z"/>
			<path d="M157.39,179.65c0-0.01,5.46-9.02,7.41-17.22c0,0,0.09,0.02,0.27,0.07c-0.64,2.67-1.56,5.26-2.58,7.79
				c-0.69,1.67-1.43,3.3-2.28,4.92c-0.84,1.56-1.79,3.03-2.8,4.46C157.4,179.66,157.4,179.66,157.39,179.65z"/>
			<path d="M167.4,74.28c-2.92-3.92-6.18-7.59-9.73-10.95c-3.56-3.35-7.47-6.36-11.79-8.68c4.36,2.25,8.33,5.2,11.96,8.5
				c3.62,3.31,6.96,6.94,9.96,10.82c3,3.89,5.78,7.95,8.35,12.13c2.55,4.19,4.93,8.49,7.17,12.86c4.44,8.76,8.27,17.81,11.69,27.01
				c2.57,6.97,4.94,14.01,7.03,21.15l0.93,7.07l0.97-0.17l0.01,0.07l-0.97,0.17c-2.47-9.45-5.47-18.79-8.83-27.97
				c-3.36-9.19-7.21-18.2-11.53-26.98c-2.19-4.37-4.52-8.68-7.02-12.88C173.08,82.24,170.35,78.18,167.4,74.28z"/>
			<path d="M151.92,135.32c1.06-1.41,2.16-2.72,2.91-4.26c0.78-1.49,1.54-3.03,1.94-4.7c0.43-1.66,0.65-3.39,0.67-5.12
				c0.03-1.73-0.1-3.48-0.47-5.18l0.1-0.03c0.97,3.38,1.18,7,0.48,10.51c-0.31,1.75-0.9,3.5-1.86,5.03
				c-0.25,0.37-0.49,0.75-0.76,1.11c-0.3,0.34-0.59,0.68-0.9,1c-0.59,0.68-1.35,1.18-2.05,1.72L151.92,135.32z"/>
			<path d="M150.53,257.52c0.99-0.53,1.93-1.15,2.83-1.84c-1.61,1.39-3.43,2.57-5.4,3.44c0.22-0.11,0.44-0.23,0.66-0.36
				C149.28,258.37,149.92,257.97,150.53,257.52z"/>
			<path class="st20" d="M140.6,103.2c3.19,3.86,4.67,8.97,4.56,13.9c-0.17,4.95-1.8,9.82-4.8,13.61c-2.96,3.8-7.49,6.32-12.23,6.36
				c-4.76,0.11-9.32-2.32-12.57-5.95c-3.28-3.66-5.22-8.64-5.27-13.7c-0.06-5.05,1.8-10.07,4.99-13.8c3.19-3.72,7.66-6.25,12.48-6.4
				C132.57,96.98,137.46,99.32,140.6,103.2z M138.55,119.11c0.69-0.79-2.93-7.18-9.72-7.5c-6.83-0.33-11.77,7.91-11.15,8.75
				c0.51,0.7,4.64-3.93,10.93-3.64C134.85,117.02,137.97,119.76,138.55,119.11z"/>
			<path d="M140,60.03c-2.67-1.21-5.45-2.24-8.33-2.74v-0.02c0.06-0.01,0.12-0.03,0.18-0.05c2.85,0.5,5.58,1.49,8.21,2.67
				c2.7,1.17,5.23,2.69,7.7,4.3c4.9,3.27,9.24,7.31,13.15,11.71l2.86,3.36l2.61,3.56l1.31,1.78l1.17,1.87l2.35,3.74
				c1.48,2.54,2.8,5.18,4.2,7.77l3.62,8.05c2.48,4.54,4.67,9.21,6.71,13.95c2.02,4.76,3.83,9.61,5.44,14.53
				c1.63,4.91,2.92,9.93,4,14.99c1.09,5.06,1.72,10.2,2.11,15.36c-0.28,0.02-0.55,0.04-0.82,0.06l0.38-0.43l-0.43,0.02
				c-0.35-4.99-0.95-9.96-1.98-14.86c-1.06-5.03-2.31-10.04-3.91-14.93c-1.58-4.91-3.36-9.75-5.35-14.5
				c-2.01-4.74-4.19-9.43-6.63-13.95l-0.01-0.02l-0.01-0.01l-3.56-8.05c-1.38-2.58-2.68-5.22-4.14-7.76l-2.31-3.74l-1.16-1.87
				l-1.29-1.78l-2.57-3.57l-2.83-3.36c-3.86-4.4-8.17-8.46-13.03-11.75C145.2,62.75,142.68,61.22,140,60.03z"/>
			<path d="M138.67,147.62c-2.94,0.8-5.97,1.24-9,1.34c-0.04-0.04-0.07-0.09-0.11-0.13c1.45-0.16,2.88-0.42,4.3-0.73
				c1.55-0.33,3.09-0.73,4.58-1.25c1.48-0.53,2.9-1.19,4.31-1.85c1.41-0.67,2.74-1.44,4.07-2.36l0.08,0.07
				c-0.96,1.32-2.28,2.35-3.69,3.18C141.79,146.71,140.22,147.18,138.67,147.62z"/>
			<path d="M128.83,111.61c6.79,0.32,10.41,6.71,9.72,7.5c-0.58,0.65-3.7-2.09-9.94-2.39c-6.29-0.29-10.42,4.34-10.93,3.64
				C117.06,119.52,122,111.28,128.83,111.61z"/>
			<path d="M179.8,129.44c0,0.01,0.01,0.01,0.01,0.02L179.8,129.44z M144.46,85.08c-4.9-3.73-10.43-6.74-16.46-8.2
				c0.04-0.04,0.07-0.07,0.09-0.1c2.94,0.64,5.78,1.67,8.5,2.96c2.88,1.36,5.61,3.04,8.17,4.94c5.15,3.77,9.71,8.27,13.92,13.05
				c4.19,4.79,8.01,9.91,11.53,15.21c3.52,5.3,6.73,10.78,9.59,16.49c0.76,1.39,1.54,2.76,2.28,4.15c0.69,1.42,1.46,2.81,2.1,4.26
				c1.35,2.86,2.55,5.79,3.63,8.77c1.04,2.99,1.96,6.03,2.67,9.12c0.67,2.95,1.22,5.91,1.38,8.97l-0.42,0.02l0.4,0.38
				c-0.27,0-0.55,0.01-0.82,0.01c-0.16-3.05-0.73-6.16-1.44-9.17c-0.73-3.05-1.65-6.05-2.7-9c-1.07-2.94-2.26-5.85-3.6-8.68
				c-0.64-1.43-1.39-2.81-2.08-4.21c-0.74-1.39-1.51-2.75-2.27-4.13l-0.01-0.02v-0.01c-2.82-5.65-6.07-11.11-9.49-16.43
				c-3.45-5.32-7.18-10.45-11.3-15.26C154.01,93.4,149.53,88.88,144.46,85.08z"/>
			<path d="M131.85,57.22c-0.06,0.02-0.12,0.04-0.18,0.05l0.01-0.08C131.74,57.2,131.79,57.21,131.85,57.22z"/>
			<linearGradient id="SVGID_17_" gradientUnits="userSpaceOnUse" x1="118.2059" y1="110.983" x2="196.4159" y2="110.983">
				<stop  offset="0" style="stop-color:#FFF23A"/>
				<stop  offset="0.0401" style="stop-color:#FEE62D"/>
				<stop  offset="0.1171" style="stop-color:#FED41A"/>
				<stop  offset="0.1964" style="stop-color:#FDC90F"/>
				<stop  offset="0.2809" style="stop-color:#FDC60B"/>
				<stop  offset="0.6685" style="stop-color:#F28F3F"/>
				<stop  offset="0.8876" style="stop-color:#ED693C"/>
				<stop  offset="1" style="stop-color:#E83E39"/>
			</linearGradient>
			<path class="st21" d="M129.59,69.09c0.99,0.23,1.96,0.47,2.94,0.73c3.43,0.92,6.79,2.11,10.06,3.49
				c1.62,0.74,3.25,1.45,4.79,2.34c0.79,0.43,1.57,0.84,2.33,1.35c0.77,0.49,1.51,0.95,2.24,1.43c-0.55-1.58-1.46-3.02-2.52-4.31
				c-0.49-0.68-1.11-1.25-1.68-1.87c-0.61-0.57-1.24-1.14-1.88-1.68c-2.62-2.11-5.66-3.67-8.79-4.85c-1.56-0.67-3.19-1.07-4.8-1.56
				c-1.62-0.42-3.28-0.71-4.92-1.04c-1.67-0.21-3.33-0.46-5-0.63l-4.15-0.26c3.34-1.59,7.88-3.44,13.46-4.96v0.02
				c2.88,0.5,5.66,1.53,8.33,2.74c2.68,1.19,5.2,2.72,7.64,4.33c4.86,3.29,9.17,7.35,13.03,11.75l2.83,3.36l2.57,3.57l1.29,1.78
				l1.16,1.87l2.31,3.74c1.46,2.54,2.76,5.18,4.14,7.76l3.56,8.05l0.01,0.01l0.01,0.02c2.44,4.52,4.62,9.21,6.63,13.95
				c1.99,4.75,3.77,9.59,5.35,14.5c1.6,4.89,2.85,9.9,3.91,14.93c1.03,4.9,1.63,9.87,1.98,14.86l-4.56,0.19
				c-0.16-3.06-0.71-6.02-1.38-8.97c-0.71-3.09-1.63-6.13-2.67-9.12c-1.08-2.98-2.28-5.91-3.63-8.77c-0.64-1.45-1.41-2.84-2.1-4.26
				c-0.74-1.39-1.52-2.76-2.28-4.15c-2.86-5.71-6.07-11.19-9.59-16.49c-3.52-5.3-7.34-10.42-11.53-15.21
				c-4.21-4.78-8.77-9.28-13.92-13.05c-2.56-1.9-5.29-3.58-8.17-4.94c-2.72-1.29-5.56-2.32-8.5-2.96c0.6-0.7,1.15-1.44,1.62-2.26
				c0.18-0.34,0.36-0.7,0.49-1.09c0.12-0.4,0.23-0.85,0.1-1.39c-0.13-0.55-0.68-0.99-1.14-1.07L129.59,69.09z"/>
			<path d="M129.67,148.96c-0.17,0.01-0.34,0.02-0.51,0.02v-0.1c0.13-0.01,0.27-0.03,0.4-0.05
				C129.6,148.87,129.63,148.92,129.67,148.96z"/>
			<path d="M135.06,159.75c-2.08-6.16-6.02-11.68-11.12-15.82l0.12-0.16c1.99,1.49,3.84,3.19,5.5,5.06
				c-0.13,0.02-0.27,0.04-0.4,0.05v0.1c0.17,0,0.34-0.01,0.51-0.02c2.69,3.07,4.86,6.6,6.33,10.45c2.45,6.26,2.75,13.14,2.35,19.72
				c-0.14,3.31-0.44,6.66-1.15,9.96c-0.37,1.65-0.82,3.29-1.47,4.87c-0.67,1.58-1.37,3.05-2.12,4.54c-1.51,2.95-3.16,5.84-4.84,8.65
				c-1.63,2.84-3.13,5.77-4.68,8.69l-0.18-0.08c1.07-3.13,2.27-6.21,3.68-9.22c1.41-3,2.89-5.91,4.24-8.9
				c0.68-1.47,1.39-2.98,1.98-4.45c0.57-1.47,1.08-2.99,1.45-4.55c0.79-3.12,1.21-6.35,1.48-9.61
				C137.34,172.53,137.24,165.91,135.06,159.75z"/>
			<linearGradient id="SVGID_18_" gradientUnits="userSpaceOnUse" x1="111.5359" y1="71.043" x2="129.5859" y2="71.043">
				<stop  offset="0" style="stop-color:#E83E39"/>
				<stop  offset="0.1124" style="stop-color:#ED693C"/>
				<stop  offset="0.3315" style="stop-color:#F28F3F"/>
				<stop  offset="0.7191" style="stop-color:#FDC60B"/>
				<stop  offset="0.7266" style="stop-color:#FDC40D"/>
				<stop  offset="0.7278" style="stop-color:#FCC20F"/>
				<stop  offset="0.8697" style="stop-color:#FCC411"/>
				<stop  offset="0.9208" style="stop-color:#FDCB17"/>
				<stop  offset="0.9572" style="stop-color:#FDD621"/>
				<stop  offset="0.9864" style="stop-color:#FEE730"/>
				<stop  offset="1" style="stop-color:#FFF23A"/>
			</linearGradient>
			<path class="st22" d="M122.12,67.58c2.51,0.41,5,0.92,7.47,1.51l-0.43,1.88c-0.47-0.12-0.88-0.09-1.27-0.05
				c-1.53,0.21-2.89,0.69-4.29,1.12l-4.14,1.34c-2.59,0.82-5.19,1.59-7.82,2.27c-0.02-3.08-0.07-6.15-0.1-9.21
				C115.07,66.6,118.61,67.01,122.12,67.58z"/>
			<path d="M127.57,76.67c0.17,0.04,0.35,0.07,0.52,0.11c-0.02,0.03-0.05,0.06-0.09,0.1c-0.15-0.04-0.3-0.08-0.45-0.11L127.57,76.67
				z"/>
			<path d="M123.91,221.62c2.95-6.6,6.8-12.73,11.13-18.47c1.11-1.42,2.21-2.83,3.4-4.2c1.21-1.38,2.45-2.64,3.64-3.95
				c2.4-2.62,4.7-5.32,7.06-8.01c2.35-2.68,4.7-5.34,6.76-8.18c1.03-1.42,1.99-2.89,2.85-4.4c0.84-1.52,1.62-3.12,2.33-4.72
				c1.4-3.23,2.62-6.56,3.27-10c0.7-3.44,0.9-6.98,0.72-10.5c-0.31-7.07-2.19-14.04-4.99-20.59c3.21,6.37,5.31,13.35,5.97,20.52
				c0.29,3.59,0.17,7.23-0.46,10.8c-0.14,0.87-0.32,1.73-0.52,2.58c-0.18-0.05-0.27-0.07-0.27-0.07c-1.95,8.2-7.41,17.21-7.41,17.22
				c0.01,0.01,0.01,0.01,0.02,0.02c-0.04,0.05-0.07,0.1-0.11,0.15c-2.1,2.95-4.47,5.66-6.79,8.36c-1.33,1.54-2.65,3.11-4,4.66
				c-0.99,1.16-2,2.31-3.02,3.44c-1.19,1.34-2.44,2.63-3.57,3.95c-1.14,1.32-2.21,2.74-3.29,4.14c-4.3,5.6-8.13,11.59-11.06,17.99
				c-0.73,1.6-1.39,3.24-1.93,4.88c-0.25,0.78-0.44,1.68-0.66,2.51c-0.18,0.86-0.37,1.72-0.53,2.58c-0.58,3.44-0.85,6.95-0.45,10.4
				c0.45,3.41,1.52,6.8,3.56,9.59c2.01,2.79,4.79,5.12,7.9,6.58c3.15,1.39,6.83,1.53,10.28,1.04c2.37-0.4,4.67-1.23,6.79-2.42
				c-0.61,0.45-1.25,0.85-1.91,1.24c-0.22,0.13-0.44,0.25-0.66,0.36c-1.32,0.59-2.7,1.04-4.12,1.34c-1.77,0.37-3.59,0.46-5.39,0.42
				c-1.82-0.06-3.65-0.41-5.37-1.08c-0.85-0.33-1.69-0.75-2.45-1.26c-0.75-0.51-1.56-0.95-2.24-1.56l-1.06-0.87
				c-0.35-0.29-0.66-0.64-0.99-0.96c-0.67-0.63-1.23-1.36-1.8-2.08c-2.26-2.93-3.5-6.53-4.07-10.14c-0.52-3.64-0.32-7.32,0.28-10.9
				c0.15-0.89,0.34-1.78,0.52-2.67c0.23-0.89,0.4-1.73,0.68-2.66C122.51,224.95,123.18,223.27,123.91,221.62z"/>
			<path d="M127.99,84.27c5.69,0.51,11.14,3.07,15.26,6.96l1.54,1.46l1.4,1.6c0.97,1.02,1.73,2.22,2.59,3.33
				c0.8,1.16,1.5,2.39,2.25,3.57c0.66,1.24,1.3,2.49,1.94,3.73l-2.17-3.59c-0.81-1.14-1.56-2.32-2.42-3.42
				c-0.89-1.07-1.67-2.23-2.67-3.2l-1.42-1.52l-1.55-1.39c-2.11-1.77-4.37-3.42-6.91-4.49c-2.51-1.12-5.19-1.82-7.93-2.05
				c-4.43-0.44-8.89,0.38-13.11,1.87c1.05-0.59,2.09-1.21,3.1-1.87C121.17,84.38,124.57,83.98,127.99,84.27z"/>
			<linearGradient id="SVGID_19_" gradientUnits="userSpaceOnUse" x1="113.2259" y1="70.788" x2="151.9459" y2="70.788">
				<stop  offset="0" style="stop-color:#E1306C"/>
				<stop  offset="1" style="stop-color:#405DE6"/>
			</linearGradient>
			<path class="st23" d="M122.26,66.69c-2.99-0.51-5.99-0.91-9.03-1.14l4.21-2.4l4.84,0.26c1.65,0.15,3.29,0.38,4.94,0.57
				c1.62,0.32,3.25,0.6,4.86,0.98c1.59,0.45,3.21,0.81,4.75,1.42c1.58,0.5,3.06,1.23,4.56,1.93l2.16,1.22
				c0.69,0.45,1.36,0.93,2.05,1.39c0.65,0.51,1.29,1.04,1.92,1.57c0.58,0.59,1.21,1.13,1.73,1.78c1.09,1.24,2.06,2.62,2.7,4.16
				c-1.54-1.04-2.84-2.14-4.44-3c-1.51-0.96-3.12-1.74-4.72-2.55c-3.26-1.49-6.62-2.76-10.06-3.78
				C129.3,68.08,125.8,67.3,122.26,66.69z"/>
			<polygon points="117.57,63.07 117.44,63.15 117.32,63.14 			"/>
			<path d="M112.25,65.49c0.88-0.56,2.6-1.6,5.08-2.83c0.28-0.14,0.58-0.28,0.88-0.43l4.15,0.26c1.67,0.17,3.33,0.42,5,0.63
				c1.64,0.33,3.3,0.62,4.92,1.04c1.61,0.49,3.24,0.89,4.8,1.56c3.13,1.18,6.17,2.74,8.79,4.85c0.64,0.54,1.27,1.11,1.88,1.68
				c0.57,0.62,1.19,1.19,1.68,1.87c1.06,1.29,1.97,2.73,2.52,4.31c-0.64-1.54-1.61-2.92-2.7-4.16c-0.52-0.65-1.15-1.19-1.73-1.78
				c-0.63-0.53-1.27-1.06-1.92-1.57c-0.69-0.46-1.36-0.94-2.05-1.39l-2.16-1.22c-1.5-0.7-2.98-1.43-4.56-1.93
				c-1.54-0.61-3.16-0.97-4.75-1.42c-1.61-0.38-3.24-0.66-4.86-0.98c-1.65-0.19-3.29-0.42-4.94-0.57l-4.84-0.26l0.13-0.08
				l-0.25,0.07l0.12,0.01l-4.21,2.4C112.9,65.53,112.58,65.51,112.25,65.49z"/>
			<path d="M114.64,23.55c0.37-1,0.77-1.99,1.2-2.96l0.18,0.08c-0.29,0.75-0.55,1.51-0.8,2.28
				C115.03,23.18,114.83,23.38,114.64,23.55z"/>
			<path d="M112.25,65.49c0.33,0.02,0.65,0.04,0.98,0.06l-1.43,0.82l-0.13-0.51C111.78,65.8,111.97,65.67,112.25,65.49z"/>
			<path d="M111.79,88.31c0.98-0.43,1.99-0.82,3-1.18c-2.86,1.63-5.85,3.04-8.93,4.23C107.77,90.22,109.75,89.19,111.79,88.31z"/>
			<path class="st24" d="M113.73,20.83c0.01,0.02,0.03-0.03,0,0.09c-0.02,0.1-0.13,0.29-0.27,0.47c-0.29,0.39-0.72,0.78-1.19,1.14
				c-0.94,0.73-2.03,1.38-3.13,1.97c-2.24,1.19-4.6,2.19-7,3.1c-4.81,1.8-9.79,3.21-14.84,4.23c-2.52,0.52-5.08,0.94-7.64,1.29
				c-2.57,0.36-5.14,0.66-7.72,0.87c-2.59,0.17-5.18,0.28-7.77,0.17c-1.29-0.08-2.58-0.2-3.85-0.47c-0.62-0.14-1.25-0.31-1.82-0.57
				c-0.19-0.09-0.38-0.19-0.55-0.31c-0.22-0.29-0.45-0.57-0.68-0.84c-0.01-0.02-0.02-0.05-0.02-0.07c-0.08-0.58,0.3-1.14,0.7-1.61
				c0.41-0.47,0.9-0.89,1.41-1.28c1.02-0.77,2.15-1.4,3.28-2.01c2.3-1.17,4.71-2.12,7.15-2.94c2.43-0.83,4.91-1.54,7.4-2.14
				c2.49-0.61,4.97-1.13,7.49-1.53c5.04-0.8,10.15-1.33,15.25-1.47c2.55-0.07,5.1-0.05,7.61,0.19c1.25,0.12,2.49,0.29,3.66,0.58
				c0.58,0.14,1.15,0.32,1.63,0.53C113.32,20.42,113.72,20.76,113.73,20.83z"/>
			<path d="M111.67,65.86l-0.1-0.41c0.23,0.01,0.45,0.02,0.68,0.04C111.97,65.67,111.78,65.8,111.67,65.86z"/>
			<path d="M132.53,69.82c-0.98-0.26-1.95-0.5-2.94-0.73c-2.47-0.59-4.96-1.1-7.47-1.51c-3.51-0.57-7.05-0.98-10.58-1.14
				c0-0.16,0-0.31,0-0.47l0.02-0.02c0,0,0.04-0.03,0.11-0.09l0.13,0.51l1.43-0.82c3.04,0.23,6.04,0.63,9.03,1.14
				c3.54,0.61,7.04,1.39,10.47,2.41c3.44,1.02,6.8,2.29,10.06,3.78c1.6,0.81,3.21,1.59,4.72,2.55c1.6,0.86,2.9,1.96,4.44,3
				c-0.73-0.48-1.47-0.94-2.24-1.43c-0.76-0.51-1.54-0.92-2.33-1.35c-1.54-0.89-3.17-1.6-4.79-2.34
				C139.32,71.93,135.96,70.74,132.53,69.82z"/>
			<path d="M111.64,75.65c0,0.01,0,0.02,0,0.04c-0.18,0.04-0.35,0.07-0.53,0.1C111.29,75.74,111.46,75.7,111.64,75.65z"/>
			<path d="M117.09,62.24l0.13-0.07l0.12,0.01l0.87,0.05c-0.3,0.15-0.6,0.29-0.88,0.43c-2.48,1.23-4.2,2.27-5.08,2.83
				c-0.23-0.02-0.45-0.03-0.68-0.04l0.1,0.41c-0.07,0.06-0.11,0.09-0.11,0.09l-0.02,0.02c-0.01-0.17-0.01-0.34-0.01-0.51
				c0-0.02,0-0.04,0-0.06L117.09,62.24z"/>
			<path d="M111.54,65.97c0,0.16,0,0.31,0,0.47l-0.59-0.03L111.54,65.97z"/>
			<path d="M109.83,66.36l1.48-0.84l0.22-0.12c0,0.02,0,0.04,0,0.06c0,0.17,0,0.34,0.01,0.51l-0.59,0.44L109.83,66.36z"/>
			<path d="M114.33,168.5c-1.17-7.17-4.04-14.02-8.13-20.08l0.16-0.12c2.22,2.93,4.11,6.11,5.63,9.47
				c1.54,3.35,2.68,6.91,3.37,10.54c0.72,3.62,1.1,7.31,1.15,11.02c0.07,1.84-0.1,3.75-0.31,5.57c-0.22,1.83-0.5,3.64-0.77,5.46
				l-1.7,10.86l-0.91,5.42c-0.3,1.82-0.67,3.62-0.88,5.38c-0.41,3.62-0.8,7.24-0.83,10.85c-0.04,3.61,0.21,7.22,0.87,10.77
				c1.42,7.06,3.16,14.33,7.47,20.14c2.16,2.84,4.98,5.21,8.31,6.58c3.32,1.37,6.99,1.89,10.59,1.61c3.34-0.28,6.65-1.24,9.61-2.85
				c1.97-0.87,3.79-2.05,5.4-3.44l0.03,0.02c-0.03,0.04-0.07,0.08-0.1,0.12c-0.6,0.72-1.28,1.39-2.03,1.95s-1.53,1.06-2.34,1.52
				c-3.22,1.83-6.81,3.03-10.51,3.37s-7.48-0.18-10.96-1.53c-0.88-0.33-1.69-0.79-2.53-1.2c-0.43-0.21-0.8-0.5-1.2-0.74
				c-0.39-0.26-0.8-0.49-1.15-0.8c-1.51-1.12-2.81-2.49-4.01-3.93c-2.3-2.96-3.99-6.34-5.25-9.82c-0.63-1.75-1.17-3.52-1.66-5.3
				c-0.47-1.78-0.96-3.56-1.29-5.4c-1.43-7.32-1.16-14.86-0.17-22.14c0.26-1.87,0.64-3.65,0.96-5.45l0.95-5.4l1.82-10.83l0.83-5.41
				c0.26-1.82,0.46-3.56,0.44-5.38C115.23,175.71,114.95,172.07,114.33,168.5z"/>
			<path d="M109.84,69.54c-0.1-1.05-0.18-2.11-0.24-3.16l0.23-0.02l1.12,0.05l0.59,0.03c0.03,3.06,0.08,6.13,0.1,9.21
				c-0.18,0.05-0.35,0.09-0.53,0.14c0.18-0.03,0.35-0.06,0.53-0.1c0.02,1.64,0.02,3.28,0.02,4.93l-0.2,0.02
				c-0.79-3.61-1.28-7.26-1.6-10.92c0.2-0.05,0.39-0.11,0.58-0.17l-0.02-0.1C110.23,69.48,110.03,69.51,109.84,69.54z"/>
			<path d="M110.42,69.45l0.02,0.1c-0.19,0.06-0.38,0.12-0.58,0.17c-0.01-0.06-0.02-0.12-0.02-0.18
				C110.03,69.51,110.23,69.48,110.42,69.45z"/>
			<path d="M127.76,97.22c-4.82,0.15-9.29,2.68-12.48,6.4c-3.19,3.73-5.05,8.75-4.99,13.8c0.05,5.06,1.99,10.04,5.27,13.7
				c3.25,3.63,7.81,6.06,12.57,5.95c4.74-0.04,9.27-2.56,12.23-6.36c3-3.79,4.63-8.66,4.8-13.61c0.11-4.93-1.37-10.04-4.56-13.9
				C137.46,99.32,132.57,96.98,127.76,97.22z M114.53,131.94c-3.07-4.28-4.36-9.46-4.44-14.51c0.01-5.06,1.19-10.26,4.2-14.58
				c1.48-2.14,3.44-4.03,5.78-5.32c2.32-1.31,5.01-2.01,7.68-1.98c2.67,0.06,5.3,0.83,7.57,2.13c2.27,1.3,4.21,3.09,5.78,5.12
				c3.16,4.06,4.9,9.12,5.15,14.29c0.22,5.17-1.19,10.53-4.4,14.77c-1.58,2.12-3.59,3.96-5.94,5.28c-2.35,1.32-5.05,2.04-7.76,2.07
				c-2.71-0.01-5.42-0.7-7.76-2C118.03,135.93,116.05,134.06,114.53,131.94z"/>
			<path d="M110.02,62.61l0.02,0.1c-0.21,0.07-0.41,0.14-0.62,0.21c0-0.07,0-0.13,0-0.2C109.62,62.68,109.82,62.65,110.02,62.61z"/>
			<path d="M109.54,65.53c-0.05-0.87-0.09-1.74-0.12-2.61c0.21-0.07,0.41-0.14,0.62-0.21l-0.02-0.1c-0.2,0.04-0.4,0.07-0.6,0.11
				c-0.11-4.14,0.09-8.29,0.35-12.42c0.35-5.07,0.8-10.14,1.75-15.13c0.77-3.94,1.74-7.86,3.12-11.62c0.19-0.17,0.39-0.37,0.58-0.6
				c-1.31,4.02-2.12,8.2-2.71,12.38c-0.74,4.97-1,10.01-1.14,15.04c-0.15,5.01,0.14,10.02,0.16,15.03l-0.22,0.12l-1.48,0.84
				l-0.23,0.02C109.58,66.1,109.56,65.81,109.54,65.53z"/>
			<path d="M104.58,91.86c0.43-0.16,0.86-0.32,1.28-0.5c-0.48,0.28-0.96,0.58-1.43,0.88c-2.37,1.47-4.64,3.11-6.77,4.92
				c1.87-1.81,3.88-3.48,6.01-4.97C103.97,92.08,104.28,91.97,104.58,91.86z"/>
			<path d="M103.67,92.19c2.45-1.76,5.07-3.29,7.81-4.58c2.05-0.96,4.2-1.77,6.41-2.35c-1.01,0.66-2.05,1.28-3.1,1.87
				c-1.01,0.36-2.02,0.75-3,1.18c-2.04,0.88-4.02,1.91-5.93,3.05c-0.42,0.18-0.85,0.34-1.28,0.5
				C104.28,91.97,103.97,92.08,103.67,92.19z"/>
			<path class="st20" d="M94.8,66.45c1.74-0.17,3.46-0.54,5.18-0.85c1.7-0.37,3.4-0.82,5.09-1.26c1.46-0.45,2.91-0.91,4.35-1.42
				c0.03,0.87,0.07,1.74,0.12,2.61c0.02,0.28,0.04,0.57,0.06,0.85c0.06,1.05,0.14,2.11,0.24,3.16c-1.5,0.22-2.99,0.47-4.48,0.74
				l-5.05,0.77c-3.36,0.45-6.72,1.04-10.11,1.31c-3.39,0.3-6.79,0.45-10.19,0.32c-1.7-0.06-3.4-0.16-5.09-0.37
				c-1.58-0.18-3.17-0.43-4.71-0.85c-0.07-0.72-0.14-1.44-0.22-2.16c-0.16-1.38-0.35-2.76-0.55-4.13c1.45,0.48,2.95,0.81,4.46,1.08
				c1.71,0.33,3.45,0.52,5.19,0.68c3.49,0.27,6.99,0.23,10.48,0.01l2.62-0.19L94.8,66.45z"/>
			<path d="M118.19,268.81c-3.59-0.73-7.08-1.94-10.32-3.68c-12.95-7.41-22.18-20.12-26.6-34.13c0.2,0.62,0.41,1.23,0.63,1.84
				c2.11,5.74,4.94,11.29,8.73,16.11c1.87,2.43,3.95,4.69,6.12,6.81c2.17,2.14,4.45,4.18,6.91,5.98c2.46,1.79,5.09,3.44,7.99,4.47
				c1.42,0.56,2.84,1.06,4.25,1.6l1.07,0.39c0.34,0.14,0.74,0.25,0.99,0.41C118.07,268.69,118.15,268.75,118.19,268.81z"/>
			<path d="M81.92,165.08c-0.97,7.26-1.97,14.52-2.7,21.78c-0.25,2.55-0.45,5.1-0.56,7.65c0.08-2.26,0.16-4.54,0.27-6.8
				c0.15-3.01,0.38-6.03,0.68-9.03c0.61-6.02,1.47-12.01,2.58-17.97l-0.2-0.05c-0.45,1.82-0.88,3.65-1.26,5.49
				c0.06-0.41,0.13-0.81,0.19-1.22c1.17-7.24,2.64-14.43,4.28-21.57l0.2,0.04C84.01,150.6,82.9,157.83,81.92,165.08z"/>
			<path d="M83.47,232.29c-1.97-5.67-3.27-11.56-4.1-17.5c-0.82-5.95-0.96-11.98-0.78-18.01c0,0.32-0.01,0.65-0.01,0.97
				c-0.04,3.64,0.18,7.23,0.53,10.88c0.67,7.24,1.75,14.45,4,21.33c1.11,3.43,2.42,6.81,4.09,10c0.76,1.64,1.74,3.15,2.63,4.71
				l1.5,2.24l0.75,1.13c0.26,0.36,0.54,0.71,0.82,1.06l1.66,2.13c0.58,0.69,1.2,1.33,1.8,2c1.18,1.35,2.49,2.65,3.78,3.89
				c2.61,2.47,5.48,4.64,8.62,6.35c6.27,3.42,13.57,4.86,20.74,4.46c3.61-0.18,7.21-0.69,10.7-1.6c3.48-0.92,6.87-2.26,9.88-4.22
				c3-1.95,5.61-4.56,7.29-7.73c0.82-1.57,1.51-3.31,1.7-5.01c0.01-0.21,0-0.41-0.04-0.57c-0.05-0.15-0.07-0.15-0.14-0.16
				c-0.22,0-0.64,0.2-0.93,0.49c-0.62,0.57-1.12,1.32-1.58,2.1c-0.92,1.52-1.84,3.07-2.99,4.47l-0.03-0.02
				c-0.9,0.69-1.84,1.31-2.83,1.84c0.84-0.61,1.61-1.3,2.25-2.12c1.15-1.38,2.05-2.96,3-4.54c0.46-0.79,0.97-1.6,1.7-2.27
				c0.37-0.32,0.78-0.67,1.48-0.69c0.4,0.01,0.74,0.41,0.79,0.7c0.07,0.29,0.08,0.55,0.06,0.8c-0.18,1.95-0.85,3.69-1.67,5.38
				c-1.69,3.35-4.37,6.14-7.45,8.24c-3.09,2.12-6.57,3.59-10.13,4.63c-3.57,1.04-7.26,1.63-10.96,1.87
				c-3.55,0.25-7.15,0.07-10.67-0.57c0-0.13-0.03-0.27-0.09-0.38c-0.13-0.27-0.34-0.42-0.52-0.54c-0.4-0.23-0.75-0.31-1.11-0.45
				l-1.07-0.39c-1.42-0.52-2.87-1.02-4.27-1.56c-2.85-0.97-5.38-2.66-7.79-4.44c-2.41-1.82-4.65-3.84-6.74-6.01
				c-2.1-2.18-4.06-4.46-5.82-6.89C87.96,243.44,85.4,237.96,83.47,232.29z"/>
			<path d="M104.08,261.19c2.41,1.78,4.94,3.47,7.79,4.44c1.4,0.54,2.85,1.04,4.27,1.56l1.07,0.39c0.36,0.14,0.71,0.22,1.11,0.45
				c0.18,0.12,0.39,0.27,0.52,0.54c0.06,0.11,0.09,0.25,0.09,0.38c-0.25-0.04-0.49-0.09-0.74-0.14c-0.04-0.06-0.12-0.12-0.23-0.2
				c-0.25-0.16-0.65-0.27-0.99-0.41l-1.07-0.39c-1.41-0.54-2.83-1.04-4.25-1.6c-2.9-1.03-5.53-2.68-7.99-4.47
				c-2.46-1.8-4.74-3.84-6.91-5.98c-2.17-2.12-4.25-4.38-6.12-6.81c-3.79-4.82-6.62-10.37-8.73-16.11
				c-0.22-0.61-0.43-1.22-0.63-1.84c-0.04-0.14-0.09-0.28-0.13-0.42c-1.14-3.53-1.98-7.15-2.62-10.8
				c-0.64-3.64-1.07-7.32-1.34-10.99c-0.09-1.17-0.17-2.35-0.23-3.54c-0.06-2.85-0.01-5.69,0.11-8.52c0.15-3.55,0.37-7.1,0.69-10.64
				c0.79-6.69,1.91-13.31,2.98-19.94c0.38-1.84,0.81-3.67,1.26-5.49l0.2,0.05c-1.11,5.96-1.97,11.95-2.58,17.97
				c-0.3,3-0.53,6.02-0.68,9.03c-0.11,2.26-0.19,4.54-0.27,6.8c-0.02,0.76-0.04,1.52-0.07,2.27c-0.18,6.03-0.04,12.06,0.78,18.01
				c0.83,5.94,2.13,11.83,4.1,17.5c1.93,5.67,4.49,11.15,8.05,16c1.76,2.43,3.72,4.71,5.82,6.89
				C99.43,257.35,101.67,259.37,104.08,261.19z"/>
			<path d="M80.73,166.15c-1.07,6.63-2.19,13.25-2.98,19.94c0.22-2.52,0.49-5.03,0.82-7.54C79.13,174.39,79.85,170.25,80.73,166.15z
				"/>
			<path d="M77.63,215.02c-0.41-3.25-0.62-6.51-0.68-9.77c0.06,1.19,0.14,2.37,0.23,3.54c0.27,3.67,0.7,7.35,1.34,10.99
				c0.64,3.65,1.48,7.27,2.62,10.8c0.04,0.14,0.09,0.28,0.13,0.42c-0.76-2.29-1.41-4.61-1.98-6.96
				C78.57,221.07,77.99,218.06,77.63,215.02z"/>
			<path d="M77.06,196.73c-0.12,2.83-0.17,5.67-0.11,8.52c-0.14-2.5-0.19-5.03-0.12-7.53c0.1-3.69,0.42-7.37,0.84-11.02
				c0.02-0.2,0.05-0.41,0.08-0.61C77.43,189.63,77.21,193.18,77.06,196.73z"/>
			<path d="M79.98,73.18c-1.71-0.13-3.41-0.29-5.1-0.57c-1.58-0.24-3.14-0.55-4.66-1.04c0-0.04-0.01-0.08-0.01-0.11
				c1.54,0.42,3.13,0.67,4.71,0.85c1.69,0.21,3.39,0.31,5.09,0.37c3.4,0.13,6.8-0.02,10.19-0.32c3.39-0.27,6.75-0.86,10.11-1.31
				l5.05-0.77c1.49-0.27,2.98-0.52,4.48-0.74c0,0.06,0.01,0.12,0.02,0.18c-1.44,0.45-2.9,0.85-4.36,1.24
				c-1.67,0.38-3.34,0.74-5.02,1.08c-3.38,0.59-6.8,0.96-10.22,1.12C86.84,73.36,83.4,73.41,79.98,73.18z"/>
			<path d="M105.07,64.34c-1.69,0.44-3.39,0.89-5.09,1.26c-1.72,0.31-3.44,0.68-5.18,0.85l-2.61,0.3l-2.62,0.19
				c-3.49,0.22-6.99,0.26-10.48-0.01c-1.74-0.16-3.48-0.35-5.19-0.68c-1.51-0.27-3.01-0.6-4.46-1.08c-0.01-0.05-0.01-0.1-0.02-0.15
				c1.48,0.44,3,0.73,4.53,0.94c1.71,0.25,3.44,0.38,5.18,0.47c3.46,0.17,6.93,0.03,10.38-0.29l2.58-0.28l2.57-0.39
				c0.86-0.12,1.72-0.25,2.57-0.41l2.56-0.44c1.71-0.27,3.4-0.66,5.11-0.96c1.5-0.32,3-0.65,4.52-0.94c0,0.07,0,0.13,0,0.2
				C107.98,63.43,106.53,63.89,105.07,64.34z"/>
			<path d="M70.21,71.46c0,0.03,0.01,0.07,0.01,0.11c-0.12-0.02-0.23-0.06-0.35-0.1l0.03-0.09C70,71.41,70.11,71.44,70.21,71.46z"/>
			<path d="M69.44,65.17c-0.21-0.07-0.41-0.14-0.61-0.21l0.03-0.1c0.18,0.06,0.37,0.12,0.56,0.16
				C69.43,65.07,69.43,65.12,69.44,65.17z"/>
			<path d="M60.87,89.3c1.75,1.11,3.47,2.26,5.16,3.47c-3.56-1.39-6.91-3.4-9.69-6.05C57.93,87.47,59.42,88.39,60.87,89.3z"/>
			<path class="st24" d="M58.39,33.37c0.61,0.27,1.24,0.43,1.88,0.57c1.28,0.27,2.58,0.42,3.88,0.51c2.6,0.2,5.21,0.23,7.82,0.17
				c5.21-0.08,10.42-0.51,15.6-1.31c5.16-0.89,10.25-2.18,15.23-3.87c2.48-0.86,4.94-1.82,7.34-3c1.19-0.6,2.37-1.25,3.51-2.08
				c0.33-0.25,0.66-0.5,0.99-0.81c-1.38,3.76-2.35,7.68-3.12,11.62c-0.95,4.99-1.4,10.06-1.75,15.13
				c-0.26,4.13-0.46,8.28-0.35,12.42c-1.52,0.29-3.02,0.62-4.52,0.94c-1.71,0.3-3.4,0.69-5.11,0.96l-2.56,0.44
				c-0.85,0.16-1.71,0.29-2.57,0.41l-2.57,0.39l-2.58,0.28c-3.45,0.32-6.92,0.46-10.38,0.29c-1.74-0.09-3.47-0.22-5.18-0.47
				c-1.53-0.21-3.05-0.5-4.53-0.94c-0.44-2.97-0.98-5.92-1.64-8.85c-0.99-4.32-1.97-8.71-3.77-12.81
				C62.5,39.85,60.69,36.42,58.39,33.37z"/>
			<path d="M70.22,71.57c0.35,3.65,0.6,7.31,0.48,11l-0.2-0.02c-0.07-2.52-0.32-5.05-0.65-7.56c-0.25-1.86-0.54-3.71-0.85-5.55
				c-0.71-4.34-1.63-8.65-2.77-12.89c-0.27-1.06-0.58-2.11-0.91-3.16c-0.34-1.04-0.63-2.1-1.01-3.12l-1.05-3.11
				c-0.39-1.02-0.75-2.05-1.11-3.08c-1.4-3.86-2.98-7.64-4.79-11.39c0.28,0.31,0.67,0.52,1.02,0.68h0.01
				c2.3,3.05,4.11,6.48,5.62,9.99c1.8,4.1,2.78,8.49,3.77,12.81c0.66,2.93,1.2,5.88,1.64,8.85c-0.19-0.04-0.38-0.1-0.56-0.16
				l-0.03,0.1c0.2,0.07,0.4,0.14,0.61,0.21c0.2,1.37,0.39,2.75,0.55,4.13c0.08,0.72,0.15,1.44,0.22,2.16
				c-0.1-0.02-0.21-0.05-0.31-0.08l-0.03,0.09C69.99,71.51,70.1,71.55,70.22,71.57z"/>
			<path d="M57.27,31.97c0.23,0.27,0.46,0.55,0.68,0.84C57.63,32.59,57.36,32.32,57.27,31.97z"/>
			<path d="M58.38,33.37c-0.35-0.16-0.74-0.37-1.02-0.68c-0.11-0.24-0.22-0.47-0.34-0.71l0.17-0.11c0.03,0.03,0.06,0.07,0.08,0.1
				c0.09,0.35,0.36,0.62,0.68,0.84C58.1,32.99,58.24,33.18,58.38,33.37z"/>
			<path d="M77.19,21.92c-2.49,0.6-4.97,1.31-7.4,2.14c-2.44,0.82-4.85,1.77-7.15,2.94c-1.13,0.61-2.26,1.24-3.28,2.01
				c-0.51,0.39-1,0.81-1.41,1.28c-0.4,0.47-0.78,1.03-0.7,1.61c0,0.02,0.01,0.05,0.02,0.07c-0.02-0.03-0.05-0.07-0.08-0.1
				l-0.17,0.11c0.12,0.24,0.23,0.47,0.34,0.71c-0.19-0.2-0.34-0.44-0.4-0.74c-0.13-0.75,0.3-1.39,0.7-1.9
				c0.42-0.52,0.9-0.98,1.41-1.4c1.01-0.84,2.09-1.59,3.21-2.29c2.22-1.39,4.54-2.63,6.91-3.77c4.74-2.24,9.73-4.13,14.96-5.13
				c5.18-1.05,10.46-1.51,15.75-1.51c2.64,0.02,5.29,0.15,7.95,0.5c1.33,0.18,2.66,0.41,4,0.79c0.68,0.19,1.35,0.41,2.04,0.75
				c0.67,0.36,1.47,0.73,2.04,1.84c0.27,0.58,0.25,1.32,0.07,1.82c-0.18,0.52-0.44,0.88-0.69,1.2c-0.03,0.04-0.06,0.07-0.09,0.1
				c0.25-0.77,0.51-1.53,0.8-2.28l-0.18-0.08c-0.43,0.97-0.83,1.96-1.2,2.96c-0.33,0.31-0.66,0.56-0.99,0.81
				c-1.14,0.83-2.32,1.48-3.51,2.08c-2.4,1.18-4.86,2.14-7.34,3c-4.98,1.69-10.07,2.98-15.23,3.87c-5.18,0.8-10.39,1.23-15.6,1.31
				c-2.61,0.06-5.22,0.03-7.82-0.17c-1.3-0.09-2.6-0.24-3.88-0.51c-0.64-0.14-1.27-0.3-1.88-0.57h-0.01
				c-0.14-0.19-0.28-0.38-0.43-0.56c0.17,0.12,0.36,0.22,0.55,0.31c0.57,0.26,1.2,0.43,1.82,0.57c1.27,0.27,2.56,0.39,3.85,0.47
				c2.59,0.11,5.18,0,7.77-0.17c2.58-0.21,5.15-0.51,7.72-0.87c2.56-0.35,5.12-0.77,7.64-1.29c5.05-1.02,10.03-2.43,14.84-4.23
				c2.4-0.91,4.76-1.91,7-3.1c1.1-0.59,2.19-1.24,3.13-1.97c0.47-0.36,0.9-0.75,1.19-1.14c0.14-0.18,0.25-0.37,0.27-0.47
				c0.03-0.12,0.01-0.07,0-0.09c-0.01-0.07-0.41-0.41-0.9-0.61c-0.48-0.21-1.05-0.39-1.63-0.53c-1.17-0.29-2.41-0.46-3.66-0.58
				c-2.51-0.24-5.06-0.26-7.61-0.19c-5.1,0.14-10.21,0.67-15.25,1.47C82.16,20.79,79.68,21.31,77.19,21.92z"/>
			<path class="st24" d="M51.17,71.7c0.49-0.31,1.16-0.41,1.83-0.44c1.37-0.03,2.8,0.25,4.2,0.55c1.41,0.31,2.81,0.68,4.21,1.05
				c2.8,0.76,5.61,1.5,8.44,2.13c0.33,2.51,0.58,5.04,0.65,7.56l0.2,0.02c0.12-3.69-0.13-7.35-0.48-11c1.52,0.49,3.08,0.8,4.66,1.04
				c1.69,0.28,3.39,0.44,5.1,0.57c3.42,0.23,6.86,0.18,10.28-0.02c3.42-0.16,6.84-0.53,10.22-1.12c1.68-0.34,3.35-0.7,5.02-1.08
				c1.46-0.39,2.92-0.79,4.36-1.24c0.32,3.66,0.81,7.31,1.6,10.92l0.2-0.02c0-1.65,0-3.29-0.02-4.93c2.68-0.48,5.33-1.1,7.97-1.79
				l4.21-1.12c1.39-0.35,2.81-0.75,4.16-0.86c0.33-0.02,0.66-0.02,0.9,0.05c0.25,0.08,0.31,0.18,0.36,0.35
				c0.09,0.37-0.2,1.06-0.54,1.61c-0.72,1.16-1.7,2.21-2.71,3.19c-2.05,1.98-4.33,3.73-6.71,5.32
				c-9.55,6.33-20.63,10.35-32.08,11.01c-5.69,0.42-11.47,0.14-16.95-1.27c-5.49-1.38-10.64-4.13-14.46-8.29
				c-1.88-2.09-3.59-4.44-4.77-6.96c-0.56-1.25-1.01-2.64-0.78-3.84C50.36,72.51,50.68,71.99,51.17,71.7z"/>
			<path d="M52.66,180.48c-0.92,12.01,0.51,24.09,3.55,35.71c0.77,2.89,1.65,5.83,2.53,8.68c0.94,2.85,1.94,5.68,3.12,8.43
				c2.3,5.53,5.24,10.79,8.75,15.63c1.81,2.37,3.7,4.69,5.84,6.77c1.01,1.1,2.18,2.03,3.27,3.04l1.76,1.39l0.88,0.68l0.92,0.63
				l1.86,1.26l1.93,1.11c1.28,0.78,2.64,1.4,3.99,2.02c2.74,1.2,5.59,2.15,8.52,2.82c2.92,0.69,5.9,1.1,8.9,1.28
				c1.51,0.1,3.01,0.11,4.52,0.08c1.5-0.04,2.99-0.16,4.4-0.57c0.37-0.09,0.69-0.22,0.8-0.38c0.05-0.07,0.06-0.15-0.01-0.25
				c0.25,0.05,0.49,0.1,0.74,0.14c0,0.18-0.06,0.36-0.16,0.5c-0.35,0.47-0.82,0.55-1.17,0.67c-1.5,0.44-3.05,0.58-4.58,0.64
				c-1.52,0.06-3.05,0.09-4.58,0.03c-3.05-0.1-6.1-0.44-9.1-1.07c-3-0.6-5.95-1.48-8.81-2.63c-1.41-0.6-2.84-1.19-4.17-1.96
				l-2.03-1.12l-1.7-1.1l-0.24-0.15l-0.96-0.64l-0.93-0.69l-1.84-1.39c-1.15-1.02-2.38-1.97-3.45-3.08
				c-2.26-2.1-4.21-4.49-6.11-6.91c-3.67-4.93-6.74-10.29-9.15-15.93c-1.26-2.8-2.27-5.7-3.22-8.61c-0.88-2.95-1.73-5.82-2.52-8.79
				c-1.5-5.92-2.68-11.95-3.17-18.05c-0.52-6.1-0.54-12.24,0.06-18.32c1.27-12.16,4.91-24.07,10.95-34.62l0.17,0.09
				c-2.72,5.41-4.91,11.08-6.46,16.9C54.16,168.54,53.15,174.49,52.66,180.48z"/>
			<path d="M49.13,72.84c0.19-0.83,0.73-1.64,1.51-2.06c0.77-0.43,1.6-0.5,2.36-0.49c1.54,0.05,2.97,0.41,4.38,0.79
				c1.41,0.39,2.8,0.83,4.18,1.27c2.76,0.89,5.51,1.8,8.29,2.64c-2.83-0.63-5.64-1.37-8.44-2.13c-1.4-0.37-2.8-0.74-4.21-1.05
				c-1.4-0.3-2.83-0.58-4.2-0.55c-0.67,0.03-1.34,0.13-1.83,0.44c-0.49,0.29-0.81,0.81-0.93,1.39c-0.23,1.2,0.22,2.59,0.78,3.84
				c1.18,2.52,2.89,4.87,4.77,6.96c3.82,4.16,8.97,6.91,14.46,8.29c5.48,1.41,11.26,1.69,16.95,1.27
				c11.45-0.66,22.53-4.68,32.08-11.01c2.38-1.59,4.66-3.34,6.71-5.32c1.01-0.98,1.99-2.03,2.71-3.19c0.34-0.55,0.63-1.24,0.54-1.61
				c-0.05-0.17-0.11-0.27-0.36-0.35c-0.24-0.07-0.57-0.07-0.9-0.05c-1.35,0.11-2.77,0.51-4.16,0.86l-4.21,1.12
				c-2.64,0.69-5.29,1.31-7.97,1.79c0-0.02,0-0.03,0-0.04c2.63-0.68,5.23-1.45,7.82-2.27l4.14-1.34c1.4-0.43,2.76-0.91,4.29-1.12
				c0.39-0.04,0.8-0.07,1.27,0.05c0.46,0.08,1.01,0.52,1.14,1.07c0.13,0.54,0.02,0.99-0.1,1.39c-0.13,0.39-0.31,0.75-0.49,1.09
				c-0.47,0.82-1.02,1.56-1.62,2.26c-0.17-0.04-0.35-0.07-0.52-0.11l-0.02,0.1c0.15,0.03,0.3,0.07,0.45,0.11
				c-0.34,0.4-0.7,0.79-1.07,1.18c-2.06,2.13-4.37,3.97-6.76,5.67c-0.75,0.53-1.51,1.04-2.28,1.53c-2.21,0.58-4.36,1.39-6.41,2.35
				c-2.74,1.29-5.36,2.82-7.81,4.58c-5.26,1.82-10.79,2.85-16.33,3.26c-5.86,0.39-11.83,0.1-17.58-1.45
				c-1.26-0.34-2.51-0.75-3.73-1.23c-1.69-1.21-3.41-2.36-5.16-3.47c-1.45-0.91-2.94-1.83-4.53-2.58c-0.6-0.56-1.17-1.16-1.71-1.79
				c-1.92-2.27-3.63-4.7-4.81-7.49C49.28,76.05,48.77,74.52,49.13,72.84z"/>
			<path d="M41.58,113.01c4.56-0.25,8.57,3.8,8.15,4.75c-0.29,0.7-2.78-0.57-7.4-0.26c-5.52,0.37-8.32,2.62-8.77,1.93
				C32.97,118.53,36.61,113.28,41.58,113.01z"/>
			<path d="M42.98,138.51c2.99-5.05,6.32-9.89,10.04-14.42c-2.51,3.45-4.85,7.02-7,10.69c-0.11,0.15-0.21,0.31-0.32,0.47
				c-0.63,0.9-1.13,1.8-2.03,2.74C43.48,138.19,43.25,138.37,42.98,138.51z"/>
			<path d="M33.38,158.98c0.12,0.41,0.24,0.82,0.35,1.23c-0.14-0.34-0.28-0.68-0.43-1.01C33.32,159.13,33.35,159.05,33.38,158.98z"
				/>
			<path d="M31.63,171.2c-0.68,3.38-1.16,6.83-1.53,10.27c-0.72,6.86-0.45,13.8,0.91,20.56c2.58,13.51,8.9,26.4,18.43,36.4
				c4.72,5.1,9.88,9.76,15.21,14.26c2.63,2.28,5.33,4.48,8.29,6.3c1.47,0.91,3.02,1.69,4.62,2.37c1.6,0.69,3.24,1.29,4.92,1.78
				c-3.4-0.8-6.74-1.97-9.81-3.7c-3.07-1.71-5.9-3.82-8.64-5.99c-5.46-4.35-10.8-8.94-15.7-13.95c-5.03-4.96-9.11-10.86-12.34-17.13
				c-3.22-6.29-5.57-13.02-6.94-19.97c-1.34-6.95-1.55-14.12-0.75-21.12c0.79-6.97,2.1-13.96,4.46-20.6
				c0.18-0.49,0.35-0.99,0.54-1.48c0.15,0.33,0.29,0.67,0.43,1.01c-0.11-0.41-0.23-0.82-0.35-1.23c2.21-6.03,4.81-11.9,7.89-17.53
				c0.55-0.99,1.12-1.97,1.71-2.94c0.27-0.14,0.5-0.32,0.69-0.52c0.9-0.94,1.4-1.84,2.03-2.74c0.11-0.16,0.21-0.32,0.32-0.47
				c-4.89,8.34-8.85,17.2-11.8,26.38C33.18,164.46,32.31,167.81,31.63,171.2z"/>
			<path class="st20" d="M27.57,116.23c0.46-4.05,2.27-7.87,4.75-10.98c1.34-1.66,2.9-3.12,4.66-4.21c1.75-1.09,3.77-1.65,5.79-1.53
				c2.03,0.14,3.99,1.05,5.66,2.33c1.69,1.29,3.1,2.95,4.24,4.77c1.12,1.84,1.97,3.85,2.5,5.93c0.56,2.07,0.73,4.26,0.46,6.34
				c-0.15,1.04-0.44,2.07-0.88,2.97c-0.39,0.77-1.13,1.42-1.83,2.15c-0.06,0.06-0.12,0.13-0.18,0.19c-1.54,1.57-2.98,3.23-4.35,4.93
				c-1.39,1.7-2.72,3.45-3.98,5.24c-0.63,0.86-1.24,1.85-1.85,2.48c-0.31,0.31-0.58,0.42-1,0.48c-0.41,0.08-0.87,0.03-1.33-0.07
				c-1.87-0.41-3.62-1.73-5.15-3.13c-1.53-1.44-2.89-3.08-4.05-4.87c-2.3-3.57-3.81-7.86-3.53-12.21
				C27.52,116.77,27.54,116.5,27.57,116.23z M49.73,117.76c0.42-0.95-3.59-5-8.15-4.75c-4.97,0.27-8.61,5.52-8.02,6.42
				c0.45,0.69,3.25-1.56,8.77-1.93C46.95,117.19,49.44,118.46,49.73,117.76z"/>
			<linearGradient id="SVGID_20_" gradientUnits="userSpaceOnUse" x1="82.3626" y1="156.5792" x2="225.1652" y2="239.0263">
				<stop  offset="0" style="stop-color:#E1306C"/>
				<stop  offset="0.3727" style="stop-color:#405DE6"/>
			</linearGradient>
			<path class="st25" d="M155.69,131.57c0.96-1.53,1.55-3.28,1.86-5.03c0.7-3.51,0.49-7.13-0.48-10.51l-0.1,0.03
				c0.37,1.7,0.5,3.45,0.47,5.18c-0.02,1.73-0.24,3.46-0.67,5.12c-0.4,1.67-1.16,3.21-1.94,4.7c-0.75,1.54-1.85,2.85-2.91,4.26
				l0.06,0.08c0.7-0.54,1.46-1.04,2.05-1.72c0.31-0.32,0.6-0.66,0.9-1C155.2,132.32,155.44,131.94,155.69,131.57z M124.09,215.84
				c1.55-2.92,3.05-5.85,4.68-8.69c1.68-2.81,3.33-5.7,4.84-8.65c0.75-1.49,1.45-2.96,2.12-4.54c0.65-1.58,1.1-3.22,1.47-4.87
				c0.71-3.3,1.01-6.65,1.15-9.96c0.4-6.58,0.1-13.46-2.35-19.72c-1.47-3.85-3.64-7.38-6.33-10.45c3.03-0.1,6.06-0.54,9-1.34
				c1.55-0.44,3.12-0.91,4.54-1.73c1.41-0.83,2.73-1.86,3.69-3.18l-0.08-0.07c-1.33,0.92-2.66,1.69-4.07,2.36
				c-1.41,0.66-2.83,1.32-4.31,1.85c-1.49,0.52-3.03,0.92-4.58,1.25c-1.42,0.31-2.85,0.57-4.3,0.73c-1.66-1.87-3.51-3.57-5.5-5.06
				l-0.12,0.16c5.1,4.14,9.04,9.66,11.12,15.82c2.18,6.16,2.28,12.78,1.68,19.28c-0.27,3.26-0.69,6.49-1.48,9.61
				c-0.37,1.56-0.88,3.08-1.45,4.55c-0.59,1.47-1.3,2.98-1.98,4.45c-1.35,2.99-2.83,5.9-4.24,8.9c-1.41,3.01-2.61,6.09-3.68,9.22
				L124.09,215.84z M28.54,104.84c1.53-4.46,3.69-8.72,6.78-12.2c3.07-3.45,7.21-6.09,11.84-6.44c2.28-0.19,4.62,0.11,6.84,0.84
				c2.24,0.69,4.31,1.86,6.42,3.02c4.18,2.34,8.27,4.88,12.06,7.84c-1.76-1.64-3.66-3.14-5.62-4.54c-0.28-0.2-0.55-0.4-0.83-0.59
				c1.22,0.48,2.47,0.89,3.73,1.23c5.75,1.55,11.72,1.84,17.58,1.45c5.54-0.41,11.07-1.44,16.33-3.26
				c-2.13,1.49-4.14,3.16-6.01,4.97c2.13-1.81,4.4-3.45,6.77-4.92c0.47-0.3,0.95-0.6,1.43-0.88c3.08-1.19,6.07-2.6,8.93-4.23
				c4.22-1.49,8.68-2.31,13.11-1.87c2.74,0.23,5.42,0.93,7.93,2.05c2.54,1.07,4.8,2.72,6.91,4.49l1.55,1.39l1.42,1.52
				c1,0.97,1.78,2.13,2.67,3.2c0.86,1.1,1.61,2.28,2.42,3.42l2.17,3.59c-0.64-1.24-1.28-2.49-1.94-3.73
				c-0.75-1.18-1.45-2.41-2.25-3.57c-0.86-1.11-1.62-2.31-2.59-3.33l-1.4-1.6l-1.54-1.46c-4.12-3.89-9.57-6.45-15.26-6.96
				c-3.42-0.29-6.82,0.11-10.1,0.99c0.77-0.49,1.53-1,2.28-1.53c2.39-1.7,4.7-3.54,6.76-5.67c0.37-0.39,0.73-0.78,1.07-1.18
				c6.03,1.46,11.56,4.47,16.46,8.2c5.07,3.8,9.55,8.32,13.67,13.12c4.12,4.81,7.85,9.94,11.3,15.26
				c3.42,5.32,6.67,10.78,9.49,16.43v0.01l0.01,0.02c0.76,1.38,1.53,2.74,2.27,4.13c0.69,1.4,1.44,2.78,2.08,4.21
				c1.34,2.83,2.53,5.74,3.6,8.68c1.05,2.95,1.97,5.95,2.7,9c0.71,3.01,1.28,6.12,1.44,9.17c-13.47,0.14-24.15-2.2-25.95-2.61
				c0.2-0.85,0.38-1.71,0.52-2.58c0.63-3.57,0.75-7.21,0.46-10.8c-0.66-7.17-2.76-14.15-5.97-20.52c2.8,6.55,4.68,13.52,4.99,20.59
				c0.18,3.52-0.02,7.06-0.72,10.5c-0.65,3.44-1.87,6.77-3.27,10c-0.71,1.6-1.49,3.2-2.33,4.72c-0.86,1.51-1.82,2.98-2.85,4.4
				c-2.06,2.84-4.41,5.5-6.76,8.18c-2.36,2.69-4.66,5.39-7.06,8.01c-1.19,1.31-2.43,2.57-3.64,3.95c-1.19,1.37-2.29,2.78-3.4,4.2
				c-4.33,5.74-8.18,11.87-11.13,18.47c-0.73,1.65-1.4,3.33-1.96,5.08c-0.28,0.93-0.45,1.77-0.68,2.66
				c-0.18,0.89-0.37,1.78-0.52,2.67c-0.6,3.58-0.8,7.26-0.28,10.9c0.57,3.61,1.81,7.21,4.07,10.14c0.57,0.72,1.13,1.45,1.8,2.08
				c0.33,0.32,0.64,0.67,0.99,0.96l1.06,0.87c0.68,0.61,1.49,1.05,2.24,1.56c0.76,0.51,1.6,0.93,2.45,1.26
				c1.72,0.67,3.55,1.02,5.37,1.08c1.8,0.04,3.62-0.05,5.39-0.42c1.42-0.3,2.8-0.75,4.12-1.34c-2.96,1.61-6.27,2.57-9.61,2.85
				c-3.6,0.28-7.27-0.24-10.59-1.61c-3.33-1.37-6.15-3.74-8.31-6.58c-4.31-5.81-6.05-13.08-7.47-20.14
				c-0.66-3.55-0.91-7.16-0.87-10.77c0.03-3.61,0.42-7.23,0.83-10.85c0.21-1.76,0.58-3.56,0.88-5.38l0.91-5.42l1.7-10.86
				c0.27-1.82,0.55-3.63,0.77-5.46c0.21-1.82,0.38-3.73,0.31-5.57c-0.05-3.71-0.43-7.4-1.15-11.02c-0.69-3.63-1.83-7.19-3.37-10.54
				c-1.52-3.36-3.41-6.54-5.63-9.47l-0.16,0.12c4.09,6.06,6.96,12.91,8.13,20.08c0.62,3.57,0.9,7.21,0.86,10.83
				c0.02,1.82-0.18,3.56-0.44,5.38l-0.83,5.41l-1.82,10.83l-0.95,5.4c-0.32,1.8-0.7,3.58-0.96,5.45
				c-0.99,7.28-1.26,14.82,0.17,22.14c0.33,1.84,0.82,3.62,1.29,5.4c0.49,1.78,1.03,3.55,1.66,5.3c1.26,3.48,2.95,6.86,5.25,9.82
				c1.2,1.44,2.5,2.81,4.01,3.93c0.35,0.31,0.76,0.54,1.15,0.8c0.4,0.24,0.77,0.53,1.2,0.74c0.84,0.41,1.65,0.87,2.53,1.2
				c3.48,1.35,7.26,1.87,10.96,1.53s7.29-1.54,10.51-3.37c0.81-0.46,1.59-0.96,2.34-1.52s1.43-1.23,2.03-1.95
				c0.03-0.04,0.07-0.08,0.1-0.12c1.15-1.4,2.07-2.95,2.99-4.47c0.46-0.78,0.96-1.53,1.58-2.1c0.29-0.29,0.71-0.49,0.93-0.49
				c0.07,0.01,0.09,0.01,0.14,0.16c0.04,0.16,0.05,0.36,0.04,0.57c-0.19,1.7-0.88,3.44-1.7,5.01c-1.68,3.17-4.29,5.78-7.29,7.73
				c-3.01,1.96-6.4,3.3-9.88,4.22c-3.49,0.91-7.09,1.42-10.7,1.6c-7.17,0.4-14.47-1.04-20.74-4.46c-3.14-1.71-6.01-3.88-8.62-6.35
				c-1.29-1.24-2.6-2.54-3.78-3.89c-0.6-0.67-1.22-1.31-1.8-2l-1.66-2.13c-0.28-0.35-0.56-0.7-0.82-1.06l-0.75-1.13l-1.5-2.24
				c-0.89-1.56-1.87-3.07-2.63-4.71c-1.67-3.19-2.98-6.57-4.09-10c-2.25-6.88-3.33-14.09-4-21.33c-0.35-3.65-0.57-7.24-0.53-10.88
				c0-0.32,0.01-0.65,0.01-0.97c0.03-0.75,0.05-1.51,0.07-2.27c0.11-2.55,0.31-5.1,0.56-7.65c0.73-7.26,1.73-14.52,2.7-21.78
				c0.98-7.25,2.09-14.48,3.48-21.68l-0.2-0.04c-1.64,7.14-3.11,14.33-4.28,21.57c-0.06,0.41-0.13,0.81-0.19,1.22
				c-0.88,4.1-1.6,8.24-2.16,12.4c-0.33,2.51-0.6,5.02-0.82,7.54c-0.03,0.2-0.06,0.41-0.08,0.61c-0.42,3.65-0.74,7.33-0.84,11.02
				c-0.07,2.5-0.02,5.03,0.12,7.53c0.06,3.26,0.27,6.52,0.68,9.77c0.36,3.04,0.94,6.05,1.66,9.02c0.57,2.35,1.22,4.67,1.98,6.96
				c4.42,14.01,13.65,26.72,26.6,34.13c3.24,1.74,6.73,2.95,10.32,3.68c0.07,0.1,0.06,0.18,0.01,0.25c-0.11,0.16-0.43,0.29-0.8,0.38
				c-1.41,0.41-2.9,0.53-4.4,0.57c-1.51,0.03-3.01,0.02-4.52-0.08c-3-0.18-5.98-0.59-8.9-1.28c-2.93-0.67-5.78-1.62-8.52-2.82
				c-1.35-0.62-2.71-1.24-3.99-2.02l-1.93-1.11l-1.86-1.26l-0.92-0.63l-0.88-0.68l-1.76-1.39c-1.09-1.01-2.26-1.94-3.27-3.04
				c-2.14-2.08-4.03-4.4-5.84-6.77c-3.51-4.84-6.45-10.1-8.75-15.63c-1.18-2.75-2.18-5.58-3.12-8.43c-0.88-2.85-1.76-5.79-2.53-8.68
				c-3.04-11.62-4.47-23.7-3.55-35.71c0.49-5.99,1.5-11.94,3.1-17.76c1.55-5.82,3.74-11.49,6.46-16.9l-0.17-0.09
				c-6.04,10.55-9.68,22.46-10.95,34.62c-0.6,6.08-0.58,12.22-0.06,18.32c0.49,6.1,1.67,12.13,3.17,18.05
				c0.79,2.97,1.64,5.84,2.52,8.79c0.95,2.91,1.96,5.81,3.22,8.61c2.41,5.64,5.48,11,9.15,15.93c1.9,2.42,3.85,4.81,6.11,6.91
				c1.07,1.11,2.3,2.06,3.45,3.08l1.84,1.39l0.93,0.69l0.96,0.64l0.24,0.15l-0.15,0.23c-1.68-0.49-3.32-1.09-4.92-1.78
				c-1.6-0.68-3.15-1.46-4.62-2.37c-2.96-1.82-5.66-4.02-8.29-6.3c-5.33-4.5-10.49-9.16-15.21-14.26
				c-9.53-10-15.85-22.89-18.43-36.4c-1.36-6.76-1.63-13.7-0.91-20.56c0.37-3.44,0.85-6.89,1.53-10.27
				c0.68-3.39,1.55-6.74,2.59-10.04c2.95-9.18,6.91-18.04,11.8-26.38c1.1-1.64,2.26-3.23,3.47-4.78c1.33-1.71,2.68-3.39,4.12-5
				l1.09-1.22c0.37-0.42,0.74-0.94,0.97-1.49c0.45-1.08,0.68-2.19,0.77-3.31c0.2-2.25-0.18-4.46-0.76-6.58
				c-0.59-2.12-1.5-4.13-2.59-6.04c-1.12-1.88-2.45-3.68-4.13-5.16c-1.67-1.47-3.74-2.64-6.06-2.93c-2.33-0.24-4.72,0.39-6.62,1.65
				c-1.93,1.23-3.48,2.93-4.72,4.77c-2,3.01-3.3,6.4-3.91,9.9l-1.52-0.28C26.71,111.09,27.49,107.92,28.54,104.84z M141.85,131.86
				c3.21-4.24,4.62-9.6,4.4-14.77c-0.25-5.17-1.99-10.23-5.15-14.29c-1.57-2.03-3.51-3.82-5.78-5.12c-2.27-1.3-4.9-2.07-7.57-2.13
				c-2.67-0.03-5.36,0.67-7.68,1.98c-2.34,1.29-4.3,3.18-5.78,5.32c-3.01,4.32-4.19,9.52-4.2,14.58c0.08,5.05,1.37,10.23,4.44,14.51
				c1.52,2.12,3.5,3.99,5.86,5.27c2.34,1.3,5.05,1.99,7.76,2c2.71-0.03,5.41-0.75,7.76-2.07
				C138.26,135.82,140.27,133.98,141.85,131.86z"/>
			<path d="M52.67,106.61c-1.14-1.82-2.55-3.48-4.24-4.77c-1.67-1.28-3.63-2.19-5.66-2.33c-2.02-0.12-4.04,0.44-5.79,1.53
				c-1.76,1.09-3.32,2.55-4.66,4.21c-2.48,3.11-4.29,6.93-4.75,10.98l-0.14-0.01c0.05-0.54,0.13-1.09,0.22-1.63
				c0.61-3.5,1.91-6.89,3.91-9.9c1.24-1.84,2.79-3.54,4.72-4.77c1.9-1.26,4.29-1.89,6.62-1.65c2.32,0.29,4.39,1.46,6.06,2.93
				c1.68,1.48,3.01,3.28,4.13,5.16c1.09,1.91,2,3.92,2.59,6.04c0.58,2.12,0.96,4.33,0.76,6.58c-0.09,1.12-0.32,2.23-0.77,3.31
				c-0.23,0.55-0.6,1.07-0.97,1.49L53.61,125c-1.44,1.61-2.79,3.29-4.12,5c-1.21,1.55-2.37,3.14-3.47,4.78
				c2.15-3.67,4.49-7.24,7-10.69l-0.1-0.09c0.7-0.73,1.44-1.38,1.83-2.15c0.44-0.9,0.73-1.93,0.88-2.97
				c0.27-2.08,0.1-4.27-0.46-6.34C54.64,110.46,53.79,108.45,52.67,106.61z"/>
			<path d="M53.02,124.09c-3.72,4.53-7.05,9.37-10.04,14.42c-0.37,0.21-0.8,0.36-1.18,0.4c-0.67,0.11-1.32,0.05-1.91-0.1
				c-1.21-0.28-2.25-0.84-3.21-1.47c-0.95-0.64-1.82-1.38-2.61-2.18c-1.58-1.6-2.87-3.45-3.89-5.42c-2.05-3.93-3.1-8.35-2.83-12.71
				c0.02-0.27,0.05-0.54,0.08-0.81l0.14,0.01c-0.03,0.27-0.05,0.54-0.07,0.81c-0.28,4.35,1.23,8.64,3.53,12.21
				c1.16,1.79,2.52,3.43,4.05,4.87c1.53,1.4,3.28,2.72,5.15,3.13c0.46,0.1,0.92,0.15,1.33,0.07c0.42-0.06,0.69-0.17,1-0.48
				c0.61-0.63,1.22-1.62,1.85-2.48c1.26-1.79,2.59-3.54,3.98-5.24c1.37-1.7,2.81-3.36,4.35-4.93c0.06-0.06,0.12-0.13,0.18-0.19
				L53.02,124.09z"/>
			<linearGradient id="SVGID_21_" gradientUnits="userSpaceOnUse" x1="24.9201" y1="136.643" x2="42.9759" y2="136.643">
				<stop  offset="0" style="stop-color:#E1306C"/>
				<stop  offset="0.0588" style="stop-color:#D53375"/>
				<stop  offset="0.6065" style="stop-color:#6A51C6"/>
				<stop  offset="0.8503" style="stop-color:#405DE6"/>
			</linearGradient>
			<path class="st26" d="M25.45,118.69c0.19-1.47,0.41-2.93,0.68-4.38l1.52,0.28c-0.09,0.54-0.17,1.09-0.22,1.63
				c-0.03,0.27-0.06,0.54-0.08,0.81c-0.27,4.36,0.78,8.78,2.83,12.71c1.02,1.97,2.31,3.82,3.89,5.42c0.79,0.8,1.66,1.54,2.61,2.18
				c0.96,0.63,2,1.19,3.21,1.47c0.59,0.15,1.24,0.21,1.91,0.1c0.38-0.04,0.81-0.19,1.18-0.4c-0.59,0.97-1.16,1.95-1.71,2.94
				c-3.08,5.63-5.68,11.5-7.89,17.53c-1.25-4.22-2.83-8.33-4.31-12.44c-0.81-2.26-1.62-4.52-2.28-6.78
				c-0.65-2.27-1.14-4.59-1.45-6.93C24.69,128.14,24.86,123.42,25.45,118.69z"/>
			<path d="M47.16,86.2c-4.63,0.35-8.77,2.99-11.84,6.44c-3.09,3.48-5.25,7.74-6.78,12.2c-1.05,3.08-1.83,6.25-2.41,9.47
				c-0.27,1.45-0.49,2.91-0.68,4.38c-0.59,4.73-0.76,9.45-0.11,14.14c0.31,2.34,0.8,4.66,1.45,6.93c0.66,2.26,1.47,4.52,2.28,6.78
				c1.48,4.11,3.06,8.22,4.31,12.44c-0.03,0.07-0.06,0.15-0.08,0.22c-1.75-4.09-3.69-8.08-5.47-12.17
				c-0.94-2.23-1.88-4.45-2.62-6.79c-0.74-2.34-1.28-4.73-1.65-7.16c-0.36-2.42-0.55-4.87-0.55-7.32c0.01-2.47,0.23-4.89,0.5-7.3
				c0.56-4.84,1.56-9.64,3.18-14.27c1.6-4.61,3.91-9.1,7.31-12.76c1.68-1.82,3.63-3.44,5.85-4.62c2.21-1.19,4.69-1.94,7.2-2.06
				c2.51-0.15,5.03,0.28,7.34,1.15c0.67,0.24,1.32,0.52,1.95,0.82c2.78,2.65,6.13,4.66,9.69,6.05c0.28,0.19,0.55,0.39,0.83,0.59
				c1.96,1.4,3.86,2.9,5.62,4.54c-3.79-2.96-7.88-5.5-12.06-7.84c-2.11-1.16-4.18-2.33-6.42-3.02
				C51.78,86.31,49.44,86.01,47.16,86.2z"/>
		</g>
		<g>
			<path class="st0" d="M232.72,179.53c2.5-1.14,4.81-2.6,6.73-4.52c3.09-3.08,4.4-6.96,4.73-11.23c0.22-2.83-0.46-6.32,0.82-8.96
				c0.19-0.4,0.44-0.76,0.73-1.08c0.94-1.03,2.2-1.67,3.6-2.04c3.23-0.86,7.24-0.3,10.07,0.11c6.53,0.95,11.62,2.05,18.05-0.78
				c4.67-2.06,9.38-5.11,13.21-8.5c6.85-6.06,7.72-13.06,1.5-19.87c11.07-0.09,18.06-8.6,21.91-18.37
				c5.06-21.82-23.31-19.33-23.41-19.32c-3.67,0.33-7.09-0.19-10.28-2.2c-3.37-2.13-5.84-5.56-7.36-9.2
				c-2.6-6.17-4.32-8.8-11.35-8.76c-7.52,0.05-14.8,2.38-21.58,5.47c-6.92,3.15-12.81,4.93-20.53,5.13"/>
			<path class="st0" d="M157.41,179.67c4.64,4.72,11.3,7.97,17.77,8.78c3.63,0.45,10.23,1.33,12.82-2.11
				c0.62-0.83,0.91-1.86,1.49-2.73c0.98-1.48,2.73-2.32,4.49-2.61c8.53-1.38,16.87,3.6,25.47,2.17c4.33-0.72,9.04-1.72,13.23-3.62"
				/>
			<path class="st0" d="M252.03,114.2c9.3,0.63,7.48,7.69,3.01,14.9c-4.89,7.92-12.96,16.03-12.96,16.03
				c-2.75,3.19-5.79,5.89-9.02,8.17c-5.3,3.77-11.13,6.41-17.07,8.22c-2.64,0.81-5.31,1.46-7.96,1.97c-0.03,0-0.05,0.01-0.08,0.01
				c-0.24,0.05-0.47,0.09-0.71,0.13c-3.37,0.61-6.71,1.01-9.95,1.23c-0.28,0.02-0.55,0.04-0.82,0.06c-0.01,0-0.02,0-0.02,0
				c-1.55,0.09-3.07,0.15-4.56,0.18c-0.02,0-0.03,0-0.05,0c-0.27,0-0.55,0.01-0.82,0.01c-13.47,0.14-24.15-2.2-25.95-2.61"/>
			<path class="st0" d="M118.21,62.23c3.34-1.59,7.88-3.44,13.46-4.96c0.06-0.01,0.12-0.03,0.18-0.05
				c4.13-1.11,8.83-2.05,14.03-2.58c4.52-0.45,9.42-0.6,14.67-0.29c3.13,0.17,6.38,0.52,9.74,1.06c3.13,0.5,6.37,1.17,9.69,2.04
				c3.06,0.79,6.21,1.76,9.42,2.91c0.04,0.01,0.09,0.03,0.13,0.05c5.3,1.89,10.79,4.29,16.46,7.29c0.06,0.03,0.13,0.07,0.2,0.11
				c4.19,2.22,8.48,4.77,12.85,7.68c0.01,0.01,0.02,0.01,0.03,0.02c0,0,0.35,0.25,0.99,0.72c0.24,0.18,0.53,0.4,0.86,0.65
				c2.25,1.72,6.31,4.97,10.86,9.34c1.07,1.03,2.16,2.12,3.26,3.26c0.04,0.03,0.07,0.07,0.1,0.1c6.44,6.67,13.19,15.24,16.87,24.63
				c1.87,4.75,2.95,9.72,2.8,14.75"/>
			<path class="st0" d="M249.33,151.7c-1.58,4.4-2.4,7.25-5.15,12.08"/>
			<path class="st0" d="M233.08,179.28c-0.12,0.08-0.24,0.16-0.36,0.25c-0.01,0.01-0.03,0.02-0.04,0.02
				c-7.3,5.01-19.53,11.97-36.06,15.47c-22.47,4.75-40.97,0.57-50.11-2.18"/>
			<path class="st0" d="M117.68,120.36c-0.62-0.84,4.32-9.08,11.15-8.75c6.79,0.32,10.41,6.71,9.72,7.5
				c-0.58,0.65-3.7-2.09-9.94-2.39C122.32,116.43,118.19,121.06,117.68,120.36z"/>
			<path class="st0" d="M33.56,119.43c-0.59-0.9,3.05-6.15,8.02-6.42c4.56-0.25,8.57,3.8,8.15,4.75c-0.29,0.7-2.78-0.57-7.4-0.26
				C36.81,117.87,34.01,120.12,33.56,119.43z"/>
		</g>
	</g>
	<path d="M40.29,137.42c3.91,5.41,6.53,6.46,12.23,3.95c3.77-1.67,7.31-4.04,10.69-6.5c4.48-3.25,9.15-5.81,14.56-3.61
		c3.36,1.37,5.97,1.19,9.23-0.38c4.34-2.09,8.82-1.17,13.08,1.33c4.17,2.44,8.4,4.99,12.89,6.54c5.95,2.06,8.24,0.79,11.68-4.58
		c-1.02,15.26-23.21,30.44-41.58,16.19c-8.17,7.44-17.43,9.02-27.51,5.05C47.74,152.33,42.11,145.63,40.29,137.42z"/>
	<ellipse transform="matrix(0.9228 -0.3853 0.3853 0.9228 -14.8317 50.3214)" cx="118.14" cy="62.17" rx="0.68" ry="0.43"/>
	<ellipse transform="matrix(0.9228 -0.3853 0.3853 0.9228 -14.9558 50.1374)" cx="117.62" cy="62.38" rx="0.68" ry="0.43"/>
	<g>
		<ellipse class="st27" cx="128.09" cy="117.51" rx="16.38" ry="17.94"/>
		<path d="M148.88,117.42c-0.09-0.7-0.19-1.43-0.64-1.98c-0.42-0.51-1.08-0.76-1.54-1.24c-0.63-0.66-0.78-1.64-0.96-2.54
			c-1.15-5.68-5.2-10.69-10.51-13c-4.58-1.99-9.99-1.93-14.56,0.08c-0.92,0.4-2.03,0.81-2.83,1.4c-0.96,0.71-1.8,1.7-2.56,2.61
			c-1.58,1.86-2.89,3.94-3.87,6.17c-1.15,2.62-1.82,5.46-1.91,8.32c-0.21,6.76,3.02,13.64,8.63,17.43s13.47,4.14,19.16,0.48
			c1.87-1.2,3.45-2.75,4.8-4.5c2.05-2.66,3.59-5.8,4.87-8.93c0-0.67,0-1.45,0,0c0.24,0.22,0.59,0.61,0.86,1.17
			c0.36,0.75,0.37,1.68,0.37,1.7c0.02,1.04,0.25,8.14,0.54,17.89c0.48,8,0.63,14.49,0.68,18.83c0.08,6.62,0.15,13.25,0.27,19.87
			c0.06,3.31,0.12,6.62,0.2,9.93c0.04,1.7,0.08,3.39,0.13,5.09c0.02,0.75-0.11,1.71,0.07,2.43c0.23,0.9,0.26,0.8,1.24,1.12
			c0.08,0.03,0.17,0.05,0.24,0.01c0.06-0.04,0.09-0.12,0.1-0.2c0.15-0.71,0.22-1.39,0.22-2.12c0.1-16,0.08-31.98-0.48-47.97
			C151.38,138.81,150.19,127.98,148.88,117.42z M127.97,135.45c-8.95-0.11-16.32-8.33-16.25-18.13c0.07-9.86,7.47-17.82,16.51-17.75
			c9.02,0.06,16.28,8.13,16.24,18.03C144.42,127.39,136.87,135.56,127.97,135.45z M148.44,123.9
			C148.44,123.9,148.44,123.9,148.44,123.9C148.44,123.93,148.44,123.93,148.44,123.9z"/>
		<path class="st20" d="M141.04,121.81c1.92-15.29-12.38-23.14-22.1-15.83c2.3-3.96,10.45-5.58,15.91-2.18
			C140.98,107.61,143.44,116.23,141.04,121.81z"/>
	</g>
	<path d="M156.52,182.67"/>
</g>
</svg>
