<svg width="293" height="255" viewBox="0 0 293 255" fill="none" xmlns="http://www.w3.org/2000/svg">
<g clip-path="url(#clip0_644_7548)">
<path d="M218.91 131.65H160.35V178.67H218.91V131.65Z" fill="white"/>
<path d="M82.57 91.33C82.57 91.33 82.6 91.31 82.61 91.31C86.8 89.41 91.51 88.41 95.84 87.69C104.44 86.26 112.78 91.24 121.31 89.86C123.07 89.57 124.82 88.73 125.8 87.25C126.38 86.38 126.67 85.35 127.29 84.52C129.88 81.08 136.48 81.96 140.11 82.41C146.58 83.22 153.24 86.47 157.88 91.19C156.87 92.62 155.92 94.09 155.08 95.65C154.23 97.27 153.49 98.9 152.8 100.57C151.78 103.1 150.86 105.69 150.22 108.36C148.42 107.95 137.74 105.61 124.27 105.75V105.7L124.25 105.25L123.81 105.27L118.4 105.53L117.97 105.55L118 105.97V106C114.76 106.22 111.42 106.62 108.05 107.23L108.07 106.81L107.55 106.94L99.64 108.87L99.4 108.93L99.34 109.17C99.33 109.23 99.31 109.28 99.3 109.34C93.36 111.15 87.53 113.79 82.23 117.56C79 119.84 75.96 122.54 73.21 125.73C73.21 125.73 65.14 133.84 60.25 141.76C55.78 148.97 53.96 156.03 63.26 156.66H63.28C66.96 166.04 73.71 174.61 80.15 181.28C80.18 181.31 80.21 181.35 80.25 181.38C81.35 182.52 82.44 183.61 83.51 184.64C84.79 185.9 86.09 187.15 87.4 188.39C88.62 189.55 89.86 190.69 91.12 191.8C92.39 192.92 93.67 194.01 95.08 195L95.73 195.45C88.01 195.65 82.12 197.43 75.2 200.58C68.42 203.67 61.14 206 53.62 206.05C46.59 206.09 44.87 203.46 42.27 197.29C40.75 193.65 38.28 190.22 34.91 188.09C31.72 186.08 28.3 185.56 24.63 185.89C24.53 185.9 -3.83997 188.39 1.22003 166.57C5.07003 156.8 12.06 148.29 23.13 148.2C16.91 141.39 17.78 134.39 24.63 128.33C28.46 124.94 33.17 121.89 37.84 119.83C44.27 117 49.36 118.1 55.89 119.05C58.72 119.46 62.73 120.02 65.96 119.16C67.36 118.79 68.62 118.15 69.56 117.12C69.85 116.8 70.1 116.44 70.29 116.04C71.57 113.4 70.89 109.91 71.11 107.08C71.44 102.81 72.75 98.93 75.84 95.85C77.76 93.93 80.07 92.47 82.57 91.33Z" fill="url(#paint0_linear_644_7548)"/>
<path d="M71.1101 107.08C70.8901 109.91 71.5701 113.4 70.2901 116.04C70.1001 116.44 69.8501 116.8 69.5601 117.12C68.6201 118.15 67.3601 118.79 65.9601 119.16C67.5401 114.76 68.3601 111.91 71.1101 107.08Z" fill="url(#paint1_linear_644_7548)"/>
<path d="M73.2101 125.73C75.9601 122.54 79.0001 119.84 82.2301 117.56L83.3201 119.13C83.2901 119.22 83.2801 119.32 83.2901 119.35V119.46L83.3201 119.68L83.4701 121.47L83.7701 125.05C84.7501 134.55 86.8001 144.01 90.5601 152.83C92.3701 157.27 94.6401 161.51 97.3101 165.48C100 169.45 103.03 173.18 106.79 176.23C109.57 178.92 111.98 182.03 114.42 185.07C116.84 188.14 119.19 191.27 121.53 194.4C126.2 200.68 130.79 207.02 135.31 213.41C132.25 212.62 129.1 211.65 125.89 210.5L125.92 210.46L121.45 206.03L119.22 203.81C118.49 203.06 117.82 202.25 117.11 201.48L112.88 196.82C111.52 195.22 110.23 193.57 108.91 191.94L106.93 189.5C106.28 188.67 105.69 187.81 105.07 186.97L101.37 181.88C99.0801 178.37 96.7201 174.91 94.5901 171.29C90.2201 164.15 86.3101 156.72 82.8401 149.09C79.3701 141.46 76.2901 133.63 73.9501 125.6L73.2101 125.73Z" fill="url(#paint2_linear_644_7548)"/>
<path d="M74.53 130.1C74.06 128.67 73.63 127.23 73.22 125.79L73.96 125.66L74.53 130.1Z" fill="black"/>
<path d="M74.53 130.1C76.62 136.7 79.16 143.15 81.98 149.48C85.38 157.18 89.37 164.62 93.74 171.81C95.85 175.46 98.33 178.87 100.67 182.37L104.46 187.43C105.09 188.26 105.71 189.12 106.37 189.94L108.39 192.36C113.59 198.93 119.59 204.81 125.76 210.45C120.46 208.56 114.97 206.16 109.3 203.16L109.33 203.12C103.92 198.28 99.34 192.57 95.26 186.59C91.2 180.58 87.65 174.23 84.73 167.59C83.96 165.95 83.37 164.23 82.67 162.56L81.66 160.04C81.35 159.19 81.08 158.32 80.79 157.46L79.09 152.3L77.7 147.05L77.01 144.42C76.77 143.54 76.64 142.64 76.46 141.76L75.42 136.42L75.16 135.09L74.99 133.74L74.65 131.05L74.53 130.1Z" fill="url(#paint3_linear_644_7548)"/>
<path d="M80.15 181.28C73.71 174.61 66.96 166.04 63.28 156.65C61.41 151.9 60.33 146.93 60.48 141.9L60.25 141.76C65.14 133.84 73.21 125.73 73.21 125.73V125.79L73.93 131.15L74.29 133.85L74.48 135.2L74.74 136.54L75.82 141.9C76.01 142.78 76.15 143.69 76.39 144.56L77.1 147.2L78.53 152.47L80.28 157.64C80.57 158.5 80.84 159.37 81.17 160.22L82.19 162.75C82.9 164.42 83.52 166.14 84.3 167.78C87.28 174.42 90.9 180.76 95.02 186.75C99.13 192.66 103.7 198.27 109.1 203.05C104.91 200.83 100.62 198.28 96.25 195.37L95.65 194.44C92.96 190.28 90.4 186.03 87.9 181.74C85.39 177.47 83 173.13 80.72 168.73C78.39 164.36 76.26 159.88 74.34 155.32C73.34 153.05 72.52 150.72 71.71 148.38L70.66 144.82L69.9 141.23L69.88 141.13C69.7 141.65 69.73 142.02 69.67 142.48C69.63 142.91 69.62 143.35 69.59 143.78C69.57 144.66 69.56 145.53 69.59 146.4C69.63 148.15 69.81 149.89 70.03 151.62C70.49 155.09 71.27 158.5 72.23 161.86L72.98 164.37L73.83 166.85C74.37 168.52 75.07 170.12 75.69 171.75C76.36 173.37 77.1 174.95 77.8 176.55L80.13 181.25V181.28H80.15Z" fill="url(#paint4_linear_644_7548)"/>
<path d="M82.23 117.56C87.53 113.79 93.36 111.15 99.3 109.34C98.21 113.87 98.16 118.54 98.48 123.12C98.83 127.77 99.6 132.37 100.57 136.91C101.56 141.46 102.77 145.95 104.14 150.39C105.28 154.07 106.52 157.71 107.91 161.31C105.22 158.43 102.85 155.25 100.64 151.97C98.01 148.02 95.63 143.89 93.43 139.68C91.23 135.46 89.2 131.15 87.33 126.78C86.39 124.59 85.48 122.39 84.64 120.16L84.32 119.33L84.23 119.1C84.18 118.96 84 118.82 83.84 118.81C83.68 118.8 83.54 118.85 83.43 118.96C83.38 119 83.34 119.06 83.32 119.13L82.23 117.56Z" fill="url(#paint5_linear_644_7548)"/>
<path d="M95.84 87.69C91.51 88.41 86.8 89.41 82.61 91.31C89.91 86.3 102.14 79.34 118.67 75.84C141.14 71.09 159.64 75.27 168.78 78.02C167.43 79.57 166.11 81.14 164.78 82.68C162.46 85.38 160.09 88.09 157.99 91.04C157.95 91.09 157.92 91.14 157.88 91.19C153.24 86.47 146.58 83.22 140.11 82.41C136.48 81.96 129.88 81.08 127.29 84.52C126.67 85.35 126.38 86.38 125.8 87.25C124.82 88.73 123.07 89.57 121.31 89.86C112.78 91.24 104.44 86.26 95.84 87.69Z" fill="url(#paint6_linear_644_7548)"/>
<path d="M84.04 119.31V119.42L84.0701 119.64L84.19 121.11C84.09 120.89 84.01 120.66 83.92 120.43L83.61 119.59L83.54 119.41C83.56 119.48 83.67 119.57 83.76 119.57C83.84 119.57 83.91 119.55 83.97 119.49C84.03 119.45 84.05 119.29 84.04 119.31Z" fill="black"/>
<path d="M91.6201 191.23C90.3601 190.13 89.1101 189.01 87.8801 187.87C85.4301 185.6 83.0201 183.28 80.6601 180.92L78.3201 176.31C77.6101 174.72 76.8501 173.15 76.1701 171.55C75.5401 169.93 74.8101 168.35 74.2601 166.7L73.3801 164.25L72.6001 161.75C71.6001 158.42 70.7801 155.03 70.2701 151.59C69.7801 148.17 69.5501 144.6 69.8801 141.23L70.3901 144.88L71.2901 148.51C72.0101 150.89 72.7701 153.26 73.7001 155.58C75.4901 160.23 77.5901 164.74 79.8401 169.18C84.0401 177.36 88.7001 185.27 93.7101 192.97C93.0001 192.41 92.3101 191.82 91.6201 191.23Z" fill="url(#paint7_linear_644_7548)"/>
<path d="M94.37 193.98C92.12 192.26 88.06 189.01 83.51 184.64C82.41 183.56 81.33 182.48 80.25 181.38C80.21 181.35 80.18 181.31 80.15 181.28V181.25L77.81 176.55C77.11 174.95 76.37 173.37 75.7 171.75C75.08 170.12 74.38 168.52 73.84 166.85L72.99 164.37L72.24 161.86C71.28 158.5 70.5 155.09 70.04 151.62C69.82 149.89 69.64 148.15 69.6 146.4C69.56 145.53 69.57 144.66 69.6 143.78C69.63 143.35 69.64 142.91 69.68 142.48C69.74 142.02 69.71 141.65 69.89 141.13L69.91 141.23H69.89C69.56 144.6 69.79 148.17 70.28 151.59C70.79 155.03 71.61 158.42 72.61 161.75L73.39 164.25L74.27 166.7C74.82 168.35 75.55 169.93 76.18 171.55C76.86 173.15 77.62 174.72 78.33 176.31L80.67 180.92C83.03 183.28 85.44 185.6 87.89 187.87C89.12 189.01 90.37 190.13 91.63 191.23C92.32 191.82 93.01 192.41 93.72 192.97C93.94 193.31 94.16 193.64 94.38 193.98H94.37Z" fill="black"/>
<path d="M94.3701 193.98C94.1501 193.64 93.9301 193.31 93.7101 192.97C94.3101 193.44 94.9101 193.9 95.5301 194.32L95.2301 194.63C94.9901 194.45 94.7001 194.23 94.3701 193.98Z" fill="black"/>
<path d="M94.97 194.89C94.77 194.59 94.57 194.28 94.37 193.98C94.7 194.23 94.99 194.45 95.23 194.63L94.97 194.89Z" fill="black"/>
<path d="M93.71 192.97C88.7 185.27 84.04 177.36 79.84 169.18C77.59 164.74 75.49 160.23 73.7 155.58C72.77 153.26 72.01 150.89 71.29 148.51L70.39 144.88L69.88 141.23H69.9L70.66 144.82L71.71 148.38C72.52 150.72 73.34 153.05 74.34 155.32C76.26 159.88 78.39 164.36 80.72 168.73C83 173.13 85.39 177.47 87.9 181.74C90.4 186.03 92.96 190.28 95.65 194.44L96.25 195.37C96.25 195.37 96.23 195.37 96.22 195.35C96.22 195.35 95.87 195.1 95.23 194.63L95.53 194.32C94.91 193.9 94.31 193.44 93.71 192.97Z" fill="black"/>
<path d="M96.22 195.35C96.22 195.35 96.24 195.35 96.25 195.37L96.78 196.19L95.73 195.45L95.08 195C93.67 194.01 92.39 192.92 91.12 191.8C89.86 190.69 88.62 189.55 87.4 188.39C86.09 187.15 84.79 185.9 83.51 184.64C88.06 189.01 92.12 192.26 94.37 193.98C94.57 194.28 94.77 194.59 94.97 194.89L95.23 194.63C95.87 195.1 96.22 195.35 96.22 195.35Z" fill="black"/>
<path d="M99.8401 109.67L100.14 109.37C100.12 109.45 100.1 109.53 100.09 109.61L99.8401 109.67Z" fill="black"/>
<path d="M95.26 186.59C99.34 192.57 103.92 198.28 109.33 203.12L109.3 203.16C109.24 203.13 109.17 203.09 109.1 203.05C103.7 198.27 99.13 192.66 95.02 186.75C90.9 180.76 87.28 174.42 84.3 167.78C83.52 166.14 82.9 164.42 82.19 162.75L81.17 160.22C80.84 159.37 80.57 158.5 80.28 157.64L78.53 152.47L77.1 147.2L76.39 144.56C76.15 143.69 76.01 142.78 75.82 141.9L74.74 136.54L74.48 135.2L74.29 133.85L73.93 131.15L73.22 125.79C73.63 127.23 74.06 128.67 74.53 130.1L74.65 131.05L74.99 133.74L75.16 135.09L75.42 136.42L76.46 141.76C76.64 142.64 76.77 143.54 77.01 144.42L77.7 147.05L79.09 152.3L80.79 157.46C81.08 158.32 81.35 159.19 81.66 160.04L82.67 162.56C83.37 164.23 83.96 165.95 84.73 167.59C87.65 174.23 91.2 180.58 95.26 186.59Z" fill="black"/>
<path d="M107.24 107.82C107.24 107.67 107.25 107.52 107.26 107.37C107.29 107.37 107.31 107.36 107.34 107.36L107.74 107.7L107.24 107.82Z" fill="black"/>
<path d="M107.26 107.37V107.29L107.34 107.36C107.34 107.36 107.29 107.37 107.26 107.37Z" fill="black"/>
<path d="M99.64 108.87L107.55 106.94L108.07 106.81L108.05 107.23C107.81 107.27 107.58 107.31 107.34 107.36L107.26 107.29V107.37C104.61 107.88 101.94 108.53 99.3 109.34C99.31 109.28 99.33 109.23 99.34 109.17L99.4 108.93L99.64 108.87Z" fill="black"/>
<path d="M99.8401 109.67L100.09 109.61C99.0601 113.98 99.0301 118.55 99.3601 123.05C99.7101 127.65 100.49 132.21 101.48 136.71C102.49 141.22 103.7 145.68 105.08 150.09C106.45 154.44 107.92 158.77 109.59 162.99L109.55 163.01C108.99 162.46 108.44 161.89 107.91 161.31C106.52 157.71 105.28 154.07 104.14 150.39C102.77 145.95 101.56 141.46 100.57 136.91C99.6001 132.37 98.8301 127.77 98.4801 123.12C98.1601 118.54 98.2101 113.87 99.3001 109.34C101.94 108.53 104.61 107.88 107.26 107.37C107.26 107.52 107.24 107.67 107.24 107.82L100.09 109.61C100.1 109.53 100.12 109.45 100.14 109.37L99.8401 109.67Z" fill="black"/>
<path d="M109.43 136.55C108.21 126.87 107.6 117.07 108.04 107.35V107.23C111.42 106.62 114.76 106.22 118 106C118.39 111.16 119.02 116.3 120.11 121.36C121.19 126.42 122.48 131.44 124.11 136.35C125.72 141.27 127.53 146.12 129.55 150.88C131.59 155.62 133.78 160.29 136.26 164.83L139.88 172.88C141.28 175.47 142.6 178.11 144.08 180.65L146.43 184.39L147.6 186.26L148.91 188.04L151.52 191.6L154.38 194.96C158.29 199.36 162.63 203.4 167.53 206.67C170 208.28 172.53 209.8 175.23 210.97C177.86 212.15 180.59 213.14 183.44 213.64C179.31 214.75 174.61 215.69 169.41 216.22C165.09 213.89 161.18 210.88 157.62 207.53C154.07 204.17 150.81 200.5 147.89 196.58C144.94 192.68 142.21 188.62 139.69 184.43C137.19 180.23 134.86 175.92 132.67 171.55C128.35 162.77 124.5 153.76 121.14 144.57C117.78 135.39 114.78 126.05 112.31 116.6L111.34 116.77V116.84L113.22 130.68C113.35 131.84 113.56 132.99 113.78 134.14L114.42 137.59L115.7 144.49C115.9 145.65 116.17 146.78 116.45 147.92L117.27 151.33L118.91 158.16L120.95 164.88L121.97 168.23C122.29 169.36 122.76 170.44 123.15 171.54L125.61 178.12C126.53 180.27 127.51 182.39 128.46 184.53C129.35 186.7 130.56 188.72 131.63 190.8C132.2 191.82 132.7 192.88 133.32 193.88L135.19 196.85C135.84 197.82 136.4 198.85 137.11 199.78L139.21 202.6L140.26 204.01L141.41 205.34C142.18 206.22 142.93 207.11 143.72 207.98L146.22 210.44C147.05 211.27 147.99 211.97 148.87 212.74C150.7 214.17 152.6 215.57 154.74 216.51C151.61 216.34 148.36 215.99 145 215.45C138.78 207.9 133.08 199.92 128.08 191.52C125.57 187.33 123.21 183.05 121.03 178.68C119.93 176.5 118.89 174.29 117.9 172.06C117.41 170.94 116.9 169.82 116.5 168.69L115.44 165.19C114.02 160.52 112.89 155.76 111.84 151C110.9 146.2 110.02 141.4 109.43 136.55Z" fill="url(#paint8_linear_644_7548)"/>
<path d="M108.77 163.54C108.47 162.8 108.18 162.06 107.91 161.31C108.44 161.89 108.99 162.46 109.55 163.01L108.77 163.54Z" fill="black"/>
<path d="M109.1 203.05C109.17 203.09 109.24 203.13 109.3 203.16L109.27 203.2C109.21 203.15 109.16 203.1 109.1 203.05Z" fill="black"/>
<path d="M109.66 163.17L110.51 165.31L108.88 163.7C108.83 163.65 108.79 163.61 108.75 163.56L108.77 163.54L109.55 163.01L109.59 162.99C109.61 163.05 109.64 163.11 109.66 163.17Z" fill="black"/>
<path d="M111.35 116.84L112.32 116.67L113.25 123.74C112.59 121.45 111.95 119.15 111.35 116.84Z" fill="black"/>
<path d="M118.44 106.37L118.82 105.94H118.84C118.85 106.08 118.86 106.21 118.87 106.35L118.44 106.37Z" fill="black"/>
<path d="M118.82 105.94L118.84 105.92V105.94H118.82Z" fill="black"/>
<path d="M118.87 106.35C118.87 106.21 118.85 106.08 118.84 105.94C120.39 105.85 121.91 105.79 123.4 105.76C123.41 105.89 123.42 106.03 123.43 106.16L118.87 106.35Z" fill="black"/>
<path d="M121.45 206.03L125.92 210.46L125.89 210.5C125.89 210.5 125.8 210.47 125.76 210.45C119.59 204.81 113.59 198.93 108.39 192.36L106.37 189.94C105.71 189.12 105.09 188.26 104.46 187.43L100.67 182.37C98.33 178.87 95.85 175.46 93.74 171.81C89.37 164.62 85.38 157.18 81.98 149.48C79.16 143.15 76.62 136.7 74.53 130.1L73.96 125.66L73.22 125.79V125.73L73.95 125.6C76.29 133.63 79.37 141.46 82.84 149.09C86.31 156.72 90.22 164.15 94.59 171.29C96.72 174.91 99.08 178.37 101.37 181.88L105.07 186.97C105.69 187.81 106.28 188.67 106.93 189.5L108.91 191.94C110.23 193.57 111.52 195.22 112.88 196.82L117.11 201.48C117.82 202.25 118.49 203.06 119.22 203.81L121.45 206.03Z" fill="black"/>
<path d="M121.75 194.25C126.35 200.58 130.86 206.97 135.31 213.41C130.79 207.02 126.2 200.68 121.53 194.4C119.19 191.27 116.84 188.14 114.42 185.07C111.98 182.03 109.57 178.92 106.79 176.23C103.03 173.18 100 169.45 97.3101 165.48C94.6401 161.51 92.3701 157.27 90.5601 152.83C86.8001 144.01 84.7501 134.55 83.7701 125.05L83.4701 121.47L83.3201 119.68L83.3001 119.46V119.35C83.3001 119.35 83.2901 119.22 83.3201 119.13C83.3401 119.06 83.3801 119 83.4301 118.96C83.5401 118.85 83.6801 118.8 83.8401 118.81C84.0001 118.81 84.1801 118.96 84.2301 119.1L84.3201 119.33L84.6401 120.16C85.4801 122.39 86.3901 124.59 87.3301 126.78C89.2001 131.15 91.23 135.46 93.43 139.68C95.63 143.89 98.0101 148.02 100.64 151.97C102.85 155.25 105.22 158.43 107.91 161.31C108.18 162.06 108.47 162.8 108.77 163.54L108.75 163.56C105.37 160.2 102.5 156.4 99.8901 152.47C97.2501 148.47 94.87 144.31 92.68 140.07C90.48 135.82 88.4701 131.48 86.6001 127.09C85.7601 125.1 84.9501 123.12 84.1901 121.11L84.0701 119.64L84.0501 119.42V119.31C84.0501 119.31 84.0301 119.45 83.9701 119.49C83.9101 119.55 83.8401 119.57 83.7601 119.57C83.6701 119.57 83.5601 119.48 83.5401 119.41L83.6101 119.59L83.9201 120.43C84.0101 120.66 84.0901 120.89 84.1901 121.11L84.2101 121.42L84.5001 124.97C85.4401 134.42 87.4401 143.83 91.1401 152.59C92.9101 157 95.1501 161.22 97.7801 165.17C100.42 169.1 103.45 172.85 107.1 175.83H107.12C108.57 177.21 109.85 178.7 111.09 180.22C112.34 181.73 113.54 183.28 114.73 184.83C117.12 187.93 119.44 191.08 121.75 194.25Z" fill="black"/>
<path d="M121.75 194.25C119.44 191.08 117.12 187.93 114.73 184.83C113.54 183.28 112.34 181.73 111.09 180.22C109.85 178.7 108.57 177.21 107.12 175.84H107.1C103.45 172.85 100.42 169.1 97.7801 165.17C95.1501 161.22 92.9101 157 91.1401 152.59C87.4401 143.83 85.4401 134.42 84.5001 124.97L84.2101 121.42L84.1901 121.11C84.9501 123.12 85.7601 125.1 86.6001 127.09C88.4701 131.48 90.4801 135.82 92.6801 140.07C94.8701 144.31 97.2501 148.47 99.8901 152.47C102.5 156.4 105.37 160.2 108.75 163.56C108.79 163.61 108.83 163.65 108.88 163.7L110.51 165.31L109.66 163.17C109.64 163.11 109.61 163.05 109.59 162.99C107.92 158.77 106.45 154.44 105.08 150.09C103.7 145.68 102.49 141.22 101.48 136.71C100.49 132.21 99.7101 127.65 99.3601 123.05C99.0301 118.55 99.0601 113.98 100.09 109.61L107.24 107.82C106.86 117.47 107.52 127.09 108.76 136.64C109.37 141.5 110.28 146.32 111.24 151.12C112.31 155.9 113.46 160.67 114.91 165.35L115.99 168.87C116.41 170.04 116.91 171.15 117.41 172.27C118.42 174.51 119.47 176.72 120.58 178.9C122.81 183.26 125.23 187.53 127.79 191.7C132.9 200.05 138.69 207.97 145 215.45C141.87 214.95 138.63 214.28 135.31 213.41C130.86 206.97 126.35 200.58 121.75 194.25Z" fill="url(#paint9_linear_644_7548)"/>
<path d="M123.4 105.76V105.71L123.45 105.76H123.4Z" fill="black"/>
<path d="M123.43 106.16C123.42 106.03 123.41 105.89 123.4 105.76H123.45L123.85 106.14L123.43 106.16Z" fill="black"/>
<path d="M124.27 105.75C124 105.75 123.72 105.76 123.45 105.76L123.4 105.71V105.76C121.91 105.79 120.39 105.85 118.84 105.94V105.92L118.82 105.94C118.55 105.96 118.28 105.98 118 106V105.97L117.97 105.55L118.4 105.53L123.81 105.27L124.25 105.25L124.27 105.7V105.75Z" fill="black"/>
<path d="M125.76 210.45C125.76 210.45 125.85 210.49 125.89 210.5L125.86 210.54C125.86 210.54 125.79 210.48 125.76 210.45Z" fill="black"/>
<path d="M127.79 191.7C125.23 187.53 122.81 183.26 120.58 178.9C119.47 176.72 118.42 174.51 117.41 172.27C116.91 171.15 116.41 170.04 115.99 168.87L114.91 165.35C113.46 160.67 112.31 155.9 111.24 151.12C110.28 146.32 109.37 141.5 108.76 136.64C107.52 127.09 106.86 117.47 107.24 107.82L107.74 107.7L107.34 107.36C107.58 107.31 107.81 107.27 108.05 107.23V107.35C107.6 117.07 108.21 126.87 109.43 136.55C110.02 141.4 110.9 146.2 111.84 151C112.89 155.76 114.02 160.52 115.44 165.19L116.5 168.69C116.9 169.82 117.41 170.94 117.9 172.06C118.89 174.29 119.93 176.5 121.03 178.68C123.21 183.05 125.57 187.33 128.08 191.52C133.08 199.92 138.78 207.9 145 215.45C138.69 207.97 132.9 200.05 127.79 191.7Z" fill="black"/>
<path d="M137.46 199.55C136.76 198.61 136.22 197.57 135.59 196.59L133.77 193.61C133.16 192.62 132.67 191.56 132.12 190.53C131.07 188.45 129.89 186.44 129.02 184.27C128.1 182.13 127.14 180.01 126.24 177.86L123.86 171.29C123.49 170.19 123.02 169.11 122.72 167.99L121.73 164.63L119.74 157.93L118.13 151.13L117.32 147.73C117.04 146.6 116.77 145.46 116.59 144.31L115.33 137.43L114.71 133.99C114.49 132.84 114.28 131.7 114.15 130.54L113.25 123.74C115.34 130.88 117.71 137.92 120.28 144.89C123.7 154.09 127.53 163.14 131.97 171.9C134.21 176.27 136.59 180.57 139.14 184.76C141.71 188.94 144.49 193 147.49 196.89C150.49 200.77 153.83 204.4 157.45 207.71C161.08 211.01 165.05 213.96 169.41 216.21C164.89 216.67 159.99 216.82 154.74 216.51C152.61 215.54 150.75 214.11 148.94 212.64C148.08 211.86 147.15 211.15 146.34 210.31L143.89 207.81C143.12 206.94 142.39 206.03 141.63 205.15L140.51 203.81L139.49 202.39L137.46 199.55Z" fill="url(#paint10_linear_644_7548)"/>
<path d="M146.22 210.44L143.72 207.98C142.93 207.11 142.18 206.22 141.41 205.34L140.26 204.01L139.21 202.6L137.11 199.78C136.4 198.85 135.84 197.82 135.19 196.85L133.32 193.88C132.7 192.88 132.2 191.82 131.63 190.8C130.56 188.72 129.35 186.7 128.46 184.53C127.51 182.39 126.53 180.27 125.61 178.12L123.15 171.54C122.76 170.44 122.29 169.36 121.97 168.23L120.95 164.88L118.91 158.16L117.27 151.33L116.45 147.92C116.17 146.78 115.9 145.65 115.7 144.49L114.42 137.59L113.78 134.14C113.56 132.99 113.35 131.84 113.22 130.68L111.35 116.84C111.95 119.15 112.59 121.45 113.25 123.74L114.15 130.54C114.28 131.7 114.49 132.84 114.71 133.99L115.33 137.43L116.59 144.31C116.77 145.46 117.04 146.6 117.32 147.73L118.13 151.13L119.74 157.93L121.73 164.63L122.72 167.99C123.02 169.11 123.49 170.19 123.86 171.29L126.24 177.86C127.14 180.01 128.1 182.13 129.02 184.27C129.89 186.44 131.07 188.45 132.12 190.53C132.67 191.56 133.16 192.62 133.77 193.61L135.59 196.59C136.22 197.57 136.76 198.61 137.46 199.55L139.49 202.39L140.51 203.81L141.63 205.15C142.39 206.03 143.12 206.94 143.89 207.81L146.34 210.31C147.15 211.15 148.08 211.86 148.94 212.64C150.75 214.11 152.61 215.54 154.74 216.51C152.6 215.57 150.7 214.17 148.87 212.74C147.99 211.97 147.05 211.27 146.22 210.44Z" fill="black"/>
<path d="M157.9 91.2101C157.9 91.2101 152.44 100.23 150.49 108.43C150.49 108.43 150.4 108.41 150.22 108.36C150.86 105.69 151.78 103.1 152.8 100.57C153.49 98.9001 154.23 97.2701 155.08 95.6501C155.92 94.0901 156.87 92.6201 157.88 91.1901C157.88 91.1901 157.887 91.1967 157.9 91.2101Z" fill="black"/>
<path d="M147.89 196.58C150.81 200.5 154.07 204.17 157.62 207.53C161.18 210.88 165.09 213.89 169.41 216.21C165.05 213.96 161.08 211.01 157.45 207.71C153.83 204.4 150.49 200.77 147.49 196.89C144.49 193 141.71 188.94 139.14 184.76C136.59 180.57 134.21 176.27 131.97 171.9C127.53 163.14 123.7 154.09 120.28 144.89C117.71 137.92 115.34 130.88 113.25 123.74L112.32 116.67L111.35 116.84V116.77L112.31 116.6C114.78 126.05 117.78 135.39 121.14 144.57C124.5 153.76 128.35 162.77 132.67 171.55C134.86 175.92 137.19 180.23 139.69 184.43C142.21 188.62 144.94 192.68 147.89 196.58Z" fill="black"/>
<path d="M163.37 135.54C162.31 136.95 161.21 138.26 160.46 139.8C159.68 141.29 158.92 142.83 158.52 144.5C158.09 146.16 157.87 147.89 157.85 149.62C157.82 151.35 157.95 153.1 158.32 154.8L158.22 154.83C157.25 151.45 157.04 147.83 157.74 144.32C158.05 142.57 158.64 140.82 159.6 139.29C159.85 138.92 160.09 138.54 160.36 138.18C160.66 137.84 160.95 137.5 161.26 137.18C161.85 136.5 162.61 136 163.31 135.46L163.37 135.54Z" fill="black"/>
<path d="M164.76 13.3401C163.77 13.8701 162.83 14.4901 161.93 15.1801C163.54 13.7901 165.36 12.6101 167.33 11.7401C167.11 11.8501 166.89 11.9701 166.67 12.1001C166.01 12.4901 165.37 12.8901 164.76 13.3401Z" fill="black"/>
<path d="M175.29 210.83C177.96 212.04 180.74 213.07 183.62 213.57V213.59C183.56 213.6 183.5 213.62 183.44 213.64C180.59 213.14 177.86 212.15 175.23 210.97C172.53 209.8 170 208.28 167.53 206.67C162.63 203.4 158.29 199.36 154.38 194.96L151.52 191.6L148.91 188.04L147.6 186.26L146.43 184.39L144.08 180.65C142.6 178.11 141.28 175.47 139.88 172.88L136.26 164.83C133.78 160.29 131.59 155.62 129.55 150.88C127.53 146.12 125.72 141.27 124.11 136.35C122.48 131.44 121.19 126.42 120.11 121.36C119.02 116.3 118.39 111.16 118 106C118.28 105.98 118.55 105.96 118.82 105.94L118.44 106.37L118.87 106.35C119.22 111.34 119.82 116.31 120.85 121.21C121.91 126.24 123.16 131.25 124.76 136.14C126.34 141.05 128.12 145.89 130.11 150.64C132.12 155.38 134.3 160.07 136.74 164.59V164.61H136.76L140.32 172.66C141.7 175.24 143 177.88 144.46 180.42L146.77 184.16L147.93 186.03L149.22 187.81L151.79 191.38L154.62 194.74C158.48 199.14 162.79 203.2 167.65 206.49C170.09 208.1 172.61 209.63 175.29 210.82V210.83Z" fill="black"/>
<path d="M176.62 123.24C179.56 122.44 182.59 122 185.62 121.9C185.66 121.94 185.69 121.99 185.73 122.03C184.28 122.19 182.85 122.45 181.43 122.76C179.88 123.09 178.34 123.49 176.85 124.01C175.37 124.54 173.95 125.2 172.54 125.86C171.13 126.53 169.8 127.3 168.47 128.22L168.39 128.15C169.35 126.83 170.67 125.8 172.08 124.97C173.5 124.15 175.07 123.68 176.62 123.24Z" fill="black"/>
<path d="M135.49 141.42C135.49 141.42 135.49 141.42 135.49 141.4V141.42ZM170.83 185.78C175.73 189.51 181.26 192.52 187.29 193.98C187.25 194.02 187.22 194.05 187.2 194.08C184.26 193.44 181.42 192.41 178.7 191.12C175.82 189.76 173.09 188.08 170.53 186.18C165.38 182.41 160.82 177.91 156.61 173.13C152.42 168.34 148.6 163.22 145.08 157.92C141.56 152.62 138.35 147.14 135.49 141.43C134.73 140.04 133.95 138.67 133.21 137.28C132.52 135.86 131.75 134.47 131.11 133.02C129.76 130.16 128.56 127.23 127.48 124.25C126.44 121.26 125.52 118.22 124.81 115.13C124.14 112.18 123.59 109.22 123.43 106.16L123.85 106.14L123.45 105.76C123.72 105.76 124 105.75 124.27 105.75C124.43 108.8 125 111.91 125.71 114.92C126.44 117.97 127.36 120.97 128.41 123.92C129.48 126.86 130.67 129.77 132.01 132.6C132.65 134.03 133.4 135.41 134.09 136.81C134.83 138.2 135.6 139.56 136.36 140.94V140.96H136.37C139.19 146.61 142.44 152.07 145.86 157.39C149.31 162.71 153.04 167.84 157.16 172.65C161.28 177.45 165.76 181.97 170.83 185.77V185.78Z" fill="black"/>
<path d="M183.44 213.64C183.5 213.62 183.56 213.6 183.62 213.59V213.67C183.55 213.67 183.5 213.65 183.44 213.64Z" fill="black"/>
<path d="M185.7 201.77C184.71 201.54 183.74 201.3 182.76 201.04C179.33 200.12 175.97 198.93 172.7 197.55C171.08 196.81 169.45 196.1 167.91 195.21C167.12 194.78 166.34 194.37 165.58 193.86C164.81 193.37 164.07 192.91 163.34 192.43C163.89 194.01 164.8 195.45 165.86 196.74C166.35 197.42 166.97 197.99 167.54 198.61C168.15 199.18 168.78 199.75 169.42 200.29C172.04 202.4 175.08 203.96 178.21 205.14C179.77 205.81 181.4 206.21 183.01 206.7C184.63 207.12 186.29 207.41 187.93 207.74C189.6 207.95 191.26 208.2 192.93 208.37L197.08 208.63C193.74 210.22 189.2 212.07 183.62 213.59V213.57C180.74 213.07 177.96 212.04 175.29 210.83C172.61 209.64 170.09 208.11 167.65 206.5C162.79 203.21 158.48 199.15 154.62 194.75L151.79 191.39L149.22 187.82L147.93 186.04L146.77 184.17L144.46 180.43C143 177.89 141.7 175.25 140.32 172.67L136.76 164.62H136.75V164.59C134.31 160.07 132.13 155.38 130.12 150.64C128.13 145.89 126.35 141.05 124.77 136.14C123.17 131.25 121.92 126.24 120.86 121.21C119.83 116.31 119.23 111.34 118.88 106.35L123.44 106.16C123.6 109.22 124.15 112.18 124.82 115.13C125.53 118.22 126.45 121.26 127.49 124.25C128.57 127.23 129.77 130.16 131.12 133.02C131.76 134.47 132.53 135.86 133.22 137.28C133.96 138.67 134.74 140.04 135.5 141.43C138.36 147.14 141.57 152.62 145.09 157.92C148.61 163.22 152.43 168.34 156.62 173.13C160.83 177.91 165.39 182.41 170.54 186.18C173.1 188.08 175.83 189.76 178.71 191.12C181.43 192.41 184.27 193.44 187.21 194.08C186.61 194.78 186.06 195.52 185.59 196.34C185.41 196.68 185.23 197.04 185.1 197.43C184.98 197.83 184.87 198.28 185 198.82C185.13 199.37 185.68 199.81 186.14 199.89L185.71 201.77H185.7Z" fill="url(#paint11_linear_644_7548)"/>
<path d="M185.62 121.9C185.79 121.89 185.96 121.88 186.13 121.88V121.98C186 121.99 185.86 122.01 185.73 122.03C185.69 121.99 185.66 121.94 185.62 121.9Z" fill="black"/>
<path d="M180.23 111.11C182.31 117.27 186.25 122.79 191.35 126.93L191.23 127.09C189.24 125.6 187.39 123.9 185.73 122.03C185.86 122.01 186 121.99 186.13 121.98V121.88C185.96 121.88 185.79 121.88 185.62 121.9C182.93 118.83 180.76 115.3 179.29 111.45C176.84 105.19 176.54 98.31 176.94 91.73C177.08 88.42 177.38 85.07 178.09 81.77C178.46 80.12 178.91 78.48 179.56 76.9C180.23 75.32 180.93 73.85 181.68 72.36C183.19 69.41 184.84 66.52 186.52 63.71C188.15 60.87 189.65 57.94 191.2 55.02L191.38 55.1C190.31 58.23 189.11 61.31 187.7 64.32C186.29 67.32 184.81 70.23 183.46 73.22C182.78 74.69 182.07 76.2 181.48 77.67C180.91 79.14 180.4 80.66 180.03 82.22C179.24 85.34 178.82 88.57 178.55 91.83C177.95 98.33 178.05 104.95 180.23 111.11Z" fill="black"/>
<path d="M193.17 203.28C190.66 202.87 188.17 202.36 185.7 201.77L186.13 199.89C186.6 200.01 187.01 199.98 187.4 199.94C188.93 199.73 190.29 199.25 191.69 198.82L195.83 197.48C198.42 196.66 201.02 195.89 203.65 195.21C203.67 198.29 203.72 201.36 203.75 204.42C200.22 204.26 196.68 203.85 193.17 203.28Z" fill="url(#paint12_linear_644_7548)"/>
<path d="M187.72 194.19C187.55 194.15 187.37 194.12 187.2 194.08C187.22 194.05 187.25 194.02 187.29 193.98C187.44 194.02 187.59 194.06 187.74 194.09L187.72 194.19Z" fill="black"/>
<path d="M191.38 49.2401C188.43 55.8401 184.58 61.9701 180.25 67.7101C179.14 69.1301 178.04 70.5401 176.85 71.9101C175.64 73.2901 174.4 74.5501 173.21 75.8601C170.81 78.4801 168.51 81.1801 166.15 83.8701C163.8 86.5501 161.45 89.2101 159.39 92.0501C158.36 93.4701 157.4 94.9401 156.54 96.4501C155.7 97.9701 154.92 99.5701 154.21 101.17C152.81 104.4 151.59 107.73 150.94 111.17C150.24 114.61 150.04 118.15 150.22 121.67C150.53 128.74 152.41 135.71 155.21 142.26C152 135.89 149.9 128.91 149.24 121.74C148.95 118.15 149.07 114.51 149.7 110.94C149.84 110.07 150.02 109.21 150.22 108.36C150.4 108.41 150.49 108.43 150.49 108.43C152.44 100.23 157.9 91.2201 157.9 91.2101C157.9 91.2101 157.893 91.2034 157.88 91.1901C157.92 91.1401 157.95 91.0901 157.99 91.0401C160.09 88.0901 162.46 85.3801 164.78 82.6801C166.11 81.1401 167.43 79.5701 168.78 78.0201C169.77 76.8601 170.78 75.7101 171.8 74.5801C172.99 73.2401 174.24 71.9501 175.37 70.6301C176.51 69.3101 177.58 67.8901 178.66 66.4901C182.96 60.8901 186.79 54.9001 189.72 48.5001C190.45 46.9001 191.11 45.2601 191.65 43.6201C191.9 42.8401 192.09 41.9401 192.31 41.1101C192.49 40.2501 192.68 39.3901 192.84 38.5301C193.42 35.0901 193.69 31.5801 193.29 28.1301C192.84 24.7201 191.77 21.3301 189.73 18.5401C187.72 15.7501 184.94 13.4201 181.83 11.9601C178.68 10.5701 175 10.4301 171.55 10.9201C169.18 11.3201 166.88 12.1501 164.76 13.3401C165.37 12.8901 166.01 12.4901 166.67 12.1001C166.89 11.9701 167.11 11.8501 167.33 11.7401C168.65 11.1501 170.03 10.7001 171.45 10.4001C173.22 10.0301 175.04 9.94006 176.84 9.98006C178.66 10.0401 180.49 10.3901 182.21 11.0601C183.06 11.3901 183.9 11.8101 184.66 12.3201C185.41 12.8301 186.22 13.2701 186.9 13.8801L187.96 14.7501C188.31 15.0401 188.62 15.3901 188.95 15.7101C189.62 16.3401 190.18 17.0701 190.75 17.7901C193.01 20.7201 194.25 24.3201 194.82 27.9301C195.34 31.5701 195.14 35.2501 194.54 38.8301C194.39 39.7201 194.2 40.6101 194.02 41.5001C193.79 42.3901 193.62 43.2301 193.34 44.1601C192.78 45.9101 192.11 47.5901 191.38 49.2401Z" fill="black"/>
<path d="M187.3 186.59C181.61 186.08 176.16 183.52 172.04 179.63L170.5 178.17L169.1 176.57C168.13 175.55 167.37 174.35 166.51 173.24C165.71 172.08 165.01 170.85 164.26 169.67C163.6 168.43 162.96 167.18 162.32 165.94L164.49 169.53C165.3 170.67 166.05 171.85 166.91 172.95C167.8 174.02 168.58 175.18 169.58 176.15L171 177.67L172.55 179.06C174.66 180.83 176.92 182.48 179.46 183.55C181.97 184.67 184.65 185.37 187.39 185.6C191.82 186.04 196.28 185.22 200.5 183.73C199.45 184.32 198.41 184.94 197.4 185.6C194.12 186.48 190.72 186.88 187.3 186.59Z" fill="black"/>
<path d="M193.03 204.17C196.02 204.68 199.02 205.08 202.06 205.31L197.85 207.71L193.01 207.45C191.36 207.3 189.72 207.07 188.07 206.88C186.45 206.56 184.82 206.28 183.21 205.9C181.62 205.45 180 205.09 178.46 204.48C176.88 203.98 175.4 203.25 173.9 202.55L171.74 201.33C171.05 200.88 170.38 200.4 169.69 199.94C169.04 199.43 168.4 198.9 167.77 198.37C167.19 197.78 166.56 197.24 166.04 196.59C164.95 195.35 163.98 193.97 163.34 192.43C164.88 193.47 166.18 194.57 167.78 195.43C169.29 196.39 170.9 197.17 172.5 197.98C175.76 199.47 179.12 200.74 182.56 201.76C185.99 202.78 189.49 203.56 193.03 204.17Z" fill="url(#paint13_linear_644_7548)"/>
<path d="M197.72 207.79L197.85 207.71H197.97L197.72 207.79Z" fill="black"/>
<path d="M203.04 205.37C202.16 205.93 200.44 206.97 197.96 208.2C197.68 208.34 197.38 208.48 197.08 208.63L192.93 208.37C191.26 208.2 189.6 207.95 187.93 207.74C186.29 207.41 184.63 207.12 183.01 206.7C181.4 206.21 179.77 205.81 178.21 205.14C175.08 203.96 172.04 202.4 169.42 200.29C168.78 199.75 168.15 199.18 167.54 198.61C166.97 197.99 166.35 197.42 165.86 196.74C164.8 195.45 163.89 194.01 163.34 192.43C163.98 193.97 164.95 195.35 166.04 196.59C166.56 197.24 167.19 197.78 167.77 198.37C168.4 198.9 169.04 199.43 169.69 199.94C170.38 200.4 171.05 200.88 171.74 201.33L173.9 202.55C175.4 203.25 176.88 203.98 178.46 204.48C180 205.09 181.62 205.45 183.21 205.9C184.82 206.28 186.45 206.56 188.07 206.88C189.72 207.07 191.36 207.3 193.01 207.45L197.85 207.71L197.72 207.79L197.97 207.72H197.85L202.06 205.31C202.39 205.33 202.71 205.35 203.04 205.37Z" fill="black"/>
<path d="M200.65 247.31C200.28 248.31 199.88 249.3 199.45 250.27L199.27 250.19C199.56 249.44 199.82 248.68 200.07 247.91C200.26 247.68 200.46 247.48 200.65 247.31Z" fill="black"/>
<path d="M203.04 205.37C202.71 205.35 202.39 205.33 202.06 205.31L203.49 204.49L203.62 205C203.51 205.06 203.32 205.19 203.04 205.37Z" fill="black"/>
<path d="M203.5 182.55C202.52 182.98 201.51 183.37 200.5 183.73C203.36 182.1 206.35 180.69 209.43 179.5C207.52 180.64 205.54 181.67 203.5 182.55Z" fill="black"/>
<path d="M201.56 250.03C201.56 250.03 201.53 250.06 201.56 249.94C201.58 249.84 201.69 249.65 201.83 249.47C202.12 249.08 202.55 248.69 203.02 248.33C203.96 247.6 205.05 246.95 206.15 246.36C208.39 245.17 210.75 244.17 213.15 243.26C217.96 241.46 222.94 240.05 227.99 239.03C230.51 238.51 233.07 238.09 235.63 237.74C238.2 237.38 240.77 237.08 243.35 236.87C245.94 236.7 248.53 236.59 251.12 236.7C252.41 236.78 253.7 236.9 254.97 237.17C255.59 237.31 256.22 237.48 256.79 237.74C256.98 237.83 257.17 237.93 257.34 238.05C257.56 238.34 257.79 238.62 258.02 238.89C258.03 238.91 258.04 238.94 258.04 238.96C258.12 239.54 257.74 240.1 257.34 240.57C256.93 241.04 256.44 241.46 255.93 241.85C254.91 242.62 253.78 243.25 252.65 243.86C250.35 245.03 247.94 245.98 245.5 246.8C243.07 247.63 240.59 248.34 238.1 248.94C235.61 249.55 233.13 250.07 230.61 250.47C225.57 251.27 220.46 251.8 215.36 251.94C212.81 252.01 210.26 251.99 207.75 251.75C206.5 251.63 205.26 251.46 204.09 251.17C203.51 251.03 202.94 250.85 202.46 250.64C201.97 250.44 201.57 250.1 201.56 250.03Z" fill="#141414"/>
<path d="M203.62 205L203.72 205.41C203.49 205.41 203.27 205.39 203.04 205.37C203.32 205.19 203.51 205.06 203.62 205Z" fill="black"/>
<path d="M182.76 201.04C183.74 201.3 184.71 201.54 185.7 201.77C188.17 202.36 190.66 202.87 193.17 203.28C196.68 203.85 200.22 204.26 203.75 204.42V204.89L203.73 204.91C203.73 204.91 203.69 204.94 203.62 205L203.49 204.49L202.06 205.31C199.02 205.08 196.02 204.68 193.03 204.17C189.49 203.56 185.99 202.78 182.56 201.76C179.12 200.74 175.76 199.47 172.5 197.98C170.9 197.17 169.29 196.39 167.78 195.43C166.18 194.57 164.88 193.47 163.34 192.43C164.07 192.91 164.81 193.37 165.58 193.86C166.34 194.37 167.12 194.78 167.91 195.21C169.45 196.1 171.08 196.81 172.7 197.55C175.97 198.93 179.33 200.12 182.76 201.04Z" fill="black"/>
<path d="M203.65 195.21V195.17C203.83 195.13 204 195.1 204.18 195.07C204 195.12 203.83 195.16 203.65 195.21Z" fill="black"/>
<path d="M198.2 208.62L198.07 208.69H197.95L197.08 208.63C197.38 208.48 197.68 208.34 197.96 208.2C200.44 206.97 202.16 205.93 203.04 205.37C203.27 205.39 203.49 205.4 203.72 205.41L203.62 205C203.69 204.94 203.73 204.91 203.73 204.91L203.75 204.89C203.76 205.06 203.76 205.23 203.76 205.4V205.46L198.2 208.62Z" fill="black"/>
<path d="M203.75 204.89V204.42L204.34 204.45L203.75 204.89Z" fill="black"/>
<path d="M205.46 204.5L203.98 205.34L203.76 205.46V205.4C203.76 205.23 203.76 205.06 203.76 204.89L204.35 204.45L205.47 204.5H205.46Z" fill="black"/>
<path d="M200.96 102.36C202.13 109.53 205 116.38 209.09 122.44L208.93 122.56C206.71 119.63 204.82 116.45 203.3 113.09C201.76 109.74 200.62 106.18 199.93 102.55C199.21 98.93 198.83 95.24 198.78 91.53C198.71 89.69 198.88 87.7801 199.09 85.9601C199.31 84.1301 199.59 82.32 199.86 80.5L201.56 69.64L202.47 64.22C202.77 62.4 203.14 60.6 203.35 58.84C203.76 55.22 204.15 51.6 204.18 47.99C204.22 44.38 203.97 40.77 203.31 37.22C201.89 30.16 200.15 22.89 195.84 17.08C193.68 14.24 190.86 11.87 187.53 10.5C184.21 9.13005 180.54 8.61004 176.94 8.89004C173.6 9.17004 170.29 10.13 167.33 11.74C165.36 12.61 163.54 13.79 161.93 15.18L161.9 15.16C161.9 15.16 161.97 15.08 162 15.04C162.6 14.32 163.28 13.65 164.03 13.09C164.78 12.53 165.56 12.03 166.37 11.57C169.59 9.74004 173.18 8.54005 176.88 8.20005C180.58 7.86005 184.36 8.38004 187.84 9.73004C188.72 10.06 189.53 10.52 190.37 10.93C190.8 11.14 191.17 11.43 191.57 11.67C191.96 11.93 192.37 12.16 192.72 12.47C194.23 13.59 195.53 14.96 196.73 16.4C199.03 19.36 200.72 22.74 201.98 26.22C202.61 27.97 203.15 29.74 203.64 31.52C204.11 33.3 204.6 35.08 204.93 36.92C206.36 44.24 206.09 51.78 205.1 59.06C204.84 60.93 204.46 62.71 204.14 64.51L203.19 69.91L201.37 80.74L200.54 86.15C200.28 87.97 200.08 89.71 200.1 91.53C200.06 95.15 200.34 98.79 200.96 102.36Z" fill="black"/>
<path d="M205.45 201.32C205.55 202.37 205.63 203.43 205.69 204.48L205.46 204.5L204.34 204.45L203.75 204.42C203.72 201.36 203.67 198.29 203.65 195.21C203.83 195.16 204 195.12 204.18 195.07C204 195.1 203.83 195.13 203.65 195.17C203.63 193.53 203.63 191.89 203.63 190.24L203.83 190.22C204.62 193.83 205.11 197.48 205.43 201.14C205.23 201.19 205.04 201.25 204.85 201.31L204.87 201.41C205.06 201.38 205.26 201.35 205.45 201.32Z" fill="black"/>
<path d="M204.87 201.41L204.85 201.31C205.04 201.25 205.23 201.19 205.43 201.14C205.44 201.2 205.45 201.26 205.45 201.32C205.26 201.35 205.06 201.38 204.87 201.41Z" fill="black"/>
<path d="M187.53 173.64C192.35 173.49 196.82 170.96 200.01 167.24C203.2 163.51 205.06 158.49 205 153.44C204.95 148.38 203.01 143.4 199.73 139.74C196.48 136.11 191.92 133.68 187.16 133.79C182.42 133.83 177.89 136.35 174.93 140.15C171.93 143.94 170.3 148.81 170.13 153.76C170.02 158.69 171.5 163.8 174.69 167.66C177.83 171.54 182.72 173.88 187.53 173.64ZM200.76 138.92C203.83 143.2 205.12 148.38 205.2 153.43C205.2 158.49 204.01 163.69 201 168.01C199.52 170.15 197.56 172.04 195.22 173.33C192.9 174.64 190.21 175.34 187.54 175.31C184.87 175.25 182.24 174.48 179.97 173.18C177.7 171.88 175.76 170.09 174.19 168.06C171.03 164 169.29 158.94 169.04 153.77C168.82 148.6 170.23 143.24 173.44 139C175.02 136.88 177.03 135.04 179.38 133.72C181.73 132.4 184.43 131.68 187.14 131.65C189.85 131.65 192.56 132.35 194.9 133.65C197.26 134.93 199.24 136.8 200.76 138.92Z" fill="black"/>
<path d="M205.27 208.25L205.25 208.15C205.46 208.08 205.66 208.01 205.87 207.94V208.14C205.67 208.18 205.47 208.21 205.27 208.25Z" fill="black"/>
<path d="M205.75 205.33C205.8 206.2 205.84 207.07 205.87 207.94C205.66 208.01 205.46 208.08 205.25 208.15L205.27 208.25C205.47 208.21 205.67 208.18 205.87 208.14C205.98 212.28 205.78 216.43 205.52 220.56C205.17 225.63 204.72 230.7 203.77 235.69C203 239.63 202.03 243.55 200.65 247.31C200.46 247.48 200.26 247.68 200.07 247.91C201.38 243.89 202.19 239.71 202.78 235.53C203.52 230.56 203.78 225.52 203.92 220.49C204.07 215.48 203.78 210.47 203.76 205.46L203.98 205.34L205.46 204.5L205.69 204.48C205.71 204.76 205.73 205.05 205.75 205.33Z" fill="black"/>
<path d="M210.71 179C210.28 179.16 209.85 179.32 209.43 179.5C209.91 179.22 210.39 178.92 210.86 178.62C213.23 177.15 215.5 175.51 217.63 173.7C215.76 175.51 213.75 177.18 211.62 178.67C211.32 178.78 211.01 178.89 210.71 179Z" fill="black"/>
<path d="M211.62 178.67C209.17 180.43 206.55 181.96 203.81 183.25C201.76 184.21 199.61 185.02 197.4 185.6C198.41 184.94 199.45 184.32 200.5 183.73C201.51 183.37 202.52 182.98 203.5 182.55C205.54 181.67 207.52 180.64 209.43 179.5C209.85 179.32 210.28 179.16 210.71 179C211.01 178.89 211.32 178.78 211.62 178.67Z" fill="black"/>
<path d="M220.49 204.41C218.75 204.58 217.03 204.95 215.31 205.26C213.61 205.63 211.91 206.08 210.22 206.52C208.76 206.97 207.31 207.43 205.87 207.94C205.84 207.07 205.8 206.2 205.75 205.33C205.73 205.05 205.71 204.76 205.69 204.48C205.63 203.43 205.55 202.37 205.45 201.32C206.95 201.1 208.44 200.85 209.93 200.58L214.98 199.81C218.34 199.36 221.7 198.77 225.09 198.5C228.48 198.2 231.88 198.05 235.28 198.18C236.98 198.24 238.68 198.34 240.37 198.55C241.95 198.73 243.54 198.98 245.08 199.4C245.15 200.12 245.22 200.84 245.3 201.56C245.46 202.94 245.65 204.32 245.85 205.69C244.4 205.21 242.9 204.88 241.39 204.61C239.68 204.28 237.94 204.09 236.2 203.93C232.71 203.66 229.21 203.7 225.72 203.92L223.1 204.11L220.49 204.41Z" fill="white"/>
<path d="M197.1 2.05005C200.69 2.78005 204.18 3.99005 207.42 5.73005C220.37 13.14 229.6 25.85 234.02 39.8601C233.82 39.2401 233.61 38.63 233.39 38.02C231.28 32.28 228.45 26.7301 224.66 21.9101C222.79 19.4801 220.71 17.22 218.54 15.1C216.37 12.96 214.09 10.92 211.63 9.12005C209.17 7.33005 206.54 5.68005 203.64 4.65005C202.22 4.09005 200.8 3.59005 199.39 3.05005L198.32 2.66005C197.98 2.52005 197.58 2.41005 197.33 2.25005C197.22 2.17005 197.14 2.11005 197.1 2.05005Z" fill="black"/>
<path d="M233.37 105.78C234.34 98.5201 235.34 91.2601 236.07 84.0001C236.32 81.4501 236.52 78.9001 236.63 76.3501C236.55 78.6101 236.47 80.8901 236.36 83.1501C236.21 86.1601 235.98 89.1801 235.68 92.1801C235.07 98.2001 234.21 104.19 233.1 110.15L233.3 110.2C233.75 108.38 234.18 106.55 234.56 104.71C234.5 105.12 234.43 105.52 234.37 105.93C233.2 113.17 231.73 120.36 230.09 127.5L229.89 127.46C231.28 120.26 232.39 113.03 233.37 105.78Z" fill="black"/>
<path d="M231.82 38.5701C233.79 44.2401 235.09 50.1301 235.92 56.0701C236.74 62.0201 236.88 68.0501 236.7 74.0801C236.7 73.7601 236.7 73.4301 236.7 73.1101C236.74 69.4701 236.52 65.8801 236.17 62.2301C235.5 54.9901 234.42 47.7801 232.17 40.9001C231.06 37.4701 229.75 34.0901 228.08 30.9001C227.32 29.2601 226.34 27.7501 225.45 26.1901L223.95 23.9501L223.2 22.8201C222.94 22.4601 222.66 22.1101 222.38 21.7601L220.72 19.6301C220.14 18.9401 219.52 18.3001 218.92 17.6301C217.74 16.2801 216.43 14.9801 215.14 13.7401C212.53 11.2701 209.66 9.1001 206.52 7.3901C200.25 3.9701 192.95 2.5301 185.78 2.9301C182.17 3.1101 178.57 3.6201 175.08 4.5301C171.6 5.4501 168.21 6.7901 165.2 8.7501C162.2 10.7001 159.59 13.3101 157.91 16.4801C157.09 18.0501 156.4 19.7901 156.21 21.4901C156.21 21.7001 156.21 21.9001 156.25 22.0601C156.3 22.2101 156.32 22.2101 156.39 22.2201C156.61 22.2201 157.03 22.0201 157.32 21.7301C157.94 21.1601 158.44 20.4101 158.9 19.6301C159.82 18.1101 160.74 16.5601 161.89 15.1601L161.92 15.1801C162.82 14.4901 163.76 13.8701 164.75 13.3401C163.91 13.9501 163.14 14.6401 162.5 15.4601C161.35 16.8401 160.45 18.4201 159.5 20.0001C159.04 20.7901 158.53 21.6001 157.8 22.2701C157.43 22.5901 157.02 22.9401 156.32 22.9601C155.92 22.9501 155.58 22.5501 155.53 22.2601C155.46 21.9701 155.45 21.7101 155.47 21.4601C155.65 19.5101 156.32 17.7701 157.14 16.0801C158.83 12.7301 161.51 9.9401 164.59 7.8401C167.68 5.7201 171.16 4.2501 174.72 3.2101C178.29 2.1701 181.98 1.5801 185.68 1.3401C189.23 1.0901 192.83 1.2701 196.35 1.9101C196.35 2.0401 196.38 2.1801 196.44 2.2901C196.57 2.5601 196.78 2.7101 196.96 2.8301C197.36 3.0601 197.71 3.1401 198.07 3.2801L199.14 3.6701C200.56 4.1901 202.01 4.6901 203.41 5.2301C206.26 6.2001 208.79 7.8901 211.2 9.6701C213.61 11.4901 215.85 13.5101 217.94 15.6801C220.04 17.8601 222 20.1401 223.76 22.5701C227.32 27.4201 229.88 32.9001 231.81 38.5701H231.82Z" fill="black"/>
<path d="M211.21 9.67003C208.8 7.89003 206.27 6.20003 203.42 5.23003C202.02 4.69003 200.57 4.19003 199.15 3.67003L198.08 3.28003C197.72 3.14003 197.37 3.06004 196.97 2.83004C196.79 2.71004 196.58 2.56004 196.45 2.29004C196.39 2.18004 196.36 2.04003 196.36 1.91003C196.61 1.95003 196.85 2.00003 197.1 2.05003C197.14 2.11003 197.22 2.17003 197.33 2.25003C197.58 2.41003 197.98 2.52003 198.32 2.66003L199.39 3.05003C200.8 3.59003 202.22 4.09004 203.64 4.65004C206.54 5.68004 209.17 7.33003 211.63 9.12003C214.09 10.92 216.37 12.96 218.54 15.1C220.71 17.22 222.79 19.48 224.66 21.91C228.45 26.73 231.28 32.28 233.39 38.02C233.61 38.63 233.82 39.24 234.02 39.86C234.06 40 234.11 40.14 234.15 40.28C235.29 43.81 236.13 47.43 236.77 51.08C237.41 54.72 237.84 58.4 238.11 62.07C238.2 63.24 238.28 64.42 238.34 65.61C238.4 68.46 238.34 71.3 238.23 74.13C238.08 77.68 237.86 81.23 237.54 84.77C236.75 91.46 235.63 98.08 234.56 104.71C234.18 106.55 233.75 108.38 233.3 110.2L233.1 110.15C234.21 104.19 235.07 98.2 235.68 92.18C235.98 89.18 236.21 86.16 236.36 83.15C236.47 80.89 236.55 78.61 236.63 76.35C236.65 75.59 236.67 74.83 236.7 74.08C236.88 68.05 236.74 62.02 235.92 56.07C235.09 50.13 233.79 44.24 231.82 38.57C229.89 32.9 227.33 27.42 223.77 22.57C222.01 20.14 220.05 17.86 217.95 15.68C215.86 13.51 213.62 11.49 211.21 9.67003Z" fill="black"/>
<path d="M234.56 104.71C235.63 98.08 236.75 91.46 237.54 84.77C237.32 87.29 237.05 89.8 236.72 92.31C236.16 96.47 235.44 100.61 234.56 104.71Z" fill="black"/>
<path d="M237.66 55.8401C238.07 59.0901 238.28 62.3501 238.34 65.6101C238.28 64.4201 238.2 63.2401 238.11 62.0701C237.84 58.4001 237.41 54.7201 236.77 51.0801C236.13 47.4301 235.29 43.8101 234.15 40.2801C234.11 40.1401 234.06 40.0001 234.02 39.8601C234.78 42.1501 235.43 44.4701 236 46.8201C236.72 49.7901 237.3 52.8001 237.66 55.8401Z" fill="black"/>
<path d="M238.23 74.1301C238.35 71.3001 238.4 68.4601 238.34 65.6101C238.48 68.1101 238.53 70.6401 238.46 73.1401C238.36 76.8301 238.04 80.5101 237.62 84.1601C237.6 84.3601 237.57 84.5701 237.54 84.7701C237.86 81.2301 238.08 77.6801 238.23 74.1301Z" fill="black"/>
<path d="M235.31 197.68C237.02 197.81 238.72 197.97 240.41 198.25C241.99 198.49 243.55 198.8 245.07 199.29C245.07 199.33 245.07 199.37 245.07 199.4C243.53 198.98 241.94 198.73 240.36 198.55C238.67 198.34 236.97 198.24 235.27 198.18C231.87 198.05 228.47 198.2 225.08 198.5C221.69 198.77 218.33 199.36 214.97 199.81L209.92 200.58C208.43 200.85 206.94 201.1 205.44 201.32C205.44 201.26 205.43 201.2 205.42 201.14C206.86 200.69 208.32 200.29 209.78 199.9C211.45 199.52 213.12 199.16 214.8 198.82C218.18 198.23 221.6 197.86 225.02 197.7C228.44 197.5 231.88 197.45 235.3 197.68H235.31Z" fill="black"/>
<path d="M210.22 206.52C211.91 206.08 213.61 205.63 215.31 205.26C217.03 204.95 218.75 204.58 220.49 204.41L223.1 204.11L225.72 203.92C229.21 203.7 232.71 203.66 236.2 203.93C237.94 204.09 239.68 204.28 241.39 204.61C242.9 204.88 244.4 205.21 245.85 205.69C245.85 205.74 245.85 205.79 245.87 205.84C244.39 205.4 242.87 205.11 241.34 204.9C239.63 204.65 237.9 204.52 236.16 204.43C232.7 204.26 229.23 204.4 225.78 204.72L223.2 205L220.63 205.39C219.77 205.51 218.91 205.64 218.06 205.8L215.5 206.24C213.79 206.51 212.1 206.9 210.39 207.2C208.89 207.52 207.39 207.85 205.87 208.14V207.94C207.31 207.43 208.76 206.97 210.22 206.52Z" fill="black"/>
<path d="M245.08 199.4C245.08 199.4 245.07 199.33 245.07 199.29C245.19 199.31 245.3 199.35 245.42 199.39L245.39 199.48C245.29 199.45 245.18 199.42 245.08 199.4Z" fill="black"/>
<path d="M245.85 205.69C246.06 205.76 246.26 205.83 246.46 205.9L246.43 206C246.25 205.94 246.06 205.88 245.87 205.84C245.87 205.79 245.87 205.74 245.85 205.69Z" fill="black"/>
<path d="M254.42 181.56C252.67 180.45 250.95 179.3 249.26 178.09C252.82 179.48 256.17 181.49 258.95 184.14C257.36 183.39 255.87 182.47 254.42 181.56Z" fill="black"/>
<path d="M256.9 237.49C256.29 237.22 255.66 237.06 255.02 236.92C253.74 236.65 252.44 236.5 251.14 236.41C248.54 236.21 245.93 236.18 243.32 236.24C238.11 236.32 232.9 236.75 227.72 237.55C222.56 238.44 217.47 239.73 212.49 241.42C210.01 242.28 207.55 243.24 205.15 244.42C203.96 245.02 202.78 245.67 201.64 246.5C201.31 246.75 200.98 247 200.65 247.31C202.03 243.55 203 239.63 203.77 235.69C204.72 230.7 205.17 225.63 205.52 220.56C205.78 216.43 205.98 212.28 205.87 208.14C207.39 207.85 208.89 207.52 210.39 207.2C212.1 206.9 213.79 206.51 215.5 206.24L218.06 205.8C218.91 205.64 219.77 205.51 220.63 205.39L223.2 205L225.78 204.72C229.23 204.4 232.7 204.26 236.16 204.43C237.9 204.52 239.63 204.65 241.34 204.9C242.87 205.11 244.39 205.4 245.87 205.84C246.31 208.81 246.85 211.76 247.51 214.69C248.5 219.01 249.48 223.4 251.28 227.5C252.79 231.01 254.6 234.44 256.9 237.49Z" fill="#141414"/>
<path d="M245.07 199.29C244.72 195.64 244.47 191.98 244.59 188.29L244.79 188.31C244.86 190.83 245.11 193.36 245.44 195.87C245.69 197.73 245.98 199.58 246.29 201.42C247 205.76 247.92 210.07 249.06 214.31C249.33 215.37 249.64 216.42 249.97 217.47C250.31 218.51 250.6 219.57 250.98 220.59L252.03 223.7C252.42 224.72 252.78 225.75 253.14 226.78C254.54 230.64 256.12 234.42 257.93 238.17C257.65 237.86 257.26 237.65 256.91 237.49H256.9C254.6 234.44 252.79 231.01 251.28 227.5C249.48 223.4 248.5 219.01 247.51 214.69C246.85 211.76 246.31 208.81 245.87 205.84C246.06 205.88 246.25 205.94 246.43 206L246.46 205.9C246.26 205.83 246.06 205.76 245.85 205.69C245.65 204.32 245.46 202.94 245.3 201.56C245.22 200.84 245.15 200.12 245.08 199.4C245.18 199.42 245.29 199.45 245.39 199.48L245.42 199.39C245.3 199.35 245.19 199.31 245.07 199.29Z" fill="black"/>
<path d="M258.02 238.89C257.79 238.62 257.56 238.34 257.34 238.05C257.66 238.27 257.93 238.54 258.02 238.89Z" fill="black"/>
<path d="M256.91 237.49C257.26 237.65 257.65 237.86 257.93 238.17C258.04 238.41 258.15 238.64 258.27 238.88L258.1 238.99C258.1 238.99 258.04 238.92 258.02 238.89C257.93 238.54 257.66 238.27 257.34 238.05C257.19 237.87 257.05 237.68 256.91 237.49Z" fill="black"/>
<path d="M238.1 248.94C240.59 248.34 243.07 247.63 245.5 246.8C247.94 245.98 250.35 245.03 252.65 243.86C253.78 243.25 254.91 242.62 255.93 241.85C256.44 241.46 256.93 241.04 257.34 240.57C257.74 240.1 258.12 239.54 258.04 238.96C258.04 238.94 258.04 238.91 258.02 238.89C258.04 238.92 258.07 238.96 258.1 238.99L258.27 238.88C258.15 238.64 258.04 238.41 257.93 238.17C258.12 238.37 258.27 238.61 258.33 238.91C258.46 239.66 258.03 240.3 257.63 240.81C257.21 241.33 256.73 241.79 256.22 242.21C255.21 243.05 254.13 243.8 253.01 244.5C250.79 245.89 248.47 247.13 246.1 248.27C241.36 250.51 236.37 252.4 231.14 253.4C225.96 254.45 220.68 254.91 215.39 254.91C212.75 254.89 210.1 254.76 207.44 254.41C206.11 254.23 204.78 254 203.44 253.62C202.76 253.43 202.09 253.21 201.4 252.87C200.73 252.51 199.93 252.14 199.36 251.03C199.09 250.45 199.11 249.71 199.29 249.21C199.47 248.69 199.73 248.33 199.98 248.01C200.01 247.97 200.04 247.94 200.07 247.91C199.82 248.68 199.56 249.44 199.27 250.19L199.45 250.27C199.88 249.3 200.28 248.31 200.65 247.31C200.98 247 201.31 246.75 201.64 246.5C202.78 245.67 203.96 245.02 205.15 244.42C207.55 243.24 210.01 242.28 212.49 241.42C217.47 239.73 222.56 238.44 227.72 237.55C232.9 236.75 238.11 236.32 243.32 236.24C245.93 236.18 248.54 236.21 251.14 236.41C252.44 236.5 253.74 236.65 255.02 236.92C255.66 237.06 256.29 237.22 256.9 237.49H256.91C257.05 237.68 257.19 237.87 257.34 238.05C257.17 237.93 256.98 237.83 256.79 237.74C256.22 237.48 255.59 237.31 254.97 237.17C253.7 236.9 252.41 236.78 251.12 236.7C248.53 236.59 245.94 236.7 243.35 236.87C240.77 237.08 238.2 237.38 235.63 237.74C233.07 238.09 230.51 238.51 227.99 239.03C222.94 240.05 217.96 241.46 213.15 243.26C210.75 244.17 208.39 245.17 206.15 246.36C205.05 246.95 203.96 247.6 203.02 248.33C202.55 248.69 202.12 249.08 201.83 249.47C201.69 249.65 201.58 249.84 201.56 249.94C201.53 250.06 201.55 250.01 201.56 250.03C201.56 250.1 201.97 250.44 202.46 250.64C202.94 250.85 203.51 251.03 204.09 251.17C205.26 251.46 206.5 251.63 207.75 251.75C210.26 251.99 212.81 252.01 215.36 251.94C220.46 251.8 225.57 251.27 230.61 250.47C233.13 250.07 235.61 249.55 238.1 248.94Z" fill="black"/>
<path d="M264.12 199.16C263.63 199.47 262.96 199.57 262.29 199.6C260.92 199.63 259.49 199.35 258.09 199.05C256.68 198.74 255.28 198.37 253.88 198C251.08 197.24 248.27 196.5 245.44 195.87C245.11 193.36 244.86 190.83 244.79 188.31L244.59 188.29C244.47 191.98 244.72 195.64 245.07 199.29C243.55 198.8 241.99 198.49 240.41 198.25C238.72 197.97 237.02 197.81 235.31 197.68C231.89 197.45 228.45 197.5 225.03 197.7C221.61 197.86 218.19 198.23 214.81 198.82C213.13 199.16 211.46 199.52 209.79 199.9C208.33 200.29 206.87 200.69 205.43 201.14C205.11 197.48 204.62 193.83 203.83 190.22L203.63 190.24C203.63 191.89 203.63 193.53 203.65 195.17C200.97 195.65 198.32 196.27 195.68 196.96L191.47 198.08C190.08 198.43 188.66 198.83 187.31 198.94C186.98 198.96 186.65 198.96 186.41 198.89C186.16 198.81 186.1 198.71 186.05 198.54C185.96 198.17 186.25 197.48 186.59 196.93C187.31 195.77 188.29 194.72 189.3 193.74C191.35 191.76 193.63 190.01 196.01 188.42C205.56 182.09 216.64 178.07 228.09 177.41C233.78 176.99 239.56 177.27 245.04 178.68C250.53 180.06 255.68 182.81 259.5 186.97C261.38 189.06 263.09 191.41 264.27 193.93C264.83 195.18 265.28 196.57 265.05 197.77C264.93 198.35 264.61 198.87 264.12 199.16Z" fill="#141414"/>
<path d="M262.63 90.3801C263.55 78.3701 262.12 66.2901 259.08 54.6701C258.31 51.7801 257.43 48.8401 256.55 45.9901C255.61 43.1401 254.61 40.3101 253.43 37.5601C251.13 32.0301 248.19 26.7701 244.68 21.9301C242.87 19.5601 240.98 17.2401 238.84 15.1601C237.83 14.0601 236.66 13.1301 235.57 12.1201L233.81 10.7301L232.93 10.0501L232.01 9.42006L230.15 8.16006L228.22 7.05006C226.94 6.27006 225.58 5.65006 224.23 5.03006C221.49 3.83006 218.64 2.88006 215.71 2.21006C212.79 1.52006 209.81 1.11006 206.81 0.93006C205.3 0.83006 203.8 0.820058 202.29 0.850058C200.79 0.890058 199.3 1.01006 197.89 1.42006C197.52 1.51006 197.2 1.64006 197.09 1.80006C197.04 1.87006 197.03 1.95006 197.09 2.05006C196.84 2.00006 196.6 1.95006 196.35 1.91006C196.35 1.73006 196.41 1.55006 196.51 1.41006C196.86 0.940059 197.33 0.860061 197.68 0.740061C199.18 0.300061 200.73 0.160058 202.26 0.100058C203.78 0.0400578 205.31 0.010059 206.84 0.070059C209.89 0.170059 212.94 0.510059 215.94 1.14006C218.94 1.74006 221.89 2.62006 224.75 3.77006C226.16 4.37006 227.59 4.96006 228.92 5.73006L230.95 6.85006L232.65 7.95006L232.89 8.10006L233.85 8.74006L234.78 9.43006L236.62 10.8201C237.77 11.8401 239 12.7901 240.07 13.9001C242.33 16.0001 244.28 18.3901 246.18 20.8101C249.85 25.7401 252.92 31.1001 255.33 36.7401C256.59 39.5401 257.6 42.4401 258.55 45.3501C259.43 48.3001 260.28 51.1701 261.07 54.1401C262.57 60.0601 263.75 66.0901 264.24 72.1901C264.76 78.2901 264.78 84.4301 264.18 90.5101C262.91 102.67 259.27 114.58 253.23 125.13L253.06 125.04C255.78 119.63 257.97 113.96 259.52 108.14C261.12 102.32 262.13 96.3701 262.62 90.3801H262.63Z" fill="black"/>
<path d="M266.16 198.02C265.97 198.85 265.43 199.66 264.65 200.08C263.88 200.51 263.05 200.58 262.29 200.57C260.75 200.52 259.32 200.16 257.91 199.78C256.5 199.39 255.11 198.95 253.73 198.51C250.97 197.62 248.22 196.71 245.44 195.87C248.27 196.5 251.08 197.24 253.88 198C255.28 198.37 256.68 198.74 258.09 199.05C259.49 199.35 260.92 199.63 262.29 199.6C262.96 199.57 263.63 199.47 264.12 199.16C264.61 198.87 264.93 198.35 265.05 197.77C265.28 196.57 264.83 195.18 264.27 193.93C263.09 191.41 261.38 189.06 259.5 186.97C255.68 182.81 250.53 180.06 245.04 178.68C239.56 177.27 233.78 176.99 228.09 177.41C216.64 178.07 205.56 182.09 196.01 188.42C193.63 190.01 191.35 191.76 189.3 193.74C188.29 194.72 187.31 195.77 186.59 196.93C186.25 197.48 185.96 198.17 186.05 198.54C186.1 198.71 186.16 198.81 186.41 198.89C186.65 198.96 186.98 198.96 187.31 198.94C188.66 198.83 190.08 198.43 191.47 198.08L195.68 196.96C198.32 196.27 200.97 195.65 203.65 195.17V195.21C201.02 195.89 198.42 196.66 195.83 197.48L191.69 198.82C190.29 199.25 188.93 199.73 187.4 199.94C187.01 199.98 186.6 200.01 186.13 199.89C185.67 199.81 185.12 199.37 184.99 198.82C184.86 198.28 184.97 197.83 185.09 197.43C185.22 197.04 185.4 196.68 185.58 196.34C186.05 195.52 186.6 194.78 187.2 194.08C187.37 194.12 187.55 194.15 187.72 194.19L187.74 194.09C187.59 194.06 187.44 194.02 187.29 193.98C187.63 193.58 187.99 193.19 188.36 192.8C190.42 190.67 192.73 188.83 195.12 187.13C195.87 186.6 196.63 186.09 197.4 185.6C199.61 185.02 201.76 184.21 203.81 183.25C206.55 181.96 209.17 180.43 211.62 178.67C216.88 176.85 222.41 175.82 227.95 175.41C233.81 175.02 239.78 175.31 245.53 176.86C246.79 177.2 248.04 177.61 249.26 178.09C250.95 179.3 252.67 180.45 254.42 181.56C255.87 182.47 257.36 183.39 258.95 184.14C259.55 184.7 260.12 185.3 260.66 185.93C262.58 188.2 264.29 190.63 265.47 193.42C266.01 194.81 266.52 196.34 266.16 198.02Z" fill="black"/>
<path d="M272.31 132.35C269.32 137.4 265.99 142.24 262.27 146.77C264.78 143.32 267.12 139.75 269.27 136.08C269.38 135.93 269.48 135.77 269.59 135.61C270.22 134.71 270.72 133.81 271.62 132.87C271.81 132.67 272.04 132.49 272.31 132.35Z" fill="black"/>
<path d="M281.91 111.88C281.79 111.47 281.67 111.06 281.56 110.65C281.7 110.99 281.84 111.33 281.99 111.66C281.97 111.73 281.94 111.81 281.91 111.88Z" fill="black"/>
<path d="M283.66 99.6601C284.34 96.2801 284.82 92.8301 285.19 89.3901C285.91 82.5301 285.64 75.5901 284.28 68.8301C281.7 55.3201 275.38 42.4301 265.85 32.4301C261.13 27.3301 255.97 22.6701 250.64 18.1701C248.01 15.8901 245.31 13.6901 242.35 11.8701C240.88 10.9601 239.33 10.1801 237.73 9.50009C236.13 8.81009 234.49 8.21009 232.81 7.72009C236.21 8.52009 239.55 9.69009 242.62 11.4201C245.69 13.1301 248.52 15.2401 251.26 17.4101C256.72 21.7601 262.06 26.3501 266.96 31.3601C271.99 36.3201 276.07 42.2201 279.3 48.4901C282.52 54.7801 284.87 61.5101 286.24 68.4601C287.58 75.4101 287.79 82.5801 286.99 89.5801C286.2 96.5501 284.89 103.54 282.53 110.18C282.35 110.67 282.18 111.17 281.99 111.66C281.84 111.33 281.7 110.99 281.56 110.65C281.67 111.06 281.79 111.47 281.91 111.88C279.7 117.91 277.1 123.78 274.02 129.41C273.47 130.4 272.9 131.38 272.31 132.35C272.04 132.49 271.81 132.67 271.62 132.87C270.72 133.81 270.22 134.71 269.59 135.61C269.48 135.77 269.38 135.93 269.27 136.08C274.16 127.74 278.12 118.88 281.07 109.7C282.11 106.4 282.98 103.05 283.66 99.6601Z" fill="black"/>
<path d="M287.72 154.63C287.26 158.68 285.45 162.5 282.97 165.61C281.63 167.27 280.07 168.73 278.31 169.82C276.56 170.91 274.54 171.47 272.52 171.35C270.49 171.21 268.53 170.3 266.86 169.02C265.17 167.73 263.76 166.07 262.62 164.25C261.5 162.41 260.65 160.4 260.12 158.32C259.56 156.25 259.39 154.06 259.66 151.98C259.81 150.94 260.1 149.91 260.54 149.01C260.93 148.24 261.67 147.59 262.37 146.86C262.43 146.8 262.49 146.73 262.55 146.67C264.09 145.1 265.53 143.44 266.9 141.74C268.29 140.04 269.62 138.29 270.88 136.5C271.51 135.64 272.12 134.65 272.73 134.02C273.04 133.71 273.31 133.6 273.73 133.54C274.14 133.46 274.6 133.51 275.06 133.61C276.93 134.02 278.68 135.34 280.21 136.74C281.74 138.18 283.1 139.82 284.26 141.61C286.56 145.18 288.07 149.47 287.79 153.82C287.77 154.09 287.75 154.36 287.72 154.63Z" fill="white"/>
<path d="M159.6 139.29C158.64 140.82 158.05 142.57 157.74 144.32C157.04 147.83 157.25 151.45 158.22 154.83L158.32 154.8C157.95 153.1 157.82 151.35 157.85 149.62C157.87 147.89 158.09 146.16 158.52 144.5C158.92 142.83 159.68 141.29 160.46 139.8C161.21 138.26 162.31 136.95 163.37 135.54L163.31 135.46C162.61 136 161.85 136.5 161.26 137.18C160.95 137.5 160.66 137.84 160.36 138.18C160.09 138.54 159.85 138.92 159.6 139.29ZM191.2 55.0201C189.65 57.9401 188.15 60.8701 186.52 63.7101C184.84 66.5201 183.19 69.4101 181.68 72.3601C180.93 73.8501 180.23 75.3201 179.56 76.9001C178.91 78.4801 178.46 80.1201 178.09 81.7701C177.38 85.0701 177.08 88.4201 176.94 91.7301C176.54 98.3101 176.84 105.19 179.29 111.45C180.76 115.3 182.93 118.83 185.62 121.9C182.59 122 179.56 122.44 176.62 123.24C175.07 123.68 173.5 124.15 172.08 124.97C170.67 125.8 169.35 126.83 168.39 128.15L168.47 128.22C169.8 127.3 171.13 126.53 172.54 125.86C173.95 125.2 175.37 124.54 176.85 124.01C178.34 123.49 179.88 123.09 181.43 122.76C182.85 122.45 184.28 122.19 185.73 122.03C187.39 123.9 189.24 125.6 191.23 127.09L191.35 126.93C186.25 122.79 182.31 117.27 180.23 111.11C178.05 104.95 177.95 98.3301 178.55 91.8301C178.82 88.5701 179.24 85.3401 180.03 82.2201C180.4 80.6601 180.91 79.1401 181.48 77.6701C182.07 76.2001 182.78 74.6901 183.46 73.2201C184.81 70.2301 186.29 67.3201 187.7 64.3201C189.11 61.3101 190.31 58.2301 191.38 55.1001L191.2 55.0201ZM286.75 166.02C285.22 170.48 283.06 174.74 279.97 178.22C276.9 181.67 272.76 184.31 268.13 184.66C265.85 184.85 263.51 184.55 261.29 183.82C259.05 183.13 256.98 181.96 254.87 180.8C250.69 178.46 246.6 175.92 242.81 172.96C244.57 174.6 246.47 176.1 248.43 177.5C248.71 177.7 248.98 177.9 249.26 178.09C248.04 177.61 246.79 177.2 245.53 176.86C239.78 175.31 233.81 175.02 227.95 175.41C222.41 175.82 216.88 176.85 211.62 178.67C213.75 177.18 215.76 175.51 217.63 173.7C215.5 175.51 213.23 177.15 210.86 178.62C210.39 178.92 209.91 179.22 209.43 179.5C206.35 180.69 203.36 182.1 200.5 183.73C196.28 185.22 191.82 186.04 187.39 185.6C184.65 185.37 181.97 184.67 179.46 183.55C176.92 182.48 174.66 180.83 172.55 179.06L171 177.67L169.58 176.15C168.58 175.18 167.8 174.02 166.91 172.95C166.05 171.85 165.3 170.67 164.49 169.53L162.32 165.94C162.96 167.18 163.6 168.43 164.26 169.67C165.01 170.85 165.71 172.08 166.51 173.24C167.37 174.35 168.13 175.55 169.1 176.57L170.5 178.17L172.04 179.63C176.16 183.52 181.61 186.08 187.3 186.59C190.72 186.88 194.12 186.48 197.4 185.6C196.63 186.09 195.87 186.6 195.12 187.13C192.73 188.83 190.42 190.67 188.36 192.8C187.99 193.19 187.63 193.58 187.29 193.98C181.26 192.52 175.73 189.51 170.83 185.78C165.76 181.98 161.28 177.46 157.16 172.66C153.04 167.85 149.31 162.72 145.86 157.4C142.44 152.08 139.19 146.62 136.37 140.97L136.36 140.94C135.6 139.56 134.83 138.2 134.09 136.81C133.4 135.41 132.65 134.03 132.01 132.6C130.67 129.77 129.48 126.86 128.41 123.92C127.36 120.97 126.44 117.97 125.71 114.92C125 111.91 124.43 108.8 124.27 105.75C137.74 105.61 148.42 107.95 150.22 108.36C150.02 109.21 149.84 110.07 149.7 110.94C149.07 114.51 148.95 118.15 149.24 121.74C149.9 128.91 152 135.89 155.21 142.26C152.41 135.71 150.53 128.74 150.22 121.67C150.04 118.15 150.24 114.61 150.94 111.17C151.59 107.73 152.81 104.4 154.21 101.17C154.92 99.5701 155.7 97.9701 156.54 96.4501C157.4 94.9401 158.36 93.4701 159.39 92.0501C161.45 89.2101 163.8 86.5501 166.15 83.8701C168.51 81.1801 170.81 78.4801 173.21 75.8601C174.4 74.5501 175.64 73.2901 176.85 71.9101C178.04 70.5401 179.14 69.1301 180.25 67.7101C184.58 61.9701 188.43 55.8401 191.38 49.2401C192.11 47.5901 192.78 45.9101 193.34 44.1601C193.62 43.2301 193.79 42.3901 194.02 41.5001C194.2 40.6101 194.39 39.7201 194.54 38.8301C195.14 35.2501 195.34 31.5701 194.82 27.9301C194.25 24.3201 193.01 20.7201 190.75 17.7901C190.18 17.0701 189.62 16.3401 188.95 15.7101C188.62 15.3901 188.31 15.0401 187.96 14.7501L186.9 13.8801C186.22 13.2701 185.41 12.8301 184.66 12.3201C183.9 11.8101 183.06 11.3901 182.21 11.0601C180.49 10.3901 178.66 10.0401 176.84 9.98009C175.04 9.94009 173.22 10.0301 171.45 10.4001C170.03 10.7001 168.65 11.1501 167.33 11.7401C170.29 10.1301 173.6 9.17009 176.94 8.89009C180.54 8.61009 184.21 9.13009 187.53 10.5001C190.86 11.8701 193.68 14.2401 195.84 17.0801C200.15 22.8901 201.89 30.1601 203.31 37.2201C203.97 40.7701 204.22 44.3801 204.18 47.9901C204.15 51.6001 203.76 55.2201 203.35 58.8401C203.14 60.6001 202.77 62.4001 202.47 64.2201L201.56 69.6401L199.86 80.5001C199.59 82.3201 199.31 84.1301 199.09 85.9601C198.88 87.7801 198.71 89.6901 198.78 91.5301C198.83 95.2401 199.21 98.9301 199.93 102.55C200.62 106.18 201.76 109.74 203.3 113.09C204.82 116.45 206.71 119.63 208.93 122.56L209.09 122.44C205 116.38 202.13 109.53 200.96 102.36C200.34 98.7901 200.06 95.1501 200.1 91.5301C200.08 89.7101 200.28 87.9701 200.54 86.1501L201.37 80.7401L203.19 69.9101L204.14 64.5101C204.46 62.7101 204.84 60.9301 205.1 59.0601C206.09 51.7801 206.36 44.2401 204.93 36.9201C204.6 35.0801 204.11 33.3001 203.64 31.5201C203.15 29.7401 202.61 27.9701 201.98 26.2201C200.72 22.7401 199.03 19.3601 196.73 16.4001C195.53 14.9601 194.23 13.5901 192.72 12.4701C192.37 12.1601 191.96 11.9301 191.57 11.6701C191.17 11.4301 190.8 11.1401 190.37 10.9301C189.53 10.5201 188.72 10.0601 187.84 9.73009C184.36 8.38009 180.58 7.86009 176.88 8.20009C173.18 8.54009 169.59 9.74009 166.37 11.5701C165.56 12.0301 164.78 12.5301 164.03 13.0901C163.28 13.6501 162.6 14.3201 162 15.0401C161.97 15.0801 161.93 15.1201 161.9 15.1601C160.75 16.5601 159.83 18.1101 158.91 19.6301C158.45 20.4101 157.95 21.1601 157.33 21.7301C157.04 22.0201 156.62 22.2201 156.4 22.2201C156.33 22.2201 156.31 22.2201 156.26 22.0601C156.22 21.9001 156.21 21.7001 156.22 21.4901C156.41 19.7901 157.1 18.0501 157.92 16.4801C159.6 13.3101 162.21 10.7001 165.21 8.75009C168.22 6.79009 171.61 5.45009 175.09 4.53009C178.58 3.62009 182.18 3.11009 185.79 2.93009C192.96 2.53009 200.26 3.97009 206.53 7.39009C209.67 9.10009 212.54 11.2701 215.15 13.7401C216.44 14.9801 217.75 16.2801 218.93 17.6301C219.53 18.3001 220.15 18.9401 220.73 19.6301L222.39 21.7601C222.67 22.1101 222.95 22.4601 223.21 22.8201L223.96 23.9501L225.46 26.1901C226.35 27.7501 227.33 29.2601 228.09 30.9001C229.76 34.0901 231.07 37.4701 232.18 40.9001C234.43 47.7801 235.51 54.9901 236.18 62.2301C236.53 65.8801 236.75 69.4701 236.71 73.1101C236.71 73.4301 236.71 73.7601 236.71 74.0801C236.68 74.8301 236.66 75.5901 236.64 76.3501C236.53 78.9001 236.33 81.4501 236.08 84.0001C235.35 91.2601 234.35 98.5201 233.38 105.78C232.4 113.03 231.29 120.26 229.9 127.46L230.1 127.5C231.74 120.36 233.21 113.17 234.38 105.93C234.44 105.52 234.51 105.12 234.57 104.71C235.45 100.61 236.17 96.4701 236.73 92.3101C237.06 89.8001 237.33 87.2901 237.55 84.7701C237.58 84.5701 237.61 84.3601 237.63 84.1601C238.05 80.5101 238.37 76.8301 238.47 73.1401C238.54 70.6401 238.49 68.1101 238.35 65.6101C238.29 62.3501 238.08 59.0901 237.67 55.8401C237.31 52.8001 236.73 49.7901 236.01 46.8201C235.44 44.4701 234.79 42.1501 234.03 39.8601C229.61 25.8501 220.38 13.1401 207.43 5.73009C204.19 3.99009 200.7 2.78009 197.11 2.05009C197.04 1.95009 197.05 1.87009 197.11 1.80009C197.22 1.64009 197.54 1.51008 197.91 1.42008C199.32 1.01008 200.81 0.890085 202.31 0.850085C203.82 0.820085 205.32 0.830087 206.83 0.930087C209.83 1.11009 212.81 1.52009 215.73 2.21009C218.66 2.88009 221.51 3.83009 224.25 5.03009C225.6 5.65009 226.96 6.27009 228.24 7.05009L230.17 8.16009L232.03 9.42008L232.95 10.0501L233.83 10.7301L235.59 12.1201C236.68 13.1301 237.85 14.0601 238.86 15.1601C241 17.2401 242.89 19.5601 244.7 21.9301C248.21 26.7701 251.15 32.0301 253.45 37.5601C254.63 40.3101 255.63 43.1401 256.57 45.9901C257.45 48.8401 258.33 51.7801 259.1 54.6701C262.14 66.2901 263.57 78.3701 262.65 90.3801C262.16 96.3701 261.15 102.32 259.55 108.14C258 113.96 255.81 119.63 253.09 125.04L253.26 125.13C259.3 114.58 262.94 102.67 264.21 90.5101C264.81 84.4301 264.79 78.2901 264.27 72.1901C263.78 66.0901 262.6 60.0601 261.1 54.1401C260.31 51.1701 259.46 48.3001 258.58 45.3501C257.63 42.4401 256.62 39.5401 255.36 36.7401C252.95 31.1001 249.88 25.7401 246.21 20.8101C244.31 18.3901 242.36 16.0001 240.1 13.9001C239.03 12.7901 237.8 11.8401 236.65 10.8201L234.81 9.43009L233.88 8.74009L232.92 8.10009L232.68 7.95009L232.83 7.72009C234.51 8.21009 236.15 8.81009 237.75 9.50009C239.35 10.1801 240.9 10.9601 242.37 11.8701C245.33 13.6901 248.03 15.8901 250.66 18.1701C255.99 22.6701 261.15 27.3301 265.87 32.4301C275.4 42.4301 281.72 55.3201 284.3 68.8301C285.66 75.5901 285.93 82.5301 285.21 89.3901C284.84 92.8301 284.36 96.2801 283.68 99.6601C283 103.05 282.13 106.4 281.09 109.7C278.14 118.88 274.18 127.74 269.29 136.08C268.19 137.72 267.03 139.31 265.82 140.86C264.49 142.57 263.14 144.25 261.7 145.86L260.61 147.08C260.24 147.5 259.87 148.02 259.64 148.57C259.19 149.65 258.96 150.76 258.87 151.88C258.67 154.13 259.05 156.34 259.63 158.46C260.22 160.58 261.13 162.59 262.22 164.5C263.34 166.38 264.67 168.18 266.35 169.66C268.02 171.13 270.09 172.3 272.41 172.59C274.74 172.83 277.13 172.2 279.03 170.94C280.96 169.71 282.51 168.01 283.75 166.17C285.75 163.16 287.05 159.77 287.66 156.27L289.18 156.55C288.6 159.77 287.82 162.94 286.77 166.02H286.75ZM173.44 139C170.23 143.24 168.82 148.6 169.04 153.77C169.29 158.94 171.03 164 174.19 168.06C175.76 170.09 177.7 171.88 179.97 173.18C182.24 174.48 184.87 175.25 187.54 175.31C190.21 175.34 192.9 174.64 195.22 173.33C197.56 172.04 199.52 170.15 201 168.01C204.01 163.69 205.19 158.49 205.2 153.43C205.12 148.38 203.83 143.2 200.76 138.92C199.24 136.8 197.26 134.93 194.9 133.65C192.56 132.35 189.85 131.66 187.14 131.65C184.43 131.68 181.73 132.4 179.38 133.72C177.03 135.04 175.02 136.88 173.44 139Z" fill="url(#paint14_linear_644_7548)"/>
<path d="M262.62 164.25C263.76 166.07 265.17 167.73 266.86 169.02C268.53 170.3 270.49 171.21 272.52 171.35C274.54 171.47 276.56 170.91 278.31 169.82C280.07 168.73 281.63 167.27 282.97 165.61C285.45 162.5 287.26 158.68 287.72 154.63H287.86C287.81 155.18 287.73 155.73 287.64 156.27C287.03 159.77 285.73 163.16 283.73 166.17C282.49 168.01 280.94 169.71 279.01 170.94C277.11 172.2 274.72 172.83 272.39 172.59C270.07 172.3 268 171.13 266.33 169.66C264.65 168.18 263.32 166.38 262.2 164.5C261.11 162.59 260.2 160.58 259.61 158.46C259.03 156.34 258.65 154.13 258.85 151.88C258.94 150.76 259.17 149.65 259.62 148.57C259.85 148.02 260.22 147.5 260.59 147.08L261.68 145.86C263.12 144.25 264.47 142.57 265.8 140.86C267.01 139.31 268.17 137.72 269.27 136.08C267.12 139.75 264.78 143.32 262.27 146.77L262.37 146.86C261.67 147.59 260.93 148.24 260.54 149.01C260.1 149.91 259.81 150.94 259.66 151.98C259.39 154.06 259.56 156.25 260.12 158.32C260.65 160.4 261.5 162.41 262.62 164.25Z" fill="black"/>
<path d="M262.27 146.77C265.99 142.24 269.32 137.4 272.31 132.35C272.68 132.14 273.11 131.99 273.49 131.95C274.16 131.84 274.81 131.9 275.4 132.05C276.61 132.33 277.65 132.89 278.61 133.52C279.56 134.16 280.43 134.9 281.22 135.7C282.8 137.3 284.09 139.15 285.11 141.12C287.16 145.05 288.21 149.47 287.94 153.83C287.92 154.1 287.89 154.37 287.86 154.64H287.72C287.75 154.36 287.77 154.09 287.79 153.82C288.07 149.47 286.56 145.18 284.26 141.61C283.1 139.82 281.74 138.18 280.21 136.74C278.68 135.34 276.93 134.02 275.06 133.61C274.6 133.51 274.14 133.46 273.73 133.54C273.31 133.6 273.04 133.71 272.73 134.02C272.12 134.65 271.51 135.64 270.88 136.5C269.62 138.29 268.29 140.04 266.9 141.74C265.53 143.44 264.09 145.1 262.55 146.67C262.49 146.73 262.43 146.8 262.37 146.86L262.27 146.77Z" fill="black"/>
<path d="M289.84 152.17C289.65 153.64 289.43 155.1 289.16 156.55L287.64 156.27C287.73 155.73 287.81 155.18 287.86 154.64C287.89 154.37 287.92 154.1 287.94 153.83C288.21 149.47 287.16 145.05 285.11 141.12C284.09 139.15 282.8 137.3 281.22 135.7C280.43 134.9 279.56 134.16 278.61 133.52C277.65 132.89 276.61 132.33 275.4 132.05C274.81 131.9 274.16 131.84 273.49 131.95C273.11 131.99 272.68 132.14 272.31 132.35C272.9 131.38 273.47 130.4 274.02 129.41C277.1 123.78 279.7 117.91 281.91 111.88C283.16 116.1 284.74 120.21 286.22 124.32C287.03 126.58 287.84 128.84 288.5 131.1C289.15 133.37 289.64 135.69 289.95 138.03C290.6 142.72 290.43 147.44 289.84 152.17Z" fill="url(#paint15_linear_644_7548)"/>
<path d="M268.13 184.66C272.76 184.31 276.9 181.67 279.97 178.22C283.06 174.74 285.22 170.48 286.75 166.02C287.8 162.94 288.58 159.77 289.16 156.55C289.43 155.1 289.65 153.64 289.84 152.17C290.43 147.44 290.6 142.72 289.95 138.03C289.64 135.69 289.15 133.37 288.5 131.1C287.84 128.84 287.03 126.58 286.22 124.32C284.74 120.21 283.16 116.1 281.91 111.88C281.94 111.81 281.97 111.73 281.99 111.66C283.74 115.75 285.68 119.74 287.46 123.83C288.4 126.06 289.34 128.28 290.08 130.62C290.82 132.96 291.36 135.35 291.73 137.78C292.09 140.2 292.28 142.65 292.28 145.1C292.27 147.57 292.05 149.99 291.78 152.4C291.22 157.24 290.22 162.04 288.6 166.67C287 171.28 284.69 175.77 281.29 179.43C279.61 181.25 277.66 182.87 275.44 184.05C273.23 185.24 270.75 185.99 268.24 186.11C265.73 186.26 263.21 185.83 260.9 184.96C260.23 184.72 259.58 184.44 258.95 184.14C256.17 181.49 252.82 179.48 249.26 178.09C248.98 177.9 248.71 177.7 248.43 177.5C246.47 176.1 244.57 174.6 242.81 172.96C246.6 175.92 250.69 178.46 254.87 180.8C256.98 181.96 259.05 183.13 261.29 183.82C263.51 184.55 265.85 184.85 268.13 184.66Z" fill="black"/>
<path d="M275.25 133.4C271.34 127.99 268.72 126.94 263.02 129.45C259.25 131.12 255.71 133.49 252.33 135.95C247.85 139.2 243.18 141.76 237.77 139.56C234.41 138.19 231.8 138.37 228.54 139.94C224.2 142.03 219.72 141.11 215.46 138.61C211.29 136.17 207.06 133.62 202.57 132.07C196.62 130.01 194.33 131.28 190.89 136.65C191.91 121.39 214.1 106.21 232.47 120.46C240.64 113.02 249.9 111.44 259.98 115.41C267.8 118.49 273.43 125.19 275.25 133.4Z" fill="black"/>
<path d="M197.23 208.25C196.88 208.4 196.68 208.69 196.77 208.91C196.86 209.13 197.22 209.19 197.56 209.05C197.91 208.9 198.11 208.61 198.02 208.39C197.93 208.17 197.57 208.11 197.23 208.25Z" fill="black"/>
<path d="M197.76 208.04C197.41 208.18 197.21 208.48 197.3 208.7C197.39 208.92 197.75 208.98 198.09 208.83C198.44 208.68 198.64 208.39 198.55 208.17C198.46 207.95 198.1 207.89 197.76 208.04Z" fill="black"/>
<path opacity="0.47" d="M187.45 135.37C178.4 135.37 171.07 143.4 171.07 153.31C171.07 163.22 178.4 171.25 187.45 171.25C196.5 171.25 203.83 163.22 203.83 153.31C203.83 143.4 196.5 135.37 187.45 135.37Z" fill="#69CAE0"/>
<path d="M166.66 153.4C166.75 154.1 166.85 154.83 167.3 155.38C167.72 155.89 168.38 156.14 168.84 156.62C169.47 157.28 169.62 158.26 169.8 159.16C170.95 164.84 175 169.85 180.31 172.16C184.89 174.15 190.3 174.09 194.87 172.08C195.79 171.68 196.9 171.27 197.7 170.68C198.66 169.97 199.5 168.98 200.26 168.07C201.84 166.21 203.15 164.13 204.13 161.9C205.28 159.28 205.95 156.44 206.04 153.58C206.25 146.82 203.02 139.94 197.41 136.15C191.8 132.36 183.94 132.01 178.25 135.67C176.38 136.87 174.8 138.42 173.45 140.17C171.4 142.83 169.86 145.97 168.58 149.1C168.58 150.55 168.58 149.77 168.58 149.1C168.34 148.88 167.99 148.49 167.72 147.93C167.36 147.18 167.35 146.25 167.35 146.23C167.33 145.19 167.1 138.09 166.81 128.34C166.33 120.34 166.18 113.85 166.13 109.51C166.05 102.89 165.98 96.26 165.86 89.64C165.8 86.33 165.74 83.02 165.66 79.71C165.62 78.01 165.58 76.32 165.53 74.62C165.51 73.87 165.64 72.91 165.46 72.19C165.23 71.29 165.2 71.39 164.22 71.07C164.14 71.04 164.05 71.02 163.98 71.06C163.92 71.1 163.89 71.18 163.88 71.26C163.73 71.97 163.66 72.65 163.66 73.38C163.56 89.38 163.58 105.36 164.14 121.35C164.16 132.01 165.35 142.84 166.66 153.4ZM187.57 135.37C196.52 135.48 203.89 143.7 203.82 153.5C203.75 163.36 196.35 171.32 187.31 171.25C178.29 171.19 171.03 163.12 171.07 153.22C171.12 143.43 178.67 135.26 187.57 135.37Z" fill="black"/>
<path d="M174.5 149.01C172.58 164.3 186.88 172.15 196.6 164.84C194.3 168.8 186.15 170.42 180.69 167.02C174.56 163.21 172.1 154.59 174.5 149.01Z" fill="white"/>
<path d="M82.57 91.3301C80.07 92.4701 77.76 93.9301 75.84 95.8501C72.75 98.9301 71.44 102.81 71.11 107.08C70.89 109.91 71.57 113.4 70.29 116.04C70.1 116.44 69.85 116.8 69.56 117.12C68.62 118.15 67.36 118.79 65.96 119.16C62.73 120.02 58.72 119.46 55.89 119.05C49.36 118.1 44.27 117 37.84 119.83C33.17 121.89 28.46 124.94 24.63 128.33C17.78 134.39 16.91 141.39 23.13 148.2C12.06 148.29 5.07003 156.8 1.22003 166.57C-3.83997 188.39 24.53 185.9 24.63 185.89C28.3 185.56 31.72 186.08 34.91 188.09C38.28 190.22 40.75 193.65 42.27 197.29C44.87 203.46 46.59 206.09 53.62 206.05C61.14 206 68.42 203.67 75.2 200.58C82.12 197.43 88.01 195.65 95.73 195.45" stroke="black" stroke-miterlimit="10"/>
<path d="M157.88 91.19C153.24 86.47 146.58 83.22 140.11 82.41C136.48 81.96 129.88 81.08 127.29 84.52C126.67 85.35 126.38 86.38 125.8 87.25C124.82 88.73 123.07 89.57 121.31 89.86C112.78 91.24 104.44 86.26 95.84 87.69C91.51 88.41 86.8 89.41 82.61 91.31" stroke="black" stroke-miterlimit="10"/>
<path d="M63.26 156.66C53.96 156.03 55.78 148.97 60.25 141.76C65.14 133.84 73.21 125.73 73.21 125.73C75.96 122.54 79 119.84 82.23 117.56C87.53 113.79 93.36 111.15 99.3 109.34C101.94 108.53 104.61 107.88 107.26 107.37C107.29 107.37 107.31 107.36 107.34 107.36C107.58 107.31 107.81 107.27 108.05 107.23C111.42 106.62 114.76 106.22 118 106C118.28 105.98 118.55 105.96 118.82 105.94H118.84C120.39 105.85 121.91 105.79 123.4 105.76H123.45C123.72 105.76 124 105.75 124.27 105.75C137.74 105.61 148.42 107.95 150.22 108.36" stroke="black" stroke-miterlimit="10"/>
<path d="M197.08 208.63C193.74 210.22 189.2 212.07 183.62 213.59C183.56 213.6 183.5 213.62 183.44 213.64C179.31 214.75 174.61 215.69 169.41 216.22C164.89 216.67 159.99 216.82 154.74 216.51C151.61 216.34 148.36 215.99 145 215.45C141.87 214.95 138.63 214.28 135.31 213.41C132.25 212.62 129.1 211.65 125.89 210.5C125.85 210.5 125.8 210.47 125.76 210.45C120.46 208.56 114.97 206.16 109.3 203.16C109.24 203.13 109.17 203.09 109.1 203.05C104.91 200.83 100.62 198.28 96.25 195.37C96.25 195.37 96.23 195.37 96.22 195.35C96.22 195.35 95.87 195.1 95.23 194.63C94.99 194.45 94.7 194.23 94.37 193.98C92.12 192.26 88.06 189.01 83.51 184.64C82.44 183.61 81.35 182.52 80.25 181.38C80.21 181.35 80.18 181.31 80.15 181.28C73.71 174.61 66.96 166.04 63.28 156.65C61.41 151.9 60.33 146.93 60.48 141.9" stroke="black" stroke-miterlimit="10"/>
<path d="M65.9601 119.16C67.5401 114.76 68.3601 111.91 71.1101 107.08" stroke="black" stroke-miterlimit="10"/>
<path d="M82.2101 91.58C82.3301 91.5 82.4501 91.42 82.5701 91.33C82.5801 91.32 82.6001 91.31 82.6101 91.31C89.9101 86.3 102.14 79.34 118.67 75.84C141.14 71.09 159.64 75.27 168.78 78.02" stroke="black" stroke-miterlimit="10"/>
<path d="M176.93 162.31L194.93 145.31" stroke="black" stroke-width="2"/>
<path d="M177.24 146.26L197.24 162.26" stroke="black" stroke-width="2"/>
<path d="M264.93 162.31L282.93 145.31" stroke="black" stroke-width="2"/>
<path d="M265.24 146.26L285.24 162.26" stroke="black" stroke-width="2"/>
</g>
<defs>
<linearGradient id="paint0_linear_644_7548" x1="157.88" y1="144.02" x2="0.620025" y2="144.02" gradientUnits="userSpaceOnUse">
<stop stop-color="#FFF23A"/>
<stop offset="0.04" stop-color="#FEE62D"/>
<stop offset="0.12" stop-color="#FED41A"/>
<stop offset="0.2" stop-color="#FDC90F"/>
<stop offset="0.28" stop-color="#FDC60B"/>
<stop offset="0.67" stop-color="#F28F3F"/>
<stop offset="0.89" stop-color="#ED693C"/>
<stop offset="1" stop-color="#E83E39"/>
</linearGradient>
<linearGradient id="paint1_linear_644_7548" x1="71.1101" y1="113.13" x2="65.9601" y2="113.13" gradientUnits="userSpaceOnUse">
<stop stop-color="#E1306C"/>
<stop offset="1" stop-color="#405DE6"/>
</linearGradient>
<linearGradient id="paint2_linear_644_7548" x1="135.31" y1="165.49" x2="73.2101" y2="165.49" gradientUnits="userSpaceOnUse">
<stop stop-color="#E1306C"/>
<stop offset="1" stop-color="#405DE6"/>
</linearGradient>
<linearGradient id="paint3_linear_644_7548" x1="125.76" y1="170.28" x2="74.53" y2="170.28" gradientUnits="userSpaceOnUse">
<stop stop-color="#FFF23A"/>
<stop offset="0.04" stop-color="#FEE62D"/>
<stop offset="0.12" stop-color="#FED41A"/>
<stop offset="0.2" stop-color="#FDC90F"/>
<stop offset="0.28" stop-color="#FDC60B"/>
<stop offset="0.67" stop-color="#F28F3F"/>
<stop offset="0.89" stop-color="#ED693C"/>
<stop offset="1" stop-color="#E83E39"/>
</linearGradient>
<linearGradient id="paint4_linear_644_7548" x1="109.1" y1="164.4" x2="60.25" y2="164.4" gradientUnits="userSpaceOnUse">
<stop stop-color="#E1306C"/>
<stop offset="1" stop-color="#405DE6"/>
</linearGradient>
<linearGradient id="paint5_linear_644_7548" x1="107.91" y1="135.33" x2="82.23" y2="135.33" gradientUnits="userSpaceOnUse">
<stop stop-color="#E1306C"/>
<stop offset="1" stop-color="#405DE6"/>
</linearGradient>
<linearGradient id="paint6_linear_644_7548" x1="168.78" y1="82.5" x2="82.61" y2="82.5" gradientUnits="userSpaceOnUse">
<stop stop-color="#E1306C"/>
<stop offset="1" stop-color="#405DE6"/>
</linearGradient>
<linearGradient id="paint7_linear_644_7548" x1="93.7101" y1="167.11" x2="69.7301" y2="167.11" gradientUnits="userSpaceOnUse">
<stop stop-color="#FFF23A"/>
<stop offset="0.04" stop-color="#FEE62D"/>
<stop offset="0.12" stop-color="#FED41A"/>
<stop offset="0.2" stop-color="#FDC90F"/>
<stop offset="0.28" stop-color="#FDC60B"/>
<stop offset="0.67" stop-color="#F28F3F"/>
<stop offset="0.89" stop-color="#ED693C"/>
<stop offset="1" stop-color="#E83E39"/>
</linearGradient>
<linearGradient id="paint8_linear_644_7548" x1="183.44" y1="161.26" x2="107.9" y2="161.26" gradientUnits="userSpaceOnUse">
<stop stop-color="#E1306C"/>
<stop offset="1" stop-color="#405DE6"/>
</linearGradient>
<linearGradient id="paint9_linear_644_7548" x1="145" y1="161.64" x2="84.1901" y2="161.64" gradientUnits="userSpaceOnUse">
<stop stop-color="#FFF23A"/>
<stop offset="0.04" stop-color="#FEE62D"/>
<stop offset="0.12" stop-color="#FED41A"/>
<stop offset="0.2" stop-color="#FDC90F"/>
<stop offset="0.28" stop-color="#FDC60B"/>
<stop offset="0.67" stop-color="#F28F3F"/>
<stop offset="0.89" stop-color="#ED693C"/>
<stop offset="1" stop-color="#E83E39"/>
</linearGradient>
<linearGradient id="paint10_linear_644_7548" x1="169.41" y1="170.21" x2="113.25" y2="170.21" gradientUnits="userSpaceOnUse">
<stop stop-color="#FFF23A"/>
<stop offset="0.04" stop-color="#FEE62D"/>
<stop offset="0.12" stop-color="#FED41A"/>
<stop offset="0.2" stop-color="#FDC90F"/>
<stop offset="0.28" stop-color="#FDC60B"/>
<stop offset="0.67" stop-color="#F28F3F"/>
<stop offset="0.89" stop-color="#ED693C"/>
<stop offset="1" stop-color="#E83E39"/>
</linearGradient>
<linearGradient id="paint11_linear_644_7548" x1="197.08" y1="159.88" x2="118.87" y2="159.88" gradientUnits="userSpaceOnUse">
<stop stop-color="#FFF23A"/>
<stop offset="0.04" stop-color="#FEE62D"/>
<stop offset="0.12" stop-color="#FED41A"/>
<stop offset="0.2" stop-color="#FDC90F"/>
<stop offset="0.28" stop-color="#FDC60B"/>
<stop offset="0.67" stop-color="#F28F3F"/>
<stop offset="0.89" stop-color="#ED693C"/>
<stop offset="1" stop-color="#E83E39"/>
</linearGradient>
<linearGradient id="paint12_linear_644_7548" x1="203.75" y1="199.82" x2="185.7" y2="199.82" gradientUnits="userSpaceOnUse">
<stop stop-color="#E83E39"/>
<stop offset="0.11" stop-color="#ED693C"/>
<stop offset="0.33" stop-color="#F28F3F"/>
<stop offset="0.72" stop-color="#FDC60B"/>
<stop offset="0.73" stop-color="#FCC20F"/>
<stop offset="0.87" stop-color="#FCC411"/>
<stop offset="0.92" stop-color="#FDCB17"/>
<stop offset="0.96" stop-color="#FDD621"/>
<stop offset="0.99" stop-color="#FEE730"/>
<stop offset="1" stop-color="#FFF23A"/>
</linearGradient>
<linearGradient id="paint13_linear_644_7548" x1="202.06" y1="200.08" x2="163.34" y2="200.08" gradientUnits="userSpaceOnUse">
<stop stop-color="#E1306C"/>
<stop offset="1" stop-color="#405DE6"/>
</linearGradient>
<linearGradient id="paint14_linear_644_7548" x1="232.93" y1="114.29" x2="90.13" y2="31.8401" gradientUnits="userSpaceOnUse">
<stop stop-color="#E1306C"/>
<stop offset="0.37" stop-color="#405DE6"/>
</linearGradient>
<linearGradient id="paint15_linear_644_7548" x1="290.37" y1="134.22" x2="272.31" y2="134.22" gradientUnits="userSpaceOnUse">
<stop stop-color="#E1306C"/>
<stop offset="0.06" stop-color="#D53375"/>
<stop offset="0.61" stop-color="#6A51C6"/>
<stop offset="0.85" stop-color="#405DE6"/>
</linearGradient>
<clipPath id="clip0_644_7548">
<rect width="293" height="255" fill="white"/>
</clipPath>
</defs>
</svg>
