<?xml version="1.0" encoding="utf-8"?>
<!-- Generator: Adobe Illustrator 24.3.0, SVG Export Plug-In . SVG Version: 6.00 Build 0)  -->
<svg version="1.1" id="Layer_1" xmlns="http://www.w3.org/2000/svg" xmlns:xlink="http://www.w3.org/1999/xlink" x="0px" y="0px"
	 viewBox="0 0 292.29 287.22" style="enable-background:new 0 0 292.29 287.22;" xml:space="preserve">
<style type="text/css">
	.st0{fill:#8BDCEA;}
	.st1{fill:none;stroke:#000000;stroke-miterlimit:10;}
	.st2{fill:#FFFFFF;}
	.st3{fill:#141414;}
	.st4{fill:url(#SVGID_1_);}
	.st5{fill:url(#SVGID_2_);}
	.st6{opacity:0.47;fill:#69CAE0;}
</style>
<circle class="st0" cx="147.1" cy="144.52" r="133.11"/>
<g>
	<path class="st1" d="M113.01,218.83"/>
	<g id="XMLID_27_">
		<g>
			<path class="st2" d="M191.93,102.33c3.2,3.86,4.68,8.97,4.56,13.91c-0.17,4.95-1.79,9.81-4.79,13.61
				c-2.97,3.79-7.49,6.32-12.23,6.36c-4.76,0.1-9.32-2.32-12.57-5.96c-3.28-3.66-5.22-8.64-5.27-13.69
				c-0.06-5.06,1.8-10.08,4.99-13.81c3.18-3.72,7.66-6.25,12.48-6.4C183.9,96.12,188.79,98.46,191.93,102.33z M189.88,118.24
				c0.69-0.78-2.93-7.17-9.71-7.5c-6.84-0.33-11.78,7.91-11.16,8.75c0.51,0.71,4.65-3.93,10.94-3.63
				C186.18,116.15,189.31,118.89,189.88,118.24z"/>
			<path class="st2" d="M160.87,64.67c0.08,1.33,0.18,2.66,0.3,4c-1.5,0.22-2.99,0.47-4.47,0.74l-5.05,0.77
				c-3.37,0.46-6.72,1.05-10.11,1.32c-3.39,0.29-6.8,0.44-10.2,0.32c-1.7-0.07-3.4-0.16-5.09-0.37c-1.58-0.19-3.17-0.44-4.7-0.86
				c-0.07-0.72-0.14-1.44-0.22-2.16c-0.16-1.38-0.35-2.76-0.55-4.14c1.45,0.5,2.95,0.83,4.45,1.1c1.72,0.32,3.46,0.51,5.2,0.67
				c3.49,0.28,6.99,0.23,10.48,0.01l2.62-0.19l2.61-0.29c1.74-0.17,3.45-0.54,5.17-0.86c1.71-0.37,3.4-0.82,5.09-1.26
				c1.46-0.45,2.92-0.92,4.36-1.42C160.78,62.93,160.82,63.8,160.87,64.67z"/>
			<path class="st2" d="M106.51,111.68c0.56,2.07,0.73,4.25,0.45,6.34c-0.14,1.04-0.44,2.06-0.87,2.97
				c-0.4,0.77-1.13,1.42-1.83,2.14c-0.07,0.06-0.13,0.13-0.19,0.19c-1.53,1.58-2.98,3.23-4.35,4.93c-1.38,1.7-2.71,3.45-3.97,5.24
				c-0.63,0.87-1.24,1.85-1.86,2.48c-0.31,0.31-0.57,0.43-1,0.49c-0.41,0.07-0.86,0.03-1.32-0.07c-1.87-0.42-3.63-1.74-5.15-3.13
				c-1.53-1.44-2.9-3.09-4.05-4.88c-2.3-3.57-3.81-7.86-3.53-12.21c0.02-0.27,0.04-0.54,0.07-0.81c0.45-4.04,2.27-7.87,4.75-10.98
				c1.34-1.65,2.9-3.11,4.65-4.2c1.76-1.1,3.78-1.65,5.8-1.53c2.02,0.14,3.99,1.04,5.66,2.33c1.69,1.28,3.1,2.95,4.24,4.77
				C105.13,107.58,105.97,109.59,106.51,111.68z M101.07,116.9c0.41-0.96-3.59-5-8.16-4.75c-4.96,0.27-8.61,5.52-8.02,6.41
				c0.46,0.69,3.26-1.56,8.78-1.93C98.28,116.32,100.77,117.6,101.07,116.9z"/>
			<path d="M208.41,115.16c0.19,0.66,0.34,1.32,0.47,1.99c-0.16-0.68-0.33-1.34-0.5-1.98L208.41,115.16z"/>
			<path d="M208.88,117.15c-0.17-0.64-0.36-1.29-0.56-1.96l0.06-0.02C208.55,115.81,208.72,116.47,208.88,117.15z"/>
			<path d="M208.88,117.15c0.36,1.8,0.49,3.65,0.39,5.49c-0.05,1.01-0.18,2.03-0.38,3.03c-0.32,1.76-0.91,3.5-1.86,5.03
				c-0.26,0.37-0.5,0.75-0.76,1.12c-0.31,0.33-0.6,0.68-0.91,1c-0.58,0.68-1.35,1.18-2.04,1.71l-0.07-0.07
				c1.07-1.42,2.17-2.72,2.91-4.26c0.79-1.5,1.54-3.04,1.95-4.71c0.43-1.66,0.65-3.38,0.67-5.11c0.03-1.73-0.1-3.49-0.47-5.19h0.01
				C208.52,115.86,208.71,116.51,208.88,117.15z"/>
			<path d="M204.7,254.81c-1.63,1.41-3.47,2.59-5.46,3.47c0.24-0.12,0.48-0.25,0.71-0.39c0.65-0.38,1.28-0.78,1.88-1.22
				C202.83,256.13,203.79,255.51,204.7,254.81z"/>
			<path d="M189.77,145.98c1.49-0.53,2.91-1.18,4.32-1.84c1.4-0.68,2.74-1.45,4.07-2.36l0.07,0.07c-0.95,1.31-2.27,2.35-3.68,3.17
				c-1.42,0.82-2.99,1.29-4.54,1.73c-2.95,0.8-5.97,1.24-9,1.35c-0.03-0.04-0.07-0.09-0.11-0.13c1.45-0.17,2.88-0.42,4.3-0.74
				C186.75,146.9,188.28,146.5,189.77,145.98z"/>
			<path d="M180.17,110.74c6.78,0.33,10.4,6.72,9.71,7.5c-0.57,0.65-3.7-2.09-9.93-2.38c-6.29-0.3-10.43,4.34-10.94,3.63
				C168.39,118.65,173.33,110.41,180.17,110.74z"/>
			<path d="M180.9,147.97c0.04,0.04,0.08,0.09,0.11,0.13c-0.17,0.01-0.34,0.02-0.51,0.02l-0.01-0.1
				C180.63,148.01,180.76,147.99,180.9,147.97z"/>
			<path d="M205.34,107.03c-1.03-2.41-2.12-4.59-3.2-6.57c-0.71-1.09-1.47-2.27-2.42-3.42c-0.89-1.07-1.68-2.22-2.67-3.2l-1.43-1.52
				l-1.55-1.38c-2.11-1.78-4.36-3.42-6.9-4.5c-2.51-1.12-5.2-1.82-7.93-2.05c-4.43-0.44-8.89,0.39-13.11,1.88
				c1.05-0.59,2.09-1.22,3.1-1.88c3.28-0.88,6.68-1.28,10.09-0.99c5.7,0.51,11.15,3.07,15.27,6.96l1.53,1.47l1.4,1.59
				c0.97,1.03,1.74,2.22,2.6,3.34c0.3,0.39,1.16,1.67,2.24,3.56c0.57,1,1.81,3.24,3.13,6.38c0.9,2.15,1.96,4.99,2.89,8.47
				l-0.06,0.02C207.56,112.65,206.58,109.9,205.34,107.03z"/>
			<path d="M188.54,188.22c-0.37,1.65-0.82,3.3-1.47,4.88c-0.68,1.57-1.37,3.05-2.13,4.54c-1.5,2.95-3.15,5.84-4.84,8.65
				c-1.62,2.84-3.12,5.77-4.68,8.68l-0.18-0.08c1.07-3.12,2.27-6.21,3.69-9.21c1.41-3.01,2.88-5.92,4.24-8.9
				c0.67-1.48,1.39-2.99,1.98-4.45c0.57-1.48,1.08-3,1.45-4.56c0.78-3.12,1.21-6.35,1.48-9.61c0.59-6.5,0.5-13.12-1.69-19.28
				c-2.07-6.16-6.02-11.68-11.12-15.82l0.12-0.16c2,1.49,3.85,3.19,5.51,5.07c-0.14,0.02-0.27,0.04-0.41,0.05l0.01,0.1
				c0.17,0,0.34-0.01,0.51-0.02c2.69,3.07,4.86,6.6,6.33,10.44c2.45,6.26,2.75,13.15,2.35,19.73
				C189.54,181.58,189.25,184.92,188.54,188.22z"/>
			<path d="M217.38,148.25c0.3,3.59,0.18,7.23-0.45,10.8c-0.59,3.58-1.75,7.03-3.11,10.37c-0.68,1.67-1.42,3.3-2.27,4.93
				c-0.87,1.6-1.86,3.12-2.91,4.6c-1.75,2.45-3.67,4.72-5.59,6.97c-0.02,0.01-0.03,0.03-0.04,0.04c-0.92,0.96-1.85,1.92-2.78,2.89
				c-0.49,0.51-0.84,1.05-1.07,1.6c-1.42,1.66-2.86,3.33-4.33,4.96c-1.19,1.34-2.44,2.63-3.57,3.95c-1.14,1.32-2.22,2.74-3.29,4.14
				c-4.3,5.6-8.13,11.59-11.06,17.99c-0.73,1.6-1.39,3.24-1.93,4.88c-0.25,0.78-0.44,1.68-0.66,2.51c-0.18,0.86-0.38,1.72-0.53,2.58
				c-0.58,3.44-0.85,6.95-0.45,10.4c0.45,3.41,1.52,6.8,3.56,9.59c2,2.79,4.79,5.12,7.9,6.58c3.15,1.39,6.83,1.53,10.28,1.04
				c2.36-0.4,4.64-1.22,6.75-2.4c-0.6,0.44-1.23,0.84-1.88,1.22c-0.23,0.14-0.47,0.27-0.71,0.39c-1.3,0.57-2.66,1.02-4.06,1.31
				c-1.77,0.38-3.59,0.46-5.4,0.42c-1.81-0.06-3.64-0.41-5.36-1.08c-0.85-0.33-1.69-0.75-2.45-1.26c-0.75-0.51-1.56-0.95-2.24-1.56
				l-1.07-0.87c-0.35-0.29-0.65-0.64-0.98-0.96c-0.67-0.63-1.23-1.36-1.8-2.08c-2.26-2.93-3.5-6.53-4.07-10.14
				c-0.52-3.64-0.32-7.32,0.28-10.9c0.15-0.89,0.34-1.78,0.52-2.67c0.23-0.89,0.39-1.73,0.68-2.66c0.56-1.75,1.22-3.43,1.96-5.08
				c2.95-6.6,6.8-12.73,11.13-18.47c1.11-1.41,2.21-2.83,3.4-4.2c1.2-1.38,2.45-2.64,3.64-3.95c2.4-2.62,4.7-5.32,7.06-8.01
				c2.35-2.68,4.69-5.34,6.76-8.18c1.03-1.42,1.98-2.89,2.85-4.4c0.84-1.52,1.62-3.12,2.32-4.72c1.41-3.23,2.63-6.56,3.28-10
				c0.7-3.44,0.9-6.98,0.72-10.5c-0.32-7.07-4.31-19.13-7.11-25.68C212.51,129.01,216.73,141.08,217.38,148.25z"/>
			<path d="M167.36,19.8c-0.29,0.75-0.56,1.51-0.8,2.27c-0.18,0.22-0.37,0.42-0.57,0.6c0.36-1,0.76-1.98,1.19-2.95L167.36,19.8z"/>
			<path d="M163.13,87.44c0.98-0.42,1.98-0.82,3-1.17c-2.87,1.63-5.87,3.05-8.96,4.24C159.09,89.36,161.07,88.32,163.13,87.44z"/>
			<path class="st3" d="M162.54,18.82c0.58,0.15,1.14,0.32,1.63,0.54c0.48,0.19,0.88,0.53,0.9,0.6c0.01,0.02,0.02-0.03,0,0.09
				c-0.02,0.1-0.13,0.29-0.27,0.48c-0.29,0.38-0.73,0.77-1.19,1.14c-0.94,0.72-2.03,1.37-3.14,1.96c-2.23,1.19-4.6,2.19-7,3.1
				c-4.81,1.8-9.79,3.22-14.84,4.23c-2.52,0.52-5.08,0.94-7.64,1.29c-2.56,0.36-5.13,0.67-7.72,0.87c-2.58,0.18-5.18,0.29-7.76,0.17
				c-1.29-0.08-2.59-0.19-3.85-0.46c-0.63-0.14-1.25-0.32-1.83-0.58c-0.19-0.09-0.38-0.19-0.55-0.31c-0.21-0.28-0.43-0.55-0.66-0.82
				c-0.02-0.03-0.02-0.06-0.03-0.09c-0.08-0.57,0.3-1.14,0.69-1.61c0.42-0.47,0.91-0.89,1.41-1.27c1.03-0.78,2.15-1.41,3.29-2.01
				c2.29-1.18,4.7-2.12,7.14-2.95c2.44-0.83,4.92-1.54,7.41-2.13c2.49-0.62,4.96-1.14,7.49-1.53c5.04-0.81,10.14-1.34,15.25-1.47
				c2.54-0.08,5.1-0.06,7.61,0.18C160.13,18.36,161.37,18.54,162.54,18.82z"/>
			<path d="M196.49,116.24c0.12-4.94-1.36-10.05-4.56-13.91c-3.14-3.87-8.03-6.21-12.83-5.98c-4.82,0.15-9.3,2.68-12.48,6.4
				c-3.19,3.73-5.05,8.75-4.99,13.81c0.05,5.05,1.99,10.03,5.27,13.69c3.25,3.64,7.81,6.06,12.57,5.96
				c4.74-0.04,9.26-2.57,12.23-6.36C194.7,126.05,196.32,121.19,196.49,116.24z M197.59,116.23c0.22,5.16-1.2,10.52-4.4,14.77
				c-1.59,2.11-3.6,3.95-5.95,5.27c-2.34,1.32-5.05,2.05-7.76,2.07c-2.7-0.01-5.41-0.7-7.75-2c-2.36-1.28-4.34-3.15-5.86-5.27
				c-3.08-4.27-4.36-9.45-4.44-14.51c0.01-5.05,1.19-10.26,4.2-14.57c1.48-2.15,3.43-4.03,5.77-5.32c2.32-1.32,5.01-2.02,7.69-1.98
				c2.67,0.05,5.29,0.83,7.56,2.12c2.28,1.3,4.21,3.09,5.79,5.12C195.59,106,197.34,111.06,197.59,116.23z"/>
			<path d="M162.98,74.79c0,0.01,0,0.03,0,0.04c-0.18,0.04-0.36,0.07-0.54,0.1C162.62,74.88,162.8,74.84,162.98,74.79z"/>
			<path d="M160.87,64.67c-0.05-0.87-0.09-1.74-0.11-2.62c0.21-0.07,0.42-0.14,0.62-0.21l-0.03-0.1c-0.2,0.04-0.39,0.07-0.59,0.11
				c-0.11-4.14,0.08-8.29,0.35-12.42c0.34-5.06,0.8-10.13,1.75-15.13c0.77-3.94,1.73-7.87,3.13-11.63c0.2-0.18,0.39-0.38,0.57-0.6
				c-1.32,4.03-2.12,8.2-2.71,12.39c-0.75,4.98-1,10.02-1.14,15.04c-0.15,5.03,0.14,10.07,0.16,15.1c0,0.17,0,0.33,0.01,0.5
				c0.03,3.22,0.07,6.45,0.1,9.69c-0.18,0.05-0.36,0.09-0.54,0.14c0.18-0.03,0.36-0.06,0.54-0.1c0.01,1.64,0.01,3.28,0.01,4.92
				l-0.2,0.02c-0.78-3.6-1.27-7.24-1.6-10.9c0.2-0.06,0.39-0.12,0.59-0.18l-0.02-0.1c-0.2,0.03-0.39,0.05-0.59,0.08
				C161.05,67.33,160.95,66,160.87,64.67z"/>
			<path d="M161.69,233.08c-1.42-7.32-1.16-14.87-0.16-22.15c0.25-1.87,0.64-3.65,0.96-5.45l0.95-5.4l1.81-10.83l0.84-5.41
				c0.26-1.82,0.46-3.55,0.44-5.38c0.04-3.62-0.25-7.25-0.87-10.83c-1.16-7.16-4.04-14.02-8.12-20.08l0.16-0.11
				c2.22,2.92,4.1,6.11,5.62,9.47c1.54,3.35,2.68,6.9,3.38,10.53c0.72,3.62,1.1,7.32,1.15,11.02c0.06,1.84-0.1,3.76-0.32,5.57
				c-0.21,1.83-0.49,3.65-0.76,5.46l-1.71,10.86l-0.9,5.43c-0.3,1.81-0.67,3.62-0.89,5.38c-0.4,3.61-0.79,7.23-0.82,10.84
				c-0.04,3.61,0.21,7.23,0.87,10.77c1.42,7.06,3.16,14.34,7.46,20.14c2.17,2.84,4.98,5.22,8.31,6.59s7,1.89,10.59,1.61
				c3.33-0.29,6.61-1.24,9.56-2.83c1.99-0.88,3.83-2.06,5.46-3.47l0.02,0.02c-0.03,0.04-0.06,0.09-0.1,0.13
				c-0.6,0.71-1.27,1.38-2.03,1.95c-0.75,0.55-1.53,1.05-2.33,1.52c-3.22,1.82-6.81,3.03-10.52,3.37c-3.7,0.33-7.48-0.18-10.95-1.54
				c-0.88-0.32-1.7-0.78-2.54-1.2c-0.42-0.2-0.79-0.49-1.19-0.74c-0.39-0.26-0.8-0.49-1.16-0.8c-1.51-1.12-2.8-2.49-4-3.93
				c-2.31-2.95-3.99-6.33-5.25-9.82c-0.63-1.75-1.18-3.52-1.66-5.3C162.52,236.69,162.03,234.92,161.69,233.08z"/>
			<path d="M161.76,68.59l0.02,0.1c-0.2,0.06-0.39,0.12-0.59,0.18c-0.01-0.07-0.01-0.14-0.02-0.2
				C161.37,68.64,161.56,68.62,161.76,68.59z"/>
			<path d="M161.35,61.74l0.03,0.1c-0.2,0.07-0.41,0.14-0.62,0.21c0-0.06,0-0.13,0-0.2C160.96,61.81,161.15,61.78,161.35,61.74z"/>
			<path d="M155.03,91.31c0.3-0.1,0.59-0.21,0.89-0.32c0.42-0.15,0.84-0.31,1.25-0.48c-0.47,0.28-0.94,0.57-1.4,0.86
				c-2.37,1.48-4.64,3.12-6.78,4.93C150.87,94.48,152.89,92.81,155.03,91.31z"/>
			<path d="M162.81,86.75c2.06-0.96,4.21-1.77,6.42-2.36c-1.01,0.66-2.05,1.29-3.1,1.88c-1.02,0.35-2.02,0.75-3,1.17
				c-2.06,0.88-4.04,1.92-5.96,3.07c-0.41,0.17-0.83,0.33-1.25,0.48c-0.3,0.11-0.59,0.22-0.89,0.32
				C157.48,89.56,160.09,88.04,162.81,86.75z"/>
			<path d="M155,260.88c2.46,1.79,5.09,3.43,7.99,4.46c1.42,0.57,2.83,1.07,4.25,1.6l1.06,0.4c0.35,0.13,0.74,0.25,1,0.41
				c0.11,0.07,0.18,0.13,0.22,0.19c-3.58-0.73-7.07-1.94-10.31-3.68c-13-7.43-22.24-20.18-26.63-34.24
				c0.21,0.66,0.43,1.31,0.66,1.96c2.11,5.74,4.94,11.28,8.73,16.11c1.87,2.42,3.94,4.68,6.12,6.8
				C150.25,257.04,152.54,259.07,155,260.88z"/>
			<path d="M132.5,229.8c0.03,0.07,0.05,0.15,0.08,0.22C132.55,229.95,132.52,229.88,132.5,229.8z"/>
			<path d="M130.95,177.81c0.61-6.02,1.46-12.01,2.57-17.97l-0.19-0.04c-0.45,1.78-0.86,3.56-1.25,5.36
				c0.06-0.36,0.12-0.73,0.18-1.09c1.17-7.24,2.63-14.43,4.28-21.57l0.19,0.04c-1.38,7.19-2.49,14.43-3.47,21.68
				c-0.97,7.26-1.97,14.52-2.7,21.78c-0.25,2.55-0.45,5.1-0.56,7.65c0.08-2.27,0.16-4.54,0.27-6.8
				C130.42,183.83,130.65,180.82,130.95,177.81z"/>
			<path d="M210.37,247.94c-0.06-0.16-0.07-0.15-0.14-0.17c-0.23,0-0.64,0.21-0.93,0.49c-0.63,0.57-1.12,1.32-1.59,2.1
				c-0.92,1.51-1.83,3.07-2.99,4.47l-0.02-0.02c-0.91,0.7-1.87,1.32-2.87,1.86c0.85-0.61,1.63-1.31,2.28-2.14
				c1.15-1.38,2.06-2.96,3-4.53c0.47-0.79,0.98-1.6,1.7-2.28c0.38-0.32,0.79-0.66,1.48-0.68c0.41,0,0.74,0.41,0.79,0.7
				c0.07,0.28,0.08,0.55,0.07,0.8c-0.18,1.95-0.86,3.68-1.68,5.37c-1.69,3.36-4.37,6.15-7.45,8.24c-3.08,2.12-6.56,3.59-10.12,4.63
				c-3.58,1.04-7.27,1.63-10.97,1.87c-3.55,0.26-7.15,0.08-10.66-0.57c0-0.13-0.03-0.26-0.09-0.37c-0.13-0.28-0.34-0.43-0.53-0.54
				c-0.4-0.24-0.75-0.32-1.1-0.46l-1.08-0.39c-1.42-0.52-2.87-1.02-4.27-1.56c-2.84-0.96-5.37-2.66-7.79-4.44
				c-2.4-1.81-4.64-3.84-6.73-6.01c-2.1-2.17-4.06-4.45-5.82-6.89c-3.57-4.84-6.12-10.32-8.06-15.99
				c-1.96-5.67-3.26-11.57-4.1-17.51c-0.82-5.94-0.95-11.97-0.78-18.01c0.02-0.49,0.04-0.98,0.05-1.47
				c-0.03,0.82-0.04,1.63-0.05,2.45c-0.04,3.63,0.17,7.23,0.52,10.87c0.67,7.25,1.75,14.45,4.01,21.33c1.1,3.44,2.42,6.81,4.08,10
				c0.76,1.64,1.74,3.15,2.63,4.72l1.5,2.24l0.75,1.12c0.26,0.37,0.55,0.71,0.82,1.07l1.66,2.12c0.58,0.69,1.2,1.34,1.8,2.01
				c1.19,1.34,2.5,2.65,3.79,3.88c2.61,2.47,5.48,4.65,8.62,6.35c6.27,3.42,13.56,4.86,20.74,4.47c3.61-0.18,7.2-0.69,10.69-1.6
				c3.48-0.93,6.87-2.26,9.88-4.23c3.01-1.95,5.62-4.56,7.3-7.72c0.81-1.57,1.51-3.32,1.69-5.02
				C210.42,248.29,210.4,248.1,210.37,247.94z"/>
			<path d="M162.99,265.34c-2.9-1.03-5.53-2.67-7.99-4.46c-2.46-1.81-4.75-3.84-6.91-5.99c-2.18-2.12-4.25-4.38-6.12-6.8
				c-3.79-4.83-6.62-10.37-8.73-16.11c-0.23-0.65-0.45-1.3-0.66-1.96c-0.03-0.07-0.05-0.15-0.08-0.22
				c-0.01-0.02-0.02-0.05-0.02-0.08c-1.14-3.54-1.98-7.16-2.62-10.8c-0.65-3.65-1.08-7.32-1.34-11c-0.09-1.16-0.17-2.33-0.23-3.5
				c-0.07-2.86-0.02-5.72,0.1-8.56c0.16-3.64,0.38-7.29,0.72-10.92c0.8-6.64,1.92-13.21,2.97-19.78c0.39-1.8,0.8-3.58,1.25-5.36
				l0.19,0.04c-1.11,5.96-1.96,11.95-2.57,17.97c-0.3,3.01-0.53,6.02-0.68,9.04c-0.11,2.26-0.19,4.53-0.27,6.8
				c-0.01,0.26-0.02,0.53-0.03,0.79c-0.01,0.49-0.03,0.98-0.05,1.47c-0.17,6.04-0.04,12.07,0.78,18.01
				c0.84,5.94,2.14,11.84,4.1,17.51c1.94,5.67,4.49,11.15,8.06,15.99c1.76,2.44,3.72,4.72,5.82,6.89c2.09,2.17,4.33,4.2,6.73,6.01
				c2.42,1.78,4.95,3.48,7.79,4.44c1.4,0.54,2.85,1.04,4.27,1.56l1.08,0.39c0.35,0.14,0.7,0.22,1.1,0.46
				c0.19,0.11,0.4,0.26,0.53,0.54c0.06,0.11,0.09,0.24,0.09,0.37c-0.25-0.04-0.5-0.09-0.75-0.14c-0.04-0.06-0.11-0.12-0.22-0.19
				c-0.26-0.16-0.65-0.28-1-0.41l-1.06-0.4C165.82,266.41,164.41,265.91,162.99,265.34z"/>
			<path d="M132.08,165.16c-1.05,6.57-2.17,13.14-2.97,19.78c0.21-2.42,0.48-4.84,0.8-7.25
				C130.47,173.48,131.19,169.3,132.08,165.16z"/>
			<path d="M129.86,218.92c0.64,3.64,1.48,7.26,2.62,10.8c-0.71-2.16-1.32-4.34-1.85-6.54c-0.73-2.98-1.3-5.99-1.67-9.03
				c-0.4-3.23-0.61-6.48-0.67-9.73c0.06,1.17,0.14,2.34,0.23,3.5C128.78,211.6,129.21,215.27,129.86,218.92z"/>
			<path d="M129.11,184.94c-0.34,3.63-0.56,7.28-0.72,10.92c-0.12,2.84-0.17,5.7-0.1,8.56c-0.14-2.52-0.19-5.05-0.12-7.56
				c0.09-3.7,0.42-7.38,0.83-11.03C129.03,185.53,129.07,185.24,129.11,184.94z"/>
			<path d="M156.84,70.09c-1.67,0.38-3.35,0.75-5.03,1.08c-3.37,0.59-6.79,0.96-10.22,1.13c-3.42,0.19-6.85,0.25-10.27,0.02
				c-1.71-0.14-3.42-0.3-5.11-0.57c-1.57-0.25-3.13-0.55-4.65-1.04c0-0.04-0.01-0.08-0.01-0.12c1.53,0.42,3.12,0.67,4.7,0.86
				c1.69,0.21,3.39,0.3,5.09,0.37c3.4,0.12,6.81-0.03,10.2-0.32c3.39-0.27,6.74-0.86,10.11-1.32l5.05-0.77
				c1.48-0.27,2.97-0.52,4.47-0.74c0.01,0.06,0.01,0.13,0.02,0.2C159.75,69.31,158.29,69.7,156.84,70.09z"/>
			<path d="M151.12,63.75c1.71-0.27,3.4-0.66,5.12-0.95c1.5-0.33,3-0.66,4.52-0.95c0,0.07,0,0.14,0,0.2
				c-1.44,0.5-2.9,0.97-4.36,1.42c-1.69,0.44-3.38,0.89-5.09,1.26c-1.72,0.32-3.43,0.69-5.17,0.86l-2.61,0.29l-2.62,0.19
				c-3.49,0.22-6.99,0.27-10.48-0.01c-1.74-0.16-3.48-0.35-5.2-0.67c-1.5-0.27-3-0.6-4.45-1.1c-0.01-0.04-0.02-0.09-0.02-0.13
				c1.48,0.44,3,0.72,4.52,0.93c1.72,0.26,3.45,0.38,5.18,0.48c3.47,0.17,6.94,0.02,10.39-0.29l2.58-0.29l2.57-0.38
				c0.86-0.12,1.71-0.25,2.56-0.42L151.12,63.75z"/>
			<path d="M121.55,70.59c0,0.04,0.01,0.08,0.01,0.12c-0.12-0.03-0.23-0.07-0.35-0.11l0.03-0.09
				C121.34,70.54,121.45,70.57,121.55,70.59z"/>
			<path d="M120.76,64.16c0,0.04,0.01,0.09,0.02,0.13c-0.21-0.05-0.42-0.13-0.62-0.2L120.2,64
				C120.38,64.06,120.57,64.12,120.76,64.16z"/>
			<path d="M112.2,88.43c1.77,1.11,3.5,2.27,5.19,3.48c-3.56-1.39-6.91-3.4-9.69-6.05C109.28,86.62,110.76,87.52,112.2,88.43z"/>
			<path class="st3" d="M115.35,42.49c-1.52-3.51-3.33-6.94-5.63-9.99c0.61,0.27,1.25,0.44,1.89,0.58c1.28,0.26,2.58,0.41,3.88,0.5
				c2.6,0.21,5.21,0.24,7.81,0.18c5.22-0.08,10.42-0.51,15.6-1.32c5.17-0.88,10.26-2.17,15.23-3.87c2.49-0.86,4.95-1.81,7.34-3
				c1.2-0.6,2.38-1.24,3.52-2.07c0.34-0.25,0.68-0.52,1-0.83c-1.4,3.76-2.36,7.69-3.13,11.63c-0.95,5-1.41,10.07-1.75,15.13
				c-0.27,4.13-0.46,8.28-0.35,12.42c-1.52,0.29-3.02,0.62-4.52,0.95c-1.72,0.29-3.41,0.68-5.12,0.95l-2.56,0.44
				c-0.85,0.17-1.7,0.3-2.56,0.42l-2.57,0.38l-2.58,0.29c-3.45,0.31-6.92,0.46-10.39,0.29c-1.73-0.1-3.46-0.22-5.18-0.48
				c-1.52-0.21-3.04-0.49-4.52-0.93c-0.45-2.96-0.99-5.92-1.64-8.85C118.13,50.98,117.15,46.6,115.35,42.49z"/>
			<path d="M120.2,64l-0.04,0.09c0.2,0.07,0.41,0.15,0.62,0.2c0.2,1.38,0.39,2.76,0.55,4.14c0.08,0.72,0.15,1.44,0.22,2.16
				c-0.1-0.02-0.21-0.05-0.31-0.08l-0.03,0.09c0.12,0.04,0.23,0.08,0.35,0.11c0.35,3.65,0.59,7.32,0.48,10.99l-0.2-0.01
				c-0.07-2.53-0.32-5.05-0.65-7.56h-0.01c-0.24-1.86-0.53-3.71-0.84-5.56c-0.71-4.34-1.63-8.65-2.78-12.88
				c-0.27-1.07-0.58-2.12-0.91-3.16c-0.33-1.05-0.62-2.1-1.01-3.13l-1.05-3.1c-0.38-1.02-0.75-2.05-1.1-3.08
				c-1.4-3.86-2.98-7.62-4.78-11.38c0.29,0.3,0.66,0.5,1,0.66h0.01c2.3,3.05,4.11,6.48,5.63,9.99c1.8,4.11,2.78,8.49,3.77,12.82
				c0.65,2.93,1.19,5.89,1.64,8.85C120.57,64.12,120.38,64.06,120.2,64z"/>
			<path d="M108.62,31.12c0.23,0.27,0.45,0.54,0.66,0.82C108.97,31.73,108.7,31.46,108.62,31.12z"/>
			<path d="M108.62,31.12c0.08,0.34,0.35,0.61,0.66,0.82c0.15,0.18,0.3,0.37,0.43,0.56c-0.34-0.16-0.71-0.36-1-0.66
				c-0.11-0.24-0.23-0.49-0.35-0.73l0.16-0.11C108.55,31.04,108.59,31.08,108.62,31.12z"/>
			<path class="st3" d="M160.47,23.63c1.11-0.59,2.2-1.24,3.14-1.96c0.46-0.37,0.9-0.76,1.19-1.14c0.14-0.19,0.25-0.38,0.27-0.48
				c0.02-0.12,0.01-0.07,0-0.09c-0.02-0.07-0.42-0.41-0.9-0.6c-0.49-0.22-1.05-0.39-1.63-0.54c-1.17-0.28-2.41-0.46-3.66-0.58
				c-2.51-0.24-5.07-0.26-7.61-0.18c-5.11,0.13-10.21,0.66-15.25,1.47c-2.53,0.39-5,0.91-7.49,1.53c-2.49,0.59-4.97,1.3-7.41,2.13
				c-2.44,0.83-4.85,1.77-7.14,2.95c-1.14,0.6-2.26,1.23-3.29,2.01c-0.5,0.38-0.99,0.8-1.41,1.27c-0.39,0.47-0.77,1.04-0.69,1.61
				c0.01,0.03,0.01,0.06,0.03,0.09c-0.03-0.04-0.07-0.08-0.1-0.12l-0.16,0.11c0.12,0.24,0.24,0.49,0.35,0.73
				c-0.2-0.2-0.35-0.44-0.42-0.75c-0.12-0.76,0.31-1.39,0.7-1.91c0.42-0.52,0.91-0.97,1.42-1.4c1.01-0.84,2.09-1.59,3.2-2.28
				c2.23-1.4,4.55-2.63,6.92-3.78c4.74-2.24,9.73-4.12,14.95-5.13c5.19-1.05,10.46-1.51,15.75-1.51c2.65,0.02,5.3,0.16,7.95,0.51
				c1.33,0.17,2.66,0.4,4.01,0.78c0.67,0.19,1.35,0.42,2.04,0.75c0.66,0.37,1.46,0.73,2.03,1.85c0.28,0.57,0.26,1.32,0.07,1.81
				c-0.17,0.52-0.43,0.88-0.69,1.21c-0.02,0.03-0.05,0.06-0.08,0.08c0.24-0.76,0.51-1.52,0.8-2.27l-0.18-0.08
				c-0.43,0.97-0.83,1.95-1.19,2.95c-0.32,0.31-0.66,0.58-1,0.83c-1.14,0.83-2.32,1.47-3.52,2.07c-2.39,1.19-4.85,2.14-7.34,3
				c-4.97,1.7-10.06,2.99-15.23,3.87c-5.18,0.81-10.38,1.24-15.6,1.32c-2.6,0.06-5.21,0.03-7.81-0.18c-1.3-0.09-2.6-0.24-3.88-0.5
				c-0.64-0.14-1.28-0.31-1.89-0.58h-0.01c-0.13-0.19-0.28-0.38-0.43-0.56c0.17,0.12,0.36,0.22,0.55,0.31
				c0.58,0.26,1.2,0.44,1.83,0.58c1.26,0.27,2.56,0.38,3.85,0.46c2.58,0.12,5.18,0.01,7.76-0.17c2.59-0.2,5.16-0.51,7.72-0.87
				c2.56-0.35,5.12-0.77,7.64-1.29c5.05-1.01,10.03-2.43,14.84-4.23C155.87,25.82,158.24,24.82,160.47,23.63z"/>
			<path class="st3" d="M179.32,71.05c0.33-0.02,0.66-0.01,0.9,0.06s0.31,0.18,0.36,0.34c0.09,0.38-0.21,1.07-0.55,1.62
				c-0.71,1.15-1.69,2.2-2.7,3.19c-2.05,1.97-4.33,3.72-6.71,5.31c-9.56,6.34-20.64,10.35-32.08,11.02
				c-5.7,0.41-11.47,0.14-16.96-1.28c-5.48-1.37-10.63-4.13-14.45-8.28c-1.89-2.1-3.59-4.44-4.77-6.97
				c-0.56-1.25-1.01-2.63-0.78-3.83c0.12-0.59,0.43-1.1,0.93-1.4c0.49-0.31,1.16-0.41,1.83-0.43c1.37-0.03,2.8,0.24,4.2,0.54
				c1.4,0.31,2.8,0.68,4.21,1.05c2.79,0.76,5.59,1.51,8.43,2.14h0.01c0.33,2.51,0.58,5.03,0.65,7.56l0.2,0.01
				c0.11-3.67-0.13-7.34-0.48-10.99c1.52,0.49,3.08,0.79,4.65,1.04c1.69,0.27,3.4,0.43,5.11,0.57c3.42,0.23,6.85,0.17,10.27-0.02
				c3.43-0.17,6.85-0.54,10.22-1.13c1.68-0.33,3.36-0.7,5.03-1.08c1.45-0.39,2.91-0.78,4.35-1.22c0.33,3.66,0.82,7.3,1.6,10.9
				l0.2-0.02c0-1.64,0-3.28-0.01-4.92c2.68-0.48,5.34-1.1,7.97-1.79l4.2-1.12C176.55,71.57,177.97,71.16,179.32,71.05z"/>
			<path d="M164.36,269.89c-1.52,0.06-3.05,0.1-4.58,0.04c-3.05-0.11-6.1-0.45-9.1-1.07c-3.01-0.61-5.96-1.49-8.81-2.63
				c-1.42-0.6-2.84-1.2-4.18-1.97l-2.02-1.12l-1.71-1.1l-0.23-0.15l-0.97-0.63l-0.92-0.7l-1.85-1.39c-1.15-1.02-2.37-1.97-3.44-3.08
				c-2.26-2.1-4.21-4.49-6.11-6.9c-3.67-4.94-6.75-10.3-9.16-15.94c-1.26-2.8-2.26-5.7-3.21-8.61c-0.89-2.94-1.74-5.82-2.52-8.79
				c-1.5-5.92-2.69-11.95-3.18-18.05c-0.51-6.09-0.54-12.23,0.07-18.32c1.27-12.15,4.91-24.07,10.94-34.62l0.18,0.1
				c-2.72,5.41-4.91,11.07-6.47,16.9c-1.6,5.81-2.61,11.76-3.09,17.76c-0.92,12,0.5,24.09,3.55,35.71c0.77,2.88,1.65,5.82,2.52,8.68
				c0.95,2.84,1.95,5.67,3.13,8.42c2.29,5.54,5.23,10.8,8.74,15.63c1.82,2.37,3.7,4.7,5.84,6.77c1.02,1.1,2.19,2.03,3.28,3.05
				l1.76,1.38l0.88,0.69l0.92,0.63l1.85,1.25l1.94,1.11c1.27,0.79,2.63,1.4,3.99,2.03c2.74,1.19,5.59,2.14,8.51,2.82
				s5.91,1.1,8.91,1.28c1.5,0.09,3.01,0.1,4.51,0.08c1.5-0.05,3-0.17,4.41-0.57c0.36-0.1,0.69-0.22,0.8-0.38
				c0.06-0.07,0.06-0.16-0.02-0.26c0.25,0.05,0.5,0.1,0.75,0.14c0,0.18-0.05,0.36-0.16,0.51c-0.36,0.46-0.82,0.54-1.17,0.66
				C167.44,269.7,165.88,269.83,164.36,269.89z"/>
			<path d="M181.63,71.18c0.14,0.53,0.02,0.98-0.1,1.38c-0.13,0.4-0.3,0.75-0.49,1.09c-0.77,1.35-1.75,2.47-2.77,3.55
				c-2.06,2.12-4.37,3.96-6.76,5.66c-0.75,0.53-1.51,1.04-2.28,1.53c-2.21,0.59-4.36,1.4-6.42,2.36c-2.72,1.29-5.33,2.81-7.78,4.56
				c-5.27,1.84-10.81,2.86-16.35,3.27c-5.86,0.39-11.84,0.11-17.58-1.44c-1.25-0.34-2.49-0.74-3.71-1.23
				c-1.69-1.21-3.42-2.37-5.19-3.48c-1.44-0.91-2.92-1.81-4.5-2.57c-0.61-0.56-1.18-1.17-1.73-1.8c-1.92-2.27-3.64-4.7-4.81-7.48
				c-0.54-1.4-1.06-2.93-0.7-4.61c0.19-0.82,0.73-1.63,1.51-2.05c0.77-0.44,1.6-0.51,2.37-0.5c1.54,0.05,2.97,0.42,4.38,0.79
				c1.41,0.39,2.79,0.83,4.17,1.28c2.77,0.88,5.51,1.8,8.29,2.64c-2.84-0.63-5.64-1.38-8.43-2.14c-1.41-0.37-2.81-0.74-4.21-1.05
				c-1.4-0.3-2.83-0.57-4.2-0.54c-0.67,0.02-1.34,0.12-1.83,0.43c-0.5,0.3-0.81,0.81-0.93,1.4c-0.23,1.2,0.22,2.58,0.78,3.83
				c1.18,2.53,2.88,4.87,4.77,6.97c3.82,4.15,8.97,6.91,14.45,8.28c5.49,1.42,11.26,1.69,16.96,1.28
				c11.44-0.67,22.52-4.68,32.08-11.02c2.38-1.59,4.66-3.34,6.71-5.31c1.01-0.99,1.99-2.04,2.7-3.19c0.34-0.55,0.64-1.24,0.55-1.62
				c-0.05-0.16-0.12-0.27-0.36-0.34s-0.57-0.08-0.9-0.06c-1.35,0.11-2.77,0.52-4.17,0.87l-4.2,1.12c-2.63,0.69-5.29,1.31-7.97,1.79
				c0-0.01,0-0.03,0-0.04c2.63-0.69,5.23-1.46,7.82-2.27l4.14-1.35c1.39-0.42,2.75-0.91,4.29-1.12c0.39-0.04,0.8-0.06,1.26,0.05
				C180.96,70.18,181.51,70.63,181.63,71.18z"/>
			<path d="M92.91,112.15c4.57-0.25,8.57,3.79,8.16,4.75c-0.3,0.7-2.79-0.58-7.4-0.27c-5.52,0.37-8.32,2.62-8.78,1.93
				C84.3,117.67,87.95,112.42,92.91,112.15z"/>
			<path d="M94.31,137.65c2.99-5.05,6.33-9.9,10.05-14.42c-2.49,3.42-4.81,6.96-6.95,10.6c-0.12,0.18-0.25,0.37-0.37,0.55
				c-0.63,0.9-1.14,1.81-2.04,2.74C94.82,137.32,94.58,137.51,94.31,137.65z"/>
			<path d="M84.71,158.13c0.12,0.4,0.24,0.81,0.35,1.21c-0.14-0.34-0.28-0.67-0.43-1C84.66,158.27,84.68,158.2,84.71,158.13z"/>
			<path d="M128.9,260.5c1.6,0.69,3.24,1.28,4.91,1.77c-3.39-0.79-6.73-1.96-9.8-3.69c-3.08-1.72-5.91-3.82-8.65-6
				c-5.45-4.35-10.79-8.93-15.7-13.95c-5.02-4.95-9.1-10.86-12.33-17.13c-3.22-6.28-5.57-13.02-6.94-19.96
				c-1.35-6.95-1.55-14.12-0.76-21.13c0.8-6.97,2.11-13.96,4.47-20.6c0.17-0.49,0.35-0.98,0.53-1.47c0.15,0.33,0.29,0.66,0.43,1
				c-0.11-0.4-0.23-0.81-0.35-1.21c2.22-6.04,4.82-11.91,7.9-17.55c0.55-0.98,1.12-1.96,1.7-2.93c0.27-0.14,0.51-0.33,0.69-0.53
				c0.9-0.93,1.41-1.84,2.04-2.74c0.12-0.18,0.25-0.37,0.37-0.55c-4.92,8.36-8.89,17.25-11.86,26.46c-1.03,3.31-1.9,6.66-2.58,10.04
				s-1.16,6.84-1.53,10.27c-0.72,6.87-0.46,13.81,0.91,20.56c2.57,13.52,8.89,26.4,18.43,36.41c4.72,5.09,9.88,9.75,15.21,14.26
				c2.63,2.27,5.33,4.47,8.28,6.29C125.75,259.03,127.3,259.82,128.9,260.5z"/>
			<linearGradient id="SVGID_1_" gradientUnits="userSpaceOnUse" x1="132.0693" y1="158.5518" x2="274.8764" y2="241.0015">
				<stop  offset="0" style="stop-color:#E1306C"/>
				<stop  offset="0.3727" style="stop-color:#405DE6"/>
			</linearGradient>
			<path class="st4" d="M175.42,214.97c1.56-2.91,3.06-5.84,4.68-8.68c1.69-2.81,3.34-5.7,4.84-8.65c0.76-1.49,1.45-2.97,2.13-4.54
				c0.65-1.58,1.1-3.23,1.47-4.88c0.71-3.3,1-6.64,1.15-9.95c0.4-6.58,0.1-13.47-2.35-19.73c-1.47-3.84-3.64-7.37-6.33-10.44
				c3.03-0.11,6.05-0.55,9-1.35c1.55-0.44,3.12-0.91,4.54-1.73c1.41-0.82,2.73-1.86,3.68-3.17l-0.07-0.07
				c-1.33,0.91-2.67,1.68-4.07,2.36c-1.41,0.66-2.83,1.31-4.32,1.84c-1.49,0.52-3.02,0.92-4.57,1.25c-1.42,0.32-2.85,0.57-4.3,0.74
				c-1.66-1.88-3.51-3.58-5.51-5.07l-0.12,0.16c5.1,4.14,9.05,9.66,11.12,15.82c2.19,6.16,2.28,12.78,1.69,19.28
				c-0.27,3.26-0.7,6.49-1.48,9.61c-0.37,1.56-0.88,3.08-1.45,4.56c-0.59,1.46-1.31,2.97-1.98,4.45c-1.36,2.98-2.83,5.89-4.24,8.9
				c-1.42,3-2.62,6.09-3.69,9.21L175.42,214.97z M208.89,125.67c0.2-1,0.33-2.02,0.38-3.03h0.03c2.8,6.55,6.79,18.61,7.11,25.68
				c0.18,3.52-0.02,7.06-0.72,10.5c-0.65,3.44-1.87,6.77-3.28,10c-0.7,1.6-1.48,3.2-2.32,4.72c-0.87,1.51-1.82,2.98-2.85,4.4
				c-2.07,2.84-4.41,5.5-6.76,8.18c-2.36,2.69-4.66,5.39-7.06,8.01c-1.19,1.31-2.44,2.57-3.64,3.95c-1.19,1.37-2.29,2.79-3.4,4.2
				c-4.33,5.74-8.18,11.87-11.13,18.47c-0.74,1.65-1.4,3.33-1.96,5.08c-0.29,0.93-0.45,1.77-0.68,2.66
				c-0.18,0.89-0.37,1.78-0.52,2.67c-0.6,3.58-0.8,7.26-0.28,10.9c0.57,3.61,1.81,7.21,4.07,10.14c0.57,0.72,1.13,1.45,1.8,2.08
				c0.33,0.32,0.63,0.67,0.98,0.96l1.07,0.87c0.68,0.61,1.49,1.05,2.24,1.56c0.76,0.51,1.6,0.93,2.45,1.26
				c1.72,0.67,3.55,1.02,5.36,1.08c1.81,0.04,3.63-0.04,5.4-0.42c1.4-0.29,2.76-0.74,4.06-1.31c-2.95,1.59-6.23,2.54-9.56,2.83
				c-3.59,0.28-7.26-0.24-10.59-1.61s-6.14-3.75-8.31-6.59c-4.3-5.8-6.04-13.08-7.46-20.14c-0.66-3.54-0.91-7.16-0.87-10.77
				c0.03-3.61,0.42-7.23,0.82-10.84c0.22-1.76,0.59-3.57,0.89-5.38l0.9-5.43l1.71-10.86c0.27-1.81,0.55-3.63,0.76-5.46
				c0.22-1.81,0.38-3.73,0.32-5.57c-0.05-3.7-0.43-7.4-1.15-11.02c-0.7-3.63-1.84-7.18-3.38-10.53c-1.52-3.36-3.4-6.55-5.62-9.47
				l-0.16,0.11c4.08,6.06,6.96,12.92,8.12,20.08c0.62,3.58,0.91,7.21,0.87,10.83c0.02,1.83-0.18,3.56-0.44,5.38l-0.84,5.41
				l-1.81,10.83l-0.95,5.4c-0.32,1.8-0.71,3.58-0.96,5.45c-1,7.28-1.26,14.83,0.16,22.15c0.34,1.84,0.83,3.61,1.3,5.39
				c0.48,1.78,1.03,3.55,1.66,5.3c1.26,3.49,2.94,6.87,5.25,9.82c1.2,1.44,2.49,2.81,4,3.93c0.36,0.31,0.77,0.54,1.16,0.8
				c0.4,0.25,0.77,0.54,1.19,0.74c0.84,0.42,1.66,0.88,2.54,1.2c3.47,1.36,7.25,1.87,10.95,1.54c3.71-0.34,7.3-1.55,10.52-3.37
				c0.8-0.47,1.58-0.97,2.33-1.52c0.76-0.57,1.43-1.24,2.03-1.95c0.04-0.04,0.07-0.09,0.1-0.13c1.16-1.4,2.07-2.96,2.99-4.47
				c0.47-0.78,0.96-1.53,1.59-2.1c0.29-0.28,0.7-0.49,0.93-0.49c0.07,0.02,0.08,0.01,0.14,0.17c0.03,0.16,0.05,0.35,0.03,0.56
				c-0.18,1.7-0.88,3.45-1.69,5.02c-1.68,3.16-4.29,5.77-7.3,7.72c-3.01,1.97-6.4,3.3-9.88,4.23c-3.49,0.91-7.08,1.42-10.69,1.6
				c-7.18,0.39-14.47-1.05-20.74-4.47c-3.14-1.7-6.01-3.88-8.62-6.35c-1.29-1.23-2.6-2.54-3.79-3.88c-0.6-0.67-1.22-1.32-1.8-2.01
				l-1.66-2.12c-0.27-0.36-0.56-0.7-0.82-1.07l-0.75-1.12l-1.5-2.24c-0.89-1.57-1.87-3.08-2.63-4.72c-1.66-3.19-2.98-6.56-4.08-10
				c-2.26-6.88-3.34-14.08-4.01-21.33c-0.35-3.64-0.56-7.24-0.52-10.87c0.01-0.82,0.02-1.63,0.05-2.45
				c0.01-0.26,0.02-0.53,0.03-0.79c0.11-2.55,0.31-5.1,0.56-7.65c0.73-7.26,1.73-14.52,2.7-21.78c0.98-7.25,2.09-14.49,3.47-21.68
				l-0.19-0.04c-1.65,7.14-3.11,14.33-4.28,21.57c-0.06,0.36-0.12,0.73-0.18,1.09c-0.89,4.14-1.61,8.32-2.17,12.53
				c-0.32,2.41-0.59,4.83-0.8,7.25c-0.04,0.3-0.08,0.59-0.11,0.89c-0.41,3.65-0.74,7.33-0.83,11.03c-0.07,2.51-0.02,5.04,0.12,7.56
				c0.06,3.25,0.27,6.5,0.67,9.73c0.37,3.04,0.94,6.05,1.67,9.03c0.53,2.2,1.14,4.38,1.85,6.54c0,0.03,0.01,0.06,0.02,0.08
				c0.02,0.08,0.05,0.15,0.08,0.22c4.39,14.06,13.63,26.81,26.63,34.24c3.24,1.74,6.73,2.95,10.31,3.68
				c0.08,0.1,0.08,0.19,0.02,0.26c-0.11,0.16-0.44,0.28-0.8,0.38c-1.41,0.4-2.91,0.52-4.41,0.57c-1.5,0.02-3.01,0.01-4.51-0.08
				c-3-0.18-5.99-0.6-8.91-1.28s-5.77-1.63-8.51-2.82c-1.36-0.63-2.72-1.24-3.99-2.03l-1.94-1.11l-1.85-1.25l-0.92-0.63l-0.88-0.69
				l-1.76-1.38c-1.09-1.02-2.26-1.95-3.28-3.05c-2.14-2.07-4.02-4.4-5.84-6.77c-3.51-4.83-6.45-10.09-8.74-15.63
				c-1.18-2.75-2.18-5.58-3.13-8.42c-0.87-2.86-1.75-5.8-2.52-8.68c-3.05-11.62-4.47-23.71-3.55-35.71c0.48-6,1.49-11.95,3.09-17.76
				c1.56-5.83,3.75-11.49,6.47-16.9l-0.18-0.1c-6.03,10.55-9.67,22.47-10.94,34.62c-0.61,6.09-0.58,12.23-0.07,18.32
				c0.49,6.1,1.68,12.13,3.18,18.05c0.78,2.97,1.63,5.85,2.52,8.79c0.95,2.91,1.95,5.81,3.21,8.61c2.41,5.64,5.49,11,9.16,15.94
				c1.9,2.41,3.85,4.8,6.11,6.9c1.07,1.11,2.29,2.06,3.44,3.08l1.85,1.39l0.92,0.7l0.97,0.63l0.23,0.15l-0.15,0.23
				c-1.67-0.49-3.31-1.08-4.91-1.77c-1.6-0.68-3.15-1.47-4.63-2.38c-2.95-1.82-5.65-4.02-8.28-6.29
				c-5.33-4.51-10.49-9.17-15.21-14.26c-9.54-10.01-15.86-22.89-18.43-36.41c-1.37-6.75-1.63-13.69-0.91-20.56
				c0.37-3.43,0.85-6.89,1.53-10.27s1.55-6.73,2.58-10.04c2.97-9.21,6.94-18.1,11.86-26.46c1.09-1.61,2.23-3.17,3.42-4.7
				c1.33-1.7,2.67-3.39,4.11-4.99l1.1-1.23c0.37-0.42,0.73-0.93,0.97-1.49c0.44-1.08,0.68-2.19,0.77-3.31
				c0.19-2.24-0.19-4.46-0.76-6.57c-0.6-2.12-1.5-4.14-2.6-6.04c-1.12-1.89-2.44-3.69-4.12-5.17c-1.67-1.46-3.74-2.63-6.07-2.92
				c-2.32-0.25-4.71,0.38-6.61,1.65c-1.93,1.23-3.48,2.92-4.72,4.76c-2,3.01-3.3,6.4-3.91,9.91l-1.52-0.28
				c0.57-3.22,1.36-6.4,2.41-9.48c1.52-4.45,3.68-8.71,6.78-12.19c3.07-3.46,7.21-6.1,11.83-6.44c2.29-0.19,4.63,0.1,6.85,0.83
				c2.24,0.7,4.31,1.86,6.42,3.02c4.17,2.35,8.26,4.89,12.06,7.84c-1.76-1.64-3.67-3.13-5.62-4.54c-0.27-0.2-0.54-0.39-0.81-0.58
				c1.22,0.49,2.46,0.89,3.71,1.23c5.74,1.55,11.72,1.83,17.58,1.44c5.54-0.41,11.08-1.43,16.35-3.27c-2.14,1.5-4.16,3.17-6.04,4.99
				c2.14-1.81,4.41-3.45,6.78-4.93c0.46-0.29,0.93-0.58,1.4-0.86c3.09-1.19,6.09-2.61,8.96-4.24c4.22-1.49,8.68-2.32,13.11-1.88
				c2.73,0.23,5.42,0.93,7.93,2.05c2.54,1.08,4.79,2.72,6.9,4.5l1.55,1.38l1.43,1.52c0.99,0.98,1.78,2.13,2.67,3.2
				c0.95,1.15,1.71,2.33,2.42,3.42c1.08,1.98,2.17,4.16,3.2,6.57c1.24,2.87,2.22,5.62,2.98,8.16h-0.01c0.37,1.7,0.5,3.46,0.47,5.19
				c-0.02,1.73-0.24,3.45-0.67,5.11c-0.41,1.67-1.16,3.21-1.95,4.71c-0.74,1.54-1.84,2.84-2.91,4.26l0.07,0.07
				c0.69-0.53,1.46-1.03,2.04-1.71c0.31-0.32,0.6-0.67,0.91-1c0.26-0.37,0.5-0.75,0.76-1.12
				C207.98,129.17,208.57,127.43,208.89,125.67z M193.19,131c3.2-4.25,4.62-9.61,4.4-14.77c-0.25-5.17-2-10.23-5.15-14.3
				c-1.58-2.03-3.51-3.82-5.79-5.12c-2.27-1.29-4.89-2.07-7.56-2.12c-2.68-0.04-5.37,0.66-7.69,1.98c-2.34,1.29-4.29,3.17-5.77,5.32
				c-3.01,4.31-4.19,9.52-4.2,14.57c0.08,5.06,1.36,10.24,4.44,14.51c1.52,2.12,3.5,3.99,5.86,5.27c2.34,1.3,5.05,1.99,7.75,2
				c2.71-0.02,5.42-0.75,7.76-2.07C189.59,134.95,191.6,133.11,193.19,131z"/>
			<path d="M107.02,111.54c0.57,2.11,0.95,4.33,0.76,6.57c-0.09,1.12-0.33,2.23-0.77,3.31c-0.24,0.56-0.6,1.07-0.97,1.49l-1.1,1.23
				c-1.44,1.6-2.78,3.29-4.11,4.99c-1.19,1.53-2.33,3.09-3.42,4.7c2.14-3.64,4.46-7.18,6.95-10.6l-0.1-0.1
				c0.7-0.72,1.43-1.37,1.83-2.14c0.43-0.91,0.73-1.93,0.87-2.97c0.28-2.09,0.11-4.27-0.45-6.34c-0.54-2.09-1.38-4.1-2.5-5.93
				c-1.14-1.82-2.55-3.49-4.24-4.77c-1.67-1.29-3.64-2.19-5.66-2.33c-2.02-0.12-4.04,0.43-5.8,1.53c-1.75,1.09-3.31,2.55-4.65,4.2
				c-2.48,3.11-4.3,6.94-4.75,10.98l-0.14-0.01c0.06-0.55,0.13-1.09,0.22-1.62c0.61-3.51,1.91-6.9,3.91-9.91
				c1.24-1.84,2.79-3.53,4.72-4.76c1.9-1.27,4.29-1.9,6.61-1.65c2.33,0.29,4.4,1.46,6.07,2.92c1.68,1.48,3,3.28,4.12,5.17
				C105.52,107.4,106.42,109.42,107.02,111.54z"/>
			<path d="M104.36,123.23c-3.72,4.52-7.06,9.37-10.05,14.42c-0.38,0.21-0.8,0.35-1.18,0.39c-0.66,0.11-1.31,0.05-1.91-0.09
				c-1.2-0.28-2.24-0.84-3.2-1.48c-0.96-0.64-1.82-1.37-2.61-2.18c-1.59-1.59-2.88-3.45-3.9-5.41c-2.05-3.93-3.09-8.36-2.82-12.72
				c0.02-0.27,0.05-0.54,0.08-0.81l0.14,0.01c-0.03,0.27-0.05,0.54-0.07,0.81c-0.28,4.35,1.23,8.64,3.53,12.21
				c1.15,1.79,2.52,3.44,4.05,4.88c1.52,1.39,3.28,2.71,5.15,3.13c0.46,0.1,0.91,0.14,1.32,0.07c0.43-0.06,0.69-0.18,1-0.49
				c0.62-0.63,1.23-1.61,1.86-2.48c1.26-1.79,2.59-3.54,3.97-5.24c1.37-1.7,2.82-3.35,4.35-4.93c0.06-0.06,0.12-0.13,0.19-0.19
				L104.36,123.23z"/>
			<linearGradient id="SVGID_2_" gradientUnits="userSpaceOnUse" x1="76.2598" y1="135.7923" x2="94.3107" y2="135.7923">
				<stop  offset="0" style="stop-color:#E1306C"/>
				<stop  offset="0.0588" style="stop-color:#D53375"/>
				<stop  offset="0.6065" style="stop-color:#6A51C6"/>
				<stop  offset="0.8503" style="stop-color:#405DE6"/>
			</linearGradient>
			<path class="st5" d="M91.22,137.95c0.6,0.14,1.25,0.2,1.91,0.09c0.38-0.04,0.8-0.18,1.18-0.39c-0.58,0.97-1.15,1.95-1.7,2.93
				c-3.08,5.64-5.68,11.51-7.9,17.55c-1.23-4.22-2.82-8.34-4.3-12.46c-0.82-2.25-1.62-4.52-2.28-6.78
				c-0.65-2.27-1.15-4.58-1.46-6.92c-0.64-4.7-0.48-9.41,0.12-14.15c0.18-1.46,0.4-2.92,0.68-4.37l1.52,0.28
				c-0.09,0.53-0.16,1.07-0.22,1.62c-0.03,0.27-0.06,0.54-0.08,0.81c-0.27,4.36,0.77,8.79,2.82,12.72c1.02,1.96,2.31,3.82,3.9,5.41
				c0.79,0.81,1.65,1.54,2.61,2.18C88.98,137.11,90.02,137.67,91.22,137.95z"/>
			<path d="M118.2,92.49c1.95,1.41,3.86,2.9,5.62,4.54c-3.8-2.95-7.89-5.49-12.06-7.84c-2.11-1.16-4.18-2.32-6.42-3.02
				c-2.22-0.73-4.56-1.02-6.85-0.83c-4.62,0.34-8.76,2.98-11.83,6.44c-3.1,3.48-5.26,7.74-6.78,12.19
				c-1.05,3.08-1.84,6.26-2.41,9.48c-0.28,1.45-0.5,2.91-0.68,4.37c-0.6,4.74-0.76,9.45-0.12,14.15c0.31,2.34,0.81,4.65,1.46,6.92
				c0.66,2.26,1.46,4.53,2.28,6.78c1.48,4.12,3.07,8.24,4.3,12.46c-0.03,0.07-0.05,0.14-0.08,0.21c-1.74-4.1-3.68-8.08-5.46-12.18
				c-0.94-2.22-1.89-4.44-2.63-6.79c-0.73-2.33-1.27-4.73-1.64-7.15s-0.56-4.87-0.55-7.33c0.01-2.46,0.22-4.88,0.5-7.3
				c0.56-4.84,1.55-9.63,3.17-14.26c1.61-4.62,3.92-9.11,7.31-12.77c1.68-1.82,3.64-3.43,5.86-4.62c2.21-1.19,4.68-1.94,7.2-2.05
				c2.51-0.15,5.02,0.28,7.34,1.14c0.67,0.25,1.33,0.53,1.97,0.83c2.78,2.65,6.13,4.66,9.69,6.05
				C117.66,92.1,117.93,92.29,118.2,92.49z"/>
		</g>
		<g>
			<path class="st1" d="M169.01,119.49c-0.62-0.84,4.32-9.08,11.16-8.75c6.78,0.33,10.4,6.72,9.71,7.5
				c-0.57,0.65-3.7-2.09-9.93-2.38C173.66,115.56,169.52,120.2,169.01,119.49z"/>
			<path class="st1" d="M84.89,118.56c-0.59-0.89,3.06-6.14,8.02-6.41c4.57-0.25,8.57,3.79,8.16,4.75c-0.3,0.7-2.79-0.58-7.4-0.27
				C88.15,117,85.35,119.25,84.89,118.56z"/>
		</g>
	</g>
	<path d="M91.63,136.55c3.91,5.41,6.53,6.46,12.23,3.95c3.77-1.67,7.31-4.04,10.69-6.5c4.48-3.25,9.15-5.81,14.56-3.61
		c3.36,1.37,5.97,1.19,9.23-0.38c4.34-2.09,8.82-1.17,13.08,1.33c4.17,2.44,8.4,4.99,12.89,6.54c5.95,2.06,8.24,0.79,11.68-4.58
		c-1.02,15.26-23.21,30.44-41.58,16.19c-8.17,7.44-17.43,9.02-27.51,5.05C99.09,151.47,93.45,144.77,91.63,136.55z"/>
</g>
<g>
	<ellipse class="st6" cx="179.08" cy="116.38" rx="16.43" ry="18"/>
	<path d="M199.93,116.29c-0.09-0.7-0.19-1.44-0.64-1.98c-0.42-0.51-1.09-0.77-1.55-1.25c-0.64-0.67-0.78-1.65-0.96-2.55
		c-1.15-5.7-5.21-10.72-10.54-13.04c-4.6-2-10.03-1.93-14.61,0.08c-0.92,0.4-2.04,0.81-2.84,1.41c-0.96,0.71-1.8,1.71-2.57,2.61
		c-1.58,1.86-2.9,3.95-3.88,6.19c-1.15,2.63-1.83,5.48-1.92,8.35c-0.21,6.78,3.03,13.69,8.66,17.49c5.62,3.8,13.51,4.15,19.22,0.48
		c1.88-1.21,3.46-2.76,4.82-4.52c2.06-2.67,3.6-5.82,4.88-8.96c0-0.67,0-1.45,0,0c0.24,0.22,0.59,0.61,0.86,1.18
		c0.36,0.75,0.37,1.69,0.37,1.71c0.02,1.05,0.25,8.16,0.54,17.95c0.48,8.03,0.63,14.54,0.69,18.89c0.08,6.65,0.15,13.29,0.27,19.94
		c0.06,3.32,0.12,6.64,0.2,9.97c0.04,1.7,0.08,3.4,0.13,5.11c0.02,0.75-0.11,1.71,0.07,2.43c0.23,0.91,0.26,0.8,1.25,1.12
		c0.08,0.03,0.17,0.05,0.24,0.01c0.07-0.04,0.09-0.12,0.1-0.2c0.15-0.71,0.22-1.4,0.22-2.13c0.1-16.05,0.08-32.08-0.48-48.13
		C202.45,137.75,201.26,126.88,199.93,116.29z M178.95,134.38c-8.98-0.11-16.37-8.36-16.31-18.19c0.07-9.89,7.49-17.88,16.57-17.81
		c9.05,0.07,16.34,8.16,16.29,18.09C195.47,126.29,187.89,134.49,178.95,134.38z M199.5,122.79
		C199.5,122.79,199.5,122.79,199.5,122.79C199.49,122.82,199.49,122.82,199.5,122.79z"/>
	<path class="st2" d="M192.07,120.69c1.93-15.34-12.43-23.22-22.17-15.88c2.31-3.98,10.48-5.6,15.96-2.19
		C192.01,106.45,194.47,115.1,192.07,120.69z"/>
</g>
<path d="M208.25,181.41"/>
</svg>
