<?xml version="1.0" encoding="UTF-8"?>
<svg id="Christmas" width="293" height="255" xmlns="http://www.w3.org/2000/svg" xmlns:xlink="http://www.w3.org/1999/xlink" viewBox="0 0 385.04 334.94">
  <defs>
    <style>
      .cls-1 {
        fill: url(#linear-gradient);
      }

      .cls-1, .cls-2, .cls-3, .cls-4, .cls-5, .cls-6, .cls-7, .cls-8, .cls-9, .cls-10, .cls-11, .cls-12, .cls-13, .cls-14, .cls-15, .cls-16, .cls-17, .cls-18, .cls-19, .cls-20 {
        stroke-width: 0px;
      }

      .cls-21 {
        stroke-width: 2px;
      }

      .cls-21, .cls-22 {
        fill: none;
        stroke: #000;
      }

      .cls-2 {
        fill: url(#linear-gradient-11);
      }

      .cls-3 {
        fill: url(#linear-gradient-12);
      }

      .cls-4 {
        fill: url(#linear-gradient-13);
      }

      .cls-5 {
        fill: url(#linear-gradient-10);
      }

      .cls-6 {
        fill: url(#linear-gradient-16);
      }

      .cls-7 {
        fill: url(#linear-gradient-15);
      }

      .cls-8 {
        fill: url(#linear-gradient-14);
      }

      .cls-9 {
        fill: #69cae0;
        isolation: isolate;
        opacity: .47;
      }

      .cls-22 {
        stroke-miterlimit: 10;
      }

      .cls-10 {
        fill: url(#linear-gradient-4);
      }

      .cls-11 {
        fill: url(#linear-gradient-2);
      }

      .cls-12 {
        fill: url(#linear-gradient-3);
      }

      .cls-13 {
        fill: url(#linear-gradient-8);
      }

      .cls-14 {
        fill: url(#linear-gradient-9);
      }

      .cls-15 {
        fill: url(#linear-gradient-7);
      }

      .cls-16 {
        fill: url(#linear-gradient-5);
      }

      .cls-17 {
        fill: url(#linear-gradient-6);
      }

      .cls-19 {
        fill: #141414;
      }

      .cls-20 {
        fill: #fff;
      }
    </style>
    <linearGradient id="linear-gradient" x1="464.92" y1="5029.73" x2="307.66" y2="5029.73" gradientTransform="translate(-220.04 5218.75) scale(1 -1)" gradientUnits="userSpaceOnUse">
      <stop offset="0" stop-color="#fff23a"/>
      <stop offset=".04" stop-color="#fee62d"/>
      <stop offset=".12" stop-color="#fed41a"/>
      <stop offset=".2" stop-color="#fdc90f"/>
      <stop offset=".28" stop-color="#fdc60b"/>
      <stop offset=".67" stop-color="#f28f3f"/>
      <stop offset=".89" stop-color="#ed693c"/>
      <stop offset="1" stop-color="#e83e39"/>
    </linearGradient>
    <linearGradient id="linear-gradient-2" x1="378.15" y1="5060.62" x2="373" y2="5060.62" gradientTransform="translate(-220.04 5218.75) scale(1 -1)" gradientUnits="userSpaceOnUse">
      <stop offset="0" stop-color="#e1306c"/>
      <stop offset="1" stop-color="#405de6"/>
    </linearGradient>
    <linearGradient id="linear-gradient-3" x1="442.35" y1="5008.26" x2="380.25" y2="5008.26" xlink:href="#linear-gradient-2"/>
    <linearGradient id="linear-gradient-4" x1="432.8" y1="5003.47" x2="381.57" y2="5003.47" xlink:href="#linear-gradient"/>
    <linearGradient id="linear-gradient-5" x1="416.14" y1="5009.35" x2="367.29" y2="5009.35" xlink:href="#linear-gradient-2"/>
    <linearGradient id="linear-gradient-6" x1="414.95" y1="5038.42" x2="389.27" y2="5038.42" xlink:href="#linear-gradient-2"/>
    <linearGradient id="linear-gradient-7" x1="475.82" y1="5091.25" x2="389.65" y2="5091.25" xlink:href="#linear-gradient-2"/>
    <linearGradient id="linear-gradient-8" x1="400.75" y1="5006.64" x2="376.77" y2="5006.64" xlink:href="#linear-gradient"/>
    <linearGradient id="linear-gradient-9" x1="490.48" y1="5012.49" x2="414.94" y2="5012.49" xlink:href="#linear-gradient-2"/>
    <linearGradient id="linear-gradient-10" x1="452.04" y1="5012.11" x2="391.23" y2="5012.11" xlink:href="#linear-gradient"/>
    <linearGradient id="linear-gradient-11" x1="476.45" y1="5003.54" x2="420.29" y2="5003.54" xlink:href="#linear-gradient"/>
    <linearGradient id="linear-gradient-12" x1="504.12" y1="5013.87" x2="425.91" y2="5013.87" xlink:href="#linear-gradient"/>
    <linearGradient id="linear-gradient-13" x1="510.79" y1="4973.93" x2="492.74" y2="4973.93" gradientTransform="translate(-220.04 5218.75) scale(1 -1)" gradientUnits="userSpaceOnUse">
      <stop offset="0" stop-color="#e83e39"/>
      <stop offset=".11" stop-color="#ed693c"/>
      <stop offset=".33" stop-color="#f28f3f"/>
      <stop offset=".72" stop-color="#fdc60b"/>
      <stop offset=".73" stop-color="#fdc40d"/>
      <stop offset=".73" stop-color="#fcc20f"/>
      <stop offset=".87" stop-color="#fcc411"/>
      <stop offset=".92" stop-color="#fdcb17"/>
      <stop offset=".96" stop-color="#fdd621"/>
      <stop offset=".99" stop-color="#fee730"/>
      <stop offset="1" stop-color="#fff23a"/>
    </linearGradient>
    <linearGradient id="linear-gradient-14" x1="509.1" y1="4973.67" x2="470.38" y2="4973.67" xlink:href="#linear-gradient-2"/>
    <linearGradient id="linear-gradient-15" x1="539.97" y1="5059.46" x2="397.17" y2="5141.91" gradientTransform="translate(-220.04 5218.75) scale(1 -1)" gradientUnits="userSpaceOnUse">
      <stop offset="0" stop-color="#e1306c"/>
      <stop offset=".37" stop-color="#405de6"/>
    </linearGradient>
    <linearGradient id="linear-gradient-16" x1="597.41" y1="5039.53" x2="579.35" y2="5039.53" gradientTransform="translate(-220.04 5218.75) scale(1 -1)" gradientUnits="userSpaceOnUse">
      <stop offset="0" stop-color="#e1306c"/>
      <stop offset=".06" stop-color="#d53375"/>
      <stop offset=".61" stop-color="#6a51c6"/>
      <stop offset=".85" stop-color="#405de6"/>
    </linearGradient>
  </defs>
  <rect class="cls-20" x="247.35" y="176.65" width="58.56" height="47.02"/>
  <g>
    <path class="cls-1" d="m169.57,136.33s.03-.02.04-.02c4.19-1.9,8.9-2.9,13.23-3.62,8.6-1.43,16.94,3.55,25.47,2.17,1.76-.29,3.51-1.13,4.49-2.61.58-.87.87-1.9,1.49-2.73,2.59-3.44,9.19-2.56,12.82-2.11,6.47.81,13.13,4.06,17.77,8.78-1.01,1.43-1.96,2.9-2.8,4.46-.85,1.62-1.59,3.25-2.28,4.92-1.02,2.53-1.94,5.12-2.58,7.79-1.8-.41-12.48-2.75-25.95-2.61v-.05l-.02-.45-.44.02-5.41.26-.43.02.03.42v.03c-3.24.22-6.58.62-9.95,1.23l.02-.42-.52.13-7.91,1.93-.24.06-.06.24c-.01.06-.03.11-.04.17-5.94,1.81-11.77,4.45-17.07,8.22-3.23,2.28-6.27,4.98-9.02,8.17,0,0-8.07,8.11-12.96,16.03-4.47,7.21-6.29,14.27,3.01,14.9h.02c3.68,9.38,10.43,17.95,16.87,24.62.03.03.06.07.1.1,1.1,1.14,2.19,2.23,3.26,3.26,1.28,1.26,2.58,2.51,3.89,3.75,1.22,1.16,2.46,2.3,3.72,3.41,1.27,1.12,2.55,2.21,3.96,3.2l.65.45c-7.72.2-13.61,1.98-20.53,5.13-6.78,3.09-14.06,5.42-21.58,5.47-7.03.04-8.75-2.59-11.35-8.76-1.52-3.64-3.99-7.07-7.36-9.2-3.19-2.01-6.61-2.53-10.28-2.2-.1.01-28.47,2.5-23.41-19.32,3.85-9.77,10.84-18.28,21.91-18.37-6.22-6.81-5.35-13.81,1.5-19.87,3.83-3.39,8.54-6.44,13.21-8.5,6.43-2.83,11.52-1.73,18.05-.78,2.83.41,6.84.97,10.07.11,1.4-.37,2.66-1.01,3.6-2.04.29-.32.54-.68.73-1.08,1.28-2.64.6-6.13.82-8.96.33-4.27,1.64-8.15,4.73-11.23,1.92-1.92,4.23-3.38,6.73-4.52Z"/>
    <path class="cls-11" d="m158.11,152.08c-.22,2.83.46,6.32-.82,8.96-.19.4-.44.76-.73,1.08-.94,1.03-2.2,1.67-3.6,2.04,1.58-4.4,2.4-7.25,5.15-12.08Z"/>
    <path class="cls-12" d="m160.21,170.73c2.75-3.19,5.79-5.89,9.02-8.17l1.09,1.57c-.03.09-.04.19-.03.22v.11s.03.22.03.22l.15,1.79.3,3.58c.98,9.5,3.03,18.96,6.79,27.78,1.81,4.44,4.08,8.68,6.75,12.65,2.69,3.97,5.72,7.7,9.48,10.75,2.78,2.69,5.19,5.8,7.63,8.84,2.42,3.07,4.77,6.2,7.11,9.33,4.67,6.28,9.26,12.62,13.78,19.01-3.06-.79-6.21-1.76-9.42-2.91l.03-.04-4.47-4.43-2.23-2.22c-.73-.75-1.4-1.56-2.11-2.33l-4.23-4.66c-1.36-1.6-2.65-3.25-3.97-4.88l-1.98-2.44c-.65-.83-1.24-1.69-1.86-2.53l-3.7-5.09c-2.29-3.51-4.65-6.97-6.78-10.59-4.37-7.14-8.28-14.57-11.75-22.2-3.47-7.63-6.55-15.46-8.89-23.49l-.74.13Z"/>
    <path class="cls-18" d="m161.53,175.1c-.47-1.43-.9-2.87-1.31-4.31l.74-.13.57,4.44Z"/>
    <path class="cls-10" d="m161.53,175.1c2.09,6.6,4.63,13.05,7.45,19.38,3.4,7.7,7.39,15.14,11.76,22.33,2.11,3.65,4.59,7.06,6.93,10.56l3.79,5.06c.63.83,1.25,1.69,1.91,2.51l2.02,2.42c5.2,6.57,11.2,12.45,17.37,18.09-5.3-1.89-10.79-4.29-16.46-7.29l.03-.04c-5.41-4.84-9.99-10.55-14.07-16.53-4.06-6.01-7.61-12.36-10.53-19-.77-1.64-1.36-3.36-2.06-5.03l-1.01-2.52c-.31-.85-.58-1.72-.87-2.58l-1.7-5.16-1.39-5.25-.69-2.63c-.24-.88-.37-1.78-.55-2.66l-1.04-5.34-.26-1.33-.17-1.35-.34-2.69-.12-.95Z"/>
    <path class="cls-16" d="m167.15,226.28c-6.44-6.67-13.19-15.24-16.87-24.63-1.87-4.75-2.95-9.72-2.8-14.75l-.23-.14c4.89-7.92,12.96-16.03,12.96-16.03v.06s.72,5.36.72,5.36l.36,2.7.19,1.35.26,1.34,1.08,5.36c.19.88.33,1.79.57,2.66l.71,2.64,1.43,5.27,1.75,5.17c.29.86.56,1.73.89,2.58l1.02,2.53c.71,1.67,1.33,3.39,2.11,5.03,2.98,6.64,6.6,12.98,10.72,18.97,4.11,5.91,8.68,11.52,14.08,16.3-4.19-2.22-8.48-4.77-12.85-7.68l-.6-.93c-2.69-4.16-5.25-8.41-7.75-12.7-2.51-4.27-4.9-8.61-7.18-13.01-2.33-4.37-4.46-8.85-6.38-13.41-1-2.27-1.82-4.6-2.63-6.94l-1.05-3.56-.76-3.59-.02-.1c-.18.52-.15.89-.21,1.35-.04.43-.05.87-.08,1.3-.02.88-.03,1.75,0,2.62.04,1.75.22,3.49.44,5.22.46,3.47,1.24,6.88,2.2,10.24l.75,2.51.85,2.48c.54,1.67,1.24,3.27,1.86,4.9.67,1.62,1.41,3.2,2.11,4.8l2.33,4.7v.03Z"/>
    <path class="cls-17" d="m169.23,162.56c5.3-3.77,11.13-6.41,17.07-8.22-1.09,4.53-1.14,9.2-.82,13.78.35,4.65,1.12,9.25,2.09,13.79.99,4.55,2.2,9.04,3.57,13.48,1.14,3.68,2.38,7.32,3.77,10.92-2.69-2.88-5.06-6.06-7.27-9.34-2.63-3.95-5.01-8.08-7.21-12.29-2.2-4.22-4.23-8.53-6.1-12.9-.94-2.19-1.85-4.39-2.69-6.62l-.32-.83-.09-.23c-.05-.14-.23-.28-.39-.29-.16-.01-.3.04-.41.15-.05.04-.09.1-.11.17l-1.09-1.57Z"/>
    <path class="cls-15" d="m182.84,132.69c-4.33.72-9.04,1.72-13.23,3.62,7.3-5.01,19.53-11.97,36.06-15.47,22.47-4.75,40.97-.57,50.11,2.18-1.35,1.55-2.67,3.12-4,4.66-2.32,2.7-4.69,5.41-6.79,8.36-.04.05-.07.1-.11.15-4.64-4.72-11.3-7.97-17.77-8.78-3.63-.45-10.23-1.33-12.82,2.11-.62.83-.91,1.86-1.49,2.73-.98,1.48-2.73,2.32-4.49,2.61-8.53,1.38-16.87-3.6-25.47-2.17Z"/>
    <path class="cls-18" d="m171.04,164.31v.11s.03.22.03.22l.12,1.47c-.1-.22-.18-.45-.27-.68l-.31-.84-.07-.18c.02.07.13.16.22.16.08,0,.15-.02.21-.08.06-.04.08-.2.07-.18Z"/>
    <path class="cls-13" d="m178.62,236.23c-1.26-1.1-2.51-2.22-3.74-3.36-2.45-2.27-4.86-4.59-7.22-6.95l-2.34-4.61c-.71-1.59-1.47-3.16-2.15-4.76-.63-1.62-1.36-3.2-1.91-4.85l-.88-2.45-.78-2.5c-1-3.33-1.82-6.72-2.33-10.16-.49-3.42-.72-6.99-.39-10.36l.51,3.65.9,3.63c.72,2.38,1.48,4.75,2.41,7.07,1.79,4.65,3.89,9.16,6.14,13.6,4.2,8.18,8.86,16.09,13.87,23.79-.71-.56-1.4-1.15-2.09-1.74Z"/>
    <path class="cls-18" d="m181.37,238.98c-2.25-1.72-6.31-4.97-10.86-9.34-1.1-1.08-2.18-2.16-3.26-3.26-.04-.03-.07-.07-.1-.1v-.03s-2.34-4.7-2.34-4.7c-.7-1.6-1.44-3.18-2.11-4.8-.62-1.63-1.32-3.23-1.86-4.9l-.85-2.48-.75-2.51c-.96-3.36-1.74-6.77-2.2-10.24-.22-1.73-.4-3.47-.44-5.22-.04-.87-.03-1.74,0-2.62.03-.43.04-.87.08-1.3.06-.46.03-.83.21-1.35l.02.1h-.02c-.33,3.37-.1,6.94.39,10.36.51,3.44,1.33,6.83,2.33,10.16l.78,2.5.88,2.45c.55,1.65,1.28,3.23,1.91,4.85.68,1.6,1.44,3.17,2.15,4.76l2.34,4.61c2.36,2.36,4.77,4.68,7.22,6.95,1.23,1.14,2.48,2.26,3.74,3.36.69.59,1.38,1.18,2.09,1.74.22.34.44.67.66,1.01Z"/>
    <path class="cls-18" d="m181.37,238.98c-.22-.34-.44-.67-.66-1.01.6.47,1.2.93,1.82,1.35l-.3.31c-.24-.18-.53-.4-.86-.65Z"/>
    <path class="cls-18" d="m181.97,239.89c-.2-.3-.4-.61-.6-.91.33.25.62.47.86.65l-.26.26Z"/>
    <path class="cls-18" d="m180.71,237.97c-5.01-7.7-9.67-15.61-13.87-23.79-2.25-4.44-4.35-8.95-6.14-13.6-.93-2.32-1.69-4.69-2.41-7.07l-.9-3.63-.51-3.65h.02l.76,3.59,1.05,3.56c.81,2.34,1.63,4.67,2.63,6.94,1.92,4.56,4.05,9.04,6.38,13.41,2.28,4.4,4.67,8.74,7.18,13.01,2.5,4.29,5.06,8.54,7.75,12.7l.6.93s-.02,0-.03-.02c0,0-.35-.25-.99-.72l.3-.31c-.62-.42-1.22-.88-1.82-1.35Z"/>
    <path class="cls-18" d="m183.22,240.35s.02,0,.03.02l.53.82-1.05-.74-.65-.45c-1.41-.99-2.69-2.08-3.96-3.2-1.26-1.11-2.5-2.25-3.72-3.41-1.31-1.24-2.61-2.49-3.89-3.75,4.55,4.37,8.61,7.62,10.86,9.34.2.3.4.61.6.91l.26-.26c.64.47.99.72.99.72Z"/>
    <path class="cls-18" d="m186.84,154.67l.3-.3c-.02.08-.04.16-.05.24l-.25.06Z"/>
    <path class="cls-18" d="m182.26,231.59c4.08,5.98,8.66,11.69,14.07,16.53l-.03.04c-.06-.03-.13-.07-.2-.11-5.4-4.78-9.97-10.39-14.08-16.3-4.12-5.99-7.74-12.33-10.72-18.97-.78-1.64-1.4-3.36-2.11-5.03l-1.02-2.53c-.33-.85-.6-1.72-.89-2.58l-1.75-5.17-1.43-5.27-.71-2.64c-.24-.87-.38-1.78-.57-2.66l-1.08-5.36-.26-1.34-.19-1.35-.36-2.7-.71-5.36c.41,1.44.84,2.88,1.31,4.31l.12.95.34,2.69.17,1.35.26,1.33,1.04,5.34c.18.88.31,1.78.55,2.66l.69,2.63,1.39,5.25,1.7,5.16c.29.86.56,1.73.87,2.58l1.01,2.52c.7,1.67,1.29,3.39,2.06,5.03,2.92,6.64,6.47,12.99,10.53,19Z"/>
    <path class="cls-18" d="m194.24,152.82c0-.15.01-.3.02-.45.03,0,.05-.01.08-.01l.4.34-.5.12Z"/>
    <path class="cls-18" d="m194.26,152.37v-.08l.08.07s-.05.01-.08.01Z"/>
    <path class="cls-18" d="m186.64,153.87l7.91-1.93.52-.13-.02.42c-.24.04-.47.08-.71.13l-.08-.07v.08c-2.65.51-5.32,1.16-7.96,1.97.01-.06.03-.11.04-.17l.06-.24.24-.06Z"/>
    <path class="cls-18" d="m186.84,154.67l.25-.06c-1.03,4.37-1.06,8.94-.73,13.44.35,4.6,1.13,9.16,2.12,13.66,1.01,4.51,2.22,8.97,3.6,13.38,1.37,4.35,2.84,8.68,4.51,12.9l-.04.02c-.56-.55-1.11-1.12-1.64-1.7-1.39-3.6-2.63-7.24-3.77-10.92-1.37-4.44-2.58-8.93-3.57-13.48-.97-4.54-1.74-9.14-2.09-13.79-.32-4.58-.27-9.25.82-13.78,2.64-.81,5.31-1.46,7.96-1.97,0,.15-.02.3-.02.45l-7.15,1.79c.01-.08.03-.16.05-.24l-.3.3Z"/>
    <path class="cls-14" d="m196.43,181.55c-1.22-9.68-1.83-19.48-1.39-29.2v-.12c3.38-.61,6.72-1.01,9.96-1.23.39,5.16,1.02,10.3,2.11,15.36,1.08,5.06,2.37,10.08,4,14.99,1.61,4.92,3.42,9.77,5.44,14.53,2.04,4.74,4.23,9.41,6.71,13.95l3.62,8.05c1.4,2.59,2.72,5.23,4.2,7.77l2.35,3.74,1.17,1.87,1.31,1.78,2.61,3.56,2.86,3.36c3.91,4.4,8.25,8.44,13.15,11.71,2.47,1.61,5,3.13,7.7,4.3,2.63,1.18,5.36,2.17,8.21,2.67-4.13,1.11-8.83,2.05-14.03,2.58h0c-4.32-2.33-8.23-5.34-11.79-8.69-3.55-3.36-6.81-7.03-9.73-10.95-2.95-3.9-5.68-7.96-8.2-12.15-2.5-4.2-4.83-8.51-7.02-12.88-4.32-8.78-8.17-17.79-11.53-26.98-3.36-9.18-6.36-18.52-8.83-27.97l-.97.17v.07s1.88,13.84,1.88,13.84c.13,1.16.34,2.31.56,3.46l.64,3.45,1.28,6.9c.2,1.16.47,2.29.75,3.43l.82,3.41,1.64,6.83,2.04,6.72,1.02,3.35c.32,1.13.79,2.21,1.18,3.31l2.46,6.58c.92,2.15,1.9,4.27,2.85,6.41.89,2.17,2.1,4.19,3.17,6.27.57,1.02,1.07,2.08,1.69,3.08l1.87,2.97c.65.97,1.21,2,1.92,2.93l2.1,2.82,1.05,1.41,1.15,1.33c.77.88,1.52,1.77,2.31,2.64l2.5,2.46c.83.83,1.77,1.53,2.65,2.3,1.83,1.43,3.73,2.83,5.87,3.77-3.13-.17-6.38-.52-9.74-1.06-6.22-7.55-11.92-15.53-16.92-23.93-2.51-4.19-4.87-8.47-7.05-12.84-1.1-2.18-2.14-4.39-3.13-6.62-.49-1.12-1-2.24-1.4-3.37l-1.06-3.5c-1.42-4.67-2.55-9.43-3.6-14.19-.94-4.8-1.82-9.6-2.41-14.45Z"/>
    <path class="cls-18" d="m195.77,208.54c-.3-.74-.59-1.48-.86-2.23.53.58,1.08,1.15,1.64,1.7l-.78.53Z"/>
    <path class="cls-18" d="m196.1,248.05c.07.04.14.08.2.11l-.03.04c-.06-.05-.11-.1-.17-.15Z"/>
    <path class="cls-18" d="m196.66,208.17l.85,2.14-1.63-1.61c-.05-.05-.09-.09-.13-.14l.02-.02.78-.53.04-.02c.02.06.05.12.07.18Z"/>
    <path class="cls-18" d="m198.35,161.84l.97-.17.93,7.07c-.66-2.29-1.3-4.59-1.9-6.9Z"/>
    <path class="cls-18" d="m205.44,151.37l.38-.43h.02c.01.14.02.27.03.41l-.43.02Z"/>
    <path class="cls-18" d="m205.82,150.94l.02-.02v.02h-.02Z"/>
    <path class="cls-18" d="m205.87,151.35c0-.14-.02-.27-.03-.41,1.55-.09,3.07-.15,4.56-.18.01.13.02.27.03.4l-4.56.19Z"/>
    <path class="cls-18" d="m208.45,251.03l4.47,4.43-.03.04s-.09-.03-.13-.05c-6.17-5.64-12.17-11.52-17.37-18.09l-2.02-2.42c-.66-.82-1.28-1.68-1.91-2.51l-3.79-5.06c-2.34-3.5-4.82-6.91-6.93-10.56-4.37-7.19-8.36-14.63-11.76-22.33-2.82-6.33-5.36-12.78-7.45-19.38l-.57-4.44-.74.13v-.06s.73-.13.73-.13c2.34,8.03,5.42,15.86,8.89,23.49,3.47,7.63,7.38,15.06,11.75,22.2,2.13,3.62,4.49,7.08,6.78,10.59l3.7,5.09c.62.84,1.21,1.7,1.86,2.53l1.98,2.44c1.32,1.63,2.61,3.28,3.97,4.88l4.23,4.66c.71.77,1.38,1.58,2.11,2.33l2.23,2.22Z"/>
    <path class="cls-18" d="m208.75,239.25c4.6,6.33,9.11,12.72,13.56,19.16-4.52-6.39-9.11-12.73-13.78-19.01-2.34-3.13-4.69-6.26-7.11-9.33-2.44-3.04-4.85-6.15-7.63-8.84-3.76-3.05-6.79-6.78-9.48-10.75-2.67-3.97-4.94-8.21-6.75-12.65-3.76-8.82-5.81-18.28-6.79-27.78l-.3-3.58-.15-1.79-.02-.22v-.11s-.01-.13.02-.22c.02-.07.06-.13.11-.17.11-.11.25-.16.41-.15.16,0,.34.15.39.29l.09.23.32.83c.84,2.23,1.75,4.43,2.69,6.62,1.87,4.37,3.9,8.68,6.1,12.9,2.2,4.21,4.58,8.34,7.21,12.29,2.21,3.28,4.58,6.46,7.27,9.34.27.75.56,1.49.86,2.23l-.02.02c-3.38-3.36-6.25-7.16-8.86-11.09-2.64-4-5.02-8.16-7.21-12.4-2.2-4.25-4.21-8.59-6.08-12.98-.84-1.99-1.65-3.97-2.41-5.98l-.12-1.47-.02-.22v-.11s-.02.14-.08.18c-.06.06-.13.08-.21.08-.09,0-.2-.09-.22-.16l.07.18.31.84c.09.23.17.46.27.68l.02.31.29,3.55c.94,9.45,2.94,18.86,6.64,27.62,1.77,4.41,4.01,8.63,6.64,12.58,2.64,3.93,5.67,7.68,9.32,10.66h.02c1.45,1.38,2.73,2.87,3.97,4.39,1.25,1.51,2.45,3.06,3.64,4.61,2.39,3.1,4.71,6.25,7.02,9.42Z"/>
    <path class="cls-5" d="m208.75,239.25c-2.31-3.17-4.63-6.32-7.02-9.42-1.19-1.55-2.39-3.1-3.64-4.61-1.24-1.52-2.52-3.01-3.97-4.38h-.02c-3.65-2.99-6.68-6.74-9.32-10.67-2.63-3.95-4.87-8.17-6.64-12.58-3.7-8.76-5.7-18.17-6.64-27.62l-.29-3.55-.02-.31c.76,2.01,1.57,3.99,2.41,5.98,1.87,4.39,3.88,8.73,6.08,12.98,2.19,4.24,4.57,8.4,7.21,12.4,2.61,3.93,5.48,7.73,8.86,11.09.04.05.08.09.13.14l1.63,1.61-.85-2.14c-.02-.06-.05-.12-.07-.18-1.67-4.22-3.14-8.55-4.51-12.9-1.38-4.41-2.59-8.87-3.6-13.38-.99-4.5-1.77-9.06-2.12-13.66-.33-4.5-.3-9.07.73-13.44l7.15-1.79c-.38,9.65.28,19.27,1.52,28.82.61,4.86,1.52,9.68,2.48,14.48,1.07,4.78,2.22,9.55,3.67,14.23l1.08,3.52c.42,1.17.92,2.28,1.42,3.4,1.01,2.24,2.06,4.45,3.17,6.63,2.23,4.36,4.65,8.63,7.21,12.8,5.11,8.35,10.9,16.27,17.21,23.75-3.13-.5-6.37-1.17-9.69-2.04-4.45-6.44-8.96-12.83-13.56-19.16Z"/>
    <path class="cls-18" d="m210.4,150.76v-.05l.05.05h-.05Z"/>
    <path class="cls-18" d="m210.43,151.16c-.01-.13-.02-.27-.03-.4h.05l.4.38-.42.02Z"/>
    <path class="cls-18" d="m211.27,150.75c-.27,0-.55.01-.82.01l-.05-.05v.05c-1.49.03-3.01.09-4.56.18v-.02l-.02.02c-.27.02-.54.04-.82.06v-.03l-.03-.42.43-.02,5.41-.26.44-.02.02.45v.05Z"/>
    <path class="cls-18" d="m212.76,255.45s.09.04.13.05l-.03.04s-.07-.06-.1-.09Z"/>
    <path class="cls-18" d="m214.79,236.7c-2.56-4.17-4.98-8.44-7.21-12.8-1.11-2.18-2.16-4.39-3.17-6.63-.5-1.12-1-2.23-1.42-3.4l-1.08-3.52c-1.45-4.68-2.6-9.45-3.67-14.23-.96-4.8-1.87-9.62-2.48-14.48-1.24-9.55-1.9-19.17-1.52-28.82l.5-.12-.4-.34c.24-.05.47-.09.71-.13v.12c-.45,9.72.16,19.52,1.38,29.2.59,4.85,1.47,9.65,2.41,14.45,1.05,4.76,2.18,9.52,3.6,14.19l1.06,3.5c.4,1.13.91,2.25,1.4,3.37.99,2.23,2.03,4.44,3.13,6.62,2.18,4.37,4.54,8.65,7.05,12.84,5,8.4,10.7,16.38,16.92,23.93-6.31-7.48-12.1-15.4-17.21-23.75Z"/>
    <path class="cls-2" d="m224.46,244.55c-.7-.94-1.24-1.98-1.87-2.96l-1.82-2.98c-.61-.99-1.1-2.05-1.65-3.08-1.05-2.08-2.23-4.09-3.1-6.26-.92-2.14-1.88-4.26-2.78-6.41l-2.38-6.57c-.37-1.1-.84-2.18-1.14-3.3l-.99-3.36-1.99-6.7-1.61-6.8-.81-3.4c-.28-1.13-.55-2.27-.73-3.42l-1.26-6.88-.62-3.44c-.22-1.15-.43-2.29-.56-3.45l-.9-6.8c2.09,7.14,4.46,14.18,7.03,21.15,3.42,9.2,7.25,18.25,11.69,27.01,2.24,4.37,4.62,8.67,7.17,12.86,2.57,4.18,5.35,8.24,8.35,12.13,3,3.88,6.34,7.51,9.96,10.82,3.63,3.3,7.6,6.25,11.96,8.5h0c-4.52.46-9.42.61-14.67.3-2.13-.97-3.99-2.4-5.8-3.87-.86-.78-1.79-1.49-2.6-2.33l-2.45-2.5c-.77-.87-1.5-1.78-2.26-2.66l-1.12-1.34-1.02-1.42-2.03-2.84Z"/>
    <path class="cls-18" d="m233.22,255.44l-2.5-2.46c-.79-.87-1.54-1.76-2.31-2.64l-1.15-1.33-1.05-1.41-2.1-2.82c-.71-.93-1.27-1.96-1.92-2.93l-1.87-2.97c-.62-1-1.12-2.06-1.69-3.08-1.07-2.08-2.28-4.1-3.17-6.27-.95-2.14-1.93-4.26-2.85-6.41l-2.46-6.58c-.39-1.1-.86-2.18-1.18-3.31l-1.02-3.35-2.04-6.72-1.64-6.83-.82-3.41c-.28-1.14-.55-2.27-.75-3.43l-1.28-6.9-.64-3.45c-.22-1.15-.43-2.3-.56-3.46l-1.87-13.84c.6,2.31,1.24,4.61,1.9,6.9l.9,6.8c.13,1.16.34,2.3.56,3.45l.62,3.44,1.26,6.88c.18,1.15.45,2.29.73,3.42l.81,3.4,1.61,6.8,1.99,6.7.99,3.36c.3,1.12.77,2.2,1.14,3.3l2.38,6.57c.9,2.15,1.86,4.27,2.78,6.41.87,2.17,2.05,4.18,3.1,6.26.55,1.03,1.04,2.09,1.65,3.08l1.82,2.98c.63.98,1.17,2.02,1.87,2.96l2.03,2.84,1.02,1.42,1.12,1.34c.76.88,1.49,1.79,2.26,2.66l2.45,2.5c.81.84,1.74,1.55,2.6,2.33,1.81,1.47,3.67,2.9,5.8,3.87-2.14-.94-4.04-2.34-5.87-3.77-.88-.77-1.82-1.47-2.65-2.3Z"/>
    <path class="cls-18" d="m244.9,136.21s-5.46,9.02-7.41,17.22c0,0-.09-.02-.27-.07.64-2.67,1.56-5.26,2.58-7.79.69-1.67,1.43-3.3,2.28-4.92.84-1.56,1.79-3.03,2.8-4.46t.02.02Z"/>
    <path class="cls-18" d="m234.89,241.58c2.92,3.92,6.18,7.59,9.73,10.95,3.56,3.35,7.47,6.36,11.79,8.68-4.36-2.25-8.33-5.2-11.96-8.5-3.62-3.31-6.96-6.94-9.96-10.82-3-3.89-5.78-7.95-8.35-12.13-2.55-4.19-4.93-8.49-7.17-12.86-4.44-8.76-8.27-17.81-11.69-27.01-2.57-6.97-4.94-14.01-7.03-21.15l-.93-7.07-.97.17v-.07s.96-.17.96-.17c2.47,9.45,5.47,18.79,8.83,27.97,3.36,9.19,7.21,18.2,11.53,26.98,2.19,4.37,4.52,8.68,7.02,12.88,2.52,4.19,5.25,8.25,8.2,12.15Z"/>
    <path class="cls-18" d="m250.37,180.54c-1.06,1.41-2.16,2.72-2.91,4.26-.78,1.49-1.54,3.03-1.94,4.7-.43,1.66-.65,3.39-.67,5.12-.03,1.73.1,3.48.47,5.18l-.1.03c-.97-3.38-1.18-7-.48-10.51.31-1.75.9-3.5,1.86-5.03.25-.37.49-.75.76-1.11.3-.34.59-.68.9-1,.59-.68,1.35-1.18,2.05-1.72l.06.08Z"/>
    <path class="cls-18" d="m251.76,58.34c-.99.53-1.93,1.15-2.83,1.84,1.61-1.39,3.43-2.57,5.4-3.44-.22.11-.44.23-.66.36-.66.39-1.3.79-1.91,1.24Z"/>
    <path class="cls-18" d="m262.29,255.83c2.67,1.21,5.45,2.24,8.33,2.74v.02c-.06.01-.12.03-.18.05-2.85-.5-5.58-1.49-8.21-2.67-2.7-1.17-5.23-2.69-7.7-4.3-4.9-3.27-9.24-7.31-13.15-11.71l-2.86-3.36-2.61-3.56-1.31-1.78-1.17-1.87-2.35-3.74c-1.48-2.54-2.8-5.18-4.2-7.77l-3.62-8.05c-2.48-4.54-4.67-9.21-6.71-13.95-2.02-4.76-3.83-9.61-5.44-14.53-1.63-4.91-2.92-9.93-4-14.99-1.09-5.06-1.72-10.2-2.11-15.36.28-.02.55-.04.82-.06l-.38.43.43-.02c.35,4.99.95,9.96,1.98,14.86,1.06,5.03,2.31,10.04,3.91,14.93,1.58,4.91,3.36,9.75,5.35,14.5,2.01,4.74,4.19,9.43,6.63,13.95v.02s.02,0,.02,0l3.56,8.05c1.38,2.58,2.68,5.22,4.14,7.76l2.31,3.74,1.16,1.87,1.29,1.78,2.57,3.57,2.83,3.36c3.86,4.4,8.17,8.46,13.03,11.75,2.44,1.61,4.96,3.14,7.64,4.33Z"/>
    <path class="cls-18" d="m263.62,168.24c2.94-.8,5.97-1.24,9-1.34.04.04.07.09.11.13-1.45.16-2.88.42-4.3.73-1.55.33-3.09.73-4.58,1.25-1.48.53-2.9,1.19-4.31,1.85-1.41.67-2.74,1.44-4.07,2.36l-.08-.07c.96-1.32,2.28-2.35,3.69-3.18,1.42-.82,2.99-1.29,4.54-1.73Z"/>
    <path class="cls-18" d="m222.49,186.42s0,0,0-.02v.02Zm35.34,44.36c4.9,3.73,10.43,6.74,16.46,8.2-.04.04-.07.07-.09.1-2.94-.64-5.78-1.67-8.5-2.96-2.88-1.36-5.61-3.04-8.17-4.94-5.15-3.77-9.71-8.27-13.92-13.05-4.19-4.79-8.01-9.91-11.53-15.21-3.52-5.3-6.73-10.78-9.59-16.49-.76-1.39-1.54-2.76-2.28-4.15-.69-1.42-1.46-2.81-2.1-4.26-1.35-2.86-2.55-5.79-3.63-8.77-1.04-2.99-1.96-6.03-2.67-9.12-.67-2.95-1.22-5.91-1.38-8.97l.42-.02-.4-.38c.27,0,.55-.01.82-.01.16,3.05.73,6.16,1.44,9.17.73,3.05,1.65,6.05,2.7,9,1.07,2.94,2.26,5.85,3.6,8.68.64,1.43,1.39,2.81,2.08,4.21.74,1.39,1.51,2.75,2.27,4.13v.02s.01,0,.01,0c2.82,5.65,6.07,11.11,9.49,16.43,3.45,5.32,7.18,10.45,11.3,15.26,4.12,4.8,8.6,9.32,13.67,13.12Z"/>
    <path class="cls-18" d="m270.44,258.64c.06-.02.12-.04.18-.05v.08c-.07,0-.12-.02-.18-.03Z"/>
    <path class="cls-3" d="m272.7,246.77c-.99-.23-1.96-.47-2.94-.73-3.43-.92-6.79-2.11-10.06-3.49-1.62-.74-3.25-1.45-4.79-2.34-.79-.43-1.57-.84-2.33-1.35-.77-.49-1.51-.95-2.24-1.43.55,1.58,1.46,3.02,2.52,4.31.49.68,1.11,1.25,1.68,1.87.61.57,1.24,1.14,1.88,1.68,2.62,2.11,5.66,3.67,8.79,4.85,1.56.67,3.19,1.07,4.8,1.56,1.62.42,3.28.71,4.92,1.04,1.67.21,3.33.46,5,.63l4.15.26c-3.34,1.59-7.88,3.44-13.46,4.96v-.02c-2.88-.5-5.66-1.53-8.33-2.74-2.68-1.19-5.2-2.72-7.64-4.33-4.86-3.29-9.17-7.35-13.03-11.75l-2.83-3.36-2.57-3.57-1.29-1.78-1.16-1.87-2.31-3.74c-1.46-2.54-2.76-5.18-4.14-7.76l-3.56-8.05h-.01s0-.03,0-.03c-2.44-4.52-4.62-9.21-6.63-13.95-1.99-4.75-3.77-9.59-5.35-14.5-1.6-4.89-2.85-9.9-3.91-14.93-1.03-4.9-1.63-9.87-1.98-14.86l4.56-.19c.16,3.06.71,6.02,1.38,8.97.71,3.09,1.63,6.13,2.67,9.12,1.08,2.98,2.28,5.91,3.63,8.77.64,1.45,1.41,2.84,2.1,4.26.74,1.39,1.52,2.76,2.28,4.15,2.86,5.71,6.07,11.19,9.59,16.49,3.52,5.3,7.34,10.42,11.53,15.21,4.21,4.78,8.77,9.28,13.92,13.05,2.56,1.9,5.29,3.58,8.17,4.94,2.72,1.29,5.56,2.32,8.5,2.96-.6.7-1.15,1.44-1.62,2.26-.18.34-.36.7-.49,1.09-.12.4-.23.85-.1,1.39.13.55.68.99,1.14,1.07l-.43,1.88Z"/>
    <path class="cls-18" d="m272.62,166.9c.17-.01.34-.02.51-.02v.1c-.13.01-.27.03-.4.05-.04-.04-.07-.09-.11-.13Z"/>
    <path class="cls-18" d="m267.23,156.11c2.08,6.16,6.02,11.68,11.12,15.82l-.12.16c-1.99-1.49-3.84-3.19-5.5-5.06.13-.02.27-.04.4-.05v-.1c-.17,0-.34,0-.51.02-2.69-3.07-4.86-6.6-6.33-10.45-2.45-6.26-2.75-13.14-2.35-19.72.14-3.31.44-6.66,1.15-9.96.37-1.65.82-3.29,1.47-4.87.67-1.58,1.37-3.05,2.12-4.54,1.51-2.95,3.16-5.84,4.84-8.65,1.63-2.84,3.13-5.77,4.68-8.69l.18.08c-1.07,3.13-2.27,6.21-3.68,9.22-1.41,3-2.89,5.91-4.24,8.9-.68,1.47-1.39,2.98-1.98,4.45-.57,1.47-1.08,2.99-1.45,4.55-.79,3.12-1.21,6.35-1.48,9.61-.6,6.5-.5,13.12,1.68,19.28Z"/>
    <path class="cls-4" d="m280.17,248.28c-2.51-.41-5-.92-7.47-1.51l.43-1.88c.47.12.88.09,1.27.05,1.53-.21,2.89-.69,4.29-1.12l4.14-1.34c2.59-.82,5.19-1.59,7.82-2.27.02,3.08.07,6.15.1,9.21-3.53-.16-7.07-.57-10.58-1.14Z"/>
    <path class="cls-18" d="m274.72,239.19c-.17-.04-.35-.07-.52-.11.02-.03.05-.06.09-.1.15.04.3.08.45.11l-.02.1Z"/>
    <path class="cls-18" d="m278.38,94.24c-2.95,6.6-6.8,12.73-11.13,18.47-1.11,1.42-2.21,2.83-3.4,4.2-1.21,1.38-2.45,2.64-3.64,3.95-2.4,2.62-4.7,5.32-7.06,8.01-2.35,2.68-4.7,5.34-6.76,8.18-1.03,1.42-1.99,2.89-2.85,4.4-.84,1.52-1.62,3.12-2.33,4.72-1.4,3.23-2.62,6.56-3.27,10-.7,3.44-.9,6.98-.72,10.5.31,7.07,2.19,14.04,4.99,20.59-3.21-6.37-5.31-13.35-5.97-20.52-.29-3.59-.17-7.23.46-10.8.14-.87.32-1.73.52-2.58.18.05.27.07.27.07,1.95-8.2,7.41-17.21,7.41-17.22t-.02-.02c.04-.05.07-.1.11-.15,2.1-2.95,4.47-5.66,6.79-8.36,1.33-1.54,2.65-3.11,4-4.66.99-1.16,2-2.31,3.02-3.44,1.19-1.34,2.44-2.63,3.57-3.95,1.14-1.32,2.21-2.74,3.29-4.14,4.3-5.6,8.13-11.59,11.06-17.99.73-1.6,1.39-3.24,1.93-4.88.25-.78.44-1.68.66-2.51.18-.86.37-1.72.53-2.58.58-3.44.85-6.95.45-10.4-.45-3.41-1.52-6.8-3.56-9.59-2.01-2.79-4.79-5.12-7.9-6.58-3.15-1.39-6.83-1.53-10.28-1.04-2.37.4-4.67,1.23-6.79,2.42.61-.45,1.25-.85,1.91-1.24.22-.13.44-.25.66-.36,1.32-.59,2.7-1.04,4.12-1.34,1.77-.37,3.59-.46,5.39-.42,1.82.06,3.65.41,5.37,1.08.85.33,1.69.75,2.45,1.26.75.51,1.56.95,2.24,1.56l1.06.87c.35.29.66.64.99.96.67.63,1.23,1.36,1.8,2.08,2.26,2.93,3.5,6.53,4.07,10.14.52,3.64.32,7.32-.28,10.9-.15.89-.34,1.78-.52,2.67-.23.89-.4,1.73-.68,2.66-.56,1.75-1.23,3.43-1.96,5.08Z"/>
    <path class="cls-18" d="m274.3,231.59c-5.69-.51-11.14-3.07-15.26-6.96l-1.54-1.46-1.4-1.6c-.97-1.02-1.73-2.22-2.59-3.33-.8-1.16-1.5-2.39-2.25-3.57-.66-1.24-1.3-2.49-1.94-3.73l2.17,3.59c.81,1.14,1.56,2.32,2.42,3.42.89,1.07,1.67,2.23,2.67,3.2l1.42,1.52,1.55,1.39c2.11,1.77,4.37,3.42,6.91,4.49,2.51,1.12,5.19,1.82,7.93,2.05,4.43.44,8.89-.38,13.11-1.87-1.05.59-2.09,1.21-3.1,1.87-3.28.88-6.68,1.28-10.1.99Z"/>
    <path class="cls-8" d="m280.03,249.17c2.99.51,5.99.91,9.03,1.14l-4.21,2.4-4.84-.26c-1.65-.15-3.29-.38-4.94-.57-1.62-.32-3.25-.6-4.86-.98-1.59-.45-3.21-.81-4.75-1.42-1.58-.5-3.06-1.23-4.56-1.93l-2.16-1.22c-.69-.45-1.36-.93-2.05-1.39-.65-.51-1.29-1.04-1.92-1.57-.58-.59-1.21-1.13-1.73-1.78-1.09-1.24-2.06-2.62-2.7-4.16,1.54,1.04,2.84,2.14,4.44,3,1.51.96,3.12,1.74,4.72,2.55,3.26,1.49,6.62,2.76,10.06,3.78,3.43,1.02,6.93,1.8,10.47,2.41Z"/>
    <path class="cls-18" d="m284.72,252.79l.13-.08h.12s-.25.08-.25.08Z"/>
    <path class="cls-18" d="m290.04,250.37c-.88.56-2.6,1.6-5.08,2.83-.28.14-.58.28-.88.43l-4.15-.26c-1.67-.17-3.33-.42-5-.63-1.64-.33-3.3-.62-4.92-1.04-1.61-.49-3.24-.89-4.8-1.56-3.13-1.18-6.17-2.74-8.79-4.85-.64-.54-1.27-1.11-1.88-1.68-.57-.62-1.19-1.19-1.68-1.87-1.06-1.29-1.97-2.73-2.52-4.31.64,1.54,1.61,2.92,2.7,4.16.52.65,1.15,1.19,1.73,1.78.63.53,1.27,1.06,1.92,1.57.69.46,1.36.94,2.05,1.39l2.16,1.22c1.5.7,2.98,1.43,4.56,1.93,1.54.61,3.16.97,4.75,1.42,1.61.38,3.24.66,4.86.98,1.65.19,3.29.42,4.94.57l4.84.26-.13.08.25-.07h-.12s4.21-2.41,4.21-2.41c.33.02.65.04.98.06Z"/>
    <path class="cls-18" d="m287.65,292.31c-.37,1-.77,1.99-1.2,2.96l-.18-.08c.29-.75.55-1.51.8-2.28.19-.23.39-.43.58-.6Z"/>
    <path class="cls-18" d="m290.04,250.37c-.33-.02-.65-.04-.98-.06l1.43-.82.13.51c-.11.06-.3.19-.58.37Z"/>
    <path class="cls-18" d="m290.5,227.55c-.98.43-1.99.82-3,1.18,2.86-1.63,5.85-3.04,8.93-4.23-1.91,1.14-3.89,2.17-5.93,3.05Z"/>
    <path class="cls-19" d="m288.56,295.03s-.03.03,0-.09c.02-.1.13-.29.27-.47.29-.39.72-.78,1.19-1.14.94-.73,2.03-1.38,3.13-1.97,2.24-1.19,4.6-2.19,7-3.1,4.81-1.8,9.79-3.21,14.84-4.23,2.52-.52,5.08-.94,7.64-1.29,2.57-.36,5.14-.66,7.72-.87,2.59-.17,5.18-.28,7.77-.17,1.29.08,2.58.2,3.85.47.62.14,1.25.31,1.82.57.19.09.38.19.55.31.22.29.45.57.68.84.01.02.02.05.02.07.08.58-.3,1.14-.7,1.61-.41.47-.9.89-1.41,1.28-1.02.77-2.15,1.4-3.28,2.01-2.3,1.17-4.71,2.12-7.15,2.94-2.43.83-4.91,1.54-7.4,2.14-2.49.61-4.97,1.13-7.49,1.53-5.04.8-10.15,1.33-15.25,1.47-2.55.07-5.1.05-7.61-.19-1.25-.12-2.49-.29-3.66-.58-.58-.14-1.15-.32-1.63-.53-.49-.2-.89-.54-.9-.61Z"/>
    <path class="cls-18" d="m290.62,250l.1.41c-.23,0-.45-.02-.68-.04.28-.18.47-.31.58-.37Z"/>
    <path class="cls-18" d="m269.76,246.04c.98.26,1.95.5,2.94.73,2.47.59,4.96,1.1,7.47,1.51,3.51.57,7.05.98,10.58,1.14v.47l-.02.02s-.04.03-.11.09l-.13-.51-1.43.82c-3.04-.23-6.04-.63-9.03-1.14-3.54-.61-7.04-1.39-10.47-2.41-3.44-1.02-6.8-2.29-10.06-3.78-1.6-.81-3.21-1.59-4.72-2.55-1.6-.86-2.9-1.96-4.44-3,.73.48,1.47.94,2.24,1.43.76.51,1.54.92,2.33,1.35,1.54.89,3.17,1.6,4.79,2.34,3.27,1.38,6.63,2.57,10.06,3.49Z"/>
    <path class="cls-18" d="m290.65,240.21v-.04c.18-.04.35-.07.53-.1-.18.05-.35.09-.53.14Z"/>
    <path class="cls-18" d="m285.2,253.62l-.13.07h-.12s-.87-.06-.87-.06c.3-.15.6-.29.88-.43,2.48-1.23,4.2-2.27,5.08-2.83.23.02.45.03.68.04l-.1-.41c.07-.06.11-.09.11-.09l.02-.02c.01.17.01.34.01.51v.06l-5.56,3.16Z"/>
    <path class="cls-18" d="m290.75,249.89v-.47l.59.03-.59.44Z"/>
    <path class="cls-18" d="m292.46,249.5l-1.48.84-.22.12v-.06c0-.17,0-.34,0-.51l.59-.44,1.12.05Z"/>
    <path class="cls-18" d="m287.96,147.36c1.17,7.17,4.04,14.02,8.13,20.08l-.16.12c-2.22-2.93-4.11-6.11-5.63-9.47-1.54-3.35-2.68-6.91-3.37-10.54-.72-3.62-1.1-7.31-1.15-11.02-.07-1.84.1-3.75.31-5.57.22-1.83.5-3.64.77-5.46l1.7-10.86.91-5.42c.3-1.82.67-3.62.88-5.38.41-3.62.8-7.24.83-10.85.04-3.61-.21-7.22-.87-10.77-1.42-7.06-3.16-14.33-7.47-20.14-2.16-2.84-4.98-5.21-8.31-6.58-3.32-1.37-6.99-1.89-10.59-1.61-3.34.28-6.65,1.24-9.61,2.85-1.97.87-3.79,2.05-5.4,3.44l-.03-.02s.07-.08.1-.12c.6-.72,1.28-1.39,2.03-1.95s1.53-1.06,2.34-1.52c3.22-1.83,6.81-3.03,10.51-3.37,3.7-.34,7.48.18,10.96,1.53.88.33,1.69.79,2.53,1.2.43.21.8.5,1.2.74.39.26.8.49,1.15.8,1.51,1.12,2.81,2.49,4.01,3.93,2.3,2.96,3.99,6.34,5.25,9.82.63,1.75,1.17,3.52,1.66,5.3.47,1.78.96,3.56,1.29,5.4,1.43,7.32,1.16,14.86.17,22.14-.26,1.87-.64,3.65-.96,5.45l-.95,5.4-1.82,10.83-.83,5.41c-.26,1.82-.46,3.56-.44,5.38-.04,3.62.24,7.26.86,10.83Z"/>
    <path class="cls-18" d="m292.45,246.32c.1,1.05.18,2.11.24,3.16l-.23.02-1.12-.05-.59-.03c-.03-3.06-.08-6.13-.1-9.21.18-.05.35-.09.53-.14-.18.03-.35.06-.53.1-.02-1.64-.02-3.28-.02-4.93l.2-.02c.79,3.61,1.28,7.26,1.6,10.92-.2.05-.39.11-.58.17l.02.1c.19-.03.39-.06.58-.09Z"/>
    <path class="cls-18" d="m291.87,246.41l-.02-.1c.19-.06.38-.12.58-.17.01.06.02.12.02.18-.19.03-.39.06-.58.09Z"/>
    <path class="cls-18" d="m274.53,218.64c4.82-.15,9.29-2.68,12.48-6.4,3.19-3.73,5.05-8.75,4.99-13.8-.05-5.06-1.99-10.04-5.27-13.7-3.25-3.63-7.81-6.06-12.57-5.95-4.74.04-9.27,2.56-12.23,6.36-3,3.79-4.63,8.66-4.8,13.61-.11,4.93,1.37,10.04,4.56,13.9,3.14,3.88,8.03,6.22,12.84,5.98Zm13.23-34.72c3.07,4.28,4.36,9.46,4.44,14.51,0,5.06-1.19,10.26-4.2,14.58-1.48,2.14-3.44,4.03-5.78,5.32-2.32,1.31-5.01,2.01-7.68,1.98-2.67-.06-5.3-.83-7.57-2.13-2.27-1.3-4.21-3.09-5.78-5.12-3.16-4.06-4.9-9.12-5.15-14.29-.22-5.17,1.19-10.53,4.4-14.77,1.58-2.12,3.59-3.96,5.94-5.28,2.35-1.32,5.05-2.04,7.76-2.07,2.71,0,5.42.7,7.76,2,2.36,1.28,4.34,3.15,5.86,5.27Z"/>
    <path class="cls-18" d="m292.27,253.25l-.02-.1c.21-.07.41-.14.62-.21v.2c-.2.04-.4.07-.6.11Z"/>
    <path class="cls-18" d="m292.75,250.33c.05.87.09,1.74.12,2.61-.21.07-.41.14-.62.21l.02.1c.2-.04.4-.07.6-.11.11,4.14-.09,8.29-.35,12.42-.35,5.07-.8,10.14-1.75,15.13-.77,3.94-1.74,7.86-3.12,11.62-.19.17-.39.37-.58.6,1.31-4.02,2.12-8.2,2.71-12.38.74-4.97,1-10.01,1.14-15.04.15-5.01-.14-10.02-.16-15.03l.22-.12,1.48-.84.23-.02c.02.28.04.57.06.85Z"/>
    <path class="cls-18" d="m297.71,224c-.43.16-.86.32-1.28.5.48-.28.96-.58,1.43-.88,2.37-1.47,4.64-3.11,6.77-4.92-1.87,1.81-3.88,3.48-6.01,4.97-.3.11-.61.22-.91.33Z"/>
    <path class="cls-18" d="m298.62,223.67c-2.45,1.76-5.07,3.29-7.81,4.58-2.05.96-4.2,1.77-6.41,2.35,1.01-.66,2.05-1.28,3.1-1.87,1.01-.36,2.02-.75,3-1.18,2.04-.88,4.02-1.91,5.93-3.05.42-.18.85-.34,1.28-.5.3-.11.61-.22.91-.33Z"/>
    <path class="cls-20" d="m307.49,249.41c-1.74.17-3.46.54-5.18.85-1.7.37-3.4.82-5.09,1.26-1.46.45-2.91.91-4.35,1.42-.03-.87-.07-1.74-.12-2.61-.02-.28-.04-.57-.06-.85-.06-1.05-.14-2.11-.24-3.16,1.5-.22,2.99-.47,4.48-.74l5.05-.77c3.36-.45,6.72-1.04,10.11-1.31,3.39-.3,6.79-.45,10.19-.32,1.7.06,3.4.16,5.09.37,1.58.18,3.17.43,4.71.85.07.72.14,1.44.22,2.16.16,1.38.35,2.76.55,4.13-1.45-.48-2.95-.81-4.46-1.08-1.71-.33-3.45-.52-5.19-.68-3.49-.27-6.99-.23-10.48-.01l-2.62.19-2.61.3Z"/>
    <path class="cls-18" d="m284.1,47.05c3.59.73,7.08,1.94,10.32,3.68,12.95,7.41,22.18,20.12,26.6,34.13-.2-.62-.41-1.23-.63-1.84-2.11-5.74-4.94-11.29-8.73-16.11-1.87-2.43-3.95-4.69-6.12-6.81-2.17-2.14-4.45-4.18-6.91-5.98-2.46-1.79-5.09-3.44-7.99-4.47-1.42-.56-2.84-1.06-4.25-1.6l-1.07-.39c-.34-.14-.74-.25-.99-.41-.11-.08-.19-.14-.23-.2Z"/>
    <path class="cls-18" d="m320.37,150.78c.97-7.26,1.97-14.52,2.7-21.78.25-2.55.45-5.1.56-7.65-.08,2.26-.16,4.54-.27,6.8-.15,3.01-.38,6.03-.68,9.03-.61,6.02-1.47,12.01-2.58,17.97l.2.05c.45-1.82.88-3.65,1.26-5.49-.06.41-.13.81-.19,1.22-1.17,7.24-2.64,14.43-4.28,21.57l-.2-.04c1.39-7.2,2.5-14.43,3.48-21.68Z"/>
    <path class="cls-18" d="m318.82,83.57c1.97,5.67,3.27,11.56,4.1,17.5.82,5.95.96,11.98.78,18.01,0-.32,0-.65,0-.97.04-3.64-.18-7.23-.53-10.88-.67-7.24-1.75-14.45-4-21.33-1.11-3.43-2.42-6.81-4.09-10-.76-1.64-1.74-3.15-2.63-4.71l-1.5-2.24-.75-1.13c-.26-.36-.54-.71-.82-1.06l-1.66-2.13c-.58-.69-1.2-1.33-1.8-2-1.18-1.35-2.49-2.65-3.78-3.89-2.61-2.47-5.48-4.64-8.62-6.35-6.27-3.42-13.57-4.86-20.74-4.46-3.61.18-7.21.69-10.7,1.6-3.48.92-6.87,2.26-9.88,4.22-3,1.95-5.61,4.56-7.29,7.73-.82,1.57-1.51,3.31-1.7,5.01,0,.21,0,.41.04.57.05.15.07.15.14.16.22,0,.64-.2.93-.49.62-.57,1.12-1.32,1.58-2.1.92-1.52,1.84-3.07,2.99-4.47l.03.02c.9-.69,1.84-1.31,2.83-1.84-.84.61-1.61,1.3-2.25,2.12-1.15,1.38-2.05,2.96-3,4.54-.46.79-.97,1.6-1.7,2.27-.37.32-.78.67-1.48.69-.4-.01-.74-.41-.79-.7-.07-.29-.08-.55-.06-.8.18-1.95.85-3.69,1.67-5.38,1.69-3.35,4.37-6.14,7.45-8.24,3.09-2.12,6.57-3.59,10.13-4.63,3.57-1.04,7.26-1.63,10.96-1.87,3.55-.25,7.15-.07,10.67.57,0,.13.03.27.09.38.13.27.34.42.52.54.4.23.75.31,1.11.45l1.07.39c1.42.52,2.87,1.02,4.27,1.56,2.85.97,5.38,2.66,7.79,4.44,2.41,1.82,4.65,3.84,6.74,6.01,2.1,2.18,4.06,4.46,5.82,6.89,3.56,4.85,6.12,10.33,8.05,16Z"/>
    <path class="cls-18" d="m298.21,54.67c-2.41-1.78-4.94-3.47-7.79-4.44-1.4-.54-2.85-1.04-4.27-1.56l-1.07-.39c-.36-.14-.71-.22-1.11-.45-.18-.12-.39-.27-.52-.54-.06-.11-.09-.25-.09-.38.25.04.49.09.74.14.04.06.12.12.23.2.25.16.65.27.99.41l1.07.39c1.41.54,2.83,1.04,4.25,1.6,2.9,1.03,5.53,2.68,7.99,4.47,2.46,1.8,4.74,3.84,6.91,5.98,2.17,2.12,4.25,4.38,6.12,6.81,3.79,4.82,6.62,10.37,8.73,16.11.22.61.43,1.22.63,1.84.04.14.09.28.13.42,1.14,3.53,1.98,7.15,2.62,10.8.64,3.64,1.07,7.32,1.34,10.99.09,1.17.17,2.35.23,3.54.06,2.85,0,5.69-.11,8.52-.15,3.55-.37,7.1-.69,10.64-.79,6.69-1.91,13.31-2.98,19.94-.38,1.84-.81,3.67-1.26,5.49l-.2-.05c1.11-5.96,1.97-11.95,2.58-17.97.3-3,.53-6.02.68-9.03.11-2.26.19-4.54.27-6.8.02-.76.04-1.52.07-2.27.18-6.03.04-12.06-.78-18.01-.83-5.94-2.13-11.83-4.1-17.5-1.93-5.67-4.49-11.15-8.05-16-1.76-2.43-3.72-4.71-5.82-6.89-2.09-2.17-4.33-4.19-6.74-6.01Z"/>
    <path class="cls-18" d="m321.56,149.71c1.07-6.63,2.19-13.25,2.98-19.94-.22,2.52-.49,5.03-.82,7.54-.56,4.16-1.28,8.3-2.16,12.4Z"/>
    <path class="cls-18" d="m324.66,100.84c.41,3.25.62,6.51.68,9.77-.06-1.19-.14-2.37-.23-3.54-.27-3.67-.7-7.35-1.34-10.99-.64-3.65-1.48-7.27-2.62-10.8-.04-.14-.09-.28-.13-.42.76,2.29,1.41,4.61,1.98,6.96.72,2.97,1.3,5.98,1.66,9.02Z"/>
    <path class="cls-18" d="m325.23,119.13c.12-2.83.17-5.67.11-8.52.14,2.5.19,5.03.12,7.53-.1,3.69-.42,7.37-.84,11.02-.02.2-.05.41-.08.61.32-3.54.54-7.09.69-10.64Z"/>
    <path class="cls-18" d="m322.31,242.68c1.71.13,3.41.29,5.1.57,1.58.24,3.14.55,4.66,1.04,0,.04,0,.08,0,.11-1.54-.42-3.13-.67-4.71-.85-1.69-.21-3.39-.31-5.09-.37-3.4-.13-6.8.02-10.19.32-3.39.27-6.75.86-10.11,1.31l-5.05.77c-1.49.27-2.98.52-4.48.74,0-.06-.01-.12-.02-.18,1.44-.45,2.9-.85,4.36-1.24,1.67-.38,3.34-.74,5.02-1.08,3.38-.59,6.8-.96,10.22-1.12,3.42-.2,6.86-.25,10.28-.02Z"/>
    <path class="cls-18" d="m297.22,251.52c1.69-.44,3.39-.89,5.09-1.26,1.72-.31,3.44-.68,5.18-.85l2.61-.3,2.62-.19c3.49-.22,6.99-.26,10.48.01,1.74.16,3.48.35,5.19.68,1.51.27,3.01.6,4.46,1.08,0,.05,0,.1.02.15-1.48-.44-3-.73-4.53-.94-1.71-.25-3.44-.38-5.18-.47-3.46-.17-6.93-.03-10.38.29l-2.58.28-2.57.39c-.86.12-1.72.25-2.57.41l-2.56.44c-1.71.27-3.4.66-5.11.96-1.5.32-3,.65-4.52.94v-.2c1.44-.51,2.89-.97,4.35-1.42Z"/>
    <path class="cls-18" d="m332.08,244.4s-.01-.07-.01-.11c.12.02.23.06.35.1l-.03.09c-.1-.03-.21-.06-.31-.08Z"/>
    <path class="cls-18" d="m332.85,250.69c.21.07.41.14.61.21l-.03.1c-.18-.06-.37-.12-.56-.16,0-.05,0-.1-.02-.15Z"/>
    <path class="cls-18" d="m341.42,226.56c-1.75-1.11-3.47-2.26-5.16-3.47,3.56,1.39,6.91,3.4,9.69,6.05-1.59-.75-3.08-1.67-4.53-2.58Z"/>
    <path class="cls-19" d="m343.9,282.49c-.61-.27-1.24-.43-1.88-.57-1.28-.27-2.58-.42-3.88-.51-2.6-.2-5.21-.23-7.82-.17-5.21.08-10.42.51-15.6,1.31-5.16.89-10.25,2.18-15.23,3.87-2.48.86-4.94,1.82-7.34,3-1.19.6-2.37,1.25-3.51,2.08-.33.25-.66.5-.99.81,1.38-3.76,2.35-7.68,3.12-11.62.95-4.99,1.4-10.06,1.75-15.13.26-4.13.46-8.28.35-12.42,1.52-.29,3.02-.62,4.52-.94,1.71-.3,3.4-.69,5.11-.96l2.56-.44c.85-.16,1.71-.29,2.57-.41l2.57-.39,2.58-.28c3.45-.32,6.92-.46,10.38-.29,1.74.09,3.47.22,5.18.47,1.53.21,3.05.5,4.53.94.44,2.97.98,5.92,1.64,8.85.99,4.32,1.97,8.71,3.77,12.81,1.51,3.51,3.32,6.94,5.62,9.99Z"/>
    <path class="cls-18" d="m332.07,244.29c-.35-3.65-.6-7.31-.48-11l.2.02c.07,2.52.32,5.05.65,7.56.25,1.86.54,3.71.85,5.55.71,4.34,1.63,8.65,2.77,12.89.27,1.06.58,2.11.91,3.16.34,1.04.63,2.1,1.01,3.12l1.05,3.11c.39,1.02.75,2.05,1.11,3.08,1.4,3.86,2.98,7.64,4.79,11.39-.28-.31-.67-.52-1.02-.68h-.01c-2.3-3.05-4.11-6.48-5.62-9.99-1.8-4.1-2.78-8.49-3.77-12.81-.66-2.93-1.2-5.88-1.64-8.85.19.04.38.1.56.16l.03-.1c-.2-.07-.4-.14-.61-.21-.2-1.37-.39-2.75-.55-4.13-.08-.72-.15-1.44-.22-2.16.1.02.21.05.31.08l.03-.09c-.12-.04-.23-.08-.35-.1Z"/>
    <path class="cls-18" d="m345.02,283.89c-.23-.27-.46-.55-.68-.84.32.22.59.49.68.84Z"/>
    <path class="cls-18" d="m343.91,282.49c.35.16.74.37,1.02.68.11.24.22.47.34.71l-.17.11s-.06-.07-.08-.1c-.09-.35-.36-.62-.68-.84-.15-.18-.29-.37-.43-.56Z"/>
    <path class="cls-18" d="m325.1,293.94c2.49-.6,4.97-1.31,7.4-2.14,2.44-.82,4.85-1.77,7.15-2.94,1.13-.61,2.26-1.24,3.28-2.01.51-.39,1-.81,1.41-1.28.4-.47.78-1.03.7-1.61,0-.02,0-.05-.02-.07.02.03.05.07.08.1l.17-.11c-.12-.24-.23-.47-.34-.71.19.2.34.44.4.74.13.75-.3,1.39-.7,1.9-.42.52-.9.98-1.41,1.4-1.01.84-2.09,1.59-3.21,2.29-2.22,1.39-4.54,2.63-6.91,3.77-4.74,2.24-9.73,4.13-14.96,5.13-5.18,1.05-10.46,1.51-15.75,1.51-2.64-.02-5.29-.15-7.95-.5-1.33-.18-2.66-.41-4-.79-.68-.19-1.35-.41-2.04-.75-.67-.36-1.47-.73-2.04-1.84-.27-.58-.25-1.32-.07-1.82.18-.52.44-.88.69-1.2.03-.04.06-.07.09-.1-.25.77-.51,1.53-.8,2.28l.18.08c.43-.97.83-1.96,1.2-2.96.33-.31.66-.56.99-.81,1.14-.83,2.32-1.48,3.51-2.08,2.4-1.18,4.86-2.14,7.34-3,4.98-1.69,10.07-2.98,15.23-3.87,5.18-.8,10.39-1.23,15.6-1.31,2.61-.06,5.22-.03,7.82.17,1.3.09,2.6.24,3.88.51.64.14,1.27.3,1.88.57h.01c.14.19.28.38.43.56-.17-.12-.36-.22-.55-.31-.57-.26-1.2-.43-1.82-.57-1.27-.27-2.56-.39-3.85-.47-2.59-.11-5.18,0-7.77.17-2.58.21-5.15.51-7.72.87-2.56.35-5.12.77-7.64,1.29-5.05,1.02-10.03,2.43-14.84,4.23-2.4.91-4.76,1.91-7,3.1-1.1.59-2.19,1.24-3.13,1.97-.47.36-.9.75-1.19,1.14-.14.18-.25.37-.27.47-.03.12-.01.07,0,.09,0,.07.41.41.9.61.48.21,1.05.39,1.63.53,1.17.29,2.41.46,3.66.58,2.51.24,5.06.26,7.61.19,5.1-.14,10.21-.67,15.25-1.47,2.52-.4,5-.92,7.49-1.53Z"/>
    <path class="cls-19" d="m351.12,244.16c-.49.31-1.16.41-1.83.44-1.37.03-2.8-.25-4.2-.55-1.41-.31-2.81-.68-4.21-1.05-2.8-.76-5.61-1.5-8.44-2.13-.33-2.51-.58-5.04-.65-7.56l-.2-.02c-.12,3.69.13,7.35.48,11-1.52-.49-3.08-.8-4.66-1.04-1.69-.28-3.39-.44-5.1-.57-3.42-.23-6.86-.18-10.28.02-3.42.16-6.84.53-10.22,1.12-1.68.34-3.35.7-5.02,1.08-1.46.39-2.92.79-4.36,1.24-.32-3.66-.81-7.31-1.6-10.92l-.2.02c0,1.65,0,3.29.02,4.93-2.68.48-5.33,1.1-7.97,1.79l-4.21,1.12c-1.39.35-2.81.75-4.16.86-.33.02-.66.02-.9-.05-.25-.08-.31-.18-.36-.35-.09-.37.2-1.06.54-1.61.72-1.16,1.7-2.21,2.71-3.19,2.05-1.98,4.33-3.73,6.71-5.32,9.55-6.33,20.63-10.35,32.08-11.01,5.69-.42,11.47-.14,16.95,1.27,5.49,1.38,10.64,4.13,14.46,8.29,1.88,2.09,3.59,4.44,4.77,6.96.56,1.25,1.01,2.64.78,3.84-.12.58-.44,1.1-.93,1.39Z"/>
    <path class="cls-18" d="m349.63,135.38c.92-12.01-.51-24.09-3.55-35.71-.77-2.89-1.65-5.83-2.53-8.68-.94-2.85-1.94-5.68-3.12-8.43-2.3-5.53-5.24-10.79-8.75-15.63-1.81-2.37-3.7-4.69-5.84-6.77-1.01-1.1-2.18-2.03-3.27-3.04l-1.76-1.39-.88-.68-.92-.63-1.86-1.26-1.93-1.11c-1.28-.78-2.64-1.4-3.99-2.02-2.74-1.2-5.59-2.15-8.52-2.82-2.92-.69-5.9-1.1-8.9-1.28-1.51-.1-3.01-.11-4.52-.08-1.5.04-2.99.16-4.4.57-.37.09-.69.22-.8.38-.05.07-.06.15,0,.25-.25-.05-.49-.1-.74-.14,0-.18.06-.36.16-.5.35-.47.82-.55,1.17-.67,1.5-.44,3.05-.58,4.58-.64,1.52-.06,3.05-.09,4.58-.03,3.05.1,6.1.44,9.1,1.07,3,.6,5.95,1.48,8.81,2.63,1.41.6,2.84,1.19,4.17,1.96l2.03,1.12,1.7,1.1.24.15.96.64.93.69,1.84,1.39c1.15,1.02,2.38,1.97,3.45,3.08,2.26,2.1,4.21,4.49,6.11,6.91,3.67,4.93,6.74,10.29,9.15,15.93,1.26,2.8,2.27,5.7,3.22,8.61.88,2.95,1.73,5.82,2.52,8.79,1.5,5.92,2.68,11.95,3.17,18.05.52,6.1.54,12.24-.06,18.32-1.27,12.16-4.91,24.07-10.95,34.62l-.17-.09c2.72-5.41,4.91-11.08,6.46-16.9,1.6-5.82,2.61-11.77,3.1-17.76Z"/>
    <path class="cls-18" d="m353.16,243.02c-.19.83-.73,1.64-1.51,2.06-.77.43-1.6.5-2.36.49-1.54-.05-2.97-.41-4.38-.79-1.41-.39-2.8-.83-4.18-1.27-2.76-.89-5.51-1.8-8.29-2.64,2.83.63,5.64,1.37,8.44,2.13,1.4.37,2.8.74,4.21,1.05,1.4.3,2.83.58,4.2.55.67-.03,1.34-.13,1.83-.44.49-.29.81-.81.93-1.39.23-1.2-.22-2.59-.78-3.84-1.18-2.52-2.89-4.87-4.77-6.96-3.82-4.16-8.97-6.91-14.46-8.29-5.48-1.41-11.26-1.69-16.95-1.27-11.45.66-22.53,4.68-32.08,11.01-2.38,1.59-4.66,3.34-6.71,5.32-1.01.98-1.99,2.03-2.71,3.19-.34.55-.63,1.24-.54,1.61.05.17.11.27.36.35.24.07.57.07.9.05,1.35-.11,2.77-.51,4.16-.86l4.21-1.12c2.64-.69,5.29-1.31,7.97-1.79v.04c-2.63.68-5.23,1.45-7.82,2.27l-4.14,1.34c-1.4.43-2.76.91-4.29,1.12-.39.04-.8.07-1.27-.05-.46-.08-1.01-.52-1.14-1.07-.13-.54-.02-.99.1-1.39.13-.39.31-.75.49-1.09.47-.82,1.02-1.56,1.62-2.26.17.04.35.07.52.11l.02-.1c-.15-.03-.3-.07-.45-.11.34-.4.7-.79,1.07-1.18,2.06-2.13,4.37-3.97,6.76-5.67.75-.53,1.51-1.04,2.28-1.53,2.21-.58,4.36-1.39,6.41-2.35,2.74-1.29,5.36-2.82,7.81-4.58,5.26-1.82,10.79-2.85,16.33-3.26,5.86-.39,11.83-.1,17.58,1.45,1.26.34,2.51.75,3.73,1.23,1.69,1.21,3.41,2.36,5.16,3.47,1.45.91,2.94,1.83,4.53,2.58.6.56,1.17,1.16,1.71,1.79,1.92,2.27,3.63,4.7,4.81,7.49.54,1.39,1.05,2.92.69,4.6Z"/>
    <path class="cls-18" d="m359.31,177.35c-2.99,5.05-6.32,9.89-10.04,14.42,2.51-3.45,4.85-7.02,7-10.69.11-.15.21-.31.32-.47.63-.9,1.13-1.8,2.03-2.74.19-.2.42-.38.69-.52Z"/>
    <path class="cls-18" d="m368.91,156.88c-.12-.41-.24-.82-.35-1.23.14.34.28.68.43,1.01-.02.07-.05.15-.08.22Z"/>
    <path class="cls-18" d="m370.66,144.66c.68-3.38,1.16-6.83,1.53-10.27.72-6.86.45-13.8-.91-20.56-2.58-13.51-8.9-26.4-18.43-36.4-4.72-5.1-9.88-9.76-15.21-14.26-2.63-2.28-5.33-4.48-8.29-6.3-1.47-.91-3.02-1.69-4.62-2.37-1.6-.69-3.24-1.29-4.92-1.78,3.4.8,6.74,1.97,9.81,3.7,3.07,1.71,5.9,3.82,8.64,5.99,5.46,4.35,10.8,8.94,15.7,13.95,5.03,4.96,9.11,10.86,12.34,17.13,3.22,6.29,5.57,13.02,6.94,19.97,1.34,6.95,1.55,14.12.75,21.12-.79,6.97-2.1,13.96-4.46,20.6-.18.49-.35.99-.54,1.48-.15-.33-.29-.67-.43-1.01.11.41.23.82.35,1.23-2.21,6.03-4.81,11.9-7.89,17.53-.55.99-1.12,1.97-1.71,2.94-.27.14-.5.32-.69.52-.9.94-1.4,1.84-2.03,2.74-.11.16-.21.32-.32.47,4.89-8.34,8.85-17.2,11.8-26.38,1.04-3.3,1.91-6.65,2.59-10.04Z"/>
    <path class="cls-20" d="m374.72,199.63c-.46,4.05-2.27,7.87-4.75,10.98-1.34,1.66-2.9,3.12-4.66,4.21-1.75,1.09-3.77,1.65-5.79,1.53-2.03-.14-3.99-1.05-5.66-2.33-1.69-1.29-3.1-2.95-4.24-4.77-1.12-1.84-1.97-3.85-2.5-5.93-.56-2.07-.73-4.26-.46-6.34.15-1.04.44-2.07.88-2.97.39-.77,1.13-1.42,1.83-2.15.06-.06.12-.13.18-.19,1.54-1.57,2.98-3.23,4.35-4.93,1.39-1.7,2.72-3.45,3.98-5.24.63-.86,1.24-1.85,1.85-2.48.31-.31.58-.42,1-.48.41-.08.87-.03,1.33.07,1.87.41,3.62,1.73,5.15,3.13,1.53,1.44,2.89,3.08,4.05,4.87,2.3,3.57,3.81,7.86,3.53,12.21-.02.27-.04.54-.07.81Z"/>
    <path class="cls-7" d="m246.6,184.29c-.96,1.53-1.55,3.28-1.86,5.03-.7,3.51-.49,7.13.48,10.51l.1-.03c-.37-1.7-.5-3.45-.47-5.18.02-1.73.24-3.46.67-5.12.4-1.67,1.16-3.21,1.94-4.7.75-1.54,1.85-2.85,2.91-4.26l-.06-.08c-.7.54-1.46,1.04-2.05,1.72-.31.32-.6.66-.9,1-.27.36-.51.74-.76,1.11Zm31.6-84.27c-1.55,2.92-3.05,5.85-4.68,8.69-1.68,2.81-3.33,5.7-4.84,8.65-.75,1.49-1.45,2.96-2.12,4.54-.65,1.58-1.1,3.22-1.47,4.87-.71,3.3-1.01,6.65-1.15,9.96-.4,6.58-.1,13.46,2.35,19.72,1.47,3.85,3.64,7.38,6.33,10.45-3.03.1-6.06.54-9,1.34-1.55.44-3.12.91-4.54,1.73-1.41.83-2.73,1.86-3.69,3.18l.08.07c1.33-.92,2.66-1.69,4.07-2.36,1.41-.66,2.83-1.32,4.31-1.85,1.49-.52,3.03-.92,4.58-1.25,1.42-.31,2.85-.57,4.3-.73,1.66,1.87,3.51,3.57,5.5,5.06l.12-.16c-5.1-4.14-9.04-9.66-11.12-15.82-2.18-6.16-2.28-12.78-1.68-19.28.27-3.26.69-6.49,1.48-9.61.37-1.56.88-3.08,1.45-4.55.59-1.47,1.3-2.98,1.98-4.45,1.35-2.99,2.83-5.9,4.24-8.9,1.41-3.01,2.61-6.09,3.68-9.22l-.18-.08Zm95.55,111c-1.53,4.46-3.69,8.72-6.78,12.2-3.07,3.45-7.21,6.09-11.84,6.44-2.28.19-4.62-.11-6.84-.84-2.24-.69-4.31-1.86-6.42-3.02-4.18-2.34-8.27-4.88-12.06-7.84,1.76,1.64,3.66,3.14,5.62,4.54.28.2.55.4.83.59-1.22-.48-2.47-.89-3.73-1.23-5.75-1.55-11.72-1.84-17.58-1.45-5.54.41-11.07,1.44-16.33,3.26,2.13-1.49,4.14-3.16,6.01-4.97-2.13,1.81-4.4,3.45-6.77,4.92-.47.3-.95.6-1.43.88-3.08,1.19-6.07,2.6-8.93,4.23-4.22,1.49-8.68,2.31-13.11,1.87-2.74-.23-5.42-.93-7.93-2.05-2.54-1.07-4.8-2.72-6.91-4.49l-1.55-1.39-1.42-1.52c-1-.97-1.78-2.13-2.67-3.2-.86-1.1-1.61-2.28-2.42-3.42l-2.17-3.59c.64,1.24,1.28,2.49,1.94,3.73.75,1.18,1.45,2.41,2.25,3.57.86,1.11,1.62,2.31,2.59,3.33l1.4,1.6,1.54,1.46c4.12,3.89,9.57,6.45,15.26,6.96,3.42.29,6.82-.11,10.1-.99-.77.49-1.53,1-2.28,1.53-2.39,1.7-4.7,3.54-6.76,5.67-.37.39-.73.78-1.07,1.18-6.03-1.46-11.56-4.47-16.46-8.2-5.07-3.8-9.55-8.32-13.67-13.12-4.12-4.81-7.85-9.94-11.3-15.26-3.42-5.32-6.67-10.78-9.49-16.43h0s-.01-.03-.01-.03c-.76-1.38-1.53-2.74-2.27-4.13-.69-1.4-1.44-2.78-2.08-4.21-1.34-2.83-2.53-5.74-3.6-8.68-1.05-2.95-1.97-5.95-2.7-9-.71-3.01-1.28-6.12-1.44-9.17,13.47-.14,24.15,2.2,25.95,2.61-.2.85-.38,1.71-.52,2.58-.63,3.57-.75,7.21-.46,10.8.66,7.17,2.76,14.15,5.97,20.52-2.8-6.55-4.68-13.52-4.99-20.59-.18-3.52.02-7.06.72-10.5.65-3.44,1.87-6.77,3.27-10,.71-1.6,1.49-3.2,2.33-4.72.86-1.51,1.82-2.98,2.85-4.4,2.06-2.84,4.41-5.5,6.76-8.18,2.36-2.69,4.66-5.39,7.06-8.01,1.19-1.31,2.43-2.57,3.64-3.95,1.19-1.37,2.29-2.78,3.4-4.2,4.33-5.74,8.18-11.87,11.13-18.47.73-1.65,1.4-3.33,1.96-5.08.28-.93.45-1.77.68-2.66.18-.89.37-1.78.52-2.67.6-3.58.8-7.26.28-10.9-.57-3.61-1.81-7.21-4.07-10.14-.57-.72-1.13-1.45-1.8-2.08-.33-.32-.64-.67-.99-.96l-1.06-.87c-.68-.61-1.49-1.05-2.24-1.56-.76-.51-1.6-.93-2.45-1.26-1.72-.67-3.55-1.02-5.37-1.08-1.8-.04-3.62.05-5.39.42-1.42.3-2.8.75-4.12,1.34,2.96-1.61,6.27-2.57,9.61-2.85,3.6-.28,7.27.24,10.59,1.61,3.33,1.37,6.15,3.74,8.31,6.58,4.31,5.81,6.05,13.08,7.47,20.14.66,3.55.91,7.16.87,10.77-.03,3.61-.42,7.23-.83,10.85-.21,1.76-.58,3.56-.88,5.38l-.91,5.42-1.7,10.86c-.27,1.82-.55,3.63-.77,5.46-.21,1.82-.38,3.73-.31,5.57.05,3.71.43,7.4,1.15,11.02.69,3.63,1.83,7.19,3.37,10.54,1.52,3.36,3.41,6.54,5.63,9.47l.16-.12c-4.09-6.06-6.96-12.91-8.13-20.08-.62-3.57-.9-7.21-.86-10.83-.02-1.82.18-3.56.44-5.38l.83-5.41,1.82-10.83.95-5.4c.32-1.8.7-3.58.96-5.45.99-7.28,1.26-14.82-.17-22.14-.33-1.84-.82-3.62-1.29-5.4-.49-1.78-1.03-3.55-1.66-5.3-1.26-3.48-2.95-6.86-5.25-9.82-1.2-1.44-2.5-2.81-4.01-3.93-.35-.31-.76-.54-1.15-.8-.4-.24-.77-.53-1.2-.74-.84-.41-1.65-.87-2.53-1.2-3.48-1.35-7.26-1.87-10.96-1.53-3.7.34-7.29,1.54-10.51,3.37-.81.46-1.59.96-2.34,1.52-.75.56-1.43,1.23-2.03,1.95-.03.04-.07.08-.1.12-1.15,1.4-2.07,2.95-2.99,4.47-.46.78-.96,1.53-1.58,2.1-.29.29-.71.49-.93.49-.07,0-.09,0-.14-.16-.04-.16-.05-.36-.04-.57.19-1.7.88-3.44,1.7-5.01,1.68-3.17,4.29-5.78,7.29-7.73,3.01-1.96,6.4-3.3,9.88-4.22,3.49-.91,7.09-1.42,10.7-1.6,7.17-.4,14.47,1.04,20.74,4.46,3.14,1.71,6.01,3.88,8.62,6.35,1.29,1.24,2.6,2.54,3.78,3.89.6.67,1.22,1.31,1.8,2l1.66,2.13c.28.35.56.7.82,1.06l.75,1.13,1.5,2.24c.89,1.56,1.87,3.07,2.63,4.71,1.67,3.19,2.98,6.57,4.09,10,2.25,6.88,3.33,14.09,4,21.33.35,3.65.57,7.24.53,10.88,0,.32,0,.65,0,.97-.03.75-.05,1.51-.07,2.27-.11,2.55-.31,5.1-.56,7.65-.73,7.26-1.73,14.52-2.7,21.78-.98,7.25-2.09,14.48-3.48,21.68l.2.04c1.64-7.14,3.11-14.33,4.28-21.57.06-.41.13-.81.19-1.22.88-4.1,1.6-8.24,2.16-12.4.33-2.51.6-5.02.82-7.54.03-.2.06-.41.08-.61.42-3.65.74-7.33.84-11.02.07-2.5.02-5.03-.12-7.53-.06-3.26-.27-6.52-.68-9.77-.36-3.04-.94-6.05-1.66-9.02-.57-2.35-1.22-4.67-1.98-6.96-4.42-14.01-13.65-26.72-26.6-34.13-3.24-1.74-6.73-2.95-10.32-3.68-.07-.1-.06-.18,0-.25.11-.16.43-.29.8-.38,1.41-.41,2.9-.53,4.4-.57,1.51-.03,3.01-.02,4.52.08,3,.18,5.98.59,8.9,1.28,2.93.67,5.78,1.62,8.52,2.82,1.35.62,2.71,1.24,3.99,2.02l1.93,1.11,1.86,1.26.92.63.88.68,1.76,1.39c1.09,1.01,2.26,1.94,3.27,3.04,2.14,2.08,4.03,4.4,5.84,6.77,3.51,4.84,6.45,10.1,8.75,15.63,1.18,2.75,2.18,5.58,3.12,8.43.88,2.85,1.76,5.79,2.53,8.68,3.04,11.62,4.47,23.7,3.55,35.71-.49,5.99-1.5,11.94-3.1,17.76-1.55,5.82-3.74,11.49-6.46,16.9l.17.09c6.04-10.55,9.68-22.46,10.95-34.62.6-6.08.58-12.22.06-18.32-.49-6.1-1.67-12.13-3.17-18.05-.79-2.97-1.64-5.84-2.52-8.79-.95-2.91-1.96-5.81-3.22-8.61-2.41-5.64-5.48-11-9.15-15.93-1.9-2.42-3.85-4.81-6.11-6.91-1.07-1.11-2.3-2.06-3.45-3.08l-1.84-1.39-.93-.69-.96-.64-.24-.15.15-.23c1.68.49,3.32,1.09,4.92,1.78,1.6.68,3.15,1.46,4.62,2.37,2.96,1.82,5.66,4.02,8.29,6.3,5.33,4.5,10.49,9.16,15.21,14.26,9.53,10,15.85,22.89,18.43,36.4,1.36,6.76,1.63,13.7.91,20.56-.37,3.44-.85,6.89-1.53,10.27-.68,3.39-1.55,6.74-2.59,10.04-2.95,9.18-6.91,18.04-11.8,26.38-1.1,1.64-2.26,3.23-3.47,4.78-1.33,1.71-2.68,3.39-4.12,5l-1.09,1.22c-.37.42-.74.94-.97,1.49-.45,1.08-.68,2.19-.77,3.31-.2,2.25.18,4.46.76,6.58.59,2.12,1.5,4.13,2.59,6.04,1.12,1.88,2.45,3.68,4.13,5.16,1.67,1.47,3.74,2.64,6.06,2.93,2.33.24,4.72-.39,6.62-1.65,1.93-1.23,3.48-2.93,4.72-4.77,2-3.01,3.3-6.4,3.91-9.9l1.52.28c-.58,3.22-1.36,6.39-2.41,9.47Zm-113.31-27.02c-3.21,4.24-4.62,9.6-4.4,14.77.25,5.17,1.99,10.23,5.15,14.29,1.57,2.03,3.51,3.82,5.78,5.12,2.27,1.3,4.9,2.07,7.57,2.13,2.67.03,5.36-.67,7.68-1.98,2.34-1.29,4.3-3.18,5.78-5.32,3.01-4.32,4.19-9.52,4.2-14.58-.08-5.05-1.37-10.23-4.44-14.51-1.52-2.12-3.5-3.99-5.86-5.27-2.34-1.3-5.05-1.99-7.76-2-2.71.03-5.41.75-7.76,2.07-2.35,1.32-4.36,3.16-5.94,5.28Z"/>
    <path class="cls-18" d="m349.62,209.25c1.14,1.82,2.55,3.48,4.24,4.77,1.67,1.28,3.63,2.19,5.66,2.33,2.02.12,4.04-.44,5.79-1.53,1.76-1.09,3.32-2.55,4.66-4.21,2.48-3.11,4.29-6.93,4.75-10.98h.14c-.05.55-.13,1.1-.22,1.64-.61,3.5-1.91,6.89-3.91,9.9-1.24,1.84-2.79,3.54-4.72,4.77-1.9,1.26-4.29,1.89-6.62,1.65-2.32-.29-4.39-1.46-6.06-2.93-1.68-1.48-3.01-3.28-4.13-5.16-1.09-1.91-2-3.92-2.59-6.04-.58-2.12-.96-4.33-.76-6.58.09-1.12.32-2.23.77-3.31.23-.55.6-1.07.97-1.49l1.09-1.22c1.44-1.61,2.79-3.29,4.12-5,1.21-1.55,2.37-3.14,3.47-4.78-2.15,3.67-4.49,7.24-7,10.69l.1.09c-.7.73-1.44,1.38-1.83,2.15-.44.9-.73,1.93-.88,2.97-.27,2.08-.1,4.27.46,6.34.53,2.08,1.38,4.09,2.5,5.93Z"/>
    <path class="cls-18" d="m349.27,191.77c3.72-4.53,7.05-9.37,10.04-14.42.37-.21.8-.36,1.18-.4.67-.11,1.32-.05,1.91.1,1.21.28,2.25.84,3.21,1.47.95.64,1.82,1.38,2.61,2.18,1.58,1.6,2.87,3.45,3.89,5.42,2.05,3.93,3.1,8.35,2.83,12.71-.02.27-.05.54-.08.81h-.14c.03-.28.05-.55.07-.82.28-4.35-1.23-8.64-3.53-12.21-1.16-1.79-2.52-3.43-4.05-4.87-1.53-1.4-3.28-2.72-5.15-3.13-.46-.1-.92-.15-1.33-.07-.42.06-.69.17-1,.48-.61.63-1.22,1.62-1.85,2.48-1.26,1.79-2.59,3.54-3.98,5.24-1.37,1.7-2.81,3.36-4.35,4.93-.06.06-.12.13-.18.19l-.1-.09Z"/>
    <path class="cls-6" d="m376.84,197.17c-.19,1.47-.41,2.93-.68,4.38l-1.52-.28c.09-.54.17-1.09.22-1.63.03-.27.06-.54.08-.81.27-4.36-.78-8.78-2.83-12.71-1.02-1.97-2.31-3.82-3.89-5.42-.79-.8-1.66-1.54-2.61-2.18-.96-.63-2-1.19-3.21-1.47-.59-.15-1.24-.21-1.91-.1-.38.04-.81.19-1.18.4.59-.97,1.16-1.95,1.71-2.94,3.08-5.63,5.68-11.5,7.89-17.53,1.25,4.22,2.83,8.33,4.31,12.44.81,2.26,1.62,4.52,2.28,6.78.65,2.27,1.14,4.59,1.45,6.93.65,4.69.48,9.41-.11,14.14Z"/>
    <path class="cls-18" d="m355.13,229.66c4.63-.35,8.77-2.99,11.84-6.44,3.09-3.48,5.25-7.74,6.78-12.2,1.05-3.08,1.83-6.25,2.41-9.47.27-1.45.49-2.91.68-4.38.59-4.73.76-9.45.11-14.14-.31-2.34-.8-4.66-1.45-6.93-.66-2.26-1.47-4.52-2.28-6.78-1.48-4.11-3.06-8.22-4.31-12.44.03-.07.06-.15.08-.22,1.75,4.09,3.69,8.08,5.47,12.17.94,2.23,1.88,4.45,2.62,6.79.74,2.34,1.28,4.73,1.65,7.16.36,2.42.55,4.87.55,7.32-.01,2.47-.23,4.89-.5,7.3-.56,4.84-1.56,9.64-3.18,14.27-1.6,4.61-3.91,9.1-7.31,12.76-1.68,1.82-3.63,3.44-5.85,4.62-2.21,1.19-4.69,1.94-7.2,2.06-2.51.15-5.03-.28-7.34-1.15-.67-.24-1.32-.52-1.95-.82-2.78-2.65-6.13-4.66-9.69-6.05-.28-.19-.55-.39-.83-.59-1.96-1.4-3.86-2.9-5.62-4.54,3.79,2.96,7.88,5.5,12.06,7.84,2.11,1.16,4.18,2.33,6.42,3.02,2.22.73,4.56,1.03,6.84.84Z"/>
    <path class="cls-18" d="m362.25,178.4c-3.91-5.41-6.53-6.46-12.23-3.95-3.77,1.67-7.31,4.04-10.69,6.5-4.48,3.25-9.15,5.81-14.56,3.61-3.36-1.37-5.97-1.19-9.23.38-4.34,2.09-8.82,1.17-13.08-1.33-4.17-2.44-8.4-4.99-12.89-6.54-5.95-2.06-8.24-.79-11.68,4.58,1.02-15.26,23.21-30.44,41.58-16.19,8.17-7.44,17.43-9.02,27.51-5.05,7.82,3.08,13.45,9.78,15.27,17.99Z"/>
    <path class="cls-18" d="m284.23,253.25c-.35.15-.55.44-.46.66.09.22.45.28.79.14.35-.15.55-.44.46-.66-.09-.22-.45-.28-.79-.14Z"/>
    <path class="cls-18" d="m284.76,253.04c-.35.14-.55.44-.46.66.09.22.45.28.79.13.35-.15.55-.44.46-.66-.09-.22-.45-.28-.79-.13Z"/>
    <path class="cls-9" d="m274.45,180.37c-9.05,0-16.38,8.03-16.38,17.94s7.33,17.94,16.38,17.94,16.38-8.03,16.38-17.94-7.33-17.94-16.38-17.94Z"/>
    <path class="cls-18" d="m253.66,198.4c.09.7.19,1.43.64,1.98.42.51,1.08.76,1.54,1.24.63.66.78,1.64.96,2.54,1.15,5.68,5.2,10.69,10.51,13,4.58,1.99,9.99,1.93,14.56-.08.92-.4,2.03-.81,2.83-1.4.96-.71,1.8-1.7,2.56-2.61,1.58-1.86,2.89-3.94,3.87-6.17,1.15-2.62,1.82-5.46,1.91-8.32.21-6.76-3.02-13.64-8.63-17.43s-13.47-4.14-19.16-.48c-1.87,1.2-3.45,2.75-4.8,4.5-2.05,2.66-3.59,5.8-4.87,8.93,0,.67,0,1.45,0,0-.24-.22-.59-.61-.86-1.17-.36-.75-.37-1.68-.37-1.7-.02-1.04-.25-8.14-.54-17.89-.48-8-.63-14.49-.68-18.83-.08-6.62-.15-13.25-.27-19.87-.06-3.31-.12-6.62-.2-9.93-.04-1.7-.08-3.39-.13-5.09-.02-.75.11-1.71-.07-2.43-.23-.9-.26-.8-1.24-1.12-.08-.03-.17-.05-.24-.01-.06.04-.09.12-.1.2-.15.71-.22,1.39-.22,2.12-.1,16-.08,31.98.48,47.97.02,10.66,1.21,21.49,2.52,32.05Zm20.91-18.03c8.95.11,16.32,8.33,16.25,18.13-.07,9.86-7.47,17.82-16.51,17.75-9.02-.06-16.28-8.13-16.24-18.03.05-9.79,7.6-17.96,16.5-17.85Zm-20.47,11.55s0-.03,0,0h0Z"/>
    <path class="cls-20" d="m261.5,194.01c-1.92,15.29,12.38,23.14,22.1,15.83-2.3,3.96-10.45,5.58-15.91,2.18-6.13-3.81-8.59-12.43-6.19-18.01Z"/>
    <path class="cls-22" d="m169.57,136.33c-2.5,1.14-4.81,2.6-6.73,4.52-3.09,3.08-4.4,6.96-4.73,11.23-.22,2.83.46,6.32-.82,8.96-.19.4-.44.76-.73,1.08-.94,1.03-2.2,1.67-3.6,2.04-3.23.86-7.24.3-10.07-.11-6.53-.95-11.62-2.05-18.05.78-4.67,2.06-9.38,5.11-13.21,8.5-6.85,6.06-7.72,13.06-1.5,19.87-11.07.09-18.06,8.6-21.91,18.37-5.06,21.82,23.31,19.33,23.41,19.32,3.67-.33,7.09.19,10.28,2.2,3.37,2.13,5.84,5.56,7.36,9.2,2.6,6.17,4.32,8.8,11.35,8.76,7.52-.05,14.8-2.38,21.58-5.47,6.92-3.15,12.81-4.93,20.53-5.13"/>
    <path class="cls-22" d="m244.88,136.19c-4.64-4.72-11.3-7.97-17.77-8.78-3.63-.45-10.23-1.33-12.82,2.11-.62.83-.91,1.86-1.49,2.73-.98,1.48-2.73,2.32-4.49,2.61-8.53,1.38-16.87-3.6-25.47-2.17-4.33.72-9.04,1.72-13.23,3.62"/>
    <path class="cls-22" d="m150.26,201.66c-9.3-.63-7.48-7.69-3.01-14.9,4.89-7.92,12.96-16.03,12.96-16.03,2.75-3.19,5.79-5.89,9.02-8.17,5.3-3.77,11.13-6.41,17.07-8.22,2.64-.81,5.31-1.46,7.96-1.97.03,0,.05-.01.08-.01.24-.05.47-.09.71-.13,3.37-.61,6.71-1.01,9.95-1.23.28-.02.55-.04.82-.06h.02c1.55-.09,3.07-.15,4.56-.18h.05c.27,0,.55-.01.82-.01,13.47-.14,24.15,2.2,25.95,2.61"/>
    <path class="cls-22" d="m284.08,253.63c-3.34,1.59-7.88,3.44-13.46,4.96-.06.01-.12.03-.18.05-4.13,1.11-8.83,2.05-14.03,2.58-4.52.45-9.42.6-14.67.29-3.13-.17-6.38-.52-9.74-1.06-3.13-.5-6.37-1.17-9.69-2.04-3.06-.79-6.21-1.76-9.42-2.91-.04,0-.09-.03-.13-.05-5.3-1.89-10.79-4.29-16.46-7.29-.06-.03-.13-.07-.2-.11-4.19-2.22-8.48-4.77-12.85-7.68,0,0-.02,0-.03-.02,0,0-.35-.25-.99-.72-.24-.18-.53-.4-.86-.65-2.25-1.72-6.31-4.97-10.86-9.34-1.07-1.03-2.16-2.12-3.26-3.26-.04-.03-.07-.07-.1-.1-6.44-6.67-13.19-15.24-16.87-24.63-1.87-4.75-2.95-9.72-2.8-14.75"/>
    <path class="cls-22" d="m152.96,164.16c1.58-4.4,2.4-7.25,5.15-12.08"/>
    <path class="cls-22" d="m169.21,136.58c.12-.08.24-.16.36-.25.01-.01.03-.02.04-.02,7.3-5.01,19.53-11.97,36.06-15.47,22.47-4.75,40.97-.57,50.11,2.18"/>
    <line class="cls-21" x1="263.93" y1="207.31" x2="281.93" y2="190.31"/>
    <line class="cls-21" x1="264.24" y1="191.26" x2="284.24" y2="207.26"/>
    <line class="cls-21" x1="351.93" y1="207.31" x2="369.93" y2="190.31"/>
    <line class="cls-21" x1="352.24" y1="191.26" x2="372.24" y2="207.26"/>
  </g>
</svg>