<?xml version="1.0" encoding="UTF-8" standalone="no"?>
<!DOCTYPE svg PUBLIC "-//W3C//DTD SVG 1.1//EN" "http://www.w3.org/Graphics/SVG/1.1/DTD/svg11.dtd">
<svg xmlns="http://www.w3.org/2000/svg" version="1.1" viewBox="0.00 0.00 3957.00 529.00">
<g stroke-width="2.00" fill="none" stroke-linecap="butt">
<path stroke="#12b4f4" vector-effect="non-scaling-stroke" d="
  M 790.51 74.76
  L 792.40 75.47
  Q 792.85 75.64 792.73 76.11
  Q 791.94 79.09 790.09 81.48
  Q 789.34 82.44 788.74 83.86
  Q 788.20 85.17 787.29 86.27
  Q 786.42 87.31 786.01 88.20
  Q 785.51 89.27 784.95 90.31
  Q 784.88 90.44 783.53 93.31
  Q 782.81 94.84 781.70 96.03
  Q 781.37 96.38 781.20 96.82
  Q 780.24 99.32 778.52 101.22
  Q 778.19 101.58 778.03 102.03
  Q 777.03 104.83 775.30 107.18
  Q 774.44 108.35 773.58 110.21
  Q 772.80 111.89 771.53 113.21
  Q 771.20 113.55 771.04 114.01
  Q 770.08 116.71 768.44 118.98
  Q 767.27 120.59 766.50 122.40
  Q 765.70 124.26 764.52 125.89
  Q 763.25 127.65 762.43 129.49
  Q 761.56 131.44 760.30 133.17
  Q 759.46 134.32 758.58 136.21
  Q 757.80 137.90 756.53 139.21
  Q 756.20 139.56 756.03 140.01
  Q 755.05 142.79 753.34 145.11
  Q 752.25 146.61 751.54 148.24
  Q 750.81 149.94 749.79 151.47
  Q 748.32 153.66 747.21 155.96
  Q 746.40 157.65 745.30 159.16
  Q 744.46 160.32 743.58 162.21
  Q 742.80 163.90 741.53 165.21
  Q 741.20 165.56 741.03 166.02
  Q 740.05 168.79 738.34 171.11
  Q 737.25 172.61 736.54 174.24
  Q 735.81 175.94 734.79 177.47
  Q 733.32 179.66 732.21 181.96
  Q 731.40 183.65 730.30 185.16
  Q 729.46 186.32 728.58 188.21
  Q 727.80 189.90 726.53 191.21
  Q 726.20 191.56 726.03 192.02
  Q 725.05 194.79 723.34 197.11
  Q 722.25 198.61 721.54 200.24
  Q 720.81 201.94 719.79 203.47
  Q 718.32 205.66 717.21 207.96
  Q 716.40 209.65 715.30 211.16
  Q 714.46 212.32 713.58 214.21
  Q 712.80 215.89 711.54 217.20
  Q 711.21 217.55 711.04 218.00
  Q 710.09 220.65 708.50 222.90
  Q 707.26 224.64 706.43 226.50
  Q 705.55 228.44 704.30 230.17
  Q 703.46 231.32 702.58 233.21
  Q 701.80 234.90 700.53 236.21
  Q 700.20 236.56 700.03 237.02
  Q 699.05 239.79 697.34 242.11
  Q 696.25 243.61 695.54 245.24
  Q 694.81 246.94 693.79 248.47
  Q 692.32 250.66 691.21 252.96
  Q 690.40 254.65 689.30 256.16
  Q 688.46 257.32 687.58 259.21
  Q 686.80 260.90 685.53 262.21
  Q 685.20 262.56 685.03 263.02
  Q 684.05 265.79 682.34 268.11
  Q 681.25 269.61 680.54 271.24
  Q 679.81 272.94 678.79 274.47
  Q 677.32 276.66 676.21 278.96
  Q 675.40 280.65 674.30 282.16
  Q 673.46 283.32 672.58 285.21
  Q 671.80 286.90 670.53 288.21
  Q 670.20 288.56 670.03 289.02
  Q 669.05 291.79 667.34 294.11
  Q 666.25 295.61 665.54 297.24
  Q 664.81 298.94 663.79 300.47
  Q 662.32 302.66 661.21 304.96
  Q 660.40 306.65 659.30 308.16
  Q 658.46 309.32 657.58 311.21
  Q 656.80 312.90 655.53 314.21
  Q 655.20 314.56 655.03 315.02
  Q 654.05 317.79 652.34 320.11
  Q 651.25 321.61 650.54 323.24
  Q 649.81 324.94 648.79 326.47
  Q 647.32 328.66 646.21 330.96
  Q 645.40 332.65 644.30 334.16
  Q 643.47 335.31 642.59 337.21
  Q 641.82 338.86 640.58 340.16
  Q 640.24 340.51 640.17 341.00
  Q 639.96 342.42 638.54 342.36
  Q 637.87 342.33 638.04 342.98
  Q 638.71 345.41 636.86 346.81
  Q 636.46 347.11 636.27 347.58
  Q 635.73 348.92 635.03 350.18
  Q 634.98 350.27 634.09 352.13
  Q 633.60 353.16 632.76 353.92
  Q 632.42 354.23 632.26 354.66
  Q 631.30 357.27 629.51 359.22
  Q 629.19 359.58 629.02 360.04
  Q 628.04 362.80 626.35 365.11
  Q 625.24 366.61 624.55 368.23
  Q 623.81 369.93 622.80 371.45
  Q 621.31 373.68 620.21 375.96
  Q 619.40 377.65 618.30 379.16
  Q 617.46 380.32 616.58 382.21
  Q 615.80 383.90 614.53 385.21
  Q 614.20 385.56 614.03 386.02
  Q 613.05 388.79 611.34 391.11
  Q 610.25 392.61 609.54 394.24
  Q 608.81 395.94 607.79 397.47
  Q 606.32 399.66 605.21 401.96
  Q 604.40 403.65 603.30 405.16
  Q 602.46 406.32 601.58 408.21
  Q 600.80 409.90 599.53 411.21
  Q 599.20 411.56 599.03 412.02
  Q 598.05 414.79 596.34 417.11
  Q 595.25 418.61 594.54 420.24
  Q 593.81 421.94 592.79 423.47
  Q 591.32 425.66 590.21 427.96
  Q 589.40 429.65 588.30 431.16
  Q 587.46 432.32 586.58 434.21
  Q 585.80 435.89 584.54 437.20
  Q 584.21 437.55 584.04 438.00
  Q 583.09 440.65 581.50 442.90
  Q 580.26 444.64 579.43 446.50
  Q 578.55 448.44 577.30 450.17
  Q 576.46 451.32 575.58 453.21
  Q 574.80 454.89 573.54 456.20
  Q 573.21 456.55 573.04 457.00
  Q 572.09 459.65 570.50 461.90
  Q 569.26 463.64 568.43 465.50
  Q 567.55 467.44 566.30 469.17
  Q 565.46 470.32 564.58 472.21
  Q 563.80 473.90 562.53 475.21
  Q 562.20 475.56 562.03 476.02
  Q 561.05 478.79 559.34 481.11
  Q 558.25 482.61 557.54 484.24
  Q 556.80 485.95 555.78 487.48
  Q 554.32 489.65 553.22 491.95
  Q 552.42 493.61 551.34 495.10
  Q 550.26 496.59 549.54 498.26
  Q 548.63 500.34 547.30 502.17
  Q 546.46 503.32 545.58 505.21
  Q 544.80 506.89 543.54 508.21
  Q 543.20 508.55 543.04 509.01
  Q 542.07 511.70 540.44 513.98
  Q 539.26 515.62 538.47 517.41
  Q 537.65 519.25 536.49 520.90
  Q 535.47 522.35 534.85 523.59
  Q 534.14 524.99 533.33 526.34
  Q 533.10 526.72 533.51 526.89
  Q 533.65 526.95 533.77 527.02
  A 0.31 0.31 0.0 0 1 533.72 527.58
  Q 533.19 527.77 532.63 527.89
  Q 532.63 527.89 532.62 527.89
  Q 532.62 527.89 532.62 527.89
  Q 533.00 527.77 533.23 527.88
  Q 534.00 528.24 533.00 528.28
  Q 521.86 528.72 510.73 527.90
  Q 510.63 527.89 510.63 527.99
  Q 510.62 528.13 510.63 528.27
  Q 510.64 528.63 511.00 528.63
  L 669.88 528.63
  Q 670.00 528.63 670.00 528.74
  Q 670.00 528.87 670.00 529.00"
/>
<path stroke="#26bcfa" vector-effect="non-scaling-stroke" d="
  M 2641.73 105.92
  L 2641.11 106.84
  Q 2640.75 107.36 2641.39 107.37
  Q 2641.55 107.37 2641.80 107.36
  A 0.54 0.53 6.6 0 1 2642.34 108.03
  Q 2641.83 109.83 2640.73 111.27
  Q 2639.47 112.91 2638.93 114.16
  Q 2637.82 116.75 2636.12 119.02
  Q 2635.29 120.12 2634.82 121.09
  Q 2634.28 122.19 2633.75 123.29
  Q 2633.03 124.78 2631.82 126.42
  Q 2628.82 130.49 2626.62 135.07
  Q 2623.45 141.66 2621.37 143.38
  Q 2618.29 145.94 2616.83 149.53
  Q 2616.18 151.14 2615.63 152.28
  Q 2614.94 153.70 2614.37 155.16
  Q 2614.22 155.55 2613.90 155.83
  Q 2613.19 156.45 2612.87 157.23
  Q 2612.10 159.07 2612.04 159.16
  Q 2610.64 161.35 2609.04 163.41
  Q 2608.51 164.09 2607.48 166.70
  Q 2607.30 167.15 2606.90 167.42
  Q 2606.52 167.67 2606.60 168.11
  Q 2606.68 168.57 2606.44 168.98
  L 2599.25 181.14
  Q 2599.22 181.19 2599.16 181.17
  Q 2599.04 181.12 2598.91 181.17
  Q 2598.79 181.22 2598.69 181.42
  Q 2594.22 190.46 2589.13 199.13
  Q 2589.03 199.29 2587.08 201.88
  Q 2586.04 203.26 2585.54 204.99
  Q 2585.42 205.41 2585.03 205.60
  Q 2584.55 205.84 2584.59 206.34
  Q 2584.62 206.75 2584.42 207.09
  L 2577.50 218.99
  Q 2577.39 219.17 2577.18 219.13
  Q 2576.88 219.07 2576.62 219.38
  Q 2576.35 219.70 2576.37 220.08
  Q 2576.39 220.52 2576.03 220.76
  Q 2574.11 222.06 2574.46 224.39
  A 0.10 0.10 0.0 0 1 2574.29 224.47
  L 2574.06 224.23
  Q 2573.78 223.95 2573.62 224.31
  Q 2572.39 227.19 2571.04 230.02
  Q 2569.88 232.46 2568.00 235.38
  Q 2565.72 238.92 2563.56 242.52
  Q 2563.04 243.39 2562.42 245.19
  Q 2561.94 246.60 2561.12 247.84
  Q 2558.97 251.07 2558.94 251.12
  Q 2556.20 255.99 2552.83 260.54
  Q 2552.51 260.96 2552.65 261.47
  Q 2552.90 262.44 2552.16 262.62
  Q 2551.63 262.75 2551.63 263.30
  L 2551.63 263.97
  Q 2551.63 264.45 2551.16 264.58
  Q 2550.35 264.80 2550.36 265.57
  Q 2550.36 266.01 2550.01 266.29
  Q 2548.70 267.31 2548.59 269.05
  Q 2548.56 269.49 2548.16 269.67
  Q 2547.48 269.99 2547.63 270.85
  A 0.67 0.67 0.0 0 1 2547.13 271.63
  Q 2546.49 271.78 2546.37 272.34
  Q 2546.29 272.73 2546.02 273.02
  Q 2545.07 274.08 2543.98 276.01
  Q 2541.36 280.68 2540.30 282.62
  Q 2540.14 282.91 2539.89 283.12
  Q 2539.31 283.59 2539.33 284.22
  Q 2539.34 284.65 2539.09 285.01
  Q 2538.36 286.07 2537.91 287.24
  Q 2537.35 288.70 2537.06 289.18
  Q 2535.10 292.43 2533.23 295.80
  Q 2532.74 296.68 2531.63 298.03
  Q 2530.71 299.13 2530.13 300.36
  Q 2528.68 303.39 2528.30 304.00
  Q 2526.68 306.54 2525.59 308.82
  A 8.25 0.70 -66.2 0 1 2523.22 313.16
  L 2518.52 319.40
  A 0.96 0.88 -30.2 0 0 2518.33 320.01
  L 2518.40 321.25
  Q 2518.40 321.31 2518.37 321.25
  Q 2518.30 321.11 2518.24 320.98
  A 0.26 0.26 0.0 0 0 2517.77 321.00
  Q 2514.18 329.95 2508.54 337.72
  Q 2507.78 338.76 2507.33 339.95
  Q 2506.87 341.14 2506.38 342.32
  Q 2505.91 343.44 2504.50 345.51
  Q 2503.59 346.84 2502.62 348.75
  Q 2501.04 351.89 2496.91 356.83
  Q 2496.84 356.91 2496.88 357.01
  Q 2496.96 357.15 2497.03 357.32
  Q 2497.08 357.46 2496.96 357.55
  Q 2496.24 358.06 2496.38 358.94
  Q 2496.46 359.40 2496.04 359.60
  Q 2495.59 359.81 2495.59 360.27
  Q 2495.58 360.66 2495.39 361.00
  L 2488.63 372.79
  Q 2488.36 373.27 2487.81 373.36
  Q 2487.39 373.42 2487.36 373.95
  Q 2487.34 374.41 2486.93 374.60
  Q 2485.94 375.07 2485.93 376.14
  Q 2485.93 376.27 2485.81 376.34
  Q 2485.66 376.43 2485.50 376.50
  Q 2485.14 376.67 2485.28 377.04
  Q 2485.74 378.31 2485.08 378.46
  A 0.41 0.41 0.0 0 0 2484.80 378.70
  Q 2481.40 386.20 2476.66 392.93
  Q 2476.44 393.24 2476.41 393.62
  Q 2476.38 394.17 2475.66 394.28
  A 1.20 1.18 14.5 0 0 2474.90 394.72
  Q 2473.18 396.87 2474.24 397.37
  Q 2474.39 397.45 2474.25 397.52
  L 2473.94 397.69
  Q 2473.56 397.89 2473.67 398.30
  Q 2473.90 399.18 2473.33 399.52
  Q 2473.06 399.68 2472.90 399.95
  L 2465.61 412.53
  Q 2465.38 412.92 2465.00 413.17
  Q 2463.89 413.87 2464.43 415.36
  Q 2464.44 415.39 2464.43 415.38
  Q 2464.42 415.38 2464.41 415.38
  Q 2464.38 415.38 2464.38 415.37
  L 2464.28 415.06
  A 0.28 0.27 42.2 0 0 2463.75 415.08
  Q 2463.39 416.74 2462.36 418.18
  Q 2462.19 418.41 2461.98 418.60
  Q 2461.56 418.96 2461.56 419.47
  Q 2461.57 419.95 2461.33 420.37
  Q 2455.16 431.06 2452.66 435.01
  Q 2451.64 436.63 2451.04 438.01
  Q 2450.22 439.93 2449.53 441.03
  Q 2448.33 442.93 2446.26 446.61
  Q 2445.73 447.57 2443.89 449.84
  Q 2442.61 451.40 2441.81 453.22
  Q 2440.29 456.66 2438.58 460.00
  Q 2438.35 460.45 2437.71 461.06
  Q 2437.16 461.58 2436.88 462.25
  Q 2436.18 463.91 2436.04 464.12
  Q 2434.29 466.74 2432.32 469.20
  Q 2431.00 470.85 2430.18 473.18
  Q 2429.09 476.27 2427.27 478.99
  Q 2426.79 479.71 2424.53 481.82
  C 2422.61 483.61 2421.97 486.04 2421.03 487.86
  Q 2418.79 492.16 2416.42 496.41
  Q 2415.49 498.07 2414.27 501.06
  Q 2413.30 503.45 2411.99 505.66
  C 2410.46 508.27 2409.40 510.54 2408.09 513.01
  Q 2407.83 513.49 2407.33 513.74
  Q 2406.33 514.23 2406.78 515.27
  A 0.38 0.38 0.0 0 1 2406.19 515.71
  Q 2404.85 514.57 2404.49 516.04
  A 0.95 0.92 89.1 0 1 2403.85 516.72
  L 2402.46 517.12
  Q 2401.80 517.32 2402.14 517.92
  L 2403.07 519.53
  Q 2403.28 519.90 2403.03 520.24
  Q 2402.20 521.38 2402.88 522.48
  A 0.28 0.28 0.0 0 1 2402.68 522.91
  Q 2401.08 523.16 2400.12 524.34
  Q 2399.71 524.84 2400.35 524.92
  Q 2402.39 525.15 2403.72 526.68
  Q 2403.85 526.82 2403.71 526.96
  L 2403.45 527.22
  Q 2403.06 527.61 2403.61 527.65
  L 2405.66 527.80
  Q 2405.82 527.81 2405.93 527.93
  L 2406.15 528.15
  Q 2406.38 528.37 2406.69 528.37
  L 2456.48 528.37
  Q 2456.72 528.37 2456.90 528.53
  Q 2457.07 528.69 2457.25 528.69
  Q 2616.74 528.72 2776.24 528.74
  Q 2776.25 528.74 2776.25 528.75
  Q 2776.25 528.87 2776.25 529.00"
/>
</g>
<path fill="#2942aa" d="
  M 204.34 0.00
  L 216.50 0.00
  Q 225.19 0.36 233.88 0.65
  C 285.77 2.40 335.09 13.29 379.73 42.25
  Q 395.73 52.64 411.93 62.77
  Q 455.17 89.81 505.15 98.60
  C 559.70 108.20 614.35 105.63 668.99 97.17
  Q 737.56 86.54 790.51 74.76
  L 792.40 75.47
  Q 792.85 75.64 792.73 76.11
  Q 791.94 79.09 790.09 81.48
  Q 789.34 82.44 788.74 83.86
  Q 788.20 85.17 787.29 86.27
  Q 786.42 87.31 786.01 88.20
  Q 785.51 89.27 784.95 90.31
  Q 784.88 90.44 783.53 93.31
  Q 782.81 94.84 781.70 96.03
  Q 781.37 96.38 781.20 96.82
  Q 780.24 99.32 778.52 101.22
  Q 778.19 101.58 778.03 102.03
  Q 777.03 104.83 775.30 107.18
  Q 774.44 108.35 773.58 110.21
  Q 772.80 111.89 771.53 113.21
  Q 771.20 113.55 771.04 114.01
  Q 770.08 116.71 768.44 118.98
  Q 767.27 120.59 766.50 122.40
  Q 765.70 124.26 764.52 125.89
  Q 763.25 127.65 762.43 129.49
  Q 761.56 131.44 760.30 133.17
  Q 759.46 134.32 758.58 136.21
  Q 757.80 137.90 756.53 139.21
  Q 756.20 139.56 756.03 140.01
  Q 755.05 142.79 753.34 145.11
  Q 752.25 146.61 751.54 148.24
  Q 750.81 149.94 749.79 151.47
  Q 748.32 153.66 747.21 155.96
  Q 746.40 157.65 745.30 159.16
  Q 744.46 160.32 743.58 162.21
  Q 742.80 163.90 741.53 165.21
  Q 741.20 165.56 741.03 166.02
  Q 740.05 168.79 738.34 171.11
  Q 737.25 172.61 736.54 174.24
  Q 735.81 175.94 734.79 177.47
  Q 733.32 179.66 732.21 181.96
  Q 731.40 183.65 730.30 185.16
  Q 729.46 186.32 728.58 188.21
  Q 727.80 189.90 726.53 191.21
  Q 726.20 191.56 726.03 192.02
  Q 725.05 194.79 723.34 197.11
  Q 722.25 198.61 721.54 200.24
  Q 720.81 201.94 719.79 203.47
  Q 718.32 205.66 717.21 207.96
  Q 716.40 209.65 715.30 211.16
  Q 714.46 212.32 713.58 214.21
  Q 712.80 215.89 711.54 217.20
  Q 711.21 217.55 711.04 218.00
  Q 710.09 220.65 708.50 222.90
  Q 707.26 224.64 706.43 226.50
  Q 705.55 228.44 704.30 230.17
  Q 703.46 231.32 702.58 233.21
  Q 701.80 234.90 700.53 236.21
  Q 700.20 236.56 700.03 237.02
  Q 699.05 239.79 697.34 242.11
  Q 696.25 243.61 695.54 245.24
  Q 694.81 246.94 693.79 248.47
  Q 692.32 250.66 691.21 252.96
  Q 690.40 254.65 689.30 256.16
  Q 688.46 257.32 687.58 259.21
  Q 686.80 260.90 685.53 262.21
  Q 685.20 262.56 685.03 263.02
  Q 684.05 265.79 682.34 268.11
  Q 681.25 269.61 680.54 271.24
  Q 679.81 272.94 678.79 274.47
  Q 677.32 276.66 676.21 278.96
  Q 675.40 280.65 674.30 282.16
  Q 673.46 283.32 672.58 285.21
  Q 671.80 286.90 670.53 288.21
  Q 670.20 288.56 670.03 289.02
  Q 669.05 291.79 667.34 294.11
  Q 666.25 295.61 665.54 297.24
  Q 664.81 298.94 663.79 300.47
  Q 662.32 302.66 661.21 304.96
  Q 660.40 306.65 659.30 308.16
  Q 658.46 309.32 657.58 311.21
  Q 656.80 312.90 655.53 314.21
  Q 655.20 314.56 655.03 315.02
  Q 654.05 317.79 652.34 320.11
  Q 651.25 321.61 650.54 323.24
  Q 649.81 324.94 648.79 326.47
  Q 647.32 328.66 646.21 330.96
  Q 645.40 332.65 644.30 334.16
  Q 643.47 335.31 642.59 337.21
  Q 641.82 338.86 640.58 340.16
  Q 640.24 340.51 640.17 341.00
  Q 639.96 342.42 638.54 342.36
  Q 637.87 342.33 638.04 342.98
  Q 638.71 345.41 636.86 346.81
  Q 636.46 347.11 636.27 347.58
  Q 635.73 348.92 635.03 350.18
  Q 634.98 350.27 634.09 352.13
  Q 633.60 353.16 632.76 353.92
  Q 632.42 354.23 632.26 354.66
  Q 631.30 357.27 629.51 359.22
  Q 629.19 359.58 629.02 360.04
  Q 628.04 362.80 626.35 365.11
  Q 625.24 366.61 624.55 368.23
  Q 623.81 369.93 622.80 371.45
  Q 621.31 373.68 620.21 375.96
  Q 619.40 377.65 618.30 379.16
  Q 617.46 380.32 616.58 382.21
  Q 615.80 383.90 614.53 385.21
  Q 614.20 385.56 614.03 386.02
  Q 613.05 388.79 611.34 391.11
  Q 610.25 392.61 609.54 394.24
  Q 608.81 395.94 607.79 397.47
  Q 606.32 399.66 605.21 401.96
  Q 604.40 403.65 603.30 405.16
  Q 602.46 406.32 601.58 408.21
  Q 600.80 409.90 599.53 411.21
  Q 599.20 411.56 599.03 412.02
  Q 598.05 414.79 596.34 417.11
  Q 595.25 418.61 594.54 420.24
  Q 593.81 421.94 592.79 423.47
  Q 591.32 425.66 590.21 427.96
  Q 589.40 429.65 588.30 431.16
  Q 587.46 432.32 586.58 434.21
  Q 585.80 435.89 584.54 437.20
  Q 584.21 437.55 584.04 438.00
  Q 583.09 440.65 581.50 442.90
  Q 580.26 444.64 579.43 446.50
  Q 578.55 448.44 577.30 450.17
  Q 576.46 451.32 575.58 453.21
  Q 574.80 454.89 573.54 456.20
  Q 573.21 456.55 573.04 457.00
  Q 572.09 459.65 570.50 461.90
  Q 569.26 463.64 568.43 465.50
  Q 567.55 467.44 566.30 469.17
  Q 565.46 470.32 564.58 472.21
  Q 563.80 473.90 562.53 475.21
  Q 562.20 475.56 562.03 476.02
  Q 561.05 478.79 559.34 481.11
  Q 558.25 482.61 557.54 484.24
  Q 556.80 485.95 555.78 487.48
  Q 554.32 489.65 553.22 491.95
  Q 552.42 493.61 551.34 495.10
  Q 550.26 496.59 549.54 498.26
  Q 548.63 500.34 547.30 502.17
  Q 546.46 503.32 545.58 505.21
  Q 544.80 506.89 543.54 508.21
  Q 543.20 508.55 543.04 509.01
  Q 542.07 511.70 540.44 513.98
  Q 539.26 515.62 538.47 517.41
  Q 537.65 519.25 536.49 520.90
  Q 535.47 522.35 534.85 523.59
  Q 534.14 524.99 533.33 526.34
  Q 533.10 526.72 533.51 526.89
  Q 533.65 526.95 533.77 527.02
  A 0.31 0.31 0.0 0 1 533.72 527.58
  Q 533.19 527.77 532.63 527.89
  Q 532.63 527.89 532.62 527.89
  Q 532.62 527.89 532.62 527.89
  Q 533.00 527.77 533.23 527.88
  Q 534.00 528.24 533.00 528.28
  Q 521.86 528.72 510.73 527.90
  Q 510.63 527.89 510.63 527.99
  Q 510.62 528.13 510.63 528.27
  Q 510.64 528.63 511.00 528.63
  L 669.88 528.63
  Q 670.00 528.63 670.00 528.74
  Q 670.00 528.87 670.00 529.00
  L 0.00 529.00
  L 0.00 111.76
  C 31.39 77.07 68.13 46.08 109.77 24.76
  Q 154.37 1.91 204.34 0.00
  Z"
/>
<path fill="#2942aa" d="
  M 2641.73 105.92
  L 2641.11 106.84
  Q 2640.75 107.36 2641.39 107.37
  Q 2641.55 107.37 2641.80 107.36
  A 0.54 0.53 6.6 0 1 2642.34 108.03
  Q 2641.83 109.83 2640.73 111.27
  Q 2639.47 112.91 2638.93 114.16
  Q 2637.82 116.75 2636.12 119.02
  Q 2635.29 120.12 2634.82 121.09
  Q 2634.28 122.19 2633.75 123.29
  Q 2633.03 124.78 2631.82 126.42
  Q 2628.82 130.49 2626.62 135.07
  Q 2623.45 141.66 2621.37 143.38
  Q 2618.29 145.94 2616.83 149.53
  Q 2616.18 151.14 2615.63 152.28
  Q 2614.94 153.70 2614.37 155.16
  Q 2614.22 155.55 2613.90 155.83
  Q 2613.19 156.45 2612.87 157.23
  Q 2612.10 159.07 2612.04 159.16
  Q 2610.64 161.35 2609.04 163.41
  Q 2608.51 164.09 2607.48 166.70
  Q 2607.30 167.15 2606.90 167.42
  Q 2606.52 167.67 2606.60 168.11
  Q 2606.68 168.57 2606.44 168.98
  L 2599.25 181.14
  Q 2599.22 181.19 2599.16 181.17
  Q 2599.04 181.12 2598.91 181.17
  Q 2598.79 181.22 2598.69 181.42
  Q 2594.22 190.46 2589.13 199.13
  Q 2589.03 199.29 2587.08 201.88
  Q 2586.04 203.26 2585.54 204.99
  Q 2585.42 205.41 2585.03 205.60
  Q 2584.55 205.84 2584.59 206.34
  Q 2584.62 206.75 2584.42 207.09
  L 2577.50 218.99
  Q 2577.39 219.17 2577.18 219.13
  Q 2576.88 219.07 2576.62 219.38
  Q 2576.35 219.70 2576.37 220.08
  Q 2576.39 220.52 2576.03 220.76
  Q 2574.11 222.06 2574.46 224.39
  A 0.10 0.10 0.0 0 1 2574.29 224.47
  L 2574.06 224.23
  Q 2573.78 223.95 2573.62 224.31
  Q 2572.39 227.19 2571.04 230.02
  Q 2569.88 232.46 2568.00 235.38
  Q 2565.72 238.92 2563.56 242.52
  Q 2563.04 243.39 2562.42 245.19
  Q 2561.94 246.60 2561.12 247.84
  Q 2558.97 251.07 2558.94 251.12
  Q 2556.20 255.99 2552.83 260.54
  Q 2552.51 260.96 2552.65 261.47
  Q 2552.90 262.44 2552.16 262.62
  Q 2551.63 262.75 2551.63 263.30
  L 2551.63 263.97
  Q 2551.63 264.45 2551.16 264.58
  Q 2550.35 264.80 2550.36 265.57
  Q 2550.36 266.01 2550.01 266.29
  Q 2548.70 267.31 2548.59 269.05
  Q 2548.56 269.49 2548.16 269.67
  Q 2547.48 269.99 2547.63 270.85
  A 0.67 0.67 0.0 0 1 2547.13 271.63
  Q 2546.49 271.78 2546.37 272.34
  Q 2546.29 272.73 2546.02 273.02
  Q 2545.07 274.08 2543.98 276.01
  Q 2541.36 280.68 2540.30 282.62
  Q 2540.14 282.91 2539.89 283.12
  Q 2539.31 283.59 2539.33 284.22
  Q 2539.34 284.65 2539.09 285.01
  Q 2538.36 286.07 2537.91 287.24
  Q 2537.35 288.70 2537.06 289.18
  Q 2535.10 292.43 2533.23 295.80
  Q 2532.74 296.68 2531.63 298.03
  Q 2530.71 299.13 2530.13 300.36
  Q 2528.68 303.39 2528.30 304.00
  Q 2526.68 306.54 2525.59 308.82
  A 8.25 0.70 -66.2 0 1 2523.22 313.16
  L 2518.52 319.40
  A 0.96 0.88 -30.2 0 0 2518.33 320.01
  L 2518.40 321.25
  Q 2518.40 321.31 2518.37 321.25
  Q 2518.30 321.11 2518.24 320.98
  A 0.26 0.26 0.0 0 0 2517.77 321.00
  Q 2514.18 329.95 2508.54 337.72
  Q 2507.78 338.76 2507.33 339.95
  Q 2506.87 341.14 2506.38 342.32
  Q 2505.91 343.44 2504.50 345.51
  Q 2503.59 346.84 2502.62 348.75
  Q 2501.04 351.89 2496.91 356.83
  Q 2496.84 356.91 2496.88 357.01
  Q 2496.96 357.15 2497.03 357.32
  Q 2497.08 357.46 2496.96 357.55
  Q 2496.24 358.06 2496.38 358.94
  Q 2496.46 359.40 2496.04 359.60
  Q 2495.59 359.81 2495.59 360.27
  Q 2495.58 360.66 2495.39 361.00
  L 2488.63 372.79
  Q 2488.36 373.27 2487.81 373.36
  Q 2487.39 373.42 2487.36 373.95
  Q 2487.34 374.41 2486.93 374.60
  Q 2485.94 375.07 2485.93 376.14
  Q 2485.93 376.27 2485.81 376.34
  Q 2485.66 376.43 2485.50 376.50
  Q 2485.14 376.67 2485.28 377.04
  Q 2485.74 378.31 2485.08 378.46
  A 0.41 0.41 0.0 0 0 2484.80 378.70
  Q 2481.40 386.20 2476.66 392.93
  Q 2476.44 393.24 2476.41 393.62
  Q 2476.38 394.17 2475.66 394.28
  A 1.20 1.18 14.5 0 0 2474.90 394.72
  Q 2473.18 396.87 2474.24 397.37
  Q 2474.39 397.45 2474.25 397.52
  L 2473.94 397.69
  Q 2473.56 397.89 2473.67 398.30
  Q 2473.90 399.18 2473.33 399.52
  Q 2473.06 399.68 2472.90 399.95
  L 2465.61 412.53
  Q 2465.38 412.92 2465.00 413.17
  Q 2463.89 413.87 2464.43 415.36
  Q 2464.44 415.39 2464.43 415.38
  Q 2464.42 415.38 2464.41 415.38
  Q 2464.38 415.38 2464.38 415.37
  L 2464.28 415.06
  A 0.28 0.27 42.2 0 0 2463.75 415.08
  Q 2463.39 416.74 2462.36 418.18
  Q 2462.19 418.41 2461.98 418.60
  Q 2461.56 418.96 2461.56 419.47
  Q 2461.57 419.95 2461.33 420.37
  Q 2455.16 431.06 2452.66 435.01
  Q 2451.64 436.63 2451.04 438.01
  Q 2450.22 439.93 2449.53 441.03
  Q 2448.33 442.93 2446.26 446.61
  Q 2445.73 447.57 2443.89 449.84
  Q 2442.61 451.40 2441.81 453.22
  Q 2440.29 456.66 2438.58 460.00
  Q 2438.35 460.45 2437.71 461.06
  Q 2437.16 461.58 2436.88 462.25
  Q 2436.18 463.91 2436.04 464.12
  Q 2434.29 466.74 2432.32 469.20
  Q 2431.00 470.85 2430.18 473.18
  Q 2429.09 476.27 2427.27 478.99
  Q 2426.79 479.71 2424.53 481.82
  C 2422.61 483.61 2421.97 486.04 2421.03 487.86
  Q 2418.79 492.16 2416.42 496.41
  Q 2415.49 498.07 2414.27 501.06
  Q 2413.30 503.45 2411.99 505.66
  C 2410.46 508.27 2409.40 510.54 2408.09 513.01
  Q 2407.83 513.49 2407.33 513.74
  Q 2406.33 514.23 2406.78 515.27
  A 0.38 0.38 0.0 0 1 2406.19 515.71
  Q 2404.85 514.57 2404.49 516.04
  A 0.95 0.92 89.1 0 1 2403.85 516.72
  L 2402.46 517.12
  Q 2401.80 517.32 2402.14 517.92
  L 2403.07 519.53
  Q 2403.28 519.90 2403.03 520.24
  Q 2402.20 521.38 2402.88 522.48
  A 0.28 0.28 0.0 0 1 2402.68 522.91
  Q 2401.08 523.16 2400.12 524.34
  Q 2399.71 524.84 2400.35 524.92
  Q 2402.39 525.15 2403.72 526.68
  Q 2403.85 526.82 2403.71 526.96
  L 2403.45 527.22
  Q 2403.06 527.61 2403.61 527.65
  L 2405.66 527.80
  Q 2405.82 527.81 2405.93 527.93
  L 2406.15 528.15
  Q 2406.38 528.37 2406.69 528.37
  L 2456.48 528.37
  Q 2456.72 528.37 2456.90 528.53
  Q 2457.07 528.69 2457.25 528.69
  Q 2616.74 528.72 2776.24 528.74
  Q 2776.25 528.74 2776.25 528.75
  Q 2776.25 528.87 2776.25 529.00
  L 670.00 529.00
  Q 670.00 528.87 670.00 528.74
  Q 670.00 528.63 669.88 528.63
  L 511.00 528.63
  Q 510.64 528.63 510.63 528.27
  Q 510.62 528.13 510.63 527.99
  Q 510.63 527.89 510.73 527.90
  Q 521.86 528.72 533.00 528.28
  Q 534.00 528.24 533.23 527.88
  Q 533.00 527.77 532.62 527.89
  Q 532.62 527.89 532.62 527.89
  Q 532.63 527.89 532.63 527.89
  Q 533.19 527.77 533.72 527.58
  A 0.31 0.31 0.0 0 0 533.77 527.02
  Q 533.65 526.95 533.51 526.89
  Q 533.10 526.72 533.33 526.34
  Q 534.14 524.99 534.85 523.59
  Q 535.47 522.35 536.49 520.90
  Q 537.65 519.25 538.47 517.41
  Q 539.26 515.62 540.44 513.98
  Q 542.07 511.70 543.04 509.01
  Q 543.20 508.55 543.54 508.21
  Q 544.80 506.89 545.58 505.21
  Q 546.46 503.32 547.30 502.17
  Q 548.63 500.34 549.54 498.26
  Q 550.26 496.59 551.34 495.10
  Q 552.42 493.61 553.22 491.95
  Q 554.32 489.65 555.78 487.48
  Q 556.80 485.95 557.54 484.24
  Q 558.25 482.61 559.34 481.11
  Q 561.05 478.79 562.03 476.02
  Q 562.20 475.56 562.53 475.21
  Q 563.80 473.90 564.58 472.21
  Q 565.46 470.32 566.30 469.17
  Q 567.55 467.44 568.43 465.50
  Q 569.26 463.64 570.50 461.90
  Q 572.09 459.65 573.04 457.00
  Q 573.21 456.55 573.54 456.20
  Q 574.80 454.89 575.58 453.21
  Q 576.46 451.32 577.30 450.17
  Q 578.55 448.44 579.43 446.50
  Q 580.26 444.64 581.50 442.90
  Q 583.09 440.65 584.04 438.00
  Q 584.21 437.55 584.54 437.20
  Q 585.80 435.89 586.58 434.21
  Q 587.46 432.32 588.30 431.16
  Q 589.40 429.65 590.21 427.96
  Q 591.32 425.66 592.79 423.47
  Q 593.81 421.94 594.54 420.24
  Q 595.25 418.61 596.34 417.11
  Q 598.05 414.79 599.03 412.02
  Q 599.20 411.56 599.53 411.21
  Q 600.80 409.90 601.58 408.21
  Q 602.46 406.32 603.30 405.16
  Q 604.40 403.65 605.21 401.96
  Q 606.32 399.66 607.79 397.47
  Q 608.81 395.94 609.54 394.24
  Q 610.25 392.61 611.34 391.11
  Q 613.05 388.79 614.03 386.02
  Q 614.20 385.56 614.53 385.21
  Q 615.80 383.90 616.58 382.21
  Q 617.46 380.32 618.30 379.16
  Q 619.40 377.65 620.21 375.96
  Q 621.31 373.68 622.80 371.45
  Q 623.81 369.93 624.55 368.23
  Q 625.24 366.61 626.35 365.11
  Q 628.04 362.80 629.02 360.04
  Q 629.19 359.58 629.51 359.22
  Q 631.30 357.27 632.26 354.66
  Q 632.42 354.23 632.76 353.92
  Q 633.60 353.16 634.09 352.13
  Q 634.98 350.27 635.03 350.18
  Q 635.73 348.92 636.27 347.58
  Q 636.46 347.11 636.86 346.81
  Q 638.71 345.41 638.04 342.98
  Q 637.87 342.33 638.54 342.36
  Q 639.96 342.42 640.17 341.00
  Q 640.24 340.51 640.58 340.16
  Q 641.82 338.86 642.59 337.21
  Q 643.47 335.31 644.30 334.16
  Q 645.40 332.65 646.21 330.96
  Q 647.32 328.66 648.79 326.47
  Q 649.81 324.94 650.54 323.24
  Q 651.25 321.61 652.34 320.11
  Q 654.05 317.79 655.03 315.02
  Q 655.20 314.56 655.53 314.21
  Q 656.80 312.90 657.58 311.21
  Q 658.46 309.32 659.30 308.16
  Q 660.40 306.65 661.21 304.96
  Q 662.32 302.66 663.79 300.47
  Q 664.81 298.94 665.54 297.24
  Q 666.25 295.61 667.34 294.11
  Q 669.05 291.79 670.03 289.02
  Q 670.20 288.56 670.53 288.21
  Q 671.80 286.90 672.58 285.21
  Q 673.46 283.32 674.30 282.16
  Q 675.40 280.65 676.21 278.96
  Q 677.32 276.66 678.79 274.47
  Q 679.81 272.94 680.54 271.24
  Q 681.25 269.61 682.34 268.11
  Q 684.05 265.79 685.03 263.02
  Q 685.20 262.56 685.53 262.21
  Q 686.80 260.90 687.58 259.21
  Q 688.46 257.32 689.30 256.16
  Q 690.40 254.65 691.21 252.96
  Q 692.32 250.66 693.79 248.47
  Q 694.81 246.94 695.54 245.24
  Q 696.25 243.61 697.34 242.11
  Q 699.05 239.79 700.03 237.02
  Q 700.20 236.56 700.53 236.21
  Q 701.80 234.90 702.58 233.21
  Q 703.46 231.32 704.30 230.17
  Q 705.55 228.44 706.43 226.50
  Q 707.26 224.64 708.50 222.90
  Q 710.09 220.65 711.04 218.00
  Q 711.21 217.55 711.54 217.20
  Q 712.80 215.89 713.58 214.21
  Q 714.46 212.32 715.30 211.16
  Q 716.40 209.65 717.21 207.96
  Q 718.32 205.66 719.79 203.47
  Q 720.81 201.94 721.54 200.24
  Q 722.25 198.61 723.34 197.11
  Q 725.05 194.79 726.03 192.02
  Q 726.20 191.56 726.53 191.21
  Q 727.80 189.90 728.58 188.21
  Q 729.46 186.32 730.30 185.16
  Q 731.40 183.65 732.21 181.96
  Q 733.32 179.66 734.79 177.47
  Q 735.81 175.94 736.54 174.24
  Q 737.25 172.61 738.34 171.11
  Q 740.05 168.79 741.03 166.02
  Q 741.20 165.56 741.53 165.21
  Q 742.80 163.90 743.58 162.21
  Q 744.46 160.32 745.30 159.16
  Q 746.40 157.65 747.21 155.96
  Q 748.32 153.66 749.79 151.47
  Q 750.81 149.94 751.54 148.24
  Q 752.25 146.61 753.34 145.11
  Q 755.05 142.79 756.03 140.01
  Q 756.20 139.56 756.53 139.21
  Q 757.80 137.90 758.58 136.21
  Q 759.46 134.32 760.30 133.17
  Q 761.56 131.44 762.43 129.49
  Q 763.25 127.65 764.52 125.89
  Q 765.70 124.26 766.50 122.40
  Q 767.27 120.59 768.44 118.98
  Q 770.08 116.71 771.04 114.01
  Q 771.20 113.55 771.53 113.21
  Q 772.80 111.89 773.58 110.21
  Q 774.44 108.35 775.30 107.18
  Q 777.03 104.83 778.03 102.03
  Q 778.19 101.58 778.52 101.22
  Q 780.24 99.32 781.20 96.82
  Q 781.37 96.38 781.70 96.03
  Q 782.81 94.84 783.53 93.31
  Q 784.88 90.44 784.95 90.31
  Q 785.51 89.27 786.01 88.20
  Q 786.42 87.31 787.29 86.27
  Q 788.20 85.17 788.74 83.86
  Q 789.34 82.44 790.09 81.48
  Q 791.94 79.09 792.73 76.11
  Q 792.85 75.64 792.40 75.47
  L 790.51 74.76
  C 845.00 62.57 892.73 47.49 940.81 25.05
  Q 958.02 17.03 976.60 13.90
  C 1015.05 7.42 1054.14 6.74 1091.51 14.72
  C 1131.87 23.33 1171.72 42.82 1210.40 59.88
  Q 1255.25 79.66 1299.73 87.19
  C 1323.24 91.17 1348.92 92.10 1373.99 91.60
  Q 1439.18 90.30 1500.49 69.40
  Q 1539.80 56.01 1557.03 50.42
  Q 1616.20 31.23 1677.81 37.60
  C 1716.17 41.58 1752.47 49.76 1788.03 64.78
  C 1806.51 72.58 1829.06 84.27 1842.55 90.20
  Q 1883.67 108.28 1931.26 113.12
  C 1958.13 115.85 1984.03 116.49 2009.68 112.73
  C 2045.89 107.42 2086.07 91.08 2112.49 82.29
  Q 2145.94 71.17 2184.74 64.45
  Q 2245.07 53.99 2306.24 53.69
  C 2351.48 53.47 2394.63 60.82 2438.50 71.94
  Q 2466.83 79.12 2495.30 85.78
  Q 2567.55 102.67 2641.73 105.92
  Z"
/>
<path fill="#2942aa" d="
  M 3957.00 101.59
  L 3957.00 529.00
  L 2776.25 529.00
  Q 2776.25 528.87 2776.25 528.75
  Q 2776.25 528.74 2776.24 528.74
  Q 2616.74 528.72 2457.25 528.69
  Q 2457.07 528.69 2456.90 528.53
  Q 2456.72 528.37 2456.48 528.37
  L 2406.69 528.37
  Q 2406.38 528.37 2406.15 528.15
  L 2405.93 527.93
  Q 2405.82 527.81 2405.66 527.80
  L 2403.61 527.65
  Q 2403.06 527.61 2403.45 527.22
  L 2403.71 526.96
  Q 2403.85 526.82 2403.72 526.68
  Q 2402.39 525.15 2400.35 524.92
  Q 2399.71 524.84 2400.12 524.34
  Q 2401.08 523.16 2402.68 522.91
  A 0.28 0.28 0.0 0 0 2402.88 522.48
  Q 2402.20 521.38 2403.03 520.24
  Q 2403.28 519.90 2403.07 519.53
  L 2402.14 517.92
  Q 2401.80 517.32 2402.46 517.12
  L 2403.85 516.72
  A 0.95 0.92 89.1 0 0 2404.49 516.04
  Q 2404.85 514.57 2406.19 515.71
  A 0.38 0.38 0.0 0 0 2406.78 515.27
  Q 2406.33 514.23 2407.33 513.74
  Q 2407.83 513.49 2408.09 513.01
  C 2409.40 510.54 2410.46 508.27 2411.99 505.66
  Q 2413.30 503.45 2414.27 501.06
  Q 2415.49 498.07 2416.42 496.41
  Q 2418.79 492.16 2421.03 487.86
  C 2421.97 486.04 2422.61 483.61 2424.53 481.82
  Q 2426.79 479.71 2427.27 478.99
  Q 2429.09 476.27 2430.18 473.18
  Q 2431.00 470.85 2432.32 469.20
  Q 2434.29 466.74 2436.04 464.12
  Q 2436.18 463.91 2436.88 462.25
  Q 2437.16 461.58 2437.71 461.06
  Q 2438.35 460.45 2438.58 460.00
  Q 2440.29 456.66 2441.81 453.22
  Q 2442.61 451.40 2443.89 449.84
  Q 2445.73 447.57 2446.26 446.61
  Q 2448.33 442.93 2449.53 441.03
  Q 2450.22 439.93 2451.04 438.01
  Q 2451.64 436.63 2452.66 435.01
  Q 2455.16 431.06 2461.33 420.37
  Q 2461.57 419.95 2461.56 419.47
  Q 2461.56 418.96 2461.98 418.60
  Q 2462.19 418.41 2462.36 418.18
  Q 2463.39 416.74 2463.75 415.08
  A 0.28 0.27 42.2 0 1 2464.28 415.06
  L 2464.38 415.37
  Q 2464.38 415.38 2464.41 415.38
  Q 2464.42 415.38 2464.43 415.38
  Q 2464.44 415.39 2464.43 415.36
  Q 2463.89 413.87 2465.00 413.17
  Q 2465.38 412.92 2465.61 412.53
  L 2472.90 399.95
  Q 2473.06 399.68 2473.33 399.52
  Q 2473.90 399.18 2473.67 398.30
  Q 2473.56 397.89 2473.94 397.69
  L 2474.25 397.52
  Q 2474.39 397.45 2474.24 397.37
  Q 2473.18 396.87 2474.90 394.72
  A 1.20 1.18 14.5 0 1 2475.66 394.28
  Q 2476.38 394.17 2476.41 393.62
  Q 2476.44 393.24 2476.66 392.93
  Q 2481.40 386.20 2484.80 378.70
  A 0.41 0.41 0.0 0 1 2485.08 378.46
  Q 2485.74 378.31 2485.28 377.04
  Q 2485.14 376.67 2485.50 376.50
  Q 2485.66 376.43 2485.81 376.34
  Q 2485.93 376.27 2485.93 376.14
  Q 2485.94 375.07 2486.93 374.60
  Q 2487.34 374.41 2487.36 373.95
  Q 2487.39 373.42 2487.81 373.36
  Q 2488.36 373.27 2488.63 372.79
  L 2495.39 361.00
  Q 2495.58 360.66 2495.59 360.27
  Q 2495.59 359.81 2496.04 359.60
  Q 2496.46 359.40 2496.38 358.94
  Q 2496.24 358.06 2496.96 357.55
  Q 2497.08 357.46 2497.03 357.32
  Q 2496.96 357.15 2496.88 357.01
  Q 2496.84 356.91 2496.91 356.83
  Q 2501.04 351.89 2502.62 348.75
  Q 2503.59 346.84 2504.50 345.51
  Q 2505.91 343.44 2506.38 342.32
  Q 2506.87 341.14 2507.33 339.95
  Q 2507.78 338.76 2508.54 337.72
  Q 2514.18 329.95 2517.77 321.00
  A 0.26 0.26 0.0 0 1 2518.24 320.98
  Q 2518.30 321.11 2518.37 321.25
  Q 2518.40 321.31 2518.40 321.25
  L 2518.33 320.01
  A 0.96 0.88 -30.2 0 1 2518.52 319.40
  L 2523.22 313.16
  A 8.25 0.70 -66.2 0 0 2525.59 308.82
  Q 2526.68 306.54 2528.30 304.00
  Q 2528.68 303.39 2530.13 300.36
  Q 2530.71 299.13 2531.63 298.03
  Q 2532.74 296.68 2533.23 295.80
  Q 2535.10 292.43 2537.06 289.18
  Q 2537.35 288.70 2537.91 287.24
  Q 2538.36 286.07 2539.09 285.01
  Q 2539.34 284.65 2539.33 284.22
  Q 2539.31 283.59 2539.89 283.12
  Q 2540.14 282.91 2540.30 282.62
  Q 2541.36 280.68 2543.98 276.01
  Q 2545.07 274.08 2546.02 273.02
  Q 2546.29 272.73 2546.37 272.34
  Q 2546.49 271.78 2547.13 271.63
  A 0.67 0.67 0.0 0 0 2547.63 270.85
  Q 2547.48 269.99 2548.16 269.67
  Q 2548.56 269.49 2548.59 269.05
  Q 2548.70 267.31 2550.01 266.29
  Q 2550.36 266.01 2550.36 265.57
  Q 2550.35 264.80 2551.16 264.58
  Q 2551.63 264.45 2551.63 263.97
  L 2551.63 263.30
  Q 2551.63 262.75 2552.16 262.62
  Q 2552.90 262.44 2552.65 261.47
  Q 2552.51 260.96 2552.83 260.54
  Q 2556.20 255.99 2558.94 251.12
  Q 2558.97 251.07 2561.12 247.84
  Q 2561.94 246.60 2562.42 245.19
  Q 2563.04 243.39 2563.56 242.52
  Q 2565.72 238.92 2568.00 235.38
  Q 2569.88 232.46 2571.04 230.02
  Q 2572.39 227.19 2573.62 224.31
  Q 2573.78 223.95 2574.06 224.23
  L 2574.29 224.47
  A 0.10 0.10 0.0 0 0 2574.46 224.39
  Q 2574.11 222.06 2576.03 220.76
  Q 2576.39 220.52 2576.37 220.08
  Q 2576.35 219.70 2576.62 219.38
  Q 2576.88 219.07 2577.18 219.13
  Q 2577.39 219.17 2577.50 218.99
  L 2584.42 207.09
  Q 2584.62 206.75 2584.59 206.34
  Q 2584.55 205.84 2585.03 205.60
  Q 2585.42 205.41 2585.54 204.99
  Q 2586.04 203.26 2587.08 201.88
  Q 2589.03 199.29 2589.13 199.13
  Q 2594.22 190.46 2598.69 181.42
  Q 2598.79 181.22 2598.91 181.17
  Q 2599.04 181.12 2599.16 181.17
  Q 2599.22 181.19 2599.25 181.14
  L 2606.44 168.98
  Q 2606.68 168.57 2606.60 168.11
  Q 2606.52 167.67 2606.90 167.42
  Q 2607.30 167.15 2607.48 166.70
  Q 2608.51 164.09 2609.04 163.41
  Q 2610.64 161.35 2612.04 159.16
  Q 2612.10 159.07 2612.87 157.23
  Q 2613.19 156.45 2613.90 155.83
  Q 2614.22 155.55 2614.37 155.16
  Q 2614.94 153.70 2615.63 152.28
  Q 2616.18 151.14 2616.83 149.53
  Q 2618.29 145.94 2621.37 143.38
  Q 2623.45 141.66 2626.62 135.07
  Q 2628.82 130.49 2631.82 126.42
  Q 2633.03 124.78 2633.75 123.29
  Q 2634.28 122.19 2634.82 121.09
  Q 2635.29 120.12 2636.12 119.02
  Q 2637.82 116.75 2638.93 114.16
  Q 2639.47 112.91 2640.73 111.27
  Q 2641.83 109.83 2642.34 108.03
  A 0.54 0.53 6.6 0 0 2641.80 107.36
  Q 2641.55 107.37 2641.39 107.37
  Q 2640.75 107.36 2641.11 106.84
  L 2641.73 105.92
  C 2674.42 108.23 2702.05 105.34 2731.83 97.02
  Q 2753.90 90.86 2776.01 84.81
  C 2803.02 77.43 2831.53 73.83 2859.49 75.76
  C 2902.18 78.72 2943.40 87.28 2985.14 96.21
  C 3016.98 103.02 3049.93 106.93 3082.50 106.74
  Q 3519.75 104.14 3957.00 101.59
  Z"
/>
</svg>
