<svg width="293" height="256" viewBox="0 0 293 256" fill="none" xmlns="http://www.w3.org/2000/svg">
<path d="M209.72 164.53C209.71 164.54 209.69 164.55 209.68 164.55C205.49 166.45 200.78 167.45 196.45 168.17C187.85 169.6 179.51 164.62 170.98 166C169.22 166.29 167.47 167.13 166.49 168.61C165.91 169.48 165.62 170.51 165 171.34C162.41 174.78 155.81 173.9 152.18 173.45C145.71 172.64 139.05 169.39 134.41 164.67C135.42 163.24 136.37 161.77 137.21 160.21C138.06 158.59 138.8 156.96 139.49 155.29C140.51 152.76 141.43 150.17 142.07 147.5C143.87 147.91 154.55 150.25 168.02 150.11C168.02 150.13 168.02 150.14 168.02 150.16L168.04 150.61L168.48 150.59L173.89 150.33L174.32 150.31L174.29 149.89C174.29 149.88 174.29 149.87 174.29 149.86C177.53 149.64 180.87 149.24 184.24 148.63L184.22 149.05L184.74 148.92L192.65 146.99L192.89 146.93L192.95 146.69C192.96 146.63 192.98 146.58 192.99 146.52C198.93 144.71 204.76 142.07 210.06 138.3C213.29 136.02 216.33 133.32 219.08 130.13C219.08 130.13 227.15 122.02 232.04 114.1C236.51 106.89 238.33 99.83 229.03 99.2L229.01 99.21C225.33 89.82 218.58 81.25 212.14 74.58C212.11 74.55 212.08 74.51 212.04 74.48C210.94 73.34 209.85 72.25 208.78 71.22C207.5 69.96 206.2 68.71 204.89 67.47C203.67 66.31 202.43 65.17 201.17 64.06C199.9 62.94 198.62 61.85 197.21 60.86L196.56 60.41C204.28 60.21 210.17 58.43 217.09 55.28C223.87 52.19 231.15 49.86 238.67 49.81C245.7 49.77 247.42 52.4 250.02 58.57C251.54 62.21 254.01 65.64 257.38 67.77C260.57 69.78 263.99 70.3 267.66 69.97C267.76 69.96 296.13 67.47 291.07 89.29C287.22 99.06 280.23 107.57 269.16 107.66C275.38 114.47 274.51 121.47 267.66 127.53C263.83 130.92 259.12 133.97 254.45 136.03C248.02 138.86 242.93 137.76 236.4 136.81C233.57 136.4 229.56 135.84 226.33 136.7C224.93 137.07 223.67 137.71 222.73 138.74C222.44 139.06 222.19 139.42 222 139.82C220.72 142.46 221.4 145.95 221.18 148.78C220.85 153.05 219.54 156.93 216.45 160.01C214.53 161.93 212.22 163.39 209.72 164.53Z" fill="url(#paint0_linear)"/>
<path d="M221.18 148.78C221.4 145.95 220.72 142.46 222 139.82C222.19 139.42 222.44 139.06 222.73 138.74C223.67 137.71 224.93 137.07 226.33 136.7C224.75 141.1 223.93 143.95 221.18 148.78Z" fill="url(#paint1_linear)"/>
<path d="M219.08 130.13C216.33 133.32 213.29 136.02 210.06 138.3L208.97 136.73C209 136.64 209.01 136.54 209 136.51L208.99 136.4L208.97 136.18L208.82 134.39L208.52 130.81C207.54 121.31 205.49 111.85 201.73 103.03C199.92 98.59 197.65 94.35 194.98 90.38C192.29 86.41 189.26 82.68 185.5 79.63C182.72 76.94 180.31 73.83 177.87 70.79C175.45 67.72 173.1 64.59 170.76 61.46C166.09 55.18 161.5 48.84 156.98 42.45C160.04 43.24 163.19 44.21 166.4 45.36L166.37 45.4L170.84 49.83L173.07 52.05C173.8 52.8 174.47 53.61 175.18 54.38L179.41 59.04C180.77 60.64 182.06 62.29 183.38 63.92L185.36 66.36C186.01 67.19 186.6 68.05 187.22 68.89L190.92 73.98C193.21 77.49 195.57 80.95 197.7 84.57C202.07 91.71 205.98 99.14 209.45 106.77C212.92 114.4 216 122.23 218.34 130.26L219.08 130.13Z" fill="url(#paint2_linear)"/>
<path d="M217.76 125.76C218.23 127.19 218.66 128.63 219.07 130.07L218.33 130.2L217.76 125.76Z" fill="black"/>
<path d="M217.76 125.76C215.67 119.16 213.13 112.71 210.31 106.38C206.91 98.68 202.92 91.24 198.55 84.05C196.44 80.4 193.96 76.99 191.62 73.49L187.83 68.43C187.2 67.6 186.58 66.74 185.92 65.92L183.9 63.5C178.7 56.93 172.7 51.05 166.53 45.41C171.83 47.3 177.32 49.7 182.99 52.7L182.96 52.74C188.37 57.58 192.95 63.29 197.03 69.27C201.09 75.28 204.64 81.63 207.56 88.27C208.33 89.91 208.92 91.63 209.62 93.3L210.63 95.82C210.94 96.67 211.21 97.54 211.5 98.4L213.2 103.56L214.59 108.81L215.28 111.44C215.52 112.32 215.65 113.22 215.83 114.1L216.87 119.44L217.13 120.77L217.3 122.12L217.64 124.81L217.76 125.76Z" fill="url(#paint3_linear)"/>
<path d="M212.14 74.58C218.58 81.25 225.33 89.82 229.01 99.21C230.88 103.96 231.96 108.93 231.81 113.96L232.04 114.1C227.15 122.02 219.08 130.13 219.08 130.13L219.07 130.07L218.36 124.71L218 122.01L217.81 120.66L217.55 119.32L216.47 113.96C216.28 113.08 216.14 112.17 215.9 111.3L215.19 108.66L213.76 103.39L212.01 98.22C211.72 97.36 211.45 96.49 211.12 95.64L210.1 93.11C209.39 91.44 208.77 89.72 207.99 88.08C205.01 81.44 201.39 75.1 197.27 69.11C193.16 63.2 188.59 57.59 183.19 52.81C187.38 55.03 191.67 57.58 196.04 60.49L196.64 61.42C199.33 65.58 201.89 69.83 204.39 74.12C206.9 78.39 209.29 82.73 211.57 87.13C213.9 91.5 216.03 95.98 217.95 100.54C218.95 102.81 219.77 105.14 220.58 107.48L221.63 111.04L222.39 114.63L222.41 114.73C222.59 114.21 222.56 113.84 222.62 113.38C222.66 112.95 222.67 112.51 222.7 112.08C222.72 111.2 222.73 110.33 222.69 109.46C222.65 107.71 222.47 105.97 222.25 104.24C221.79 100.77 221.01 97.36 220.05 94L219.3 91.49L218.45 89.01C217.91 87.34 217.21 85.74 216.59 84.11C215.92 82.49 215.18 80.91 214.48 79.31L212.15 74.61L212.14 74.58Z" fill="url(#paint4_linear)"/>
<path d="M210.06 138.3C204.76 142.07 198.93 144.71 192.99 146.52C194.08 141.99 194.13 137.32 193.81 132.74C193.46 128.09 192.69 123.49 191.72 118.95C190.73 114.4 189.52 109.91 188.15 105.47C187.01 101.79 185.77 98.15 184.38 94.55C187.07 97.43 189.44 100.61 191.65 103.89C194.28 107.84 196.66 111.97 198.86 116.18C201.06 120.4 203.09 124.71 204.96 129.08C205.9 131.27 206.81 133.47 207.65 135.7L207.97 136.53L208.06 136.76C208.11 136.9 208.29 137.04 208.45 137.05C208.61 137.06 208.75 137.01 208.86 136.9C208.91 136.86 208.95 136.8 208.97 136.73L210.06 138.3Z" fill="url(#paint5_linear)"/>
<path d="M196.45 168.17C200.78 167.45 205.49 166.45 209.68 164.55C202.38 169.56 190.15 176.52 173.62 180.02C151.15 184.77 132.65 180.59 123.51 177.84C124.86 176.29 126.18 174.72 127.51 173.18C129.83 170.48 132.2 167.77 134.3 164.82C134.34 164.77 134.37 164.72 134.41 164.67C139.05 169.39 145.71 172.64 152.18 173.45C155.81 173.9 162.41 174.78 165 171.34C165.62 170.51 165.91 169.48 166.49 168.61C167.47 167.13 169.22 166.29 170.98 166C179.51 164.62 187.85 169.6 196.45 168.17Z" fill="url(#paint6_linear)"/>
<path d="M208.25 136.55L208.24 136.44L208.22 136.22L208.1 134.75C208.2 134.97 208.28 135.2 208.37 135.43L208.68 136.27L208.75 136.45C208.73 136.38 208.62 136.29 208.53 136.29C208.45 136.29 208.38 136.31 208.32 136.37C208.26 136.41 208.24 136.57 208.25 136.55Z" fill="black"/>
<path d="M200.67 64.63C201.93 65.73 203.18 66.85 204.41 67.99C206.86 70.26 209.27 72.58 211.63 74.94L213.97 79.55C214.68 81.14 215.44 82.71 216.12 84.31C216.75 85.93 217.48 87.51 218.03 89.16L218.91 91.61L219.69 94.11C220.69 97.44 221.51 100.83 222.02 104.27C222.51 107.69 222.74 111.26 222.41 114.63L221.9 110.98L221 107.35C220.28 104.97 219.52 102.6 218.59 100.28C216.8 95.63 214.7 91.12 212.45 86.68C208.25 78.5 203.59 70.59 198.58 62.89C199.29 63.45 199.98 64.04 200.67 64.63Z" fill="url(#paint7_linear)"/>
<path d="M197.92 61.88C200.17 63.6 204.23 66.85 208.78 71.22C209.88 72.3 210.96 73.38 212.04 74.48C212.08 74.51 212.11 74.55 212.14 74.58L212.15 74.61L214.48 79.31C215.18 80.91 215.92 82.49 216.59 84.11C217.21 85.74 217.91 87.34 218.45 89.01L219.3 91.49L220.05 94C221.01 97.36 221.79 100.77 222.25 104.24C222.47 105.97 222.65 107.71 222.69 109.46C222.73 110.33 222.72 111.2 222.7 112.08C222.67 112.51 222.66 112.95 222.62 113.38C222.56 113.84 222.59 114.21 222.41 114.73L222.39 114.63H222.41C222.74 111.26 222.51 107.69 222.02 104.27C221.51 100.83 220.69 97.44 219.69 94.11L218.91 91.61L218.03 89.16C217.48 87.51 216.75 85.93 216.12 84.31C215.44 82.71 214.68 81.14 213.97 79.55L211.63 74.94C209.27 72.58 206.86 70.26 204.41 67.99C203.18 66.85 201.93 65.73 200.67 64.63C199.98 64.04 199.29 63.45 198.58 62.89C198.36 62.55 198.14 62.22 197.92 61.88Z" fill="black"/>
<path d="M197.92 61.88C198.14 62.22 198.36 62.55 198.58 62.89C197.98 62.42 197.38 61.96 196.76 61.54L197.06 61.23C197.3 61.41 197.59 61.63 197.92 61.88Z" fill="black"/>
<path d="M197.32 60.97C197.52 61.27 197.72 61.58 197.92 61.88C197.59 61.63 197.3 61.41 197.06 61.23L197.32 60.97Z" fill="black"/>
<path d="M198.58 62.89C203.59 70.59 208.25 78.5 212.45 86.68C214.7 91.12 216.8 95.63 218.59 100.28C219.52 102.6 220.28 104.97 221 107.35L221.9 110.98L222.41 114.63H222.39L221.63 111.04L220.58 107.48C219.77 105.14 218.95 102.81 217.95 100.54C216.03 95.98 213.9 91.5 211.57 87.13C209.29 82.73 206.9 78.39 204.39 74.12C201.89 69.83 199.33 65.58 196.64 61.42L196.04 60.49C196.05 60.5 196.06 60.5 196.07 60.51C196.07 60.51 196.42 60.76 197.06 61.23L196.76 61.54C197.38 61.96 197.98 62.42 198.58 62.89Z" fill="black"/>
<path d="M196.07 60.51C196.06 60.5 196.05 60.5 196.04 60.49L195.51 59.67L196.56 60.41L197.21 60.86C198.62 61.85 199.9 62.94 201.17 64.06C202.43 65.17 203.67 66.31 204.89 67.47C206.2 68.71 207.5 69.96 208.78 71.22C204.23 66.85 200.17 63.6 197.92 61.88C197.72 61.58 197.52 61.27 197.32 60.97L197.06 61.23C196.42 60.76 196.07 60.51 196.07 60.51Z" fill="black"/>
<path d="M192.45 146.19L192.15 146.49C192.17 146.41 192.19 146.33 192.2 146.25L192.45 146.19Z" fill="black"/>
<path d="M197.03 69.27C192.95 63.29 188.37 57.58 182.96 52.74L182.99 52.7C183.05 52.73 183.12 52.77 183.19 52.81C188.59 57.59 193.16 63.2 197.27 69.11C201.39 75.1 205.01 81.44 207.99 88.08C208.77 89.72 209.39 91.44 210.1 93.11L211.12 95.64C211.45 96.49 211.72 97.36 212.01 98.22L213.76 103.39L215.19 108.66L215.9 111.3C216.14 112.17 216.28 113.08 216.47 113.96L217.55 119.32L217.81 120.66L218 122.01L218.36 124.71L219.07 130.07C218.66 128.63 218.23 127.19 217.76 125.76L217.64 124.81L217.3 122.12L217.13 120.77L216.87 119.44L215.83 114.1C215.65 113.22 215.52 112.32 215.28 111.44L214.59 108.81L213.2 103.56L211.5 98.4C211.21 97.54 210.94 96.67 210.63 95.82L209.62 93.3C208.92 91.63 208.33 89.91 207.56 88.27C204.64 81.63 201.09 75.28 197.03 69.27Z" fill="black"/>
<path d="M185.05 148.04C185.05 148.19 185.04 148.34 185.03 148.49C185 148.49 184.98 148.5 184.95 148.5L184.55 148.16L185.05 148.04Z" fill="black"/>
<path d="M185.03 148.49C185.03 148.52 185.03 148.54 185.03 148.57L184.95 148.5C184.98 148.5 185 148.49 185.03 148.49Z" fill="black"/>
<path d="M192.65 146.99L184.74 148.92L184.22 149.05L184.24 148.63C184.48 148.59 184.71 148.55 184.95 148.5L185.03 148.57C185.03 148.54 185.03 148.52 185.03 148.49C187.68 147.98 190.35 147.33 192.99 146.52C192.98 146.58 192.96 146.63 192.95 146.69L192.89 146.93L192.65 146.99Z" fill="black"/>
<path d="M192.45 146.19L192.2 146.25C193.23 141.88 193.26 137.31 192.93 132.81C192.58 128.21 191.8 123.65 190.81 119.15C189.8 114.64 188.59 110.18 187.21 105.77C185.84 101.42 184.37 97.09 182.7 92.87L182.74 92.85C183.3 93.4 183.85 93.97 184.38 94.55C185.77 98.15 187.01 101.79 188.15 105.47C189.52 109.91 190.73 114.4 191.72 118.95C192.69 123.49 193.46 128.09 193.81 132.74C194.13 137.32 194.08 141.99 192.99 146.52C190.35 147.33 187.68 147.98 185.03 148.49C185.04 148.34 185.05 148.19 185.05 148.04L192.2 146.25C192.19 146.33 192.17 146.41 192.15 146.49L192.45 146.19Z" fill="black"/>
<path d="M182.86 119.31C184.08 128.99 184.69 138.79 184.25 148.51L184.24 148.63C180.87 149.24 177.53 149.64 174.29 149.86C173.9 144.7 173.27 139.56 172.18 134.5C171.1 129.44 169.81 124.42 168.18 119.51C166.57 114.59 164.76 109.74 162.74 104.98C160.7 100.24 158.51 95.57 156.03 91.03L152.41 82.98C151.01 80.39 149.69 77.75 148.21 75.21L145.86 71.47L144.69 69.6L143.38 67.82L140.77 64.26L137.91 60.9C134 56.5 129.66 52.46 124.76 49.19C122.29 47.58 119.76 46.06 117.06 44.89C114.43 43.71 111.7 42.72 108.85 42.22C112.98 41.11 117.68 40.17 122.88 39.64V39.65C127.2 41.97 131.11 44.98 134.67 48.33C138.22 51.69 141.48 55.36 144.4 59.28C147.35 63.18 150.08 67.24 152.6 71.43C155.1 75.63 157.43 79.94 159.62 84.31C163.94 93.09 167.79 102.1 171.15 111.29C174.51 120.47 177.51 129.81 179.98 139.26L180.95 139.09L180.94 139.02L179.07 125.18C178.94 124.02 178.73 122.87 178.51 121.72L177.87 118.27L176.59 111.37C176.39 110.21 176.12 109.08 175.84 107.94L175.02 104.53L173.38 97.7L171.34 90.98L170.32 87.63C170 86.5 169.53 85.42 169.14 84.32L166.68 77.74C165.76 75.59 164.78 73.47 163.83 71.33C162.94 69.16 161.73 67.14 160.66 65.06C160.09 64.04 159.59 62.98 158.97 61.98L157.1 59.01C156.45 58.04 155.89 57.01 155.18 56.08L153.08 53.26L152.03 51.85L150.88 50.52C150.11 49.64 149.36 48.75 148.57 47.88L146.07 45.42C145.24 44.59 144.3 43.89 143.42 43.12C141.59 41.69 139.69 40.29 137.55 39.35C140.68 39.52 143.93 39.87 147.29 40.41C153.51 47.96 159.21 55.94 164.21 64.34C166.72 68.53 169.08 72.81 171.26 77.18C172.36 79.36 173.4 81.57 174.39 83.8C174.88 84.92 175.39 86.04 175.79 87.17L176.85 90.67C178.27 95.34 179.4 100.1 180.45 104.86C181.39 109.66 182.27 114.46 182.86 119.31Z" fill="url(#paint8_linear)"/>
<path d="M183.52 92.32C183.82 93.06 184.11 93.8 184.38 94.55C183.85 93.97 183.3 93.4 182.74 92.85L183.52 92.32Z" fill="black"/>
<path d="M183.19 52.81C183.12 52.77 183.05 52.73 182.99 52.7L183.02 52.66C183.08 52.71 183.13 52.76 183.19 52.81Z" fill="black"/>
<path d="M182.63 92.69L181.78 90.55L183.41 92.16C183.46 92.21 183.5 92.25 183.54 92.3L183.52 92.32L182.74 92.85L182.7 92.87C182.68 92.81 182.65 92.75 182.63 92.69Z" fill="black"/>
<path d="M180.94 139.02L179.97 139.19L179.04 132.12C179.7 134.41 180.34 136.71 180.94 139.02Z" fill="black"/>
<path d="M173.85 149.49L173.47 149.92C173.46 149.92 173.45 149.92 173.45 149.92C173.44 149.78 173.43 149.65 173.42 149.51L173.85 149.49Z" fill="black"/>
<path d="M173.47 149.92L173.45 149.94C173.45 149.93 173.45 149.93 173.45 149.92C173.45 149.92 173.46 149.92 173.47 149.92Z" fill="black"/>
<path d="M173.42 149.51C173.43 149.65 173.44 149.78 173.45 149.92C171.9 150.01 170.38 150.07 168.89 150.1C168.88 149.97 168.87 149.83 168.86 149.7L173.42 149.51Z" fill="black"/>
<path d="M170.84 49.83L166.37 45.4L166.4 45.36C166.44 45.37 166.49 45.39 166.53 45.41C172.7 51.05 178.7 56.93 183.9 63.5L185.92 65.92C186.58 66.74 187.2 67.6 187.83 68.43L191.62 73.49C193.96 76.99 196.44 80.4 198.55 84.05C202.92 91.24 206.91 98.68 210.31 106.38C213.13 112.71 215.67 119.16 217.76 125.76L218.33 130.2L219.07 130.07L219.08 130.13L218.34 130.26C216 122.23 212.92 114.4 209.45 106.77C205.98 99.14 202.07 91.71 197.7 84.57C195.57 80.95 193.21 77.49 190.92 73.98L187.22 68.89C186.6 68.05 186.01 67.19 185.36 66.36L183.38 63.92C182.06 62.29 180.77 60.64 179.41 59.04L175.18 54.38C174.47 53.61 173.8 52.8 173.07 52.05L170.84 49.83Z" fill="black"/>
<path d="M170.54 61.61C165.94 55.28 161.43 48.89 156.98 42.45C161.5 48.84 166.09 55.18 170.76 61.46C173.1 64.59 175.45 67.72 177.87 70.79C180.31 73.83 182.72 76.94 185.5 79.63C189.26 82.68 192.29 86.41 194.98 90.38C197.65 94.35 199.92 98.59 201.73 103.03C205.49 111.85 207.54 121.31 208.52 130.81L208.82 134.39L208.97 136.18L208.99 136.4L209 136.51C209.01 136.54 209 136.64 208.97 136.73C208.95 136.8 208.91 136.86 208.86 136.9C208.75 137.01 208.61 137.06 208.45 137.05C208.29 137.04 208.11 136.9 208.06 136.76L207.97 136.53L207.65 135.7C206.81 133.47 205.9 131.27 204.96 129.08C203.09 124.71 201.06 120.4 198.86 116.18C196.66 111.97 194.28 107.84 191.65 103.89C189.44 100.61 187.07 97.43 184.38 94.55C184.11 93.8 183.82 93.06 183.52 92.32L183.54 92.3C186.92 95.66 189.79 99.46 192.4 103.39C195.04 107.39 197.42 111.55 199.61 115.79C201.81 120.04 203.82 124.38 205.69 128.77C206.53 130.76 207.34 132.74 208.1 134.75L208.22 136.22L208.24 136.44L208.25 136.55C208.24 136.57 208.26 136.41 208.32 136.37C208.38 136.31 208.45 136.29 208.53 136.29C208.62 136.29 208.73 136.38 208.75 136.45L208.68 136.27L208.37 135.43C208.28 135.2 208.2 134.97 208.1 134.75L208.08 134.44L207.79 130.89C206.85 121.44 204.85 112.03 201.15 103.27C199.38 98.86 197.14 94.64 194.51 90.69C191.87 86.76 188.84 83.01 185.19 80.03L185.17 80.02C183.72 78.65 182.44 77.16 181.2 75.64C179.95 74.13 178.75 72.58 177.56 71.03C175.17 67.93 172.85 64.78 170.54 61.61Z" fill="black"/>
<path d="M170.54 61.61C172.85 64.78 175.17 67.93 177.56 71.03C178.75 72.58 179.95 74.13 181.2 75.64C182.44 77.16 183.72 78.65 185.17 80.02L185.19 80.03C188.84 83.01 191.87 86.76 194.51 90.69C197.14 94.64 199.38 98.86 201.15 103.27C204.85 112.03 206.85 121.44 207.79 130.89L208.08 134.44L208.1 134.75C207.34 132.74 206.53 130.76 205.69 128.77C203.82 124.38 201.81 120.04 199.61 115.79C197.42 111.55 195.04 107.39 192.4 103.39C189.79 99.46 186.92 95.66 183.54 92.3C183.5 92.25 183.46 92.21 183.41 92.16L181.78 90.55L182.63 92.69C182.65 92.75 182.68 92.81 182.7 92.87C184.37 97.09 185.84 101.42 187.21 105.77C188.59 110.18 189.8 114.64 190.81 119.15C191.8 123.65 192.58 128.21 192.93 132.81C193.26 137.31 193.23 141.88 192.2 146.25L185.05 148.04C185.43 138.39 184.77 128.77 183.53 119.22C182.92 114.36 182.01 109.54 181.05 104.74C179.98 99.96 178.83 95.19 177.38 90.51L176.3 86.99C175.88 85.82 175.38 84.71 174.88 83.59C173.87 81.35 172.82 79.14 171.71 76.96C169.48 72.6 167.06 68.33 164.5 64.16C159.39 55.81 153.6 47.89 147.29 40.41C150.42 40.91 153.66 41.58 156.98 42.45C161.43 48.89 165.94 55.28 170.54 61.61Z" fill="url(#paint9_linear)"/>
<path d="M168.89 150.1C168.89 150.12 168.89 150.13 168.89 150.15L168.84 150.1C168.86 150.1 168.87 150.1 168.89 150.1Z" fill="black"/>
<path d="M168.86 149.7C168.87 149.83 168.88 149.97 168.89 150.1C168.87 150.1 168.86 150.1 168.84 150.1L168.44 149.72L168.86 149.7Z" fill="black"/>
<path d="M168.02 150.11C168.29 150.11 168.57 150.1 168.84 150.1L168.89 150.15C168.89 150.13 168.89 150.12 168.89 150.1C170.38 150.07 171.9 150.01 173.45 149.92C173.45 149.93 173.45 149.93 173.45 149.94L173.47 149.92C173.74 149.9 174.01 149.88 174.29 149.86C174.29 149.87 174.29 149.88 174.29 149.89L174.32 150.31L173.89 150.33L168.48 150.59L168.04 150.61L168.02 150.16C168.02 150.14 168.02 150.13 168.02 150.11Z" fill="black"/>
<path d="M166.53 45.41C166.49 45.39 166.44 45.37 166.4 45.36L166.43 45.32C166.46 45.35 166.5 45.38 166.53 45.41Z" fill="black"/>
<path d="M164.5 64.16C167.06 68.33 169.48 72.6 171.71 76.96C172.82 79.14 173.87 81.35 174.88 83.59C175.38 84.71 175.88 85.82 176.3 86.99L177.38 90.51C178.83 95.19 179.98 99.96 181.05 104.74C182.01 109.54 182.92 114.36 183.53 119.22C184.77 128.77 185.43 138.39 185.05 148.04L184.55 148.16L184.95 148.5C184.71 148.55 184.48 148.59 184.24 148.63L184.25 148.51C184.69 138.79 184.08 128.99 182.86 119.31C182.27 114.46 181.39 109.66 180.45 104.86C179.4 100.1 178.27 95.34 176.85 90.67L175.79 87.17C175.39 86.04 174.88 84.92 174.39 83.8C173.4 81.57 172.36 79.36 171.26 77.18C169.08 72.81 166.72 68.53 164.21 64.34C159.21 55.94 153.51 47.96 147.29 40.41C153.6 47.89 159.39 55.81 164.5 64.16Z" fill="black"/>
<path d="M154.83 56.31C155.53 57.25 156.07 58.29 156.7 59.27L158.52 62.25C159.13 63.24 159.62 64.3 160.17 65.33C161.22 67.41 162.4 69.42 163.27 71.59C164.19 73.73 165.15 75.85 166.05 78L168.43 84.57C168.8 85.67 169.27 86.75 169.57 87.87L170.56 91.23L172.55 97.93L174.16 104.73L174.97 108.13C175.25 109.26 175.52 110.4 175.7 111.55L176.96 118.43L177.58 121.87C177.8 123.02 178.01 124.16 178.14 125.32L179.04 132.12C176.95 124.98 174.58 117.94 172.01 110.97C168.59 101.77 164.76 92.72 160.32 83.96C158.08 79.59 155.7 75.29 153.15 71.1C150.58 66.92 147.8 62.86 144.8 58.97C141.8 55.09 138.46 51.46 134.84 48.15C131.21 44.85 127.24 41.9 122.88 39.65V39.64C127.4 39.19 132.3 39.04 137.55 39.35C139.68 40.32 141.54 41.75 143.35 43.22C144.21 44 145.14 44.71 145.95 45.55L148.4 48.05C149.17 48.92 149.9 49.83 150.66 50.71L151.78 52.05L152.8 53.47L154.83 56.31Z" fill="url(#paint10_linear)"/>
<path d="M146.07 45.42L148.57 47.88C149.36 48.75 150.11 49.64 150.88 50.52L152.03 51.85L153.08 53.26L155.18 56.08C155.89 57.01 156.45 58.04 157.1 59.01L158.97 61.98C159.59 62.98 160.09 64.04 160.66 65.06C161.73 67.14 162.94 69.16 163.83 71.33C164.78 73.47 165.76 75.59 166.68 77.74L169.14 84.32C169.53 85.42 170 86.5 170.32 87.63L171.34 90.98L173.38 97.7L175.02 104.53L175.84 107.94C176.12 109.08 176.39 110.21 176.59 111.37L177.87 118.27L178.51 121.72C178.73 122.87 178.94 124.02 179.07 125.18L180.94 139.02C180.34 136.71 179.7 134.41 179.04 132.12L178.14 125.32C178.01 124.16 177.8 123.02 177.58 121.87L176.96 118.43L175.7 111.55C175.52 110.4 175.25 109.26 174.97 108.13L174.16 104.73L172.55 97.93L170.56 91.23L169.57 87.87C169.27 86.75 168.8 85.67 168.43 84.57L166.05 78C165.15 75.85 164.19 73.73 163.27 71.59C162.4 69.42 161.22 67.41 160.17 65.33C159.62 64.3 159.13 63.24 158.52 62.25L156.7 59.27C156.07 58.29 155.53 57.25 154.83 56.31L152.8 53.47L151.78 52.05L150.66 50.71C149.9 49.83 149.17 48.92 148.4 48.05L145.95 45.55C145.14 44.71 144.21 44 143.35 43.22C141.54 41.75 139.68 40.32 137.55 39.35C139.69 40.29 141.59 41.69 143.42 43.12C144.3 43.89 145.24 44.59 146.07 45.42Z" fill="black"/>
<path d="M134.39 164.65C134.39 164.64 139.85 155.63 141.8 147.43C141.8 147.43 141.89 147.45 142.07 147.5C141.43 150.17 140.51 152.76 139.49 155.29C138.8 156.96 138.06 158.59 137.21 160.21C136.37 161.77 135.42 163.24 134.41 164.67C134.4 164.66 134.4 164.66 134.39 164.65Z" fill="black"/>
<path d="M144.4 59.28C141.48 55.36 138.22 51.69 134.67 48.33C131.11 44.98 127.2 41.97 122.88 39.65C127.24 41.9 131.21 44.85 134.84 48.15C138.46 51.46 141.8 55.09 144.8 58.97C147.8 62.86 150.58 66.92 153.15 71.1C155.7 75.29 158.08 79.59 160.32 83.96C164.76 92.72 168.59 101.77 172.01 110.97C174.58 117.94 176.95 124.98 179.04 132.12L179.97 139.19L180.94 139.02L180.95 139.09L179.98 139.26C177.51 129.81 174.51 120.47 171.15 111.29C167.79 102.1 163.94 93.09 159.62 84.31C157.43 79.94 155.1 75.63 152.6 71.43C150.08 67.24 147.35 63.18 144.4 59.28Z" fill="black"/>
<path d="M128.92 120.32C129.98 118.91 131.08 117.6 131.83 116.06C132.61 114.57 133.37 113.03 133.77 111.36C134.2 109.7 134.42 107.97 134.44 106.24C134.47 104.51 134.34 102.76 133.97 101.06L134.07 101.03C135.04 104.41 135.25 108.03 134.55 111.54C134.24 113.29 133.65 115.04 132.69 116.57C132.44 116.94 132.2 117.32 131.93 117.68C131.63 118.02 131.34 118.36 131.03 118.68C130.44 119.36 129.68 119.86 128.98 120.4L128.92 120.32Z" fill="black"/>
<path d="M127.53 242.52C128.52 241.99 129.46 241.37 130.36 240.68C128.75 242.07 126.93 243.25 124.96 244.12C125.18 244.01 125.4 243.89 125.62 243.76C126.28 243.37 126.92 242.97 127.53 242.52Z" fill="black"/>
<path d="M117.6 88.2C120.79 92.06 122.27 97.17 122.16 102.1C121.99 107.05 120.36 111.92 117.36 115.71C114.4 119.51 109.87 122.03 105.13 122.07C100.37 122.18 95.81 119.75 92.56 116.12C89.28 112.46 87.34 107.48 87.29 102.42C87.23 97.37 89.09 92.35 92.28 88.62C95.47 84.9 99.94 82.37 104.76 82.22C109.57 81.98 114.46 84.32 117.6 88.2ZM115.55 104.11C116.24 103.32 112.62 96.93 105.83 96.61C99 96.28 94.06 104.52 94.68 105.36C95.19 106.06 99.32 101.43 105.61 101.72C111.85 102.02 114.97 104.76 115.55 104.11Z" fill="white"/>
<path d="M117 45.03C114.33 43.82 111.55 42.79 108.67 42.29V42.27C108.73 42.26 108.79 42.24 108.85 42.22C111.7 42.72 114.43 43.71 117.06 44.89C119.76 46.06 122.29 47.58 124.76 49.19C129.66 52.46 134 56.5 137.91 60.9L140.77 64.26L143.38 67.82L144.69 69.6L145.86 71.47L148.21 75.21C149.69 77.75 151.01 80.39 152.41 82.98L156.03 91.03C158.51 95.57 160.7 100.24 162.74 104.98C164.76 109.74 166.57 114.59 168.18 119.51C169.81 124.42 171.1 129.44 172.18 134.5C173.27 139.56 173.9 144.7 174.29 149.86C174.01 149.88 173.74 149.9 173.47 149.92L173.85 149.49L173.42 149.51C173.07 144.52 172.47 139.55 171.44 134.65C170.38 129.62 169.13 124.61 167.53 119.72C165.95 114.81 164.17 109.97 162.18 105.22C160.17 100.48 157.99 95.79 155.55 91.27L155.54 91.25L155.53 91.24L151.97 83.19C150.59 80.61 149.29 77.97 147.83 75.43L145.52 71.69L144.36 69.82L143.07 68.04L140.5 64.47L137.67 61.11C133.81 56.71 129.5 52.65 124.64 49.36C122.2 47.75 119.68 46.22 117 45.03Z" fill="black"/>
<path d="M115.67 132.62C112.73 133.42 109.7 133.86 106.67 133.96C106.63 133.92 106.6 133.87 106.56 133.83C108.01 133.67 109.44 133.41 110.86 133.1C112.41 132.77 113.95 132.37 115.44 131.85C116.92 131.32 118.34 130.66 119.75 130C121.16 129.33 122.49 128.56 123.82 127.64L123.9 127.71C122.94 129.03 121.62 130.06 120.21 130.89C118.79 131.71 117.22 132.18 115.67 132.62Z" fill="black"/>
<path d="M105.83 96.61C112.62 96.93 116.24 103.32 115.55 104.11C114.97 104.76 111.85 102.02 105.61 101.72C99.3199 101.43 95.1899 106.06 94.6799 105.36C94.0599 104.52 98.9999 96.28 105.83 96.61Z" fill="black"/>
<path d="M156.8 114.44C156.8 114.45 156.81 114.45 156.81 114.46L156.8 114.44ZM121.46 70.08C116.56 66.35 111.03 63.34 105 61.88C105.04 61.84 105.07 61.81 105.09 61.78C108.03 62.42 110.87 63.45 113.59 64.74C116.47 66.1 119.2 67.78 121.76 69.68C126.91 73.45 131.47 77.95 135.68 82.73C139.87 87.52 143.69 92.64 147.21 97.94C150.73 103.24 153.94 108.72 156.8 114.43C157.56 115.82 158.34 117.19 159.08 118.58C159.77 120 160.54 121.39 161.18 122.84C162.53 125.7 163.73 128.63 164.81 131.61C165.85 134.6 166.77 137.64 167.48 140.73C168.15 143.68 168.7 146.64 168.86 149.7L168.44 149.72L168.84 150.1C168.57 150.1 168.29 150.11 168.02 150.11C167.86 147.06 167.29 143.95 166.58 140.94C165.85 137.89 164.93 134.89 163.88 131.94C162.81 129 161.62 126.09 160.28 123.26C159.64 121.83 158.89 120.45 158.2 119.05C157.46 117.66 156.69 116.3 155.93 114.92L155.92 114.9V114.89C153.1 109.24 149.85 103.78 146.43 98.46C142.98 93.14 139.25 88.01 135.13 83.2C131.01 78.4 126.53 73.88 121.46 70.08Z" fill="black"/>
<path d="M108.85 42.22C108.79 42.24 108.73 42.26 108.67 42.27L108.68 42.19C108.74 42.2 108.79 42.21 108.85 42.22Z" fill="black"/>
<path d="M106.59 54.09C107.58 54.32 108.55 54.56 109.53 54.82C112.96 55.74 116.32 56.93 119.59 58.31C121.21 59.05 122.84 59.76 124.38 60.65C125.17 61.08 125.95 61.49 126.71 62C127.48 62.49 128.22 62.95 128.95 63.43C128.4 61.85 127.49 60.41 126.43 59.12C125.94 58.44 125.32 57.87 124.75 57.25C124.14 56.68 123.51 56.11 122.87 55.57C120.25 53.46 117.21 51.9 114.08 50.72C112.52 50.05 110.89 49.65 109.28 49.16C107.66 48.74 106 48.45 104.36 48.12C102.69 47.91 101.03 47.66 99.36 47.49L95.21 47.23C98.55 45.64 103.09 43.79 108.67 42.27V42.29C111.55 42.79 114.33 43.82 117 45.03C119.68 46.22 122.2 47.75 124.64 49.36C129.5 52.65 133.81 56.71 137.67 61.11L140.5 64.47L143.07 68.04L144.36 69.82L145.52 71.69L147.83 75.43C149.29 77.97 150.59 80.61 151.97 83.19L155.53 91.24L155.54 91.25L155.55 91.27C157.99 95.79 160.17 100.48 162.18 105.22C164.17 109.97 165.95 114.81 167.53 119.72C169.13 124.61 170.38 129.62 171.44 134.65C172.47 139.55 173.07 144.52 173.42 149.51L168.86 149.7C168.7 146.64 168.15 143.68 167.48 140.73C166.77 137.64 165.85 134.6 164.81 131.61C163.73 128.63 162.53 125.7 161.18 122.84C160.54 121.39 159.77 120 159.08 118.58C158.34 117.19 157.56 115.82 156.8 114.43C153.94 108.72 150.73 103.24 147.21 97.94C143.69 92.64 139.87 87.52 135.68 82.73C131.47 77.95 126.91 73.45 121.76 69.68C119.2 67.78 116.47 66.1 113.59 64.74C110.87 63.45 108.03 62.42 105.09 61.78C105.69 61.08 106.24 60.34 106.71 59.52C106.89 59.18 107.07 58.82 107.2 58.43C107.32 58.03 107.43 57.58 107.3 57.04C107.17 56.49 106.62 56.05 106.16 55.97L106.59 54.09Z" fill="url(#paint11_linear)"/>
<path d="M106.67 133.96C106.5 133.97 106.33 133.98 106.16 133.98V133.88C106.29 133.87 106.43 133.85 106.56 133.83C106.6 133.87 106.63 133.92 106.67 133.96Z" fill="black"/>
<path d="M112.06 144.75C109.98 138.59 106.04 133.07 100.94 128.93L101.06 128.77C103.05 130.26 104.9 131.96 106.56 133.83C106.43 133.85 106.29 133.87 106.16 133.88V133.98C106.33 133.98 106.5 133.97 106.67 133.96C109.36 137.03 111.53 140.56 113 144.41C115.45 150.67 115.75 157.55 115.35 164.13C115.21 167.44 114.91 170.79 114.2 174.09C113.83 175.74 113.38 177.38 112.73 178.96C112.06 180.54 111.36 182.01 110.61 183.5C109.1 186.45 107.45 189.34 105.77 192.15C104.14 194.99 102.64 197.92 101.09 200.84L100.91 200.76C101.98 197.63 103.18 194.55 104.59 191.54C106 188.54 107.48 185.63 108.83 182.64C109.51 181.17 110.22 179.66 110.81 178.19C111.38 176.72 111.89 175.2 112.26 173.64C113.05 170.52 113.47 167.29 113.74 164.03C114.34 157.53 114.24 150.91 112.06 144.75Z" fill="black"/>
<path d="M99.12 52.58C101.63 52.99 104.12 53.5 106.59 54.09L106.16 55.97C105.69 55.85 105.28 55.88 104.89 55.92C103.36 56.13 102 56.61 100.6 57.04L96.46 58.38C93.87 59.2 91.27 59.97 88.64 60.65C88.62 57.57 88.57 54.5 88.54 51.44C92.07 51.6 95.61 52.01 99.12 52.58Z" fill="url(#paint12_linear)"/>
<path d="M104.57 61.67C104.74 61.71 104.92 61.74 105.09 61.78C105.07 61.81 105.04 61.84 105 61.88C104.85 61.84 104.7 61.8 104.55 61.77L104.57 61.67Z" fill="black"/>
<path d="M100.91 206.62C103.86 200.02 107.71 193.89 112.04 188.15C113.15 186.73 114.25 185.32 115.44 183.95C116.65 182.57 117.89 181.31 119.08 180C121.48 177.38 123.78 174.68 126.14 171.99C128.49 169.31 130.84 166.65 132.9 163.81C133.93 162.39 134.89 160.92 135.75 159.41C136.59 157.89 137.37 156.29 138.08 154.69C139.48 151.46 140.7 148.13 141.35 144.69C142.05 141.25 142.25 137.71 142.07 134.19C141.76 127.12 139.88 120.15 137.08 113.6C140.29 119.97 142.39 126.95 143.05 134.12C143.34 137.71 143.22 141.35 142.59 144.92C142.45 145.79 142.27 146.65 142.07 147.5C141.89 147.45 141.8 147.43 141.8 147.43C139.85 155.63 134.39 164.64 134.39 164.65C134.4 164.66 134.4 164.66 134.41 164.67C134.37 164.72 134.34 164.77 134.3 164.82C132.2 167.77 129.83 170.48 127.51 173.18C126.18 174.72 124.86 176.29 123.51 177.84C122.52 179 121.51 180.15 120.49 181.28C119.3 182.62 118.05 183.91 116.92 185.23C115.78 186.55 114.71 187.97 113.63 189.37C109.33 194.97 105.5 200.96 102.57 207.36C101.84 208.96 101.18 210.6 100.64 212.24C100.39 213.02 100.2 213.92 99.9801 214.75C99.8001 215.61 99.61 216.47 99.45 217.33C98.87 220.77 98.6001 224.28 99.0001 227.73C99.4501 231.14 100.52 234.53 102.56 237.32C104.57 240.11 107.35 242.44 110.46 243.9C113.61 245.29 117.29 245.43 120.74 244.94C123.11 244.54 125.41 243.71 127.53 242.52C126.92 242.97 126.28 243.37 125.62 243.76C125.4 243.89 125.18 244.01 124.96 244.12C123.64 244.71 122.26 245.16 120.84 245.46C119.07 245.83 117.25 245.92 115.45 245.88C113.63 245.82 111.8 245.47 110.08 244.8C109.23 244.47 108.39 244.05 107.63 243.54C106.88 243.03 106.07 242.59 105.39 241.98L104.33 241.11C103.98 240.82 103.67 240.47 103.34 240.15C102.67 239.52 102.11 238.79 101.54 238.07C99.2801 235.14 98.0401 231.54 97.4701 227.93C96.9501 224.29 97.1501 220.61 97.7501 217.03C97.9001 216.14 98.09 215.25 98.27 214.36C98.5 213.47 98.67 212.63 98.95 211.7C99.51 209.95 100.18 208.27 100.91 206.62Z" fill="black"/>
<path d="M104.99 69.27C110.68 69.78 116.13 72.34 120.25 76.23L121.79 77.69L123.19 79.29C124.16 80.31 124.92 81.51 125.78 82.62C126.58 83.78 127.28 85.01 128.03 86.19C128.69 87.43 129.33 88.68 129.97 89.92L127.8 86.33C126.99 85.19 126.24 84.01 125.38 82.91C124.49 81.84 123.71 80.68 122.71 79.71L121.29 78.19L119.74 76.8C117.63 75.03 115.37 73.38 112.83 72.31C110.32 71.19 107.64 70.49 104.9 70.26C100.47 69.82 96.01 70.64 91.79 72.13C92.84 71.54 93.88 70.92 94.89 70.26C98.17 69.38 101.57 68.98 104.99 69.27Z" fill="black"/>
<path d="M99.26 51.69C96.27 51.18 93.27 50.78 90.23 50.55L94.44 48.15L99.28 48.41C100.93 48.56 102.57 48.79 104.22 48.98C105.84 49.3 107.47 49.58 109.08 49.96C110.67 50.41 112.29 50.77 113.83 51.38C115.41 51.88 116.89 52.61 118.39 53.31L120.55 54.53C121.24 54.98 121.91 55.46 122.6 55.92C123.25 56.43 123.89 56.96 124.52 57.49C125.1 58.08 125.73 58.62 126.25 59.27C127.34 60.51 128.31 61.89 128.95 63.43C127.41 62.39 126.11 61.29 124.51 60.43C123 59.47 121.39 58.69 119.79 57.88C116.53 56.39 113.17 55.12 109.73 54.1C106.3 53.08 102.8 52.3 99.26 51.69Z" fill="url(#paint13_linear)"/>
<path d="M94.5701 48.07L94.4401 48.15L94.3201 48.14L94.5701 48.07Z" fill="black"/>
<path d="M89.25 50.49C90.13 49.93 91.85 48.89 94.33 47.66C94.61 47.52 94.91 47.38 95.21 47.23L99.36 47.49C101.03 47.66 102.69 47.91 104.36 48.12C106 48.45 107.66 48.74 109.28 49.16C110.89 49.65 112.52 50.05 114.08 50.72C117.21 51.9 120.25 53.46 122.87 55.57C123.51 56.11 124.14 56.68 124.75 57.25C125.32 57.87 125.94 58.44 126.43 59.12C127.49 60.41 128.4 61.85 128.95 63.43C128.31 61.89 127.34 60.51 126.25 59.27C125.73 58.62 125.1 58.08 124.52 57.49C123.89 56.96 123.25 56.43 122.6 55.92C121.91 55.46 121.24 54.98 120.55 54.53L118.39 53.31C116.89 52.61 115.41 51.88 113.83 51.38C112.29 50.77 110.67 50.41 109.08 49.96C107.47 49.58 105.84 49.3 104.22 48.98C102.57 48.79 100.93 48.56 99.28 48.41L94.44 48.15L94.57 48.07L94.32 48.14L94.44 48.15L90.23 50.55C89.9 50.53 89.58 50.51 89.25 50.49Z" fill="black"/>
<path d="M91.6399 8.55C92.0099 7.55 92.4099 6.56 92.8399 5.59L93.0199 5.67C92.7299 6.42 92.4699 7.18 92.2199 7.95C92.0299 8.18 91.8299 8.38 91.6399 8.55Z" fill="black"/>
<path d="M89.2499 50.49C89.5799 50.51 89.8999 50.53 90.2299 50.55L88.7999 51.37L88.6699 50.86C88.7799 50.8 88.9699 50.67 89.2499 50.49Z" fill="black"/>
<path d="M88.7901 73.31C89.7701 72.88 90.7801 72.49 91.7901 72.13C88.9301 73.76 85.9401 75.17 82.8601 76.36C84.7701 75.22 86.7501 74.19 88.7901 73.31Z" fill="black"/>
<path d="M90.73 5.83C90.74 5.85 90.76 5.8 90.73 5.92C90.71 6.02 90.6 6.21 90.46 6.39C90.17 6.78 89.74 7.17 89.27 7.53C88.33 8.26 87.24 8.91 86.14 9.5C83.9 10.69 81.54 11.69 79.14 12.6C74.33 14.4 69.35 15.81 64.3 16.83C61.78 17.35 59.22 17.77 56.66 18.12C54.09 18.48 51.52 18.78 48.94 18.99C46.35 19.16 43.76 19.27 41.17 19.16C39.88 19.08 38.59 18.96 37.32 18.69C36.7 18.55 36.07 18.38 35.5 18.12C35.31 18.03 35.12 17.93 34.95 17.81C34.73 17.52 34.5 17.24 34.27 16.97C34.26 16.95 34.25 16.92 34.25 16.9C34.17 16.32 34.55 15.76 34.95 15.29C35.36 14.82 35.85 14.4 36.36 14.01C37.38 13.24 38.51 12.61 39.64 12C41.94 10.83 44.35 9.88 46.79 9.06C49.22 8.23 51.7 7.52 54.19 6.92C56.68 6.31 59.16 5.79 61.68 5.39C66.72 4.59 71.83 4.06 76.93 3.92C79.48 3.85 82.03 3.87 84.54 4.11C85.79 4.23 87.03 4.4 88.2 4.69C88.78 4.83 89.35 5.01 89.83 5.22C90.32 5.42 90.72 5.76 90.73 5.83Z" fill="#141414"/>
<path d="M88.6701 50.86L88.5701 50.45C88.8001 50.46 89.0201 50.47 89.2501 50.49C88.9701 50.67 88.7801 50.8 88.6701 50.86Z" fill="black"/>
<path d="M109.53 54.82C108.55 54.56 107.58 54.32 106.59 54.09C104.12 53.5 101.63 52.99 99.12 52.58C95.61 52.01 92.07 51.6 88.54 51.44C88.54 51.28 88.54 51.13 88.54 50.97L88.56 50.95C88.56 50.95 88.6 50.92 88.67 50.86L88.8 51.37L90.23 50.55C93.27 50.78 96.27 51.18 99.26 51.69C102.8 52.3 106.3 53.08 109.73 54.1C113.17 55.12 116.53 56.39 119.79 57.88C121.39 58.69 123 59.47 124.51 60.43C126.11 61.29 127.41 62.39 128.95 63.43C128.22 62.95 127.48 62.49 126.71 62C125.95 61.49 125.17 61.08 124.38 60.65C122.84 59.76 121.21 59.05 119.59 58.31C116.32 56.93 112.96 55.74 109.53 54.82Z" fill="black"/>
<path d="M88.6401 60.65C88.6401 60.66 88.6401 60.67 88.6401 60.69C88.4601 60.73 88.2901 60.76 88.1101 60.79C88.2901 60.74 88.4601 60.7 88.6401 60.65Z" fill="black"/>
<path d="M94.09 47.24L94.22 47.17L94.34 47.18L95.21 47.23C94.91 47.38 94.61 47.52 94.33 47.66C91.85 48.89 90.13 49.93 89.25 50.49C89.02 50.47 88.8 50.46 88.57 50.45L88.67 50.86C88.6 50.92 88.56 50.95 88.56 50.95L88.54 50.97C88.53 50.8 88.53 50.63 88.53 50.46C88.53 50.44 88.53 50.42 88.53 50.4L94.09 47.24Z" fill="black"/>
<path d="M88.54 50.97C88.54 51.13 88.54 51.28 88.54 51.44L87.95 51.41L88.54 50.97Z" fill="black"/>
<path d="M86.8301 51.36L88.3101 50.52L88.5301 50.4C88.5301 50.42 88.5301 50.44 88.5301 50.46C88.5301 50.63 88.5301 50.8 88.5401 50.97L87.9501 51.41L86.8301 51.36Z" fill="black"/>
<path d="M91.33 153.5C90.16 146.33 87.29 139.48 83.2 133.42L83.36 133.3C85.58 136.23 87.47 139.41 88.99 142.77C90.53 146.12 91.67 149.68 92.36 153.31C93.08 156.93 93.46 160.62 93.51 164.33C93.58 166.17 93.41 168.08 93.2 169.9C92.98 171.73 92.7 173.54 92.43 175.36L90.73 186.22L89.82 191.64C89.52 193.46 89.15 195.26 88.94 197.02C88.53 200.64 88.14 204.26 88.11 207.87C88.07 211.48 88.32 215.09 88.98 218.64C90.4 225.7 92.14 232.97 96.45 238.78C98.61 241.62 101.43 243.99 104.76 245.36C108.08 246.73 111.75 247.25 115.35 246.97C118.69 246.69 122 245.73 124.96 244.12C126.93 243.25 128.75 242.07 130.36 240.68L130.39 240.7C130.36 240.74 130.32 240.78 130.29 240.82C129.69 241.54 129.01 242.21 128.26 242.77C127.51 243.33 126.73 243.83 125.92 244.29C122.7 246.12 119.11 247.32 115.41 247.66C111.71 248 107.93 247.48 104.45 246.13C103.57 245.8 102.76 245.34 101.92 244.93C101.49 244.72 101.12 244.43 100.72 244.19C100.33 243.93 99.92 243.7 99.57 243.39C98.06 242.27 96.76 240.9 95.56 239.46C93.26 236.5 91.57 233.12 90.31 229.64C89.68 227.89 89.14 226.12 88.65 224.34C88.18 222.56 87.69 220.78 87.36 218.94C85.93 211.62 86.2 204.08 87.19 196.8C87.45 194.93 87.83 193.15 88.15 191.35L89.1 185.95L90.92 175.12L91.75 169.71C92.01 167.89 92.21 166.15 92.19 164.33C92.23 160.71 91.95 157.07 91.33 153.5Z" fill="black"/>
<path d="M86.8401 54.54C86.7401 53.49 86.6601 52.43 86.6001 51.38L86.8301 51.36L87.9501 51.41L88.5401 51.44C88.5701 54.5 88.6201 57.57 88.6401 60.65C88.4601 60.7 88.2901 60.74 88.1101 60.79C88.2901 60.76 88.4601 60.73 88.6401 60.69C88.6601 62.33 88.6601 63.97 88.6601 65.62L88.4601 65.64C87.6701 62.03 87.1801 58.38 86.8601 54.72C87.0601 54.67 87.2501 54.61 87.4401 54.55L87.4201 54.45C87.2301 54.48 87.0301 54.51 86.8401 54.54Z" fill="black"/>
<path d="M87.4201 54.45L87.4401 54.55C87.2501 54.61 87.0601 54.67 86.8601 54.72C86.8501 54.66 86.8401 54.6 86.8401 54.54C87.0301 54.51 87.2301 54.48 87.4201 54.45Z" fill="black"/>
<path d="M104.76 82.22C99.9401 82.37 95.4701 84.9 92.2801 88.62C89.0901 92.35 87.2301 97.37 87.2901 102.42C87.3401 107.48 89.2801 112.46 92.5601 116.12C95.8101 119.75 100.37 122.18 105.13 122.07C109.87 122.03 114.4 119.51 117.36 115.71C120.36 111.92 121.99 107.05 122.16 102.1C122.27 97.17 120.79 92.06 117.6 88.2C114.46 84.32 109.57 81.98 104.76 82.22ZM91.5301 116.94C88.4601 112.66 87.1701 107.48 87.0901 102.43C87.1001 97.37 88.2801 92.17 91.2901 87.85C92.7701 85.71 94.7301 83.82 97.0701 82.53C99.3901 81.22 102.08 80.52 104.75 80.55C107.42 80.61 110.05 81.38 112.32 82.68C114.59 83.98 116.53 85.77 118.1 87.8C121.26 91.86 123 96.92 123.25 102.09C123.47 107.26 122.06 112.62 118.85 116.86C117.27 118.98 115.26 120.82 112.91 122.14C110.56 123.46 107.86 124.18 105.15 124.21C102.44 124.2 99.7301 123.51 97.3901 122.21C95.0301 120.93 93.0501 119.06 91.5301 116.94Z" fill="black"/>
<path d="M87.0199 47.61L87.0399 47.71C86.8299 47.78 86.6299 47.85 86.4199 47.92C86.4199 47.85 86.4199 47.79 86.4199 47.72C86.6199 47.68 86.8199 47.65 87.0199 47.61Z" fill="black"/>
<path d="M86.54 50.53C86.49 49.66 86.45 48.79 86.42 47.92C86.63 47.85 86.83 47.78 87.04 47.71L87.02 47.61C86.82 47.65 86.62 47.68 86.42 47.72C86.31 43.58 86.51 39.43 86.77 35.3C87.12 30.23 87.57 25.16 88.52 20.17C89.29 16.23 90.26 12.31 91.64 8.55C91.83 8.38 92.03 8.18 92.22 7.95C90.91 11.97 90.1 16.15 89.51 20.33C88.77 25.3 88.51 30.34 88.37 35.37C88.22 40.38 88.51 45.39 88.53 50.4L88.31 50.52L86.83 51.36L86.6 51.38C86.58 51.1 86.56 50.81 86.54 50.53Z" fill="black"/>
<path d="M81.5799 76.86C82.0099 76.7 82.4399 76.54 82.8599 76.36C82.3799 76.64 81.8999 76.94 81.4299 77.24C79.0599 78.71 76.7899 80.35 74.6599 82.16C76.5299 80.35 78.5399 78.68 80.6699 77.19C80.9699 77.08 81.2799 76.97 81.5799 76.86Z" fill="black"/>
<path d="M80.6699 77.19C83.1199 75.43 85.7399 73.9 88.4799 72.61C90.5299 71.65 92.6799 70.84 94.8899 70.26C93.8799 70.92 92.8399 71.54 91.7899 72.13C90.7799 72.49 89.7699 72.88 88.7899 73.31C86.7499 74.19 84.7699 75.22 82.8599 76.36C82.4399 76.54 82.0099 76.7 81.5799 76.86C81.2799 76.97 80.9699 77.08 80.6699 77.19Z" fill="black"/>
<path d="M71.7999 51.45C73.5399 51.28 75.2599 50.91 76.9799 50.6C78.6799 50.23 80.3799 49.78 82.0699 49.34C83.5299 48.89 84.9799 48.43 86.4199 47.92C86.4499 48.79 86.4899 49.66 86.5399 50.53C86.5599 50.81 86.5799 51.1 86.5999 51.38C86.6599 52.43 86.7399 53.49 86.8399 54.54C85.3399 54.76 83.8499 55.01 82.3599 55.28L77.3099 56.05C73.9499 56.5 70.5899 57.09 67.1999 57.36C63.8099 57.66 60.4099 57.81 57.0099 57.68C55.3099 57.62 53.6099 57.52 51.9199 57.31C50.3399 57.13 48.7499 56.88 47.2099 56.46C47.1399 55.74 47.0699 55.02 46.9899 54.3C46.8299 52.92 46.6399 51.54 46.4399 50.17C47.8899 50.65 49.3899 50.98 50.8999 51.25C52.6099 51.58 54.3499 51.77 56.0899 51.93C59.5799 52.2 63.0799 52.16 66.5699 51.94L69.1899 51.75L71.7999 51.45Z" fill="white"/>
<path d="M95.19 253.81C91.6 253.08 88.11 251.87 84.87 250.13C71.92 242.72 62.69 230.01 58.27 216C58.47 216.62 58.68 217.23 58.9 217.84C61.01 223.58 63.84 229.13 67.63 233.95C69.5 236.38 71.58 238.64 73.75 240.76C75.92 242.9 78.2 244.94 80.66 246.74C83.12 248.53 85.75 250.18 88.65 251.21C90.07 251.77 91.49 252.27 92.9 252.81L93.97 253.2C94.31 253.34 94.71 253.45 94.96 253.61C95.07 253.69 95.15 253.75 95.19 253.81Z" fill="black"/>
<path d="M58.9199 150.08C57.9499 157.34 56.9499 164.6 56.2199 171.86C55.9699 174.41 55.7699 176.96 55.6599 179.51C55.7399 177.25 55.8199 174.97 55.9299 172.71C56.0799 169.7 56.3099 166.68 56.6099 163.68C57.2199 157.66 58.0799 151.67 59.1899 145.71L58.9899 145.66C58.5399 147.48 58.1099 149.31 57.7299 151.15C57.7899 150.74 57.8599 150.34 57.9199 149.93C59.0899 142.69 60.5599 135.5 62.1999 128.36L62.3999 128.4C61.0099 135.6 59.8999 142.83 58.9199 150.08Z" fill="black"/>
<path d="M60.4699 217.29C58.4999 211.62 57.1999 205.73 56.3699 199.79C55.5499 193.84 55.4099 187.81 55.5899 181.78C55.5899 182.1 55.5799 182.43 55.5799 182.75C55.5399 186.39 55.7599 189.98 56.1099 193.63C56.7799 200.87 57.8599 208.08 60.1099 214.96C61.2199 218.39 62.5299 221.77 64.1999 224.96C64.9599 226.6 65.9399 228.11 66.8299 229.67L68.3299 231.91L69.0799 233.04C69.3399 233.4 69.6199 233.75 69.8999 234.1L71.5599 236.23C72.1399 236.92 72.7599 237.56 73.3599 238.23C74.5399 239.58 75.8499 240.88 77.1399 242.12C79.7499 244.59 82.6199 246.76 85.7599 248.47C92.0299 251.89 99.3299 253.33 106.5 252.93C110.11 252.75 113.71 252.24 117.2 251.33C120.68 250.41 124.07 249.07 127.08 247.11C130.08 245.16 132.69 242.55 134.37 239.38C135.19 237.81 135.88 236.07 136.07 234.37C136.08 234.16 136.07 233.96 136.03 233.8C135.98 233.65 135.96 233.65 135.89 233.64C135.67 233.64 135.25 233.84 134.96 234.13C134.34 234.7 133.84 235.45 133.38 236.23C132.46 237.75 131.54 239.3 130.39 240.7L130.36 240.68C129.46 241.37 128.52 241.99 127.53 242.52C128.37 241.91 129.14 241.22 129.78 240.4C130.93 239.02 131.83 237.44 132.78 235.86C133.24 235.07 133.75 234.26 134.48 233.59C134.85 233.27 135.26 232.92 135.96 232.9C136.36 232.91 136.7 233.31 136.75 233.6C136.82 233.89 136.83 234.15 136.81 234.4C136.63 236.35 135.96 238.09 135.14 239.78C133.45 243.13 130.77 245.92 127.69 248.02C124.6 250.14 121.12 251.61 117.56 252.65C113.99 253.69 110.3 254.28 106.6 254.52C103.05 254.77 99.4499 254.59 95.9299 253.95C95.9299 253.82 95.8999 253.68 95.8399 253.57C95.7099 253.3 95.4999 253.15 95.3199 253.03C94.9199 252.8 94.5699 252.72 94.2099 252.58L93.1399 252.19C91.7199 251.67 90.2699 251.17 88.8699 250.63C86.0199 249.66 83.4899 247.97 81.0799 246.19C78.6699 244.37 76.4299 242.35 74.3399 240.18C72.2399 238 70.2799 235.72 68.5199 233.29C64.9599 228.44 62.3999 222.96 60.4699 217.29Z" fill="black"/>
<path d="M81.08 246.19C83.49 247.97 86.02 249.66 88.87 250.63C90.27 251.17 91.72 251.67 93.14 252.19L94.21 252.58C94.57 252.72 94.92 252.8 95.32 253.03C95.5 253.15 95.71 253.3 95.84 253.57C95.9 253.68 95.93 253.82 95.93 253.95C95.68 253.91 95.44 253.86 95.19 253.81C95.15 253.75 95.07 253.69 94.96 253.61C94.71 253.45 94.31 253.34 93.97 253.2L92.9 252.81C91.49 252.27 90.07 251.77 88.65 251.21C85.75 250.18 83.12 248.53 80.66 246.74C78.2 244.94 75.92 242.9 73.75 240.76C71.58 238.64 69.5 236.38 67.63 233.95C63.84 229.13 61.01 223.58 58.9 217.84C58.68 217.23 58.47 216.62 58.27 216C58.23 215.86 58.18 215.72 58.14 215.58C57 212.05 56.16 208.43 55.52 204.78C54.88 201.14 54.45 197.46 54.18 193.79C54.09 192.62 54.01 191.44 53.95 190.25C53.89 187.4 53.94 184.56 54.06 181.73C54.21 178.18 54.43 174.63 54.75 171.09C55.54 164.4 56.66 157.78 57.73 151.15C58.11 149.31 58.54 147.48 58.99 145.66L59.19 145.71C58.08 151.67 57.22 157.66 56.61 163.68C56.31 166.68 56.08 169.7 55.93 172.71C55.82 174.97 55.74 177.25 55.66 179.51C55.64 180.27 55.62 181.03 55.59 181.78C55.41 187.81 55.55 193.84 56.37 199.79C57.2 205.73 58.5 211.62 60.47 217.29C62.4 222.96 64.96 228.44 68.52 233.29C70.28 235.72 72.24 238 74.34 240.18C76.43 242.35 78.67 244.37 81.08 246.19Z" fill="black"/>
<path d="M57.73 151.15C56.66 157.78 55.54 164.4 54.75 171.09C54.97 168.57 55.24 166.06 55.57 163.55C56.13 159.39 56.85 155.25 57.73 151.15Z" fill="black"/>
<path d="M54.63 200.02C54.22 196.77 54.01 193.51 53.95 190.25C54.01 191.44 54.09 192.62 54.18 193.79C54.45 197.46 54.88 201.14 55.52 204.78C56.16 208.43 57 212.05 58.14 215.58C58.18 215.72 58.23 215.86 58.27 216C57.51 213.71 56.86 211.39 56.29 209.04C55.57 206.07 54.99 203.06 54.63 200.02Z" fill="black"/>
<path d="M54.06 181.73C53.94 184.56 53.89 187.4 53.95 190.25C53.81 187.75 53.76 185.22 53.83 182.72C53.93 179.03 54.25 175.35 54.67 171.7C54.69 171.5 54.72 171.29 54.75 171.09C54.43 174.63 54.21 178.18 54.06 181.73Z" fill="black"/>
<path d="M56.98 58.18C55.27 58.05 53.57 57.89 51.88 57.61C50.3 57.37 48.74 57.06 47.22 56.57C47.22 56.53 47.21 56.49 47.21 56.46C48.75 56.88 50.34 57.13 51.92 57.31C53.61 57.52 55.31 57.62 57.01 57.68C60.41 57.81 63.81 57.66 67.2 57.36C70.59 57.09 73.95 56.5 77.31 56.05L82.36 55.28C83.85 55.01 85.34 54.76 86.84 54.54C86.84 54.6 86.85 54.66 86.86 54.72C85.42 55.17 83.96 55.57 82.5 55.96C80.83 56.34 79.16 56.7 77.48 57.04C74.1 57.63 70.68 58 67.26 58.16C63.84 58.36 60.4 58.41 56.98 58.18Z" fill="black"/>
<path d="M82.0699 49.34C80.3799 49.78 78.6799 50.23 76.9799 50.6C75.2599 50.91 73.5399 51.28 71.7999 51.45L69.1899 51.75L66.5699 51.94C63.0799 52.16 59.5799 52.2 56.0899 51.93C54.3499 51.77 52.6099 51.58 50.8999 51.25C49.3899 50.98 47.8899 50.65 46.4399 50.17C46.4299 50.12 46.4299 50.07 46.4199 50.02C47.8999 50.46 49.4199 50.75 50.9499 50.96C52.6599 51.21 54.3899 51.34 56.1299 51.43C59.5899 51.6 63.0599 51.46 66.5099 51.14L69.0899 50.86L71.6599 50.47C72.5199 50.35 73.3799 50.22 74.2299 50.06L76.7899 49.62C78.4999 49.35 80.1899 48.96 81.8999 48.66C83.3999 48.34 84.8999 48.01 86.4199 47.72C86.4199 47.79 86.4199 47.85 86.4199 47.92C84.9799 48.43 83.5299 48.89 82.0699 49.34Z" fill="black"/>
<path d="M47.2101 56.46C47.2101 56.49 47.2201 56.53 47.2201 56.57C47.1001 56.55 46.9901 56.51 46.8701 56.47L46.9001 56.38C47.0001 56.41 47.1101 56.44 47.2101 56.46Z" fill="black"/>
<path d="M46.4401 50.17C46.2301 50.1 46.0301 50.03 45.8301 49.96L45.8601 49.86C46.0401 49.92 46.2301 49.98 46.4201 50.02C46.4301 50.07 46.4301 50.12 46.4401 50.17Z" fill="black"/>
<path d="M37.8701 74.3C39.6201 75.41 41.3401 76.56 43.0301 77.77C39.4701 76.38 36.1201 74.37 33.3401 71.72C34.9301 72.47 36.4201 73.39 37.8701 74.3Z" fill="black"/>
<path d="M35.3899 18.37C35.9999 18.64 36.6299 18.8 37.2699 18.94C38.5499 19.21 39.8499 19.36 41.1499 19.45C43.7499 19.65 46.3599 19.68 48.9699 19.62C54.1799 19.54 59.3899 19.11 64.5699 18.31C69.7299 17.42 74.8199 16.13 79.7999 14.44C82.2799 13.58 84.7399 12.62 87.1399 11.44C88.3299 10.84 89.5099 10.19 90.6499 9.36C90.9799 9.11 91.3099 8.86 91.6399 8.55C90.2599 12.31 89.2899 16.23 88.5199 20.17C87.5699 25.16 87.1199 30.23 86.7699 35.3C86.5099 39.43 86.3099 43.58 86.4199 47.72C84.8999 48.01 83.3999 48.34 81.8999 48.66C80.1899 48.96 78.4999 49.35 76.7899 49.62L74.2299 50.06C73.3799 50.22 72.5199 50.35 71.6599 50.47L69.0899 50.86L66.5099 51.14C63.0599 51.46 59.5899 51.6 56.1299 51.43C54.3899 51.34 52.6599 51.21 50.9499 50.96C49.4199 50.75 47.8999 50.46 46.4199 50.02C45.9799 47.05 45.4399 44.1 44.7799 41.17C43.7899 36.85 42.8099 32.46 41.0099 28.36C39.4999 24.85 37.6899 21.42 35.3899 18.37Z" fill="#141414"/>
<path d="M47.2201 56.57C47.5701 60.22 47.8201 63.88 47.7001 67.57L47.5001 67.55C47.4301 65.03 47.1801 62.5 46.8501 59.99C46.6001 58.13 46.3101 56.28 46.0001 54.44C45.2901 50.1 44.3701 45.79 43.2301 41.55C42.9601 40.49 42.6501 39.44 42.3201 38.39C41.9801 37.35 41.6901 36.29 41.3101 35.27L40.2601 32.16C39.8701 31.14 39.5101 30.11 39.1501 29.08C37.7501 25.22 36.1701 21.44 34.3601 17.69C34.6401 18 35.0301 18.21 35.3801 18.37H35.3901C37.6901 21.42 39.5001 24.85 41.0101 28.36C42.8101 32.46 43.7901 36.85 44.7801 41.17C45.4401 44.1 45.9801 47.05 46.4201 50.02C46.2301 49.98 46.0401 49.92 45.8601 49.86L45.8301 49.96C46.0301 50.03 46.2301 50.1 46.4401 50.17C46.6401 51.54 46.8301 52.92 46.9901 54.3C47.0701 55.02 47.1401 55.74 47.2101 56.46C47.1101 56.44 47.0001 56.41 46.9001 56.38L46.8701 56.47C46.9901 56.51 47.1001 56.55 47.2201 56.57Z" fill="black"/>
<path d="M34.27 16.97C34.5 17.24 34.73 17.52 34.95 17.81C34.63 17.59 34.36 17.32 34.27 16.97Z" fill="black"/>
<path d="M35.38 18.37C35.03 18.21 34.64 18 34.36 17.69C34.25 17.45 34.14 17.22 34.02 16.98L34.19 16.87C34.22 16.9 34.25 16.94 34.27 16.97C34.36 17.32 34.63 17.59 34.95 17.81C35.1 17.99 35.24 18.18 35.38 18.37Z" fill="black"/>
<path d="M54.1899 6.92C51.6999 7.52 49.2199 8.23 46.7899 9.06C44.3499 9.88 41.9399 10.83 39.6399 12C38.5099 12.61 37.3799 13.24 36.3599 14.01C35.8499 14.4 35.3599 14.82 34.9499 15.29C34.5499 15.76 34.1699 16.32 34.2499 16.9C34.2499 16.92 34.2599 16.95 34.2699 16.97C34.2499 16.94 34.2199 16.9 34.1899 16.87L34.0199 16.98C34.1399 17.22 34.2499 17.45 34.3599 17.69C34.1699 17.49 34.0199 17.25 33.9599 16.95C33.8299 16.2 34.2599 15.56 34.6599 15.05C35.0799 14.53 35.5599 14.07 36.0699 13.65C37.0799 12.81 38.1599 12.06 39.2799 11.36C41.4999 9.97 43.8199 8.73 46.1899 7.59C50.9299 5.35 55.9199 3.46 61.1499 2.46C66.3299 1.41 71.6099 0.95 76.8999 0.95C79.5399 0.97 82.1899 1.1 84.8499 1.45C86.1799 1.63 87.5099 1.86 88.8499 2.24C89.5299 2.43 90.1999 2.65 90.8899 2.99C91.5599 3.35 92.3599 3.72 92.9299 4.83C93.1999 5.41 93.1799 6.15 92.9999 6.65C92.8199 7.17 92.5599 7.53 92.3099 7.85C92.2799 7.89 92.2499 7.92 92.2199 7.95C92.4699 7.18 92.7299 6.42 93.0199 5.67L92.8399 5.59C92.4099 6.56 92.0099 7.55 91.6399 8.55C91.3099 8.86 90.9799 9.11 90.6499 9.36C89.5099 10.19 88.3299 10.84 87.1399 11.44C84.7399 12.62 82.2799 13.58 79.7999 14.44C74.8199 16.13 69.7299 17.42 64.5699 18.31C59.3899 19.11 54.1799 19.54 48.9699 19.62C46.3599 19.68 43.7499 19.65 41.1499 19.45C39.8499 19.36 38.5499 19.21 37.2699 18.94C36.6299 18.8 35.9999 18.64 35.3899 18.37H35.3799C35.2399 18.18 35.0999 17.99 34.9499 17.81C35.1199 17.93 35.3099 18.03 35.4999 18.12C36.0699 18.38 36.6999 18.55 37.3199 18.69C38.5899 18.96 39.8799 19.08 41.1699 19.16C43.7599 19.27 46.3499 19.16 48.9399 18.99C51.5199 18.78 54.0899 18.48 56.6599 18.12C59.2199 17.77 61.7799 17.35 64.2999 16.83C69.3499 15.81 74.3299 14.4 79.1399 12.6C81.5399 11.69 83.8999 10.69 86.1399 9.5C87.2399 8.91 88.3299 8.26 89.2699 7.53C89.7399 7.17 90.1699 6.78 90.4599 6.39C90.5999 6.21 90.7099 6.02 90.7299 5.92C90.7599 5.8 90.7399 5.85 90.7299 5.83C90.7199 5.76 90.3199 5.42 89.8299 5.22C89.3499 5.01 88.7799 4.83 88.1999 4.69C87.0299 4.4 85.7899 4.23 84.5399 4.11C82.0299 3.87 79.4799 3.85 76.9299 3.92C71.8299 4.06 66.7199 4.59 61.6799 5.39C59.1599 5.79 56.6799 6.31 54.1899 6.92Z" fill="black"/>
<path d="M28.1699 56.7C28.6599 56.39 29.3299 56.29 29.9999 56.26C31.3699 56.23 32.7999 56.51 34.1999 56.81C35.6099 57.12 37.0099 57.49 38.4099 57.86C41.2099 58.62 44.0199 59.36 46.8499 59.99C47.1799 62.5 47.4299 65.03 47.4999 67.55L47.6999 67.57C47.8199 63.88 47.5699 60.22 47.2199 56.57C48.7399 57.06 50.2999 57.37 51.8799 57.61C53.5699 57.89 55.2699 58.05 56.9799 58.18C60.3999 58.41 63.8399 58.36 67.2599 58.16C70.6799 58 74.0999 57.63 77.4799 57.04C79.1599 56.7 80.8299 56.34 82.4999 55.96C83.9599 55.57 85.4199 55.17 86.8599 54.72C87.1799 58.38 87.6699 62.03 88.4599 65.64L88.6599 65.62C88.6599 63.97 88.6599 62.33 88.6399 60.69C91.3199 60.21 93.9699 59.59 96.6099 58.9L100.82 57.78C102.21 57.43 103.63 57.03 104.98 56.92C105.31 56.9 105.64 56.9 105.88 56.97C106.13 57.05 106.19 57.15 106.24 57.32C106.33 57.69 106.04 58.38 105.7 58.93C104.98 60.09 104 61.14 102.99 62.12C100.94 64.1 98.6599 65.85 96.2799 67.44C86.7299 73.77 75.6499 77.79 64.1999 78.45C58.5099 78.87 52.7299 78.59 47.2499 77.18C41.7599 75.8 36.6099 73.05 32.7899 68.89C30.9099 66.8 29.1999 64.45 28.0199 61.93C27.4599 60.68 27.0099 59.29 27.2399 58.09C27.3599 57.51 27.6799 56.99 28.1699 56.7Z" fill="#141414"/>
<path d="M29.66 165.48C28.74 177.49 30.17 189.57 33.21 201.19C33.98 204.08 34.86 207.02 35.74 209.87C36.68 212.72 37.68 215.55 38.86 218.3C41.16 223.83 44.1 229.09 47.61 233.93C49.42 236.3 51.31 238.62 53.45 240.7C54.46 241.8 55.63 242.73 56.72 243.74L58.48 245.13L59.36 245.81L60.28 246.44L62.14 247.7L64.07 248.81C65.35 249.59 66.71 250.21 68.06 250.83C70.8 252.03 73.65 252.98 76.58 253.65C79.5 254.34 82.48 254.75 85.48 254.93C86.99 255.03 88.49 255.04 90 255.01C91.5 254.97 92.99 254.85 94.4 254.44C94.77 254.35 95.09 254.22 95.2 254.06C95.25 253.99 95.26 253.91 95.19 253.81C95.44 253.86 95.68 253.91 95.93 253.95C95.93 254.13 95.87 254.31 95.77 254.45C95.42 254.92 94.95 255 94.6 255.12C93.1 255.56 91.55 255.7 90.02 255.76C88.5 255.82 86.97 255.85 85.44 255.79C82.39 255.69 79.34 255.35 76.34 254.72C73.34 254.12 70.39 253.24 67.53 252.09C66.12 251.49 64.69 250.9 63.36 250.13L61.33 249.01L59.63 247.91L59.39 247.76L58.43 247.12L57.5 246.43L55.66 245.04C54.51 244.02 53.28 243.07 52.21 241.96C49.95 239.86 48 237.47 46.1 235.05C42.43 230.12 39.36 224.76 36.95 219.12C35.69 216.32 34.68 213.42 33.73 210.51C32.85 207.56 32 204.69 31.21 201.72C29.71 195.8 28.53 189.77 28.04 183.67C27.52 177.57 27.5 171.43 28.1 165.35C29.37 153.19 33.01 141.28 39.05 130.73L39.22 130.82C36.5 136.23 34.31 141.9 32.76 147.72C31.16 153.54 30.15 159.49 29.66 165.48Z" fill="black"/>
<path d="M26.1301 57.84C26.3201 57.01 26.8601 56.2 27.6401 55.78C28.4101 55.35 29.2401 55.28 30.0001 55.29C31.5401 55.34 32.9701 55.7 34.3801 56.08C35.7901 56.47 37.1801 56.91 38.5601 57.35C41.3201 58.24 44.0701 59.15 46.8501 59.99C44.0201 59.36 41.2101 58.62 38.4101 57.86C37.0101 57.49 35.6101 57.12 34.2001 56.81C32.8001 56.51 31.3701 56.23 30.0001 56.26C29.3301 56.29 28.6601 56.39 28.1701 56.7C27.6801 56.99 27.3601 57.51 27.2401 58.09C27.0101 59.29 27.4601 60.68 28.0201 61.93C29.2001 64.45 30.9101 66.8 32.7901 68.89C36.6101 73.05 41.7601 75.8 47.2501 77.18C52.7301 78.59 58.5101 78.87 64.2001 78.45C75.6501 77.79 86.7301 73.77 96.2801 67.44C98.6601 65.85 100.94 64.1 102.99 62.12C104 61.14 104.98 60.09 105.7 58.93C106.04 58.38 106.33 57.69 106.24 57.32C106.19 57.15 106.13 57.05 105.88 56.97C105.64 56.9 105.31 56.9 104.98 56.92C103.63 57.03 102.21 57.43 100.82 57.78L96.6101 58.9C93.9701 59.59 91.3201 60.21 88.6401 60.69C88.6401 60.67 88.6401 60.66 88.6401 60.65C91.2701 59.97 93.8701 59.2 96.4601 58.38L100.6 57.04C102 56.61 103.36 56.13 104.89 55.92C105.28 55.88 105.69 55.85 106.16 55.97C106.62 56.05 107.17 56.49 107.3 57.04C107.43 57.58 107.32 58.03 107.2 58.43C107.07 58.82 106.89 59.18 106.71 59.52C106.24 60.34 105.69 61.08 105.09 61.78C104.92 61.74 104.74 61.71 104.57 61.67L104.55 61.77C104.7 61.8 104.85 61.84 105 61.88C104.66 62.28 104.3 62.67 103.93 63.06C101.87 65.19 99.5601 67.03 97.1701 68.73C96.4201 69.26 95.6601 69.77 94.8901 70.26C92.6801 70.84 90.5301 71.65 88.4801 72.61C85.7401 73.9 83.1201 75.43 80.6701 77.19C75.4101 79.01 69.8801 80.04 64.3401 80.45C58.4801 80.84 52.5101 80.55 46.7601 79C45.5001 78.66 44.2501 78.25 43.0301 77.77C41.3401 76.56 39.6201 75.41 37.8701 74.3C36.4201 73.39 34.9301 72.47 33.3401 71.72C32.7401 71.16 32.1701 70.56 31.6301 69.93C29.7101 67.66 28.0001 65.23 26.8201 62.44C26.2801 61.05 25.7701 59.52 26.1301 57.84Z" fill="black"/>
<path d="M18.5801 98.01C23.1401 97.76 27.1501 101.81 26.7301 102.76C26.4401 103.46 23.9501 102.19 19.3301 102.5C13.8101 102.87 11.0101 105.12 10.5601 104.43C9.97006 103.53 13.6101 98.28 18.5801 98.01Z" fill="black"/>
<path d="M19.98 123.51C22.97 118.46 26.3 113.62 30.02 109.09C27.51 112.54 25.17 116.11 23.02 119.78C22.91 119.93 22.81 120.09 22.7 120.25C22.07 121.15 21.57 122.05 20.67 122.99C20.48 123.19 20.25 123.37 19.98 123.51Z" fill="black"/>
<path d="M10.3801 143.98C10.5001 144.39 10.62 144.8 10.73 145.21C10.59 144.87 10.45 144.53 10.3 144.2C10.32 144.13 10.3501 144.05 10.3801 143.98Z" fill="black"/>
<path d="M8.63008 156.2C7.95008 159.58 7.47008 163.03 7.10008 166.47C6.38008 173.33 6.65008 180.27 8.01008 187.03C10.5901 200.54 16.9101 213.43 26.4401 223.43C31.1601 228.53 36.3201 233.19 41.6501 237.69C44.2801 239.97 46.9801 242.17 49.9401 243.99C51.4101 244.9 52.9601 245.68 54.5601 246.36C56.1601 247.05 57.8001 247.65 59.4801 248.14C56.0801 247.34 52.7401 246.17 49.6701 244.44C46.6001 242.73 43.7701 240.62 41.0301 238.45C35.5701 234.1 30.2301 229.51 25.3301 224.5C20.3001 219.54 16.2201 213.64 12.9901 207.37C9.77008 201.08 7.42008 194.35 6.05008 187.4C4.71008 180.45 4.50008 173.28 5.30008 166.28C6.09008 159.31 7.40008 152.32 9.76008 145.68C9.94008 145.19 10.1101 144.69 10.3001 144.2C10.4501 144.53 10.5901 144.87 10.7301 145.21C10.6201 144.8 10.5001 144.39 10.3801 143.98C12.5901 137.95 15.1901 132.08 18.2701 126.45C18.8201 125.46 19.3901 124.48 19.9801 123.51C20.2501 123.37 20.4801 123.19 20.6701 122.99C21.5701 122.05 22.0701 121.15 22.7001 120.25C22.8101 120.09 22.9101 119.93 23.0201 119.78C18.1301 128.12 14.1701 136.98 11.2201 146.16C10.1801 149.46 9.31008 152.81 8.63008 156.2Z" fill="black"/>
<path d="M4.5699 101.23C5.0299 97.18 6.8399 93.36 9.3199 90.25C10.6599 88.59 12.2199 87.13 13.9799 86.04C15.7299 84.95 17.7499 84.39 19.7699 84.51C21.7999 84.65 23.7599 85.56 25.4299 86.84C27.1199 88.13 28.5299 89.79 29.6699 91.61C30.7899 93.45 31.6399 95.46 32.1699 97.54C32.7299 99.61 32.8999 101.8 32.6299 103.88C32.4799 104.92 32.1899 105.95 31.7499 106.85C31.3599 107.62 30.6199 108.27 29.9199 109C29.8599 109.06 29.7999 109.13 29.7399 109.19C28.1999 110.76 26.7599 112.42 25.3899 114.12C23.9999 115.82 22.6699 117.57 21.4099 119.36C20.7799 120.22 20.1699 121.21 19.5599 121.84C19.2499 122.15 18.9799 122.26 18.5599 122.32C18.1499 122.4 17.6899 122.35 17.2299 122.25C15.3599 121.84 13.6099 120.52 12.0799 119.12C10.5499 117.68 9.1899 116.04 8.0299 114.25C5.7299 110.68 4.2199 106.39 4.4999 102.04C4.5199 101.77 4.5399 101.5 4.5699 101.23ZM26.7299 102.76C27.1499 101.81 23.1399 97.76 18.5799 98.01C13.6099 98.28 9.9699 103.53 10.5599 104.43C11.0099 105.12 13.8099 102.87 19.3299 102.5C23.9499 102.19 26.4399 103.46 26.7299 102.76Z" fill="white"/>
<path d="M132.69 116.57C133.65 115.04 134.24 113.29 134.55 111.54C135.25 108.03 135.04 104.41 134.07 101.03L133.97 101.06C134.34 102.76 134.47 104.51 134.44 106.24C134.42 107.97 134.2 109.7 133.77 111.36C133.37 113.03 132.61 114.57 131.83 116.06C131.08 117.6 129.98 118.91 128.92 120.32L128.98 120.4C129.68 119.86 130.44 119.36 131.03 118.68C131.34 118.36 131.63 118.02 131.93 117.68C132.2 117.32 132.44 116.94 132.69 116.57ZM101.09 200.84C102.64 197.92 104.14 194.99 105.77 192.15C107.45 189.34 109.1 186.45 110.61 183.5C111.36 182.01 112.06 180.54 112.73 178.96C113.38 177.38 113.83 175.74 114.2 174.09C114.91 170.79 115.21 167.44 115.35 164.13C115.75 157.55 115.45 150.67 113 144.41C111.53 140.56 109.36 137.03 106.67 133.96C109.7 133.86 112.73 133.42 115.67 132.62C117.22 132.18 118.79 131.71 120.21 130.89C121.62 130.06 122.94 129.03 123.9 127.71L123.82 127.64C122.49 128.56 121.16 129.33 119.75 130C118.34 130.66 116.92 131.32 115.44 131.85C113.95 132.37 112.41 132.77 110.86 133.1C109.44 133.41 108.01 133.67 106.56 133.83C104.9 131.96 103.05 130.26 101.06 128.77L100.94 128.93C106.04 133.07 109.98 138.59 112.06 144.75C114.24 150.91 114.34 157.53 113.74 164.03C113.47 167.29 113.05 170.52 112.26 173.64C111.89 175.2 111.38 176.72 110.81 178.19C110.22 179.66 109.51 181.17 108.83 182.64C107.48 185.63 106 188.54 104.59 191.54C103.18 194.55 101.98 197.63 100.91 200.76L101.09 200.84ZM5.54013 89.84C7.07013 85.38 9.23013 81.12 12.3201 77.64C15.3901 74.19 19.5301 71.55 24.1601 71.2C26.4401 71.01 28.7801 71.31 31.0001 72.04C33.2401 72.73 35.3101 73.9 37.4201 75.06C41.6001 77.4 45.6901 79.94 49.4801 82.9C47.7201 81.26 45.8201 79.76 43.8601 78.36C43.5801 78.16 43.3101 77.96 43.0301 77.77C44.2501 78.25 45.5001 78.66 46.7601 79C52.5101 80.55 58.4801 80.84 64.3401 80.45C69.8801 80.04 75.4101 79.01 80.6701 77.19C78.5401 78.68 76.5301 80.35 74.6601 82.16C76.7901 80.35 79.0601 78.71 81.4301 77.24C81.9001 76.94 82.3801 76.64 82.8601 76.36C85.9401 75.17 88.9301 73.76 91.7901 72.13C96.0101 70.64 100.47 69.82 104.9 70.26C107.64 70.49 110.32 71.19 112.83 72.31C115.37 73.38 117.63 75.03 119.74 76.8L121.29 78.19L122.71 79.71C123.71 80.68 124.49 81.84 125.38 82.91C126.24 84.01 126.99 85.19 127.8 86.33L129.97 89.92C129.33 88.68 128.69 87.43 128.03 86.19C127.28 85.01 126.58 83.78 125.78 82.62C124.92 81.51 124.16 80.31 123.19 79.29L121.79 77.69L120.25 76.23C116.13 72.34 110.68 69.78 104.99 69.27C101.57 68.98 98.1701 69.38 94.8901 70.26C95.6601 69.77 96.4201 69.26 97.1701 68.73C99.5601 67.03 101.87 65.19 103.93 63.06C104.3 62.67 104.66 62.28 105 61.88C111.03 63.34 116.56 66.35 121.46 70.08C126.53 73.88 131.01 78.4 135.13 83.2C139.25 88.01 142.98 93.14 146.43 98.46C149.85 103.78 153.1 109.24 155.92 114.89V114.9L155.93 114.92C156.69 116.3 157.46 117.66 158.2 119.05C158.89 120.45 159.64 121.83 160.28 123.26C161.62 126.09 162.81 129 163.88 131.94C164.93 134.89 165.85 137.89 166.58 140.94C167.29 143.95 167.86 147.06 168.02 150.11C154.55 150.25 143.87 147.91 142.07 147.5C142.27 146.65 142.45 145.79 142.59 144.92C143.22 141.35 143.34 137.71 143.05 134.12C142.39 126.95 140.29 119.97 137.08 113.6C139.88 120.15 141.76 127.12 142.07 134.19C142.25 137.71 142.05 141.25 141.35 144.69C140.7 148.13 139.48 151.46 138.08 154.69C137.37 156.29 136.59 157.89 135.75 159.41C134.89 160.92 133.93 162.39 132.9 163.81C130.84 166.65 128.49 169.31 126.14 171.99C123.78 174.68 121.48 177.38 119.08 180C117.89 181.31 116.65 182.57 115.44 183.95C114.25 185.32 113.15 186.73 112.04 188.15C107.71 193.89 103.86 200.02 100.91 206.62C100.18 208.27 99.5101 209.95 98.9501 211.7C98.6701 212.63 98.5001 213.47 98.2701 214.36C98.0901 215.25 97.9001 216.14 97.7501 217.03C97.1501 220.61 96.9501 224.29 97.4701 227.93C98.0401 231.54 99.2801 235.14 101.54 238.07C102.11 238.79 102.67 239.52 103.34 240.15C103.67 240.47 103.98 240.82 104.33 241.11L105.39 241.98C106.07 242.59 106.88 243.03 107.63 243.54C108.39 244.05 109.23 244.47 110.08 244.8C111.8 245.47 113.63 245.82 115.45 245.88C117.25 245.92 119.07 245.83 120.84 245.46C122.26 245.16 123.64 244.71 124.96 244.12C122 245.73 118.69 246.69 115.35 246.97C111.75 247.25 108.08 246.73 104.76 245.36C101.43 243.99 98.6101 241.62 96.4501 238.78C92.1401 232.97 90.4001 225.7 88.9801 218.64C88.3201 215.09 88.0701 211.48 88.1101 207.87C88.1401 204.26 88.5301 200.64 88.9401 197.02C89.1501 195.26 89.5201 193.46 89.8201 191.64L90.7301 186.22L92.4301 175.36C92.7001 173.54 92.9801 171.73 93.2001 169.9C93.4101 168.08 93.5801 166.17 93.5101 164.33C93.4601 160.62 93.0801 156.93 92.3601 153.31C91.6701 149.68 90.5301 146.12 88.9901 142.77C87.4701 139.41 85.5801 136.23 83.3601 133.3L83.2001 133.42C87.2901 139.48 90.1601 146.33 91.3301 153.5C91.9501 157.07 92.2301 160.71 92.1901 164.33C92.2101 166.15 92.0101 167.89 91.7501 169.71L90.9201 175.12L89.1001 185.95L88.1501 191.35C87.8301 193.15 87.4501 194.93 87.1901 196.8C86.2001 204.08 85.9301 211.62 87.3601 218.94C87.6901 220.78 88.1801 222.56 88.6501 224.34C89.1401 226.12 89.6801 227.89 90.3101 229.64C91.5701 233.12 93.2601 236.5 95.5601 239.46C96.7601 240.9 98.0601 242.27 99.5701 243.39C99.9201 243.7 100.33 243.93 100.72 244.19C101.12 244.43 101.49 244.72 101.92 244.93C102.76 245.34 103.57 245.8 104.45 246.13C107.93 247.48 111.71 248 115.41 247.66C119.11 247.32 122.7 246.12 125.92 244.29C126.73 243.83 127.51 243.33 128.26 242.77C129.01 242.21 129.69 241.54 130.29 240.82C130.32 240.78 130.36 240.74 130.39 240.7C131.54 239.3 132.46 237.75 133.38 236.23C133.84 235.45 134.34 234.7 134.96 234.13C135.25 233.84 135.67 233.64 135.89 233.64C135.96 233.65 135.98 233.65 136.03 233.8C136.07 233.96 136.08 234.16 136.07 234.37C135.88 236.07 135.19 237.81 134.37 239.38C132.69 242.55 130.08 245.16 127.08 247.11C124.07 249.07 120.68 250.41 117.2 251.33C113.71 252.24 110.11 252.75 106.5 252.93C99.3301 253.33 92.0301 251.89 85.7601 248.47C82.6201 246.76 79.7501 244.59 77.1401 242.12C75.8501 240.88 74.5401 239.58 73.3601 238.23C72.7601 237.56 72.1401 236.92 71.5601 236.23L69.9001 234.1C69.6201 233.75 69.3401 233.4 69.0801 233.04L68.3301 231.91L66.8301 229.67C65.9401 228.11 64.9601 226.6 64.2001 224.96C62.5301 221.77 61.2201 218.39 60.1101 214.96C57.8601 208.08 56.7801 200.87 56.1101 193.63C55.7601 189.98 55.5401 186.39 55.5801 182.75C55.5801 182.43 55.5901 182.1 55.5901 181.78C55.6201 181.03 55.6401 180.27 55.6601 179.51C55.7701 176.96 55.9701 174.41 56.2201 171.86C56.9501 164.6 57.9501 157.34 58.9201 150.08C59.9001 142.83 61.0101 135.6 62.4001 128.4L62.2001 128.36C60.5601 135.5 59.0901 142.69 57.9201 149.93C57.8601 150.34 57.7901 150.74 57.7301 151.15C56.8501 155.25 56.1301 159.39 55.5701 163.55C55.2401 166.06 54.9701 168.57 54.7501 171.09C54.7201 171.29 54.6901 171.5 54.6701 171.7C54.2501 175.35 53.9301 179.03 53.8301 182.72C53.7601 185.22 53.8101 187.75 53.9501 190.25C54.0101 193.51 54.2201 196.77 54.6301 200.02C54.9901 203.06 55.5701 206.07 56.2901 209.04C56.8601 211.39 57.5101 213.71 58.2701 216C62.6901 230.01 71.9201 242.72 84.8701 250.13C88.1101 251.87 91.6001 253.08 95.1901 253.81C95.2601 253.91 95.2501 253.99 95.2001 254.06C95.0901 254.22 94.7701 254.35 94.4001 254.44C92.9901 254.85 91.5001 254.97 90.0001 255.01C88.4901 255.04 86.9901 255.03 85.4801 254.93C82.4801 254.75 79.5001 254.34 76.5801 253.65C73.6501 252.98 70.8001 252.03 68.0601 250.83C66.7101 250.21 65.3501 249.59 64.0701 248.81L62.1401 247.7L60.2801 246.44L59.3601 245.81L58.4801 245.13L56.7201 243.74C55.6301 242.73 54.4601 241.8 53.4501 240.7C51.3101 238.62 49.4201 236.3 47.6101 233.93C44.1001 229.09 41.1601 223.83 38.8601 218.3C37.6801 215.55 36.6801 212.72 35.7401 209.87C34.8601 207.02 33.9801 204.08 33.2101 201.19C30.1701 189.57 28.7401 177.49 29.6601 165.48C30.1501 159.49 31.1601 153.54 32.7601 147.72C34.3101 141.9 36.5001 136.23 39.2201 130.82L39.0501 130.73C33.0101 141.28 29.3701 153.19 28.1001 165.35C27.5001 171.43 27.5201 177.57 28.0401 183.67C28.5301 189.77 29.7101 195.8 31.2101 201.72C32.0001 204.69 32.8501 207.56 33.7301 210.51C34.6801 213.42 35.6901 216.32 36.9501 219.12C39.3601 224.76 42.4301 230.12 46.1001 235.05C48.0001 237.47 49.9501 239.86 52.2101 241.96C53.2801 243.07 54.5101 244.02 55.6601 245.04L57.5001 246.43L58.4301 247.12L59.3901 247.76L59.6301 247.91L59.4801 248.14C57.8001 247.65 56.1601 247.05 54.5601 246.36C52.9601 245.68 51.4101 244.9 49.9401 243.99C46.9801 242.17 44.2801 239.97 41.6501 237.69C36.3201 233.19 31.1601 228.53 26.4401 223.43C16.9101 213.43 10.5901 200.54 8.01013 187.03C6.65013 180.27 6.38013 173.33 7.10013 166.47C7.47013 163.03 7.95013 159.58 8.63013 156.2C9.31013 152.81 10.1801 149.46 11.2201 146.16C14.1701 136.98 18.1301 128.12 23.0201 119.78C24.1201 118.14 25.2801 116.55 26.4901 115C27.8201 113.29 29.1701 111.61 30.6101 110L31.7001 108.78C32.0701 108.36 32.4401 107.84 32.6701 107.29C33.1201 106.21 33.3501 105.1 33.4401 103.98C33.6401 101.73 33.2601 99.52 32.6801 97.4C32.0901 95.28 31.1801 93.27 30.0901 91.36C28.9701 89.48 27.6401 87.68 25.9601 86.2C24.2901 84.73 22.2201 83.56 19.9001 83.27C17.5701 83.03 15.1801 83.66 13.2801 84.92C11.3501 86.15 9.80013 87.85 8.56013 89.69C6.56013 92.7 5.26013 96.09 4.65013 99.59L3.13013 99.31C3.71013 96.09 4.49013 92.92 5.54013 89.84ZM118.85 116.86C122.06 112.62 123.47 107.26 123.25 102.09C123 96.92 121.26 91.86 118.1 87.8C116.53 85.77 114.59 83.98 112.32 82.68C110.05 81.38 107.42 80.61 104.75 80.55C102.08 80.52 99.3901 81.22 97.0701 82.53C94.7301 83.82 92.7701 85.71 91.2901 87.85C88.2801 92.17 87.1001 97.37 87.0901 102.43C87.1701 107.48 88.4601 112.66 91.5301 116.94C93.0501 119.06 95.0301 120.93 97.3901 122.21C99.7301 123.51 102.44 124.2 105.15 124.21C107.86 124.18 110.56 123.46 112.91 122.14C115.26 120.82 117.27 118.98 118.85 116.86Z" fill="url(#paint14_linear)"/>
<path d="M29.6699 91.61C28.5299 89.79 27.1199 88.13 25.4299 86.84C23.7599 85.56 21.7999 84.65 19.7699 84.51C17.7499 84.39 15.7299 84.95 13.9799 86.04C12.2199 87.13 10.6599 88.59 9.31993 90.25C6.83993 93.36 5.02993 97.18 4.56993 101.23L4.42993 101.22C4.47993 100.68 4.55993 100.13 4.64993 99.59C5.25993 96.09 6.55993 92.7 8.55993 89.69C9.79993 87.85 11.3499 86.15 13.2799 84.92C15.1799 83.66 17.5699 83.03 19.8999 83.27C22.2199 83.56 24.2899 84.73 25.9599 86.2C27.6399 87.68 28.9699 89.48 30.0899 91.36C31.1799 93.27 32.0899 95.28 32.6799 97.4C33.2599 99.52 33.6399 101.73 33.4399 103.98C33.3499 105.1 33.1199 106.21 32.6699 107.29C32.4399 107.84 32.0699 108.36 31.6999 108.78L30.6099 110C29.1699 111.61 27.8199 113.29 26.4899 115C25.2799 116.55 24.1199 118.14 23.0199 119.78C25.1699 116.11 27.5099 112.54 30.0199 109.09L29.9199 109C30.6199 108.27 31.3599 107.62 31.7499 106.85C32.1899 105.95 32.4799 104.92 32.6299 103.88C32.8999 101.8 32.7299 99.61 32.1699 97.54C31.6399 95.46 30.7899 93.45 29.6699 91.61Z" fill="black"/>
<path d="M30.0201 109.09C26.3001 113.62 22.9701 118.46 19.9801 123.51C19.6101 123.72 19.1801 123.87 18.8001 123.91C18.1301 124.02 17.4801 123.96 16.8901 123.81C15.6801 123.53 14.6401 122.97 13.6801 122.34C12.7301 121.7 11.8601 120.96 11.0701 120.16C9.49012 118.56 8.20012 116.71 7.18012 114.74C5.13012 110.81 4.08012 106.39 4.35012 102.03C4.37012 101.76 4.40012 101.49 4.43012 101.22L4.57012 101.23C4.54012 101.5 4.52012 101.77 4.50012 102.04C4.22012 106.39 5.73012 110.68 8.03012 114.25C9.19012 116.04 10.5501 117.68 12.0801 119.12C13.6101 120.52 15.3601 121.84 17.2301 122.25C17.6901 122.35 18.1501 122.4 18.5601 122.32C18.9801 122.26 19.2501 122.15 19.5601 121.84C20.1701 121.21 20.7801 120.22 21.4101 119.36C22.6701 117.57 24.0001 115.82 25.3901 114.12C26.7601 112.42 28.2001 110.76 29.7401 109.19C29.8001 109.13 29.8601 109.06 29.9201 109L30.0201 109.09Z" fill="black"/>
<path d="M2.44993 103.69C2.63993 102.22 2.85993 100.76 3.12993 99.31L4.64993 99.59C4.55993 100.13 4.47993 100.68 4.42993 101.22C4.39993 101.49 4.36993 101.76 4.34993 102.03C4.07993 106.39 5.12993 110.81 7.17993 114.74C8.19993 116.71 9.48993 118.56 11.0699 120.16C11.8599 120.96 12.7299 121.7 13.6799 122.34C14.6399 122.97 15.6799 123.53 16.8899 123.81C17.4799 123.96 18.1299 124.02 18.7999 123.91C19.1799 123.87 19.6099 123.72 19.9799 123.51C19.3899 124.48 18.8199 125.46 18.2699 126.45C15.1899 132.08 12.5899 137.95 10.3799 143.98C9.12993 139.76 7.54993 135.65 6.06993 131.54C5.25993 129.28 4.44993 127.02 3.78993 124.76C3.13993 122.49 2.64993 120.17 2.33993 117.83C1.68993 113.14 1.85993 108.42 2.44993 103.69Z" fill="url(#paint15_linear)"/>
<path d="M24.16 71.2C19.53 71.55 15.39 74.19 12.32 77.64C9.23001 81.12 7.07001 85.38 5.54001 89.84C4.49001 92.92 3.71001 96.09 3.13001 99.31C2.86001 100.76 2.64001 102.22 2.45001 103.69C1.86001 108.42 1.69001 113.14 2.34001 117.83C2.65001 120.17 3.14001 122.49 3.79001 124.76C4.45001 127.02 5.26001 129.28 6.07001 131.54C7.55001 135.65 9.13001 139.76 10.38 143.98C10.35 144.05 10.32 144.13 10.3 144.2C8.55001 140.11 6.61001 136.12 4.83001 132.03C3.89001 129.8 2.95001 127.58 2.21001 125.24C1.47001 122.9 0.930009 120.51 0.560009 118.08C0.200009 115.66 0.0100098 113.21 0.0100098 110.76C0.0200098 108.29 0.24001 105.87 0.51001 103.46C1.07001 98.62 2.07001 93.82 3.69001 89.19C5.29001 84.58 7.60001 80.09 11 76.43C12.68 74.61 14.63 72.99 16.85 71.81C19.06 70.62 21.54 69.87 24.05 69.75C26.56 69.6 29.08 70.03 31.39 70.9C32.06 71.14 32.71 71.42 33.34 71.72C36.12 74.37 39.47 76.38 43.03 77.77C43.31 77.96 43.58 78.16 43.86 78.36C45.82 79.76 47.72 81.26 49.48 82.9C45.69 79.94 41.6 77.4 37.42 75.06C35.31 73.9 33.24 72.73 31 72.04C28.78 71.31 26.44 71.01 24.16 71.2Z" fill="black"/>
<path d="M209.72 164.53C212.22 163.39 214.53 161.93 216.45 160.01C219.54 156.93 220.85 153.05 221.18 148.78C221.4 145.95 220.72 142.46 222 139.82C222.19 139.42 222.44 139.06 222.73 138.74C223.67 137.71 224.93 137.07 226.33 136.7C229.56 135.84 233.57 136.4 236.4 136.81C242.93 137.76 248.02 138.86 254.45 136.03C259.12 133.97 263.83 130.92 267.66 127.53C274.51 121.47 275.38 114.47 269.16 107.66C280.23 107.57 287.22 99.06 291.07 89.29C296.13 67.47 267.76 69.96 267.66 69.97C263.99 70.3 260.57 69.78 257.38 67.77C254.01 65.64 251.54 62.21 250.02 58.57C247.42 52.4 245.7 49.77 238.67 49.81C231.15 49.86 223.87 52.19 217.09 55.28C210.17 58.43 204.28 60.21 196.56 60.41" stroke="black" stroke-miterlimit="10"/>
<path d="M134.41 164.67C139.05 169.39 145.71 172.64 152.18 173.45C155.81 173.9 162.41 174.78 165 171.34C165.62 170.51 165.91 169.48 166.49 168.61C167.47 167.13 169.22 166.29 170.98 166C179.51 164.62 187.85 169.6 196.45 168.17C200.78 167.45 205.49 166.45 209.68 164.55" stroke="black" stroke-miterlimit="10"/>
<path d="M229.03 99.2C238.33 99.83 236.51 106.89 232.04 114.1C227.15 122.02 219.08 130.13 219.08 130.13C216.33 133.32 213.29 136.02 210.06 138.3C204.76 142.07 198.93 144.71 192.99 146.52C190.35 147.33 187.68 147.98 185.03 148.49C185 148.49 184.98 148.5 184.95 148.5C184.71 148.55 184.48 148.59 184.24 148.63C180.87 149.24 177.53 149.64 174.29 149.86C174.01 149.88 173.74 149.9 173.47 149.92C173.46 149.92 173.45 149.92 173.45 149.92C171.9 150.01 170.38 150.07 168.89 150.1C168.87 150.1 168.86 150.1 168.84 150.1C168.57 150.1 168.29 150.11 168.02 150.11C154.55 150.25 143.87 147.91 142.07 147.5" stroke="black" stroke-miterlimit="10"/>
<path d="M95.21 47.23C98.55 45.64 103.09 43.79 108.67 42.27C108.73 42.26 108.79 42.24 108.85 42.22C112.98 41.11 117.68 40.17 122.88 39.64C127.4 39.19 132.3 39.04 137.55 39.35C140.68 39.52 143.93 39.87 147.29 40.41C150.42 40.91 153.66 41.58 156.98 42.45C160.04 43.24 163.19 44.21 166.4 45.36C166.44 45.37 166.49 45.39 166.53 45.41C171.83 47.3 177.32 49.7 182.99 52.7C183.05 52.73 183.12 52.77 183.19 52.81C187.38 55.03 191.67 57.58 196.04 60.49C196.05 60.5 196.06 60.5 196.07 60.51C196.07 60.51 196.42 60.76 197.06 61.23C197.3 61.41 197.59 61.63 197.92 61.88C200.17 63.6 204.23 66.85 208.78 71.22C209.85 72.25 210.94 73.34 212.04 74.48C212.08 74.51 212.11 74.55 212.14 74.58C218.58 81.25 225.33 89.82 229.01 99.21C230.88 103.96 231.96 108.93 231.81 113.96" stroke="black" stroke-miterlimit="10"/>
<path d="M226.33 136.7C224.75 141.1 223.93 143.95 221.18 148.78" stroke="black" stroke-miterlimit="10"/>
<path d="M210.08 164.28C209.96 164.36 209.84 164.44 209.72 164.53C209.71 164.54 209.69 164.55 209.68 164.55C202.38 169.56 190.15 176.52 173.62 180.02C151.15 184.77 132.65 180.59 123.51 177.84" stroke="black" stroke-miterlimit="10"/>
<path d="M94.6799 105.36C94.0599 104.52 98.9999 96.28 105.83 96.61C112.62 96.93 116.24 103.32 115.55 104.11C114.97 104.76 111.85 102.02 105.61 101.72C99.3199 101.43 95.1899 106.06 94.6799 105.36Z" stroke="black" stroke-miterlimit="10"/>
<path d="M10.5601 104.43C9.97006 103.53 13.6101 98.28 18.5801 98.01C23.1401 97.76 27.1501 101.81 26.7301 102.76C26.4401 103.46 23.9501 102.19 19.3301 102.5C13.8101 102.87 11.0101 105.12 10.5601 104.43Z" stroke="black" stroke-miterlimit="10"/>
<path d="M17.29 122.42C21.2 127.83 23.82 128.88 29.52 126.37C33.29 124.7 36.83 122.33 40.21 119.87C44.69 116.62 49.36 114.06 54.77 116.26C58.13 117.63 60.74 117.45 64 115.88C68.34 113.79 72.82 114.71 77.08 117.21C81.25 119.65 85.48 122.2 89.97 123.75C95.92 125.81 98.21 124.54 101.65 119.17C100.63 134.43 78.44 149.61 60.07 135.36C51.9 142.8 42.64 144.38 32.56 140.41C24.74 137.33 19.11 130.63 17.29 122.42Z" fill="black"/>
<path d="M95.3077 47.5693C95.6543 47.4246 95.8611 47.1297 95.7696 46.9105C95.6781 46.6914 95.3229 46.631 94.9764 46.7757C94.6298 46.9204 94.4231 47.2154 94.5146 47.4345C94.6061 47.6537 94.9612 47.714 95.3077 47.5693Z" fill="black"/>
<path d="M94.7845 47.7795C95.1311 47.6348 95.3379 47.3398 95.2464 47.1207C95.1549 46.9015 94.7997 46.8412 94.4532 46.9859C94.1066 47.1306 93.8999 47.4255 93.9914 47.6447C94.0829 47.8638 94.438 47.9242 94.7845 47.7795Z" fill="black"/>
<path opacity="0.47" d="M105.09 120.45C114.137 120.45 121.47 112.418 121.47 102.51C121.47 92.602 114.137 84.57 105.09 84.57C96.0438 84.57 88.7102 92.602 88.7102 102.51C88.7102 112.418 96.0438 120.45 105.09 120.45Z" fill="#69CAE0"/>
<path d="M125.88 102.42C125.79 101.72 125.69 100.99 125.24 100.44C124.82 99.93 124.16 99.68 123.7 99.2C123.07 98.54 122.92 97.56 122.74 96.66C121.59 90.98 117.54 85.97 112.23 83.66C107.65 81.67 102.24 81.73 97.6701 83.74C96.7501 84.14 95.6401 84.55 94.8401 85.14C93.8801 85.85 93.0401 86.84 92.2801 87.75C90.7001 89.61 89.3901 91.69 88.4101 93.92C87.2601 96.54 86.5901 99.38 86.5001 102.24C86.2901 109 89.5201 115.88 95.1301 119.67C100.74 123.46 108.6 123.81 114.29 120.15C116.16 118.95 117.74 117.4 119.09 115.65C121.14 112.99 122.68 109.85 123.96 106.72C123.96 106.05 123.96 105.27 123.96 106.72C124.2 106.94 124.55 107.33 124.82 107.89C125.18 108.64 125.19 109.57 125.19 109.59C125.21 110.63 125.44 117.73 125.73 127.48C126.21 135.48 126.36 141.97 126.41 146.31C126.49 152.93 126.56 159.56 126.68 166.18C126.74 169.49 126.8 172.8 126.88 176.11C126.92 177.81 126.96 179.5 127.01 181.2C127.03 181.95 126.9 182.91 127.08 183.63C127.31 184.53 127.34 184.43 128.32 184.75C128.4 184.78 128.49 184.8 128.56 184.76C128.62 184.72 128.65 184.64 128.66 184.56C128.81 183.85 128.88 183.17 128.88 182.44C128.98 166.44 128.96 150.46 128.4 134.47C128.38 123.81 127.19 112.98 125.88 102.42ZM104.97 120.45C96.0201 120.34 88.6501 112.12 88.7201 102.32C88.7901 92.46 96.1901 84.5 105.23 84.57C114.25 84.63 121.51 92.7 121.47 102.6C121.42 112.39 113.87 120.56 104.97 120.45ZM125.44 108.9C125.44 108.93 125.44 108.93 125.44 108.9V108.9Z" fill="black"/>
<path d="M118.04 106.81C119.96 91.52 105.66 83.67 95.9402 90.98C98.2402 87.02 106.39 85.4 111.85 88.8C117.98 92.61 120.44 101.23 118.04 106.81Z" fill="white"/>
<defs>
<linearGradient id="paint0_linear" x1="134.406" y1="111.849" x2="291.67" y2="111.849" gradientUnits="userSpaceOnUse">
<stop stop-color="#FFF23A"/>
<stop offset="0.0401" stop-color="#FEE62D"/>
<stop offset="0.1171" stop-color="#FED41A"/>
<stop offset="0.1964" stop-color="#FDC90F"/>
<stop offset="0.2809" stop-color="#FDC60B"/>
<stop offset="0.6685" stop-color="#F28F3F"/>
<stop offset="0.8876" stop-color="#ED693C"/>
<stop offset="1" stop-color="#E83E39"/>
</linearGradient>
<linearGradient id="paint1_linear" x1="221.176" y1="142.738" x2="226.326" y2="142.738" gradientUnits="userSpaceOnUse">
<stop stop-color="#E1306C"/>
<stop offset="1" stop-color="#405DE6"/>
</linearGradient>
<linearGradient id="paint2_linear" x1="156.976" y1="90.373" x2="219.076" y2="90.373" gradientUnits="userSpaceOnUse">
<stop stop-color="#E1306C"/>
<stop offset="1" stop-color="#405DE6"/>
</linearGradient>
<linearGradient id="paint3_linear" x1="166.526" y1="85.583" x2="217.756" y2="85.583" gradientUnits="userSpaceOnUse">
<stop stop-color="#FFF23A"/>
<stop offset="0.0401" stop-color="#FEE62D"/>
<stop offset="0.1171" stop-color="#FED41A"/>
<stop offset="0.1964" stop-color="#FDC90F"/>
<stop offset="0.2809" stop-color="#FDC60B"/>
<stop offset="0.6685" stop-color="#F28F3F"/>
<stop offset="0.8876" stop-color="#ED693C"/>
<stop offset="1" stop-color="#E83E39"/>
</linearGradient>
<linearGradient id="paint4_linear" x1="183.186" y1="91.468" x2="232.036" y2="91.468" gradientUnits="userSpaceOnUse">
<stop stop-color="#E1306C"/>
<stop offset="1" stop-color="#405DE6"/>
</linearGradient>
<linearGradient id="paint5_linear" x1="184.376" y1="120.533" x2="210.056" y2="120.533" gradientUnits="userSpaceOnUse">
<stop stop-color="#E1306C"/>
<stop offset="1" stop-color="#405DE6"/>
</linearGradient>
<linearGradient id="paint6_linear" x1="123.506" y1="173.362" x2="209.676" y2="173.362" gradientUnits="userSpaceOnUse">
<stop stop-color="#E1306C"/>
<stop offset="1" stop-color="#405DE6"/>
</linearGradient>
<linearGradient id="paint7_linear" x1="198.576" y1="88.758" x2="222.561" y2="88.758" gradientUnits="userSpaceOnUse">
<stop stop-color="#FFF23A"/>
<stop offset="0.0401" stop-color="#FEE62D"/>
<stop offset="0.1171" stop-color="#FED41A"/>
<stop offset="0.1964" stop-color="#FDC90F"/>
<stop offset="0.2809" stop-color="#FDC60B"/>
<stop offset="0.6685" stop-color="#F28F3F"/>
<stop offset="0.8876" stop-color="#ED693C"/>
<stop offset="1" stop-color="#E83E39"/>
</linearGradient>
<linearGradient id="paint8_linear" x1="108.846" y1="94.603" x2="184.389" y2="94.603" gradientUnits="userSpaceOnUse">
<stop stop-color="#E1306C"/>
<stop offset="1" stop-color="#405DE6"/>
</linearGradient>
<linearGradient id="paint9_linear" x1="147.286" y1="94.223" x2="208.096" y2="94.223" gradientUnits="userSpaceOnUse">
<stop stop-color="#FFF23A"/>
<stop offset="0.0401" stop-color="#FEE62D"/>
<stop offset="0.1171" stop-color="#FED41A"/>
<stop offset="0.1964" stop-color="#FDC90F"/>
<stop offset="0.2809" stop-color="#FDC60B"/>
<stop offset="0.6685" stop-color="#F28F3F"/>
<stop offset="0.8876" stop-color="#ED693C"/>
<stop offset="1" stop-color="#E83E39"/>
</linearGradient>
<linearGradient id="paint10_linear" x1="122.876" y1="85.6513" x2="179.036" y2="85.6513" gradientUnits="userSpaceOnUse">
<stop stop-color="#FFF23A"/>
<stop offset="0.0401" stop-color="#FEE62D"/>
<stop offset="0.1171" stop-color="#FED41A"/>
<stop offset="0.1964" stop-color="#FDC90F"/>
<stop offset="0.2809" stop-color="#FDC60B"/>
<stop offset="0.6685" stop-color="#F28F3F"/>
<stop offset="0.8876" stop-color="#ED693C"/>
<stop offset="1" stop-color="#E83E39"/>
</linearGradient>
<linearGradient id="paint11_linear" x1="95.2059" y1="95.983" x2="173.416" y2="95.983" gradientUnits="userSpaceOnUse">
<stop stop-color="#FFF23A"/>
<stop offset="0.0401" stop-color="#FEE62D"/>
<stop offset="0.1171" stop-color="#FED41A"/>
<stop offset="0.1964" stop-color="#FDC90F"/>
<stop offset="0.2809" stop-color="#FDC60B"/>
<stop offset="0.6685" stop-color="#F28F3F"/>
<stop offset="0.8876" stop-color="#ED693C"/>
<stop offset="1" stop-color="#E83E39"/>
</linearGradient>
<linearGradient id="paint12_linear" x1="88.5359" y1="56.043" x2="106.586" y2="56.043" gradientUnits="userSpaceOnUse">
<stop stop-color="#E83E39"/>
<stop offset="0.1124" stop-color="#ED693C"/>
<stop offset="0.3315" stop-color="#F28F3F"/>
<stop offset="0.7191" stop-color="#FDC60B"/>
<stop offset="0.7266" stop-color="#FDC40D"/>
<stop offset="0.7278" stop-color="#FCC20F"/>
<stop offset="0.8697" stop-color="#FCC411"/>
<stop offset="0.9208" stop-color="#FDCB17"/>
<stop offset="0.9572" stop-color="#FDD621"/>
<stop offset="0.9864" stop-color="#FEE730"/>
<stop offset="1" stop-color="#FFF23A"/>
</linearGradient>
<linearGradient id="paint13_linear" x1="90.2259" y1="55.788" x2="128.946" y2="55.788" gradientUnits="userSpaceOnUse">
<stop stop-color="#E1306C"/>
<stop offset="1" stop-color="#405DE6"/>
</linearGradient>
<linearGradient id="paint14_linear" x1="59.3627" y1="141.579" x2="202.165" y2="224.026" gradientUnits="userSpaceOnUse">
<stop stop-color="#E1306C"/>
<stop offset="0.3727" stop-color="#405DE6"/>
</linearGradient>
<linearGradient id="paint15_linear" x1="1.92003" y1="121.643" x2="19.9758" y2="121.643" gradientUnits="userSpaceOnUse">
<stop stop-color="#E1306C"/>
<stop offset="0.0588" stop-color="#D53375"/>
<stop offset="0.6065" stop-color="#6A51C6"/>
<stop offset="0.8503" stop-color="#405DE6"/>
</linearGradient>
</defs>
</svg>
