<svg id="Layer_1" data-name="Layer 1" xmlns="http://www.w3.org/2000/svg" xmlns:xlink="http://www.w3.org/1999/xlink" viewBox="0 0 180 252"><defs><symbol id="Card_layout" data-name="Card layout" viewBox="0 0 180 252"><path class="cls-1" d="M7.5 7.5h165v237H7.5z"/><path class="cls-1" d="M7.5 7.5h38.3v237H7.5z"/><path class="cls-1" d="M7.5 42.4h38.3v6.9H7.5zM31.1 237.6h141.4v6.9H31.1zM45.8 35.5h120.8v202.1H45.8z"/><path class="cls-2" d="M70.5 53.8H142v154.9H70.5zM70.5 105.5H142M70.5 157.1H142M70.5 131.3H142M106.2 208.8v-155"/><path class="cls-2" d="m142 131.3-35.8-77.5-35.7 77.5 35.7 77.5 35.8-77.5zM70.5 53.8l71.5 51.7M70.5 105.5 142 53.8M70.5 105.5l71.5 51.6M70.5 157.1l71.5-51.6M70.5 157.1l71.5 51.7M70.5 208.8l71.5-51.7"/><rect width="180" height="252" rx="12" style="fill:#fff4d7"/></symbol><symbol id="Spades" data-name="Spades" viewBox="0 0 27.9 26"><path class="cls-4" d="M14 26h3.4a1.1 1.1 0 0 0 1-1.5l-2.3-6.3a.6.6 0 0 1 .9-.7l4.4 2.2a1.5 1.5 0 0 0 1.9-.4l4.3-5.5a1.5 1.5 0 0 0-.2-2L15.1.4a1.7 1.7 0 0 0-2.3 0L.5 11.8a1.5 1.5 0 0 0-.2 2l4.3 5.5a1.5 1.5 0 0 0 1.9.4l4.4-2.3a.6.6 0 0 1 .9.8l-2.3 6.3a1.1 1.1 0 0 0 1 1.5Z"/></symbol><style>.cls-1,.cls-2{fill:none;stroke:#ccc;stroke-miterlimit:10}.cls-1{stroke-width:.5px}.cls-2{stroke-width:.45px}.cls-4{fill:#425ce6}</style></defs><use width="180" height="252" xlink:href="#Card_layout"/><use width="27.9" height="26" transform="translate(13.7 46.2)" xlink:href="#Spades"/><path d="M120.9 161c-6 .3-11.4-2-16.8-4.3-.7-.3-1.6-1.2-2.3-.5s-.2 1.5 0 2.4a21.4 21.4 0 0 0 4.5 9.2 35.9 35.9 0 0 1 5.4 9.3 26.5 26.5 0 0 1 2.7 12.3c0 1.6-1.4 3.3-2.9 2a3.9 3.9 0 0 0-3-1c-13.5 0-13.3-3.8-16.2-3.8-3 0-4.1 3.2-15.2 3.2a12 12 0 0 0-3 1c-2 1.1-3.4.4-3.3-2 .2-7.2 2.1-13.9 6.6-19.6a83.5 83.5 0 0 0 4.7-7.6 7.2 7.2 0 0 0 .9-3.1c.3-3 .1-3.1-2.7-2.1L70 160.1c-5.3 1.9-10.4.5-15.4-1.2-8.4-2.7-14-8.5-16-17.1a12.2 12.2 0 0 1 2.2-9.9c7.1-10.1 15.9-18.6 25.5-26.2 6-4.8 12-9.6 18.5-13.8 7.4-4.9 7.6-5 14.4-.3a280.8 280.8 0 0 1 30.4 23.9 89.5 89.5 0 0 1 15 17.8c1.9 3 2 6.4 1.3 9.8-1.3 6-4.3 10.5-9.9 13.5A28.6 28.6 0 0 1 121 161Z" style="fill:#ffb000"/><path class="cls-4" d="M129.9 150.3c-6 .2-11.4-2.2-16.7-4.4-.8-.3-1.6-1.2-2.4-.5s-.2 1.5 0 2.4a21.3 21.3 0 0 0 4.6 9.2 36 36 0 0 1 5.4 9.2 26.5 26.5 0 0 1 2.7 12.4c0 1.6-1.4 3.3-2.9 1.9a4 4 0 0 0-3-1c-13.5 0-13.3-3.8-16.2-3.8-3 0-4.1 3.3-15.2 3.3a12 12 0 0 0-3 1c-2 1-3.4.3-3.3-2 .2-7.2 2.1-14 6.6-19.7a83.7 83.7 0 0 0 4.7-7.5 7.2 7.2 0 0 0 1-3.2c.2-3 0-3.1-2.8-2.1l-10.2 3.7c-5.3 1.9-10.5.5-15.4-1.2-8.4-2.7-14-8.5-16-17.1A12.2 12.2 0 0 1 50 121c7-10 15.7-18.5 25.3-26.2 6-4.8 12-9.5 18.5-13.7 7.5-4.9 7.6-5 14.4-.3a283 283 0 0 1 30.5 23.9 89.8 89.8 0 0 1 15 17.8c1.9 2.9 2 6.4 1.2 9.8-1.3 5.9-4.3 10.5-9.8 13.4a28.7 28.7 0 0 1-15.2 4.6Zm-17.8-56.4c.2-1.7-.3-3.2-2.4-3.3s-2.8 1.3-2.8 3.2c0 1.5.3 3 2.1 3 1.6 0 3.3-.6 3-2.9Zm-17.4-.3a2.7 2.7 0 0 0-2.4-2.3c-1.6-.2-2.2 1-2.3 2.4s.7 2.9 2 3c1.2.1 2.8-.5 2.7-3Z"/><path d="M112 94c.3 2.2-1.4 2.7-3 2.8-1.7 0-2.1-1.5-2-3 0-1.8.6-3.2 2.7-3.1s2.6 1.5 2.4 3.2Z" style="fill:#fafafe"/><path d="M94.7 93.6c0 2.6-1.5 3.2-2.7 3.1-1.3-.1-2.1-1.4-2-3s.7-2.6 2.3-2.4a2.7 2.7 0 0 1 2.4 2.3Z" style="fill:#f9fafd"/><path class="cls-4" d="M15 42.4V39h1.6l7.2-27.8h6.5l7.2 27.8H39v3.5H28.5V39h1.6L29 34.7h-8l-1.1 4.2h1.6v3.5Zm7-11.6h6l-3-12.4Z"/></svg>