<svg id="Layer_1" data-name="Layer 1" xmlns="http://www.w3.org/2000/svg" xmlns:xlink="http://www.w3.org/1999/xlink" viewBox="0 0 180 252"><defs><style>.cls-1,.cls-2{fill:none;stroke:#ccc;stroke-miterlimit:10;}.cls-1{stroke-width:0.5px;}.cls-2{stroke-width:0.45px;}.cls-3{fill:#fff4d7;}.cls-4{fill:#425ce6;}.cls-5{fill:#ffb000;}.cls-6{fill:#f8f9fd;}</style><symbol id="Card_layout_7" data-name="Card layout 7" viewBox="0 0 180 252"><rect class="cls-1" x="7.5" y="7.5" width="165" height="237"/><rect class="cls-1" x="7.5" y="7.5" width="38.34" height="237"/><rect class="cls-1" x="7.5" y="42.44" width="38.34" height="6.9"/><rect class="cls-1" x="31.06" y="237.6" width="141.44" height="6.9"/><rect class="cls-1" x="45.84" y="35.54" width="120.77" height="202.06"/><rect class="cls-2" x="70.49" y="53.83" width="71.47" height="154.94"/><line class="cls-2" x1="70.49" y1="105.48" x2="141.96" y2="105.48"/><line class="cls-2" x1="70.49" y1="157.12" x2="141.96" y2="157.12"/><line class="cls-2" x1="70.49" y1="131.3" x2="141.96" y2="131.3"/><line class="cls-2" x1="106.22" y1="208.77" x2="106.22" y2="53.83"/><polygon class="cls-2" points="141.96 131.3 106.22 53.83 70.49 131.3 106.22 208.77 141.96 131.3"/><line class="cls-2" x1="70.49" y1="53.83" x2="141.96" y2="105.48"/><line class="cls-2" x1="70.49" y1="105.48" x2="141.96" y2="53.83"/><line class="cls-2" x1="70.49" y1="105.48" x2="141.96" y2="157.12"/><line class="cls-2" x1="70.49" y1="157.12" x2="141.96" y2="105.48"/><line class="cls-2" x1="70.49" y1="157.12" x2="141.96" y2="208.77"/><line class="cls-2" x1="70.49" y1="208.77" x2="141.96" y2="157.12"/><rect class="cls-3" width="180" height="252" rx="12"/></symbol><symbol id="Clubs" data-name="Clubs" viewBox="0 0 28.29 27.45"><path class="cls-4" d="M27.8,14.54,24.31,9.8A1.82,1.82,0,0,0,22,9.65l-6.18,4a.22.22,0,0,1-.35-.18V12.26a1.34,1.34,0,0,1,.45-1l4.39-3.45a1.11,1.11,0,0,0,0-1.64l-5-5.71A1.72,1.72,0,0,0,13,.46l-5,5.71A1.09,1.09,0,0,0,8,7.81l4.38,3.45a1.34,1.34,0,0,1,.45,1v1.26a.22.22,0,0,1-.35.18l-6.17-4A1.82,1.82,0,0,0,4,9.8L.49,14.54a1.51,1.51,0,0,0-.17,2L4,21.32a1.51,1.51,0,0,0,1.88.43l5.58-3a.62.62,0,0,1,.86.76L9.63,26a1.12,1.12,0,0,0,1.06,1.5h6.92A1.12,1.12,0,0,0,18.66,26L16,19.55a.62.62,0,0,1,.87-.76l5.8,3a1.52,1.52,0,0,0,1.88-.43L28,16.58A1.49,1.49,0,0,0,27.8,14.54Z"/></symbol></defs><title>Classic</title><use width="180" height="252" xlink:href="#Card_layout_7"/><use width="28.29" height="27.45" transform="translate(13.49 45.44)" xlink:href="#Clubs"/><path class="cls-4" d="M15,42.44V38.93h1.62L23.78,11.1h6.53l7.17,27.83H39.1v3.51H28.52V38.93h1.57L29,34.66H21l-1.15,4.27h1.62v3.51ZM22,30.8h6.09l-3-12.37Z"/><path class="cls-5" d="M83.19,152.79a118.06,118.06,0,0,1-14.3,9.1,36.51,36.51,0,0,1-7.15,2.94c-2.19.6-4.66.83-6.72-.63-8.2-5.78-15.37-12.52-20.08-21.57a3.33,3.33,0,0,1,.06-3.51A58.35,58.35,0,0,1,52,120c3.93-2.8,9-2.64,13.2,0,5.56,3.42,11.48,6.26,16.77,10.13A10.9,10.9,0,0,1,85.09,133c-.35-5.46.36-10.21-4.51-13.65a25,25,0,0,1-8.71-10.75,10.46,10.46,0,0,1,.33-9.49C76,91.86,81.76,86.39,88.38,81.84a7.21,7.21,0,0,1,8.1.23A48.38,48.38,0,0,1,112,98.5c2.31,4.15,1.93,8.07-.24,12a30,30,0,0,1-8.36,9.37c-1.66,1.25-2.9,2.52-3.1,4.69s-1.37,3.87-1.32,6c0,.51-.22,1.15.31,1.47s1-.21,1.39-.53c5.92-4.53,12.51-8,19-11.62,4.65-2.58,9.91-2.64,14.26,1,6,5.11,11.45,10.83,15.38,17.8a4,4,0,0,1,.18,4.24c-3.44,6.78-8.74,11.92-14.23,16.94-1.18,1.09-2.46,2.08-3.74,3.06-3.52,2.74-7.34,2.92-11.31,1.13a73,73,0,0,1-17.19-10.39c-.59-.5-1.35-1.37-2.09-.87s-.83,9.77.15,11.89c4.35,6.12,14.08,10.15,14.08,22.46-.07,2.09-.29,2.84-2.76,2.15a40.25,40.25,0,0,0-9.53-1.32c-4.11-.14-7-.06-9.15-3.23-1.08-1.57-1.69-2.09-2.87-.09-3.33,5.71-9.22,3.4-14.7,3.95a15.15,15.15,0,0,0-4.47.73c-1.9.8-2.73.19-2.89-2-.28-4,1.29-7.53,2.84-11,1.8-4,7-7.82,9.83-11.26S83.11,157.59,83.19,152.79Zm15.4-57.06a2.32,2.32,0,0,0,2.52-2.64c-.11-1.72-1.25-2.5-2.92-2.43a2.33,2.33,0,0,0-2.48,2.56C95.69,95,96.74,95.76,98.59,95.73ZM83.34,94c0,.93,1,1.82,2.49,1.81a2.2,2.2,0,0,0,2.41-2.57,2.49,2.49,0,0,0-2.83-2.55C83.81,90.81,83.32,91.86,83.34,94Z"/><path class="cls-5" d="M98.59,95.73c-1.85,0-2.9-.7-2.88-2.51a2.33,2.33,0,0,1,2.48-2.56c1.67-.07,2.81.71,2.92,2.43A2.32,2.32,0,0,1,98.59,95.73Z"/><path class="cls-5" d="M83.34,94c0-2.17.47-3.22,2.07-3.31a2.49,2.49,0,0,1,2.83,2.55,2.2,2.2,0,0,1-2.41,2.57C84.31,95.85,83.33,95,83.34,94Z"/><path class="cls-4" d="M88.22,141.76a119.29,119.29,0,0,1-14.3,9.1,36.47,36.47,0,0,1-7.15,2.93c-2.19.61-4.66.83-6.72-.63-8.2-5.77-15.36-12.52-20.08-21.57a3.33,3.33,0,0,1,.06-3.51A58.31,58.31,0,0,1,57,109c3.93-2.8,9-2.65,13.2,0,5.57,3.42,11.48,6.27,16.77,10.14A10.84,10.84,0,0,1,90.12,122c-.35-5.46.36-10.21-4.51-13.65A25,25,0,0,1,76.9,97.59a10.48,10.48,0,0,1,.33-9.5c3.83-7.27,9.56-12.74,16.18-17.28a7.23,7.23,0,0,1,8.11.22,48.63,48.63,0,0,1,15.55,16.43c2.31,4.15,1.93,8.07-.24,12a30.11,30.11,0,0,1-8.36,9.36c-1.65,1.25-2.9,2.52-3.1,4.69s-1.37,3.87-1.32,6c0,.51-.22,1.15.32,1.47s1-.21,1.38-.52c5.92-4.54,12.52-8,19-11.63,4.65-2.58,9.91-2.63,14.26,1,6,5.11,11.45,10.84,15.38,17.8a4,4,0,0,1,.18,4.24c-3.43,6.78-8.74,11.93-14.22,17-1.19,1.08-2.47,2.07-3.74,3.06-3.53,2.73-7.35,2.92-11.32,1.12a73,73,0,0,1-17.19-10.39c-.59-.49-1.35-1.36-2.09-.87s-.83,9.77.15,11.9c4.35,6.11,14.08,10.15,14.08,22.45-.07,2.09-.29,2.84-2.76,2.15a40.25,40.25,0,0,0-9.53-1.32c-4.11-.13-7-.05-9.15-3.22-1.08-1.58-1.69-2.09-2.86-.09-3.34,5.7-9.23,3.39-14.7,3.95a14.84,14.84,0,0,0-4.48.72c-1.9.81-2.73.19-2.88-2-.29-4,1.28-7.54,2.83-11,1.8-4,7-7.83,9.83-11.27S88.14,146.55,88.22,141.76Zm15.4-57.06a2.33,2.33,0,0,0,2.52-2.65c-.1-1.72-1.25-2.5-2.92-2.42a2.32,2.32,0,0,0-2.48,2.55C100.72,84,101.77,84.72,103.62,84.7ZM88.37,83c0,.93,1,1.82,2.49,1.82a2.2,2.2,0,0,0,2.41-2.58,2.5,2.5,0,0,0-2.83-2.55C88.85,79.78,88.35,80.83,88.37,83Z"/><path class="cls-6" d="M103.62,84.7c-1.85,0-2.9-.7-2.88-2.52a2.32,2.32,0,0,1,2.48-2.55c1.67-.08,2.82.7,2.92,2.42A2.33,2.33,0,0,1,103.62,84.7Z"/><path class="cls-6" d="M88.37,83c0-2.16.48-3.21,2.07-3.31a2.5,2.5,0,0,1,2.83,2.55,2.2,2.2,0,0,1-2.41,2.58C89.35,84.81,88.36,83.92,88.37,83Z"/></svg>