<svg id="Layer_1" data-name="Layer 1" xmlns="http://www.w3.org/2000/svg" xmlns:xlink="http://www.w3.org/1999/xlink" viewBox="0 0 180 252"><defs><style>.cls-1,.cls-2{fill:none;stroke:#ccc;stroke-miterlimit:10;}.cls-1{stroke-width:0.5px;}.cls-2{stroke-width:0.45px;}.cls-3{fill:#fff4d7;}.cls-4{fill:#ea8f00;}.cls-5{fill:#425ce6;}.cls-6{fill:#ffb000;}</style><symbol id="Card_layout_7" data-name="Card layout 7" viewBox="0 0 180 252"><rect class="cls-1" x="7.5" y="7.5" width="165" height="237"/><rect class="cls-1" x="7.5" y="7.5" width="38.34" height="237"/><rect class="cls-1" x="7.5" y="42.44" width="38.34" height="6.9"/><rect class="cls-1" x="31.06" y="237.6" width="141.44" height="6.9"/><rect class="cls-1" x="45.84" y="35.54" width="120.77" height="202.06"/><rect class="cls-2" x="70.49" y="53.83" width="71.47" height="154.94"/><line class="cls-2" x1="70.49" y1="105.48" x2="141.96" y2="105.48"/><line class="cls-2" x1="70.49" y1="157.12" x2="141.96" y2="157.12"/><line class="cls-2" x1="70.49" y1="131.3" x2="141.96" y2="131.3"/><line class="cls-2" x1="106.22" y1="208.77" x2="106.22" y2="53.83"/><polygon class="cls-2" points="141.96 131.3 106.22 53.83 70.49 131.3 106.22 208.77 141.96 131.3"/><line class="cls-2" x1="70.49" y1="53.83" x2="141.96" y2="105.48"/><line class="cls-2" x1="70.49" y1="105.48" x2="141.96" y2="53.83"/><line class="cls-2" x1="70.49" y1="105.48" x2="141.96" y2="157.12"/><line class="cls-2" x1="70.49" y1="157.12" x2="141.96" y2="105.48"/><line class="cls-2" x1="70.49" y1="157.12" x2="141.96" y2="208.77"/><line class="cls-2" x1="70.49" y1="208.77" x2="141.96" y2="157.12"/><rect class="cls-3" width="180" height="252" rx="12"/></symbol><symbol id="Diamond" data-name="Diamond" viewBox="0 0 25.28 26"><path class="cls-4" d="M13.39,25.71,24,15.85a3.84,3.84,0,0,0,0-5.64L13.39.3a1.09,1.09,0,0,0-1.5,0L1.23,10.21a3.85,3.85,0,0,0,0,5.64l10.66,9.86A1.11,1.11,0,0,0,13.39,25.71Z"/><path class="cls-4" d="M12.83,22.79c-2.23-2.39-4.37-4.69-6.52-7-.44-.47-.9-.92-1.36-1.36a2.9,2.9,0,0,1,.14-3.85C7.32,8.29,9.57,6,11.8,3.67a1,1,0,0,1,1.7,0c2.31,2.6,4.65,5.19,6.91,7.83,1,1.15.66,2.17-.48,3.38-2,2.12-3.87,4.35-5.81,6.53C13.75,21.85,13.35,22.25,12.83,22.79Z"/></symbol><symbol id="Red_2" data-name="Red 2" viewBox="0 0 115.78 121.49"><path class="cls-5" d="M55.59,121.47c-2.44.26-3.67-1.54-5.08-3.23-6-7.25-9.54-16-14-24.11A10,10,0,0,0,30.1,89C21.8,86.58,14,82.68,5.66,80.48a9.63,9.63,0,0,1-3.63-2,4.82,4.82,0,0,1-1.58-6c1.27-3.23,3.59-5.67,6-8a77.06,77.06,0,0,1,23-14.78c3.62-1.57,5.42-3.9,6.55-7.57,2.57-8.38,6.28-16.24,12.57-22.58,4.52-4.55,9.54-4.55,14.07,0,6.27,6.34,10,14.21,12.56,22.58,1.1,3.55,2.8,5.88,6.34,7.44,9.77,4.32,18.87,9.77,26.06,17.91,5.81,6.57,4.77,11-3.58,13.39C96,83.27,88.45,87.06,80.36,89.27a8.82,8.82,0,0,0-5.5,4.66c-4.57,8.2-8.12,17-14.16,24.35C58.75,120.66,57.86,121.44,55.59,121.47ZM50.91,31.52c-.29-.95-.62-1.94-1.89-2s-2.2.36-2.26,1.81c0,1.23.28,2.29,1.67,2.43S50.46,32.8,50.91,31.52Zm11,1.84c1.38,0,2-.71,2-2.09s-.59-2.06-1.8-2A2.19,2.19,0,0,0,60,31.47,1.71,1.71,0,0,0,61.92,33.36Z"/><path class="cls-5" d="M50.91,31.52c-.45,1.28-1,2.38-2.48,2.24s-1.72-1.2-1.67-2.43c.06-1.45,1-1.88,2.26-1.81S50.62,30.57,50.91,31.52Z"/><path class="cls-5" d="M61.91,33.36A1.71,1.71,0,0,1,60,31.47a2.19,2.19,0,0,1,2.15-2.19c1.21-.07,1.81.73,1.8,2S63.3,33.35,61.91,33.36Z"/><path class="cls-6" d="M60.09,105.29c-2.44.26-3.67-1.54-5.08-3.23-6-7.25-9.54-16-14-24.12a10.06,10.06,0,0,0-6.38-5.12C26.3,70.4,18.53,66.5,10.16,64.3a9.63,9.63,0,0,1-3.63-1.95,4.82,4.82,0,0,1-1.58-6c1.27-3.24,3.59-5.67,6-8A76.86,76.86,0,0,1,34,33.56c3.62-1.57,5.42-3.9,6.55-7.57C43.09,17.61,46.8,9.74,53.09,3.41c4.52-4.55,9.54-4.55,14.07,0,6.27,6.34,10,14.21,12.56,22.58,1.1,3.55,2.8,5.88,6.34,7.44,9.77,4.32,18.87,9.77,26.06,17.91,5.81,6.57,4.77,11-3.58,13.39-8.07,2.33-15.59,6.12-23.68,8.33a8.82,8.82,0,0,0-5.5,4.66c-4.57,8.2-8.12,17-14.16,24.35C63.25,104.48,62.36,105.26,60.09,105.29Z"/></symbol></defs><title>Classic</title><use width="180" height="252" xlink:href="#Card_layout_7"/><use width="25.28" height="26" transform="translate(14.99 46.17)" xlink:href="#Diamond"/><path class="cls-4" d="M23.2,22.9a15.76,15.76,0,0,1,2.9-1.57,6.89,6.89,0,0,1,2.45-.49,6.12,6.12,0,0,1,5.1,2.68,11,11,0,0,1,2,6.81,14.71,14.71,0,0,1-2.86,9.06Q29.94,43.2,26,43.2t-6.72-4.09Q16.6,35,16.6,28.46q0-8,3.76-13.39t9-5.35a8.81,8.81,0,0,1,3.5.65,7.14,7.14,0,0,1,2.64,2l-5.12,5.83a9.3,9.3,0,0,0-2-2.66,3.26,3.26,0,0,0-2.14-.79A2.68,2.68,0,0,0,24,16.44a8.87,8.87,0,0,0-.92,4.3q0,.29.06,1C23.15,22.26,23.18,22.63,23.2,22.9Zm7,12.18a16.35,16.35,0,0,0-1.45-6.75c-1-2.14-2-3.22-3-3.22a1.83,1.83,0,0,0-1.61.82,4.18,4.18,0,0,0-.56,2.35,16.91,16.91,0,0,0,1.43,6.81C26,37.28,27,38.38,28,38.38a2,2,0,0,0,1.7-.82A4.37,4.37,0,0,0,30.24,35.08Z"/><use width="115.78" height="121.49" transform="translate(45.86 34.54) scale(0.43)" xlink:href="#Red_2"/><use width="115.78" height="121.49" transform="translate(116.48 34.54) scale(0.43)" xlink:href="#Red_2"/><use width="115.78" height="121.49" transform="translate(45.86 107.44) scale(0.43)" xlink:href="#Red_2"/><use width="115.78" height="121.49" transform="translate(116.48 107.44) scale(0.43)" xlink:href="#Red_2"/><use width="115.78" height="121.49" transform="translate(45.86 182.91) scale(0.43)" xlink:href="#Red_2"/><use width="115.78" height="121.49" transform="translate(116.48 182.91) scale(0.43)" xlink:href="#Red_2"/></svg>