<svg id="Layer_1" data-name="Layer 1" xmlns="http://www.w3.org/2000/svg" xmlns:xlink="http://www.w3.org/1999/xlink" viewBox="0 0 180 252"><defs><symbol id="Card_layout_4" data-name="Card layout 4" viewBox="0 0 180 252"><path class="cls-1" d="M7.5 7.5h165v237H7.5z"/><path class="cls-1" d="M7.5 7.5h38.3v237H7.5z"/><path class="cls-1" d="M7.5 42.4h38.3v6.9H7.5zM31.1 237.6h141.4v6.9H31.1zM45.8 35.5h120.8v202.1H45.8z"/><path class="cls-2" d="M70.5 53.8H142v154.9H70.5zM70.5 105.5H142M70.5 157.1H142M70.5 131.3H142M106.2 208.8v-155"/><path class="cls-2" d="m142 131.3-35.8-77.5-35.7 77.5 35.7 77.5 35.8-77.5zM70.5 53.8l71.5 51.7M70.5 105.5 142 53.8M70.5 105.5l71.5 51.6M70.5 157.1l71.5-51.6M70.5 157.1l71.5 51.7M70.5 208.8l71.5-51.7"/><rect width="180" height="252" rx="12" style="fill:#fff4d7"/></symbol><symbol id="Heart" data-name="Heart" viewBox="0 0 27.1 25"><path class="cls-4" d="m26.8 9.6-6.3-9a1.4 1.4 0 0 0-1.9-.3l-3.8 2.6a2.2 2.2 0 0 1-2.5 0L8.5.3a1.4 1.4 0 0 0-2 .3l-6.3 9a1.4 1.4 0 0 0 .2 1.7l12.1 13.3a1.4 1.4 0 0 0 2 0l12.2-13.3a1.4 1.4 0 0 0 .1-1.7Z"/><path class="cls-4" d="M13.8 21.6a5.1 5.1 0 0 1-1-.6L4 12a1.8 1.8 0 0 1-.1-2.7l3.4-4.6a2.3 2.3 0 0 1 3.8.2 10.9 10.9 0 0 0 2.1 1.8c.2.2.8 0 1-.2a26.9 26.9 0 0 0 3-2.6c.8-1 1.6-.7 2.2.1a126 126 0 0 1 4 5.5 1.4 1.4 0 0 1 .2 1.2 28.5 28.5 0 0 1-2.4 3.2l-2.8 2.9L15 20l-1.3 1.5Z"/></symbol><symbol id="Red_1" data-name="Red 1" viewBox="0 0 119.5 127.3"><path class="cls-5" d="M0 56a59.9 59.9 0 0 1 21.5-32.3c2.6-1.9 5.7-2.3 8.7-3 4.7-.9 9 .7 13.4 2.3 2.8 1 5.6 1.8 8 3.9 1.3 1.1 2.6 1 4.2.3 5.4-2.4 10.3-6.3 16-8 4.5-1.5 8.7-1.6 13.2 1.5a59.9 59.9 0 0 1 21.7 24.5c3 5.3.2 13.6-2 17.6-5.7 10.4-38.9 35.5-41.8 38.1a145 145 0 0 0-7.6 24c-.3 1.2-1 2.4-2 2.5-1.3 0-1-1.6-1.2-2.5a61.5 61.5 0 0 0-9.5-24.4c-5-5-37.4-29.8-39.7-34.7C1.6 63 0 60.3 0 56Zm68.2-19.5c0-1.8-.8-3-2.6-3.2S62 34.5 62 36a2.6 2.6 0 0 0 2.6 2.7 3 3 0 0 0 3.6-2.3Zm-21.7.7c-.1-1.7-.9-3-2.7-3a2.8 2.8 0 0 0-3 3c0 1.5.8 3.1 2.4 3 1.5-.2 3.6-.5 3.3-3Z"/><path class="cls-5" d="M68.2 36.5a3 3 0 0 1-3.5 2.4A2.6 2.6 0 0 1 62 36c0-1.5 2-3 3.6-2.8s2.6 1.5 2.6 3.3ZM46.5 37.2c.3 2.5-1.8 2.8-3.3 3-1.6.2-2.4-1.5-2.4-2.9a2.8 2.8 0 0 1 3-3c1.8 0 2.6 1.2 2.7 3Z"/><path class="cls-4" d="M11.4 37.8A60 60 0 0 1 33 5.5c2.6-1.9 5.7-2.4 8.7-3 4.7-.8 9 .7 13.4 2.4 2.8 1 5.6 1.8 8 3.8 1.3 1.1 2.7 1 4.2.3 5.5-2.3 10.3-6.3 16-8C87.8-.4 92-.6 96.5 2.5A59.8 59.8 0 0 1 118.2 27c3 5.3.2 13.6-2 17.6-5.8 10.3-39 35.4-41.9 38a144 144 0 0 0-7.6 24c-.3 1.3-1 2.4-2 2.5-1.3.1-1-1.5-1.2-2.5A61.5 61.5 0 0 0 54 82.3c-5-5.1-37.4-29.9-39.7-34.8-1.3-2.7-2.8-5.4-2.9-9.7Z"/></symbol><style>.cls-1,.cls-2{fill:none;stroke:#ccc;stroke-miterlimit:10}.cls-1{stroke-width:.5px}.cls-2{stroke-width:.45px}.cls-4{fill:#ffb000}.cls-5{fill:#425ce6}</style></defs><use width="180" height="252" xlink:href="#Card_layout_4"/><use width="27.1" height="25" transform="translate(14.1 46.7)" xlink:href="#Heart"/><path class="cls-4" d="m18.3 42.4-.8-4.7a32.3 32.3 0 0 0 7.7-8.6 17.6 17.6 0 0 0 2.7-9 9 9 0 0 0-1-4.5 2.9 2.9 0 0 0-2.5-1.7 2.2 2.2 0 0 0-1.8.7 2.5 2.5 0 0 0-.6 1.9 6.4 6.4 0 0 0 .7 3.3 7 7 0 0 0 2.6 2.3l-3.1 6.8a9.3 9.3 0 0 1-4.3-3 8 8 0 0 1-1.4-4.8 11.4 11.4 0 0 1 3-8 9.3 9.3 0 0 1 7-3.4 8 8 0 0 1 6.3 2.5 9.3 9.3 0 0 1 2.3 6.6 15 15 0 0 1-2 7.2 52.5 52.5 0 0 1-7.1 9.3h2.5a5 5 0 0 0 2.8-.7 2.6 2.6 0 0 0 1.1-2h2.4L34.3 44h-2.8l-.1-1.5Z"/><use width="119.5" height="127.3" transform="matrix(.4 0 0 .4 72.8 35)" xlink:href="#Red_1"/><use width="119.5" height="127.3" transform="matrix(.4 0 0 .4 72.8 183.4)" xlink:href="#Red_1"/></svg>