<svg id="Layer_1" data-name="Layer 1" xmlns="http://www.w3.org/2000/svg" xmlns:xlink="http://www.w3.org/1999/xlink" viewBox="0 0 180 252"><defs><style>.cls-1{fill:#db4cdb;}.cls-2{fill:#ffb000;}.cls-3,.cls-4{fill:none;stroke:#ccc;stroke-miterlimit:10;}.cls-3{stroke-width:0.5px;}.cls-4{stroke-width:0.45px;}.cls-5{fill:#fff4d7;}.cls-6{fill:#ea8f00;}</style><symbol id="Card_layout_7" data-name="Card layout 7" viewBox="0 0 180 252"><rect class="cls-3" x="7.5" y="7.5" width="165" height="237"/><rect class="cls-3" x="7.5" y="7.5" width="38.34" height="237"/><rect class="cls-3" x="7.5" y="42.44" width="38.34" height="6.9"/><rect class="cls-3" x="31.06" y="237.6" width="141.44" height="6.9"/><rect class="cls-3" x="45.84" y="35.54" width="120.77" height="202.06"/><rect class="cls-4" x="70.49" y="53.83" width="71.47" height="154.94"/><line class="cls-4" x1="70.49" y1="105.48" x2="141.96" y2="105.48"/><line class="cls-4" x1="70.49" y1="157.12" x2="141.96" y2="157.12"/><line class="cls-4" x1="70.49" y1="131.3" x2="141.96" y2="131.3"/><line class="cls-4" x1="106.22" y1="208.77" x2="106.22" y2="53.83"/><polygon class="cls-4" points="141.96 131.3 106.22 53.83 70.49 131.3 106.22 208.77 141.96 131.3"/><line class="cls-4" x1="70.49" y1="53.83" x2="141.96" y2="105.48"/><line class="cls-4" x1="70.49" y1="105.48" x2="141.96" y2="53.83"/><line class="cls-4" x1="70.49" y1="105.48" x2="141.96" y2="157.12"/><line class="cls-4" x1="70.49" y1="157.12" x2="141.96" y2="105.48"/><line class="cls-4" x1="70.49" y1="157.12" x2="141.96" y2="208.77"/><line class="cls-4" x1="70.49" y1="208.77" x2="141.96" y2="157.12"/><rect class="cls-5" width="180" height="252" rx="12"/></symbol><symbol id="Heart" data-name="Heart" viewBox="0 0 27.07 25"><path class="cls-6" d="M26.82,9.6l-6.3-9A1.38,1.38,0,0,0,18.6.25L14.78,2.89a2.2,2.2,0,0,1-2.5,0L8.47.25A1.39,1.39,0,0,0,6.54.59L.25,9.6a1.39,1.39,0,0,0,.12,1.73L12.51,24.55a1.38,1.38,0,0,0,2,0L26.7,11.33A1.39,1.39,0,0,0,26.82,9.6Z"/><path class="cls-6" d="M13.85,21.57a5.13,5.13,0,0,1-1-.58L4,12.11a1.81,1.81,0,0,1-.12-2.66C5,7.92,6.15,6.35,7.3,4.83A2.28,2.28,0,0,1,11.13,5,10.9,10.9,0,0,0,13.2,6.83c.21.15.82,0,1.08-.22A26.88,26.88,0,0,0,17.14,4c.9-1,1.66-.67,2.29.13,1.41,1.78,2.74,3.6,4.05,5.45a1.36,1.36,0,0,1,.14,1.18A28.51,28.51,0,0,1,21.19,14c-.88,1-1.88,1.91-2.83,2.85s-2.18,2.12-3.24,3.2C14.68,20.54,14.3,21.05,13.85,21.57Z"/></symbol><symbol id="_8_Red_1" data-name="8 Red 1" viewBox="0 0 47.53 50.85"><path class="cls-1" d="M.22,20C.79,17.5,6,11.52,8.35,10a7.63,7.63,0,0,1,6.36-.63,48.29,48.29,0,0,1,5.27,2,1.72,1.72,0,0,0,1.62.11,62.07,62.07,0,0,1,6.19-2.29,5.41,5.41,0,0,1,5.11.57,23.06,23.06,0,0,1,8.36,9.46c1.2,2.05.08,5.27-.77,6.79-2.23,4-15,13.67-16.14,14.71-.7.64-2.72,8.26-2.94,9.25-.11.46-.22.9-.61.94s-.57-.6-.64-1c-.82-4.51-2-8.3-3-9.48S3.44,29.8,1.46,26.15C0,23.75-.27,22.12.22,20Z"/><path class="cls-2" d="M6,11.26c.58-2.51,5.82-8.49,8.13-10A7.58,7.58,0,0,1,20.46.62a44.8,44.8,0,0,1,5.27,1.95,1.75,1.75,0,0,0,1.62.1A61,61,0,0,1,33.53.38,5.43,5.43,0,0,1,38.64,1,23.08,23.08,0,0,1,47,10.41c1.19,2.05.07,5.27-.77,6.79-2.23,4-15,13.67-16.15,14.71-.7.65-2.72,8.26-2.94,9.25-.11.47-.22.91-.61.94s-.57-.6-.64-1c-.82-4.51-2-8.3-3-9.48S9.18,21.05,7.2,17.4C5.79,15,5.47,13.38,6,11.26Z"/></symbol></defs><title>Classic</title><use width="180" height="252" xlink:href="#Card_layout_7"/><use width="27.07" height="25" transform="translate(14.1 46.67)" xlink:href="#Heart"/><path class="cls-6" d="M21,25.59a7.31,7.31,0,0,1-2.23-3A10.17,10.17,0,0,1,18,18.57a8.88,8.88,0,0,1,2.4-6.42,8.09,8.09,0,0,1,6.11-2.49,7.57,7.57,0,0,1,5.43,2.09,6.67,6.67,0,0,1,2.19,5,9.17,9.17,0,0,1-.76,3.69A12.64,12.64,0,0,1,31,23.93a10.83,10.83,0,0,1,3,3.52,9.48,9.48,0,0,1,.9,4.28A12,12,0,0,1,32,39.87a9,9,0,0,1-7,3.33,7.43,7.43,0,0,1-5.75-2.53A9.07,9.07,0,0,1,17,34.34a10.7,10.7,0,0,1,.89-4.44A16.5,16.5,0,0,1,21,25.59Zm2.11,2.05a7.63,7.63,0,0,0-.68,1.55,4.88,4.88,0,0,0-.24,1.49A6.78,6.78,0,0,0,24,35.23,5.32,5.32,0,0,0,28,37.35a2.49,2.49,0,0,0,1.75-.58,2.22,2.22,0,0,0,.62-1.69A4.16,4.16,0,0,0,29,32.33,43.16,43.16,0,0,0,23.09,27.64Zm5.62-5.51a9,9,0,0,0,.62-1.62,5.8,5.8,0,0,0,.19-1.46A6.65,6.65,0,0,0,28.31,15a3.63,3.63,0,0,0-3-1.62,2.22,2.22,0,0,0-1.72.72,2.68,2.68,0,0,0-.66,1.86,4.2,4.2,0,0,0,1.19,2.85A21.71,21.71,0,0,0,28.71,22.13Z"/><use width="47.53" height="50.85" transform="translate(47.82 31.69)" xlink:href="#_8_Red_1"/><use width="47.53" height="50.85" transform="translate(118.54 31.69)" xlink:href="#_8_Red_1"/><use width="47.53" height="50.85" transform="translate(47.82 105.62)" xlink:href="#_8_Red_1"/><use width="47.53" height="50.85" transform="translate(118.54 105.62)" xlink:href="#_8_Red_1"/><use width="47.53" height="50.85" transform="translate(47.82 182.7)" xlink:href="#_8_Red_1"/><use width="47.53" height="50.85" transform="translate(82.1 140.86)" xlink:href="#_8_Red_1"/><use width="47.53" height="50.85" transform="translate(82.1 65.01)" xlink:href="#_8_Red_1"/><use width="47.53" height="50.85" transform="translate(118.54 182.7)" xlink:href="#_8_Red_1"/></svg>