<svg id="Layer_1" data-name="Layer 1" xmlns="http://www.w3.org/2000/svg" xmlns:xlink="http://www.w3.org/1999/xlink" viewBox="0 0 180 252"><defs><style>.cls-1,.cls-2{fill:none;stroke:#ccc;stroke-miterlimit:10;}.cls-1{stroke-width:0.5px;}.cls-2{stroke-width:0.45px;}.cls-3{fill:#fff4d7;}.cls-4{fill:#ea8f00;}.cls-5{fill:#425ce6;}.cls-6{fill:#ffb000;}</style><symbol id="Card_layout_4" data-name="Card layout 4" viewBox="0 0 180 252"><rect class="cls-1" x="7.5" y="7.5" width="165" height="237"/><rect class="cls-1" x="7.5" y="7.5" width="38.34" height="237"/><rect class="cls-1" x="7.5" y="42.44" width="38.34" height="6.9"/><rect class="cls-1" x="31.06" y="237.6" width="141.44" height="6.9"/><rect class="cls-1" x="45.84" y="35.54" width="120.77" height="202.06"/><rect class="cls-2" x="70.49" y="53.83" width="71.47" height="154.94"/><line class="cls-2" x1="70.49" y1="105.48" x2="141.96" y2="105.48"/><line class="cls-2" x1="70.49" y1="157.12" x2="141.96" y2="157.12"/><line class="cls-2" x1="70.49" y1="131.3" x2="141.96" y2="131.3"/><line class="cls-2" x1="106.22" y1="208.77" x2="106.22" y2="53.83"/><polygon class="cls-2" points="141.96 131.3 106.22 53.83 70.49 131.3 106.22 208.77 141.96 131.3"/><line class="cls-2" x1="70.49" y1="53.83" x2="141.96" y2="105.48"/><line class="cls-2" x1="70.49" y1="105.48" x2="141.96" y2="53.83"/><line class="cls-2" x1="70.49" y1="105.48" x2="141.96" y2="157.12"/><line class="cls-2" x1="70.49" y1="157.12" x2="141.96" y2="105.48"/><line class="cls-2" x1="70.49" y1="157.12" x2="141.96" y2="208.77"/><line class="cls-2" x1="70.49" y1="208.77" x2="141.96" y2="157.12"/><rect class="cls-3" width="180" height="252" rx="12"/></symbol><symbol id="Heart" data-name="Heart" viewBox="0 0 27.07 25"><path class="cls-4" d="M26.82,9.6l-6.3-9A1.38,1.38,0,0,0,18.6.25L14.78,2.89a2.2,2.2,0,0,1-2.5,0L8.47.25A1.39,1.39,0,0,0,6.54.59L.25,9.6a1.39,1.39,0,0,0,.12,1.73L12.51,24.55a1.38,1.38,0,0,0,2,0L26.7,11.33A1.39,1.39,0,0,0,26.82,9.6Z"/><path class="cls-4" d="M13.85,21.57a5.13,5.13,0,0,1-1-.58L4,12.11a1.81,1.81,0,0,1-.12-2.66C5,7.92,6.15,6.35,7.3,4.83A2.28,2.28,0,0,1,11.13,5,10.9,10.9,0,0,0,13.2,6.83c.21.15.82,0,1.08-.22A26.88,26.88,0,0,0,17.14,4c.9-1,1.66-.67,2.29.13,1.41,1.78,2.74,3.6,4.05,5.45a1.36,1.36,0,0,1,.14,1.18A28.51,28.51,0,0,1,21.19,14c-.88,1-1.88,1.91-2.83,2.85s-2.18,2.12-3.24,3.2C14.68,20.54,14.3,21.05,13.85,21.57Z"/></symbol><symbol id="Red_1" data-name="Red 1" viewBox="0 0 119.51 127.35"><path class="cls-5" d="M0,56c-.12-1.52.81-3.72,1.66-5.82,4.46-11,11-19.93,19.84-26.44,2.6-1.93,5.65-2.38,8.67-3,4.74-.9,9,.63,13.4,2.3,2.79,1.05,5.6,1.8,8,3.85,1.31,1.11,2.66.93,4.19.28,5.47-2.34,10.35-6.26,16-8,4.58-1.43,8.78-1.58,13.26,1.49,9.6,6.58,16.12,13.35,21.67,24.52,3.1,5.31.2,13.65-2,17.59C99,73.19,65.83,98.26,62.93,100.94c-1.82,1.68-7.06,21.4-7.64,24-.27,1.21-1,2.35-2,2.43-1.33.11-1.06-1.54-1.23-2.48-2.13-11.69-7.22-22-9.48-24.34-5-5.12-37.37-29.88-39.7-34.76C1.57,63,.09,60.34,0,56ZM68.19,36.53c0-1.87-.77-3-2.56-3.28S62,34.5,62,36.05a2.62,2.62,0,0,0,2.64,2.8A2.94,2.94,0,0,0,68.19,36.53Zm-21.71.69c-.08-1.7-.86-2.93-2.72-2.93a2.79,2.79,0,0,0-3,3c0,1.42.8,3.06,2.46,2.89C44.72,40,46.77,39.73,46.48,37.22Z"/><path class="cls-5" d="M68.19,36.53a2.94,2.94,0,0,1-3.52,2.32A2.62,2.62,0,0,1,62,36.05c0-1.55,1.91-3,3.6-2.8S68.2,34.66,68.19,36.53Z"/><path class="cls-5" d="M46.48,37.22c.29,2.51-1.76,2.82-3.25,3-1.66.17-2.44-1.47-2.46-2.89a2.79,2.79,0,0,1,3-3C45.62,34.29,46.4,35.52,46.48,37.22Z"/><path class="cls-6" d="M11.42,37.79c-.12-1.53.81-3.73,1.66-5.82C17.54,21,24.11,12,32.92,5.53c2.6-1.93,5.65-2.38,8.68-2.95,4.73-.9,9,.63,13.39,2.29,2.79,1.06,5.6,1.81,8,3.86,1.31,1.11,2.66.93,4.19.28,5.47-2.34,10.36-6.26,16-8C87.82-.45,92-.6,96.49,2.47c9.6,6.58,16.13,13.35,21.67,24.52,3.1,5.31.2,13.65-2,17.58C110.39,54.94,77.24,80,74.34,82.69c-1.82,1.68-7.06,21.4-7.63,24-.28,1.21-1,2.35-2,2.43-1.34.11-1.06-1.54-1.24-2.48-2.13-11.69-7.22-22-9.48-24.34-5.05-5.12-37.37-29.88-39.7-34.76C13,44.76,11.5,42.09,11.42,37.79Z"/></symbol></defs><title>Classic</title><use width="180" height="252" xlink:href="#Card_layout_4"/><use width="27.07" height="25" transform="translate(14.1 46.67)" xlink:href="#Heart"/><path class="cls-4" d="M18.29,42.44l-.76-4.75a32.25,32.25,0,0,0,7.7-8.54,17.6,17.6,0,0,0,2.66-9,9,9,0,0,0-1-4.52,2.9,2.9,0,0,0-2.52-1.73,2.24,2.24,0,0,0-1.72.69A2.54,2.54,0,0,0,22,16.46a6.4,6.4,0,0,0,.74,3.3,7,7,0,0,0,2.61,2.32l-3.19,6.86a9.31,9.31,0,0,1-4.29-3.06,8.07,8.07,0,0,1-1.38-4.83,11.43,11.43,0,0,1,3.1-7.91,9.27,9.27,0,0,1,7-3.43,8.1,8.1,0,0,1,6.21,2.51,9.35,9.35,0,0,1,2.33,6.62,15,15,0,0,1-2.07,7.21A52.5,52.5,0,0,1,26,35.32H28.5a4.94,4.94,0,0,0,2.84-.7,2.58,2.58,0,0,0,1.11-2h2.37l-.55,11.34H31.48l-.11-1.5Z"/><use width="119.51" height="127.35" transform="translate(72.8 35.08) scale(0.4)" xlink:href="#Red_1"/><use width="119.51" height="127.35" transform="translate(72.8 183.45) scale(0.4)" xlink:href="#Red_1"/></svg>