<svg id="Layer_1" data-name="Layer 1" xmlns="http://www.w3.org/2000/svg" xmlns:xlink="http://www.w3.org/1999/xlink" viewBox="0 0 180 252"><defs><style>.cls-1,.cls-2{fill:none;stroke:#ccc;stroke-miterlimit:10;}.cls-1{stroke-width:0.5px;}.cls-2{stroke-width:0.45px;}.cls-3{fill:#fff4d7;}.cls-4{fill:#e1306c;}.cls-5{fill:#425ce6;}.cls-6{fill:#f8f9fd;}</style><symbol id="Card_layout_7" data-name="Card layout 7" viewBox="0 0 180 252"><rect class="cls-1" x="7.5" y="7.5" width="165" height="237"/><rect class="cls-1" x="7.5" y="7.5" width="38.34" height="237"/><rect class="cls-1" x="7.5" y="42.44" width="38.34" height="6.9"/><rect class="cls-1" x="31.06" y="237.6" width="141.44" height="6.9"/><rect class="cls-1" x="45.84" y="35.54" width="120.77" height="202.06"/><rect class="cls-2" x="70.49" y="53.83" width="71.47" height="154.94"/><line class="cls-2" x1="70.49" y1="105.48" x2="141.96" y2="105.48"/><line class="cls-2" x1="70.49" y1="157.12" x2="141.96" y2="157.12"/><line class="cls-2" x1="70.49" y1="131.3" x2="141.96" y2="131.3"/><line class="cls-2" x1="106.22" y1="208.77" x2="106.22" y2="53.83"/><polygon class="cls-2" points="141.96 131.3 106.22 53.83 70.49 131.3 106.22 208.77 141.96 131.3"/><line class="cls-2" x1="70.49" y1="53.83" x2="141.96" y2="105.48"/><line class="cls-2" x1="70.49" y1="105.48" x2="141.96" y2="53.83"/><line class="cls-2" x1="70.49" y1="105.48" x2="141.96" y2="157.12"/><line class="cls-2" x1="70.49" y1="157.12" x2="141.96" y2="105.48"/><line class="cls-2" x1="70.49" y1="157.12" x2="141.96" y2="208.77"/><line class="cls-2" x1="70.49" y1="208.77" x2="141.96" y2="157.12"/><rect class="cls-3" width="180" height="252" rx="12"/></symbol><symbol id="Clubs_red" data-name="Clubs red" viewBox="0 0 27.83 27"><path class="cls-4" d="M27.35,14.3,23.91,9.64a1.79,1.79,0,0,0-2.25-.15l-6.07,4a.23.23,0,0,1-.35-.19V12.06a1.29,1.29,0,0,1,.45-1L20,7.69a1.09,1.09,0,0,0,0-1.63L15.07.45a1.71,1.71,0,0,0-2.31,0L7.81,6.06a1.1,1.1,0,0,0,0,1.63l4.32,3.39a1.32,1.32,0,0,1,.44,1v1.23a.23.23,0,0,1-.35.19l-6.07-4a1.78,1.78,0,0,0-2.24.15L.48,14.3a1.5,1.5,0,0,0-.17,2L3.89,21a1.49,1.49,0,0,0,1.85.42l5.49-2.91a.61.61,0,0,1,.85.75L9.47,25.52a1.11,1.11,0,0,0,1,1.48h6.81a1.11,1.11,0,0,0,1-1.48l-2.62-6.29a.61.61,0,0,1,.85-.75l5.71,2.91A1.47,1.47,0,0,0,24.14,21l3.37-4.66A1.48,1.48,0,0,0,27.35,14.3Z"/></symbol><symbol id="Royal_black_2" data-name="Royal black 2" viewBox="0 0 120.62 120"><path class="cls-5" d="M48.72,83.12a118,118,0,0,1-14.29,9.11,37.44,37.44,0,0,1-7.16,2.93c-2.19.61-4.65.83-6.72-.63C12.35,88.75,5.19,82,.47,73a3.31,3.31,0,0,1,.07-3.51,58.2,58.2,0,0,1,17-19.14c3.93-2.8,9-2.64,13.2,0C36.3,53.7,42.21,56.55,47.5,60.42a10.57,10.57,0,0,1,3.12,2.93c-.35-5.46.36-10.21-4.51-13.65A25,25,0,0,1,37.4,39a10.48,10.48,0,0,1,.33-9.5c3.83-7.27,9.56-12.74,16.18-17.28A7.21,7.21,0,0,1,62,12.4,48.57,48.57,0,0,1,77.58,28.83c2.3,4.15,1.92,8.07-.25,12A30,30,0,0,1,69,50.2c-1.65,1.25-2.9,2.52-3.1,4.69s-1.37,3.87-1.31,6c0,.51-.23,1.15.31,1.47s1-.21,1.38-.53c5.92-4.53,12.52-8,19-11.62,4.65-2.58,9.92-2.64,14.26,1C105.53,56.32,111,62,114.89,69a4,4,0,0,1,.17,4.24c-3.43,6.78-8.74,11.92-14.22,16.94-1.19,1.09-2.47,2.08-3.74,3.07-3.53,2.73-7.35,2.91-11.32,1.12A73,73,0,0,1,68.59,84c-.59-.5-1.34-1.37-2.09-.87s-.83,9.77.15,11.9c4.35,6.11,14.08,10.14,14.08,22.45-.07,2.09-.29,2.84-2.76,2.15a40.18,40.18,0,0,0-9.53-1.32c-4.11-.13-7,0-9.15-3.23-1.08-1.57-1.69-2.09-2.86-.09-3.34,5.71-9.23,3.4-14.7,4a15.17,15.17,0,0,0-4.48.73c-1.9.8-2.73.19-2.88-2-.29-4,1.28-7.54,2.83-11,1.8-4,7-7.83,9.83-11.27S48.64,87.92,48.72,83.12Zm15.4-57a2.33,2.33,0,0,0,2.52-2.65c-.1-1.72-1.25-2.5-2.92-2.43a2.33,2.33,0,0,0-2.48,2.56C61.22,25.36,62.27,26.09,64.12,26.07ZM48.87,24.36c0,.93,1,1.82,2.49,1.82a2.2,2.2,0,0,0,2.41-2.58,2.5,2.5,0,0,0-2.83-2.55C49.35,21.14,48.85,22.19,48.87,24.36Z"/><path class="cls-5" d="M64.12,26.07c-1.85,0-2.9-.71-2.88-2.52A2.33,2.33,0,0,1,63.72,21c1.67-.07,2.82.71,2.92,2.43A2.33,2.33,0,0,1,64.12,26.07Z"/><path class="cls-5" d="M48.87,24.36c0-2.17.48-3.22,2.07-3.31a2.5,2.5,0,0,1,2.83,2.55,2.2,2.2,0,0,1-2.41,2.58C49.85,26.18,48.87,25.29,48.87,24.36Z"/><path class="cls-4" d="M53.75,72.09a118,118,0,0,1-14.29,9.1,36.34,36.34,0,0,1-7.16,2.94c-2.19.6-4.65.82-6.72-.63C17.38,77.72,10.22,71,5.5,61.92a3.29,3.29,0,0,1,.07-3.5,58.22,58.22,0,0,1,17-19.14c3.93-2.8,9-2.64,13.2,0,5.57,3.42,11.48,6.27,16.77,10.14a10.77,10.77,0,0,1,3.12,2.94c-.35-5.47.36-10.22-4.51-13.66a25,25,0,0,1-8.71-10.74,10.52,10.52,0,0,1,.33-9.5C46.59,11.16,52.32,5.68,59,1.14a7.22,7.22,0,0,1,8.1.23A48.48,48.48,0,0,1,82.61,17.8c2.31,4.14,1.92,8.07-.25,12A30,30,0,0,1,74,39.16c-1.65,1.25-2.89,2.53-3.1,4.7s-1.36,3.86-1.31,6c0,.5-.23,1.15.31,1.47s1-.21,1.38-.53c5.92-4.54,12.52-8,19-11.62,4.65-2.58,9.92-2.64,14.26,1C110.56,45.29,116,51,119.92,58a4,4,0,0,1,.17,4.24c-3.43,6.78-8.74,11.93-14.22,16.95-1.19,1.09-2.47,2.07-3.74,3.06C98.6,85,94.78,85.14,90.81,83.35A73.84,73.84,0,0,1,73.62,73c-.59-.5-1.34-1.37-2.09-.88s-.82,9.77.15,11.9C76,90.1,85.76,94.13,85.76,106.44c-.07,2.08-.29,2.84-2.76,2.14a40.63,40.63,0,0,0-9.53-1.32c-4.11-.13-7-.05-9.15-3.22-1.07-1.58-1.69-2.09-2.86-.09-3.34,5.71-9.22,3.39-14.7,4a14.54,14.54,0,0,0-4.48.73c-1.9.8-2.73.19-2.88-2-.29-4,1.28-7.53,2.83-11,1.8-4,7-7.83,9.83-11.27S53.67,76.88,53.75,72.09ZM69.15,15c1.56-.07,2.63-.88,2.52-2.64S70.43,9.89,68.75,10a2.33,2.33,0,0,0-2.48,2.55C66.25,14.33,67.3,15.06,69.15,15ZM53.9,13.32c0,.94,1,1.82,2.49,1.82a2.2,2.2,0,0,0,2.41-2.58A2.48,2.48,0,0,0,56,10C54.38,10.11,53.88,11.16,53.9,13.32Z"/><path class="cls-6" d="M69.15,15c-1.85,0-2.9-.7-2.88-2.52A2.33,2.33,0,0,1,68.75,10c1.68-.07,2.82.7,2.92,2.43S70.71,15,69.15,15Z"/><path class="cls-6" d="M53.9,13.32c0-2.16.48-3.21,2.07-3.3a2.48,2.48,0,0,1,2.83,2.54,2.2,2.2,0,0,1-2.41,2.58C54.88,15.14,53.9,14.26,53.9,13.32Z"/></symbol></defs><title>Classic</title><use width="180" height="252" xlink:href="#Card_layout_7"/><use width="27.83" height="27" transform="translate(13.72 49.67)" xlink:href="#Clubs_red"/><path class="cls-4" d="M29.56,43a21.06,21.06,0,0,1,5.68,2.23,15.18,15.18,0,0,0,5.63,2l-4.74,4.34a20.82,20.82,0,0,1-5.5-2.44c-2.07-1.24-3.51-1.85-4.32-1.85a5.3,5.3,0,0,0-1.4.2,19.66,19.66,0,0,0-2.19.76l-1.28-3.07c.94-.29,1.87-.6,2.77-.95A27.52,27.52,0,0,0,26.89,43a10.92,10.92,0,0,1-7.62-5,18.91,18.91,0,0,1-2.9-10.78q0-7.28,3.44-12a10.43,10.43,0,0,1,8.74-4.71,10.62,10.62,0,0,1,8.8,4.38q3.39,4.38,3.39,11.43a20.35,20.35,0,0,1-3.13,11.59A10.58,10.58,0,0,1,29.56,43Zm.56-3.37a2.59,2.59,0,0,0,2.46-1.58,11.77,11.77,0,0,0,.79-5,44.51,44.51,0,0,0-.73-7.87,37.39,37.39,0,0,0-1.89-7.07A10.14,10.14,0,0,0,29,15a2.65,2.65,0,0,0-2-1,2.62,2.62,0,0,0-2.47,1.52,10.73,10.73,0,0,0-.8,4.74,46.66,46.66,0,0,0,.73,7.92,41.8,41.8,0,0,0,1.9,7.31,10.09,10.09,0,0,0,1.72,3.16A2.7,2.7,0,0,0,30.12,39.63Z"/><use width="120.62" height="120" transform="translate(35.65 78.67)" xlink:href="#Royal_black_2"/><path class="cls-5" d="M83,66.3c0,3.6,7.16,6.51,16,6.51s16-2.91,16-6.51v-7l-8-.16L99,49,91,59.14l-8,.16Z"/></svg>