<svg id="Layer_1" data-name="Layer 1" xmlns="http://www.w3.org/2000/svg" xmlns:xlink="http://www.w3.org/1999/xlink" viewBox="0 0 180 252"><defs><style>.cls-1,.cls-2{fill:none;stroke:#ccc;stroke-miterlimit:10;}.cls-1{stroke-width:0.5px;}.cls-2{stroke-width:0.45px;}.cls-3{fill:#fff4d7;}.cls-4{fill:#425ce6;}.cls-5{fill:#e1306c;}.cls-6{fill:#fafafe;}.cls-7{fill:#f9fafd;}</style><symbol id="Card_layout_4" data-name="Card layout 4" viewBox="0 0 180 252"><rect class="cls-1" x="7.5" y="7.5" width="165" height="237"/><rect class="cls-1" x="7.5" y="7.5" width="38.34" height="237"/><rect class="cls-1" x="7.5" y="42.44" width="38.34" height="6.9"/><rect class="cls-1" x="31.06" y="237.6" width="141.44" height="6.9"/><rect class="cls-1" x="45.84" y="35.54" width="120.77" height="202.06"/><rect class="cls-2" x="70.49" y="53.83" width="71.47" height="154.94"/><line class="cls-2" x1="70.49" y1="105.48" x2="141.96" y2="105.48"/><line class="cls-2" x1="70.49" y1="157.12" x2="141.96" y2="157.12"/><line class="cls-2" x1="70.49" y1="131.3" x2="141.96" y2="131.3"/><line class="cls-2" x1="106.22" y1="208.77" x2="106.22" y2="53.83"/><polygon class="cls-2" points="141.96 131.3 106.22 53.83 70.49 131.3 106.22 208.77 141.96 131.3"/><line class="cls-2" x1="70.49" y1="53.83" x2="141.96" y2="105.48"/><line class="cls-2" x1="70.49" y1="105.48" x2="141.96" y2="53.83"/><line class="cls-2" x1="70.49" y1="105.48" x2="141.96" y2="157.12"/><line class="cls-2" x1="70.49" y1="157.12" x2="141.96" y2="105.48"/><line class="cls-2" x1="70.49" y1="157.12" x2="141.96" y2="208.77"/><line class="cls-2" x1="70.49" y1="208.77" x2="141.96" y2="157.12"/><rect class="cls-3" width="180" height="252" rx="12"/></symbol><symbol id="Spades_red" data-name="Spades red" viewBox="0 0 27.89 26"><path class="cls-5" d="M14,26h3.41a1.11,1.11,0,0,0,1-1.48l-2.27-6.31a.61.61,0,0,1,.85-.75l4.44,2.26a1.5,1.5,0,0,0,1.86-.42l4.3-5.52a1.51,1.51,0,0,0-.17-2L15.1.45a1.71,1.71,0,0,0-2.31,0L.48,11.76a1.5,1.5,0,0,0-.16,2l4.3,5.52a1.48,1.48,0,0,0,1.85.42l4.44-2.26a.61.61,0,0,1,.85.75L9.49,24.52a1.11,1.11,0,0,0,1,1.48Z"/></symbol><symbol id="Royal_black_1" data-name="Royal black 1" viewBox="0 0 119.63 120.97"><path class="cls-4" d="M87.21,88.45c-6.38.3-12-2.26-17.69-4.63-.8-.33-1.69-1.25-2.45-.54s-.27,1.65-.06,2.55a22.55,22.55,0,0,0,4.83,9.79,37.86,37.86,0,0,1,5.66,9.73c2,4.43,3,8.18,2.88,13,0,1.7-1.5,3.54-3,2a4.14,4.14,0,0,0-3.23-1.07c-14.28,0-14-4-17.1-4-3.27,0-4.34,3.4-16,3.4a13,13,0,0,0-3.29,1.11c-2.14,1.15-3.54.4-3.47-2.07.24-7.61,2.28-14.68,7-20.76a88.66,88.66,0,0,0,5-8,7.55,7.55,0,0,0,1-3.37c.28-3.25.16-3.32-2.89-2.21L33.53,87.41c-5.6,2-11,.5-16.27-1.21-8.88-2.9-14.8-9-17-18.13a12.88,12.88,0,0,1,2.35-10.4C10.11,47,19.37,38,29.5,29.92c6.35-5.08,12.77-10.06,19.57-14.52,7.89-5.17,8-5.29,15.24-.33A297.18,297.18,0,0,1,96.48,40.3a94,94,0,0,1,15.86,18.81c2,3.08,2,6.79,1.29,10.34-1.33,6.26-4.52,11.14-10.37,14.25C98.19,86.39,93.13,88.78,87.21,88.45Z"/><path class="cls-5" d="M92.76,77c-6.38.29-12-2.27-17.69-4.64-.8-.33-1.68-1.24-2.45-.54s-.26,1.65-.06,2.55a22.77,22.77,0,0,0,4.83,9.79,37.9,37.9,0,0,1,5.67,9.73c2,4.44,3,8.18,2.88,13,0,1.7-1.51,3.54-3,2a4.12,4.12,0,0,0-3.23-1.07c-14.28,0-14-4-17.1-4-3.27,0-4.34,3.41-16,3.41a12.43,12.43,0,0,0-3.28,1.1c-2.15,1.15-3.55.4-3.47-2.07.23-7.61,2.27-14.68,7-20.76a89.4,89.4,0,0,0,5-8,7.56,7.56,0,0,0,1-3.36c.27-3.25.16-3.33-2.89-2.22-3.6,1.31-7.21,2.59-10.82,3.89-5.6,2-11,.5-16.28-1.21-8.88-2.9-14.8-9-16.95-18.13A12.87,12.87,0,0,1,8.2,46.23c7.46-10.71,16.72-19.64,26.86-27.75C41.41,13.4,47.83,8.42,54.63,4c7.88-5.16,8-5.28,15.23-.32A296.94,296.94,0,0,1,102,28.86,94.32,94.32,0,0,1,117.9,47.67c2,3.08,2,6.79,1.29,10.34-1.33,6.26-4.53,11.14-10.38,14.25C103.75,75,98.68,77.34,92.76,77ZM73.94,17.48c.18-1.84-.3-3.35-2.57-3.44s-2.88,1.36-2.93,3.29c0,1.65.34,3.26,2.28,3.2C72.36,20.48,74.15,19.94,73.94,17.48Zm-18.43-.29A2.87,2.87,0,0,0,53,14.71c-1.66-.2-2.32,1-2.43,2.53s.71,3.05,2.18,3.2C54,20.57,55.62,20,55.51,17.19Z"/><path class="cls-6" d="M73.94,17.48c.21,2.46-1.58,3-3.22,3.05-1.94.06-2.33-1.55-2.28-3.2,0-1.93.66-3.39,2.93-3.29S74.12,15.64,73.94,17.48Z"/><path class="cls-7" d="M55.51,17.19c.11,2.76-1.5,3.38-2.76,3.25-1.47-.15-2.3-1.52-2.18-3.2s.77-2.73,2.43-2.53A2.87,2.87,0,0,1,55.51,17.19Z"/></symbol></defs><title>Classic</title><use width="180" height="252" xlink:href="#Card_layout_4"/><use width="27.89" height="26" transform="translate(13.69 50.17)" xlink:href="#Spades_red"/><use width="119.63" height="120.97" transform="translate(33.41 75.12)" xlink:href="#Royal_black_1"/><path class="cls-5" d="M29.56,43a21.06,21.06,0,0,1,5.68,2.23,15.18,15.18,0,0,0,5.63,2l-4.74,4.34a20.82,20.82,0,0,1-5.5-2.44c-2.07-1.24-3.51-1.85-4.32-1.85a5.3,5.3,0,0,0-1.4.2,19.66,19.66,0,0,0-2.19.76l-1.28-3.08c.94-.28,1.87-.59,2.77-.94A27.52,27.52,0,0,0,26.89,43a10.92,10.92,0,0,1-7.62-5,18.91,18.91,0,0,1-2.9-10.78q0-7.28,3.44-12a10.43,10.43,0,0,1,8.74-4.71,10.62,10.62,0,0,1,8.8,4.38q3.39,4.38,3.39,11.43a20.35,20.35,0,0,1-3.13,11.59A10.58,10.58,0,0,1,29.56,43Zm.56-3.37a2.59,2.59,0,0,0,2.46-1.58,11.81,11.81,0,0,0,.79-5,44.51,44.51,0,0,0-.73-7.87,37.39,37.39,0,0,0-1.89-7.07A10.14,10.14,0,0,0,29,15a2.65,2.65,0,0,0-2-1,2.62,2.62,0,0,0-2.47,1.52,10.73,10.73,0,0,0-.8,4.74,46.66,46.66,0,0,0,.73,7.92,41.8,41.8,0,0,0,1.9,7.31,10.09,10.09,0,0,0,1.72,3.16A2.7,2.7,0,0,0,30.12,39.63Z"/><path class="cls-4" d="M80,64.23c0,3.59,7.16,6.51,16,6.51s16-2.92,16-6.51v-7l-8-.16L96,46.89,88,57.07l-8,.16Z"/></svg>