<svg id="Layer_1" data-name="Layer 1" xmlns="http://www.w3.org/2000/svg" viewBox="0 0 180 252"><defs><style>.cls-1{fill:#e2ba7a}.cls-2{fill:#2942aa}.cls-3,.cls-5,.cls-6{fill:none}.cls-3{stroke:#e2ba7a;stroke-miterlimit:10}.cls-6{stroke:#2942aa;stroke-linecap:round;stroke-linejoin:round;stroke-width:1.56px}</style></defs><rect class="cls-1" width="180" height="252" rx="12"/><path class="cls-2" d="M167 125.8v98.9a11 11 0 0 1-2.1 7 20 20 0 0 1-3.7 4.2 15 15 0 0 1-9.3 2.7h-19.8l-79.8.2-26.7-.1a5.8 5.8 0 0 1-2.5-.6c-2.1-1-4.1-2.2-6.1-3.4a4 4 0 0 1-1.3-1.5 22.9 22.9 0 0 1-2.6-7.5 2.3 2.3 0 0 1 0-1c.5-1.9.2-3.8.2-5.7l.2-73.6-.1-61.8V27.2A12.7 12.7 0 0 1 17.7 17a13.1 13.1 0 0 1 8.9-3.6l61.1.1H129c8.6 0 17.1 0 25.7-.2a11.6 11.6 0 0 1 11.5 8.2 22.4 22.4 0 0 1 .8 6v98.3Zm-2.5-.4V27a11.4 11.4 0 0 0-7-10.4 11.6 11.6 0 0 0-4.7-.7l-47 .2L27 16a11.2 11.2 0 0 0-6.8 2.6 8 8 0 0 0-3 3.8 21.6 21.6 0 0 0-1.1 6.9L16 50.9v62.6l.1 47.7V217c0 2.6-.2 5.3-.1 7.9a10.5 10.5 0 0 0 1.4 5.3c2.4 4 5.9 6.3 10.8 6.1h123c3.9 0 7.3-1 10-4a12.2 12.2 0 0 0 3-8l.1-22v-76.7Z"/><path class="cls-2" d="m163.3 183-.1-72.6v-55c0-10 .6-19.8-.2-29.7-.4-4.6-3.2-7.5-8.1-8.2a36.4 36.4 0 0 0-5 0l-59.6-.1h-26l-37.8.1a8.6 8.6 0 0 0-6.5 2.9 12 12 0 0 0-2.7 8.4v196.9a8.5 8.5 0 0 0 2 5.4 10.3 10.3 0 0 0 8.4 4h125.9a7 7 0 0 0 3.1-.8 11.8 11.8 0 0 0 6.6-10.2v-2.8l-.1-21.6V183Zm-3.6-149a1.7 1.7 0 0 1-1.7 1.8 2.1 2.1 0 0 1-2-2 2 2 0 0 1 2-1.8 2 2 0 0 1 1.7 2Zm-.2 10c-.1.4 0 .8-.9.8s-.9-.6-1-1 .5-1 1-1a1 1 0 0 1 .9 1.2Zm-2-17a1.2 1.2 0 0 1 1.4 1 1.2 1.2 0 0 1-1.2 1.2 1.3 1.3 0 0 1-1.3-1.2 1.1 1.1 0 0 1 1.1-1Zm-17.6-7.7a1.1 1.1 0 0 1 1.1 1.2 1 1 0 0 1-1 1 1.2 1.2 0 0 1-1.2-1 1 1 0 0 1 1.1-1.2Zm-31.9.2a1.1 1.1 0 0 1 1.1 1.2c0 .6-.5.8-1.1.7-.8 0-1.3-.4-1.2-1a1 1 0 0 1 1.2-.9Zm-5.4-.7a1.5 1.5 0 0 1 1.5 1.5 1.3 1.3 0 0 1-1.3 1.4 1.6 1.6 0 0 1-1.7-1.6 1.4 1.4 0 0 1 1.5-1.3Zm-8.7 1a2.5 2.5 0 0 1 2.7-.7 2.2 2.2 0 0 1 1.8 2 9.9 9.9 0 0 1 0 1.6 6.9 6.9 0 0 0 2 5 2 2 0 0 0 2.2.8l-.4-2.1a2.1 2.1 0 0 1 1-2.3c1-.7 1.6-.7 2.4.2a5 5 0 0 0 3.2 1.8c2.1.4 3.4-1 2.7-3a1.6 1.6 0 0 1 1.5-2.4 7.4 7.4 0 0 1 2.4.2 4.5 4.5 0 0 0 4.9-1.4 2.1 2.1 0 0 1 2-.7 7.5 7.5 0 0 1 3.5 1.3 14.6 14.6 0 0 0 2.9 1.6 2.2 2.2 0 0 0 2.8-.7c1-1.2 1.6-1.3 3-.5a9.6 9.6 0 0 1 3.9 4.2c-1.3 1-2.8 1.8-2.9 4-.6-.6-1-1-1.5-1.3a19.1 19.1 0 0 0-5-3.3c-4-1.6-8.1-2-12 .1a47 47 0 0 0-5.2 3.7 29.3 29.3 0 0 1-3.1 2.1 11.3 11.3 0 0 1-9.7.4 5.6 5.6 0 0 1-3.6-4.9v-2.8a1.7 1.7 0 0 0-1 1.6A6.5 6.5 0 0 0 98 31l2.4 1.1a9 9 0 0 0 6.4 0 16.8 16.8 0 0 0 7.2-4.1 12.6 12.6 0 0 1 7.8-3.8 14.3 14.3 0 0 1 10.3 3.3 57.5 57.5 0 0 1 4.4 4.2c1.5 1.4 1.5 3.2 1.5 5l-5.4-1.2a6.5 6.5 0 0 1-.6-.2c-.7-.2-1.5-.5-1.7-1.4s.5-1.2 1.1-1.6l.2-.4a2.8 2.8 0 0 0-1.8-1 8.7 8.7 0 0 0-5.2 0 8.6 8.6 0 0 1-2.2.5c-1.2 0-1.7-.4-2-1.7-.3-1-.7-1.2-1.7-.8a8.6 8.6 0 0 0-4 3.2l-2.1 2.9a3.3 3.3 0 0 1-2.4 1.4c-1.7.2-2.4-.3-3-2.2a12.4 12.4 0 0 0-1.8.7l-2.1 1.5a8.2 8.2 0 0 1-6.4 1.2 4 4 0 0 1-1.5-.7 1.5 1.5 0 0 1-.2-2.4l1.1-1.1-1.5-1a5.8 5.8 0 0 1-3.3-4.4 9 9 0 0 1 2.5-8.3Zm-16.4-1A1.4 1.4 0 0 1 79 20a1.6 1.6 0 0 1-1.6 1.6 1.3 1.3 0 0 1-1.4-1.4 1.6 1.6 0 0 1 1.4-1.5Zm-5 .7a3.2 3.2 0 0 1 .8 1c.2.5-.4 1-1.1 1-.6 0-1.1-.2-1.2-.9s.5-1 1.5-1.1Zm-26.2.8a1.5 1.5 0 0 1 2.3.6 2.3 2.3 0 0 0 3 .8l2.7-1.5a25 25 0 0 1 3-1.2 2.4 2.4 0 0 1 2.8.8 4 4 0 0 0 4 1.2 13 13 0 0 1 2.8-.2c1.6 0 2.1 1 1.6 2.5a2.1 2.1 0 0 0 2.4 3 4.8 4.8 0 0 0 3.5-1.8 1.5 1.5 0 0 1 2-.7 2.3 2.3 0 0 1 1.6 2.3 21.4 21.4 0 0 1-.5 2.4c1 .5 1.7 0 2.2-.7a6.8 6.8 0 0 0 2-4.9 7.4 7.4 0 0 1 .1-2 2.6 2.6 0 0 1 4.2-1.3A9 9 0 0 1 88 30a5.3 5.3 0 0 1-2.3 2.3l-1.8 1 1.1 1.2c1 .9.9 1.8-.3 2.5a4.9 4.9 0 0 1-1.8.7 8.1 8.1 0 0 1-6.3-1.5c-1-.8-2-1.8-3.3-1.9-.5.7-1 1.5-1.5 1.8a3.3 3.3 0 0 1-2.2.2 4.3 4.3 0 0 1-1.9-1.3 18 18 0 0 1-1.9-2.6 8.5 8.5 0 0 0-4-3.3 5.4 5.4 0 0 0-.8-.3c-.6-.2-1 0-1.2.7-.5 1.7-1.2 2.2-3 1.8l-2.5-.7a8 8 0 0 0-6 1.2l1 .8c.8.8.8 1.7-.2 2.3a6.8 6.8 0 0 1-2 .7l-2.4.4-2.5.9c-.2-1.9-.1-3.6 1.2-5a45.7 45.7 0 0 1 4.8-4.5c4.2-3.2 8.9-4.2 13.9-2.3a16.2 16.2 0 0 1 4.5 3.2 18.3 18.3 0 0 0 7.2 4 10.5 10.5 0 0 0 9.2-1.7 6.3 6.3 0 0 0 2.7-6.4A2.5 2.5 0 0 0 85 23c0 .9 0 1.7-.2 2.6a6 6 0 0 1-4.8 5.3 11.6 11.6 0 0 1-10.6-2.1l-4.6-3.5a13 13 0 0 0-10.3-2c-3.3.4-5.9 2.2-8.3 4.2l-1 .9a2.1 2.1 0 0 1-.6.1c-.2-1.7-1.5-2.7-2.9-3.6a9.2 9.2 0 0 1 4.6-4.5Zm-1.8 20.3a9.7 9.7 0 0 1 3.6-.8h84a8.4 8.4 0 0 1 7.5 4.3 11.2 11.2 0 0 1 1.4 5.5v150.3a12.6 12.6 0 0 1-4.4 9.4 9 9 0 0 1-5.7 2.2l-7.8.3h-1.7l-25.2-.3H78.5c-6.6 0-13.3.3-20 .4h-2c-2-.2-4.2-.3-6.3-.3a9.9 9.9 0 0 1-8.9-4.7 12.7 12.7 0 0 1-2.2-7.4v-49.1l-.2-19.5c0-4.9.4-9.7.4-14.6l-.4-52.6c0-4.7-.2-9.4 0-14 .3-4 1.7-7.4 5.6-9ZM129 215.3a1.1 1.1 0 0 1-1.2 1.1 1.6 1.6 0 0 1-1.4-1.3 1.3 1.3 0 0 1 1.3-1.1 1.2 1.2 0 0 1 1.3 1.3Zm-3.7 1.8a1.6 1.6 0 0 1-1.6 1.7 1.6 1.6 0 0 1-1.6-1.8 1.5 1.5 0 0 1 1.6-1.5 1.6 1.6 0 0 1 1.6 1.6Zm-8-2.5a.9.9 0 0 1-1 .8 1 1 0 0 1-1.1-.9 1 1 0 0 1 1-1 1 1 0 0 1 1.1 1Zm-52.7-.3c.1.6-.4 1.1-1.3 1.2-.2-.2-.6-.5-.7-.9a1 1 0 0 1 1-1.1.9.9 0 0 1 1 .8ZM58 217a1.6 1.6 0 0 1-1.5 1.8 1.7 1.7 0 0 1-1.7-1.8 1.7 1.7 0 0 1 1.7-1.6A1.5 1.5 0 0 1 58 217Zm-4.3-1.8a1.6 1.6 0 0 1-1.6 1.3 1.3 1.3 0 0 1 .4-2.5 1.2 1.2 0 0 1 1.2 1.2ZM40.3 19.3c.4.1.8.6 1 .7 0 1-.5 1.5-1.1 1.5a1 1 0 0 1-1-1c0-.7.4-1.4 1-1.2ZM22.6 27a1.1 1.1 0 0 1 1.1 1.1 1.4 1.4 0 0 1-1.3 1.2 1.2 1.2 0 0 1-1.1-1.3 1.2 1.2 0 0 1 1.3-1Zm-.3 5a1.9 1.9 0 0 1 1.9 1.9 2.1 2.1 0 0 1-2.2 2 1.7 1.7 0 0 1-1.6-1.9 2 2 0 0 1 2-2Zm.6 11.8c-.6.5-1 1-1.4 1s-.9-.3-1-.8.4-1.2 1-1 .7.3 1.4.7Zm-1.5 159.7c-.5.1-1-.5-1-1a1 1 0 0 1 1.1-.8c.4.1.7.5 1.2 1a6 6 0 0 1-1.3.8Zm2.7 2.1a1.3 1.3 0 0 1 1.3 1.3 1.5 1.5 0 0 1-1.4 1.5 1.4 1.4 0 0 1-1.5-1.4 1.4 1.4 0 0 1 1.6-1.4Zm-1.8 4.9a1.7 1.7 0 0 1 1.5 1.9 1.7 1.7 0 0 1-1.7 1.6 1.7 1.7 0 0 1-1.5-1.8 1.8 1.8 0 0 1 1.7-1.7Zm-.3 8a1.3 1.3 0 0 1 1.3 1.3 1.2 1.2 0 0 1-1.4 1.2 1.3 1.3 0 0 1-1.3-1.3 1.4 1.4 0 0 1 1.4-1.3Zm15.2 4.7c-.5 1.4-.9 2.9-1.5 4.3a4.5 4.5 0 0 1-2.2 2.3c-1 .5-1.3.4-1.8-.6a14.5 14.5 0 0 1-.6-1.5c-.5-1.4-1.5-1.9-2.9-1.3a10.5 10.5 0 0 0-1.8 1.3 27.8 27.8 0 0 1-3.2 2.3c-1.2.6-2 .1-2.4-1.3a2.8 2.8 0 0 1 .8-3A15.1 15.1 0 0 1 24 224c1-.6 2.2-1 3.3-1.8 1.5-1 1.5-1.9 0-3.1l-1.8-1.6a1.5 1.5 0 0 1-.2-.5 2.1 2.1 0 0 1 1.7-1l1.8-.4A4.9 4.9 0 0 0 32 210c-.5-1.6-1.6-1.9-2.7-.6-.5.6-1 1.4-2 1s-.7-1.4-.7-2.2a19.2 19.2 0 0 1 .3-2.1 12.2 12.2 0 0 0-.9-6.6 6.4 6.4 0 0 0-2.1-2.7l-1.1.7c-1.4 1-2.9.3-3-1.3a7.7 7.7 0 0 1 .5-3.2 24.5 24.5 0 0 0 1.5-6 9.9 9.9 0 0 0 0-1.6c0-1.3-.2-1.4-1.5-1.6a2 2 0 0 1-1.9-2.8 13 13 0 0 1 1.6-3 22.2 22.2 0 0 1 1.9-2.4 14 14 0 0 0 3-5.8c.3-1.3.1-1.6-1.2-2.1A2.7 2.7 0 0 1 22 164a6.4 6.4 0 0 1 1.2-2.2 10.5 10.5 0 0 0 2.4-5.4 6 6 0 0 0-.3-2.5c-.3-1.1-1.2-1.3-2.2-.7l-.5.4c-.8.5-1.6.3-1.8-.6a6.4 6.4 0 0 1 0-2.7 9.8 9.8 0 0 1 1.2-2.9 10.8 10.8 0 0 0 1.2-6.8 1.4 1.4 0 0 0-.2-.7c-.2-.3-.6-.6-.9-.6s-.6.4-.8.7a15.3 15.3 0 0 0-.7 1.5 1.8 1.8 0 0 1-1.9-1.9 15.7 15.7 0 0 1 .2-4.5c.7-2.8 1.6-5.5 2.6-8.1a4.3 4.3 0 0 0 0-3.2l-1-3.3a11 11 0 0 1 0-6.7 11.3 11.3 0 0 0-.8-9.5 6.3 6.3 0 0 1-.3-.8 2 2 0 0 1 .5-2.3c.8-.6 1.5-.3 2.2 0l1.2.8c1.2.6 2 .2 2-1.1a9.6 9.6 0 0 0-1.4-5.2c-.7-1-1.4-1.8-1.9-2.8a13.3 13.3 0 0 1-1.1-3.2c-.3-1.6.4-2.1 2-1.7a14.8 14.8 0 0 0 1.8.1 7.7 7.7 0 0 0-1-3.9L22.2 82a35.7 35.7 0 0 1-1.5-3.9 1.8 1.8 0 0 1 1-2.3l.3-.2c2-1 2.2-1.7 1-3.6a21.1 21.1 0 0 0-2.1-2.7 10.3 10.3 0 0 1-2.3-3.3c-.7-1.6-.6-2.5.8-3.5a2.7 2.7 0 0 0 1.2-2.9L20 56a13.8 13.8 0 0 1-.3-3 4.7 4.7 0 0 1 .8-2.2 1.8 1.8 0 0 1 2.7-.4 2.2 2.2 0 0 1 .4.3 1.3 1.3 0 0 0 1.6.3c.7-.3.7-1 .6-1.5l-.5-4.6a7.5 7.5 0 0 1 0-2 4.6 4.6 0 0 1 .7-2 1.8 1.8 0 0 1 2.6-.5l1 .6c1.3-.6 1.6-1 1.5-2.4a5.8 5.8 0 0 0-2.5-4.2 18 18 0 0 1-1.7-1.2 2.4 2.4 0 0 1-.6-2.7 2 2 0 0 1 2.3-1.2l1.7.2a2.3 2.3 0 0 0-1-2.2l-2.5-2a6.5 6.5 0 0 1-2.8-3c-.5-1.3 0-2.3 1.4-2.3a10.4 10.4 0 0 1 3.1.5 15 15 0 0 1 2.2 1.2 2 2 0 0 0 2.5-.2c1.3-1.2 2.2-1.1 3.2.3a5.1 5.1 0 0 1 1.1 3.2 6.7 6.7 0 0 0 1.8 4.4 4.6 4.6 0 0 1 .8 5.2c-.7 1.6-1.6 3-2.4 4.5-.4.7-1 1.3-1.3 2a1.9 1.9 0 0 0 .2 2.3 2.4 2.4 0 0 1 0 3 11.2 11.2 0 0 1-1.8 2.2A19.5 19.5 0 0 0 31 54a8.2 8.2 0 0 0-.7 2.6c-.1 1.1.3 1.6 1.4 2 .7.1 1.7 0 2 1a4.5 4.5 0 0 1 0 3.1L32 66.8a7.8 7.8 0 0 0-.5 2 13.8 13.8 0 0 0 0 2l1.7-.3c1.5-.3 2.4.7 2 2.2a9.5 9.5 0 0 1-.8 1.8 11.7 11.7 0 0 0-1.2 5.9 1.9 1.9 0 0 0 1.5 2 2.7 2.7 0 0 1 1.7 3 19.6 19.6 0 0 1-1.8 7.7 12.7 12.7 0 0 0-.6 1.2 2.3 2.3 0 0 0 1.2 2.9c1.8.9 1.8.9 1.2 2.7a15.2 15.2 0 0 1-4.4 7 3.4 3.4 0 0 0-.8 1c-.7 1.3-.2 2.2 1.2 2.4.8 0 1.7 0 2 1s-.4 1.6-.9 2.3c-1.7 2.5-3.5 5-5.1 7.6a5.3 5.3 0 0 0 .1 5.9c.8 1.3 1.8 2.4 2.7 3.7l2.3 3.1c.8 1.4.6 1.9-.9 2.5-1 .4-1.1.8-.5 1.7l1.7 2.6a19.8 19.8 0 0 1 1.4 3c.5 1.2.1 1.7-1.2 2-1 .1-1.3.4-1.3 1.4a6.3 6.3 0 0 0 .4 2l2.5 6.5a7.8 7.8 0 0 1 .2.8c.6 2.1-.1 3.2-2.5 3.3a11.2 11.2 0 0 0-.2 2l.5 3.6.2 3.7a3.4 3.4 0 0 1-.8 2.4c-2.2-.2-3 .4-3.2 2.5a10.8 10.8 0 0 0 1 6.2l2.4 5.4a4.7 4.7 0 0 1 0 3.3l-1.7-.8c-.6-.3-1.2-1-1.9-.6s-.5 1.4-.4 2.1a5.7 5.7 0 0 0 .7 2.2c1.2 1.9 2.6 3.7 3.9 5.6l2.2 3.2a6 6 0 0 1 .5 1.4l-.3.4c-1.7.6-2 1.3-1 2.8a3.1 3.1 0 0 0 .7.8c2 1.4 3.1 3.4 4.4 5.3a10 10 0 0 1 1.3 7.7c-.3 1.4-.6 1.6-2 1.2s-1.9 0-2.3 1.4a6 6 0 0 1-.2 1.7Zm-16.6-56c.3.5.6.9.6 1.2s-.2 1-.7.8a1.2 1.2 0 0 1-.8-.9c0-.3.4-.6.9-1.2Zm-.5-9.8a1 1 0 0 1 1-1.2 1.2 1.2 0 0 1 1.2 1.1 1 1 0 0 1-1.2 1.1c-.6 0-1-.4-1-1Zm.2 13.3a1.3 1.3 0 0 1 1.4 1.3 1.3 1.3 0 0 1-1.2 1.4 1.3 1.3 0 0 1-1.3-1.3 1.2 1.2 0 0 1 1.2-1.4ZM20 96.4c-.3-.3-.6-.5-.7-.9s0-1 .7-1c.3 0 .7.4 1.3.8Zm2 1.1a1.2 1.2 0 0 1 1.1 1.1 1.1 1.1 0 0 1-1.1 1.2 1.2 1.2 0 0 1-1.2-1.2 1.2 1.2 0 0 1 1.2-1Zm-2.3-12.2a4.3 4.3 0 0 1 .7-1c.3.3.7.5.6.7a4 4 0 0 1-.6 1.1l-.7-.8Zm5.5-48.6c0-.4.5-.7.9-1.3.4.6.8 1 .8 1.3a.7.7 0 0 1-.9.8c-.3-.1-.8-.5-.8-.8Zm9.4 90a1.1 1.1 0 0 1 1.3 1.1 3.3 3.3 0 0 1-.6 1.1 1.4 1.4 0 0 1-1.6-1.1 1 1 0 0 1 1-1.1Zm-.5-8.7a.8.8 0 0 1 1-1 .9.9 0 0 1 .9 1.1c-.1.4-.5.7-1 1.4-.4-.8-.8-1.2-.9-1.6ZM35.8 54a1.2 1.2 0 0 1-1.2-1.2 1.7 1.7 0 0 1 1.3-1.7 1.2 1.2 0 0 1 1.3 1.3 1.6 1.6 0 0 1-1.4 1.6Zm.4 2.6c0 .3-.4.6-.8 1.2-.3-.6-.7-1-.7-1.2s.5-.6.7-.9c.3.3.8.5.8.8Zm1 106.5a1 1 0 0 1-1 1 1.2 1.2 0 0 1-1-1.2 1 1 0 0 1 1-1 1.1 1.1 0 0 1 1 1.2ZM33.8 124a1.5 1.5 0 0 1-1.5 1.5 1.4 1.4 0 0 1-1.5-1.3 1.6 1.6 0 0 1 1.5-1.6 1.4 1.4 0 0 1 1.5 1.3Zm-.5 69.4a1 1 0 0 1-.9-1.1c0-.7.5-1 1.3-1a3.3 3.3 0 0 1 .7 1c.1.6-.6 1.2-1.1 1.1Zm7 39.5a1.7 1.7 0 0 1-1.7-1.8 1.6 1.6 0 0 1 3 .3 1.4 1.4 0 0 1-1.4 1.5Zm30.5-3.7c-.2-.2-.6-.4-.7-.7s.3-.4.5-.9c.4.4.7.7.7 1s-.3.4-.5.6Zm3.3 3.4a1.5 1.5 0 0 1-1.7-1.6 2 2 0 0 1 1.7-2 2 2 0 0 1 1.9 1.7 2 2 0 0 1-1.9 1.9Zm4.6-1.4c-.5.1-.8-.3-.8-.8s.3-1 .9-.9c.3 0 .6.4 1.2.8l-1.3 1Zm9.5-1.9a4 4 0 0 1-3.1 2.4c-1.5.2-2.1-.4-2.2-1.9a24 24 0 0 0-.4-3.4 4.9 4.9 0 0 0-2.3-3 3.3 3.3 0 0 0-1.3-.6c-.9 0-1.3.4-1.3 1.3a5.5 5.5 0 0 0 .1.8c.3 1.2 0 1.8-.9 2.3a2.3 2.3 0 0 1-2.7-.2 6 6 0 0 0-3.5-1.9 2.2 2.2 0 0 0-2.8 1.8v.5c-.2 2.1-1 2.8-3 2.7a15.7 15.7 0 0 1-3.2-.7 20.3 20.3 0 0 0-2.8-.8c-1.4-.1-2 .5-1.9 1.8 0 2.3-.6 2.9-3 2.5a7 7 0 0 1-4-2.3c-.2-.4-.5-.8-1-1.2a2.1 2.1 0 0 0-3.1-.3c-1.7 1.2-2.1 1.2-3.2-.6-.8-1.1-1.4-2.3-2.1-3.7l4-1.8 1.5 1.1a15 15 0 0 0 8.8 2.9c2.7 0 5.4 0 8-.8a21.5 21.5 0 0 0 8.4-4.6 8.8 8.8 0 0 1 13.4 1.8 11.1 11.1 0 0 0 .8 1 3.1 3.1 0 0 0-.8-2.8 8.7 8.7 0 0 0-8-3.4 12.7 12.7 0 0 0-6.7 3 21 21 0 0 1-9 4.3 17.7 17.7 0 0 1-13-2 11.1 11.1 0 0 1-1.6-1.3l2.3-3.6c1.9-.1 2.7.5 3.2 2.4.5 1.6.9 1.9 2.6 1.7a8.4 8.4 0 0 0 4-2 21.7 21.7 0 0 1 3.2-2.2 2.4 2.4 0 0 1 3.3.8c1.1 1.5 2 1.5 3.1 0 1-1.4 1.8-2.9 2.7-4.3 1.3-2 3.1-2.3 5-.7a2 2 0 0 0 1.9.5 23.4 23.4 0 0 1 3.7-.7 10 10 0 0 1 3 .4c1.3.3 1.6 1.2 1.1 2.4-.6 1.6-.6 1.6.6 2.7l.7.5c3.4 2.5 3 5.9 1.6 9.2Zm13.5 2.4c-.5-.6-1-1-1-1.3a.7.7 0 0 1 .8-.9c.3 0 .8.5.9.8s-.3.7-.7 1.4Zm4.5.9a1.8 1.8 0 1 1 0-3.7 2 2 0 0 1 1.7 2 1.5 1.5 0 0 1-1.6 1.7Zm29-3-.9-.7a2 2 0 0 0-2.8.3l-1.2 1.3a7 7 0 0 1-4.7 2.4c-1.7.1-2.4-.5-2.3-2.3s-.5-2.4-2.2-2a25 25 0 0 0-3.4 1.1 5.5 5.5 0 0 1-3.5.2 1.8 1.8 0 0 1-1.7-2 9 9 0 0 0-.1-1.3 2.1 2.1 0 0 0-2.6-1.6 5.7 5.7 0 0 0-3.4 1.7 2.3 2.3 0 0 1-3 .5 1.8 1.8 0 0 1-1-1.8l.1-.5c.2-.7.5-1.5-.3-2a2 2 0 0 0-2.3.4 6.2 6.2 0 0 0-2.5 5v1.7a1.5 1.5 0 0 1-1.8 1.7 4 4 0 0 1-3.5-2.2 9.2 9.2 0 0 1-1-6 5.6 5.6 0 0 1 1.5-2.4 23 23 0 0 1 2-1.9c.8-.8.9-1 .4-2.1-.7-1.7-.4-2.4 1.4-2.9a9.1 9.1 0 0 1 4.7 0l1.7.5a1.6 1.6 0 0 0 1.8-.5 3 3 0 0 1 5 .8l2 3.3a6.6 6.6 0 0 0 1.3 1.5c1 .8 1.5.7 2.3-.3 1.1-1.6 2-2 3.8-1a19 19 0 0 1 2.8 2 7.9 7.9 0 0 0 4.4 2.1c1.4.2 1.8-.1 2.2-1.5.5-2 1-2.5 3.2-2.6l2.3 3.4a2.7 2.7 0 0 1-1.5 1.6 18.1 18.1 0 0 1-9 2.4c-5 0-9.3-2-13.1-4.9a13.3 13.3 0 0 0-6.5-2.8 8.8 8.8 0 0 0-8.2 3.2 3.4 3.4 0 0 0-.8 3l1.1-1.5c2.6-3.9 8.9-5.2 12.6-1.7a24.7 24.7 0 0 0 7.8 4.5 18.2 18.2 0 0 0 5.2 1.1 36.4 36.4 0 0 0 5.8 0 15 15 0 0 0 7.4-3l1-.8 3.7 1.7c-.2 1.9-1.4 3.3-2.5 4.7a1.3 1.3 0 0 1-1.7.2Zm4.9 3.2a1.4 1.4 0 0 1-1.5-1.6 1.4 1.4 0 0 1 1.6-1.5 1.5 1.5 0 0 1 1.6 1.5 1.8 1.8 0 0 1-1.7 1.7Zm1.4-4.4c-.2 0-.6-.5-.6-.8a1 1 0 0 1 .7-.6c.3 0 .5.3 1 .7-.5.4-.8.7-1.1.7Zm15.5-14.4a1.7 1.7 0 0 1-1.6-1.8 1.6 1.6 0 0 1 1.6-1.7 1.8 1.8 0 0 1 1.7 1.9 1.7 1.7 0 0 1-1.7 1.6Zm2.6 5.7a1.3 1.3 0 0 1-1.4 1.3 1.3 1.3 0 0 1-1.2-1.2 1.3 1.3 0 1 1 2.6 0Zm-2.4-16.4a1.4 1.4 0 0 1-1.4-1.4 1.3 1.3 0 0 1 1.4-1.3 1.4 1.4 0 0 1 1.5 1.4 1.3 1.3 0 0 1-1.5 1.4Zm2.1-108a.7.7 0 0 1 .9-.8c.3 0 .6.5 1.1 1-.6.4-1 .9-1.2.8a1.5 1.5 0 0 1-.8-1Zm0 3.3a1.1 1.1 0 0 1-1 1.2 1.2 1.2 0 0 1-1.2-1.2 1.2 1.2 0 0 1 1.2-1 1.1 1.1 0 0 1 1 1Zm2.3-32.5a12.9 12.9 0 0 1-2.5 3.4 20.2 20.2 0 0 0-2.4 3.3c-.7 1.2-.4 1.8.9 2.4l.6.3c1.3.7 1.7 1.3 1.3 2.7a33.7 33.7 0 0 1-1.9 4.3l-1.9 3.8a3.3 3.3 0 0 0-.2 1c-.1.8.1 1 .9 1a7.4 7.4 0 0 0 1.1-.2c1.3-.3 2 .2 1.8 1.5a11.6 11.6 0 0 1-1 3 13.8 13.8 0 0 1-1.4 2.4 11.3 11.3 0 0 0-1.8 4.7 5 5 0 0 0 0 1.6 1 1 0 0 0 1.7.9 7.6 7.6 0 0 0 1.1-.7c1.2-.7 1.9-.8 2.5-.2.8.7.9 1.4.3 2.8l-1.4 3.7c-.6 2 0 4 .6 6a12 12 0 0 1-.1 7c-.5 1.6-1.3 3.1-1.3 4.7s1 3 1.4 4.5c.6 1.8 1.2 3.6 1.6 5.5a17.3 17.3 0 0 1 .1 3.7 2.6 2.6 0 0 1-.4 1.4c-.2.4-.7.9-1 .9s-.8-.5-1-1c-.4-.5-.4-1.3-1.3-1.1-.7.2-.9.9-1 1.5a11 11 0 0 0 1.4 6.8 6.7 6.7 0 0 1 1.3 4.4 4 4 0 0 1-.3 1.2 1 1 0 0 1-1.6.5l-.8-.6a1.2 1.2 0 0 0-1.9.6 5 5 0 0 0-.5 2.3 10 10 0 0 0 2.2 5.3 10.3 10.3 0 0 1 1.1 1.6 3 3 0 0 1-1.7 4.7c-.9.3-1.1.7-.8 1.8a21.1 21.1 0 0 0 1.4 3.8 24 24 0 0 0 2 2.8l2.4 3.3a4.9 4.9 0 0 1 .6 1.3 2.1 2.1 0 0 1-2 3c-1.2.2-1.4.3-1.4 1.5a31.5 31.5 0 0 0 .6 4.8c.2 1 .7 2 1 3.1a9.2 9.2 0 0 1 .4 2.9c-.1 1.7-1.6 2.4-3 1.4l-1.2-.7a8.1 8.1 0 0 0-2.8 5.4 42 42 0 0 0 .1 5.4 10.4 10.4 0 0 1 0 2c-.2 1-.8 1.2-1.7.6a8.4 8.4 0 0 1-1-1c-.9-1-2-.7-2.5.5-1 2.5.7 5.6 3.5 6.2l2.7.7.7.6a9 9 0 0 1-.8 1l-1.4 1.2c-1.5 1.2-1.4 2 .1 3 1 .8 2.2 1.3 3.3 1.9a14.4 14.4 0 0 1 2.3 1.5 2.9 2.9 0 0 1 .8 3.3c-.4 1.1-1 1.6-2.2 1a26.5 26.5 0 0 1-3.2-2.1 13.6 13.6 0 0 0-1.8-1.4 2 2 0 0 0-3 1.3 14.1 14.1 0 0 1-.7 1.6 1 1 0 0 1-1.6.5 4.7 4.7 0 0 1-2.4-2.4l-1.5-4.3-.4-1.7c-.4-1.1-1-1.3-2-1.1-1.7.4-2 .2-2.3-1.5a10 10 0 0 1 1.5-7.4c1.2-2 2.4-4 4.3-5.3a2 2 0 0 0 .5-.5c1.2-1.5 1-2.5-1-3.3a6.5 6.5 0 0 1 .5-1.6l2.3-3.3c1.3-1.9 2.7-3.7 3.9-5.7a6 6 0 0 0 .6-2.6c.2-1.7-.5-2-2-1.2l-1 .7a3 3 0 0 1-.7.2 1.5 1.5 0 0 1-.5 0 4.1 4.1 0 0 1 0-3l2.6-5.6a10.1 10.1 0 0 0 1-6.2c-.4-2.1-1-2.6-3.1-2.4a3.2 3.2 0 0 1-1-2.5l.6-5a9.5 9.5 0 0 0 0-4l-.3-.3c-2 0-2.6-.8-2.3-2.8a5.8 5.8 0 0 1 .4-1.2l2.4-6.4a7.2 7.2 0 0 0 .4-1.6c.2-1.3-.1-1.7-1.4-2-1.1-.2-1.6-.7-1.2-1.8a19.8 19.8 0 0 1 1.4-3l1.4-2.2c1.1-1.6 1.1-1.6-.7-2.4a1 1 0 0 1-.6-1.4 4.3 4.3 0 0 1 .5-1.3l2.2-2.9c.9-1.2 1.9-2.4 2.6-3.7a5.2 5.2 0 0 0 .2-5.8l-5-7.3a11.3 11.3 0 0 1-1-1.5 1.4 1.4 0 0 1 1-2 2.5 2.5 0 0 1 .5 0c.8 0 1.5-.2 1.8-1a2.1 2.1 0 0 0-.7-2.2l-1.6-1.6a17.4 17.4 0 0 1-3.3-6.6 1.2 1.2 0 0 1 .7-1.6h.3c1.7-.9 2.2-2 1.3-3.6a22 22 0 0 1-2-7.2 3.9 3.9 0 0 1 .5-3.3 2.5 2.5 0 0 1 1.3-1c1-.2 1.2-1 1.3-1.8a11.6 11.6 0 0 0-1.2-6 9.4 9.4 0 0 1-.8-2c-.3-1.4.5-2.3 2-2.1a5 5 0 0 1 .7.2c.8.2 1.1-.3 1.2-1a3.1 3.1 0 0 0-.1-1.2c-.6-1.7-1.1-3.4-1.8-5a5.6 5.6 0 0 1-.5-3.5 1.7 1.7 0 0 1 1.5-1.4c2-.4 2.5-.9 2-2.9a14.8 14.8 0 0 0-3.5-6.2l-1.8-1.9a6.2 6.2 0 0 1-1.1-1.6 2.4 2.4 0 0 1 .2-2.8 1.6 1.6 0 0 0 .3-2 18.2 18.2 0 0 0-1.4-2.2 17.1 17.1 0 0 1-2.7-5.4 4 4 0 0 1 .8-3.8 8.2 8.2 0 0 0 2-5.2 4.8 4.8 0 0 1 1.6-3.5 1.6 1.6 0 0 1 2.5-.1c1.4 1.2 1.7 1.2 3.4.2a7 7 0 0 1 3.8-1.4 6.4 6.4 0 0 1 1 0 1.6 1.6 0 0 1 1.4 2.2 6.4 6.4 0 0 1-2.8 3.2c-.9.6-1.8 1.2-2.6 2a2.5 2.5 0 0 0-1 2.1l2-.2a2 2 0 0 1 2 1.1 2.2 2.2 0 0 1-.3 2.5 8.8 8.8 0 0 1-1.8 1.4 5.8 5.8 0 0 0-2.7 4.3 3.2 3.2 0 0 0 .4 1.7c.4.8 1 .9 1.7.4 1.8-1 3.4-.3 3.7 1.7a11.1 11.1 0 0 1 0 2.8l-.5 4.6a1.2 1.2 0 0 0 .6 1.3c.6.3 1 0 1.5-.3 1.9-1.3 3.6-.7 4 1.6a10.6 10.6 0 0 1-.2 3l-.7 4.7a2.2 2.2 0 0 0 1 2.2c1.5 1.3 1.6 2 1 4Zm-2.5 92.3c-.6.2-1.1-.5-1.1-1a1.3 1.3 0 0 1 1-1.2c.7 0 1.2.6 1 1.5a3 3 0 0 1-.9.7Zm1.8 10c-.5.3-.8.8-1.1.7a1.2 1.2 0 0 1-.8-.7.6.6 0 0 1 .7-.8c.3 0 .7.3 1.2.7Zm-1 2.3a1.2 1.2 0 0 1 1.2 1.3 1.3 1.3 0 0 1-1.2 1.5 1.3 1.3 0 0 1-1.3-1.4 1.2 1.2 0 0 1 1.2-1.4ZM144.4 54.1a1.6 1.6 0 0 1-1.6-1.5 1.3 1.3 0 0 1 1.1-1.5 1.6 1.6 0 0 1 1.5 1.6 1.2 1.2 0 0 1-1 1.4Zm-.5 107.8a1 1 0 0 1 1 1 1.2 1.2 0 0 1-1 1.4 1.1 1.1 0 0 1-1.1-1.2 1.1 1.1 0 0 1 1.1-1.2Zm1-42.9c-.5.1-.9-.3-.9-1s.3-1 .8-1 .8.6 1.5 1c-.6.4-1 .9-1.4 1Zm2.8 3.6a1.5 1.5 0 0 1 1.6 1.5 1.4 1.4 0 0 1-1.4 1.4 1.6 1.6 0 0 1-1.6-1.4 1.4 1.4 0 0 1 1.4-1.5Zm-2.6 6.4a1 1 0 0 1-1-1c0-.7.5-1.3 1.5-1.3.2.2.6.6.7 1a1.2 1.2 0 0 1-1.2 1.2Zm.6 63.3a1 1 0 0 1 1-1 .9.9 0 0 1 1 1 3.9 3.9 0 0 1-.6 1.1 1.2 1.2 0 0 1-1.4-1.2ZM155 36.7c0 .7-.7.8-1 .8a.7.7 0 0 1-1-.8 1.2 1.2 0 0 1 .8-.8c.4 0 1.2.1 1.2.8Z"/><path class="cls-2" d="M40.5 199.4a10 10 0 0 0 5 9 10.5 10.5 0 0 0 5.6 1.6h72.4c2.5 0 5 0 7.5.2 2.8 0 4.8-1.5 6.5-3.4a9.8 9.8 0 0 0 2.2-6.7V93.8c0-1.7-.2-36.9 0-43.3s-6-9.8-10.2-9.4a29 29 0 0 1-3 .2H54.8c-1.4 0-2.8-.3-4.1-.2-2.6.2-5.3.7-7.2 2.6a10 10 0 0 0-2.7 5.7 21.4 21.4 0 0 0-.3 3.7v146.3ZM28.4 76.7a7.9 7.9 0 0 1 .6 1 38.8 38.8 0 0 1 3.3 17.4 33.8 33.8 0 0 1-.8 4.4c-1.2 5.5-3.7 10.7-6 15.9a13.8 13.8 0 0 0-1.1 5.2 9 9 0 0 0 1 5l-.4.8c-1.7 2.7-1.5 5.5-.2 8.3l3.2 6.8a32.5 32.5 0 0 1 2.3 10.2 43.9 43.9 0 0 1-.2 10.9 58.3 58.3 0 0 1-2.1 10 45.3 45.3 0 0 0-2.2 13.5v1.7a1.9 1.9 0 0 1-.3.4c-.6-.8-.6-.8-.6-1.6a37.8 37.8 0 0 1 1.9-14.2 45.9 45.9 0 0 0 2.7-12.4 41.9 41.9 0 0 0-.5-10 39 39 0 0 0-1.4-6.3c-.5-1.3-1-2.6-1.7-3.9l-2.2-5.2a10.2 10.2 0 0 1 .1-8.6 1.6 1.6 0 0 0 0-1.4 13.6 13.6 0 0 1-.6-6.3 12.1 12.1 0 0 1 1-3.1l2.2-5.3a74.5 74.5 0 0 0 3.8-9.9 25 25 0 0 0 .3-10.9 21.8 21.8 0 0 1-.2-2.2 38.7 38.7 0 0 0-1.8-8.5l-.4-1.6ZM28.2 75c-1-.2-1.3-1-1.5-1.6a22 22 0 0 1-2-11.7A25.5 25.5 0 0 1 28 51.2a104 104 0 0 0 5.7-12.5c1.9-4.6.5-8.8-2.1-12.8a7.5 7.5 0 0 0-.5-.6 1.2 1.2 0 0 1-.4-.9 15.8 15.8 0 0 1 1.3 1 11.6 11.6 0 0 1 3.6 7.2 14 14 0 0 1-1 7.9 70.1 70.1 0 0 1-4.2 8.8 33 33 0 0 0-3.9 9.8 23 23 0 0 0 1.2 14.3l.5 1.6ZM25.8 191a5 5 0 0 1 .5.6c1.3 3.9 3.5 7.3 5.6 10.9a78 78 0 0 1 3.7 7c1.7 3.8 1 9.6-2.2 12.6a3.3 3.3 0 0 1-3 1.2l1-1c3.7-3.4 4.9-7.3 3.3-11.6a48 48 0 0 0-3.2-6.5l-5-8.9a5.2 5.2 0 0 1-.7-4.4ZM154.7 125.7a12.3 12.3 0 0 0-.1-10.3l-3.3-7.3c-.5-1-.9-2.2-1.2-3.4l-1.7-5.6a31.7 31.7 0 0 1-.6-4.4 33.1 33.1 0 0 1 1.8-12.7l1.4-4a14.9 14.9 0 0 1 .7-1.4l.3.1-.4 2a43.1 43.1 0 0 0-1.8 8.7 50.2 50.2 0 0 0-.7 7.7 27.3 27.3 0 0 0 2.3 9.3c1.8 4.4 3.7 8.8 5.3 13.3a10.4 10.4 0 0 1-.3 6.6 2.5 2.5 0 0 0 0 2 10.3 10.3 0 0 1 .2 7.9 40.2 40.2 0 0 1-2.5 5.8 24.1 24.1 0 0 0-2.8 9.3c-.2 1.3-.6 2.6-.7 3.9a42.6 42.6 0 0 0 1.1 13.6l2 6.6a37.1 37.1 0 0 1 1.5 13.6 2.2 2.2 0 0 1-.6 1.3 7.7 7.7 0 0 1-.2-1.4 53 53 0 0 0-3-16.7 56.2 56.2 0 0 1-1.7-9.8 41.3 41.3 0 0 1 1-15 45.5 45.5 0 0 1 2.4-6.2 27.1 27.1 0 0 1 1.5-3.4c2-3.5 2.4-6.8 0-10.2ZM151.8 75.1l.7-1.9a24 24 0 0 0 1.1-14.5 52 52 0 0 0-2-6.2 27.3 27.3 0 0 0-1.6-2.8l-2.5-5c-.8-1.7-1.4-3-2-4.7a14.4 14.4 0 0 1 .4-11.6 7 7 0 0 1 3.5-3.7l-.9 1.2a14.6 14.6 0 0 0-2.7 10.5 10.5 10.5 0 0 0 .8 2.7c1.9 4.5 4 8.8 6.3 13.1 3.2 6.4 4 13.3 1 20.1a4 4 0 0 1-2 2.8ZM149.8 223.2a2.8 2.8 0 0 1-2.8-.8 10.8 10.8 0 0 1-3.3-8 12.3 12.3 0 0 1 1.7-6.7l6.5-11.7c.7-1.3 1.2-2.6 1.8-4a8.2 8.2 0 0 1 .6-.9 2 2 0 0 1 .2 2 16.2 16.2 0 0 1-1.2 2.9c-1.6 2.9-3.4 5.7-5 8.7a57.7 57.7 0 0 0-3 6 10.3 10.3 0 0 0 3.2 11.5l1.3 1Z"/><path class="cls-2" d="M154 239H26a13 13 0 0 1-13-13V26a13 13 0 0 1 13-13h128a13 13 0 0 1 13 13v200a13 13 0 0 1-13 13ZM26 15a11 11 0 0 0-11 11v200a11 11 0 0 0 11 11h128a11 11 0 0 0 11-11V26a11 11 0 0 0-11-11Z"/><path class="cls-3" d="M139.9 49c-6.9-4.8-18-4.8-25 0S97 53.8 90 49s-18-4.8-24.9 0-18 4.8-24.9 0"/><path class="cls-3" d="M139.9 54c-6.9-4.7-18-4.7-25 0S97 59 90 54s-18-4.7-24.9 0-18 4.9-24.9 0"/><path class="cls-3" d="M139.9 59.2c-6.9-4.8-18-4.8-25 0S97 64 90 59.2s-18-4.8-24.9 0-18 4.8-24.9 0"/><path class="cls-3" d="M139.9 64.4c-6.9-4.8-18-4.8-25 0s-18 4.8-24.9 0-18-4.8-24.9 0-18 4.8-24.9 0"/><path class="cls-3" d="M139.9 69.5c-6.9-4.8-18-4.8-25 0s-18 4.8-24.9 0-18-4.8-24.9 0-18 4.8-24.9 0M139.9 84.9c-6.9-4.8-18-4.8-25 0s-18 4.8-24.9 0-18-4.8-24.9 0-18 4.8-24.9 0"/><path class="cls-3" d="M139.9 90c-6.9-4.8-18-4.8-25 0S97 94.8 90 90s-18-4.8-24.9 0-18 4.8-24.9 0"/><path class="cls-3" d="M139.9 95.2c-6.9-4.8-18-4.8-25 0s-18 4.8-24.9 0-18-4.8-24.9 0-18 4.8-24.9 0"/><path class="cls-3" d="M139.9 100.3c-6.9-4.8-18-4.8-25 0s-18 4.8-24.9 0-18-4.8-24.9 0-18 4.8-24.9 0M139.9 115.7c-6.9-4.8-18-4.8-25 0s-18 4.8-24.9 0-18-4.8-24.9 0-18 4.8-24.9 0"/><path class="cls-3" d="M139.9 120.8c-6.9-4.8-18-4.8-25 0s-18 4.8-24.9 0-18-4.8-24.9 0-18 4.8-24.9 0"/><path class="cls-3" d="M139.9 126c-6.9-4.8-18-4.8-25 0s-18 4.8-24.9 0-18-4.8-24.9 0-18 4.8-24.9 0M139.9 146.5c-6.9-4.8-18-4.8-25 0s-18 4.8-24.9 0-18-4.8-24.9 0-18 4.8-24.9 0"/><path class="cls-3" d="M139.9 151.6c-6.9-4.8-18-4.8-25 0s-18 4.8-24.9 0-18-4.8-24.9 0-18 4.8-24.9 0"/><path class="cls-3" d="M139.9 156.8c-6.9-4.8-18-4.8-25 0s-18 4.8-24.9 0-18-4.8-24.9 0-18 4.8-24.9 0"/><path class="cls-3" d="M139.9 162c-6.9-4.9-18-4.9-25 0s-18 4.7-24.9 0-18-4.9-24.9 0-18 4.7-24.9 0"/><path class="cls-3" d="M139.9 167c-6.9-4.7-18-4.7-25 0s-18 4.8-24.9 0-18-4.7-24.9 0-18 4.8-24.9 0M139.9 182.4c-6.9-4.8-18-4.8-25 0s-18 4.8-24.9 0-18-4.8-24.9 0-18 4.8-24.9 0"/><path class="cls-3" d="M139.9 187.6c-6.9-4.8-18-4.8-25 0s-18 4.8-24.9 0-18-4.8-24.9 0-18 4.8-24.9 0"/><path class="cls-3" d="M139.9 192.7c-6.9-4.8-18-4.8-25 0s-18 4.8-24.9 0-18-4.8-24.9 0-18 4.8-24.9 0"/><path class="cls-3" d="M139.9 197.8c-6.9-4.8-18-4.8-25 0s-18 4.8-24.9 0-18-4.8-24.9 0-18 4.8-24.9 0"/><path class="cls-3" d="M139.9 203c-6.9-4.8-18-4.8-25 0s-18 4.8-24.9 0-18-4.8-24.9 0-18 4.8-24.9 0"/><ellipse class="cls-2" cx="90.3" cy="125.7" rx="45.5" ry="79"/><path d="M107.8 85.9c-.5-.7-1.2-.5-1.9-.3a51.6 51.6 0 0 1-6.7 2l-.4.3a16.8 16.8 0 0 0-.4-3.6 20.5 20.5 0 0 1-.1-3.7 1.9 1.9 0 0 0 0-.6 68.2 68.2 0 0 1 .4-8 39.1 39.1 0 0 1 2.2-11 5.4 5.4 0 0 0 .2-1 1.6 1.6 0 0 0-1-1.9 7.4 7.4 0 0 0-1.1-.6 13.5 13.5 0 0 0-4.2-.5 54 54 0 0 0-18.5 3.5A14.3 14.3 0 0 0 72 63a2.3 2.3 0 0 0-.7 3.2l.2.4a38.5 38.5 0 0 1 2 4.3A59.4 59.4 0 0 1 76.3 81a2.4 2.4 0 0 0 .2.6 48.9 48.9 0 0 0 .5 5.6 1 1 0 0 0-.5-.2A26.2 26.2 0 0 1 71 85a4.8 4.8 0 0 0-2.5-.5 1.9 1.9 0 0 0-1.9 2.2 6.5 6.5 0 0 0 .5 2 12.3 12.3 0 0 0 6.7 7 24.5 24.5 0 0 0 9.2 2 33.7 33.7 0 0 0 7.7-.7 32.3 32.3 0 0 0 15-7.3 7.2 7.2 0 0 0 1.8-2c.3-.6.8-1.2.3-1.8Zm-9.1 2.8a3.1 3.1 0 0 0 0-.5 1 1 0 0 1 0 .5Z" style="stroke-width:3.11px;stroke:#e2ba7a;stroke-miterlimit:10;fill:#2942aa"/><path class="cls-1" d="M97.8 93a1.5 1.5 0 0 0 1.3 0c6.3-2.3 11.9-.6 16.7 3.7 4 3.6 5.7 8.1 6 13.3a14.8 14.8 0 0 1 0 3 1.4 1.4 0 0 0 .3 1 21.4 21.4 0 0 1 3.8 12.6 25.7 25.7 0 0 1-2.7 11.7 27 27 0 0 1-3.8 5.6c-2.3 2.8-4.8 5.4-7.2 8.2a48.8 48.8 0 0 0-5.8 7.7s-1.7 3-2.9 3.8a38 38 0 0 0-.4 7.2 11.2 11.2 0 0 0 3.8 8.3 10 10 0 0 0 1 .8h.2a4.2 4.2 0 0 0 .4.3c2.9 1.7 6.3-.2 8.1 1a13.7 13.7 0 0 0 1.3-1 12 12 0 0 0 3.1-3.6 1.3 1.3 0 0 1 .4-.4.6.6 0 0 1 1 .4 3.5 3.5 0 0 1-.1 1 10.5 10.5 0 0 1-4.2 5.7 19.5 19.5 0 0 1-9.3 3.4l-2.2.2a15 15 0 0 1-4-.3l-2.6.6a1.5 1.5 0 0 1-.6.2h-.2a5.6 5.6 0 0 1-.7 0 22 22 0 0 1-10.3-1.3 21.5 21.5 0 0 1-6-3.2l-3.4-1.5a.7.7 0 0 1-.4-.1L76 180l-.4-.3-.5-.2-.3-.2a43 43 0 0 1-15.4-15.5 36 36 0 0 1-4.6-21.7 42.8 42.8 0 0 1 3.1-12.5l-1.2-1.2-.1-.2-.2-.2-.2-.4a25.1 25.1 0 0 1-3.6-10A29.4 29.4 0 0 1 55 101a18 18 0 0 1 5-6.5A11 11 0 0 1 73 93.4a1.7 1.7 0 0 0 1.9 0A28 28 0 0 1 90.7 91a21.4 21.4 0 0 1 7 2Z"/><path class="cls-5" d="M97.8 93a21.4 21.4 0 0 0-7-2A27.8 27.8 0 0 0 75 93.5"/><path class="cls-5" d="M97.8 93a21.4 21.4 0 0 0-7-2A27.8 27.8 0 0 0 75 93.5"/><path class="cls-6" d="M75 93.4a1.7 1.7 0 0 1-2 0 11 11 0 0 0-13.1 1 17.9 17.9 0 0 0-5 6.5 29.4 29.4 0 0 0-2.2 16.7 25.3 25.3 0 0 0 3.6 10l.2.5h0l.1.2a.5.5 0 0 0 .1 0l.1.2h0l1.2 1.2a43.2 43.2 0 0 0-3.1 12.5 36 36 0 0 0 4.5 21.7 43 43 0 0 0 15.4 15.4h0l.3.2.5.3.4.2 2.3 1.3a.7.7 0 0 0 .4 0c1.2.7 2.4 1.1 3.4 1.5a21.2 21.2 0 0 0 6 3.3 22 22 0 0 0 10.3 1.3 5.2 5.2 0 0 0 .7 0h.2a1.5 1.5 0 0 0 .6-.2l2.6-.6a14.2 14.2 0 0 0 4 .2l2.2-.1a19.6 19.6 0 0 0 9.3-3.4 10.6 10.6 0 0 0 4.2-5.7 3.5 3.5 0 0 0 .2-1 .6.6 0 0 0-1-.4 1.4 1.4 0 0 0-.4.4 11.9 11.9 0 0 1-3.1 3.6 12.6 12.6 0 0 1-1.4 1c-1.7-1.2-5.2.7-8-1l-.5-.2h0a9.1 9.1 0 0 1-1.1-.9 11.2 11.2 0 0 1-3.9-8.3 38 38 0 0 1 .5-7.2c1.2-.7 3-3.8 3-3.8a48.2 48.2 0 0 1 5.7-7.7c2.3-2.8 4.9-5.4 7.2-8.2a26.8 26.8 0 0 0 3.8-5.5 26 26 0 0 0 2.7-11.8A21.6 21.6 0 0 0 122 114a1.4 1.4 0 0 1-.3-1 14.2 14.2 0 0 0 0-3c-.3-5.2-2-9.8-6-13.3-4.8-4.4-10.3-6-16.7-3.7a1.5 1.5 0 0 1-1.3 0"/><path class="cls-5" d="M115.2 108.5a9 9 0 0 1-1.8 6.4 8.6 8.6 0 0 1-7.1 3.6 6.7 6.7 0 0 1-5.8-2.4 11 11 0 0 1-2.5-5.8 10.3 10.3 0 0 1 1.7-7 8.6 8.6 0 0 1 5-3.6 8 8 0 0 1 6.4.8 9 9 0 0 1 4 5.7 10.5 10.5 0 0 1 .1 2.3Z"/><path class="cls-6" d="M75 93.4a1.7 1.7 0 0 1-2 0 11 11 0 0 0-13.1 1 17.9 17.9 0 0 0-5 6.5 29.4 29.4 0 0 0-2.2 16.7 25.3 25.3 0 0 0 3.6 10l.2.5h0l.1.2a.5.5 0 0 0 .1 0l.1.2h0l1.2 1.2a43.2 43.2 0 0 0-3.1 12.5 36 36 0 0 0 4.5 21.7 43 43 0 0 0 15.4 15.4h0l.3.2.5.3.4.2 2.3 1.3a.7.7 0 0 0 .4 0c1.2.7 2.4 1.1 3.4 1.5a21.2 21.2 0 0 0 6 3.3 22 22 0 0 0 10.3 1.3 5.2 5.2 0 0 0 .7 0h.2a1.5 1.5 0 0 0 .6-.2l2.6-.6a14.2 14.2 0 0 0 4 .2l2.2-.1a19.6 19.6 0 0 0 9.3-3.4 10.6 10.6 0 0 0 4.2-5.7 3.5 3.5 0 0 0 .2-1 .6.6 0 0 0-1-.4 1.4 1.4 0 0 0-.4.4 11.9 11.9 0 0 1-3.1 3.6 12.6 12.6 0 0 1-1.4 1c-1.7-1.2-5.2.7-8-1l-.5-.2h0a9.1 9.1 0 0 1-1.1-.9 11.2 11.2 0 0 1-3.9-8.3 38 38 0 0 1 .5-7.2c1.2-.7 3-3.8 3-3.8a48.2 48.2 0 0 1 5.7-7.7c2.3-2.8 4.9-5.4 7.2-8.2a26.8 26.8 0 0 0 3.8-5.5 26 26 0 0 0 2.7-11.8A21.6 21.6 0 0 0 122 114a1.4 1.4 0 0 1-.3-1 14.2 14.2 0 0 0 0-3c-.3-5.2-2-9.8-6-13.3-4.8-4.4-10.3-6-16.7-3.7a1.5 1.5 0 0 1-1.3 0"/><path class="cls-1" d="M98.3 80.6c0-.4-.1-.3-.6-.4-.3-.2-.5-.3-.6.2s0 1-.7 1.2a.7.7 0 0 0-.9.1l-.6.1a4 4 0 0 0-2.1.6l-.9.1a7.4 7.4 0 0 0-3.3.1c-2 0-4.1 0-6.2.2a2.5 2.5 0 0 0-2.3-.2l-.9-.1c-.1-.2-.3-.4-.5-.1l-.4-.2a1 1 0 0 0-.6-.3 2.8 2.8 0 0 0-.7-.6c-.2-.2-.3-.1-.4 0-.3.5.5 6.2.5 6.7a6 6 0 0 0-.1 2.3c0 .2.2.3.4.4a.5.5 0 0 0 .5.4l.2.1a.5.5 0 0 0 .6.4l.3.2a2.5 2.5 0 0 0 3.3.4l.9.1a1 1 0 0 0 1.3.2 20.7 20.7 0 0 0 8-.4c.3.2.5 0 .6-.1l.5-.1a1.4 1.4 0 0 0 1.3-.4 21 21 0 0 0 2.4-1.1c2.1-1 1.5-3.6 1.1-6a20.5 20.5 0 0 1-.1-3.8Z"/><path class="cls-2" d="M85.7 83.2a32.8 32.8 0 0 1-8.1-.8 1.4 1.4 0 0 1-1.3-1.3 59.4 59.4 0 0 0-2.9-10.3 38.5 38.5 0 0 0-2-4.2c0-.1 0-.3-.2-.4A2.3 2.3 0 0 1 72 63a14.3 14.3 0 0 1 4.4-2.4A54 54 0 0 1 94.8 57a13.5 13.5 0 0 1 4.2.5 7.4 7.4 0 0 1 1.1.5 1.6 1.6 0 0 1 1 1.8 5.4 5.4 0 0 1-.2 1.1 39.1 39.1 0 0 0-2.2 11 68.3 68.3 0 0 0-.4 8.1 1.3 1.3 0 0 1-1 1.4 30.4 30.4 0 0 1-9.3 1.8h-2.3ZM83 97.7a24.5 24.5 0 0 1-9.2-2 12.3 12.3 0 0 1-6.7-7 6.5 6.5 0 0 1-.4-2 1.9 1.9 0 0 1 1.8-2.2 4.8 4.8 0 0 1 2.5.5 26.2 26.2 0 0 0 5.6 2 .7.7 0 0 1 .6.8c0 .4.2.7.1 1 0 1 .5 1.5 1.2 2a17.3 17.3 0 0 0 7 1.7 21.1 21.1 0 0 0 12.3-3c.5-.4 1-.6 1-1.3 0-.4.3-.4.5-.5a51.6 51.6 0 0 0 6.7-2c.7-.2 1.4-.4 1.9.3s0 1.2-.3 1.8a7.2 7.2 0 0 1-1.8 2 32.3 32.3 0 0 1-15 7.3 33.7 33.7 0 0 1-7.8.6Z"/><path class="cls-6" d="M71.6 126.4a46.4 46.4 0 0 0 10.6 56.4"/><path class="cls-6" d="M83.7 125c-6.3 17.3-7.7 54.4 18.8 61.6"/><path class="cls-6" d="M96.9 128.3c6.8 14-2 24.2-.4 36.4s8 22 20 16.6"/><path class="cls-6" d="M103.8 124.5c7.7 7.3 8 13 6.6 18-1.8 7-5.3 9.3-7 21.2"/><ellipse class="cls-6" cx="62.4" cy="109.6" rx="10.1" ry="7.1" transform="rotate(-89.4 62.4 109.6)"/><path class="cls-6" d="M58 129.7c3.4-7.7 8.7-8.2 8.7-8.2"/><path class="cls-2" d="M105.2 119.8a9.3 9.3 0 0 1-2.8 6.5 12.4 12.4 0 0 1-9.3 3.6 15.3 15.3 0 0 1-8.5-2.9c-.9-.7-.8-.6-1.7 0a14.3 14.3 0 0 1-11.7 2.4c-4.5-1.2-7.7-3.8-8.8-8.6a2.2 2.2 0 0 1 0-1.5 6.8 6.8 0 0 0 7.2-.4A35 35 0 0 0 73 116a10.7 10.7 0 0 1 4-2 5.4 5.4 0 0 1 4.5.5 4 4 0 0 0 4.2.2c2.9-1.6 5.4-.8 7.8.8a25.9 25.9 0 0 1 3.6 2.9 8.3 8.3 0 0 0 5.7 2 5.3 5.3 0 0 0 2.3-.7ZM62.3 105.6a6.3 6.3 0 0 1 5.9 4c0 .3.2.5-.1.8s-.5 0-.7-.2a8.7 8.7 0 0 0-9.2-.5 1.2 1.2 0 0 1-.8.2.5.5 0 0 1-.5-.7.8.8 0 0 1 .2-.3c1.4-1.8 3.1-3.2 5.2-3.3ZM107.5 109.2a8.2 8.2 0 0 0-5.2 1.3 1.6 1.6 0 0 1-.5.3.4.4 0 0 1-.5-.4.9.9 0 0 1 0-.4c1.3-3 4.8-5.2 8.3-3.2a8.7 8.7 0 0 1 2.7 2.4c.2.4.6.7.2 1.1s-.8.2-1.1 0a7.7 7.7 0 0 0-3.9-1.1Z"/><path class="cls-2" d="m115.9 133.6.2-17.6c0-.5.3-1.1-.4-1.3s-.6.6-.8 1c-2.8 5-8.9 6.5-13.5 3.5a12.3 12.3 0 0 1-1.5-18.8c4-3.7 10-3.9 13.9.8a10.8 10.8 0 0 1 2.4 4.7c.1.7.4 1 1 1a.8.8 0 0 1 1 .8l.1 2.3c0 .2 0 .5-.2.6-.7.5-.6 1.3-.6 2l-.5 38.8a8 8 0 0 1 0 1c0 .4-.3.7-.6.7s-.7-.3-.7-.7a5 5 0 0 1 0-.9l.2-17.9Zm-1.2-23.6c0-5-2.3-8.5-6-9.8a6.7 6.7 0 0 0-6.2 1 10.2 10.2 0 0 0-2 14.3 7.4 7.4 0 0 0 11.1.8 9.6 9.6 0 0 0 3.1-6.3Z"/></svg>