<svg id="Layer_1" data-name="Layer 1" xmlns="http://www.w3.org/2000/svg" xmlns:xlink="http://www.w3.org/1999/xlink" viewBox="0 0 180 252"><defs><symbol id="Card_layout_6" data-name="Card layout 6" viewBox="0 0 180 252"><path class="cls-1" d="M7.5 7.5h165v237H7.5z"/><path class="cls-1" d="M7.5 7.5h38.3v237H7.5z"/><path class="cls-1" d="M7.5 42.4h38.3v6.9H7.5zM31.1 237.6h141.4v6.9H31.1zM45.8 35.5h120.8v202.1H45.8z"/><path class="cls-2" d="M70.5 53.8H142v154.9H70.5zM70.5 105.5H142M70.5 157.1H142M70.5 131.3H142M106.2 208.8v-155"/><path class="cls-2" d="m142 131.3-35.8-77.5-35.7 77.5 35.7 77.5 35.8-77.5zM70.5 53.8l71.5 51.7M70.5 105.5 142 53.8M70.5 105.5l71.5 51.6M70.5 157.1l71.5-51.6M70.5 157.1l71.5 51.7M70.5 208.8l71.5-51.7"/><rect width="180" height="252" rx="12" style="fill:#fff4d7"/></symbol><symbol id="Heart_red" data-name="Heart red" viewBox="0 0 27.1 25"><path class="cls-4" d="m26.8 9.6-6.3-9a1.4 1.4 0 0 0-1.9-.3l-3.8 2.6a2.2 2.2 0 0 1-2.5 0L8.5.3a1.4 1.4 0 0 0-2 .3l-6.3 9a1.4 1.4 0 0 0 .2 1.7l12.1 13.3a1.4 1.4 0 0 0 2 0l12.2-13.3a1.4 1.4 0 0 0 .1-1.7Z"/><path class="cls-4" d="M13.8 21.6a5.1 5.1 0 0 1-1-.6L4 12a1.8 1.8 0 0 1-.1-2.7l3.4-4.6a2.3 2.3 0 0 1 3.8.2 10.9 10.9 0 0 0 2.1 1.8c.2.2.8 0 1-.2a26.9 26.9 0 0 0 3-2.6c.8-1 1.6-.7 2.2.1a126 126 0 0 1 4 5.5 1.4 1.4 0 0 1 .2 1.2 28.5 28.5 0 0 1-2.4 3.2l-2.8 2.9L15 20l-1.3 1.5Z"/></symbol><symbol id="Royal_red_2" data-name="Royal red 2" viewBox="0 0 115 122.5"><path class="cls-5" d="M0 54c-.1-1.5.8-3.7 1.6-5.7a58 58 0 0 1 19-25.4c2.6-1.9 5.5-2.3 8.4-2.9 4.6-.9 8.7.6 12.9 2.2 2.7 1 5.4 1.8 7.7 3.7 1.3 1 2.6 1 4 .3 5.3-2.3 10-6 15.4-7.7 4.5-1.4 8.5-1.5 12.8 1.4a57.6 57.6 0 0 1 20.9 23.6c3 5.1.1 13.1-2 17-5.5 10-37.4 34-40.2 36.6-1.8 1.6-6.8 20.6-7.4 23-.2 1.2-1 2.3-1.9 2.4-1.3.1-1-1.5-1.2-2.4a59.3 59.3 0 0 0-9-23.4C36.1 91.8 5 68 2.8 63.3 1.5 60.6 0 58 0 53.9ZM65.6 35c0-1.8-.7-2.9-2.4-3.1a3.2 3.2 0 0 0-3.5 2.7 2.5 2.5 0 0 0 2.5 2.7 2.8 2.8 0 0 0 3.4-2.3Zm-20.9.7c0-1.6-.8-2.8-2.6-2.8a2.7 2.7 0 0 0-2.9 3c0 1.3.8 3 2.4 2.7s3.4-.5 3.1-2.9Z"/><path class="cls-5" d="M65.6 35.1a2.8 2.8 0 0 1-3.4 2.3 2.5 2.5 0 0 1-2.5-2.7A3.2 3.2 0 0 1 63 32c1.8.2 2.5 1.4 2.5 3.1ZM44.7 35.8c.3 2.4-1.7 2.7-3.1 2.9s-2.4-1.4-2.4-2.8a2.7 2.7 0 0 1 3-2.9c1.7 0 2.4 1.2 2.5 2.8Z"/><path class="cls-4" d="M11.3 28C12.8 21.9 26 7 31.6 3a19 19 0 0 1 15.9-1.5 114 114 0 0 1 13.1 4.9 4.3 4.3 0 0 0 4 .3A157.7 157.7 0 0 1 80.1.9c4.4-1.3 8.4-1.5 12.8 1.5A57.5 57.5 0 0 1 113.6 26c3 5.1.2 13.1-2 17-5.5 10-37.4 34-40.2 36.6-1.7 1.6-6.8 20.6-7.3 23-.3 1.2-.6 2.3-1.5 2.4-1.3.1-1.5-1.5-1.6-2.4C59 91.3 56 82 53.7 79S19.4 52.5 14.4 43.4c-3.5-6-4.3-10-3-15.3Zm65.3-10.4c0-1.8-.8-3-2.5-3.2a3.2 3.2 0 0 0-3.4 2.7 2.5 2.5 0 0 0 2.5 2.7 2.8 2.8 0 0 0 3.4-2.2Zm-20.9.6c0-1.6-.8-2.8-2.6-2.8a2.7 2.7 0 0 0-2.9 3c0 1.3.8 2.9 2.4 2.7 1.4-.1 3.4-.4 3.1-2.9Z"/><path class="cls-6" d="M76.6 17.6a2.8 2.8 0 0 1-3.4 2.2 2.5 2.5 0 0 1-2.5-2.7 3.2 3.2 0 0 1 3.4-2.7c1.8.3 2.5 1.4 2.5 3.2ZM55.7 18.3C56 20.6 54 21 52.6 21c-1.6.2-2.4-1.4-2.4-2.8a2.7 2.7 0 0 1 2.9-2.9c1.8 0 2.5 1.2 2.6 2.8Z"/></symbol><style>.cls-1,.cls-2{fill:none;stroke:#ccc;stroke-miterlimit:10}.cls-1{stroke-width:.5px}.cls-2{stroke-width:.45px}.cls-4{fill:#e1306c}.cls-5{fill:#ffb000}.cls-6{fill:#fff}</style></defs><use width="180" height="252" xlink:href="#Card_layout_6"/><use width="27.1" height="25" transform="translate(14.1 46.7)" xlink:href="#Heart_red"/><path class="cls-4" d="M17.4 42.4V39H19V14.6h-1.6v-3.5h10.4v3.5h-1.6v9.5l7-9.5h-1.8v-3.5h7.8v3.5h-1.7l-5 6.4 7 18H41v3.4h-8l-5.5-14.8-1.4 2V39h1.6v3.5Z"/><use width="115" height="122.5" transform="translate(39 81.1)" xlink:href="#Royal_red_2"/><path class="cls-5" d="M80.9 70.3c0 4.6 9 8.2 20.1 8.2s20.1-3.7 20.1-8.2V54l-10 7.3L101 48.5 91 61.3 80.8 54Z"/></svg>