<svg id="Layer_1" data-name="Layer 1" xmlns="http://www.w3.org/2000/svg" xmlns:xlink="http://www.w3.org/1999/xlink" viewBox="0 0 180 252"><defs><style>.cls-1{fill:#db4cdb;}.cls-2{fill:#425ce6;}.cls-3,.cls-4{fill:none;stroke:#ccc;stroke-miterlimit:10;}.cls-3{stroke-width:0.5px;}.cls-4{stroke-width:0.45px;}.cls-5{fill:#fff4d7;}</style><symbol id="Card_layout_7" data-name="Card layout 7" viewBox="0 0 180 252"><rect class="cls-3" x="7.5" y="7.5" width="165" height="237"/><rect class="cls-3" x="7.5" y="7.5" width="38.34" height="237"/><rect class="cls-3" x="7.5" y="42.44" width="38.34" height="6.9"/><rect class="cls-3" x="31.06" y="237.6" width="141.44" height="6.9"/><rect class="cls-3" x="45.84" y="35.54" width="120.77" height="202.06"/><rect class="cls-4" x="70.49" y="53.83" width="71.47" height="154.94"/><line class="cls-4" x1="70.49" y1="105.48" x2="141.96" y2="105.48"/><line class="cls-4" x1="70.49" y1="157.12" x2="141.96" y2="157.12"/><line class="cls-4" x1="70.49" y1="131.3" x2="141.96" y2="131.3"/><line class="cls-4" x1="106.22" y1="208.77" x2="106.22" y2="53.83"/><polygon class="cls-4" points="141.96 131.3 106.22 53.83 70.49 131.3 106.22 208.77 141.96 131.3"/><line class="cls-4" x1="70.49" y1="53.83" x2="141.96" y2="105.48"/><line class="cls-4" x1="70.49" y1="105.48" x2="141.96" y2="53.83"/><line class="cls-4" x1="70.49" y1="105.48" x2="141.96" y2="157.12"/><line class="cls-4" x1="70.49" y1="157.12" x2="141.96" y2="105.48"/><line class="cls-4" x1="70.49" y1="157.12" x2="141.96" y2="208.77"/><line class="cls-4" x1="70.49" y1="208.77" x2="141.96" y2="157.12"/><rect class="cls-5" width="180" height="252" rx="12"/></symbol><symbol id="Spades" data-name="Spades" viewBox="0 0 27.89 26"><path class="cls-2" d="M14,26h3.41a1.11,1.11,0,0,0,1-1.48l-2.27-6.31a.61.61,0,0,1,.85-.75l4.44,2.26a1.5,1.5,0,0,0,1.86-.42l4.3-5.52a1.51,1.51,0,0,0-.17-2L15.1.45a1.71,1.71,0,0,0-2.31,0L.48,11.76a1.5,1.5,0,0,0-.16,2l4.3,5.52a1.48,1.48,0,0,0,1.85.42l4.44-2.26a.61.61,0,0,1,.85.75L9.49,24.52a1.11,1.11,0,0,0,1,1.48Z"/></symbol><symbol id="_8_Black_1" data-name="8 Black 1" viewBox="0 0 45.32 44.34"><path class="cls-1" d="M32,32.42c-2.33.11-4.4-.83-6.48-1.7-.29-.12-.62-.45-.9-.2s-.09.61,0,.94a8.42,8.42,0,0,0,1.77,3.59,13.66,13.66,0,0,1,2.08,3.57,10.26,10.26,0,0,1,1.05,4.77c0,.62-.55,1.29-1.1.75a1.53,1.53,0,0,0-1.18-.39c-5.24,0-5.15-1.46-6.27-1.46S19.32,43.54,15,43.54a4.6,4.6,0,0,0-1.2.41c-.79.42-1.3.14-1.27-.76a12.66,12.66,0,0,1,2.56-7.61A29.76,29.76,0,0,0,17,32.66a2.79,2.79,0,0,0,.36-1.23c.1-1.2.06-1.22-1.06-.82l-4,1.43c-2,.74-4,.18-6-.44A8.85,8.85,0,0,1,.11,25,4.72,4.72,0,0,1,1,21.14,49.17,49.17,0,0,1,10.81,11C13.14,9.11,15.49,7.28,18,5.64c2.89-1.89,2.93-1.93,5.58-.11a108.6,108.6,0,0,1,11.8,9.24,34.87,34.87,0,0,1,5.81,6.89,5,5,0,0,1,.47,3.8,7.29,7.29,0,0,1-3.8,5.22A11.13,11.13,0,0,1,32,32.42Z"/><path class="cls-2" d="M35.47,28.23c-2.34.11-4.4-.83-6.49-1.7-.29-.12-.61-.46-.9-.2s-.09.61,0,.94a8.42,8.42,0,0,0,1.77,3.59,13.77,13.77,0,0,1,2.08,3.56A10.45,10.45,0,0,1,33,39.19c0,.63-.56,1.3-1.11.76a1.45,1.45,0,0,0-1.18-.39c-5.24,0-5.15-1.46-6.27-1.46s-1.59,1.25-5.87,1.25a4.67,4.67,0,0,0-1.21.41c-.78.42-1.3.14-1.27-.76a12.71,12.71,0,0,1,2.57-7.61,31.83,31.83,0,0,0,1.83-2.93,2.75,2.75,0,0,0,.36-1.23c.1-1.19.06-1.22-1.06-.81l-4,1.43c-2,.74-4,.18-6-.45a8.84,8.84,0,0,1-6.22-6.64A4.76,4.76,0,0,1,4.47,17,49.26,49.26,0,0,1,14.32,6.77C16.64,4.91,19,3.09,21.49,1.45c2.89-1.89,2.94-1.94,5.58-.12a109.94,109.94,0,0,1,11.8,9.25,34.53,34.53,0,0,1,5.81,6.89,4.94,4.94,0,0,1,.47,3.79,7.23,7.23,0,0,1-3.8,5.23A11.18,11.18,0,0,1,35.47,28.23Z"/></symbol></defs><title>Classic</title><use width="180" height="252" xlink:href="#Card_layout_7"/><use width="27.89" height="26" transform="translate(13.69 46.17)" xlink:href="#Spades"/><use width="45.32" height="44.34" transform="translate(47.83 35.04)" xlink:href="#_8_Black_1"/><path class="cls-2" d="M21,25.59a7.35,7.35,0,0,1-2.23-2.95A10.25,10.25,0,0,1,18,18.57a8.9,8.9,0,0,1,2.4-6.42,8.09,8.09,0,0,1,6.11-2.49,7.57,7.57,0,0,1,5.43,2.09,6.67,6.67,0,0,1,2.19,5,9.17,9.17,0,0,1-.76,3.69A12.64,12.64,0,0,1,31,23.93a10.83,10.83,0,0,1,3,3.52,9.48,9.48,0,0,1,.9,4.28A12,12,0,0,1,32,39.87a9,9,0,0,1-7,3.33,7.43,7.43,0,0,1-5.75-2.53A9.07,9.07,0,0,1,17,34.34a10.7,10.7,0,0,1,.89-4.44A16.5,16.5,0,0,1,21,25.59Zm2.11,2.06a7.33,7.33,0,0,0-.68,1.54,4.88,4.88,0,0,0-.24,1.49A6.78,6.78,0,0,0,24,35.23,5.32,5.32,0,0,0,28,37.35a2.49,2.49,0,0,0,1.75-.58,2.22,2.22,0,0,0,.62-1.69A4.16,4.16,0,0,0,29,32.33,42.56,42.56,0,0,0,23.09,27.65Zm5.62-5.52a9,9,0,0,0,.62-1.62,5.8,5.8,0,0,0,.19-1.46A6.65,6.65,0,0,0,28.31,15a3.63,3.63,0,0,0-3-1.62,2.22,2.22,0,0,0-1.72.72,2.68,2.68,0,0,0-.66,1.86,4.2,4.2,0,0,0,1.19,2.85A21.71,21.71,0,0,0,28.71,22.13Z"/><use width="45.32" height="44.34" transform="translate(119.3 35.04)" xlink:href="#_8_Black_1"/><use width="45.32" height="44.34" transform="translate(47.83 185.7)" xlink:href="#_8_Black_1"/><use width="45.32" height="44.34" transform="translate(119.3 185.7)" xlink:href="#_8_Black_1"/><use width="45.32" height="44.34" transform="translate(47.83 109.23)" xlink:href="#_8_Black_1"/><use width="45.32" height="44.34" transform="translate(119.3 109.23)" xlink:href="#_8_Black_1"/><use width="45.32" height="44.34" transform="translate(83.57 72.1)" xlink:href="#_8_Black_1"/><use width="45.32" height="44.34" transform="translate(83.57 148.55)" xlink:href="#_8_Black_1"/></svg>