<svg id="Layer_1" data-name="Layer 1" xmlns="http://www.w3.org/2000/svg" xmlns:xlink="http://www.w3.org/1999/xlink" viewBox="0 0 180 252"><defs><style>.cls-1{fill:#db4cdb;}.cls-2{fill:#425ce6;}.cls-3,.cls-4{fill:none;stroke:#ccc;stroke-miterlimit:10;}.cls-3{stroke-width:0.5px;}.cls-4{stroke-width:0.45px;}.cls-5{fill:#fff4d7;}</style><symbol id="Card_layout_7" data-name="Card layout 7" viewBox="0 0 180 252"><rect class="cls-3" x="7.5" y="7.5" width="165" height="237"/><rect class="cls-3" x="7.5" y="7.5" width="38.34" height="237"/><rect class="cls-3" x="7.5" y="42.44" width="38.34" height="6.9"/><rect class="cls-3" x="31.06" y="237.6" width="141.44" height="6.9"/><rect class="cls-3" x="45.84" y="35.54" width="120.77" height="202.06"/><rect class="cls-4" x="70.49" y="53.83" width="71.47" height="154.94"/><line class="cls-4" x1="70.49" y1="105.48" x2="141.96" y2="105.48"/><line class="cls-4" x1="70.49" y1="157.12" x2="141.96" y2="157.12"/><line class="cls-4" x1="70.49" y1="131.3" x2="141.96" y2="131.3"/><line class="cls-4" x1="106.22" y1="208.77" x2="106.22" y2="53.83"/><polygon class="cls-4" points="141.96 131.3 106.22 53.83 70.49 131.3 106.22 208.77 141.96 131.3"/><line class="cls-4" x1="70.49" y1="53.83" x2="141.96" y2="105.48"/><line class="cls-4" x1="70.49" y1="105.48" x2="141.96" y2="53.83"/><line class="cls-4" x1="70.49" y1="105.48" x2="141.96" y2="157.12"/><line class="cls-4" x1="70.49" y1="157.12" x2="141.96" y2="105.48"/><line class="cls-4" x1="70.49" y1="157.12" x2="141.96" y2="208.77"/><line class="cls-4" x1="70.49" y1="208.77" x2="141.96" y2="157.12"/><rect class="cls-5" width="180" height="252" rx="12"/></symbol><symbol id="_8_black_2" data-name="8 black 2" viewBox="0 0 48.25 48"><path class="cls-1" d="M19.49,33.25a48,48,0,0,1-5.72,3.64,14.7,14.7,0,0,1-2.86,1.17,3.05,3.05,0,0,1-2.69-.25,24.52,24.52,0,0,1-8-8.63,1.33,1.33,0,0,1,0-1.4A23.26,23.26,0,0,1,7,20.13a4.71,4.71,0,0,1,5.28,0c2.23,1.37,4.59,2.51,6.71,4.06a4.19,4.19,0,0,1,1.25,1.17c-.14-2.18.14-4.08-1.81-5.46A10,10,0,0,1,15,15.58a4.21,4.21,0,0,1,.13-3.8,19.52,19.52,0,0,1,6.48-6.91A2.88,2.88,0,0,1,24.81,5,19.47,19.47,0,0,1,31,11.53a4.62,4.62,0,0,1-.1,4.8,11.89,11.89,0,0,1-3.34,3.75A2.59,2.59,0,0,0,26.35,22a19.05,19.05,0,0,0-.53,2.38c0,.2-.09.46.13.59s.38-.09.55-.21a60.36,60.36,0,0,1,7.6-4.65,4.81,4.81,0,0,1,5.7.42A26.53,26.53,0,0,1,46,27.6,1.6,1.6,0,0,1,46,29.3a24.26,24.26,0,0,1-5.69,6.78c-.47.43-1,.83-1.49,1.22a4.12,4.12,0,0,1-4.53.45,29.32,29.32,0,0,1-6.87-4.15c-.24-.2-.54-.55-.84-.35s-.33,3.91.06,4.76c1.74,2.44,5.63,4.06,5.63,9,0,.83-.11,1.14-1.1.86a15.84,15.84,0,0,0-3.81-.53c-1.65,0-2.79,0-3.66-1.29-.43-.63-.68-.84-1.15,0-1.33,2.29-3.69,1.36-5.88,1.58a6.38,6.38,0,0,0-1.79.29c-.76.33-1.09.08-1.15-.78a9,9,0,0,1,1.13-4.39c.72-1.59,2.82-3.13,3.93-4.51S19.46,35.17,19.49,33.25Zm6.16-22.82a.94.94,0,0,0,1-1.06,1,1,0,0,0-1.17-1,.94.94,0,0,0-1,1C24.49,10.15,24.91,10.44,25.65,10.43Zm-6.1-.69c0,.38.39.73,1,.73a.88.88,0,0,0,1-1,1,1,0,0,0-1.13-1C19.74,8.46,19.54,8.88,19.55,9.74Z"/><path class="cls-1" d="M25.65,10.43c-.74,0-1.16-.28-1.16-1a.94.94,0,0,1,1-1,1,1,0,0,1,1.17,1A.94.94,0,0,1,25.65,10.43Z"/><path class="cls-1" d="M19.55,9.74c0-.86.19-1.28.83-1.32a1,1,0,0,1,1.13,1,.88.88,0,0,1-1,1C19.94,10.47,19.55,10.12,19.55,9.74Z"/><path class="cls-2" d="M21.5,28.83a46.82,46.82,0,0,1-5.72,3.65,14.45,14.45,0,0,1-2.86,1.17,3.12,3.12,0,0,1-2.69-.25,24.61,24.61,0,0,1-8-8.63,1.33,1.33,0,0,1,0-1.4A23.37,23.37,0,0,1,9,15.71a4.69,4.69,0,0,1,5.28,0c2.23,1.37,4.6,2.5,6.71,4.05a4.39,4.39,0,0,1,1.25,1.18c-.14-2.19.14-4.09-1.8-5.46A10.08,10.08,0,0,1,17,11.17a4.18,4.18,0,0,1,.14-3.8A19.33,19.33,0,0,1,23.58.46a2.86,2.86,0,0,1,3.24.09A19.37,19.37,0,0,1,33,7.12a4.6,4.6,0,0,1-.1,4.8,11.86,11.86,0,0,1-3.34,3.74,2.61,2.61,0,0,0-1.24,1.88,21.19,21.19,0,0,0-.53,2.39c0,.2-.08.46.13.58s.39-.08.55-.21a61.56,61.56,0,0,1,7.6-4.65,4.82,4.82,0,0,1,5.7.42A26.63,26.63,0,0,1,48,23.19a1.62,1.62,0,0,1,.07,1.7,24.41,24.41,0,0,1-5.69,6.77c-.48.44-1,.83-1.5,1.23a4.12,4.12,0,0,1-4.52.45,29.09,29.09,0,0,1-6.88-4.16c-.24-.2-.54-.54-.84-.35s-.33,3.91.06,4.76c1.74,2.45,5.63,4.06,5.63,9,0,.84-.11,1.14-1.1.86a16.82,16.82,0,0,0-3.81-.53c-1.64,0-2.79,0-3.66-1.29-.43-.62-.68-.83-1.15,0-1.33,2.28-3.69,1.36-5.88,1.58a6.09,6.09,0,0,0-1.79.29c-.76.32-1.09.08-1.15-.79a9.07,9.07,0,0,1,1.13-4.38c.72-1.6,2.82-3.13,3.94-4.51S21.47,30.75,21.5,28.83Z"/></symbol><symbol id="Clubs" data-name="Clubs" viewBox="0 0 28.29 27.45"><path class="cls-2" d="M27.8,14.54,24.31,9.8A1.82,1.82,0,0,0,22,9.65l-6.18,4a.22.22,0,0,1-.35-.18V12.26a1.34,1.34,0,0,1,.45-1l4.39-3.45a1.11,1.11,0,0,0,0-1.64l-5-5.71A1.72,1.72,0,0,0,13,.46l-5,5.71A1.09,1.09,0,0,0,8,7.81l4.38,3.45a1.34,1.34,0,0,1,.45,1v1.26a.22.22,0,0,1-.35.18l-6.17-4A1.82,1.82,0,0,0,4,9.8L.49,14.54a1.51,1.51,0,0,0-.17,2L4,21.32a1.51,1.51,0,0,0,1.88.43l5.58-3a.62.62,0,0,1,.86.76L9.63,26a1.12,1.12,0,0,0,1.06,1.5h6.92A1.12,1.12,0,0,0,18.66,26L16,19.55a.62.62,0,0,1,.87-.76l5.8,3a1.52,1.52,0,0,0,1.88-.43L28,16.58A1.49,1.49,0,0,0,27.8,14.54Z"/></symbol></defs><title>Classic</title><use width="180" height="252" xlink:href="#Card_layout_7"/><use width="48.25" height="48" transform="translate(47.57 32.91)" xlink:href="#_8_black_2"/><use width="48.25" height="48" transform="translate(118.22 32.91)" xlink:href="#_8_black_2"/><use width="48.25" height="48" transform="translate(117.83 181.9)" xlink:href="#_8_black_2"/><use width="48.25" height="48" transform="translate(47.57 181.9)" xlink:href="#_8_black_2"/><use width="48.25" height="48" transform="translate(82.49 143.55)" xlink:href="#_8_black_2"/><use width="48.25" height="48" transform="translate(117.83 105.05)" xlink:href="#_8_black_2"/><use width="48.25" height="48" transform="translate(47.57 105.05)" xlink:href="#_8_black_2"/><use width="48.25" height="48" transform="translate(82.49 69.27)" xlink:href="#_8_black_2"/><use width="28.29" height="27.45" transform="translate(13.49 45.44)" xlink:href="#Clubs"/><path class="cls-2" d="M21,25.59a7.35,7.35,0,0,1-2.23-2.95A10.24,10.24,0,0,1,18,18.58a8.91,8.91,0,0,1,2.4-6.43,8.09,8.09,0,0,1,6.11-2.49,7.61,7.61,0,0,1,5.43,2.08,6.7,6.7,0,0,1,2.19,5,9.13,9.13,0,0,1-.76,3.69A12.64,12.64,0,0,1,31,23.93a10.83,10.83,0,0,1,3,3.52,9.48,9.48,0,0,1,.9,4.28A12,12,0,0,1,32,39.87a9,9,0,0,1-7,3.33,7.43,7.43,0,0,1-5.75-2.53A9.07,9.07,0,0,1,17,34.34a10.7,10.7,0,0,1,.89-4.44A16.5,16.5,0,0,1,21,25.59Zm2.11,2.06a7.33,7.33,0,0,0-.68,1.54,4.88,4.88,0,0,0-.24,1.49A6.78,6.78,0,0,0,24,35.23,5.32,5.32,0,0,0,28,37.35a2.45,2.45,0,0,0,1.75-.58,2.22,2.22,0,0,0,.62-1.69A4.16,4.16,0,0,0,29,32.33,42.56,42.56,0,0,0,23.09,27.65Zm5.62-5.52a9,9,0,0,0,.62-1.62,5.8,5.8,0,0,0,.19-1.46A6.65,6.65,0,0,0,28.31,15a3.63,3.63,0,0,0-3-1.62,2.22,2.22,0,0,0-1.72.72,2.68,2.68,0,0,0-.66,1.86,4.2,4.2,0,0,0,1.19,2.85A21.71,21.71,0,0,0,28.71,22.13Z"/></svg>