<svg id="Layer_1" data-name="Layer 1" xmlns="http://www.w3.org/2000/svg" xmlns:xlink="http://www.w3.org/1999/xlink" viewBox="0 0 180 252"><defs><symbol id="Card_layout_4" data-name="Card layout 4" viewBox="0 0 180 252"><path class="cls-3" d="M7.5 7.5h165v237H7.5z"/><path class="cls-3" d="M7.5 7.5h38.3v237H7.5z"/><path class="cls-3" d="M7.5 42.4h38.3v6.9H7.5zM31.1 237.6h141.4v6.9H31.1zM45.8 35.5h120.8v202.1H45.8z"/><path class="cls-4" d="M70.5 53.8H142v154.9H70.5zM70.5 105.5H142M70.5 157.1H142M70.5 131.3H142M106.2 208.8v-155"/><path class="cls-4" d="m142 131.3-35.8-77.5-35.7 77.5 35.7 77.5 35.8-77.5zM70.5 53.8l71.5 51.7M70.5 105.5 142 53.8M70.5 105.5l71.5 51.6M70.5 157.1l71.5-51.6M70.5 157.1l71.5 51.7M70.5 208.8l71.5-51.7"/><rect width="180" height="252" rx="12" style="fill:#fff4d7"/></symbol><symbol id="Spades" data-name="Spades" viewBox="0 0 27.9 26"><path class="cls-2" d="M14 26h3.4a1.1 1.1 0 0 0 1-1.5l-2.3-6.3a.6.6 0 0 1 .9-.7l4.4 2.2a1.5 1.5 0 0 0 1.9-.4l4.3-5.5a1.5 1.5 0 0 0-.2-2L15.1.4a1.7 1.7 0 0 0-2.3 0L.5 11.8a1.5 1.5 0 0 0-.2 2l4.3 5.5a1.5 1.5 0 0 0 1.9.4l4.4-2.3a.6.6 0 0 1 .9.8l-2.3 6.3a1.1 1.1 0 0 0 1 1.5Z"/></symbol><symbol id="Black_1" data-name="Black 1" viewBox="0 0 123.6 121"><path d="M87.2 88.5c-6.4.3-12-2.3-17.7-4.7-.8-.3-1.7-1.2-2.4-.5s-.3 1.6 0 2.5a22.6 22.6 0 0 0 4.7 9.8 37.9 37.9 0 0 1 5.7 9.8c2 4.4 3 8.1 2.9 13 0 1.7-1.5 3.5-3 2a4.1 4.1 0 0 0-3.3-1.1c-14.2 0-14-4-17-4-3.3 0-4.4 3.4-16 3.4a13 13 0 0 0-3.3 1c-2.2 1.2-3.6.5-3.5-2 .2-7.6 2.3-14.7 7-20.7a88.7 88.7 0 0 0 5-8 7.5 7.5 0 0 0 1-3.4c.3-3.3.1-3.3-2.9-2.2l-10.9 4c-5.6 2-11 .5-16.2-1.2-9-2.9-14.8-9-17-18.1a12.9 12.9 0 0 1 2.3-10.4 135.5 135.5 0 0 1 26.9-27.8c6.3-5 12.8-10 19.6-14.5 7.9-5.2 8-5.3 15.2-.3a297.2 297.2 0 0 1 32.2 25.2 94 94 0 0 1 15.8 18.8c2 3 2 6.8 1.3 10.3a19.8 19.8 0 0 1-10.3 14.3c-5.1 2.7-10.2 5-16 4.8Z" style="fill:#ffb000"/><path class="cls-2" d="M96.8 77c-6.4.3-12-2.3-17.7-4.6-.8-.4-1.7-1.3-2.5-.6s-.2 1.7 0 2.6a22.8 22.8 0 0 0 4.8 9.8 37.9 37.9 0 0 1 5.7 9.7c2 4.4 3 8.2 2.8 13 0 1.7-1.5 3.5-3 2a4.1 4.1 0 0 0-3.2-1c-14.3 0-14-4-17-4-3.4 0-4.4 3.3-16 3.3a12.4 12.4 0 0 0-3.4 1.1c-2.1 1.2-3.5.4-3.4-2 .2-7.6 2.2-14.7 7-20.8a89.4 89.4 0 0 0 5-8 7.6 7.6 0 0 0 1-3.4c.2-3.2.1-3.3-3-2.2l-10.8 4c-5.6 2-11 .4-16.2-1.3-9-2.9-14.8-9-17-18.1A12.9 12.9 0 0 1 12.3 46 133.8 133.8 0 0 1 39 18.3C45.4 13.4 51.8 8.4 58.6 4c8-5.2 8-5.3 15.3-.3A297 297 0 0 1 106 28.9a94.3 94.3 0 0 1 15.9 18.8c2 3 2 6.8 1.3 10.3a19.8 19.8 0 0 1-10.4 14.3c-5 2.7-10.1 5-16 4.7Z"/></symbol><style>.cls-2{fill:#425ce6}.cls-3,.cls-4{fill:none;stroke:#ccc;stroke-miterlimit:10}.cls-3{stroke-width:.5px}.cls-4{stroke-width:.45px}</style></defs><use width="180" height="252" xlink:href="#Card_layout_4"/><use width="27.9" height="26" transform="translate(11.8 46.2)" xlink:href="#Spades"/><path class="cls-2" d="M12.3 42.4v-3.3h2V17.8a9 9 0 0 1-2.6 1.2v-3.4a15.5 15.5 0 0 0 4.1-2.5 11.5 11.5 0 0 0 2.7-3.4h2.2v29.4h2v3.3ZM42.6 26.5q0 7.5-2.7 12c-1.9 3.2-4.3 4.7-7.2 4.7-2.7 0-5-1.5-6.6-4.6s-2.6-7.1-2.6-12.1 1-9 2.8-12.2 4.3-4.6 7.2-4.6q4 0 6.6 4.6t2.5 12.2Zm-7 10.7a1.7 1.7 0 0 0 1.5-1 6 6 0 0 0 .6-2.8 28.4 28.4 0 0 0-.8-6.3 41 41 0 0 0-2.3-7 12 12 0 0 0-2-3.3 2.8 2.8 0 0 0-2-1.1 1.7 1.7 0 0 0-1.5 1 5.8 5.8 0 0 0-.6 2.8 28.1 28.1 0 0 0 .9 6.2 44.7 44.7 0 0 0 2.3 7 12.1 12.1 0 0 0 1.9 3.4 2.8 2.8 0 0 0 2 1.1Z"/><use width="123.6" height="121" transform="matrix(.37 0 0 .37 47.8 35)" xlink:href="#Black_1"/><use width="123.6" height="121" transform="matrix(.37 0 0 .37 119.3 35)" xlink:href="#Black_1"/><use width="123.6" height="121" transform="matrix(.37 0 0 .37 47.8 83.3)" xlink:href="#Black_1"/><use width="123.6" height="121" transform="matrix(.37 0 0 .37 119.3 83.3)" xlink:href="#Black_1"/><use width="123.6" height="121" transform="matrix(.37 0 0 .37 47.8 131.6)" xlink:href="#Black_1"/><use width="123.6" height="121" transform="matrix(.37 0 0 .37 119.3 131.6)" xlink:href="#Black_1"/><use width="123.6" height="121" transform="matrix(.37 0 0 .37 83.6 57.2)" xlink:href="#Black_1"/><use width="123.6" height="121" transform="matrix(.37 0 0 .37 83.6 157.7)" xlink:href="#Black_1"/><use width="123.6" height="121" transform="matrix(.37 0 0 .37 47.8 179.8)" xlink:href="#Black_1"/><use width="123.6" height="121" transform="matrix(.37 0 0 .37 119.3 179.8)" xlink:href="#Black_1"/></svg>