<svg id="Layer_1" data-name="Layer 1" xmlns="http://www.w3.org/2000/svg" xmlns:xlink="http://www.w3.org/1999/xlink" viewBox="0 0 180 252"><defs><style>.cls-1,.cls-2{fill:none;stroke:#ccc;stroke-miterlimit:10;}.cls-1{stroke-width:0.5px;}.cls-2{stroke-width:0.45px;}.cls-3{fill:#fff4d7;}.cls-4{fill:#425ce6;}.cls-5{fill:#ffb000;}.cls-6{fill:#fafafe;}.cls-7{fill:#f9fafd;}</style><symbol id="Card_layout" data-name="Card layout" viewBox="0 0 180 252"><rect class="cls-1" x="7.5" y="7.5" width="165" height="237"/><rect class="cls-1" x="7.5" y="7.5" width="38.34" height="237"/><rect class="cls-1" x="7.5" y="42.44" width="38.34" height="6.9"/><rect class="cls-1" x="31.06" y="237.6" width="141.44" height="6.9"/><rect class="cls-1" x="45.84" y="35.54" width="120.77" height="202.06"/><rect class="cls-2" x="70.49" y="53.83" width="71.47" height="154.94"/><line class="cls-2" x1="70.49" y1="105.48" x2="141.96" y2="105.48"/><line class="cls-2" x1="70.49" y1="157.12" x2="141.96" y2="157.12"/><line class="cls-2" x1="70.49" y1="131.3" x2="141.96" y2="131.3"/><line class="cls-2" x1="106.22" y1="208.77" x2="106.22" y2="53.83"/><polygon class="cls-2" points="141.96 131.3 106.22 53.83 70.49 131.3 106.22 208.77 141.96 131.3"/><line class="cls-2" x1="70.49" y1="53.83" x2="141.96" y2="105.48"/><line class="cls-2" x1="70.49" y1="105.48" x2="141.96" y2="53.83"/><line class="cls-2" x1="70.49" y1="105.48" x2="141.96" y2="157.12"/><line class="cls-2" x1="70.49" y1="157.12" x2="141.96" y2="105.48"/><line class="cls-2" x1="70.49" y1="157.12" x2="141.96" y2="208.77"/><line class="cls-2" x1="70.49" y1="208.77" x2="141.96" y2="157.12"/><rect class="cls-3" width="180" height="252" rx="12"/></symbol><symbol id="Spades" data-name="Spades" viewBox="0 0 27.89 26"><path class="cls-4" d="M14,26h3.41a1.11,1.11,0,0,0,1-1.48l-2.27-6.31a.61.61,0,0,1,.85-.75l4.44,2.26a1.5,1.5,0,0,0,1.86-.42l4.3-5.52a1.51,1.51,0,0,0-.17-2L15.1.45a1.71,1.71,0,0,0-2.31,0L.48,11.76a1.5,1.5,0,0,0-.16,2l4.3,5.52a1.48,1.48,0,0,0,1.85.42l4.44-2.26a.61.61,0,0,1,.85.75L9.49,24.52a1.11,1.11,0,0,0,1,1.48Z"/></symbol></defs><title>Classic</title><use width="180" height="252" xlink:href="#Card_layout"/><use width="27.89" height="26" transform="translate(13.69 46.17)" xlink:href="#Spades"/><path class="cls-5" d="M120.86,161.07c-6,.28-11.37-2.14-16.74-4.38-.76-.32-1.6-1.18-2.32-.52s-.25,1.57-.06,2.42a21.42,21.42,0,0,0,4.58,9.26,35.88,35.88,0,0,1,5.35,9.21,26.47,26.47,0,0,1,2.73,12.32c-.05,1.61-1.43,3.35-2.85,1.94a3.89,3.89,0,0,0-3.06-1c-13.52,0-13.29-3.75-16.18-3.75-3.1,0-4.11,3.22-15.17,3.22a12.07,12.07,0,0,0-3.1,1.05c-2,1.09-3.36.38-3.29-2,.23-7.2,2.16-13.9,6.63-19.65a83.5,83.5,0,0,0,4.74-7.54A7.19,7.19,0,0,0,83,158.5c.26-3.08.15-3.15-2.74-2.1-3.41,1.24-6.82,2.45-10.24,3.68-5.3,1.91-10.43.48-15.4-1.15-8.4-2.74-14-8.51-16-17.15a12.19,12.19,0,0,1,2.21-9.84c7.07-10.14,15.83-18.59,25.42-26.26,6-4.81,12.08-9.53,18.52-13.74,7.46-4.89,7.58-5,14.42-.31a280.75,280.75,0,0,1,30.44,23.87,89.53,89.53,0,0,1,15,17.8c1.87,2.92,1.93,6.43,1.22,9.79-1.26,5.92-4.29,10.54-9.82,13.48C131.25,159.12,126.46,161.38,120.86,161.07Z"/><path class="cls-4" d="M129.9,150.25c-6,.27-11.37-2.15-16.74-4.39-.76-.31-1.6-1.18-2.32-.51s-.25,1.56,0,2.41a21.28,21.28,0,0,0,4.57,9.27,36,36,0,0,1,5.36,9.21,26.53,26.53,0,0,1,2.72,12.32c0,1.6-1.43,3.34-2.85,1.93a3.91,3.91,0,0,0-3.06-1c-13.51,0-13.29-3.76-16.18-3.76-3.09,0-4.11,3.23-15.16,3.23a12,12,0,0,0-3.11,1c-2,1.09-3.36.38-3.28-2,.22-7.2,2.15-13.89,6.62-19.64a83.65,83.65,0,0,0,4.74-7.55,7.15,7.15,0,0,0,.92-3.18c.26-3.07.15-3.14-2.73-2.1-3.41,1.24-6.83,2.46-10.24,3.69-5.31,1.91-10.44.47-15.41-1.15-8.4-2.74-14-8.52-16-17.15a12.18,12.18,0,0,1,2.22-9.85C56.94,111,65.7,102.52,75.29,94.85c6-4.8,12.08-9.52,18.52-13.74,7.46-4.89,7.59-5,14.42-.31a283.09,283.09,0,0,1,30.45,23.87,89.81,89.81,0,0,1,15,17.8c1.87,2.92,1.93,6.43,1.22,9.79-1.26,5.92-4.28,10.55-9.82,13.49C140.3,148.3,135.5,150.55,129.9,150.25ZM112.09,93.91c.17-1.75-.28-3.17-2.44-3.26s-2.72,1.29-2.77,3.11c0,1.57.32,3.09,2.16,3C110.59,96.75,112.29,96.24,112.09,93.91Zm-17.44-.28a2.7,2.7,0,0,0-2.38-2.34c-1.57-.2-2.19.93-2.3,2.39s.68,2.89,2.06,3C93.22,96.83,94.75,96.24,94.65,93.63Z"/><path class="cls-6" d="M112.09,93.91c.2,2.33-1.5,2.84-3,2.88-1.84.06-2.2-1.46-2.16-3,.05-1.82.63-3.2,2.77-3.11S112.26,92.16,112.09,93.91Z"/><path class="cls-7" d="M94.65,93.63c.1,2.61-1.43,3.2-2.62,3.08-1.38-.14-2.17-1.45-2.06-3s.73-2.59,2.3-2.39A2.7,2.7,0,0,1,94.65,93.63Z"/><path class="cls-4" d="M15,42.44V38.93h1.62L23.78,11.1h6.53l7.17,27.83H39.1v3.51H28.52V38.93h1.57L29,34.67H21l-1.15,4.26h1.62v3.51ZM22,30.8h6.09l-3-12.37Z"/></svg>