<svg id="Layer_1" data-name="Layer 1" xmlns="http://www.w3.org/2000/svg" xmlns:xlink="http://www.w3.org/1999/xlink" viewBox="0 0 180 252"><defs><style>.cls-1{fill:#db4cdb;}.cls-2{fill:#ffb000;}.cls-3,.cls-4{fill:none;stroke:#ccc;stroke-miterlimit:10;}.cls-3{stroke-width:0.5px;}.cls-4{stroke-width:0.45px;}.cls-5{fill:#fff4d7;}.cls-6{fill:#ea8f00;}</style><symbol id="Card_layout_7" data-name="Card layout 7" viewBox="0 0 180 252"><rect class="cls-3" x="7.5" y="7.5" width="165" height="237"/><rect class="cls-3" x="7.5" y="7.5" width="38.34" height="237"/><rect class="cls-3" x="7.5" y="42.44" width="38.34" height="6.9"/><rect class="cls-3" x="31.06" y="237.6" width="141.44" height="6.9"/><rect class="cls-3" x="45.84" y="35.54" width="120.77" height="202.06"/><rect class="cls-4" x="70.49" y="53.83" width="71.47" height="154.94"/><line class="cls-4" x1="70.49" y1="105.48" x2="141.96" y2="105.48"/><line class="cls-4" x1="70.49" y1="157.12" x2="141.96" y2="157.12"/><line class="cls-4" x1="70.49" y1="131.3" x2="141.96" y2="131.3"/><line class="cls-4" x1="106.22" y1="208.77" x2="106.22" y2="53.83"/><polygon class="cls-4" points="141.96 131.3 106.22 53.83 70.49 131.3 106.22 208.77 141.96 131.3"/><line class="cls-4" x1="70.49" y1="53.83" x2="141.96" y2="105.48"/><line class="cls-4" x1="70.49" y1="105.48" x2="141.96" y2="53.83"/><line class="cls-4" x1="70.49" y1="105.48" x2="141.96" y2="157.12"/><line class="cls-4" x1="70.49" y1="157.12" x2="141.96" y2="105.48"/><line class="cls-4" x1="70.49" y1="157.12" x2="141.96" y2="208.77"/><line class="cls-4" x1="70.49" y1="208.77" x2="141.96" y2="157.12"/><rect class="cls-5" width="180" height="252" rx="12"/></symbol><symbol id="Diamond" data-name="Diamond" viewBox="0 0 25.28 26"><path class="cls-6" d="M13.39,25.71,24,15.85a3.84,3.84,0,0,0,0-5.64L13.39.3a1.09,1.09,0,0,0-1.5,0L1.23,10.21a3.85,3.85,0,0,0,0,5.64l10.66,9.86A1.11,1.11,0,0,0,13.39,25.71Z"/><path class="cls-6" d="M12.83,22.79c-2.23-2.39-4.37-4.69-6.52-7-.44-.47-.9-.92-1.36-1.36a2.9,2.9,0,0,1,.14-3.85C7.32,8.29,9.57,6,11.8,3.67a1,1,0,0,1,1.7,0c2.31,2.6,4.65,5.19,6.91,7.83,1,1.15.66,2.17-.48,3.38-2,2.12-3.87,4.35-5.81,6.53C13.75,21.85,13.35,22.25,12.83,22.79Z"/></symbol><symbol id="_8_Red_2" data-name="8 Red 2" viewBox="0 0 49.61 52.06"><path class="cls-1" d="M23.82,52.05c-1,.11-1.57-.66-2.18-1.38-2.58-3.11-4.08-6.85-6-10.34a4.3,4.3,0,0,0-2.73-2.19C9.34,37.1,6,35.43,2.43,34.49a4.08,4.08,0,0,1-1.56-.84,2.08,2.08,0,0,1-.68-2.58,9.79,9.79,0,0,1,2.59-3.42,33,33,0,0,1,9.85-6.34,4.63,4.63,0,0,0,2.8-3.24A22.82,22.82,0,0,1,20.82,8.4c1.94-2,4.09-1.95,6,0a23,23,0,0,1,5.38,9.67A4.59,4.59,0,0,0,35,21.27a31.45,31.45,0,0,1,11.16,7.67c2.5,2.82,2,4.71-1.53,5.74s-6.68,2.63-10.15,3.57a3.8,3.8,0,0,0-2.35,2c-2,3.51-3.48,7.28-6.07,10.43C25.17,51.7,24.79,52,23.82,52.05Zm-2-38.55c-.13-.4-.27-.83-.82-.85s-.94.15-1,.78.12,1,.71,1S21.62,14.05,21.82,13.5Zm4.71.8c.59,0,.86-.31.86-.9s-.25-.88-.77-.85a.93.93,0,0,0-.92.94A.73.73,0,0,0,26.53,14.3Z"/><path class="cls-1" d="M21.82,13.5c-.2.55-.43,1-1.07,1S20,14,20,13.43s.43-.81,1-.78S21.69,13.1,21.82,13.5Z"/><path class="cls-1" d="M26.53,14.3a.73.73,0,0,1-.83-.81.93.93,0,0,1,.92-.94c.52,0,.77.31.77.85S27.12,14.29,26.53,14.3Z"/><path class="cls-2" d="M25.75,45.12c-1.05.11-1.58-.66-2.18-1.39-2.58-3.1-4.09-6.84-6-10.33a4.34,4.34,0,0,0-2.74-2.2c-3.55-1-6.88-2.7-10.47-3.65a4.09,4.09,0,0,1-1.55-.83,2.07,2.07,0,0,1-.68-2.58,9.92,9.92,0,0,1,2.59-3.43,33,33,0,0,1,9.84-6.33,4.63,4.63,0,0,0,2.81-3.24,22.92,22.92,0,0,1,5.39-9.68c1.94-1.95,4.09-1.95,6,0a23,23,0,0,1,5.38,9.68,4.59,4.59,0,0,0,2.72,3.19A31.45,31.45,0,0,1,48,22c2.49,2.82,2.05,4.71-1.53,5.74s-6.68,2.62-10.15,3.57a3.74,3.74,0,0,0-2.35,2c-2,3.51-3.48,7.28-6.07,10.43C27.1,44.77,26.72,45.1,25.75,45.12Z"/></symbol></defs><title>Classic</title><use width="180" height="252" xlink:href="#Card_layout_7"/><use width="25.28" height="26" transform="translate(14.99 46.17)" xlink:href="#Diamond"/><path class="cls-6" d="M21,25.59a7.31,7.31,0,0,1-2.23-3A10.17,10.17,0,0,1,18,18.57a8.9,8.9,0,0,1,2.4-6.42,8.09,8.09,0,0,1,6.11-2.49,7.57,7.57,0,0,1,5.43,2.09,6.67,6.67,0,0,1,2.19,5,9.17,9.17,0,0,1-.76,3.69A12.64,12.64,0,0,1,31,23.93a10.83,10.83,0,0,1,3,3.52,9.48,9.48,0,0,1,.9,4.28A12,12,0,0,1,32,39.87a9,9,0,0,1-7,3.33,7.43,7.43,0,0,1-5.75-2.53A9.07,9.07,0,0,1,17,34.34a10.7,10.7,0,0,1,.89-4.44A16.5,16.5,0,0,1,21,25.59Zm2.11,2.05a7.63,7.63,0,0,0-.68,1.55,4.88,4.88,0,0,0-.24,1.49A6.77,6.77,0,0,0,24,35.23,5.32,5.32,0,0,0,28,37.35a2.49,2.49,0,0,0,1.75-.58,2.22,2.22,0,0,0,.62-1.69A4.16,4.16,0,0,0,29,32.33,43.16,43.16,0,0,0,23.09,27.64Zm5.62-5.51a9,9,0,0,0,.62-1.62,5.8,5.8,0,0,0,.19-1.46A6.65,6.65,0,0,0,28.31,15a3.63,3.63,0,0,0-3-1.62,2.22,2.22,0,0,0-1.72.72,2.68,2.68,0,0,0-.66,1.86,4.2,4.2,0,0,0,1.19,2.85A21.71,21.71,0,0,0,28.71,22.13Z"/><use width="49.61" height="52.06" transform="translate(45.39 34.54)" xlink:href="#_8_Red_2"/><use width="49.61" height="52.06" transform="translate(116.71 34.54)" xlink:href="#_8_Red_2"/><use width="49.61" height="52.06" transform="translate(80.97 70.64)" xlink:href="#_8_Red_2"/><use width="49.61" height="52.06" transform="translate(80.97 145.27)" xlink:href="#_8_Red_2"/><use width="49.61" height="52.06" transform="translate(45.39 105.27)" xlink:href="#_8_Red_2"/><use width="49.61" height="52.06" transform="translate(116.71 105.27)" xlink:href="#_8_Red_2"/><use width="49.61" height="52.06" transform="translate(45.39 182.74)" xlink:href="#_8_Red_2"/><use width="49.61" height="52.06" transform="translate(116.71 182.74)" xlink:href="#_8_Red_2"/></svg>